%TF.GenerationSoftware,KiCad,Pcbnew,(5.1.10)-1*%
%TF.CreationDate,2021-10-10T23:46:45-04:00*%
%TF.ProjectId,STM_SimpleBreakout,53544d5f-5369-46d7-906c-65427265616b,rev?*%
%TF.SameCoordinates,Original*%
%TF.FileFunction,Legend,Top*%
%TF.FilePolarity,Positive*%
%FSLAX46Y46*%
G04 Gerber Fmt 4.6, Leading zero omitted, Abs format (unit mm)*
G04 Created by KiCad (PCBNEW (5.1.10)-1) date 2021-10-10 23:46:45*
%MOMM*%
%LPD*%
G01*
G04 APERTURE LIST*
%ADD10C,0.254000*%
%ADD11C,0.120000*%
%ADD12C,0.150000*%
%ADD13O,1.700000X1.700000*%
%ADD14R,1.700000X1.700000*%
%ADD15R,0.650000X1.060000*%
G04 APERTURE END LIST*
D10*
X156197904Y-78994000D02*
X156101142Y-78945619D01*
X155956000Y-78945619D01*
X155810857Y-78994000D01*
X155714095Y-79090761D01*
X155665714Y-79187523D01*
X155617333Y-79381047D01*
X155617333Y-79526190D01*
X155665714Y-79719714D01*
X155714095Y-79816476D01*
X155810857Y-79913238D01*
X155956000Y-79961619D01*
X156052761Y-79961619D01*
X156197904Y-79913238D01*
X156246285Y-79864857D01*
X156246285Y-79526190D01*
X156052761Y-79526190D01*
X157359047Y-78945619D02*
X157988000Y-78945619D01*
X157649333Y-79332666D01*
X157794476Y-79332666D01*
X157891238Y-79381047D01*
X157939619Y-79429428D01*
X157988000Y-79526190D01*
X157988000Y-79768095D01*
X157939619Y-79864857D01*
X157891238Y-79913238D01*
X157794476Y-79961619D01*
X157504190Y-79961619D01*
X157407428Y-79913238D01*
X157359047Y-79864857D01*
X159778095Y-79864857D02*
X159729714Y-79913238D01*
X159584571Y-79961619D01*
X159487809Y-79961619D01*
X159342666Y-79913238D01*
X159245904Y-79816476D01*
X159197523Y-79719714D01*
X159149142Y-79526190D01*
X159149142Y-79381047D01*
X159197523Y-79187523D01*
X159245904Y-79090761D01*
X159342666Y-78994000D01*
X159487809Y-78945619D01*
X159584571Y-78945619D01*
X159729714Y-78994000D01*
X159778095Y-79042380D01*
X160697333Y-79961619D02*
X160213523Y-79961619D01*
X160213523Y-78945619D01*
X161036000Y-79961619D02*
X161036000Y-78945619D01*
X161616571Y-79961619D02*
X161181142Y-79381047D01*
X161616571Y-78945619D02*
X161036000Y-79526190D01*
X162826095Y-79961619D02*
X162826095Y-78945619D01*
X163068000Y-78945619D01*
X163213142Y-78994000D01*
X163309904Y-79090761D01*
X163358285Y-79187523D01*
X163406666Y-79381047D01*
X163406666Y-79526190D01*
X163358285Y-79719714D01*
X163309904Y-79816476D01*
X163213142Y-79913238D01*
X163068000Y-79961619D01*
X162826095Y-79961619D01*
X163842095Y-79961619D02*
X163842095Y-78945619D01*
X164519428Y-78945619D02*
X164712952Y-78945619D01*
X164809714Y-78994000D01*
X164906476Y-79090761D01*
X164954857Y-79284285D01*
X164954857Y-79622952D01*
X164906476Y-79816476D01*
X164809714Y-79913238D01*
X164712952Y-79961619D01*
X164519428Y-79961619D01*
X164422666Y-79913238D01*
X164325904Y-79816476D01*
X164277523Y-79622952D01*
X164277523Y-79284285D01*
X164325904Y-79090761D01*
X164422666Y-78994000D01*
X164519428Y-78945619D01*
X166744952Y-79961619D02*
X166406285Y-79477809D01*
X166164380Y-79961619D02*
X166164380Y-78945619D01*
X166551428Y-78945619D01*
X166648190Y-78994000D01*
X166696571Y-79042380D01*
X166744952Y-79139142D01*
X166744952Y-79284285D01*
X166696571Y-79381047D01*
X166648190Y-79429428D01*
X166551428Y-79477809D01*
X166164380Y-79477809D01*
X167132000Y-79913238D02*
X167277142Y-79961619D01*
X167519047Y-79961619D01*
X167615809Y-79913238D01*
X167664190Y-79864857D01*
X167712571Y-79768095D01*
X167712571Y-79671333D01*
X167664190Y-79574571D01*
X167615809Y-79526190D01*
X167519047Y-79477809D01*
X167325523Y-79429428D01*
X167228761Y-79381047D01*
X167180380Y-79332666D01*
X167132000Y-79235904D01*
X167132000Y-79139142D01*
X167180380Y-79042380D01*
X167228761Y-78994000D01*
X167325523Y-78945619D01*
X167567428Y-78945619D01*
X167712571Y-78994000D01*
X168002857Y-78945619D02*
X168583428Y-78945619D01*
X168293142Y-79961619D02*
X168293142Y-78945619D01*
D11*
%TO.C,R1*%
X162799500Y-112476276D02*
X162799500Y-112985724D01*
X163844500Y-112476276D02*
X163844500Y-112985724D01*
%TO.C,D1*%
X160809000Y-111116000D02*
X160809000Y-113576000D01*
X162279000Y-111116000D02*
X160809000Y-111116000D01*
X162279000Y-113576000D02*
X162279000Y-111116000D01*
%TO.C,U2*%
X166932000Y-89654000D02*
X166932000Y-89354000D01*
X166932000Y-89354000D02*
X166632000Y-89354000D01*
X166932000Y-96274000D02*
X166932000Y-96574000D01*
X166932000Y-96574000D02*
X166632000Y-96574000D01*
X159712000Y-89654000D02*
X159712000Y-89354000D01*
X159712000Y-89354000D02*
X160012000Y-89354000D01*
X159712000Y-96274000D02*
X159712000Y-96574000D01*
X159712000Y-96574000D02*
X160012000Y-96574000D01*
X160012000Y-96574000D02*
X160012000Y-97889000D01*
%TO.C,U1*%
X170520000Y-111644000D02*
X170520000Y-109844000D01*
X167300000Y-109844000D02*
X167300000Y-112294000D01*
%TO.C,C7*%
X168404000Y-87483733D02*
X168404000Y-87776267D01*
X167384000Y-87483733D02*
X167384000Y-87776267D01*
%TO.C,C6*%
X159365733Y-98550000D02*
X159658267Y-98550000D01*
X159365733Y-99570000D02*
X159658267Y-99570000D01*
%TO.C,C5*%
X164992267Y-99824000D02*
X164699733Y-99824000D01*
X164992267Y-98804000D02*
X164699733Y-98804000D01*
%TO.C,C4*%
X159365733Y-100582000D02*
X159658267Y-100582000D01*
X159365733Y-101602000D02*
X159658267Y-101602000D01*
%TO.C,C3*%
X161542000Y-100476267D02*
X161542000Y-100183733D01*
X162562000Y-100476267D02*
X162562000Y-100183733D01*
%TO.C,C2*%
X168763733Y-107186000D02*
X169056267Y-107186000D01*
X168763733Y-108206000D02*
X169056267Y-108206000D01*
%TO.C,C1*%
X168763733Y-113536000D02*
X169056267Y-113536000D01*
X168763733Y-114556000D02*
X169056267Y-114556000D01*
%TO.C,R1*%
D12*
X163784380Y-110148666D02*
X163308190Y-110482000D01*
X163784380Y-110720095D02*
X162784380Y-110720095D01*
X162784380Y-110339142D01*
X162832000Y-110243904D01*
X162879619Y-110196285D01*
X162974857Y-110148666D01*
X163117714Y-110148666D01*
X163212952Y-110196285D01*
X163260571Y-110243904D01*
X163308190Y-110339142D01*
X163308190Y-110720095D01*
X163784380Y-109196285D02*
X163784380Y-109767714D01*
X163784380Y-109482000D02*
X162784380Y-109482000D01*
X162927238Y-109577238D01*
X163022476Y-109672476D01*
X163070095Y-109767714D01*
%TO.C,D1*%
X161996380Y-110720095D02*
X160996380Y-110720095D01*
X160996380Y-110482000D01*
X161044000Y-110339142D01*
X161139238Y-110243904D01*
X161234476Y-110196285D01*
X161424952Y-110148666D01*
X161567809Y-110148666D01*
X161758285Y-110196285D01*
X161853523Y-110243904D01*
X161948761Y-110339142D01*
X161996380Y-110482000D01*
X161996380Y-110720095D01*
X161996380Y-109196285D02*
X161996380Y-109767714D01*
X161996380Y-109482000D02*
X160996380Y-109482000D01*
X161139238Y-109577238D01*
X161234476Y-109672476D01*
X161282095Y-109767714D01*
%TO.C,U2*%
X156894380Y-93725904D02*
X157703904Y-93725904D01*
X157799142Y-93678285D01*
X157846761Y-93630666D01*
X157894380Y-93535428D01*
X157894380Y-93344952D01*
X157846761Y-93249714D01*
X157799142Y-93202095D01*
X157703904Y-93154476D01*
X156894380Y-93154476D01*
X156989619Y-92725904D02*
X156942000Y-92678285D01*
X156894380Y-92583047D01*
X156894380Y-92344952D01*
X156942000Y-92249714D01*
X156989619Y-92202095D01*
X157084857Y-92154476D01*
X157180095Y-92154476D01*
X157322952Y-92202095D01*
X157894380Y-92773523D01*
X157894380Y-92154476D01*
%TO.C,U1*%
X165822380Y-110743904D02*
X166631904Y-110743904D01*
X166727142Y-110696285D01*
X166774761Y-110648666D01*
X166822380Y-110553428D01*
X166822380Y-110362952D01*
X166774761Y-110267714D01*
X166727142Y-110220095D01*
X166631904Y-110172476D01*
X165822380Y-110172476D01*
X166822380Y-109172476D02*
X166822380Y-109743904D01*
X166822380Y-109458190D02*
X165822380Y-109458190D01*
X165965238Y-109553428D01*
X166060476Y-109648666D01*
X166108095Y-109743904D01*
%TO.C,C7*%
X168251142Y-85002666D02*
X168298761Y-85050285D01*
X168346380Y-85193142D01*
X168346380Y-85288380D01*
X168298761Y-85431238D01*
X168203523Y-85526476D01*
X168108285Y-85574095D01*
X167917809Y-85621714D01*
X167774952Y-85621714D01*
X167584476Y-85574095D01*
X167489238Y-85526476D01*
X167394000Y-85431238D01*
X167346380Y-85288380D01*
X167346380Y-85193142D01*
X167394000Y-85050285D01*
X167441619Y-85002666D01*
X167346380Y-84669333D02*
X167346380Y-84002666D01*
X168346380Y-84431238D01*
%TO.C,C6*%
X156551333Y-99417142D02*
X156503714Y-99464761D01*
X156360857Y-99512380D01*
X156265619Y-99512380D01*
X156122761Y-99464761D01*
X156027523Y-99369523D01*
X155979904Y-99274285D01*
X155932285Y-99083809D01*
X155932285Y-98940952D01*
X155979904Y-98750476D01*
X156027523Y-98655238D01*
X156122761Y-98560000D01*
X156265619Y-98512380D01*
X156360857Y-98512380D01*
X156503714Y-98560000D01*
X156551333Y-98607619D01*
X157408476Y-98512380D02*
X157218000Y-98512380D01*
X157122761Y-98560000D01*
X157075142Y-98607619D01*
X156979904Y-98750476D01*
X156932285Y-98940952D01*
X156932285Y-99321904D01*
X156979904Y-99417142D01*
X157027523Y-99464761D01*
X157122761Y-99512380D01*
X157313238Y-99512380D01*
X157408476Y-99464761D01*
X157456095Y-99417142D01*
X157503714Y-99321904D01*
X157503714Y-99083809D01*
X157456095Y-98988571D01*
X157408476Y-98940952D01*
X157313238Y-98893333D01*
X157122761Y-98893333D01*
X157027523Y-98940952D01*
X156979904Y-98988571D01*
X156932285Y-99083809D01*
%TO.C,C5*%
X167743142Y-98718666D02*
X167790761Y-98766285D01*
X167838380Y-98909142D01*
X167838380Y-99004380D01*
X167790761Y-99147238D01*
X167695523Y-99242476D01*
X167600285Y-99290095D01*
X167409809Y-99337714D01*
X167266952Y-99337714D01*
X167076476Y-99290095D01*
X166981238Y-99242476D01*
X166886000Y-99147238D01*
X166838380Y-99004380D01*
X166838380Y-98909142D01*
X166886000Y-98766285D01*
X166933619Y-98718666D01*
X166838380Y-97813904D02*
X166838380Y-98290095D01*
X167314571Y-98337714D01*
X167266952Y-98290095D01*
X167219333Y-98194857D01*
X167219333Y-97956761D01*
X167266952Y-97861523D01*
X167314571Y-97813904D01*
X167409809Y-97766285D01*
X167647904Y-97766285D01*
X167743142Y-97813904D01*
X167790761Y-97861523D01*
X167838380Y-97956761D01*
X167838380Y-98194857D01*
X167790761Y-98290095D01*
X167743142Y-98337714D01*
%TO.C,C4*%
X156551333Y-101449142D02*
X156503714Y-101496761D01*
X156360857Y-101544380D01*
X156265619Y-101544380D01*
X156122761Y-101496761D01*
X156027523Y-101401523D01*
X155979904Y-101306285D01*
X155932285Y-101115809D01*
X155932285Y-100972952D01*
X155979904Y-100782476D01*
X156027523Y-100687238D01*
X156122761Y-100592000D01*
X156265619Y-100544380D01*
X156360857Y-100544380D01*
X156503714Y-100592000D01*
X156551333Y-100639619D01*
X157408476Y-100877714D02*
X157408476Y-101544380D01*
X157170380Y-100496761D02*
X156932285Y-101211047D01*
X157551333Y-101211047D01*
%TO.C,C3*%
X161885333Y-103227142D02*
X161837714Y-103274761D01*
X161694857Y-103322380D01*
X161599619Y-103322380D01*
X161456761Y-103274761D01*
X161361523Y-103179523D01*
X161313904Y-103084285D01*
X161266285Y-102893809D01*
X161266285Y-102750952D01*
X161313904Y-102560476D01*
X161361523Y-102465238D01*
X161456761Y-102370000D01*
X161599619Y-102322380D01*
X161694857Y-102322380D01*
X161837714Y-102370000D01*
X161885333Y-102417619D01*
X162218666Y-102322380D02*
X162837714Y-102322380D01*
X162504380Y-102703333D01*
X162647238Y-102703333D01*
X162742476Y-102750952D01*
X162790095Y-102798571D01*
X162837714Y-102893809D01*
X162837714Y-103131904D01*
X162790095Y-103227142D01*
X162742476Y-103274761D01*
X162647238Y-103322380D01*
X162361523Y-103322380D01*
X162266285Y-103274761D01*
X162218666Y-103227142D01*
%TO.C,C2*%
X165949333Y-107799142D02*
X165901714Y-107846761D01*
X165758857Y-107894380D01*
X165663619Y-107894380D01*
X165520761Y-107846761D01*
X165425523Y-107751523D01*
X165377904Y-107656285D01*
X165330285Y-107465809D01*
X165330285Y-107322952D01*
X165377904Y-107132476D01*
X165425523Y-107037238D01*
X165520761Y-106942000D01*
X165663619Y-106894380D01*
X165758857Y-106894380D01*
X165901714Y-106942000D01*
X165949333Y-106989619D01*
X166330285Y-106989619D02*
X166377904Y-106942000D01*
X166473142Y-106894380D01*
X166711238Y-106894380D01*
X166806476Y-106942000D01*
X166854095Y-106989619D01*
X166901714Y-107084857D01*
X166901714Y-107180095D01*
X166854095Y-107322952D01*
X166282666Y-107894380D01*
X166901714Y-107894380D01*
%TO.C,C1*%
X165695333Y-114403142D02*
X165647714Y-114450761D01*
X165504857Y-114498380D01*
X165409619Y-114498380D01*
X165266761Y-114450761D01*
X165171523Y-114355523D01*
X165123904Y-114260285D01*
X165076285Y-114069809D01*
X165076285Y-113926952D01*
X165123904Y-113736476D01*
X165171523Y-113641238D01*
X165266761Y-113546000D01*
X165409619Y-113498380D01*
X165504857Y-113498380D01*
X165647714Y-113546000D01*
X165695333Y-113593619D01*
X166647714Y-114498380D02*
X166076285Y-114498380D01*
X166362000Y-114498380D02*
X166362000Y-113498380D01*
X166266761Y-113641238D01*
X166171523Y-113736476D01*
X166076285Y-113784095D01*
%TD*%
%LPC*%
%TO.C,R1*%
G36*
G01*
X163084500Y-113156000D02*
X163559500Y-113156000D01*
G75*
G02*
X163797000Y-113393500I0J-237500D01*
G01*
X163797000Y-113893500D01*
G75*
G02*
X163559500Y-114131000I-237500J0D01*
G01*
X163084500Y-114131000D01*
G75*
G02*
X162847000Y-113893500I0J237500D01*
G01*
X162847000Y-113393500D01*
G75*
G02*
X163084500Y-113156000I237500J0D01*
G01*
G37*
G36*
G01*
X163084500Y-111331000D02*
X163559500Y-111331000D01*
G75*
G02*
X163797000Y-111568500I0J-237500D01*
G01*
X163797000Y-112068500D01*
G75*
G02*
X163559500Y-112306000I-237500J0D01*
G01*
X163084500Y-112306000D01*
G75*
G02*
X162847000Y-112068500I0J237500D01*
G01*
X162847000Y-111568500D01*
G75*
G02*
X163084500Y-111331000I237500J0D01*
G01*
G37*
%TD*%
%TO.C,D1*%
G36*
G01*
X161306500Y-113126000D02*
X161781500Y-113126000D01*
G75*
G02*
X162019000Y-113363500I0J-237500D01*
G01*
X162019000Y-113938500D01*
G75*
G02*
X161781500Y-114176000I-237500J0D01*
G01*
X161306500Y-114176000D01*
G75*
G02*
X161069000Y-113938500I0J237500D01*
G01*
X161069000Y-113363500D01*
G75*
G02*
X161306500Y-113126000I237500J0D01*
G01*
G37*
G36*
G01*
X161306500Y-111376000D02*
X161781500Y-111376000D01*
G75*
G02*
X162019000Y-111613500I0J-237500D01*
G01*
X162019000Y-112188500D01*
G75*
G02*
X161781500Y-112426000I-237500J0D01*
G01*
X161306500Y-112426000D01*
G75*
G02*
X161069000Y-112188500I0J237500D01*
G01*
X161069000Y-111613500D01*
G75*
G02*
X161306500Y-111376000I237500J0D01*
G01*
G37*
%TD*%
%TO.C,U2*%
G36*
G01*
X159772000Y-96014000D02*
X158522000Y-96014000D01*
G75*
G02*
X158397000Y-95889000I0J125000D01*
G01*
X158397000Y-95639000D01*
G75*
G02*
X158522000Y-95514000I125000J0D01*
G01*
X159772000Y-95514000D01*
G75*
G02*
X159897000Y-95639000I0J-125000D01*
G01*
X159897000Y-95889000D01*
G75*
G02*
X159772000Y-96014000I-125000J0D01*
G01*
G37*
G36*
G01*
X159772000Y-95214000D02*
X158522000Y-95214000D01*
G75*
G02*
X158397000Y-95089000I0J125000D01*
G01*
X158397000Y-94839000D01*
G75*
G02*
X158522000Y-94714000I125000J0D01*
G01*
X159772000Y-94714000D01*
G75*
G02*
X159897000Y-94839000I0J-125000D01*
G01*
X159897000Y-95089000D01*
G75*
G02*
X159772000Y-95214000I-125000J0D01*
G01*
G37*
G36*
G01*
X159772000Y-94414000D02*
X158522000Y-94414000D01*
G75*
G02*
X158397000Y-94289000I0J125000D01*
G01*
X158397000Y-94039000D01*
G75*
G02*
X158522000Y-93914000I125000J0D01*
G01*
X159772000Y-93914000D01*
G75*
G02*
X159897000Y-94039000I0J-125000D01*
G01*
X159897000Y-94289000D01*
G75*
G02*
X159772000Y-94414000I-125000J0D01*
G01*
G37*
G36*
G01*
X159772000Y-93614000D02*
X158522000Y-93614000D01*
G75*
G02*
X158397000Y-93489000I0J125000D01*
G01*
X158397000Y-93239000D01*
G75*
G02*
X158522000Y-93114000I125000J0D01*
G01*
X159772000Y-93114000D01*
G75*
G02*
X159897000Y-93239000I0J-125000D01*
G01*
X159897000Y-93489000D01*
G75*
G02*
X159772000Y-93614000I-125000J0D01*
G01*
G37*
G36*
G01*
X159772000Y-92814000D02*
X158522000Y-92814000D01*
G75*
G02*
X158397000Y-92689000I0J125000D01*
G01*
X158397000Y-92439000D01*
G75*
G02*
X158522000Y-92314000I125000J0D01*
G01*
X159772000Y-92314000D01*
G75*
G02*
X159897000Y-92439000I0J-125000D01*
G01*
X159897000Y-92689000D01*
G75*
G02*
X159772000Y-92814000I-125000J0D01*
G01*
G37*
G36*
G01*
X159772000Y-92014000D02*
X158522000Y-92014000D01*
G75*
G02*
X158397000Y-91889000I0J125000D01*
G01*
X158397000Y-91639000D01*
G75*
G02*
X158522000Y-91514000I125000J0D01*
G01*
X159772000Y-91514000D01*
G75*
G02*
X159897000Y-91639000I0J-125000D01*
G01*
X159897000Y-91889000D01*
G75*
G02*
X159772000Y-92014000I-125000J0D01*
G01*
G37*
G36*
G01*
X159772000Y-91214000D02*
X158522000Y-91214000D01*
G75*
G02*
X158397000Y-91089000I0J125000D01*
G01*
X158397000Y-90839000D01*
G75*
G02*
X158522000Y-90714000I125000J0D01*
G01*
X159772000Y-90714000D01*
G75*
G02*
X159897000Y-90839000I0J-125000D01*
G01*
X159897000Y-91089000D01*
G75*
G02*
X159772000Y-91214000I-125000J0D01*
G01*
G37*
G36*
G01*
X159772000Y-90414000D02*
X158522000Y-90414000D01*
G75*
G02*
X158397000Y-90289000I0J125000D01*
G01*
X158397000Y-90039000D01*
G75*
G02*
X158522000Y-89914000I125000J0D01*
G01*
X159772000Y-89914000D01*
G75*
G02*
X159897000Y-90039000I0J-125000D01*
G01*
X159897000Y-90289000D01*
G75*
G02*
X159772000Y-90414000I-125000J0D01*
G01*
G37*
G36*
G01*
X160647000Y-89539000D02*
X160397000Y-89539000D01*
G75*
G02*
X160272000Y-89414000I0J125000D01*
G01*
X160272000Y-88164000D01*
G75*
G02*
X160397000Y-88039000I125000J0D01*
G01*
X160647000Y-88039000D01*
G75*
G02*
X160772000Y-88164000I0J-125000D01*
G01*
X160772000Y-89414000D01*
G75*
G02*
X160647000Y-89539000I-125000J0D01*
G01*
G37*
G36*
G01*
X161447000Y-89539000D02*
X161197000Y-89539000D01*
G75*
G02*
X161072000Y-89414000I0J125000D01*
G01*
X161072000Y-88164000D01*
G75*
G02*
X161197000Y-88039000I125000J0D01*
G01*
X161447000Y-88039000D01*
G75*
G02*
X161572000Y-88164000I0J-125000D01*
G01*
X161572000Y-89414000D01*
G75*
G02*
X161447000Y-89539000I-125000J0D01*
G01*
G37*
G36*
G01*
X162247000Y-89539000D02*
X161997000Y-89539000D01*
G75*
G02*
X161872000Y-89414000I0J125000D01*
G01*
X161872000Y-88164000D01*
G75*
G02*
X161997000Y-88039000I125000J0D01*
G01*
X162247000Y-88039000D01*
G75*
G02*
X162372000Y-88164000I0J-125000D01*
G01*
X162372000Y-89414000D01*
G75*
G02*
X162247000Y-89539000I-125000J0D01*
G01*
G37*
G36*
G01*
X163047000Y-89539000D02*
X162797000Y-89539000D01*
G75*
G02*
X162672000Y-89414000I0J125000D01*
G01*
X162672000Y-88164000D01*
G75*
G02*
X162797000Y-88039000I125000J0D01*
G01*
X163047000Y-88039000D01*
G75*
G02*
X163172000Y-88164000I0J-125000D01*
G01*
X163172000Y-89414000D01*
G75*
G02*
X163047000Y-89539000I-125000J0D01*
G01*
G37*
G36*
G01*
X163847000Y-89539000D02*
X163597000Y-89539000D01*
G75*
G02*
X163472000Y-89414000I0J125000D01*
G01*
X163472000Y-88164000D01*
G75*
G02*
X163597000Y-88039000I125000J0D01*
G01*
X163847000Y-88039000D01*
G75*
G02*
X163972000Y-88164000I0J-125000D01*
G01*
X163972000Y-89414000D01*
G75*
G02*
X163847000Y-89539000I-125000J0D01*
G01*
G37*
G36*
G01*
X164647000Y-89539000D02*
X164397000Y-89539000D01*
G75*
G02*
X164272000Y-89414000I0J125000D01*
G01*
X164272000Y-88164000D01*
G75*
G02*
X164397000Y-88039000I125000J0D01*
G01*
X164647000Y-88039000D01*
G75*
G02*
X164772000Y-88164000I0J-125000D01*
G01*
X164772000Y-89414000D01*
G75*
G02*
X164647000Y-89539000I-125000J0D01*
G01*
G37*
G36*
G01*
X165447000Y-89539000D02*
X165197000Y-89539000D01*
G75*
G02*
X165072000Y-89414000I0J125000D01*
G01*
X165072000Y-88164000D01*
G75*
G02*
X165197000Y-88039000I125000J0D01*
G01*
X165447000Y-88039000D01*
G75*
G02*
X165572000Y-88164000I0J-125000D01*
G01*
X165572000Y-89414000D01*
G75*
G02*
X165447000Y-89539000I-125000J0D01*
G01*
G37*
G36*
G01*
X166247000Y-89539000D02*
X165997000Y-89539000D01*
G75*
G02*
X165872000Y-89414000I0J125000D01*
G01*
X165872000Y-88164000D01*
G75*
G02*
X165997000Y-88039000I125000J0D01*
G01*
X166247000Y-88039000D01*
G75*
G02*
X166372000Y-88164000I0J-125000D01*
G01*
X166372000Y-89414000D01*
G75*
G02*
X166247000Y-89539000I-125000J0D01*
G01*
G37*
G36*
G01*
X168122000Y-90414000D02*
X166872000Y-90414000D01*
G75*
G02*
X166747000Y-90289000I0J125000D01*
G01*
X166747000Y-90039000D01*
G75*
G02*
X166872000Y-89914000I125000J0D01*
G01*
X168122000Y-89914000D01*
G75*
G02*
X168247000Y-90039000I0J-125000D01*
G01*
X168247000Y-90289000D01*
G75*
G02*
X168122000Y-90414000I-125000J0D01*
G01*
G37*
G36*
G01*
X168122000Y-91214000D02*
X166872000Y-91214000D01*
G75*
G02*
X166747000Y-91089000I0J125000D01*
G01*
X166747000Y-90839000D01*
G75*
G02*
X166872000Y-90714000I125000J0D01*
G01*
X168122000Y-90714000D01*
G75*
G02*
X168247000Y-90839000I0J-125000D01*
G01*
X168247000Y-91089000D01*
G75*
G02*
X168122000Y-91214000I-125000J0D01*
G01*
G37*
G36*
G01*
X168122000Y-92014000D02*
X166872000Y-92014000D01*
G75*
G02*
X166747000Y-91889000I0J125000D01*
G01*
X166747000Y-91639000D01*
G75*
G02*
X166872000Y-91514000I125000J0D01*
G01*
X168122000Y-91514000D01*
G75*
G02*
X168247000Y-91639000I0J-125000D01*
G01*
X168247000Y-91889000D01*
G75*
G02*
X168122000Y-92014000I-125000J0D01*
G01*
G37*
G36*
G01*
X168122000Y-92814000D02*
X166872000Y-92814000D01*
G75*
G02*
X166747000Y-92689000I0J125000D01*
G01*
X166747000Y-92439000D01*
G75*
G02*
X166872000Y-92314000I125000J0D01*
G01*
X168122000Y-92314000D01*
G75*
G02*
X168247000Y-92439000I0J-125000D01*
G01*
X168247000Y-92689000D01*
G75*
G02*
X168122000Y-92814000I-125000J0D01*
G01*
G37*
G36*
G01*
X168122000Y-93614000D02*
X166872000Y-93614000D01*
G75*
G02*
X166747000Y-93489000I0J125000D01*
G01*
X166747000Y-93239000D01*
G75*
G02*
X166872000Y-93114000I125000J0D01*
G01*
X168122000Y-93114000D01*
G75*
G02*
X168247000Y-93239000I0J-125000D01*
G01*
X168247000Y-93489000D01*
G75*
G02*
X168122000Y-93614000I-125000J0D01*
G01*
G37*
G36*
G01*
X168122000Y-94414000D02*
X166872000Y-94414000D01*
G75*
G02*
X166747000Y-94289000I0J125000D01*
G01*
X166747000Y-94039000D01*
G75*
G02*
X166872000Y-93914000I125000J0D01*
G01*
X168122000Y-93914000D01*
G75*
G02*
X168247000Y-94039000I0J-125000D01*
G01*
X168247000Y-94289000D01*
G75*
G02*
X168122000Y-94414000I-125000J0D01*
G01*
G37*
G36*
G01*
X168122000Y-95214000D02*
X166872000Y-95214000D01*
G75*
G02*
X166747000Y-95089000I0J125000D01*
G01*
X166747000Y-94839000D01*
G75*
G02*
X166872000Y-94714000I125000J0D01*
G01*
X168122000Y-94714000D01*
G75*
G02*
X168247000Y-94839000I0J-125000D01*
G01*
X168247000Y-95089000D01*
G75*
G02*
X168122000Y-95214000I-125000J0D01*
G01*
G37*
G36*
G01*
X168122000Y-96014000D02*
X166872000Y-96014000D01*
G75*
G02*
X166747000Y-95889000I0J125000D01*
G01*
X166747000Y-95639000D01*
G75*
G02*
X166872000Y-95514000I125000J0D01*
G01*
X168122000Y-95514000D01*
G75*
G02*
X168247000Y-95639000I0J-125000D01*
G01*
X168247000Y-95889000D01*
G75*
G02*
X168122000Y-96014000I-125000J0D01*
G01*
G37*
G36*
G01*
X166247000Y-97889000D02*
X165997000Y-97889000D01*
G75*
G02*
X165872000Y-97764000I0J125000D01*
G01*
X165872000Y-96514000D01*
G75*
G02*
X165997000Y-96389000I125000J0D01*
G01*
X166247000Y-96389000D01*
G75*
G02*
X166372000Y-96514000I0J-125000D01*
G01*
X166372000Y-97764000D01*
G75*
G02*
X166247000Y-97889000I-125000J0D01*
G01*
G37*
G36*
G01*
X165447000Y-97889000D02*
X165197000Y-97889000D01*
G75*
G02*
X165072000Y-97764000I0J125000D01*
G01*
X165072000Y-96514000D01*
G75*
G02*
X165197000Y-96389000I125000J0D01*
G01*
X165447000Y-96389000D01*
G75*
G02*
X165572000Y-96514000I0J-125000D01*
G01*
X165572000Y-97764000D01*
G75*
G02*
X165447000Y-97889000I-125000J0D01*
G01*
G37*
G36*
G01*
X164647000Y-97889000D02*
X164397000Y-97889000D01*
G75*
G02*
X164272000Y-97764000I0J125000D01*
G01*
X164272000Y-96514000D01*
G75*
G02*
X164397000Y-96389000I125000J0D01*
G01*
X164647000Y-96389000D01*
G75*
G02*
X164772000Y-96514000I0J-125000D01*
G01*
X164772000Y-97764000D01*
G75*
G02*
X164647000Y-97889000I-125000J0D01*
G01*
G37*
G36*
G01*
X163847000Y-97889000D02*
X163597000Y-97889000D01*
G75*
G02*
X163472000Y-97764000I0J125000D01*
G01*
X163472000Y-96514000D01*
G75*
G02*
X163597000Y-96389000I125000J0D01*
G01*
X163847000Y-96389000D01*
G75*
G02*
X163972000Y-96514000I0J-125000D01*
G01*
X163972000Y-97764000D01*
G75*
G02*
X163847000Y-97889000I-125000J0D01*
G01*
G37*
G36*
G01*
X163047000Y-97889000D02*
X162797000Y-97889000D01*
G75*
G02*
X162672000Y-97764000I0J125000D01*
G01*
X162672000Y-96514000D01*
G75*
G02*
X162797000Y-96389000I125000J0D01*
G01*
X163047000Y-96389000D01*
G75*
G02*
X163172000Y-96514000I0J-125000D01*
G01*
X163172000Y-97764000D01*
G75*
G02*
X163047000Y-97889000I-125000J0D01*
G01*
G37*
G36*
G01*
X162247000Y-97889000D02*
X161997000Y-97889000D01*
G75*
G02*
X161872000Y-97764000I0J125000D01*
G01*
X161872000Y-96514000D01*
G75*
G02*
X161997000Y-96389000I125000J0D01*
G01*
X162247000Y-96389000D01*
G75*
G02*
X162372000Y-96514000I0J-125000D01*
G01*
X162372000Y-97764000D01*
G75*
G02*
X162247000Y-97889000I-125000J0D01*
G01*
G37*
G36*
G01*
X161447000Y-97889000D02*
X161197000Y-97889000D01*
G75*
G02*
X161072000Y-97764000I0J125000D01*
G01*
X161072000Y-96514000D01*
G75*
G02*
X161197000Y-96389000I125000J0D01*
G01*
X161447000Y-96389000D01*
G75*
G02*
X161572000Y-96514000I0J-125000D01*
G01*
X161572000Y-97764000D01*
G75*
G02*
X161447000Y-97889000I-125000J0D01*
G01*
G37*
G36*
G01*
X160647000Y-97889000D02*
X160397000Y-97889000D01*
G75*
G02*
X160272000Y-97764000I0J125000D01*
G01*
X160272000Y-96514000D01*
G75*
G02*
X160397000Y-96389000I125000J0D01*
G01*
X160647000Y-96389000D01*
G75*
G02*
X160772000Y-96514000I0J-125000D01*
G01*
X160772000Y-97764000D01*
G75*
G02*
X160647000Y-97889000I-125000J0D01*
G01*
G37*
%TD*%
D13*
%TO.C,J2*%
X152400000Y-114300000D03*
X152400000Y-111760000D03*
X152400000Y-109220000D03*
X152400000Y-106680000D03*
X152400000Y-104140000D03*
X152400000Y-101600000D03*
X152400000Y-99060000D03*
X152400000Y-96520000D03*
X152400000Y-93980000D03*
X152400000Y-91440000D03*
X152400000Y-88900000D03*
X152400000Y-86360000D03*
X152400000Y-83820000D03*
X152400000Y-81280000D03*
X152400000Y-78740000D03*
D14*
X152400000Y-76200000D03*
%TD*%
D15*
%TO.C,U1*%
X167960000Y-109644000D03*
X169860000Y-109644000D03*
X169860000Y-111844000D03*
X168910000Y-111844000D03*
X167960000Y-111844000D03*
%TD*%
D13*
%TO.C,J3*%
X172720000Y-114300000D03*
X172720000Y-111760000D03*
X172720000Y-109220000D03*
X172720000Y-106680000D03*
X172720000Y-104140000D03*
X172720000Y-101600000D03*
X172720000Y-99060000D03*
X172720000Y-96520000D03*
X172720000Y-93980000D03*
X172720000Y-91440000D03*
X172720000Y-88900000D03*
X172720000Y-86360000D03*
X172720000Y-83820000D03*
X172720000Y-81280000D03*
X172720000Y-78740000D03*
D14*
X172720000Y-76200000D03*
%TD*%
D13*
%TO.C,J1*%
X156210000Y-76708000D03*
X158750000Y-76708000D03*
X161290000Y-76708000D03*
X163830000Y-76708000D03*
D14*
X166370000Y-76708000D03*
%TD*%
%TO.C,C7*%
G36*
G01*
X167656500Y-87955000D02*
X168131500Y-87955000D01*
G75*
G02*
X168369000Y-88192500I0J-237500D01*
G01*
X168369000Y-88792500D01*
G75*
G02*
X168131500Y-89030000I-237500J0D01*
G01*
X167656500Y-89030000D01*
G75*
G02*
X167419000Y-88792500I0J237500D01*
G01*
X167419000Y-88192500D01*
G75*
G02*
X167656500Y-87955000I237500J0D01*
G01*
G37*
G36*
G01*
X167656500Y-86230000D02*
X168131500Y-86230000D01*
G75*
G02*
X168369000Y-86467500I0J-237500D01*
G01*
X168369000Y-87067500D01*
G75*
G02*
X168131500Y-87305000I-237500J0D01*
G01*
X167656500Y-87305000D01*
G75*
G02*
X167419000Y-87067500I0J237500D01*
G01*
X167419000Y-86467500D01*
G75*
G02*
X167656500Y-86230000I237500J0D01*
G01*
G37*
%TD*%
%TO.C,C6*%
G36*
G01*
X159837000Y-99297500D02*
X159837000Y-98822500D01*
G75*
G02*
X160074500Y-98585000I237500J0D01*
G01*
X160674500Y-98585000D01*
G75*
G02*
X160912000Y-98822500I0J-237500D01*
G01*
X160912000Y-99297500D01*
G75*
G02*
X160674500Y-99535000I-237500J0D01*
G01*
X160074500Y-99535000D01*
G75*
G02*
X159837000Y-99297500I0J237500D01*
G01*
G37*
G36*
G01*
X158112000Y-99297500D02*
X158112000Y-98822500D01*
G75*
G02*
X158349500Y-98585000I237500J0D01*
G01*
X158949500Y-98585000D01*
G75*
G02*
X159187000Y-98822500I0J-237500D01*
G01*
X159187000Y-99297500D01*
G75*
G02*
X158949500Y-99535000I-237500J0D01*
G01*
X158349500Y-99535000D01*
G75*
G02*
X158112000Y-99297500I0J237500D01*
G01*
G37*
%TD*%
%TO.C,C5*%
G36*
G01*
X164521000Y-99076500D02*
X164521000Y-99551500D01*
G75*
G02*
X164283500Y-99789000I-237500J0D01*
G01*
X163683500Y-99789000D01*
G75*
G02*
X163446000Y-99551500I0J237500D01*
G01*
X163446000Y-99076500D01*
G75*
G02*
X163683500Y-98839000I237500J0D01*
G01*
X164283500Y-98839000D01*
G75*
G02*
X164521000Y-99076500I0J-237500D01*
G01*
G37*
G36*
G01*
X166246000Y-99076500D02*
X166246000Y-99551500D01*
G75*
G02*
X166008500Y-99789000I-237500J0D01*
G01*
X165408500Y-99789000D01*
G75*
G02*
X165171000Y-99551500I0J237500D01*
G01*
X165171000Y-99076500D01*
G75*
G02*
X165408500Y-98839000I237500J0D01*
G01*
X166008500Y-98839000D01*
G75*
G02*
X166246000Y-99076500I0J-237500D01*
G01*
G37*
%TD*%
%TO.C,C4*%
G36*
G01*
X159837000Y-101329500D02*
X159837000Y-100854500D01*
G75*
G02*
X160074500Y-100617000I237500J0D01*
G01*
X160674500Y-100617000D01*
G75*
G02*
X160912000Y-100854500I0J-237500D01*
G01*
X160912000Y-101329500D01*
G75*
G02*
X160674500Y-101567000I-237500J0D01*
G01*
X160074500Y-101567000D01*
G75*
G02*
X159837000Y-101329500I0J237500D01*
G01*
G37*
G36*
G01*
X158112000Y-101329500D02*
X158112000Y-100854500D01*
G75*
G02*
X158349500Y-100617000I237500J0D01*
G01*
X158949500Y-100617000D01*
G75*
G02*
X159187000Y-100854500I0J-237500D01*
G01*
X159187000Y-101329500D01*
G75*
G02*
X158949500Y-101567000I-237500J0D01*
G01*
X158349500Y-101567000D01*
G75*
G02*
X158112000Y-101329500I0J237500D01*
G01*
G37*
%TD*%
%TO.C,C3*%
G36*
G01*
X162289500Y-100005000D02*
X161814500Y-100005000D01*
G75*
G02*
X161577000Y-99767500I0J237500D01*
G01*
X161577000Y-99167500D01*
G75*
G02*
X161814500Y-98930000I237500J0D01*
G01*
X162289500Y-98930000D01*
G75*
G02*
X162527000Y-99167500I0J-237500D01*
G01*
X162527000Y-99767500D01*
G75*
G02*
X162289500Y-100005000I-237500J0D01*
G01*
G37*
G36*
G01*
X162289500Y-101730000D02*
X161814500Y-101730000D01*
G75*
G02*
X161577000Y-101492500I0J237500D01*
G01*
X161577000Y-100892500D01*
G75*
G02*
X161814500Y-100655000I237500J0D01*
G01*
X162289500Y-100655000D01*
G75*
G02*
X162527000Y-100892500I0J-237500D01*
G01*
X162527000Y-101492500D01*
G75*
G02*
X162289500Y-101730000I-237500J0D01*
G01*
G37*
%TD*%
%TO.C,C2*%
G36*
G01*
X169235000Y-107933500D02*
X169235000Y-107458500D01*
G75*
G02*
X169472500Y-107221000I237500J0D01*
G01*
X170072500Y-107221000D01*
G75*
G02*
X170310000Y-107458500I0J-237500D01*
G01*
X170310000Y-107933500D01*
G75*
G02*
X170072500Y-108171000I-237500J0D01*
G01*
X169472500Y-108171000D01*
G75*
G02*
X169235000Y-107933500I0J237500D01*
G01*
G37*
G36*
G01*
X167510000Y-107933500D02*
X167510000Y-107458500D01*
G75*
G02*
X167747500Y-107221000I237500J0D01*
G01*
X168347500Y-107221000D01*
G75*
G02*
X168585000Y-107458500I0J-237500D01*
G01*
X168585000Y-107933500D01*
G75*
G02*
X168347500Y-108171000I-237500J0D01*
G01*
X167747500Y-108171000D01*
G75*
G02*
X167510000Y-107933500I0J237500D01*
G01*
G37*
%TD*%
%TO.C,C1*%
G36*
G01*
X169235000Y-114283500D02*
X169235000Y-113808500D01*
G75*
G02*
X169472500Y-113571000I237500J0D01*
G01*
X170072500Y-113571000D01*
G75*
G02*
X170310000Y-113808500I0J-237500D01*
G01*
X170310000Y-114283500D01*
G75*
G02*
X170072500Y-114521000I-237500J0D01*
G01*
X169472500Y-114521000D01*
G75*
G02*
X169235000Y-114283500I0J237500D01*
G01*
G37*
G36*
G01*
X167510000Y-114283500D02*
X167510000Y-113808500D01*
G75*
G02*
X167747500Y-113571000I237500J0D01*
G01*
X168347500Y-113571000D01*
G75*
G02*
X168585000Y-113808500I0J-237500D01*
G01*
X168585000Y-114283500D01*
G75*
G02*
X168347500Y-114521000I-237500J0D01*
G01*
X167747500Y-114521000D01*
G75*
G02*
X167510000Y-114283500I0J237500D01*
G01*
G37*
%TD*%
M02*
