M48
; DRILL file {KiCad (5.1.10)-1} date 10/10/21 23:47:02
; FORMAT={-:-/ absolute / metric / decimal}
; #@! TF.CreationDate,2021-10-10T23:47:02-04:00
; #@! TF.GenerationSoftware,Kicad,Pcbnew,(5.1.10)-1
FMAT,2
METRIC
T1C0.400
T2C1.000
%
G90
G05
T1
X154.554Y-103.5
X155.961Y-104.145
X158.242Y-97.536
X159.766Y-87.376
X160.274Y-102.616
X161.29Y-95.504
X161.328Y-83.02
X161.544Y-90.17
X162.306Y-95.504
X163.255Y-95.188
X163.83Y-84.582
X163.83Y-101.346
X164.592Y-95.504
X165.1Y-111.506
X166.116Y-91.694
X166.116Y-108.712
X166.37Y-86.868
X168.148Y-105.156
X168.812Y-94.989
X169.164Y-96.012
X169.926Y-105.918
T2
X152.4Y-76.2
X152.4Y-78.74
X152.4Y-81.28
X152.4Y-83.82
X152.4Y-86.36
X152.4Y-88.9
X152.4Y-91.44
X152.4Y-93.98
X152.4Y-96.52
X152.4Y-99.06
X152.4Y-101.6
X152.4Y-104.14
X152.4Y-106.68
X152.4Y-109.22
X152.4Y-111.76
X152.4Y-114.3
X156.21Y-76.708
X158.75Y-76.708
X161.29Y-76.708
X163.83Y-76.708
X166.37Y-76.708
X172.72Y-76.2
X172.72Y-78.74
X172.72Y-81.28
X172.72Y-83.82
X172.72Y-86.36
X172.72Y-88.9
X172.72Y-91.44
X172.72Y-93.98
X172.72Y-96.52
X172.72Y-99.06
X172.72Y-101.6
X172.72Y-104.14
X172.72Y-106.68
X172.72Y-109.22
X172.72Y-111.76
X172.72Y-114.3
T0
M30
