%TF.GenerationSoftware,KiCad,Pcbnew,(5.1.10)-1*%
%TF.CreationDate,2021-10-10T23:46:45-04:00*%
%TF.ProjectId,STM_SimpleBreakout,53544d5f-5369-46d7-906c-65427265616b,rev?*%
%TF.SameCoordinates,Original*%
%TF.FileFunction,Soldermask,Top*%
%TF.FilePolarity,Negative*%
%FSLAX46Y46*%
G04 Gerber Fmt 4.6, Leading zero omitted, Abs format (unit mm)*
G04 Created by KiCad (PCBNEW (5.1.10)-1) date 2021-10-10 23:46:45*
%MOMM*%
%LPD*%
G01*
G04 APERTURE LIST*
%ADD10O,1.700000X1.700000*%
%ADD11R,1.700000X1.700000*%
%ADD12R,0.650000X1.060000*%
G04 APERTURE END LIST*
%TO.C,R1*%
G36*
G01*
X163084500Y-113156000D02*
X163559500Y-113156000D01*
G75*
G02*
X163797000Y-113393500I0J-237500D01*
G01*
X163797000Y-113893500D01*
G75*
G02*
X163559500Y-114131000I-237500J0D01*
G01*
X163084500Y-114131000D01*
G75*
G02*
X162847000Y-113893500I0J237500D01*
G01*
X162847000Y-113393500D01*
G75*
G02*
X163084500Y-113156000I237500J0D01*
G01*
G37*
G36*
G01*
X163084500Y-111331000D02*
X163559500Y-111331000D01*
G75*
G02*
X163797000Y-111568500I0J-237500D01*
G01*
X163797000Y-112068500D01*
G75*
G02*
X163559500Y-112306000I-237500J0D01*
G01*
X163084500Y-112306000D01*
G75*
G02*
X162847000Y-112068500I0J237500D01*
G01*
X162847000Y-111568500D01*
G75*
G02*
X163084500Y-111331000I237500J0D01*
G01*
G37*
%TD*%
%TO.C,D1*%
G36*
G01*
X161306500Y-113126000D02*
X161781500Y-113126000D01*
G75*
G02*
X162019000Y-113363500I0J-237500D01*
G01*
X162019000Y-113938500D01*
G75*
G02*
X161781500Y-114176000I-237500J0D01*
G01*
X161306500Y-114176000D01*
G75*
G02*
X161069000Y-113938500I0J237500D01*
G01*
X161069000Y-113363500D01*
G75*
G02*
X161306500Y-113126000I237500J0D01*
G01*
G37*
G36*
G01*
X161306500Y-111376000D02*
X161781500Y-111376000D01*
G75*
G02*
X162019000Y-111613500I0J-237500D01*
G01*
X162019000Y-112188500D01*
G75*
G02*
X161781500Y-112426000I-237500J0D01*
G01*
X161306500Y-112426000D01*
G75*
G02*
X161069000Y-112188500I0J237500D01*
G01*
X161069000Y-111613500D01*
G75*
G02*
X161306500Y-111376000I237500J0D01*
G01*
G37*
%TD*%
%TO.C,U2*%
G36*
G01*
X159772000Y-96014000D02*
X158522000Y-96014000D01*
G75*
G02*
X158397000Y-95889000I0J125000D01*
G01*
X158397000Y-95639000D01*
G75*
G02*
X158522000Y-95514000I125000J0D01*
G01*
X159772000Y-95514000D01*
G75*
G02*
X159897000Y-95639000I0J-125000D01*
G01*
X159897000Y-95889000D01*
G75*
G02*
X159772000Y-96014000I-125000J0D01*
G01*
G37*
G36*
G01*
X159772000Y-95214000D02*
X158522000Y-95214000D01*
G75*
G02*
X158397000Y-95089000I0J125000D01*
G01*
X158397000Y-94839000D01*
G75*
G02*
X158522000Y-94714000I125000J0D01*
G01*
X159772000Y-94714000D01*
G75*
G02*
X159897000Y-94839000I0J-125000D01*
G01*
X159897000Y-95089000D01*
G75*
G02*
X159772000Y-95214000I-125000J0D01*
G01*
G37*
G36*
G01*
X159772000Y-94414000D02*
X158522000Y-94414000D01*
G75*
G02*
X158397000Y-94289000I0J125000D01*
G01*
X158397000Y-94039000D01*
G75*
G02*
X158522000Y-93914000I125000J0D01*
G01*
X159772000Y-93914000D01*
G75*
G02*
X159897000Y-94039000I0J-125000D01*
G01*
X159897000Y-94289000D01*
G75*
G02*
X159772000Y-94414000I-125000J0D01*
G01*
G37*
G36*
G01*
X159772000Y-93614000D02*
X158522000Y-93614000D01*
G75*
G02*
X158397000Y-93489000I0J125000D01*
G01*
X158397000Y-93239000D01*
G75*
G02*
X158522000Y-93114000I125000J0D01*
G01*
X159772000Y-93114000D01*
G75*
G02*
X159897000Y-93239000I0J-125000D01*
G01*
X159897000Y-93489000D01*
G75*
G02*
X159772000Y-93614000I-125000J0D01*
G01*
G37*
G36*
G01*
X159772000Y-92814000D02*
X158522000Y-92814000D01*
G75*
G02*
X158397000Y-92689000I0J125000D01*
G01*
X158397000Y-92439000D01*
G75*
G02*
X158522000Y-92314000I125000J0D01*
G01*
X159772000Y-92314000D01*
G75*
G02*
X159897000Y-92439000I0J-125000D01*
G01*
X159897000Y-92689000D01*
G75*
G02*
X159772000Y-92814000I-125000J0D01*
G01*
G37*
G36*
G01*
X159772000Y-92014000D02*
X158522000Y-92014000D01*
G75*
G02*
X158397000Y-91889000I0J125000D01*
G01*
X158397000Y-91639000D01*
G75*
G02*
X158522000Y-91514000I125000J0D01*
G01*
X159772000Y-91514000D01*
G75*
G02*
X159897000Y-91639000I0J-125000D01*
G01*
X159897000Y-91889000D01*
G75*
G02*
X159772000Y-92014000I-125000J0D01*
G01*
G37*
G36*
G01*
X159772000Y-91214000D02*
X158522000Y-91214000D01*
G75*
G02*
X158397000Y-91089000I0J125000D01*
G01*
X158397000Y-90839000D01*
G75*
G02*
X158522000Y-90714000I125000J0D01*
G01*
X159772000Y-90714000D01*
G75*
G02*
X159897000Y-90839000I0J-125000D01*
G01*
X159897000Y-91089000D01*
G75*
G02*
X159772000Y-91214000I-125000J0D01*
G01*
G37*
G36*
G01*
X159772000Y-90414000D02*
X158522000Y-90414000D01*
G75*
G02*
X158397000Y-90289000I0J125000D01*
G01*
X158397000Y-90039000D01*
G75*
G02*
X158522000Y-89914000I125000J0D01*
G01*
X159772000Y-89914000D01*
G75*
G02*
X159897000Y-90039000I0J-125000D01*
G01*
X159897000Y-90289000D01*
G75*
G02*
X159772000Y-90414000I-125000J0D01*
G01*
G37*
G36*
G01*
X160647000Y-89539000D02*
X160397000Y-89539000D01*
G75*
G02*
X160272000Y-89414000I0J125000D01*
G01*
X160272000Y-88164000D01*
G75*
G02*
X160397000Y-88039000I125000J0D01*
G01*
X160647000Y-88039000D01*
G75*
G02*
X160772000Y-88164000I0J-125000D01*
G01*
X160772000Y-89414000D01*
G75*
G02*
X160647000Y-89539000I-125000J0D01*
G01*
G37*
G36*
G01*
X161447000Y-89539000D02*
X161197000Y-89539000D01*
G75*
G02*
X161072000Y-89414000I0J125000D01*
G01*
X161072000Y-88164000D01*
G75*
G02*
X161197000Y-88039000I125000J0D01*
G01*
X161447000Y-88039000D01*
G75*
G02*
X161572000Y-88164000I0J-125000D01*
G01*
X161572000Y-89414000D01*
G75*
G02*
X161447000Y-89539000I-125000J0D01*
G01*
G37*
G36*
G01*
X162247000Y-89539000D02*
X161997000Y-89539000D01*
G75*
G02*
X161872000Y-89414000I0J125000D01*
G01*
X161872000Y-88164000D01*
G75*
G02*
X161997000Y-88039000I125000J0D01*
G01*
X162247000Y-88039000D01*
G75*
G02*
X162372000Y-88164000I0J-125000D01*
G01*
X162372000Y-89414000D01*
G75*
G02*
X162247000Y-89539000I-125000J0D01*
G01*
G37*
G36*
G01*
X163047000Y-89539000D02*
X162797000Y-89539000D01*
G75*
G02*
X162672000Y-89414000I0J125000D01*
G01*
X162672000Y-88164000D01*
G75*
G02*
X162797000Y-88039000I125000J0D01*
G01*
X163047000Y-88039000D01*
G75*
G02*
X163172000Y-88164000I0J-125000D01*
G01*
X163172000Y-89414000D01*
G75*
G02*
X163047000Y-89539000I-125000J0D01*
G01*
G37*
G36*
G01*
X163847000Y-89539000D02*
X163597000Y-89539000D01*
G75*
G02*
X163472000Y-89414000I0J125000D01*
G01*
X163472000Y-88164000D01*
G75*
G02*
X163597000Y-88039000I125000J0D01*
G01*
X163847000Y-88039000D01*
G75*
G02*
X163972000Y-88164000I0J-125000D01*
G01*
X163972000Y-89414000D01*
G75*
G02*
X163847000Y-89539000I-125000J0D01*
G01*
G37*
G36*
G01*
X164647000Y-89539000D02*
X164397000Y-89539000D01*
G75*
G02*
X164272000Y-89414000I0J125000D01*
G01*
X164272000Y-88164000D01*
G75*
G02*
X164397000Y-88039000I125000J0D01*
G01*
X164647000Y-88039000D01*
G75*
G02*
X164772000Y-88164000I0J-125000D01*
G01*
X164772000Y-89414000D01*
G75*
G02*
X164647000Y-89539000I-125000J0D01*
G01*
G37*
G36*
G01*
X165447000Y-89539000D02*
X165197000Y-89539000D01*
G75*
G02*
X165072000Y-89414000I0J125000D01*
G01*
X165072000Y-88164000D01*
G75*
G02*
X165197000Y-88039000I125000J0D01*
G01*
X165447000Y-88039000D01*
G75*
G02*
X165572000Y-88164000I0J-125000D01*
G01*
X165572000Y-89414000D01*
G75*
G02*
X165447000Y-89539000I-125000J0D01*
G01*
G37*
G36*
G01*
X166247000Y-89539000D02*
X165997000Y-89539000D01*
G75*
G02*
X165872000Y-89414000I0J125000D01*
G01*
X165872000Y-88164000D01*
G75*
G02*
X165997000Y-88039000I125000J0D01*
G01*
X166247000Y-88039000D01*
G75*
G02*
X166372000Y-88164000I0J-125000D01*
G01*
X166372000Y-89414000D01*
G75*
G02*
X166247000Y-89539000I-125000J0D01*
G01*
G37*
G36*
G01*
X168122000Y-90414000D02*
X166872000Y-90414000D01*
G75*
G02*
X166747000Y-90289000I0J125000D01*
G01*
X166747000Y-90039000D01*
G75*
G02*
X166872000Y-89914000I125000J0D01*
G01*
X168122000Y-89914000D01*
G75*
G02*
X168247000Y-90039000I0J-125000D01*
G01*
X168247000Y-90289000D01*
G75*
G02*
X168122000Y-90414000I-125000J0D01*
G01*
G37*
G36*
G01*
X168122000Y-91214000D02*
X166872000Y-91214000D01*
G75*
G02*
X166747000Y-91089000I0J125000D01*
G01*
X166747000Y-90839000D01*
G75*
G02*
X166872000Y-90714000I125000J0D01*
G01*
X168122000Y-90714000D01*
G75*
G02*
X168247000Y-90839000I0J-125000D01*
G01*
X168247000Y-91089000D01*
G75*
G02*
X168122000Y-91214000I-125000J0D01*
G01*
G37*
G36*
G01*
X168122000Y-92014000D02*
X166872000Y-92014000D01*
G75*
G02*
X166747000Y-91889000I0J125000D01*
G01*
X166747000Y-91639000D01*
G75*
G02*
X166872000Y-91514000I125000J0D01*
G01*
X168122000Y-91514000D01*
G75*
G02*
X168247000Y-91639000I0J-125000D01*
G01*
X168247000Y-91889000D01*
G75*
G02*
X168122000Y-92014000I-125000J0D01*
G01*
G37*
G36*
G01*
X168122000Y-92814000D02*
X166872000Y-92814000D01*
G75*
G02*
X166747000Y-92689000I0J125000D01*
G01*
X166747000Y-92439000D01*
G75*
G02*
X166872000Y-92314000I125000J0D01*
G01*
X168122000Y-92314000D01*
G75*
G02*
X168247000Y-92439000I0J-125000D01*
G01*
X168247000Y-92689000D01*
G75*
G02*
X168122000Y-92814000I-125000J0D01*
G01*
G37*
G36*
G01*
X168122000Y-93614000D02*
X166872000Y-93614000D01*
G75*
G02*
X166747000Y-93489000I0J125000D01*
G01*
X166747000Y-93239000D01*
G75*
G02*
X166872000Y-93114000I125000J0D01*
G01*
X168122000Y-93114000D01*
G75*
G02*
X168247000Y-93239000I0J-125000D01*
G01*
X168247000Y-93489000D01*
G75*
G02*
X168122000Y-93614000I-125000J0D01*
G01*
G37*
G36*
G01*
X168122000Y-94414000D02*
X166872000Y-94414000D01*
G75*
G02*
X166747000Y-94289000I0J125000D01*
G01*
X166747000Y-94039000D01*
G75*
G02*
X166872000Y-93914000I125000J0D01*
G01*
X168122000Y-93914000D01*
G75*
G02*
X168247000Y-94039000I0J-125000D01*
G01*
X168247000Y-94289000D01*
G75*
G02*
X168122000Y-94414000I-125000J0D01*
G01*
G37*
G36*
G01*
X168122000Y-95214000D02*
X166872000Y-95214000D01*
G75*
G02*
X166747000Y-95089000I0J125000D01*
G01*
X166747000Y-94839000D01*
G75*
G02*
X166872000Y-94714000I125000J0D01*
G01*
X168122000Y-94714000D01*
G75*
G02*
X168247000Y-94839000I0J-125000D01*
G01*
X168247000Y-95089000D01*
G75*
G02*
X168122000Y-95214000I-125000J0D01*
G01*
G37*
G36*
G01*
X168122000Y-96014000D02*
X166872000Y-96014000D01*
G75*
G02*
X166747000Y-95889000I0J125000D01*
G01*
X166747000Y-95639000D01*
G75*
G02*
X166872000Y-95514000I125000J0D01*
G01*
X168122000Y-95514000D01*
G75*
G02*
X168247000Y-95639000I0J-125000D01*
G01*
X168247000Y-95889000D01*
G75*
G02*
X168122000Y-96014000I-125000J0D01*
G01*
G37*
G36*
G01*
X166247000Y-97889000D02*
X165997000Y-97889000D01*
G75*
G02*
X165872000Y-97764000I0J125000D01*
G01*
X165872000Y-96514000D01*
G75*
G02*
X165997000Y-96389000I125000J0D01*
G01*
X166247000Y-96389000D01*
G75*
G02*
X166372000Y-96514000I0J-125000D01*
G01*
X166372000Y-97764000D01*
G75*
G02*
X166247000Y-97889000I-125000J0D01*
G01*
G37*
G36*
G01*
X165447000Y-97889000D02*
X165197000Y-97889000D01*
G75*
G02*
X165072000Y-97764000I0J125000D01*
G01*
X165072000Y-96514000D01*
G75*
G02*
X165197000Y-96389000I125000J0D01*
G01*
X165447000Y-96389000D01*
G75*
G02*
X165572000Y-96514000I0J-125000D01*
G01*
X165572000Y-97764000D01*
G75*
G02*
X165447000Y-97889000I-125000J0D01*
G01*
G37*
G36*
G01*
X164647000Y-97889000D02*
X164397000Y-97889000D01*
G75*
G02*
X164272000Y-97764000I0J125000D01*
G01*
X164272000Y-96514000D01*
G75*
G02*
X164397000Y-96389000I125000J0D01*
G01*
X164647000Y-96389000D01*
G75*
G02*
X164772000Y-96514000I0J-125000D01*
G01*
X164772000Y-97764000D01*
G75*
G02*
X164647000Y-97889000I-125000J0D01*
G01*
G37*
G36*
G01*
X163847000Y-97889000D02*
X163597000Y-97889000D01*
G75*
G02*
X163472000Y-97764000I0J125000D01*
G01*
X163472000Y-96514000D01*
G75*
G02*
X163597000Y-96389000I125000J0D01*
G01*
X163847000Y-96389000D01*
G75*
G02*
X163972000Y-96514000I0J-125000D01*
G01*
X163972000Y-97764000D01*
G75*
G02*
X163847000Y-97889000I-125000J0D01*
G01*
G37*
G36*
G01*
X163047000Y-97889000D02*
X162797000Y-97889000D01*
G75*
G02*
X162672000Y-97764000I0J125000D01*
G01*
X162672000Y-96514000D01*
G75*
G02*
X162797000Y-96389000I125000J0D01*
G01*
X163047000Y-96389000D01*
G75*
G02*
X163172000Y-96514000I0J-125000D01*
G01*
X163172000Y-97764000D01*
G75*
G02*
X163047000Y-97889000I-125000J0D01*
G01*
G37*
G36*
G01*
X162247000Y-97889000D02*
X161997000Y-97889000D01*
G75*
G02*
X161872000Y-97764000I0J125000D01*
G01*
X161872000Y-96514000D01*
G75*
G02*
X161997000Y-96389000I125000J0D01*
G01*
X162247000Y-96389000D01*
G75*
G02*
X162372000Y-96514000I0J-125000D01*
G01*
X162372000Y-97764000D01*
G75*
G02*
X162247000Y-97889000I-125000J0D01*
G01*
G37*
G36*
G01*
X161447000Y-97889000D02*
X161197000Y-97889000D01*
G75*
G02*
X161072000Y-97764000I0J125000D01*
G01*
X161072000Y-96514000D01*
G75*
G02*
X161197000Y-96389000I125000J0D01*
G01*
X161447000Y-96389000D01*
G75*
G02*
X161572000Y-96514000I0J-125000D01*
G01*
X161572000Y-97764000D01*
G75*
G02*
X161447000Y-97889000I-125000J0D01*
G01*
G37*
G36*
G01*
X160647000Y-97889000D02*
X160397000Y-97889000D01*
G75*
G02*
X160272000Y-97764000I0J125000D01*
G01*
X160272000Y-96514000D01*
G75*
G02*
X160397000Y-96389000I125000J0D01*
G01*
X160647000Y-96389000D01*
G75*
G02*
X160772000Y-96514000I0J-125000D01*
G01*
X160772000Y-97764000D01*
G75*
G02*
X160647000Y-97889000I-125000J0D01*
G01*
G37*
%TD*%
D10*
%TO.C,J2*%
X152400000Y-114300000D03*
X152400000Y-111760000D03*
X152400000Y-109220000D03*
X152400000Y-106680000D03*
X152400000Y-104140000D03*
X152400000Y-101600000D03*
X152400000Y-99060000D03*
X152400000Y-96520000D03*
X152400000Y-93980000D03*
X152400000Y-91440000D03*
X152400000Y-88900000D03*
X152400000Y-86360000D03*
X152400000Y-83820000D03*
X152400000Y-81280000D03*
X152400000Y-78740000D03*
D11*
X152400000Y-76200000D03*
%TD*%
D12*
%TO.C,U1*%
X167960000Y-109644000D03*
X169860000Y-109644000D03*
X169860000Y-111844000D03*
X168910000Y-111844000D03*
X167960000Y-111844000D03*
%TD*%
D10*
%TO.C,J3*%
X172720000Y-114300000D03*
X172720000Y-111760000D03*
X172720000Y-109220000D03*
X172720000Y-106680000D03*
X172720000Y-104140000D03*
X172720000Y-101600000D03*
X172720000Y-99060000D03*
X172720000Y-96520000D03*
X172720000Y-93980000D03*
X172720000Y-91440000D03*
X172720000Y-88900000D03*
X172720000Y-86360000D03*
X172720000Y-83820000D03*
X172720000Y-81280000D03*
X172720000Y-78740000D03*
D11*
X172720000Y-76200000D03*
%TD*%
D10*
%TO.C,J1*%
X156210000Y-76708000D03*
X158750000Y-76708000D03*
X161290000Y-76708000D03*
X163830000Y-76708000D03*
D11*
X166370000Y-76708000D03*
%TD*%
%TO.C,C7*%
G36*
G01*
X167656500Y-87955000D02*
X168131500Y-87955000D01*
G75*
G02*
X168369000Y-88192500I0J-237500D01*
G01*
X168369000Y-88792500D01*
G75*
G02*
X168131500Y-89030000I-237500J0D01*
G01*
X167656500Y-89030000D01*
G75*
G02*
X167419000Y-88792500I0J237500D01*
G01*
X167419000Y-88192500D01*
G75*
G02*
X167656500Y-87955000I237500J0D01*
G01*
G37*
G36*
G01*
X167656500Y-86230000D02*
X168131500Y-86230000D01*
G75*
G02*
X168369000Y-86467500I0J-237500D01*
G01*
X168369000Y-87067500D01*
G75*
G02*
X168131500Y-87305000I-237500J0D01*
G01*
X167656500Y-87305000D01*
G75*
G02*
X167419000Y-87067500I0J237500D01*
G01*
X167419000Y-86467500D01*
G75*
G02*
X167656500Y-86230000I237500J0D01*
G01*
G37*
%TD*%
%TO.C,C6*%
G36*
G01*
X159837000Y-99297500D02*
X159837000Y-98822500D01*
G75*
G02*
X160074500Y-98585000I237500J0D01*
G01*
X160674500Y-98585000D01*
G75*
G02*
X160912000Y-98822500I0J-237500D01*
G01*
X160912000Y-99297500D01*
G75*
G02*
X160674500Y-99535000I-237500J0D01*
G01*
X160074500Y-99535000D01*
G75*
G02*
X159837000Y-99297500I0J237500D01*
G01*
G37*
G36*
G01*
X158112000Y-99297500D02*
X158112000Y-98822500D01*
G75*
G02*
X158349500Y-98585000I237500J0D01*
G01*
X158949500Y-98585000D01*
G75*
G02*
X159187000Y-98822500I0J-237500D01*
G01*
X159187000Y-99297500D01*
G75*
G02*
X158949500Y-99535000I-237500J0D01*
G01*
X158349500Y-99535000D01*
G75*
G02*
X158112000Y-99297500I0J237500D01*
G01*
G37*
%TD*%
%TO.C,C5*%
G36*
G01*
X164521000Y-99076500D02*
X164521000Y-99551500D01*
G75*
G02*
X164283500Y-99789000I-237500J0D01*
G01*
X163683500Y-99789000D01*
G75*
G02*
X163446000Y-99551500I0J237500D01*
G01*
X163446000Y-99076500D01*
G75*
G02*
X163683500Y-98839000I237500J0D01*
G01*
X164283500Y-98839000D01*
G75*
G02*
X164521000Y-99076500I0J-237500D01*
G01*
G37*
G36*
G01*
X166246000Y-99076500D02*
X166246000Y-99551500D01*
G75*
G02*
X166008500Y-99789000I-237500J0D01*
G01*
X165408500Y-99789000D01*
G75*
G02*
X165171000Y-99551500I0J237500D01*
G01*
X165171000Y-99076500D01*
G75*
G02*
X165408500Y-98839000I237500J0D01*
G01*
X166008500Y-98839000D01*
G75*
G02*
X166246000Y-99076500I0J-237500D01*
G01*
G37*
%TD*%
%TO.C,C4*%
G36*
G01*
X159837000Y-101329500D02*
X159837000Y-100854500D01*
G75*
G02*
X160074500Y-100617000I237500J0D01*
G01*
X160674500Y-100617000D01*
G75*
G02*
X160912000Y-100854500I0J-237500D01*
G01*
X160912000Y-101329500D01*
G75*
G02*
X160674500Y-101567000I-237500J0D01*
G01*
X160074500Y-101567000D01*
G75*
G02*
X159837000Y-101329500I0J237500D01*
G01*
G37*
G36*
G01*
X158112000Y-101329500D02*
X158112000Y-100854500D01*
G75*
G02*
X158349500Y-100617000I237500J0D01*
G01*
X158949500Y-100617000D01*
G75*
G02*
X159187000Y-100854500I0J-237500D01*
G01*
X159187000Y-101329500D01*
G75*
G02*
X158949500Y-101567000I-237500J0D01*
G01*
X158349500Y-101567000D01*
G75*
G02*
X158112000Y-101329500I0J237500D01*
G01*
G37*
%TD*%
%TO.C,C3*%
G36*
G01*
X162289500Y-100005000D02*
X161814500Y-100005000D01*
G75*
G02*
X161577000Y-99767500I0J237500D01*
G01*
X161577000Y-99167500D01*
G75*
G02*
X161814500Y-98930000I237500J0D01*
G01*
X162289500Y-98930000D01*
G75*
G02*
X162527000Y-99167500I0J-237500D01*
G01*
X162527000Y-99767500D01*
G75*
G02*
X162289500Y-100005000I-237500J0D01*
G01*
G37*
G36*
G01*
X162289500Y-101730000D02*
X161814500Y-101730000D01*
G75*
G02*
X161577000Y-101492500I0J237500D01*
G01*
X161577000Y-100892500D01*
G75*
G02*
X161814500Y-100655000I237500J0D01*
G01*
X162289500Y-100655000D01*
G75*
G02*
X162527000Y-100892500I0J-237500D01*
G01*
X162527000Y-101492500D01*
G75*
G02*
X162289500Y-101730000I-237500J0D01*
G01*
G37*
%TD*%
%TO.C,C2*%
G36*
G01*
X169235000Y-107933500D02*
X169235000Y-107458500D01*
G75*
G02*
X169472500Y-107221000I237500J0D01*
G01*
X170072500Y-107221000D01*
G75*
G02*
X170310000Y-107458500I0J-237500D01*
G01*
X170310000Y-107933500D01*
G75*
G02*
X170072500Y-108171000I-237500J0D01*
G01*
X169472500Y-108171000D01*
G75*
G02*
X169235000Y-107933500I0J237500D01*
G01*
G37*
G36*
G01*
X167510000Y-107933500D02*
X167510000Y-107458500D01*
G75*
G02*
X167747500Y-107221000I237500J0D01*
G01*
X168347500Y-107221000D01*
G75*
G02*
X168585000Y-107458500I0J-237500D01*
G01*
X168585000Y-107933500D01*
G75*
G02*
X168347500Y-108171000I-237500J0D01*
G01*
X167747500Y-108171000D01*
G75*
G02*
X167510000Y-107933500I0J237500D01*
G01*
G37*
%TD*%
%TO.C,C1*%
G36*
G01*
X169235000Y-114283500D02*
X169235000Y-113808500D01*
G75*
G02*
X169472500Y-113571000I237500J0D01*
G01*
X170072500Y-113571000D01*
G75*
G02*
X170310000Y-113808500I0J-237500D01*
G01*
X170310000Y-114283500D01*
G75*
G02*
X170072500Y-114521000I-237500J0D01*
G01*
X169472500Y-114521000D01*
G75*
G02*
X169235000Y-114283500I0J237500D01*
G01*
G37*
G36*
G01*
X167510000Y-114283500D02*
X167510000Y-113808500D01*
G75*
G02*
X167747500Y-113571000I237500J0D01*
G01*
X168347500Y-113571000D01*
G75*
G02*
X168585000Y-113808500I0J-237500D01*
G01*
X168585000Y-114283500D01*
G75*
G02*
X168347500Y-114521000I-237500J0D01*
G01*
X167747500Y-114521000D01*
G75*
G02*
X167510000Y-114283500I0J237500D01*
G01*
G37*
%TD*%
M02*
