%TF.GenerationSoftware,KiCad,Pcbnew,(5.1.10)-1*%
%TF.CreationDate,2021-10-10T23:42:33-04:00*%
%TF.ProjectId,BoostConverter,426f6f73-7443-46f6-9e76-65727465722e,rev?*%
%TF.SameCoordinates,Original*%
%TF.FileFunction,Legend,Bot*%
%TF.FilePolarity,Positive*%
%FSLAX46Y46*%
G04 Gerber Fmt 4.6, Leading zero omitted, Abs format (unit mm)*
G04 Created by KiCad (PCBNEW (5.1.10)-1) date 2021-10-10 23:42:33*
%MOMM*%
%LPD*%
G01*
G04 APERTURE LIST*
%ADD10C,0.300000*%
%ADD11C,2.600000*%
%ADD12R,2.600000X2.600000*%
G04 APERTURE END LIST*
D10*
X166515142Y-101687047D02*
X166333714Y-101747523D01*
X166031333Y-101747523D01*
X165910380Y-101687047D01*
X165849904Y-101626571D01*
X165789428Y-101505619D01*
X165789428Y-101384666D01*
X165849904Y-101263714D01*
X165910380Y-101203238D01*
X166031333Y-101142761D01*
X166273238Y-101082285D01*
X166394190Y-101021809D01*
X166454666Y-100961333D01*
X166515142Y-100840380D01*
X166515142Y-100719428D01*
X166454666Y-100598476D01*
X166394190Y-100538000D01*
X166273238Y-100477523D01*
X165970857Y-100477523D01*
X165789428Y-100538000D01*
X164700857Y-101747523D02*
X164700857Y-101082285D01*
X164761333Y-100961333D01*
X164882285Y-100900857D01*
X165124190Y-100900857D01*
X165245142Y-100961333D01*
X164700857Y-101687047D02*
X164821809Y-101747523D01*
X165124190Y-101747523D01*
X165245142Y-101687047D01*
X165305619Y-101566095D01*
X165305619Y-101445142D01*
X165245142Y-101324190D01*
X165124190Y-101263714D01*
X164821809Y-101263714D01*
X164700857Y-101203238D01*
X164096095Y-101747523D02*
X164096095Y-100477523D01*
X163551809Y-101747523D02*
X163551809Y-101082285D01*
X163612285Y-100961333D01*
X163733238Y-100900857D01*
X163914666Y-100900857D01*
X164035619Y-100961333D01*
X164096095Y-101021809D01*
X162947047Y-101747523D02*
X162947047Y-100900857D01*
X162947047Y-100477523D02*
X163007523Y-100538000D01*
X162947047Y-100598476D01*
X162886571Y-100538000D01*
X162947047Y-100477523D01*
X162947047Y-100598476D01*
X162160857Y-101747523D02*
X162281809Y-101687047D01*
X162342285Y-101566095D01*
X162342285Y-100477523D01*
X160709428Y-101747523D02*
X160709428Y-100477523D01*
X159983714Y-101747523D02*
X160528000Y-101021809D01*
X159983714Y-100477523D02*
X160709428Y-101203238D01*
X158895142Y-101747523D02*
X158895142Y-101082285D01*
X158955619Y-100961333D01*
X159076571Y-100900857D01*
X159318476Y-100900857D01*
X159439428Y-100961333D01*
X158895142Y-101687047D02*
X159016095Y-101747523D01*
X159318476Y-101747523D01*
X159439428Y-101687047D01*
X159499904Y-101566095D01*
X159499904Y-101445142D01*
X159439428Y-101324190D01*
X159318476Y-101263714D01*
X159016095Y-101263714D01*
X158895142Y-101203238D01*
X158108952Y-101747523D02*
X158229904Y-101687047D01*
X158290380Y-101566095D01*
X158290380Y-100477523D01*
X157141333Y-101687047D02*
X157262285Y-101747523D01*
X157504190Y-101747523D01*
X157625142Y-101687047D01*
X157685619Y-101566095D01*
X157685619Y-101082285D01*
X157625142Y-100961333D01*
X157504190Y-100900857D01*
X157262285Y-100900857D01*
X157141333Y-100961333D01*
X157080857Y-101082285D01*
X157080857Y-101203238D01*
X157685619Y-101324190D01*
X177945142Y-103287285D02*
X177763714Y-103347761D01*
X177703238Y-103408238D01*
X177642761Y-103529190D01*
X177642761Y-103710619D01*
X177703238Y-103831571D01*
X177763714Y-103892047D01*
X177884666Y-103952523D01*
X178368476Y-103952523D01*
X178368476Y-102682523D01*
X177945142Y-102682523D01*
X177824190Y-102743000D01*
X177763714Y-102803476D01*
X177703238Y-102924428D01*
X177703238Y-103045380D01*
X177763714Y-103166333D01*
X177824190Y-103226809D01*
X177945142Y-103287285D01*
X178368476Y-103287285D01*
X176917047Y-103952523D02*
X177038000Y-103892047D01*
X177098476Y-103831571D01*
X177158952Y-103710619D01*
X177158952Y-103347761D01*
X177098476Y-103226809D01*
X177038000Y-103166333D01*
X176917047Y-103105857D01*
X176735619Y-103105857D01*
X176614666Y-103166333D01*
X176554190Y-103226809D01*
X176493714Y-103347761D01*
X176493714Y-103710619D01*
X176554190Y-103831571D01*
X176614666Y-103892047D01*
X176735619Y-103952523D01*
X176917047Y-103952523D01*
X175768000Y-103952523D02*
X175888952Y-103892047D01*
X175949428Y-103831571D01*
X176009904Y-103710619D01*
X176009904Y-103347761D01*
X175949428Y-103226809D01*
X175888952Y-103166333D01*
X175768000Y-103105857D01*
X175586571Y-103105857D01*
X175465619Y-103166333D01*
X175405142Y-103226809D01*
X175344666Y-103347761D01*
X175344666Y-103710619D01*
X175405142Y-103831571D01*
X175465619Y-103892047D01*
X175586571Y-103952523D01*
X175768000Y-103952523D01*
X174860857Y-103892047D02*
X174739904Y-103952523D01*
X174498000Y-103952523D01*
X174377047Y-103892047D01*
X174316571Y-103771095D01*
X174316571Y-103710619D01*
X174377047Y-103589666D01*
X174498000Y-103529190D01*
X174679428Y-103529190D01*
X174800380Y-103468714D01*
X174860857Y-103347761D01*
X174860857Y-103287285D01*
X174800380Y-103166333D01*
X174679428Y-103105857D01*
X174498000Y-103105857D01*
X174377047Y-103166333D01*
X173953714Y-103105857D02*
X173469904Y-103105857D01*
X173772285Y-102682523D02*
X173772285Y-103771095D01*
X173711809Y-103892047D01*
X173590857Y-103952523D01*
X173469904Y-103952523D01*
X172078952Y-103287285D02*
X171655619Y-103287285D01*
X171474190Y-103952523D02*
X172078952Y-103952523D01*
X172078952Y-102682523D01*
X171474190Y-102682523D01*
X171050857Y-103105857D02*
X170748476Y-103952523D01*
X170446095Y-103105857D01*
X169418000Y-103952523D02*
X169418000Y-103287285D01*
X169478476Y-103166333D01*
X169599428Y-103105857D01*
X169841333Y-103105857D01*
X169962285Y-103166333D01*
X169418000Y-103892047D02*
X169538952Y-103952523D01*
X169841333Y-103952523D01*
X169962285Y-103892047D01*
X170022761Y-103771095D01*
X170022761Y-103650142D01*
X169962285Y-103529190D01*
X169841333Y-103468714D01*
X169538952Y-103468714D01*
X169418000Y-103408238D01*
X168631809Y-103952523D02*
X168752761Y-103892047D01*
X168813238Y-103771095D01*
X168813238Y-102682523D01*
X166757047Y-103287285D02*
X166575619Y-103347761D01*
X166515142Y-103408238D01*
X166454666Y-103529190D01*
X166454666Y-103710619D01*
X166515142Y-103831571D01*
X166575619Y-103892047D01*
X166696571Y-103952523D01*
X167180380Y-103952523D01*
X167180380Y-102682523D01*
X166757047Y-102682523D01*
X166636095Y-102743000D01*
X166575619Y-102803476D01*
X166515142Y-102924428D01*
X166515142Y-103045380D01*
X166575619Y-103166333D01*
X166636095Y-103226809D01*
X166757047Y-103287285D01*
X167180380Y-103287285D01*
X165728952Y-103952523D02*
X165849904Y-103892047D01*
X165910380Y-103831571D01*
X165970857Y-103710619D01*
X165970857Y-103347761D01*
X165910380Y-103226809D01*
X165849904Y-103166333D01*
X165728952Y-103105857D01*
X165547523Y-103105857D01*
X165426571Y-103166333D01*
X165366095Y-103226809D01*
X165305619Y-103347761D01*
X165305619Y-103710619D01*
X165366095Y-103831571D01*
X165426571Y-103892047D01*
X165547523Y-103952523D01*
X165728952Y-103952523D01*
X164217047Y-103952523D02*
X164217047Y-103287285D01*
X164277523Y-103166333D01*
X164398476Y-103105857D01*
X164640380Y-103105857D01*
X164761333Y-103166333D01*
X164217047Y-103892047D02*
X164338000Y-103952523D01*
X164640380Y-103952523D01*
X164761333Y-103892047D01*
X164821809Y-103771095D01*
X164821809Y-103650142D01*
X164761333Y-103529190D01*
X164640380Y-103468714D01*
X164338000Y-103468714D01*
X164217047Y-103408238D01*
X163612285Y-103952523D02*
X163612285Y-103105857D01*
X163612285Y-103347761D02*
X163551809Y-103226809D01*
X163491333Y-103166333D01*
X163370380Y-103105857D01*
X163249428Y-103105857D01*
X162281809Y-103952523D02*
X162281809Y-102682523D01*
X162281809Y-103892047D02*
X162402761Y-103952523D01*
X162644666Y-103952523D01*
X162765619Y-103892047D01*
X162826095Y-103831571D01*
X162886571Y-103710619D01*
X162886571Y-103347761D01*
X162826095Y-103226809D01*
X162765619Y-103166333D01*
X162644666Y-103105857D01*
X162402761Y-103105857D01*
X162281809Y-103166333D01*
X160104666Y-102682523D02*
X160709428Y-102682523D01*
X160769904Y-103287285D01*
X160709428Y-103226809D01*
X160588476Y-103166333D01*
X160286095Y-103166333D01*
X160165142Y-103226809D01*
X160104666Y-103287285D01*
X160044190Y-103408238D01*
X160044190Y-103710619D01*
X160104666Y-103831571D01*
X160165142Y-103892047D01*
X160286095Y-103952523D01*
X160588476Y-103952523D01*
X160709428Y-103892047D01*
X160769904Y-103831571D01*
X159499904Y-103468714D02*
X158532285Y-103468714D01*
X157262285Y-103952523D02*
X157988000Y-103952523D01*
X157625142Y-103952523D02*
X157625142Y-102682523D01*
X157746095Y-102863952D01*
X157867047Y-102984904D01*
X157988000Y-103045380D01*
X156778476Y-102803476D02*
X156718000Y-102743000D01*
X156597047Y-102682523D01*
X156294666Y-102682523D01*
X156173714Y-102743000D01*
X156113238Y-102803476D01*
X156052761Y-102924428D01*
X156052761Y-103045380D01*
X156113238Y-103226809D01*
X156838952Y-103952523D01*
X156052761Y-103952523D01*
X155689904Y-102682523D02*
X155266571Y-103952523D01*
X154843238Y-102682523D01*
X153210380Y-102682523D02*
X153089428Y-102682523D01*
X152968476Y-102743000D01*
X152908000Y-102803476D01*
X152847523Y-102924428D01*
X152787047Y-103166333D01*
X152787047Y-103468714D01*
X152847523Y-103710619D01*
X152908000Y-103831571D01*
X152968476Y-103892047D01*
X153089428Y-103952523D01*
X153210380Y-103952523D01*
X153331333Y-103892047D01*
X153391809Y-103831571D01*
X153452285Y-103710619D01*
X153512761Y-103468714D01*
X153512761Y-103166333D01*
X153452285Y-102924428D01*
X153391809Y-102803476D01*
X153331333Y-102743000D01*
X153210380Y-102682523D01*
X152242761Y-103831571D02*
X152182285Y-103892047D01*
X152242761Y-103952523D01*
X152303238Y-103892047D01*
X152242761Y-103831571D01*
X152242761Y-103952523D01*
X151033238Y-102682523D02*
X151638000Y-102682523D01*
X151698476Y-103287285D01*
X151638000Y-103226809D01*
X151517047Y-103166333D01*
X151214666Y-103166333D01*
X151093714Y-103226809D01*
X151033238Y-103287285D01*
X150972761Y-103408238D01*
X150972761Y-103710619D01*
X151033238Y-103831571D01*
X151093714Y-103892047D01*
X151214666Y-103952523D01*
X151517047Y-103952523D01*
X151638000Y-103892047D01*
X151698476Y-103831571D01*
X150488952Y-103589666D02*
X149884190Y-103589666D01*
X150609904Y-103952523D02*
X150186571Y-102682523D01*
X149763238Y-103952523D01*
X148372285Y-103952523D02*
X148372285Y-102682523D01*
X147948952Y-103589666D01*
X147525619Y-102682523D01*
X147525619Y-103952523D01*
X146981333Y-103589666D02*
X146376571Y-103589666D01*
X147102285Y-103952523D02*
X146678952Y-102682523D01*
X146255619Y-103952523D01*
X145953238Y-102682523D02*
X145106571Y-103952523D01*
X145106571Y-102682523D02*
X145953238Y-103952523D01*
X166998952Y-106157523D02*
X167724666Y-106157523D01*
X167361809Y-106157523D02*
X167361809Y-104887523D01*
X167482761Y-105068952D01*
X167603714Y-105189904D01*
X167724666Y-105250380D01*
X166212761Y-104887523D02*
X166091809Y-104887523D01*
X165970857Y-104948000D01*
X165910380Y-105008476D01*
X165849904Y-105129428D01*
X165789428Y-105371333D01*
X165789428Y-105673714D01*
X165849904Y-105915619D01*
X165910380Y-106036571D01*
X165970857Y-106097047D01*
X166091809Y-106157523D01*
X166212761Y-106157523D01*
X166333714Y-106097047D01*
X166394190Y-106036571D01*
X166454666Y-105915619D01*
X166515142Y-105673714D01*
X166515142Y-105371333D01*
X166454666Y-105129428D01*
X166394190Y-105008476D01*
X166333714Y-104948000D01*
X166212761Y-104887523D01*
X164338000Y-104827047D02*
X165426571Y-106459904D01*
X163249428Y-106157523D02*
X163975142Y-106157523D01*
X163612285Y-106157523D02*
X163612285Y-104887523D01*
X163733238Y-105068952D01*
X163854190Y-105189904D01*
X163975142Y-105250380D01*
X162463238Y-104887523D02*
X162342285Y-104887523D01*
X162221333Y-104948000D01*
X162160857Y-105008476D01*
X162100380Y-105129428D01*
X162039904Y-105371333D01*
X162039904Y-105673714D01*
X162100380Y-105915619D01*
X162160857Y-106036571D01*
X162221333Y-106097047D01*
X162342285Y-106157523D01*
X162463238Y-106157523D01*
X162584190Y-106097047D01*
X162644666Y-106036571D01*
X162705142Y-105915619D01*
X162765619Y-105673714D01*
X162765619Y-105371333D01*
X162705142Y-105129428D01*
X162644666Y-105008476D01*
X162584190Y-104948000D01*
X162463238Y-104887523D01*
X160588476Y-104827047D02*
X161677047Y-106459904D01*
X160225619Y-105008476D02*
X160165142Y-104948000D01*
X160044190Y-104887523D01*
X159741809Y-104887523D01*
X159620857Y-104948000D01*
X159560380Y-105008476D01*
X159499904Y-105129428D01*
X159499904Y-105250380D01*
X159560380Y-105431809D01*
X160286095Y-106157523D01*
X159499904Y-106157523D01*
X158713714Y-104887523D02*
X158592761Y-104887523D01*
X158471809Y-104948000D01*
X158411333Y-105008476D01*
X158350857Y-105129428D01*
X158290380Y-105371333D01*
X158290380Y-105673714D01*
X158350857Y-105915619D01*
X158411333Y-106036571D01*
X158471809Y-106097047D01*
X158592761Y-106157523D01*
X158713714Y-106157523D01*
X158834666Y-106097047D01*
X158895142Y-106036571D01*
X158955619Y-105915619D01*
X159016095Y-105673714D01*
X159016095Y-105371333D01*
X158955619Y-105129428D01*
X158895142Y-105008476D01*
X158834666Y-104948000D01*
X158713714Y-104887523D01*
X157806571Y-105008476D02*
X157746095Y-104948000D01*
X157625142Y-104887523D01*
X157322761Y-104887523D01*
X157201809Y-104948000D01*
X157141333Y-105008476D01*
X157080857Y-105129428D01*
X157080857Y-105250380D01*
X157141333Y-105431809D01*
X157867047Y-106157523D01*
X157080857Y-106157523D01*
X155871333Y-106157523D02*
X156597047Y-106157523D01*
X156234190Y-106157523D02*
X156234190Y-104887523D01*
X156355142Y-105068952D01*
X156476095Y-105189904D01*
X156597047Y-105250380D01*
%LPC*%
D11*
%TO.C,J2*%
X181610000Y-100156000D03*
D12*
X181610000Y-105156000D03*
%TD*%
D11*
%TO.C,J1*%
X140716000Y-105838000D03*
D12*
X140716000Y-100838000D03*
%TD*%
M02*
