%TF.GenerationSoftware,KiCad,Pcbnew,(5.1.10)-1*%
%TF.CreationDate,2021-10-10T23:42:33-04:00*%
%TF.ProjectId,BoostConverter,426f6f73-7443-46f6-9e76-65727465722e,rev?*%
%TF.SameCoordinates,Original*%
%TF.FileFunction,Copper,L2,Bot*%
%TF.FilePolarity,Positive*%
%FSLAX46Y46*%
G04 Gerber Fmt 4.6, Leading zero omitted, Abs format (unit mm)*
G04 Created by KiCad (PCBNEW (5.1.10)-1) date 2021-10-10 23:42:33*
%MOMM*%
%LPD*%
G01*
G04 APERTURE LIST*
%TA.AperFunction,ComponentPad*%
%ADD10C,2.600000*%
%TD*%
%TA.AperFunction,ComponentPad*%
%ADD11R,2.600000X2.600000*%
%TD*%
%TA.AperFunction,ViaPad*%
%ADD12C,0.800000*%
%TD*%
%TA.AperFunction,Conductor*%
%ADD13C,0.250000*%
%TD*%
%TA.AperFunction,Conductor*%
%ADD14C,0.254000*%
%TD*%
%TA.AperFunction,Conductor*%
%ADD15C,0.100000*%
%TD*%
G04 APERTURE END LIST*
D10*
%TO.P,J2,2*%
%TO.N,GND*%
X181610000Y-100156000D03*
D11*
%TO.P,J2,1*%
%TO.N,VCC*%
X181610000Y-105156000D03*
%TD*%
D10*
%TO.P,J1,2*%
%TO.N,VBUS*%
X140716000Y-105838000D03*
D11*
%TO.P,J1,1*%
%TO.N,GND*%
X140716000Y-100838000D03*
%TD*%
D12*
%TO.N,GND*%
X150622000Y-100584000D03*
X156718000Y-98552000D03*
%TO.N,VBUS*%
X160020000Y-107950000D03*
X161290000Y-107950000D03*
X162560000Y-107950000D03*
X163830000Y-107950000D03*
%TO.N,/FB*%
X173482000Y-108458000D03*
X154178000Y-107950000D03*
%TD*%
D13*
%TO.N,/FB*%
X173264999Y-108675001D02*
X173482000Y-108458000D01*
X154903001Y-108675001D02*
X173264999Y-108675001D01*
X154178000Y-107950000D02*
X154903001Y-108675001D01*
%TD*%
D14*
%TO.N,GND*%
X189552766Y-96934689D02*
X189618919Y-96954661D01*
X189679929Y-96987102D01*
X189733477Y-97030774D01*
X189777526Y-97084020D01*
X189810386Y-97144793D01*
X189830821Y-97210809D01*
X189840001Y-97298149D01*
X189840000Y-108946148D01*
X189831311Y-109034766D01*
X189811337Y-109100923D01*
X189778900Y-109161928D01*
X189735225Y-109215478D01*
X189681982Y-109259525D01*
X189621205Y-109292387D01*
X189555191Y-109312821D01*
X189467861Y-109322000D01*
X165740609Y-109322000D01*
X165753802Y-109317998D01*
X165819672Y-109282790D01*
X165877408Y-109235408D01*
X165922058Y-109181001D01*
X173186627Y-109181001D01*
X173254191Y-109208987D01*
X173405078Y-109239000D01*
X173558922Y-109239000D01*
X173709809Y-109208987D01*
X173851942Y-109150113D01*
X173979859Y-109064642D01*
X174088642Y-108955859D01*
X174174113Y-108827942D01*
X174232987Y-108685809D01*
X174263000Y-108534922D01*
X174263000Y-108381078D01*
X174232987Y-108230191D01*
X174174113Y-108088058D01*
X174088642Y-107960141D01*
X173979859Y-107851358D01*
X173851942Y-107765887D01*
X173709809Y-107707013D01*
X173558922Y-107677000D01*
X173405078Y-107677000D01*
X173254191Y-107707013D01*
X173112058Y-107765887D01*
X172984141Y-107851358D01*
X172875358Y-107960141D01*
X172789887Y-108088058D01*
X172756359Y-108169001D01*
X165989000Y-108169001D01*
X165989000Y-103856000D01*
X179927157Y-103856000D01*
X179927157Y-106456000D01*
X179934513Y-106530689D01*
X179956299Y-106602508D01*
X179991678Y-106668696D01*
X180039289Y-106726711D01*
X180097304Y-106774322D01*
X180163492Y-106809701D01*
X180235311Y-106831487D01*
X180310000Y-106838843D01*
X182910000Y-106838843D01*
X182984689Y-106831487D01*
X183056508Y-106809701D01*
X183122696Y-106774322D01*
X183180711Y-106726711D01*
X183228322Y-106668696D01*
X183263701Y-106602508D01*
X183285487Y-106530689D01*
X183292843Y-106456000D01*
X183292843Y-103856000D01*
X183285487Y-103781311D01*
X183263701Y-103709492D01*
X183228322Y-103643304D01*
X183180711Y-103585289D01*
X183122696Y-103537678D01*
X183056508Y-103502299D01*
X182984689Y-103480513D01*
X182910000Y-103473157D01*
X180310000Y-103473157D01*
X180235311Y-103480513D01*
X180163492Y-103502299D01*
X180097304Y-103537678D01*
X180039289Y-103585289D01*
X179991678Y-103643304D01*
X179956299Y-103709492D01*
X179934513Y-103781311D01*
X179927157Y-103856000D01*
X165989000Y-103856000D01*
X165989000Y-103632000D01*
X165981679Y-103557671D01*
X165959998Y-103486198D01*
X165924790Y-103420328D01*
X165877408Y-103362592D01*
X165819672Y-103315210D01*
X165753802Y-103280002D01*
X165682329Y-103258321D01*
X165608000Y-103251000D01*
X158496000Y-103251000D01*
X158421671Y-103258321D01*
X158350198Y-103280002D01*
X158284328Y-103315210D01*
X158226592Y-103362592D01*
X158179210Y-103420328D01*
X158144002Y-103486198D01*
X158122321Y-103557671D01*
X158115000Y-103632000D01*
X158115000Y-106299000D01*
X145415000Y-106299000D01*
X145415000Y-103632000D01*
X145407679Y-103557671D01*
X145385998Y-103486198D01*
X145350790Y-103420328D01*
X145303408Y-103362592D01*
X145245672Y-103315210D01*
X145179802Y-103280002D01*
X145108329Y-103258321D01*
X145034000Y-103251000D01*
X137160000Y-103251000D01*
X137085671Y-103258321D01*
X137014198Y-103280002D01*
X136948328Y-103315210D01*
X136890592Y-103362592D01*
X136843210Y-103420328D01*
X136808002Y-103486198D01*
X136786321Y-103557671D01*
X136779000Y-103632000D01*
X136779000Y-108966000D01*
X136786321Y-109040329D01*
X136808002Y-109111802D01*
X136843210Y-109177672D01*
X136890592Y-109235408D01*
X136948328Y-109282790D01*
X137014198Y-109317998D01*
X137027391Y-109322000D01*
X132607852Y-109322000D01*
X132519234Y-109313311D01*
X132453077Y-109293337D01*
X132392072Y-109260900D01*
X132338522Y-109217225D01*
X132294475Y-109163982D01*
X132261613Y-109103205D01*
X132241179Y-109037191D01*
X132232000Y-108949861D01*
X132232000Y-102138000D01*
X139033157Y-102138000D01*
X139040513Y-102212689D01*
X139062299Y-102284508D01*
X139097678Y-102350696D01*
X139145289Y-102408711D01*
X139203304Y-102456322D01*
X139269492Y-102491701D01*
X139341311Y-102513487D01*
X139416000Y-102520843D01*
X140608050Y-102519000D01*
X140703300Y-102423750D01*
X140703300Y-100850700D01*
X140728700Y-100850700D01*
X140728700Y-102423750D01*
X140823950Y-102519000D01*
X142016000Y-102520843D01*
X142090689Y-102513487D01*
X142162508Y-102491701D01*
X142228696Y-102456322D01*
X142286711Y-102408711D01*
X142334322Y-102350696D01*
X142369701Y-102284508D01*
X142391487Y-102212689D01*
X142398843Y-102138000D01*
X142397536Y-101291990D01*
X180491970Y-101291990D01*
X180627455Y-101529964D01*
X180914382Y-101695249D01*
X181228040Y-101801382D01*
X181556377Y-101844282D01*
X181886775Y-101822303D01*
X182206536Y-101736290D01*
X182503374Y-101589547D01*
X182592545Y-101529964D01*
X182728030Y-101291990D01*
X181610000Y-100173961D01*
X180491970Y-101291990D01*
X142397536Y-101291990D01*
X142397000Y-100945950D01*
X142301750Y-100850700D01*
X140728700Y-100850700D01*
X140703300Y-100850700D01*
X139130250Y-100850700D01*
X139035000Y-100945950D01*
X139033157Y-102138000D01*
X132232000Y-102138000D01*
X132232000Y-99538000D01*
X139033157Y-99538000D01*
X139035000Y-100730050D01*
X139130250Y-100825300D01*
X140703300Y-100825300D01*
X140703300Y-99252250D01*
X140728700Y-99252250D01*
X140728700Y-100825300D01*
X142301750Y-100825300D01*
X142397000Y-100730050D01*
X142397970Y-100102377D01*
X179921718Y-100102377D01*
X179943697Y-100432775D01*
X180029710Y-100752536D01*
X180176453Y-101049374D01*
X180236036Y-101138545D01*
X180474010Y-101274030D01*
X181592039Y-100156000D01*
X181627961Y-100156000D01*
X182745990Y-101274030D01*
X182983964Y-101138545D01*
X183149249Y-100851618D01*
X183255382Y-100537960D01*
X183298282Y-100209623D01*
X183276303Y-99879225D01*
X183190290Y-99559464D01*
X183043547Y-99262626D01*
X182983964Y-99173455D01*
X182745990Y-99037970D01*
X181627961Y-100156000D01*
X181592039Y-100156000D01*
X180474010Y-99037970D01*
X180236036Y-99173455D01*
X180070751Y-99460382D01*
X179964618Y-99774040D01*
X179921718Y-100102377D01*
X142397970Y-100102377D01*
X142398843Y-99538000D01*
X142391487Y-99463311D01*
X142369701Y-99391492D01*
X142334322Y-99325304D01*
X142286711Y-99267289D01*
X142228696Y-99219678D01*
X142162508Y-99184299D01*
X142090689Y-99162513D01*
X142016000Y-99155157D01*
X140823950Y-99157000D01*
X140728700Y-99252250D01*
X140703300Y-99252250D01*
X140608050Y-99157000D01*
X139416000Y-99155157D01*
X139341311Y-99162513D01*
X139269492Y-99184299D01*
X139203304Y-99219678D01*
X139145289Y-99267289D01*
X139097678Y-99325304D01*
X139062299Y-99391492D01*
X139040513Y-99463311D01*
X139033157Y-99538000D01*
X132232000Y-99538000D01*
X132232000Y-99020010D01*
X180491970Y-99020010D01*
X181610000Y-100138039D01*
X182728030Y-99020010D01*
X182592545Y-98782036D01*
X182305618Y-98616751D01*
X181991960Y-98510618D01*
X181663623Y-98467718D01*
X181333225Y-98489697D01*
X181013464Y-98575710D01*
X180716626Y-98722453D01*
X180627455Y-98782036D01*
X180491970Y-99020010D01*
X132232000Y-99020010D01*
X132232000Y-97301852D01*
X132240689Y-97213234D01*
X132260661Y-97147081D01*
X132293102Y-97086071D01*
X132336774Y-97032523D01*
X132390020Y-96988474D01*
X132450793Y-96955614D01*
X132516809Y-96935179D01*
X132604140Y-96926000D01*
X189464148Y-96926000D01*
X189552766Y-96934689D01*
%TA.AperFunction,Conductor*%
D15*
G36*
X189552766Y-96934689D02*
G01*
X189618919Y-96954661D01*
X189679929Y-96987102D01*
X189733477Y-97030774D01*
X189777526Y-97084020D01*
X189810386Y-97144793D01*
X189830821Y-97210809D01*
X189840001Y-97298149D01*
X189840000Y-108946148D01*
X189831311Y-109034766D01*
X189811337Y-109100923D01*
X189778900Y-109161928D01*
X189735225Y-109215478D01*
X189681982Y-109259525D01*
X189621205Y-109292387D01*
X189555191Y-109312821D01*
X189467861Y-109322000D01*
X165740609Y-109322000D01*
X165753802Y-109317998D01*
X165819672Y-109282790D01*
X165877408Y-109235408D01*
X165922058Y-109181001D01*
X173186627Y-109181001D01*
X173254191Y-109208987D01*
X173405078Y-109239000D01*
X173558922Y-109239000D01*
X173709809Y-109208987D01*
X173851942Y-109150113D01*
X173979859Y-109064642D01*
X174088642Y-108955859D01*
X174174113Y-108827942D01*
X174232987Y-108685809D01*
X174263000Y-108534922D01*
X174263000Y-108381078D01*
X174232987Y-108230191D01*
X174174113Y-108088058D01*
X174088642Y-107960141D01*
X173979859Y-107851358D01*
X173851942Y-107765887D01*
X173709809Y-107707013D01*
X173558922Y-107677000D01*
X173405078Y-107677000D01*
X173254191Y-107707013D01*
X173112058Y-107765887D01*
X172984141Y-107851358D01*
X172875358Y-107960141D01*
X172789887Y-108088058D01*
X172756359Y-108169001D01*
X165989000Y-108169001D01*
X165989000Y-103856000D01*
X179927157Y-103856000D01*
X179927157Y-106456000D01*
X179934513Y-106530689D01*
X179956299Y-106602508D01*
X179991678Y-106668696D01*
X180039289Y-106726711D01*
X180097304Y-106774322D01*
X180163492Y-106809701D01*
X180235311Y-106831487D01*
X180310000Y-106838843D01*
X182910000Y-106838843D01*
X182984689Y-106831487D01*
X183056508Y-106809701D01*
X183122696Y-106774322D01*
X183180711Y-106726711D01*
X183228322Y-106668696D01*
X183263701Y-106602508D01*
X183285487Y-106530689D01*
X183292843Y-106456000D01*
X183292843Y-103856000D01*
X183285487Y-103781311D01*
X183263701Y-103709492D01*
X183228322Y-103643304D01*
X183180711Y-103585289D01*
X183122696Y-103537678D01*
X183056508Y-103502299D01*
X182984689Y-103480513D01*
X182910000Y-103473157D01*
X180310000Y-103473157D01*
X180235311Y-103480513D01*
X180163492Y-103502299D01*
X180097304Y-103537678D01*
X180039289Y-103585289D01*
X179991678Y-103643304D01*
X179956299Y-103709492D01*
X179934513Y-103781311D01*
X179927157Y-103856000D01*
X165989000Y-103856000D01*
X165989000Y-103632000D01*
X165981679Y-103557671D01*
X165959998Y-103486198D01*
X165924790Y-103420328D01*
X165877408Y-103362592D01*
X165819672Y-103315210D01*
X165753802Y-103280002D01*
X165682329Y-103258321D01*
X165608000Y-103251000D01*
X158496000Y-103251000D01*
X158421671Y-103258321D01*
X158350198Y-103280002D01*
X158284328Y-103315210D01*
X158226592Y-103362592D01*
X158179210Y-103420328D01*
X158144002Y-103486198D01*
X158122321Y-103557671D01*
X158115000Y-103632000D01*
X158115000Y-106299000D01*
X145415000Y-106299000D01*
X145415000Y-103632000D01*
X145407679Y-103557671D01*
X145385998Y-103486198D01*
X145350790Y-103420328D01*
X145303408Y-103362592D01*
X145245672Y-103315210D01*
X145179802Y-103280002D01*
X145108329Y-103258321D01*
X145034000Y-103251000D01*
X137160000Y-103251000D01*
X137085671Y-103258321D01*
X137014198Y-103280002D01*
X136948328Y-103315210D01*
X136890592Y-103362592D01*
X136843210Y-103420328D01*
X136808002Y-103486198D01*
X136786321Y-103557671D01*
X136779000Y-103632000D01*
X136779000Y-108966000D01*
X136786321Y-109040329D01*
X136808002Y-109111802D01*
X136843210Y-109177672D01*
X136890592Y-109235408D01*
X136948328Y-109282790D01*
X137014198Y-109317998D01*
X137027391Y-109322000D01*
X132607852Y-109322000D01*
X132519234Y-109313311D01*
X132453077Y-109293337D01*
X132392072Y-109260900D01*
X132338522Y-109217225D01*
X132294475Y-109163982D01*
X132261613Y-109103205D01*
X132241179Y-109037191D01*
X132232000Y-108949861D01*
X132232000Y-102138000D01*
X139033157Y-102138000D01*
X139040513Y-102212689D01*
X139062299Y-102284508D01*
X139097678Y-102350696D01*
X139145289Y-102408711D01*
X139203304Y-102456322D01*
X139269492Y-102491701D01*
X139341311Y-102513487D01*
X139416000Y-102520843D01*
X140608050Y-102519000D01*
X140703300Y-102423750D01*
X140703300Y-100850700D01*
X140728700Y-100850700D01*
X140728700Y-102423750D01*
X140823950Y-102519000D01*
X142016000Y-102520843D01*
X142090689Y-102513487D01*
X142162508Y-102491701D01*
X142228696Y-102456322D01*
X142286711Y-102408711D01*
X142334322Y-102350696D01*
X142369701Y-102284508D01*
X142391487Y-102212689D01*
X142398843Y-102138000D01*
X142397536Y-101291990D01*
X180491970Y-101291990D01*
X180627455Y-101529964D01*
X180914382Y-101695249D01*
X181228040Y-101801382D01*
X181556377Y-101844282D01*
X181886775Y-101822303D01*
X182206536Y-101736290D01*
X182503374Y-101589547D01*
X182592545Y-101529964D01*
X182728030Y-101291990D01*
X181610000Y-100173961D01*
X180491970Y-101291990D01*
X142397536Y-101291990D01*
X142397000Y-100945950D01*
X142301750Y-100850700D01*
X140728700Y-100850700D01*
X140703300Y-100850700D01*
X139130250Y-100850700D01*
X139035000Y-100945950D01*
X139033157Y-102138000D01*
X132232000Y-102138000D01*
X132232000Y-99538000D01*
X139033157Y-99538000D01*
X139035000Y-100730050D01*
X139130250Y-100825300D01*
X140703300Y-100825300D01*
X140703300Y-99252250D01*
X140728700Y-99252250D01*
X140728700Y-100825300D01*
X142301750Y-100825300D01*
X142397000Y-100730050D01*
X142397970Y-100102377D01*
X179921718Y-100102377D01*
X179943697Y-100432775D01*
X180029710Y-100752536D01*
X180176453Y-101049374D01*
X180236036Y-101138545D01*
X180474010Y-101274030D01*
X181592039Y-100156000D01*
X181627961Y-100156000D01*
X182745990Y-101274030D01*
X182983964Y-101138545D01*
X183149249Y-100851618D01*
X183255382Y-100537960D01*
X183298282Y-100209623D01*
X183276303Y-99879225D01*
X183190290Y-99559464D01*
X183043547Y-99262626D01*
X182983964Y-99173455D01*
X182745990Y-99037970D01*
X181627961Y-100156000D01*
X181592039Y-100156000D01*
X180474010Y-99037970D01*
X180236036Y-99173455D01*
X180070751Y-99460382D01*
X179964618Y-99774040D01*
X179921718Y-100102377D01*
X142397970Y-100102377D01*
X142398843Y-99538000D01*
X142391487Y-99463311D01*
X142369701Y-99391492D01*
X142334322Y-99325304D01*
X142286711Y-99267289D01*
X142228696Y-99219678D01*
X142162508Y-99184299D01*
X142090689Y-99162513D01*
X142016000Y-99155157D01*
X140823950Y-99157000D01*
X140728700Y-99252250D01*
X140703300Y-99252250D01*
X140608050Y-99157000D01*
X139416000Y-99155157D01*
X139341311Y-99162513D01*
X139269492Y-99184299D01*
X139203304Y-99219678D01*
X139145289Y-99267289D01*
X139097678Y-99325304D01*
X139062299Y-99391492D01*
X139040513Y-99463311D01*
X139033157Y-99538000D01*
X132232000Y-99538000D01*
X132232000Y-99020010D01*
X180491970Y-99020010D01*
X181610000Y-100138039D01*
X182728030Y-99020010D01*
X182592545Y-98782036D01*
X182305618Y-98616751D01*
X181991960Y-98510618D01*
X181663623Y-98467718D01*
X181333225Y-98489697D01*
X181013464Y-98575710D01*
X180716626Y-98722453D01*
X180627455Y-98782036D01*
X180491970Y-99020010D01*
X132232000Y-99020010D01*
X132232000Y-97301852D01*
X132240689Y-97213234D01*
X132260661Y-97147081D01*
X132293102Y-97086071D01*
X132336774Y-97032523D01*
X132390020Y-96988474D01*
X132450793Y-96955614D01*
X132516809Y-96935179D01*
X132604140Y-96926000D01*
X189464148Y-96926000D01*
X189552766Y-96934689D01*
G37*
%TD.AperFunction*%
%TD*%
D14*
%TO.N,VBUS*%
X144907000Y-106680000D02*
X144909440Y-106704776D01*
X144916667Y-106728601D01*
X144928403Y-106750557D01*
X144944197Y-106769803D01*
X144963443Y-106785597D01*
X144985399Y-106797333D01*
X145009224Y-106804560D01*
X145034000Y-106807000D01*
X158496000Y-106807000D01*
X158520776Y-106804560D01*
X158544601Y-106797333D01*
X158566557Y-106785597D01*
X158585803Y-106769803D01*
X158601597Y-106750557D01*
X158613333Y-106728601D01*
X158620560Y-106704776D01*
X158623000Y-106680000D01*
X158623000Y-103759000D01*
X165481000Y-103759000D01*
X165481000Y-108169001D01*
X155112593Y-108169001D01*
X154959000Y-108015408D01*
X154959000Y-107873078D01*
X154928987Y-107722191D01*
X154870113Y-107580058D01*
X154784642Y-107452141D01*
X154675859Y-107343358D01*
X154547942Y-107257887D01*
X154405809Y-107199013D01*
X154254922Y-107169000D01*
X154101078Y-107169000D01*
X153950191Y-107199013D01*
X153808058Y-107257887D01*
X153680141Y-107343358D01*
X153571358Y-107452141D01*
X153485887Y-107580058D01*
X153427013Y-107722191D01*
X153397000Y-107873078D01*
X153397000Y-108026922D01*
X153427013Y-108177809D01*
X153485887Y-108319942D01*
X153571358Y-108447859D01*
X153680141Y-108556642D01*
X153808058Y-108642113D01*
X153950191Y-108700987D01*
X154101078Y-108731000D01*
X154243408Y-108731000D01*
X154351408Y-108839000D01*
X137287000Y-108839000D01*
X137287000Y-106973990D01*
X139597970Y-106973990D01*
X139733455Y-107211964D01*
X140020382Y-107377249D01*
X140334040Y-107483382D01*
X140662377Y-107526282D01*
X140992775Y-107504303D01*
X141312536Y-107418290D01*
X141609374Y-107271547D01*
X141698545Y-107211964D01*
X141834030Y-106973990D01*
X140716000Y-105855961D01*
X139597970Y-106973990D01*
X137287000Y-106973990D01*
X137287000Y-105784377D01*
X139027718Y-105784377D01*
X139049697Y-106114775D01*
X139135710Y-106434536D01*
X139282453Y-106731374D01*
X139342036Y-106820545D01*
X139580010Y-106956030D01*
X140698039Y-105838000D01*
X140733961Y-105838000D01*
X141851990Y-106956030D01*
X142089964Y-106820545D01*
X142255249Y-106533618D01*
X142361382Y-106219960D01*
X142404282Y-105891623D01*
X142382303Y-105561225D01*
X142296290Y-105241464D01*
X142149547Y-104944626D01*
X142089964Y-104855455D01*
X141851990Y-104719970D01*
X140733961Y-105838000D01*
X140698039Y-105838000D01*
X139580010Y-104719970D01*
X139342036Y-104855455D01*
X139176751Y-105142382D01*
X139070618Y-105456040D01*
X139027718Y-105784377D01*
X137287000Y-105784377D01*
X137287000Y-104702010D01*
X139597970Y-104702010D01*
X140716000Y-105820039D01*
X141834030Y-104702010D01*
X141698545Y-104464036D01*
X141411618Y-104298751D01*
X141097960Y-104192618D01*
X140769623Y-104149718D01*
X140439225Y-104171697D01*
X140119464Y-104257710D01*
X139822626Y-104404453D01*
X139733455Y-104464036D01*
X139597970Y-104702010D01*
X137287000Y-104702010D01*
X137287000Y-103759000D01*
X144907000Y-103759000D01*
X144907000Y-106680000D01*
%TA.AperFunction,Conductor*%
D15*
G36*
X144907000Y-106680000D02*
G01*
X144909440Y-106704776D01*
X144916667Y-106728601D01*
X144928403Y-106750557D01*
X144944197Y-106769803D01*
X144963443Y-106785597D01*
X144985399Y-106797333D01*
X145009224Y-106804560D01*
X145034000Y-106807000D01*
X158496000Y-106807000D01*
X158520776Y-106804560D01*
X158544601Y-106797333D01*
X158566557Y-106785597D01*
X158585803Y-106769803D01*
X158601597Y-106750557D01*
X158613333Y-106728601D01*
X158620560Y-106704776D01*
X158623000Y-106680000D01*
X158623000Y-103759000D01*
X165481000Y-103759000D01*
X165481000Y-108169001D01*
X155112593Y-108169001D01*
X154959000Y-108015408D01*
X154959000Y-107873078D01*
X154928987Y-107722191D01*
X154870113Y-107580058D01*
X154784642Y-107452141D01*
X154675859Y-107343358D01*
X154547942Y-107257887D01*
X154405809Y-107199013D01*
X154254922Y-107169000D01*
X154101078Y-107169000D01*
X153950191Y-107199013D01*
X153808058Y-107257887D01*
X153680141Y-107343358D01*
X153571358Y-107452141D01*
X153485887Y-107580058D01*
X153427013Y-107722191D01*
X153397000Y-107873078D01*
X153397000Y-108026922D01*
X153427013Y-108177809D01*
X153485887Y-108319942D01*
X153571358Y-108447859D01*
X153680141Y-108556642D01*
X153808058Y-108642113D01*
X153950191Y-108700987D01*
X154101078Y-108731000D01*
X154243408Y-108731000D01*
X154351408Y-108839000D01*
X137287000Y-108839000D01*
X137287000Y-106973990D01*
X139597970Y-106973990D01*
X139733455Y-107211964D01*
X140020382Y-107377249D01*
X140334040Y-107483382D01*
X140662377Y-107526282D01*
X140992775Y-107504303D01*
X141312536Y-107418290D01*
X141609374Y-107271547D01*
X141698545Y-107211964D01*
X141834030Y-106973990D01*
X140716000Y-105855961D01*
X139597970Y-106973990D01*
X137287000Y-106973990D01*
X137287000Y-105784377D01*
X139027718Y-105784377D01*
X139049697Y-106114775D01*
X139135710Y-106434536D01*
X139282453Y-106731374D01*
X139342036Y-106820545D01*
X139580010Y-106956030D01*
X140698039Y-105838000D01*
X140733961Y-105838000D01*
X141851990Y-106956030D01*
X142089964Y-106820545D01*
X142255249Y-106533618D01*
X142361382Y-106219960D01*
X142404282Y-105891623D01*
X142382303Y-105561225D01*
X142296290Y-105241464D01*
X142149547Y-104944626D01*
X142089964Y-104855455D01*
X141851990Y-104719970D01*
X140733961Y-105838000D01*
X140698039Y-105838000D01*
X139580010Y-104719970D01*
X139342036Y-104855455D01*
X139176751Y-105142382D01*
X139070618Y-105456040D01*
X139027718Y-105784377D01*
X137287000Y-105784377D01*
X137287000Y-104702010D01*
X139597970Y-104702010D01*
X140716000Y-105820039D01*
X141834030Y-104702010D01*
X141698545Y-104464036D01*
X141411618Y-104298751D01*
X141097960Y-104192618D01*
X140769623Y-104149718D01*
X140439225Y-104171697D01*
X140119464Y-104257710D01*
X139822626Y-104404453D01*
X139733455Y-104464036D01*
X139597970Y-104702010D01*
X137287000Y-104702010D01*
X137287000Y-103759000D01*
X144907000Y-103759000D01*
X144907000Y-106680000D01*
G37*
%TD.AperFunction*%
%TD*%
M02*
