%TF.GenerationSoftware,KiCad,Pcbnew,(5.1.10)-1*%
%TF.CreationDate,2021-10-10T23:42:33-04:00*%
%TF.ProjectId,BoostConverter,426f6f73-7443-46f6-9e76-65727465722e,rev?*%
%TF.SameCoordinates,Original*%
%TF.FileFunction,Legend,Top*%
%TF.FilePolarity,Positive*%
%FSLAX46Y46*%
G04 Gerber Fmt 4.6, Leading zero omitted, Abs format (unit mm)*
G04 Created by KiCad (PCBNEW (5.1.10)-1) date 2021-10-10 23:42:33*
%MOMM*%
%LPD*%
G01*
G04 APERTURE LIST*
%ADD10C,0.300000*%
%ADD11C,0.120000*%
%ADD12C,0.150000*%
%ADD13R,0.800000X1.050000*%
%ADD14R,0.630000X0.450000*%
%ADD15C,1.500000*%
%ADD16R,5.994400X2.006600*%
%ADD17C,2.600000*%
%ADD18R,2.600000X2.600000*%
%ADD19R,2.108200X1.422400*%
G04 APERTURE END LIST*
D10*
X189151571Y-106655714D02*
X189151571Y-107512857D01*
X189151571Y-107084285D02*
X187651571Y-107084285D01*
X187865857Y-107227142D01*
X188008714Y-107370000D01*
X188080142Y-107512857D01*
X187794428Y-106084285D02*
X187723000Y-106012857D01*
X187651571Y-105870000D01*
X187651571Y-105512857D01*
X187723000Y-105370000D01*
X187794428Y-105298571D01*
X187937285Y-105227142D01*
X188080142Y-105227142D01*
X188294428Y-105298571D01*
X189151571Y-106155714D01*
X189151571Y-105227142D01*
X187651571Y-104798571D02*
X189151571Y-104298571D01*
X187651571Y-103798571D01*
X187723000Y-101370000D02*
X187651571Y-101512857D01*
X187651571Y-101727142D01*
X187723000Y-101941428D01*
X187865857Y-102084285D01*
X188008714Y-102155714D01*
X188294428Y-102227142D01*
X188508714Y-102227142D01*
X188794428Y-102155714D01*
X188937285Y-102084285D01*
X189080142Y-101941428D01*
X189151571Y-101727142D01*
X189151571Y-101584285D01*
X189080142Y-101370000D01*
X189008714Y-101298571D01*
X188508714Y-101298571D01*
X188508714Y-101584285D01*
X189151571Y-100655714D02*
X187651571Y-100655714D01*
X189151571Y-99798571D01*
X187651571Y-99798571D01*
X189151571Y-99084285D02*
X187651571Y-99084285D01*
X187651571Y-98727142D01*
X187723000Y-98512857D01*
X187865857Y-98370000D01*
X188008714Y-98298571D01*
X188294428Y-98227142D01*
X188508714Y-98227142D01*
X188794428Y-98298571D01*
X188937285Y-98370000D01*
X189080142Y-98512857D01*
X189151571Y-98727142D01*
X189151571Y-99084285D01*
X134354000Y-100052571D02*
X134425428Y-99909714D01*
X134425428Y-99695428D01*
X134354000Y-99481142D01*
X134211142Y-99338285D01*
X134068285Y-99266857D01*
X133782571Y-99195428D01*
X133568285Y-99195428D01*
X133282571Y-99266857D01*
X133139714Y-99338285D01*
X132996857Y-99481142D01*
X132925428Y-99695428D01*
X132925428Y-99838285D01*
X132996857Y-100052571D01*
X133068285Y-100124000D01*
X133568285Y-100124000D01*
X133568285Y-99838285D01*
X132925428Y-100766857D02*
X134425428Y-100766857D01*
X132925428Y-101624000D01*
X134425428Y-101624000D01*
X132925428Y-102338285D02*
X134425428Y-102338285D01*
X134425428Y-102695428D01*
X134354000Y-102909714D01*
X134211142Y-103052571D01*
X134068285Y-103124000D01*
X133782571Y-103195428D01*
X133568285Y-103195428D01*
X133282571Y-103124000D01*
X133139714Y-103052571D01*
X132996857Y-102909714D01*
X132925428Y-102695428D01*
X132925428Y-102338285D01*
X134425428Y-105695428D02*
X134425428Y-104981142D01*
X133711142Y-104909714D01*
X133782571Y-104981142D01*
X133854000Y-105124000D01*
X133854000Y-105481142D01*
X133782571Y-105624000D01*
X133711142Y-105695428D01*
X133568285Y-105766857D01*
X133211142Y-105766857D01*
X133068285Y-105695428D01*
X132996857Y-105624000D01*
X132925428Y-105481142D01*
X132925428Y-105124000D01*
X132996857Y-104981142D01*
X133068285Y-104909714D01*
X134425428Y-106195428D02*
X132925428Y-106695428D01*
X134425428Y-107195428D01*
D11*
%TO.C,C1*%
X152915252Y-102843000D02*
X152392748Y-102843000D01*
X152915252Y-101373000D02*
X152392748Y-101373000D01*
D12*
%TO.C,U1*%
X155693000Y-104012000D02*
X157743000Y-104012000D01*
X154988000Y-100712000D02*
X157743000Y-100712000D01*
D11*
%TO.C,TP5*%
X170622000Y-98298000D02*
G75*
G03*
X170622000Y-98298000I-950000J0D01*
G01*
%TO.C,TP4*%
X172146000Y-108204000D02*
G75*
G03*
X172146000Y-108204000I-950000J0D01*
G01*
%TO.C,TP3*%
X164018000Y-98552000D02*
G75*
G03*
X164018000Y-98552000I-950000J0D01*
G01*
%TO.C,TP2*%
X152588000Y-106680000D02*
G75*
G03*
X152588000Y-106680000I-950000J0D01*
G01*
%TO.C,TP1*%
X154620000Y-99568000D02*
G75*
G03*
X154620000Y-99568000I-950000J0D01*
G01*
%TO.C,R5*%
X174737500Y-105156724D02*
X174737500Y-104647276D01*
X175782500Y-105156724D02*
X175782500Y-104647276D01*
%TO.C,R4*%
X157226724Y-107964500D02*
X156717276Y-107964500D01*
X157226724Y-106919500D02*
X156717276Y-106919500D01*
%TO.C,R3*%
X156717276Y-105141500D02*
X157226724Y-105141500D01*
X156717276Y-106186500D02*
X157226724Y-106186500D01*
%TO.C,R2*%
X152653276Y-103617500D02*
X153162724Y-103617500D01*
X152653276Y-104662500D02*
X153162724Y-104662500D01*
%TO.C,R1*%
X146543500Y-105410724D02*
X146543500Y-104901276D01*
X147588500Y-105410724D02*
X147588500Y-104901276D01*
%TO.C,J2*%
X183790000Y-105156000D02*
G75*
G03*
X183790000Y-105156000I-2180000J0D01*
G01*
X183790000Y-100156000D02*
G75*
G03*
X183790000Y-100156000I-2180000J0D01*
G01*
X186210000Y-107716000D02*
X186210000Y-97596000D01*
X185110000Y-107716000D02*
X185110000Y-97596000D01*
X177550000Y-107716000D02*
X177550000Y-97596000D01*
X186670000Y-107716000D02*
X186670000Y-97596000D01*
X177550000Y-107716000D02*
X186670000Y-107716000D01*
X177550000Y-97596000D02*
X186670000Y-97596000D01*
X180222000Y-103502000D02*
X180329000Y-103609000D01*
X183157000Y-106438000D02*
X183264000Y-106544000D01*
X179956000Y-103768000D02*
X180063000Y-103875000D01*
X182891000Y-106704000D02*
X182998000Y-106810000D01*
X180222000Y-98502000D02*
X180618000Y-98897000D01*
X182884000Y-101163000D02*
X183264000Y-101543000D01*
X179956000Y-98768000D02*
X180336000Y-99148000D01*
X182602000Y-101414000D02*
X182998000Y-101809000D01*
X186270000Y-107956000D02*
X186910000Y-107956000D01*
X186910000Y-107956000D02*
X186910000Y-107556000D01*
%TO.C,J1*%
X142896000Y-100838000D02*
G75*
G03*
X142896000Y-100838000I-2180000J0D01*
G01*
X142896000Y-105838000D02*
G75*
G03*
X142896000Y-105838000I-2180000J0D01*
G01*
X136116000Y-98278000D02*
X136116000Y-108398000D01*
X137216000Y-98278000D02*
X137216000Y-108398000D01*
X144776000Y-98278000D02*
X144776000Y-108398000D01*
X135656000Y-98278000D02*
X135656000Y-108398000D01*
X144776000Y-98278000D02*
X135656000Y-98278000D01*
X144776000Y-108398000D02*
X135656000Y-108398000D01*
X142104000Y-102492000D02*
X141997000Y-102385000D01*
X139169000Y-99556000D02*
X139062000Y-99450000D01*
X142370000Y-102226000D02*
X142263000Y-102119000D01*
X139435000Y-99290000D02*
X139328000Y-99184000D01*
X142104000Y-107492000D02*
X141708000Y-107097000D01*
X139442000Y-104831000D02*
X139062000Y-104451000D01*
X142370000Y-107226000D02*
X141990000Y-106846000D01*
X139724000Y-104580000D02*
X139328000Y-104185000D01*
X136056000Y-98038000D02*
X135416000Y-98038000D01*
X135416000Y-98038000D02*
X135416000Y-98438000D01*
%TO.C,D3*%
X175995000Y-102146000D02*
X175995000Y-99686000D01*
X175995000Y-99686000D02*
X174525000Y-99686000D01*
X174525000Y-99686000D02*
X174525000Y-102146000D01*
%TO.C,D2*%
X166116000Y-103124000D02*
X167640000Y-103124000D01*
X166116000Y-103124000D02*
X166878000Y-104140000D01*
X166878000Y-104140000D02*
X167640000Y-103124000D01*
%TO.C,D1*%
X147801000Y-102400000D02*
X147801000Y-99940000D01*
X147801000Y-99940000D02*
X146331000Y-99940000D01*
X146331000Y-99940000D02*
X146331000Y-102400000D01*
%TO.C,C4*%
X171477000Y-103385252D02*
X171477000Y-102862748D01*
X172947000Y-103385252D02*
X172947000Y-102862748D01*
%TO.C,C3*%
X168937000Y-103385252D02*
X168937000Y-102862748D01*
X170407000Y-103385252D02*
X170407000Y-102862748D01*
%TO.C,C2*%
X170580267Y-106428000D02*
X170287733Y-106428000D01*
X170580267Y-105408000D02*
X170287733Y-105408000D01*
%TO.C,C1*%
D12*
X150217142Y-102274666D02*
X150264761Y-102322285D01*
X150312380Y-102465142D01*
X150312380Y-102560380D01*
X150264761Y-102703238D01*
X150169523Y-102798476D01*
X150074285Y-102846095D01*
X149883809Y-102893714D01*
X149740952Y-102893714D01*
X149550476Y-102846095D01*
X149455238Y-102798476D01*
X149360000Y-102703238D01*
X149312380Y-102560380D01*
X149312380Y-102465142D01*
X149360000Y-102322285D01*
X149407619Y-102274666D01*
X150312380Y-101322285D02*
X150312380Y-101893714D01*
X150312380Y-101608000D02*
X149312380Y-101608000D01*
X149455238Y-101703238D01*
X149550476Y-101798476D01*
X149598095Y-101893714D01*
%TO.C,U1*%
X155956095Y-99239380D02*
X155956095Y-100048904D01*
X156003714Y-100144142D01*
X156051333Y-100191761D01*
X156146571Y-100239380D01*
X156337047Y-100239380D01*
X156432285Y-100191761D01*
X156479904Y-100144142D01*
X156527523Y-100048904D01*
X156527523Y-99239380D01*
X157527523Y-100239380D02*
X156956095Y-100239380D01*
X157241809Y-100239380D02*
X157241809Y-99239380D01*
X157146571Y-99382238D01*
X157051333Y-99477476D01*
X156956095Y-99525095D01*
%TO.C,TP5*%
X171204095Y-97750380D02*
X171775523Y-97750380D01*
X171489809Y-98750380D02*
X171489809Y-97750380D01*
X172108857Y-98750380D02*
X172108857Y-97750380D01*
X172489809Y-97750380D01*
X172585047Y-97798000D01*
X172632666Y-97845619D01*
X172680285Y-97940857D01*
X172680285Y-98083714D01*
X172632666Y-98178952D01*
X172585047Y-98226571D01*
X172489809Y-98274190D01*
X172108857Y-98274190D01*
X173585047Y-97750380D02*
X173108857Y-97750380D01*
X173061238Y-98226571D01*
X173108857Y-98178952D01*
X173204095Y-98131333D01*
X173442190Y-98131333D01*
X173537428Y-98178952D01*
X173585047Y-98226571D01*
X173632666Y-98321809D01*
X173632666Y-98559904D01*
X173585047Y-98655142D01*
X173537428Y-98702761D01*
X173442190Y-98750380D01*
X173204095Y-98750380D01*
X173108857Y-98702761D01*
X173061238Y-98655142D01*
%TO.C,TP4*%
X167140095Y-107656380D02*
X167711523Y-107656380D01*
X167425809Y-108656380D02*
X167425809Y-107656380D01*
X168044857Y-108656380D02*
X168044857Y-107656380D01*
X168425809Y-107656380D01*
X168521047Y-107704000D01*
X168568666Y-107751619D01*
X168616285Y-107846857D01*
X168616285Y-107989714D01*
X168568666Y-108084952D01*
X168521047Y-108132571D01*
X168425809Y-108180190D01*
X168044857Y-108180190D01*
X169473428Y-107989714D02*
X169473428Y-108656380D01*
X169235333Y-107608761D02*
X168997238Y-108323047D01*
X169616285Y-108323047D01*
%TO.C,TP3*%
X164600095Y-97750380D02*
X165171523Y-97750380D01*
X164885809Y-98750380D02*
X164885809Y-97750380D01*
X165504857Y-98750380D02*
X165504857Y-97750380D01*
X165885809Y-97750380D01*
X165981047Y-97798000D01*
X166028666Y-97845619D01*
X166076285Y-97940857D01*
X166076285Y-98083714D01*
X166028666Y-98178952D01*
X165981047Y-98226571D01*
X165885809Y-98274190D01*
X165504857Y-98274190D01*
X166409619Y-97750380D02*
X167028666Y-97750380D01*
X166695333Y-98131333D01*
X166838190Y-98131333D01*
X166933428Y-98178952D01*
X166981047Y-98226571D01*
X167028666Y-98321809D01*
X167028666Y-98559904D01*
X166981047Y-98655142D01*
X166933428Y-98702761D01*
X166838190Y-98750380D01*
X166552476Y-98750380D01*
X166457238Y-98702761D01*
X166409619Y-98655142D01*
%TO.C,TP2*%
X149058380Y-107941904D02*
X149058380Y-107370476D01*
X150058380Y-107656190D02*
X149058380Y-107656190D01*
X150058380Y-107037142D02*
X149058380Y-107037142D01*
X149058380Y-106656190D01*
X149106000Y-106560952D01*
X149153619Y-106513333D01*
X149248857Y-106465714D01*
X149391714Y-106465714D01*
X149486952Y-106513333D01*
X149534571Y-106560952D01*
X149582190Y-106656190D01*
X149582190Y-107037142D01*
X149153619Y-106084761D02*
X149106000Y-106037142D01*
X149058380Y-105941904D01*
X149058380Y-105703809D01*
X149106000Y-105608571D01*
X149153619Y-105560952D01*
X149248857Y-105513333D01*
X149344095Y-105513333D01*
X149486952Y-105560952D01*
X150058380Y-106132380D01*
X150058380Y-105513333D01*
%TO.C,TP1*%
X149614095Y-99020380D02*
X150185523Y-99020380D01*
X149899809Y-100020380D02*
X149899809Y-99020380D01*
X150518857Y-100020380D02*
X150518857Y-99020380D01*
X150899809Y-99020380D01*
X150995047Y-99068000D01*
X151042666Y-99115619D01*
X151090285Y-99210857D01*
X151090285Y-99353714D01*
X151042666Y-99448952D01*
X150995047Y-99496571D01*
X150899809Y-99544190D01*
X150518857Y-99544190D01*
X152042666Y-100020380D02*
X151471238Y-100020380D01*
X151756952Y-100020380D02*
X151756952Y-99020380D01*
X151661714Y-99163238D01*
X151566476Y-99258476D01*
X151471238Y-99306095D01*
%TO.C,R5*%
X175712380Y-107862666D02*
X175236190Y-108196000D01*
X175712380Y-108434095D02*
X174712380Y-108434095D01*
X174712380Y-108053142D01*
X174760000Y-107957904D01*
X174807619Y-107910285D01*
X174902857Y-107862666D01*
X175045714Y-107862666D01*
X175140952Y-107910285D01*
X175188571Y-107957904D01*
X175236190Y-108053142D01*
X175236190Y-108434095D01*
X174712380Y-106957904D02*
X174712380Y-107434095D01*
X175188571Y-107481714D01*
X175140952Y-107434095D01*
X175093333Y-107338857D01*
X175093333Y-107100761D01*
X175140952Y-107005523D01*
X175188571Y-106957904D01*
X175283809Y-106910285D01*
X175521904Y-106910285D01*
X175617142Y-106957904D01*
X175664761Y-107005523D01*
X175712380Y-107100761D01*
X175712380Y-107338857D01*
X175664761Y-107434095D01*
X175617142Y-107481714D01*
%TO.C,R4*%
X154011333Y-107894380D02*
X153678000Y-107418190D01*
X153439904Y-107894380D02*
X153439904Y-106894380D01*
X153820857Y-106894380D01*
X153916095Y-106942000D01*
X153963714Y-106989619D01*
X154011333Y-107084857D01*
X154011333Y-107227714D01*
X153963714Y-107322952D01*
X153916095Y-107370571D01*
X153820857Y-107418190D01*
X153439904Y-107418190D01*
X154868476Y-107227714D02*
X154868476Y-107894380D01*
X154630380Y-106846761D02*
X154392285Y-107561047D01*
X155011333Y-107561047D01*
%TO.C,R3*%
X153860833Y-106116380D02*
X153527500Y-105640190D01*
X153289404Y-106116380D02*
X153289404Y-105116380D01*
X153670357Y-105116380D01*
X153765595Y-105164000D01*
X153813214Y-105211619D01*
X153860833Y-105306857D01*
X153860833Y-105449714D01*
X153813214Y-105544952D01*
X153765595Y-105592571D01*
X153670357Y-105640190D01*
X153289404Y-105640190D01*
X154194166Y-105116380D02*
X154813214Y-105116380D01*
X154479880Y-105497333D01*
X154622738Y-105497333D01*
X154717976Y-105544952D01*
X154765595Y-105592571D01*
X154813214Y-105687809D01*
X154813214Y-105925904D01*
X154765595Y-106021142D01*
X154717976Y-106068761D01*
X154622738Y-106116380D01*
X154337023Y-106116380D01*
X154241785Y-106068761D01*
X154194166Y-106021142D01*
%TO.C,R2*%
X149693333Y-104592380D02*
X149360000Y-104116190D01*
X149121904Y-104592380D02*
X149121904Y-103592380D01*
X149502857Y-103592380D01*
X149598095Y-103640000D01*
X149645714Y-103687619D01*
X149693333Y-103782857D01*
X149693333Y-103925714D01*
X149645714Y-104020952D01*
X149598095Y-104068571D01*
X149502857Y-104116190D01*
X149121904Y-104116190D01*
X150074285Y-103687619D02*
X150121904Y-103640000D01*
X150217142Y-103592380D01*
X150455238Y-103592380D01*
X150550476Y-103640000D01*
X150598095Y-103687619D01*
X150645714Y-103782857D01*
X150645714Y-103878095D01*
X150598095Y-104020952D01*
X150026666Y-104592380D01*
X150645714Y-104592380D01*
%TO.C,R1*%
X147518380Y-108116666D02*
X147042190Y-108450000D01*
X147518380Y-108688095D02*
X146518380Y-108688095D01*
X146518380Y-108307142D01*
X146566000Y-108211904D01*
X146613619Y-108164285D01*
X146708857Y-108116666D01*
X146851714Y-108116666D01*
X146946952Y-108164285D01*
X146994571Y-108211904D01*
X147042190Y-108307142D01*
X147042190Y-108688095D01*
X147518380Y-107164285D02*
X147518380Y-107735714D01*
X147518380Y-107450000D02*
X146518380Y-107450000D01*
X146661238Y-107545238D01*
X146756476Y-107640476D01*
X146804095Y-107735714D01*
%TO.C,L1*%
X159853333Y-100020380D02*
X159377142Y-100020380D01*
X159377142Y-99020380D01*
X160710476Y-100020380D02*
X160139047Y-100020380D01*
X160424761Y-100020380D02*
X160424761Y-99020380D01*
X160329523Y-99163238D01*
X160234285Y-99258476D01*
X160139047Y-99306095D01*
%TO.C,J2*%
X178268380Y-102695333D02*
X178982666Y-102695333D01*
X179125523Y-102742952D01*
X179220761Y-102838190D01*
X179268380Y-102981047D01*
X179268380Y-103076285D01*
X178363619Y-102266761D02*
X178316000Y-102219142D01*
X178268380Y-102123904D01*
X178268380Y-101885809D01*
X178316000Y-101790571D01*
X178363619Y-101742952D01*
X178458857Y-101695333D01*
X178554095Y-101695333D01*
X178696952Y-101742952D01*
X179268380Y-102314380D01*
X179268380Y-101695333D01*
%TO.C,J1*%
X142962380Y-103711333D02*
X143676666Y-103711333D01*
X143819523Y-103758952D01*
X143914761Y-103854190D01*
X143962380Y-103997047D01*
X143962380Y-104092285D01*
X143962380Y-102711333D02*
X143962380Y-103282761D01*
X143962380Y-102997047D02*
X142962380Y-102997047D01*
X143105238Y-103092285D01*
X143200476Y-103187523D01*
X143248095Y-103282761D01*
%TO.C,D3*%
X175578380Y-99197095D02*
X174578380Y-99197095D01*
X174578380Y-98959000D01*
X174626000Y-98816142D01*
X174721238Y-98720904D01*
X174816476Y-98673285D01*
X175006952Y-98625666D01*
X175149809Y-98625666D01*
X175340285Y-98673285D01*
X175435523Y-98720904D01*
X175530761Y-98816142D01*
X175578380Y-98959000D01*
X175578380Y-99197095D01*
X174578380Y-98292333D02*
X174578380Y-97673285D01*
X174959333Y-98006619D01*
X174959333Y-97863761D01*
X175006952Y-97768523D01*
X175054571Y-97720904D01*
X175149809Y-97673285D01*
X175387904Y-97673285D01*
X175483142Y-97720904D01*
X175530761Y-97768523D01*
X175578380Y-97863761D01*
X175578380Y-98149476D01*
X175530761Y-98244714D01*
X175483142Y-98292333D01*
%TO.C,D2*%
X166139904Y-100020380D02*
X166139904Y-99020380D01*
X166378000Y-99020380D01*
X166520857Y-99068000D01*
X166616095Y-99163238D01*
X166663714Y-99258476D01*
X166711333Y-99448952D01*
X166711333Y-99591809D01*
X166663714Y-99782285D01*
X166616095Y-99877523D01*
X166520857Y-99972761D01*
X166378000Y-100020380D01*
X166139904Y-100020380D01*
X167092285Y-99115619D02*
X167139904Y-99068000D01*
X167235142Y-99020380D01*
X167473238Y-99020380D01*
X167568476Y-99068000D01*
X167616095Y-99115619D01*
X167663714Y-99210857D01*
X167663714Y-99306095D01*
X167616095Y-99448952D01*
X167044666Y-100020380D01*
X167663714Y-100020380D01*
%TO.C,D1*%
X147518380Y-99544095D02*
X146518380Y-99544095D01*
X146518380Y-99306000D01*
X146566000Y-99163142D01*
X146661238Y-99067904D01*
X146756476Y-99020285D01*
X146946952Y-98972666D01*
X147089809Y-98972666D01*
X147280285Y-99020285D01*
X147375523Y-99067904D01*
X147470761Y-99163142D01*
X147518380Y-99306000D01*
X147518380Y-99544095D01*
X147518380Y-98020285D02*
X147518380Y-98591714D01*
X147518380Y-98306000D02*
X146518380Y-98306000D01*
X146661238Y-98401238D01*
X146756476Y-98496476D01*
X146804095Y-98591714D01*
%TO.C,C4*%
X172045333Y-100941142D02*
X171997714Y-100988761D01*
X171854857Y-101036380D01*
X171759619Y-101036380D01*
X171616761Y-100988761D01*
X171521523Y-100893523D01*
X171473904Y-100798285D01*
X171426285Y-100607809D01*
X171426285Y-100464952D01*
X171473904Y-100274476D01*
X171521523Y-100179238D01*
X171616761Y-100084000D01*
X171759619Y-100036380D01*
X171854857Y-100036380D01*
X171997714Y-100084000D01*
X172045333Y-100131619D01*
X172902476Y-100369714D02*
X172902476Y-101036380D01*
X172664380Y-99988761D02*
X172426285Y-100703047D01*
X173045333Y-100703047D01*
%TO.C,C3*%
X169505333Y-100941142D02*
X169457714Y-100988761D01*
X169314857Y-101036380D01*
X169219619Y-101036380D01*
X169076761Y-100988761D01*
X168981523Y-100893523D01*
X168933904Y-100798285D01*
X168886285Y-100607809D01*
X168886285Y-100464952D01*
X168933904Y-100274476D01*
X168981523Y-100179238D01*
X169076761Y-100084000D01*
X169219619Y-100036380D01*
X169314857Y-100036380D01*
X169457714Y-100084000D01*
X169505333Y-100131619D01*
X169838666Y-100036380D02*
X170457714Y-100036380D01*
X170124380Y-100417333D01*
X170267238Y-100417333D01*
X170362476Y-100464952D01*
X170410095Y-100512571D01*
X170457714Y-100607809D01*
X170457714Y-100845904D01*
X170410095Y-100941142D01*
X170362476Y-100988761D01*
X170267238Y-101036380D01*
X169981523Y-101036380D01*
X169886285Y-100988761D01*
X169838666Y-100941142D01*
%TO.C,C2*%
X173061333Y-106275142D02*
X173013714Y-106322761D01*
X172870857Y-106370380D01*
X172775619Y-106370380D01*
X172632761Y-106322761D01*
X172537523Y-106227523D01*
X172489904Y-106132285D01*
X172442285Y-105941809D01*
X172442285Y-105798952D01*
X172489904Y-105608476D01*
X172537523Y-105513238D01*
X172632761Y-105418000D01*
X172775619Y-105370380D01*
X172870857Y-105370380D01*
X173013714Y-105418000D01*
X173061333Y-105465619D01*
X173442285Y-105465619D02*
X173489904Y-105418000D01*
X173585142Y-105370380D01*
X173823238Y-105370380D01*
X173918476Y-105418000D01*
X173966095Y-105465619D01*
X174013714Y-105560857D01*
X174013714Y-105656095D01*
X173966095Y-105798952D01*
X173394666Y-106370380D01*
X174013714Y-106370380D01*
%TD*%
%LPC*%
%TO.C,C1*%
G36*
G01*
X152204000Y-101633000D02*
X152204000Y-102583000D01*
G75*
G02*
X151954000Y-102833000I-250000J0D01*
G01*
X151279000Y-102833000D01*
G75*
G02*
X151029000Y-102583000I0J250000D01*
G01*
X151029000Y-101633000D01*
G75*
G02*
X151279000Y-101383000I250000J0D01*
G01*
X151954000Y-101383000D01*
G75*
G02*
X152204000Y-101633000I0J-250000D01*
G01*
G37*
G36*
G01*
X154279000Y-101633000D02*
X154279000Y-102583000D01*
G75*
G02*
X154029000Y-102833000I-250000J0D01*
G01*
X153354000Y-102833000D01*
G75*
G02*
X153104000Y-102583000I0J250000D01*
G01*
X153104000Y-101633000D01*
G75*
G02*
X153354000Y-101383000I250000J0D01*
G01*
X154029000Y-101383000D01*
G75*
G02*
X154279000Y-101633000I0J-250000D01*
G01*
G37*
%TD*%
D13*
%TO.C,U1*%
X156318000Y-101837000D03*
X156318000Y-102887000D03*
X157118000Y-101837000D03*
X157118000Y-102887000D03*
D14*
X158058000Y-101412000D03*
X158058000Y-102362000D03*
X158058000Y-103312000D03*
X155378000Y-103312000D03*
X155378000Y-102362000D03*
X155378000Y-101412000D03*
%TD*%
D15*
%TO.C,TP5*%
X169672000Y-98298000D03*
%TD*%
%TO.C,TP4*%
X171196000Y-108204000D03*
%TD*%
%TO.C,TP3*%
X163068000Y-98552000D03*
%TD*%
%TO.C,TP2*%
X151638000Y-106680000D03*
%TD*%
%TO.C,TP1*%
X153670000Y-99568000D03*
%TD*%
%TO.C,R5*%
G36*
G01*
X175497500Y-104477000D02*
X175022500Y-104477000D01*
G75*
G02*
X174785000Y-104239500I0J237500D01*
G01*
X174785000Y-103739500D01*
G75*
G02*
X175022500Y-103502000I237500J0D01*
G01*
X175497500Y-103502000D01*
G75*
G02*
X175735000Y-103739500I0J-237500D01*
G01*
X175735000Y-104239500D01*
G75*
G02*
X175497500Y-104477000I-237500J0D01*
G01*
G37*
G36*
G01*
X175497500Y-106302000D02*
X175022500Y-106302000D01*
G75*
G02*
X174785000Y-106064500I0J237500D01*
G01*
X174785000Y-105564500D01*
G75*
G02*
X175022500Y-105327000I237500J0D01*
G01*
X175497500Y-105327000D01*
G75*
G02*
X175735000Y-105564500I0J-237500D01*
G01*
X175735000Y-106064500D01*
G75*
G02*
X175497500Y-106302000I-237500J0D01*
G01*
G37*
%TD*%
%TO.C,R4*%
G36*
G01*
X156547000Y-107204500D02*
X156547000Y-107679500D01*
G75*
G02*
X156309500Y-107917000I-237500J0D01*
G01*
X155809500Y-107917000D01*
G75*
G02*
X155572000Y-107679500I0J237500D01*
G01*
X155572000Y-107204500D01*
G75*
G02*
X155809500Y-106967000I237500J0D01*
G01*
X156309500Y-106967000D01*
G75*
G02*
X156547000Y-107204500I0J-237500D01*
G01*
G37*
G36*
G01*
X158372000Y-107204500D02*
X158372000Y-107679500D01*
G75*
G02*
X158134500Y-107917000I-237500J0D01*
G01*
X157634500Y-107917000D01*
G75*
G02*
X157397000Y-107679500I0J237500D01*
G01*
X157397000Y-107204500D01*
G75*
G02*
X157634500Y-106967000I237500J0D01*
G01*
X158134500Y-106967000D01*
G75*
G02*
X158372000Y-107204500I0J-237500D01*
G01*
G37*
%TD*%
%TO.C,R3*%
G36*
G01*
X157397000Y-105901500D02*
X157397000Y-105426500D01*
G75*
G02*
X157634500Y-105189000I237500J0D01*
G01*
X158134500Y-105189000D01*
G75*
G02*
X158372000Y-105426500I0J-237500D01*
G01*
X158372000Y-105901500D01*
G75*
G02*
X158134500Y-106139000I-237500J0D01*
G01*
X157634500Y-106139000D01*
G75*
G02*
X157397000Y-105901500I0J237500D01*
G01*
G37*
G36*
G01*
X155572000Y-105901500D02*
X155572000Y-105426500D01*
G75*
G02*
X155809500Y-105189000I237500J0D01*
G01*
X156309500Y-105189000D01*
G75*
G02*
X156547000Y-105426500I0J-237500D01*
G01*
X156547000Y-105901500D01*
G75*
G02*
X156309500Y-106139000I-237500J0D01*
G01*
X155809500Y-106139000D01*
G75*
G02*
X155572000Y-105901500I0J237500D01*
G01*
G37*
%TD*%
%TO.C,R2*%
G36*
G01*
X153333000Y-104377500D02*
X153333000Y-103902500D01*
G75*
G02*
X153570500Y-103665000I237500J0D01*
G01*
X154070500Y-103665000D01*
G75*
G02*
X154308000Y-103902500I0J-237500D01*
G01*
X154308000Y-104377500D01*
G75*
G02*
X154070500Y-104615000I-237500J0D01*
G01*
X153570500Y-104615000D01*
G75*
G02*
X153333000Y-104377500I0J237500D01*
G01*
G37*
G36*
G01*
X151508000Y-104377500D02*
X151508000Y-103902500D01*
G75*
G02*
X151745500Y-103665000I237500J0D01*
G01*
X152245500Y-103665000D01*
G75*
G02*
X152483000Y-103902500I0J-237500D01*
G01*
X152483000Y-104377500D01*
G75*
G02*
X152245500Y-104615000I-237500J0D01*
G01*
X151745500Y-104615000D01*
G75*
G02*
X151508000Y-104377500I0J237500D01*
G01*
G37*
%TD*%
%TO.C,R1*%
G36*
G01*
X147303500Y-104731000D02*
X146828500Y-104731000D01*
G75*
G02*
X146591000Y-104493500I0J237500D01*
G01*
X146591000Y-103993500D01*
G75*
G02*
X146828500Y-103756000I237500J0D01*
G01*
X147303500Y-103756000D01*
G75*
G02*
X147541000Y-103993500I0J-237500D01*
G01*
X147541000Y-104493500D01*
G75*
G02*
X147303500Y-104731000I-237500J0D01*
G01*
G37*
G36*
G01*
X147303500Y-106556000D02*
X146828500Y-106556000D01*
G75*
G02*
X146591000Y-106318500I0J237500D01*
G01*
X146591000Y-105818500D01*
G75*
G02*
X146828500Y-105581000I237500J0D01*
G01*
X147303500Y-105581000D01*
G75*
G02*
X147541000Y-105818500I0J-237500D01*
G01*
X147541000Y-106318500D01*
G75*
G02*
X147303500Y-106556000I-237500J0D01*
G01*
G37*
%TD*%
D16*
%TO.C,L1*%
X162052000Y-101346000D03*
X162052000Y-105664000D03*
%TD*%
D17*
%TO.C,J2*%
X181610000Y-100156000D03*
D18*
X181610000Y-105156000D03*
%TD*%
D17*
%TO.C,J1*%
X140716000Y-105838000D03*
D18*
X140716000Y-100838000D03*
%TD*%
%TO.C,D3*%
G36*
G01*
X175022500Y-101696000D02*
X175497500Y-101696000D01*
G75*
G02*
X175735000Y-101933500I0J-237500D01*
G01*
X175735000Y-102508500D01*
G75*
G02*
X175497500Y-102746000I-237500J0D01*
G01*
X175022500Y-102746000D01*
G75*
G02*
X174785000Y-102508500I0J237500D01*
G01*
X174785000Y-101933500D01*
G75*
G02*
X175022500Y-101696000I237500J0D01*
G01*
G37*
G36*
G01*
X175022500Y-99946000D02*
X175497500Y-99946000D01*
G75*
G02*
X175735000Y-100183500I0J-237500D01*
G01*
X175735000Y-100758500D01*
G75*
G02*
X175497500Y-100996000I-237500J0D01*
G01*
X175022500Y-100996000D01*
G75*
G02*
X174785000Y-100758500I0J237500D01*
G01*
X174785000Y-100183500D01*
G75*
G02*
X175022500Y-99946000I237500J0D01*
G01*
G37*
%TD*%
D19*
%TO.C,D2*%
X166878000Y-101264720D03*
X166878000Y-105664000D03*
%TD*%
%TO.C,D1*%
G36*
G01*
X146828500Y-101950000D02*
X147303500Y-101950000D01*
G75*
G02*
X147541000Y-102187500I0J-237500D01*
G01*
X147541000Y-102762500D01*
G75*
G02*
X147303500Y-103000000I-237500J0D01*
G01*
X146828500Y-103000000D01*
G75*
G02*
X146591000Y-102762500I0J237500D01*
G01*
X146591000Y-102187500D01*
G75*
G02*
X146828500Y-101950000I237500J0D01*
G01*
G37*
G36*
G01*
X146828500Y-100200000D02*
X147303500Y-100200000D01*
G75*
G02*
X147541000Y-100437500I0J-237500D01*
G01*
X147541000Y-101012500D01*
G75*
G02*
X147303500Y-101250000I-237500J0D01*
G01*
X146828500Y-101250000D01*
G75*
G02*
X146591000Y-101012500I0J237500D01*
G01*
X146591000Y-100437500D01*
G75*
G02*
X146828500Y-100200000I237500J0D01*
G01*
G37*
%TD*%
%TO.C,C4*%
G36*
G01*
X172687000Y-102674000D02*
X171737000Y-102674000D01*
G75*
G02*
X171487000Y-102424000I0J250000D01*
G01*
X171487000Y-101749000D01*
G75*
G02*
X171737000Y-101499000I250000J0D01*
G01*
X172687000Y-101499000D01*
G75*
G02*
X172937000Y-101749000I0J-250000D01*
G01*
X172937000Y-102424000D01*
G75*
G02*
X172687000Y-102674000I-250000J0D01*
G01*
G37*
G36*
G01*
X172687000Y-104749000D02*
X171737000Y-104749000D01*
G75*
G02*
X171487000Y-104499000I0J250000D01*
G01*
X171487000Y-103824000D01*
G75*
G02*
X171737000Y-103574000I250000J0D01*
G01*
X172687000Y-103574000D01*
G75*
G02*
X172937000Y-103824000I0J-250000D01*
G01*
X172937000Y-104499000D01*
G75*
G02*
X172687000Y-104749000I-250000J0D01*
G01*
G37*
%TD*%
%TO.C,C3*%
G36*
G01*
X170147000Y-102674000D02*
X169197000Y-102674000D01*
G75*
G02*
X168947000Y-102424000I0J250000D01*
G01*
X168947000Y-101749000D01*
G75*
G02*
X169197000Y-101499000I250000J0D01*
G01*
X170147000Y-101499000D01*
G75*
G02*
X170397000Y-101749000I0J-250000D01*
G01*
X170397000Y-102424000D01*
G75*
G02*
X170147000Y-102674000I-250000J0D01*
G01*
G37*
G36*
G01*
X170147000Y-104749000D02*
X169197000Y-104749000D01*
G75*
G02*
X168947000Y-104499000I0J250000D01*
G01*
X168947000Y-103824000D01*
G75*
G02*
X169197000Y-103574000I250000J0D01*
G01*
X170147000Y-103574000D01*
G75*
G02*
X170397000Y-103824000I0J-250000D01*
G01*
X170397000Y-104499000D01*
G75*
G02*
X170147000Y-104749000I-250000J0D01*
G01*
G37*
%TD*%
%TO.C,C2*%
G36*
G01*
X170109000Y-105680500D02*
X170109000Y-106155500D01*
G75*
G02*
X169871500Y-106393000I-237500J0D01*
G01*
X169271500Y-106393000D01*
G75*
G02*
X169034000Y-106155500I0J237500D01*
G01*
X169034000Y-105680500D01*
G75*
G02*
X169271500Y-105443000I237500J0D01*
G01*
X169871500Y-105443000D01*
G75*
G02*
X170109000Y-105680500I0J-237500D01*
G01*
G37*
G36*
G01*
X171834000Y-105680500D02*
X171834000Y-106155500D01*
G75*
G02*
X171596500Y-106393000I-237500J0D01*
G01*
X170996500Y-106393000D01*
G75*
G02*
X170759000Y-106155500I0J237500D01*
G01*
X170759000Y-105680500D01*
G75*
G02*
X170996500Y-105443000I237500J0D01*
G01*
X171596500Y-105443000D01*
G75*
G02*
X171834000Y-105680500I0J-237500D01*
G01*
G37*
%TD*%
M02*
