%TF.GenerationSoftware,KiCad,Pcbnew,(5.1.10)-1*%
%TF.CreationDate,2021-06-27T21:28:02-04:00*%
%TF.ProjectId,PWM_Generator,50574d5f-4765-46e6-9572-61746f722e6b,rev?*%
%TF.SameCoordinates,Original*%
%TF.FileFunction,Legend,Top*%
%TF.FilePolarity,Positive*%
%FSLAX46Y46*%
G04 Gerber Fmt 4.6, Leading zero omitted, Abs format (unit mm)*
G04 Created by KiCad (PCBNEW (5.1.10)-1) date 2021-06-27 21:28:02*
%MOMM*%
%LPD*%
G01*
G04 APERTURE LIST*
%ADD10C,0.076200*%
%ADD11C,0.150000*%
%ADD12C,0.120000*%
G04 APERTURE END LIST*
D10*
X126594809Y-90723357D02*
X127078619Y-90723357D01*
X127864809Y-90723357D02*
X128348619Y-90723357D01*
X128106714Y-90965261D02*
X128106714Y-90481452D01*
X129104571Y-90935023D02*
X129195285Y-90965261D01*
X129346476Y-90965261D01*
X129406952Y-90935023D01*
X129437190Y-90904785D01*
X129467428Y-90844309D01*
X129467428Y-90783833D01*
X129437190Y-90723357D01*
X129406952Y-90693119D01*
X129346476Y-90662880D01*
X129225523Y-90632642D01*
X129165047Y-90602404D01*
X129134809Y-90572166D01*
X129104571Y-90511690D01*
X129104571Y-90451214D01*
X129134809Y-90390738D01*
X129165047Y-90360500D01*
X129225523Y-90330261D01*
X129376714Y-90330261D01*
X129467428Y-90360500D01*
D11*
X89571285Y-80953428D02*
X90333285Y-80953428D01*
X89571285Y-81316285D02*
X90333285Y-81316285D01*
X89571285Y-81751714D01*
X90333285Y-81751714D01*
X90297000Y-83094285D02*
X90333285Y-83021714D01*
X90333285Y-82912857D01*
X90297000Y-82804000D01*
X90224428Y-82731428D01*
X90151857Y-82695142D01*
X90006714Y-82658857D01*
X89897857Y-82658857D01*
X89752714Y-82695142D01*
X89680142Y-82731428D01*
X89607571Y-82804000D01*
X89571285Y-82912857D01*
X89571285Y-82985428D01*
X89607571Y-83094285D01*
X89643857Y-83130571D01*
X89897857Y-83130571D01*
X89897857Y-82985428D01*
X89571285Y-83457142D02*
X90333285Y-83457142D01*
X89571285Y-83892571D01*
X90333285Y-83892571D01*
X89571285Y-84255428D02*
X90333285Y-84255428D01*
X90333285Y-84436857D01*
X90297000Y-84545714D01*
X90224428Y-84618285D01*
X90151857Y-84654571D01*
X90006714Y-84690857D01*
X89897857Y-84690857D01*
X89752714Y-84654571D01*
X89680142Y-84618285D01*
X89607571Y-84545714D01*
X89571285Y-84436857D01*
X89571285Y-84255428D01*
X89571285Y-86106000D02*
X90333285Y-86106000D01*
X89571285Y-86468857D02*
X90333285Y-86468857D01*
X89571285Y-86904285D01*
X90333285Y-86904285D01*
X90333285Y-87738857D02*
X89571285Y-87992857D01*
X90333285Y-88246857D01*
X89643857Y-88936285D02*
X89607571Y-88900000D01*
X89571285Y-88791142D01*
X89571285Y-88718571D01*
X89607571Y-88609714D01*
X89680142Y-88537142D01*
X89752714Y-88500857D01*
X89897857Y-88464571D01*
X90006714Y-88464571D01*
X90151857Y-88500857D01*
X90224428Y-88537142D01*
X90297000Y-88609714D01*
X90333285Y-88718571D01*
X90333285Y-88791142D01*
X90297000Y-88900000D01*
X90260714Y-88936285D01*
X89643857Y-89698285D02*
X89607571Y-89662000D01*
X89571285Y-89553142D01*
X89571285Y-89480571D01*
X89607571Y-89371714D01*
X89680142Y-89299142D01*
X89752714Y-89262857D01*
X89897857Y-89226571D01*
X90006714Y-89226571D01*
X90151857Y-89262857D01*
X90224428Y-89299142D01*
X90297000Y-89371714D01*
X90333285Y-89480571D01*
X90333285Y-89553142D01*
X90297000Y-89662000D01*
X90260714Y-89698285D01*
X142330714Y-89408000D02*
X142330714Y-89262857D01*
X142367000Y-89190285D01*
X142439571Y-89117714D01*
X142584714Y-89081428D01*
X142838714Y-89081428D01*
X142983857Y-89117714D01*
X143056428Y-89190285D01*
X143092714Y-89262857D01*
X143092714Y-89408000D01*
X143056428Y-89480571D01*
X142983857Y-89553142D01*
X142838714Y-89589428D01*
X142584714Y-89589428D01*
X142439571Y-89553142D01*
X142367000Y-89480571D01*
X142330714Y-89408000D01*
X142330714Y-88754857D02*
X142947571Y-88754857D01*
X143020142Y-88718571D01*
X143056428Y-88682285D01*
X143092714Y-88609714D01*
X143092714Y-88464571D01*
X143056428Y-88392000D01*
X143020142Y-88355714D01*
X142947571Y-88319428D01*
X142330714Y-88319428D01*
X142330714Y-88065428D02*
X142330714Y-87630000D01*
X143092714Y-87847714D02*
X142330714Y-87847714D01*
X142802428Y-86795428D02*
X142802428Y-86214857D01*
X143092714Y-86505142D02*
X142512142Y-86505142D01*
X142330714Y-83820000D02*
X142330714Y-83674857D01*
X142367000Y-83602285D01*
X142439571Y-83529714D01*
X142584714Y-83493428D01*
X142838714Y-83493428D01*
X142983857Y-83529714D01*
X143056428Y-83602285D01*
X143092714Y-83674857D01*
X143092714Y-83820000D01*
X143056428Y-83892571D01*
X142983857Y-83965142D01*
X142838714Y-84001428D01*
X142584714Y-84001428D01*
X142439571Y-83965142D01*
X142367000Y-83892571D01*
X142330714Y-83820000D01*
X142330714Y-83166857D02*
X142947571Y-83166857D01*
X143020142Y-83130571D01*
X143056428Y-83094285D01*
X143092714Y-83021714D01*
X143092714Y-82876571D01*
X143056428Y-82804000D01*
X143020142Y-82767714D01*
X142947571Y-82731428D01*
X142330714Y-82731428D01*
X142330714Y-82477428D02*
X142330714Y-82042000D01*
X143092714Y-82259714D02*
X142330714Y-82259714D01*
X142802428Y-81207428D02*
X142802428Y-80626857D01*
D12*
%TO.C,J3*%
X125496000Y-91373000D02*
X125496000Y-91072493D01*
X125496000Y-90283507D02*
X125496000Y-89983000D01*
X123621000Y-91373000D02*
X125496000Y-91373000D01*
X123621000Y-89983000D02*
X125496000Y-89983000D01*
X123621000Y-91373000D02*
X123621000Y-91286276D01*
X123621000Y-90069724D02*
X123621000Y-89983000D01*
X122936000Y-91373000D02*
X122251000Y-91373000D01*
X122251000Y-91373000D02*
X122251000Y-90678000D01*
%TO.C,TP3*%
X125160000Y-80772000D02*
G75*
G03*
X125160000Y-80772000I-700000J0D01*
G01*
%TO.C,TP2*%
X111698000Y-79756000D02*
G75*
G03*
X111698000Y-79756000I-700000J0D01*
G01*
%TO.C,TP1*%
X118556000Y-87884000D02*
G75*
G03*
X118556000Y-87884000I-700000J0D01*
G01*
%TO.C,U1*%
X111252000Y-86380000D02*
X113202000Y-86380000D01*
X111252000Y-86380000D02*
X109302000Y-86380000D01*
X111252000Y-81260000D02*
X113202000Y-81260000D01*
X111252000Y-81260000D02*
X107802000Y-81260000D01*
%TO.C,R5*%
X127014500Y-85597276D02*
X127014500Y-86106724D01*
X125969500Y-85597276D02*
X125969500Y-86106724D01*
%TO.C,R4*%
X123937500Y-86614724D02*
X123937500Y-86105276D01*
X124982500Y-86614724D02*
X124982500Y-86105276D01*
%TO.C,R2*%
X116854500Y-82549276D02*
X116854500Y-83058724D01*
X115809500Y-82549276D02*
X115809500Y-83058724D01*
%TO.C,R1*%
X106694500Y-86105276D02*
X106694500Y-86614724D01*
X105649500Y-86105276D02*
X105649500Y-86614724D01*
%TO.C,Q1*%
X129088000Y-81536000D02*
X128158000Y-81536000D01*
X125928000Y-81536000D02*
X126858000Y-81536000D01*
X125928000Y-81536000D02*
X125928000Y-83696000D01*
X129088000Y-81536000D02*
X129088000Y-82996000D01*
%TO.C,J2*%
X137824000Y-82884000D02*
G75*
G03*
X137824000Y-82884000I-1680000J0D01*
G01*
X140244000Y-90444000D02*
X140244000Y-80324000D01*
X138744000Y-90444000D02*
X138744000Y-80324000D01*
X133843000Y-90444000D02*
X133843000Y-80324000D01*
X130883000Y-90444000D02*
X130883000Y-80324000D01*
X140804000Y-90444000D02*
X140804000Y-80324000D01*
X130883000Y-90444000D02*
X140804000Y-90444000D01*
X130883000Y-80324000D02*
X140804000Y-80324000D01*
X135075000Y-81609000D02*
X135121000Y-81656000D01*
X137383000Y-83918000D02*
X137418000Y-83953000D01*
X134869000Y-81814000D02*
X134905000Y-81849000D01*
X137167000Y-84111000D02*
X137213000Y-84158000D01*
X140304000Y-90684000D02*
X141044000Y-90684000D01*
X141044000Y-90684000D02*
X141044000Y-90184000D01*
X137824253Y-87855195D02*
G75*
G02*
X137679000Y-88568000I-1680253J-28805D01*
G01*
X136827042Y-89419426D02*
G75*
G02*
X135460000Y-89419000I-683042J1535426D01*
G01*
X134608574Y-88567042D02*
G75*
G02*
X134609000Y-87200000I1535426J683042D01*
G01*
X135460958Y-86348574D02*
G75*
G02*
X136828000Y-86349000I683042J-1535426D01*
G01*
X137678756Y-87200682D02*
G75*
G02*
X137824000Y-87884000I-1534756J-683318D01*
G01*
%TO.C,J1*%
X98708000Y-87884000D02*
G75*
G03*
X98708000Y-87884000I-1680000J0D01*
G01*
X92928000Y-80324000D02*
X92928000Y-90444000D01*
X94428000Y-80324000D02*
X94428000Y-90444000D01*
X99329000Y-80324000D02*
X99329000Y-90444000D01*
X102289000Y-80324000D02*
X102289000Y-90444000D01*
X92368000Y-80324000D02*
X92368000Y-90444000D01*
X102289000Y-80324000D02*
X92368000Y-80324000D01*
X102289000Y-90444000D02*
X92368000Y-90444000D01*
X98097000Y-89159000D02*
X98051000Y-89112000D01*
X95789000Y-86850000D02*
X95754000Y-86815000D01*
X98303000Y-88954000D02*
X98267000Y-88919000D01*
X96005000Y-86657000D02*
X95959000Y-86610000D01*
X92868000Y-80084000D02*
X92128000Y-80084000D01*
X92128000Y-80084000D02*
X92128000Y-80584000D01*
X95347747Y-82912805D02*
G75*
G02*
X95493000Y-82200000I1680253J28805D01*
G01*
X96344958Y-81348574D02*
G75*
G02*
X97712000Y-81349000I683042J-1535426D01*
G01*
X98563426Y-82200958D02*
G75*
G02*
X98563000Y-83568000I-1535426J-683042D01*
G01*
X97711042Y-84419426D02*
G75*
G02*
X96344000Y-84419000I-683042J1535426D01*
G01*
X95493244Y-83567318D02*
G75*
G02*
X95348000Y-82884000I1534756J683318D01*
G01*
%TO.C,D4*%
X129259000Y-86652000D02*
X129259000Y-84192000D01*
X129259000Y-84192000D02*
X127789000Y-84192000D01*
X127789000Y-84192000D02*
X127789000Y-86652000D01*
%TO.C,D3*%
X123163000Y-87205000D02*
X123163000Y-84745000D01*
X123163000Y-84745000D02*
X121693000Y-84745000D01*
X121693000Y-84745000D02*
X121693000Y-87205000D01*
%TO.C,D2*%
X120180000Y-83085000D02*
X117720000Y-83085000D01*
X117720000Y-83085000D02*
X117720000Y-84555000D01*
X117720000Y-84555000D02*
X120180000Y-84555000D01*
%TO.C,D1*%
X104875000Y-87160000D02*
X104875000Y-84700000D01*
X104875000Y-84700000D02*
X103405000Y-84700000D01*
X103405000Y-84700000D02*
X103405000Y-87160000D01*
%TO.C,C4*%
X103630000Y-82950267D02*
X103630000Y-82657733D01*
X104650000Y-82950267D02*
X104650000Y-82657733D01*
%TO.C,C3*%
X105662000Y-82950267D02*
X105662000Y-82657733D01*
X106682000Y-82950267D02*
X106682000Y-82657733D01*
%TO.C,C2*%
X119233733Y-81278000D02*
X119526267Y-81278000D01*
X119233733Y-82298000D02*
X119526267Y-82298000D01*
%TO.C,C1*%
X117201733Y-85342000D02*
X117494267Y-85342000D01*
X117201733Y-86362000D02*
X117494267Y-86362000D01*
%TO.C,J3*%
D11*
X120356380Y-91011333D02*
X121070666Y-91011333D01*
X121213523Y-91058952D01*
X121308761Y-91154190D01*
X121356380Y-91297047D01*
X121356380Y-91392285D01*
X120356380Y-90630380D02*
X120356380Y-90011333D01*
X120737333Y-90344666D01*
X120737333Y-90201809D01*
X120784952Y-90106571D01*
X120832571Y-90058952D01*
X120927809Y-90011333D01*
X121165904Y-90011333D01*
X121261142Y-90058952D01*
X121308761Y-90106571D01*
X121356380Y-90201809D01*
X121356380Y-90487523D01*
X121308761Y-90582761D01*
X121261142Y-90630380D01*
%TO.C,R3*%
X108545333Y-88336380D02*
X108212000Y-87860190D01*
X107973904Y-88336380D02*
X107973904Y-87336380D01*
X108354857Y-87336380D01*
X108450095Y-87384000D01*
X108497714Y-87431619D01*
X108545333Y-87526857D01*
X108545333Y-87669714D01*
X108497714Y-87764952D01*
X108450095Y-87812571D01*
X108354857Y-87860190D01*
X107973904Y-87860190D01*
X108878666Y-87336380D02*
X109497714Y-87336380D01*
X109164380Y-87717333D01*
X109307238Y-87717333D01*
X109402476Y-87764952D01*
X109450095Y-87812571D01*
X109497714Y-87907809D01*
X109497714Y-88145904D01*
X109450095Y-88241142D01*
X109402476Y-88288761D01*
X109307238Y-88336380D01*
X109021523Y-88336380D01*
X108926285Y-88288761D01*
X108878666Y-88241142D01*
%TO.C,TP3*%
X120658095Y-79716380D02*
X121229523Y-79716380D01*
X120943809Y-80716380D02*
X120943809Y-79716380D01*
X121562857Y-80716380D02*
X121562857Y-79716380D01*
X121943809Y-79716380D01*
X122039047Y-79764000D01*
X122086666Y-79811619D01*
X122134285Y-79906857D01*
X122134285Y-80049714D01*
X122086666Y-80144952D01*
X122039047Y-80192571D01*
X121943809Y-80240190D01*
X121562857Y-80240190D01*
X122467619Y-79716380D02*
X123086666Y-79716380D01*
X122753333Y-80097333D01*
X122896190Y-80097333D01*
X122991428Y-80144952D01*
X123039047Y-80192571D01*
X123086666Y-80287809D01*
X123086666Y-80525904D01*
X123039047Y-80621142D01*
X122991428Y-80668761D01*
X122896190Y-80716380D01*
X122610476Y-80716380D01*
X122515238Y-80668761D01*
X122467619Y-80621142D01*
%TO.C,TP2*%
X112276095Y-79716380D02*
X112847523Y-79716380D01*
X112561809Y-80716380D02*
X112561809Y-79716380D01*
X113180857Y-80716380D02*
X113180857Y-79716380D01*
X113561809Y-79716380D01*
X113657047Y-79764000D01*
X113704666Y-79811619D01*
X113752285Y-79906857D01*
X113752285Y-80049714D01*
X113704666Y-80144952D01*
X113657047Y-80192571D01*
X113561809Y-80240190D01*
X113180857Y-80240190D01*
X114133238Y-79811619D02*
X114180857Y-79764000D01*
X114276095Y-79716380D01*
X114514190Y-79716380D01*
X114609428Y-79764000D01*
X114657047Y-79811619D01*
X114704666Y-79906857D01*
X114704666Y-80002095D01*
X114657047Y-80144952D01*
X114085619Y-80716380D01*
X114704666Y-80716380D01*
%TO.C,TP1*%
X114308095Y-87336380D02*
X114879523Y-87336380D01*
X114593809Y-88336380D02*
X114593809Y-87336380D01*
X115212857Y-88336380D02*
X115212857Y-87336380D01*
X115593809Y-87336380D01*
X115689047Y-87384000D01*
X115736666Y-87431619D01*
X115784285Y-87526857D01*
X115784285Y-87669714D01*
X115736666Y-87764952D01*
X115689047Y-87812571D01*
X115593809Y-87860190D01*
X115212857Y-87860190D01*
X116736666Y-88336380D02*
X116165238Y-88336380D01*
X116450952Y-88336380D02*
X116450952Y-87336380D01*
X116355714Y-87479238D01*
X116260476Y-87574476D01*
X116165238Y-87622095D01*
%TO.C,U1*%
X107950095Y-79716380D02*
X107950095Y-80525904D01*
X107997714Y-80621142D01*
X108045333Y-80668761D01*
X108140571Y-80716380D01*
X108331047Y-80716380D01*
X108426285Y-80668761D01*
X108473904Y-80621142D01*
X108521523Y-80525904D01*
X108521523Y-79716380D01*
X109521523Y-80716380D02*
X108950095Y-80716380D01*
X109235809Y-80716380D02*
X109235809Y-79716380D01*
X109140571Y-79859238D01*
X109045333Y-79954476D01*
X108950095Y-80002095D01*
%TO.C,R5*%
X126325333Y-88844380D02*
X125992000Y-88368190D01*
X125753904Y-88844380D02*
X125753904Y-87844380D01*
X126134857Y-87844380D01*
X126230095Y-87892000D01*
X126277714Y-87939619D01*
X126325333Y-88034857D01*
X126325333Y-88177714D01*
X126277714Y-88272952D01*
X126230095Y-88320571D01*
X126134857Y-88368190D01*
X125753904Y-88368190D01*
X127230095Y-87844380D02*
X126753904Y-87844380D01*
X126706285Y-88320571D01*
X126753904Y-88272952D01*
X126849142Y-88225333D01*
X127087238Y-88225333D01*
X127182476Y-88272952D01*
X127230095Y-88320571D01*
X127277714Y-88415809D01*
X127277714Y-88653904D01*
X127230095Y-88749142D01*
X127182476Y-88796761D01*
X127087238Y-88844380D01*
X126849142Y-88844380D01*
X126753904Y-88796761D01*
X126706285Y-88749142D01*
%TO.C,R4*%
X124293333Y-89352380D02*
X123960000Y-88876190D01*
X123721904Y-89352380D02*
X123721904Y-88352380D01*
X124102857Y-88352380D01*
X124198095Y-88400000D01*
X124245714Y-88447619D01*
X124293333Y-88542857D01*
X124293333Y-88685714D01*
X124245714Y-88780952D01*
X124198095Y-88828571D01*
X124102857Y-88876190D01*
X123721904Y-88876190D01*
X125150476Y-88685714D02*
X125150476Y-89352380D01*
X124912380Y-88304761D02*
X124674285Y-89019047D01*
X125293333Y-89019047D01*
%TO.C,R2*%
X116165333Y-80716380D02*
X115832000Y-80240190D01*
X115593904Y-80716380D02*
X115593904Y-79716380D01*
X115974857Y-79716380D01*
X116070095Y-79764000D01*
X116117714Y-79811619D01*
X116165333Y-79906857D01*
X116165333Y-80049714D01*
X116117714Y-80144952D01*
X116070095Y-80192571D01*
X115974857Y-80240190D01*
X115593904Y-80240190D01*
X116546285Y-79811619D02*
X116593904Y-79764000D01*
X116689142Y-79716380D01*
X116927238Y-79716380D01*
X117022476Y-79764000D01*
X117070095Y-79811619D01*
X117117714Y-79906857D01*
X117117714Y-80002095D01*
X117070095Y-80144952D01*
X116498666Y-80716380D01*
X117117714Y-80716380D01*
%TO.C,R1*%
X106005333Y-89352380D02*
X105672000Y-88876190D01*
X105433904Y-89352380D02*
X105433904Y-88352380D01*
X105814857Y-88352380D01*
X105910095Y-88400000D01*
X105957714Y-88447619D01*
X106005333Y-88542857D01*
X106005333Y-88685714D01*
X105957714Y-88780952D01*
X105910095Y-88828571D01*
X105814857Y-88876190D01*
X105433904Y-88876190D01*
X106957714Y-89352380D02*
X106386285Y-89352380D01*
X106672000Y-89352380D02*
X106672000Y-88352380D01*
X106576761Y-88495238D01*
X106481523Y-88590476D01*
X106386285Y-88638095D01*
%TO.C,Q1*%
X125007619Y-82899238D02*
X124960000Y-82994476D01*
X124864761Y-83089714D01*
X124721904Y-83232571D01*
X124674285Y-83327809D01*
X124674285Y-83423047D01*
X124912380Y-83375428D02*
X124864761Y-83470666D01*
X124769523Y-83565904D01*
X124579047Y-83613523D01*
X124245714Y-83613523D01*
X124055238Y-83565904D01*
X123960000Y-83470666D01*
X123912380Y-83375428D01*
X123912380Y-83184952D01*
X123960000Y-83089714D01*
X124055238Y-82994476D01*
X124245714Y-82946857D01*
X124579047Y-82946857D01*
X124769523Y-82994476D01*
X124864761Y-83089714D01*
X124912380Y-83184952D01*
X124912380Y-83375428D01*
X124912380Y-81994476D02*
X124912380Y-82565904D01*
X124912380Y-82280190D02*
X123912380Y-82280190D01*
X124055238Y-82375428D01*
X124150476Y-82470666D01*
X124198095Y-82565904D01*
%TO.C,J2*%
X131238666Y-78700380D02*
X131238666Y-79414666D01*
X131191047Y-79557523D01*
X131095809Y-79652761D01*
X130952952Y-79700380D01*
X130857714Y-79700380D01*
X131667238Y-78795619D02*
X131714857Y-78748000D01*
X131810095Y-78700380D01*
X132048190Y-78700380D01*
X132143428Y-78748000D01*
X132191047Y-78795619D01*
X132238666Y-78890857D01*
X132238666Y-78986095D01*
X132191047Y-79128952D01*
X131619619Y-79700380D01*
X132238666Y-79700380D01*
%TO.C,J1*%
X90852666Y-90384380D02*
X90852666Y-91098666D01*
X90805047Y-91241523D01*
X90709809Y-91336761D01*
X90566952Y-91384380D01*
X90471714Y-91384380D01*
X91852666Y-91384380D02*
X91281238Y-91384380D01*
X91566952Y-91384380D02*
X91566952Y-90384380D01*
X91471714Y-90527238D01*
X91376476Y-90622476D01*
X91281238Y-90670095D01*
%TO.C,D4*%
X127785904Y-88844380D02*
X127785904Y-87844380D01*
X128024000Y-87844380D01*
X128166857Y-87892000D01*
X128262095Y-87987238D01*
X128309714Y-88082476D01*
X128357333Y-88272952D01*
X128357333Y-88415809D01*
X128309714Y-88606285D01*
X128262095Y-88701523D01*
X128166857Y-88796761D01*
X128024000Y-88844380D01*
X127785904Y-88844380D01*
X129214476Y-88177714D02*
X129214476Y-88844380D01*
X128976380Y-87796761D02*
X128738285Y-88511047D01*
X129357333Y-88511047D01*
%TO.C,D3*%
X121689904Y-89352380D02*
X121689904Y-88352380D01*
X121928000Y-88352380D01*
X122070857Y-88400000D01*
X122166095Y-88495238D01*
X122213714Y-88590476D01*
X122261333Y-88780952D01*
X122261333Y-88923809D01*
X122213714Y-89114285D01*
X122166095Y-89209523D01*
X122070857Y-89304761D01*
X121928000Y-89352380D01*
X121689904Y-89352380D01*
X122594666Y-88352380D02*
X123213714Y-88352380D01*
X122880380Y-88733333D01*
X123023238Y-88733333D01*
X123118476Y-88780952D01*
X123166095Y-88828571D01*
X123213714Y-88923809D01*
X123213714Y-89161904D01*
X123166095Y-89257142D01*
X123118476Y-89304761D01*
X123023238Y-89352380D01*
X122737523Y-89352380D01*
X122642285Y-89304761D01*
X122594666Y-89257142D01*
%TO.C,D2*%
X121689904Y-84272380D02*
X121689904Y-83272380D01*
X121928000Y-83272380D01*
X122070857Y-83320000D01*
X122166095Y-83415238D01*
X122213714Y-83510476D01*
X122261333Y-83700952D01*
X122261333Y-83843809D01*
X122213714Y-84034285D01*
X122166095Y-84129523D01*
X122070857Y-84224761D01*
X121928000Y-84272380D01*
X121689904Y-84272380D01*
X122642285Y-83367619D02*
X122689904Y-83320000D01*
X122785142Y-83272380D01*
X123023238Y-83272380D01*
X123118476Y-83320000D01*
X123166095Y-83367619D01*
X123213714Y-83462857D01*
X123213714Y-83558095D01*
X123166095Y-83700952D01*
X122594666Y-84272380D01*
X123213714Y-84272380D01*
%TO.C,D1*%
X103401904Y-89352380D02*
X103401904Y-88352380D01*
X103640000Y-88352380D01*
X103782857Y-88400000D01*
X103878095Y-88495238D01*
X103925714Y-88590476D01*
X103973333Y-88780952D01*
X103973333Y-88923809D01*
X103925714Y-89114285D01*
X103878095Y-89209523D01*
X103782857Y-89304761D01*
X103640000Y-89352380D01*
X103401904Y-89352380D01*
X104925714Y-89352380D02*
X104354285Y-89352380D01*
X104640000Y-89352380D02*
X104640000Y-88352380D01*
X104544761Y-88495238D01*
X104449523Y-88590476D01*
X104354285Y-88638095D01*
%TO.C,C4*%
X103973333Y-80621142D02*
X103925714Y-80668761D01*
X103782857Y-80716380D01*
X103687619Y-80716380D01*
X103544761Y-80668761D01*
X103449523Y-80573523D01*
X103401904Y-80478285D01*
X103354285Y-80287809D01*
X103354285Y-80144952D01*
X103401904Y-79954476D01*
X103449523Y-79859238D01*
X103544761Y-79764000D01*
X103687619Y-79716380D01*
X103782857Y-79716380D01*
X103925714Y-79764000D01*
X103973333Y-79811619D01*
X104830476Y-80049714D02*
X104830476Y-80716380D01*
X104592380Y-79668761D02*
X104354285Y-80383047D01*
X104973333Y-80383047D01*
%TO.C,C3*%
X106005333Y-80621142D02*
X105957714Y-80668761D01*
X105814857Y-80716380D01*
X105719619Y-80716380D01*
X105576761Y-80668761D01*
X105481523Y-80573523D01*
X105433904Y-80478285D01*
X105386285Y-80287809D01*
X105386285Y-80144952D01*
X105433904Y-79954476D01*
X105481523Y-79859238D01*
X105576761Y-79764000D01*
X105719619Y-79716380D01*
X105814857Y-79716380D01*
X105957714Y-79764000D01*
X106005333Y-79811619D01*
X106338666Y-79716380D02*
X106957714Y-79716380D01*
X106624380Y-80097333D01*
X106767238Y-80097333D01*
X106862476Y-80144952D01*
X106910095Y-80192571D01*
X106957714Y-80287809D01*
X106957714Y-80525904D01*
X106910095Y-80621142D01*
X106862476Y-80668761D01*
X106767238Y-80716380D01*
X106481523Y-80716380D01*
X106386285Y-80668761D01*
X106338666Y-80621142D01*
%TO.C,C2*%
X122261333Y-82145142D02*
X122213714Y-82192761D01*
X122070857Y-82240380D01*
X121975619Y-82240380D01*
X121832761Y-82192761D01*
X121737523Y-82097523D01*
X121689904Y-82002285D01*
X121642285Y-81811809D01*
X121642285Y-81668952D01*
X121689904Y-81478476D01*
X121737523Y-81383238D01*
X121832761Y-81288000D01*
X121975619Y-81240380D01*
X122070857Y-81240380D01*
X122213714Y-81288000D01*
X122261333Y-81335619D01*
X122642285Y-81335619D02*
X122689904Y-81288000D01*
X122785142Y-81240380D01*
X123023238Y-81240380D01*
X123118476Y-81288000D01*
X123166095Y-81335619D01*
X123213714Y-81430857D01*
X123213714Y-81526095D01*
X123166095Y-81668952D01*
X122594666Y-82240380D01*
X123213714Y-82240380D01*
%TO.C,C1*%
X120229333Y-86209142D02*
X120181714Y-86256761D01*
X120038857Y-86304380D01*
X119943619Y-86304380D01*
X119800761Y-86256761D01*
X119705523Y-86161523D01*
X119657904Y-86066285D01*
X119610285Y-85875809D01*
X119610285Y-85732952D01*
X119657904Y-85542476D01*
X119705523Y-85447238D01*
X119800761Y-85352000D01*
X119943619Y-85304380D01*
X120038857Y-85304380D01*
X120181714Y-85352000D01*
X120229333Y-85399619D01*
X121181714Y-86304380D02*
X120610285Y-86304380D01*
X120896000Y-86304380D02*
X120896000Y-85304380D01*
X120800761Y-85447238D01*
X120705523Y-85542476D01*
X120610285Y-85590095D01*
%TD*%
M02*
