%TF.GenerationSoftware,KiCad,Pcbnew,(5.1.10)-1*%
%TF.CreationDate,2021-06-27T21:28:02-04:00*%
%TF.ProjectId,PWM_Generator,50574d5f-4765-46e6-9572-61746f722e6b,rev?*%
%TF.SameCoordinates,Original*%
%TF.FileFunction,Copper,L2,Bot*%
%TF.FilePolarity,Positive*%
%FSLAX46Y46*%
G04 Gerber Fmt 4.6, Leading zero omitted, Abs format (unit mm)*
G04 Created by KiCad (PCBNEW (5.1.10)-1) date 2021-06-27 21:28:02*
%MOMM*%
%LPD*%
G01*
G04 APERTURE LIST*
%TA.AperFunction,ComponentPad*%
%ADD10O,0.850000X0.850000*%
%TD*%
%TA.AperFunction,ComponentPad*%
%ADD11R,0.850000X0.850000*%
%TD*%
%TA.AperFunction,ComponentPad*%
%ADD12C,1.651000*%
%TD*%
%TA.AperFunction,ComponentPad*%
%ADD13C,2.600000*%
%TD*%
%TA.AperFunction,ComponentPad*%
%ADD14R,2.600000X2.600000*%
%TD*%
%TA.AperFunction,ViaPad*%
%ADD15C,0.800000*%
%TD*%
%TA.AperFunction,Conductor*%
%ADD16C,0.762000*%
%TD*%
%TA.AperFunction,Conductor*%
%ADD17C,0.250000*%
%TD*%
%TA.AperFunction,Conductor*%
%ADD18C,0.254000*%
%TD*%
%TA.AperFunction,Conductor*%
%ADD19C,0.100000*%
%TD*%
G04 APERTURE END LIST*
D10*
%TO.P,J3,3*%
%TO.N,/OUT*%
X124936000Y-90678000D03*
%TO.P,J3,2*%
%TO.N,VCC*%
X123936000Y-90678000D03*
D11*
%TO.P,J3,1*%
%TO.N,GND*%
X122936000Y-90678000D03*
%TD*%
D12*
%TO.P,R3,3*%
%TO.N,Net-(D2-Pad1)*%
X118872000Y-89916000D03*
%TO.P,R3,2*%
%TO.N,/TRIG*%
X113850420Y-89916000D03*
%TO.P,R3,1*%
%TO.N,Net-(D3-Pad2)*%
X108872020Y-89916000D03*
%TD*%
D13*
%TO.P,J2,2*%
%TO.N,Net-(J2-Pad2)*%
X136144000Y-82884000D03*
D14*
%TO.P,J2,1*%
%TO.N,VCC*%
X136144000Y-87884000D03*
%TD*%
D13*
%TO.P,J1,2*%
%TO.N,VCC*%
X97028000Y-87884000D03*
D14*
%TO.P,J1,1*%
%TO.N,GND*%
X97028000Y-82884000D03*
%TD*%
D15*
%TO.N,GND*%
X119888000Y-80518000D03*
X118972499Y-86614000D03*
%TO.N,VCC*%
X111760000Y-87376000D03*
X111760000Y-81788000D03*
X118364000Y-80264000D03*
X120650000Y-86868000D03*
%TO.N,Net-(D3-Pad2)*%
X120904000Y-87884000D03*
%TO.N,/OUT*%
X111252000Y-85344000D03*
X124968000Y-84328000D03*
%TD*%
D16*
%TO.N,GND*%
X97028000Y-82884000D02*
X98980000Y-82884000D01*
X119888000Y-79952315D02*
X119888000Y-80518000D01*
X119218684Y-79282999D02*
X119888000Y-79952315D01*
X102581001Y-79282999D02*
X119218684Y-79282999D01*
X98980000Y-82884000D02*
X102581001Y-79282999D01*
D17*
%TO.N,VCC*%
X120961002Y-86868000D02*
X120650000Y-86868000D01*
X123936000Y-89842998D02*
X120961002Y-86868000D01*
X123936000Y-90678000D02*
X123936000Y-89842998D01*
%TO.N,Net-(D3-Pad2)*%
X120904000Y-87884000D02*
X120904000Y-90932000D01*
X120904000Y-90932000D02*
X120396000Y-91440000D01*
X110396020Y-91440000D02*
X108872020Y-89916000D01*
X120396000Y-91440000D02*
X110396020Y-91440000D01*
%TO.N,/OUT*%
X112268000Y-84328000D02*
X124968000Y-84328000D01*
X111252000Y-85344000D02*
X112268000Y-84328000D01*
X124968000Y-90646000D02*
X124936000Y-90678000D01*
X124968000Y-84328000D02*
X124968000Y-90646000D01*
%TD*%
D18*
%TO.N,VCC*%
X98955052Y-81472108D02*
X98953812Y-81459518D01*
X98917502Y-81339820D01*
X98858537Y-81229506D01*
X98779185Y-81132815D01*
X98682494Y-81053463D01*
X98572180Y-80994498D01*
X98452482Y-80958188D01*
X98328000Y-80945928D01*
X95728000Y-80945928D01*
X95603518Y-80958188D01*
X95483820Y-80994498D01*
X95373506Y-81053463D01*
X95276815Y-81132815D01*
X95197463Y-81229506D01*
X95138498Y-81339820D01*
X95102188Y-81459518D01*
X95089928Y-81584000D01*
X95089928Y-84184000D01*
X95102188Y-84308482D01*
X95138498Y-84428180D01*
X95197463Y-84538494D01*
X95276815Y-84635185D01*
X95373506Y-84714537D01*
X95483820Y-84773502D01*
X95603518Y-84809812D01*
X95728000Y-84822072D01*
X98328000Y-84822072D01*
X98452482Y-84809812D01*
X98572180Y-84773502D01*
X98682494Y-84714537D01*
X98779185Y-84635185D01*
X98858537Y-84538494D01*
X98917502Y-84428180D01*
X98953812Y-84308482D01*
X98966072Y-84184000D01*
X98966072Y-83903543D01*
X98980000Y-83904915D01*
X99029902Y-83900000D01*
X99179171Y-83885298D01*
X99370687Y-83827202D01*
X99547190Y-83732860D01*
X99701896Y-83605896D01*
X99733712Y-83567128D01*
X100607421Y-82693419D01*
X134209000Y-82693419D01*
X134209000Y-83074581D01*
X134283361Y-83448419D01*
X134429225Y-83800566D01*
X134640987Y-84117491D01*
X134910509Y-84387013D01*
X135227434Y-84598775D01*
X135579581Y-84744639D01*
X135953419Y-84819000D01*
X136334581Y-84819000D01*
X136708419Y-84744639D01*
X137060566Y-84598775D01*
X137377491Y-84387013D01*
X137647013Y-84117491D01*
X137858775Y-83800566D01*
X138004639Y-83448419D01*
X138079000Y-83074581D01*
X138079000Y-82693419D01*
X138004639Y-82319581D01*
X137858775Y-81967434D01*
X137647013Y-81650509D01*
X137377491Y-81380987D01*
X137060566Y-81169225D01*
X136708419Y-81023361D01*
X136334581Y-80949000D01*
X135953419Y-80949000D01*
X135579581Y-81023361D01*
X135227434Y-81169225D01*
X134910509Y-81380987D01*
X134640987Y-81650509D01*
X134429225Y-81967434D01*
X134283361Y-82319581D01*
X134209000Y-82693419D01*
X100607421Y-82693419D01*
X103001842Y-80298999D01*
X118797844Y-80298999D01*
X118863271Y-80364426D01*
X118853000Y-80416061D01*
X118853000Y-80619939D01*
X118892774Y-80819898D01*
X118970795Y-81008256D01*
X119084063Y-81177774D01*
X119228226Y-81321937D01*
X119397744Y-81435205D01*
X119586102Y-81513226D01*
X119786061Y-81553000D01*
X119989939Y-81553000D01*
X120189898Y-81513226D01*
X120378256Y-81435205D01*
X120547774Y-81321937D01*
X120691937Y-81177774D01*
X120805205Y-81008256D01*
X120883226Y-80819898D01*
X120923000Y-80619939D01*
X120923000Y-80416061D01*
X120904000Y-80320541D01*
X120904000Y-80002217D01*
X120908915Y-79952315D01*
X120889298Y-79753144D01*
X120831202Y-79561628D01*
X120815727Y-79532676D01*
X120736860Y-79385125D01*
X120609896Y-79230419D01*
X120571127Y-79198602D01*
X120518525Y-79146000D01*
X142715723Y-79146000D01*
X142915200Y-79165559D01*
X143076041Y-79214120D01*
X143224378Y-79292992D01*
X143354574Y-79399176D01*
X143461664Y-79528626D01*
X143541572Y-79676414D01*
X143591252Y-79836902D01*
X143612001Y-80034316D01*
X143612000Y-90391723D01*
X143592441Y-90591204D01*
X143543881Y-90752040D01*
X143465008Y-90900378D01*
X143358822Y-91030575D01*
X143229372Y-91137665D01*
X143081586Y-91217572D01*
X142921094Y-91267253D01*
X142723695Y-91288000D01*
X125803262Y-91288000D01*
X125875360Y-91180098D01*
X125955265Y-90987191D01*
X125996000Y-90782401D01*
X125996000Y-90573599D01*
X125955265Y-90368809D01*
X125875360Y-90175902D01*
X125759356Y-90002289D01*
X125728000Y-89970933D01*
X125728000Y-89184000D01*
X134205928Y-89184000D01*
X134218188Y-89308482D01*
X134254498Y-89428180D01*
X134313463Y-89538494D01*
X134392815Y-89635185D01*
X134489506Y-89714537D01*
X134599820Y-89773502D01*
X134719518Y-89809812D01*
X134844000Y-89822072D01*
X135858250Y-89819000D01*
X136017000Y-89660250D01*
X136017000Y-88011000D01*
X136271000Y-88011000D01*
X136271000Y-89660250D01*
X136429750Y-89819000D01*
X137444000Y-89822072D01*
X137568482Y-89809812D01*
X137688180Y-89773502D01*
X137798494Y-89714537D01*
X137895185Y-89635185D01*
X137974537Y-89538494D01*
X138033502Y-89428180D01*
X138069812Y-89308482D01*
X138082072Y-89184000D01*
X138079000Y-88169750D01*
X137920250Y-88011000D01*
X136271000Y-88011000D01*
X136017000Y-88011000D01*
X134367750Y-88011000D01*
X134209000Y-88169750D01*
X134205928Y-89184000D01*
X125728000Y-89184000D01*
X125728000Y-86584000D01*
X134205928Y-86584000D01*
X134209000Y-87598250D01*
X134367750Y-87757000D01*
X136017000Y-87757000D01*
X136017000Y-86107750D01*
X136271000Y-86107750D01*
X136271000Y-87757000D01*
X137920250Y-87757000D01*
X138079000Y-87598250D01*
X138082072Y-86584000D01*
X138069812Y-86459518D01*
X138033502Y-86339820D01*
X137974537Y-86229506D01*
X137895185Y-86132815D01*
X137798494Y-86053463D01*
X137688180Y-85994498D01*
X137568482Y-85958188D01*
X137444000Y-85945928D01*
X136429750Y-85949000D01*
X136271000Y-86107750D01*
X136017000Y-86107750D01*
X135858250Y-85949000D01*
X134844000Y-85945928D01*
X134719518Y-85958188D01*
X134599820Y-85994498D01*
X134489506Y-86053463D01*
X134392815Y-86132815D01*
X134313463Y-86229506D01*
X134254498Y-86339820D01*
X134218188Y-86459518D01*
X134205928Y-86584000D01*
X125728000Y-86584000D01*
X125728000Y-85031711D01*
X125771937Y-84987774D01*
X125885205Y-84818256D01*
X125963226Y-84629898D01*
X126003000Y-84429939D01*
X126003000Y-84226061D01*
X125963226Y-84026102D01*
X125885205Y-83837744D01*
X125771937Y-83668226D01*
X125627774Y-83524063D01*
X125458256Y-83410795D01*
X125269898Y-83332774D01*
X125069939Y-83293000D01*
X124866061Y-83293000D01*
X124666102Y-83332774D01*
X124477744Y-83410795D01*
X124308226Y-83524063D01*
X124264289Y-83568000D01*
X112305322Y-83568000D01*
X112268000Y-83564324D01*
X112230677Y-83568000D01*
X112230667Y-83568000D01*
X112119014Y-83578997D01*
X111975753Y-83622454D01*
X111843723Y-83693026D01*
X111795187Y-83732859D01*
X111727999Y-83787999D01*
X111704201Y-83816997D01*
X111212199Y-84309000D01*
X111150061Y-84309000D01*
X110950102Y-84348774D01*
X110761744Y-84426795D01*
X110592226Y-84540063D01*
X110448063Y-84684226D01*
X110334795Y-84853744D01*
X110256774Y-85042102D01*
X110217000Y-85242061D01*
X110217000Y-85445939D01*
X110256774Y-85645898D01*
X110334795Y-85834256D01*
X110448063Y-86003774D01*
X110592226Y-86147937D01*
X110761744Y-86261205D01*
X110950102Y-86339226D01*
X111150061Y-86379000D01*
X111353939Y-86379000D01*
X111553898Y-86339226D01*
X111742256Y-86261205D01*
X111911774Y-86147937D01*
X112055937Y-86003774D01*
X112169205Y-85834256D01*
X112247226Y-85645898D01*
X112287000Y-85445939D01*
X112287000Y-85383801D01*
X112582802Y-85088000D01*
X124208000Y-85088000D01*
X124208001Y-89672558D01*
X124063000Y-89785743D01*
X124063000Y-90076587D01*
X123996640Y-90175902D01*
X123992470Y-90185969D01*
X123986812Y-90128518D01*
X123950502Y-90008820D01*
X123891537Y-89898506D01*
X123812185Y-89801815D01*
X123809000Y-89799201D01*
X123809000Y-89785743D01*
X123645938Y-89658460D01*
X123613917Y-89668168D01*
X123605180Y-89663498D01*
X123485482Y-89627188D01*
X123361000Y-89614928D01*
X122511000Y-89614928D01*
X122386518Y-89627188D01*
X122266820Y-89663498D01*
X122156506Y-89722463D01*
X122059815Y-89801815D01*
X121980463Y-89898506D01*
X121921498Y-90008820D01*
X121885188Y-90128518D01*
X121872928Y-90253000D01*
X121872928Y-91103000D01*
X121885188Y-91227482D01*
X121903546Y-91288000D01*
X121575469Y-91288000D01*
X121609546Y-91224247D01*
X121653003Y-91080986D01*
X121664000Y-90969333D01*
X121664000Y-90969324D01*
X121667676Y-90932001D01*
X121664000Y-90894678D01*
X121664000Y-88587711D01*
X121707937Y-88543774D01*
X121821205Y-88374256D01*
X121899226Y-88185898D01*
X121939000Y-87985939D01*
X121939000Y-87782061D01*
X121899226Y-87582102D01*
X121821205Y-87393744D01*
X121707937Y-87224226D01*
X121563774Y-87080063D01*
X121394256Y-86966795D01*
X121205898Y-86888774D01*
X121005939Y-86849000D01*
X120802061Y-86849000D01*
X120602102Y-86888774D01*
X120413744Y-86966795D01*
X120244226Y-87080063D01*
X120100063Y-87224226D01*
X119986795Y-87393744D01*
X119908774Y-87582102D01*
X119869000Y-87782061D01*
X119869000Y-87985939D01*
X119908774Y-88185898D01*
X119986795Y-88374256D01*
X120100063Y-88543774D01*
X120144000Y-88587711D01*
X120144000Y-89190852D01*
X120006445Y-88984985D01*
X119803015Y-88781555D01*
X119563806Y-88621721D01*
X119298012Y-88511626D01*
X119015847Y-88455500D01*
X118728153Y-88455500D01*
X118445988Y-88511626D01*
X118180194Y-88621721D01*
X117940985Y-88781555D01*
X117737555Y-88984985D01*
X117577721Y-89224194D01*
X117467626Y-89489988D01*
X117411500Y-89772153D01*
X117411500Y-90059847D01*
X117467626Y-90342012D01*
X117577721Y-90607806D01*
X117625959Y-90680000D01*
X115096461Y-90680000D01*
X115144699Y-90607806D01*
X115254794Y-90342012D01*
X115310920Y-90059847D01*
X115310920Y-89772153D01*
X115254794Y-89489988D01*
X115144699Y-89224194D01*
X114984865Y-88984985D01*
X114781435Y-88781555D01*
X114542226Y-88621721D01*
X114276432Y-88511626D01*
X113994267Y-88455500D01*
X113706573Y-88455500D01*
X113424408Y-88511626D01*
X113158614Y-88621721D01*
X112919405Y-88781555D01*
X112715975Y-88984985D01*
X112556141Y-89224194D01*
X112446046Y-89489988D01*
X112389920Y-89772153D01*
X112389920Y-90059847D01*
X112446046Y-90342012D01*
X112556141Y-90607806D01*
X112604379Y-90680000D01*
X110710823Y-90680000D01*
X110292394Y-90261572D01*
X110332520Y-90059847D01*
X110332520Y-89772153D01*
X110276394Y-89489988D01*
X110166299Y-89224194D01*
X110006465Y-88984985D01*
X109803035Y-88781555D01*
X109563826Y-88621721D01*
X109298032Y-88511626D01*
X109015867Y-88455500D01*
X108728173Y-88455500D01*
X108446008Y-88511626D01*
X108180214Y-88621721D01*
X107941005Y-88781555D01*
X107737575Y-88984985D01*
X107577741Y-89224194D01*
X107467646Y-89489988D01*
X107411520Y-89772153D01*
X107411520Y-90059847D01*
X107467646Y-90342012D01*
X107577741Y-90607806D01*
X107737575Y-90847015D01*
X107941005Y-91050445D01*
X108180214Y-91210279D01*
X108367850Y-91288000D01*
X90456277Y-91288000D01*
X90256796Y-91268441D01*
X90095960Y-91219881D01*
X89947622Y-91141008D01*
X89817425Y-91034822D01*
X89710335Y-90905372D01*
X89630428Y-90757586D01*
X89580747Y-90597094D01*
X89560000Y-90399695D01*
X89560000Y-89233224D01*
X95858381Y-89233224D01*
X95990317Y-89528312D01*
X96331045Y-89699159D01*
X96698557Y-89800250D01*
X97078729Y-89827701D01*
X97456951Y-89780457D01*
X97818690Y-89660333D01*
X98065683Y-89528312D01*
X98197619Y-89233224D01*
X97028000Y-88063605D01*
X95858381Y-89233224D01*
X89560000Y-89233224D01*
X89560000Y-87934729D01*
X95084299Y-87934729D01*
X95131543Y-88312951D01*
X95251667Y-88674690D01*
X95383688Y-88921683D01*
X95678776Y-89053619D01*
X96848395Y-87884000D01*
X97207605Y-87884000D01*
X98377224Y-89053619D01*
X98672312Y-88921683D01*
X98843159Y-88580955D01*
X98944250Y-88213443D01*
X98971701Y-87833271D01*
X98924457Y-87455049D01*
X98804333Y-87093310D01*
X98672312Y-86846317D01*
X98377224Y-86714381D01*
X97207605Y-87884000D01*
X96848395Y-87884000D01*
X95678776Y-86714381D01*
X95383688Y-86846317D01*
X95212841Y-87187045D01*
X95111750Y-87554557D01*
X95084299Y-87934729D01*
X89560000Y-87934729D01*
X89560000Y-86534776D01*
X95858381Y-86534776D01*
X97028000Y-87704395D01*
X98197619Y-86534776D01*
X98187463Y-86512061D01*
X117937499Y-86512061D01*
X117937499Y-86715939D01*
X117977273Y-86915898D01*
X118055294Y-87104256D01*
X118168562Y-87273774D01*
X118312725Y-87417937D01*
X118482243Y-87531205D01*
X118670601Y-87609226D01*
X118870560Y-87649000D01*
X119074438Y-87649000D01*
X119274397Y-87609226D01*
X119462755Y-87531205D01*
X119632273Y-87417937D01*
X119776436Y-87273774D01*
X119889704Y-87104256D01*
X119967725Y-86915898D01*
X120007499Y-86715939D01*
X120007499Y-86512061D01*
X119967725Y-86312102D01*
X119889704Y-86123744D01*
X119776436Y-85954226D01*
X119632273Y-85810063D01*
X119462755Y-85696795D01*
X119274397Y-85618774D01*
X119074438Y-85579000D01*
X118870560Y-85579000D01*
X118670601Y-85618774D01*
X118482243Y-85696795D01*
X118312725Y-85810063D01*
X118168562Y-85954226D01*
X118055294Y-86123744D01*
X117977273Y-86312102D01*
X117937499Y-86512061D01*
X98187463Y-86512061D01*
X98065683Y-86239688D01*
X97724955Y-86068841D01*
X97357443Y-85967750D01*
X96977271Y-85940299D01*
X96599049Y-85987543D01*
X96237310Y-86107667D01*
X95990317Y-86239688D01*
X95858381Y-86534776D01*
X89560000Y-86534776D01*
X89560000Y-80042277D01*
X89579559Y-79842800D01*
X89628120Y-79681959D01*
X89706992Y-79533622D01*
X89813176Y-79403426D01*
X89942626Y-79296336D01*
X90090414Y-79216428D01*
X90250902Y-79166748D01*
X90448306Y-79146000D01*
X101281159Y-79146000D01*
X98955052Y-81472108D01*
%TA.AperFunction,Conductor*%
D19*
G36*
X98955052Y-81472108D02*
G01*
X98953812Y-81459518D01*
X98917502Y-81339820D01*
X98858537Y-81229506D01*
X98779185Y-81132815D01*
X98682494Y-81053463D01*
X98572180Y-80994498D01*
X98452482Y-80958188D01*
X98328000Y-80945928D01*
X95728000Y-80945928D01*
X95603518Y-80958188D01*
X95483820Y-80994498D01*
X95373506Y-81053463D01*
X95276815Y-81132815D01*
X95197463Y-81229506D01*
X95138498Y-81339820D01*
X95102188Y-81459518D01*
X95089928Y-81584000D01*
X95089928Y-84184000D01*
X95102188Y-84308482D01*
X95138498Y-84428180D01*
X95197463Y-84538494D01*
X95276815Y-84635185D01*
X95373506Y-84714537D01*
X95483820Y-84773502D01*
X95603518Y-84809812D01*
X95728000Y-84822072D01*
X98328000Y-84822072D01*
X98452482Y-84809812D01*
X98572180Y-84773502D01*
X98682494Y-84714537D01*
X98779185Y-84635185D01*
X98858537Y-84538494D01*
X98917502Y-84428180D01*
X98953812Y-84308482D01*
X98966072Y-84184000D01*
X98966072Y-83903543D01*
X98980000Y-83904915D01*
X99029902Y-83900000D01*
X99179171Y-83885298D01*
X99370687Y-83827202D01*
X99547190Y-83732860D01*
X99701896Y-83605896D01*
X99733712Y-83567128D01*
X100607421Y-82693419D01*
X134209000Y-82693419D01*
X134209000Y-83074581D01*
X134283361Y-83448419D01*
X134429225Y-83800566D01*
X134640987Y-84117491D01*
X134910509Y-84387013D01*
X135227434Y-84598775D01*
X135579581Y-84744639D01*
X135953419Y-84819000D01*
X136334581Y-84819000D01*
X136708419Y-84744639D01*
X137060566Y-84598775D01*
X137377491Y-84387013D01*
X137647013Y-84117491D01*
X137858775Y-83800566D01*
X138004639Y-83448419D01*
X138079000Y-83074581D01*
X138079000Y-82693419D01*
X138004639Y-82319581D01*
X137858775Y-81967434D01*
X137647013Y-81650509D01*
X137377491Y-81380987D01*
X137060566Y-81169225D01*
X136708419Y-81023361D01*
X136334581Y-80949000D01*
X135953419Y-80949000D01*
X135579581Y-81023361D01*
X135227434Y-81169225D01*
X134910509Y-81380987D01*
X134640987Y-81650509D01*
X134429225Y-81967434D01*
X134283361Y-82319581D01*
X134209000Y-82693419D01*
X100607421Y-82693419D01*
X103001842Y-80298999D01*
X118797844Y-80298999D01*
X118863271Y-80364426D01*
X118853000Y-80416061D01*
X118853000Y-80619939D01*
X118892774Y-80819898D01*
X118970795Y-81008256D01*
X119084063Y-81177774D01*
X119228226Y-81321937D01*
X119397744Y-81435205D01*
X119586102Y-81513226D01*
X119786061Y-81553000D01*
X119989939Y-81553000D01*
X120189898Y-81513226D01*
X120378256Y-81435205D01*
X120547774Y-81321937D01*
X120691937Y-81177774D01*
X120805205Y-81008256D01*
X120883226Y-80819898D01*
X120923000Y-80619939D01*
X120923000Y-80416061D01*
X120904000Y-80320541D01*
X120904000Y-80002217D01*
X120908915Y-79952315D01*
X120889298Y-79753144D01*
X120831202Y-79561628D01*
X120815727Y-79532676D01*
X120736860Y-79385125D01*
X120609896Y-79230419D01*
X120571127Y-79198602D01*
X120518525Y-79146000D01*
X142715723Y-79146000D01*
X142915200Y-79165559D01*
X143076041Y-79214120D01*
X143224378Y-79292992D01*
X143354574Y-79399176D01*
X143461664Y-79528626D01*
X143541572Y-79676414D01*
X143591252Y-79836902D01*
X143612001Y-80034316D01*
X143612000Y-90391723D01*
X143592441Y-90591204D01*
X143543881Y-90752040D01*
X143465008Y-90900378D01*
X143358822Y-91030575D01*
X143229372Y-91137665D01*
X143081586Y-91217572D01*
X142921094Y-91267253D01*
X142723695Y-91288000D01*
X125803262Y-91288000D01*
X125875360Y-91180098D01*
X125955265Y-90987191D01*
X125996000Y-90782401D01*
X125996000Y-90573599D01*
X125955265Y-90368809D01*
X125875360Y-90175902D01*
X125759356Y-90002289D01*
X125728000Y-89970933D01*
X125728000Y-89184000D01*
X134205928Y-89184000D01*
X134218188Y-89308482D01*
X134254498Y-89428180D01*
X134313463Y-89538494D01*
X134392815Y-89635185D01*
X134489506Y-89714537D01*
X134599820Y-89773502D01*
X134719518Y-89809812D01*
X134844000Y-89822072D01*
X135858250Y-89819000D01*
X136017000Y-89660250D01*
X136017000Y-88011000D01*
X136271000Y-88011000D01*
X136271000Y-89660250D01*
X136429750Y-89819000D01*
X137444000Y-89822072D01*
X137568482Y-89809812D01*
X137688180Y-89773502D01*
X137798494Y-89714537D01*
X137895185Y-89635185D01*
X137974537Y-89538494D01*
X138033502Y-89428180D01*
X138069812Y-89308482D01*
X138082072Y-89184000D01*
X138079000Y-88169750D01*
X137920250Y-88011000D01*
X136271000Y-88011000D01*
X136017000Y-88011000D01*
X134367750Y-88011000D01*
X134209000Y-88169750D01*
X134205928Y-89184000D01*
X125728000Y-89184000D01*
X125728000Y-86584000D01*
X134205928Y-86584000D01*
X134209000Y-87598250D01*
X134367750Y-87757000D01*
X136017000Y-87757000D01*
X136017000Y-86107750D01*
X136271000Y-86107750D01*
X136271000Y-87757000D01*
X137920250Y-87757000D01*
X138079000Y-87598250D01*
X138082072Y-86584000D01*
X138069812Y-86459518D01*
X138033502Y-86339820D01*
X137974537Y-86229506D01*
X137895185Y-86132815D01*
X137798494Y-86053463D01*
X137688180Y-85994498D01*
X137568482Y-85958188D01*
X137444000Y-85945928D01*
X136429750Y-85949000D01*
X136271000Y-86107750D01*
X136017000Y-86107750D01*
X135858250Y-85949000D01*
X134844000Y-85945928D01*
X134719518Y-85958188D01*
X134599820Y-85994498D01*
X134489506Y-86053463D01*
X134392815Y-86132815D01*
X134313463Y-86229506D01*
X134254498Y-86339820D01*
X134218188Y-86459518D01*
X134205928Y-86584000D01*
X125728000Y-86584000D01*
X125728000Y-85031711D01*
X125771937Y-84987774D01*
X125885205Y-84818256D01*
X125963226Y-84629898D01*
X126003000Y-84429939D01*
X126003000Y-84226061D01*
X125963226Y-84026102D01*
X125885205Y-83837744D01*
X125771937Y-83668226D01*
X125627774Y-83524063D01*
X125458256Y-83410795D01*
X125269898Y-83332774D01*
X125069939Y-83293000D01*
X124866061Y-83293000D01*
X124666102Y-83332774D01*
X124477744Y-83410795D01*
X124308226Y-83524063D01*
X124264289Y-83568000D01*
X112305322Y-83568000D01*
X112268000Y-83564324D01*
X112230677Y-83568000D01*
X112230667Y-83568000D01*
X112119014Y-83578997D01*
X111975753Y-83622454D01*
X111843723Y-83693026D01*
X111795187Y-83732859D01*
X111727999Y-83787999D01*
X111704201Y-83816997D01*
X111212199Y-84309000D01*
X111150061Y-84309000D01*
X110950102Y-84348774D01*
X110761744Y-84426795D01*
X110592226Y-84540063D01*
X110448063Y-84684226D01*
X110334795Y-84853744D01*
X110256774Y-85042102D01*
X110217000Y-85242061D01*
X110217000Y-85445939D01*
X110256774Y-85645898D01*
X110334795Y-85834256D01*
X110448063Y-86003774D01*
X110592226Y-86147937D01*
X110761744Y-86261205D01*
X110950102Y-86339226D01*
X111150061Y-86379000D01*
X111353939Y-86379000D01*
X111553898Y-86339226D01*
X111742256Y-86261205D01*
X111911774Y-86147937D01*
X112055937Y-86003774D01*
X112169205Y-85834256D01*
X112247226Y-85645898D01*
X112287000Y-85445939D01*
X112287000Y-85383801D01*
X112582802Y-85088000D01*
X124208000Y-85088000D01*
X124208001Y-89672558D01*
X124063000Y-89785743D01*
X124063000Y-90076587D01*
X123996640Y-90175902D01*
X123992470Y-90185969D01*
X123986812Y-90128518D01*
X123950502Y-90008820D01*
X123891537Y-89898506D01*
X123812185Y-89801815D01*
X123809000Y-89799201D01*
X123809000Y-89785743D01*
X123645938Y-89658460D01*
X123613917Y-89668168D01*
X123605180Y-89663498D01*
X123485482Y-89627188D01*
X123361000Y-89614928D01*
X122511000Y-89614928D01*
X122386518Y-89627188D01*
X122266820Y-89663498D01*
X122156506Y-89722463D01*
X122059815Y-89801815D01*
X121980463Y-89898506D01*
X121921498Y-90008820D01*
X121885188Y-90128518D01*
X121872928Y-90253000D01*
X121872928Y-91103000D01*
X121885188Y-91227482D01*
X121903546Y-91288000D01*
X121575469Y-91288000D01*
X121609546Y-91224247D01*
X121653003Y-91080986D01*
X121664000Y-90969333D01*
X121664000Y-90969324D01*
X121667676Y-90932001D01*
X121664000Y-90894678D01*
X121664000Y-88587711D01*
X121707937Y-88543774D01*
X121821205Y-88374256D01*
X121899226Y-88185898D01*
X121939000Y-87985939D01*
X121939000Y-87782061D01*
X121899226Y-87582102D01*
X121821205Y-87393744D01*
X121707937Y-87224226D01*
X121563774Y-87080063D01*
X121394256Y-86966795D01*
X121205898Y-86888774D01*
X121005939Y-86849000D01*
X120802061Y-86849000D01*
X120602102Y-86888774D01*
X120413744Y-86966795D01*
X120244226Y-87080063D01*
X120100063Y-87224226D01*
X119986795Y-87393744D01*
X119908774Y-87582102D01*
X119869000Y-87782061D01*
X119869000Y-87985939D01*
X119908774Y-88185898D01*
X119986795Y-88374256D01*
X120100063Y-88543774D01*
X120144000Y-88587711D01*
X120144000Y-89190852D01*
X120006445Y-88984985D01*
X119803015Y-88781555D01*
X119563806Y-88621721D01*
X119298012Y-88511626D01*
X119015847Y-88455500D01*
X118728153Y-88455500D01*
X118445988Y-88511626D01*
X118180194Y-88621721D01*
X117940985Y-88781555D01*
X117737555Y-88984985D01*
X117577721Y-89224194D01*
X117467626Y-89489988D01*
X117411500Y-89772153D01*
X117411500Y-90059847D01*
X117467626Y-90342012D01*
X117577721Y-90607806D01*
X117625959Y-90680000D01*
X115096461Y-90680000D01*
X115144699Y-90607806D01*
X115254794Y-90342012D01*
X115310920Y-90059847D01*
X115310920Y-89772153D01*
X115254794Y-89489988D01*
X115144699Y-89224194D01*
X114984865Y-88984985D01*
X114781435Y-88781555D01*
X114542226Y-88621721D01*
X114276432Y-88511626D01*
X113994267Y-88455500D01*
X113706573Y-88455500D01*
X113424408Y-88511626D01*
X113158614Y-88621721D01*
X112919405Y-88781555D01*
X112715975Y-88984985D01*
X112556141Y-89224194D01*
X112446046Y-89489988D01*
X112389920Y-89772153D01*
X112389920Y-90059847D01*
X112446046Y-90342012D01*
X112556141Y-90607806D01*
X112604379Y-90680000D01*
X110710823Y-90680000D01*
X110292394Y-90261572D01*
X110332520Y-90059847D01*
X110332520Y-89772153D01*
X110276394Y-89489988D01*
X110166299Y-89224194D01*
X110006465Y-88984985D01*
X109803035Y-88781555D01*
X109563826Y-88621721D01*
X109298032Y-88511626D01*
X109015867Y-88455500D01*
X108728173Y-88455500D01*
X108446008Y-88511626D01*
X108180214Y-88621721D01*
X107941005Y-88781555D01*
X107737575Y-88984985D01*
X107577741Y-89224194D01*
X107467646Y-89489988D01*
X107411520Y-89772153D01*
X107411520Y-90059847D01*
X107467646Y-90342012D01*
X107577741Y-90607806D01*
X107737575Y-90847015D01*
X107941005Y-91050445D01*
X108180214Y-91210279D01*
X108367850Y-91288000D01*
X90456277Y-91288000D01*
X90256796Y-91268441D01*
X90095960Y-91219881D01*
X89947622Y-91141008D01*
X89817425Y-91034822D01*
X89710335Y-90905372D01*
X89630428Y-90757586D01*
X89580747Y-90597094D01*
X89560000Y-90399695D01*
X89560000Y-89233224D01*
X95858381Y-89233224D01*
X95990317Y-89528312D01*
X96331045Y-89699159D01*
X96698557Y-89800250D01*
X97078729Y-89827701D01*
X97456951Y-89780457D01*
X97818690Y-89660333D01*
X98065683Y-89528312D01*
X98197619Y-89233224D01*
X97028000Y-88063605D01*
X95858381Y-89233224D01*
X89560000Y-89233224D01*
X89560000Y-87934729D01*
X95084299Y-87934729D01*
X95131543Y-88312951D01*
X95251667Y-88674690D01*
X95383688Y-88921683D01*
X95678776Y-89053619D01*
X96848395Y-87884000D01*
X97207605Y-87884000D01*
X98377224Y-89053619D01*
X98672312Y-88921683D01*
X98843159Y-88580955D01*
X98944250Y-88213443D01*
X98971701Y-87833271D01*
X98924457Y-87455049D01*
X98804333Y-87093310D01*
X98672312Y-86846317D01*
X98377224Y-86714381D01*
X97207605Y-87884000D01*
X96848395Y-87884000D01*
X95678776Y-86714381D01*
X95383688Y-86846317D01*
X95212841Y-87187045D01*
X95111750Y-87554557D01*
X95084299Y-87934729D01*
X89560000Y-87934729D01*
X89560000Y-86534776D01*
X95858381Y-86534776D01*
X97028000Y-87704395D01*
X98197619Y-86534776D01*
X98187463Y-86512061D01*
X117937499Y-86512061D01*
X117937499Y-86715939D01*
X117977273Y-86915898D01*
X118055294Y-87104256D01*
X118168562Y-87273774D01*
X118312725Y-87417937D01*
X118482243Y-87531205D01*
X118670601Y-87609226D01*
X118870560Y-87649000D01*
X119074438Y-87649000D01*
X119274397Y-87609226D01*
X119462755Y-87531205D01*
X119632273Y-87417937D01*
X119776436Y-87273774D01*
X119889704Y-87104256D01*
X119967725Y-86915898D01*
X120007499Y-86715939D01*
X120007499Y-86512061D01*
X119967725Y-86312102D01*
X119889704Y-86123744D01*
X119776436Y-85954226D01*
X119632273Y-85810063D01*
X119462755Y-85696795D01*
X119274397Y-85618774D01*
X119074438Y-85579000D01*
X118870560Y-85579000D01*
X118670601Y-85618774D01*
X118482243Y-85696795D01*
X118312725Y-85810063D01*
X118168562Y-85954226D01*
X118055294Y-86123744D01*
X117977273Y-86312102D01*
X117937499Y-86512061D01*
X98187463Y-86512061D01*
X98065683Y-86239688D01*
X97724955Y-86068841D01*
X97357443Y-85967750D01*
X96977271Y-85940299D01*
X96599049Y-85987543D01*
X96237310Y-86107667D01*
X95990317Y-86239688D01*
X95858381Y-86534776D01*
X89560000Y-86534776D01*
X89560000Y-80042277D01*
X89579559Y-79842800D01*
X89628120Y-79681959D01*
X89706992Y-79533622D01*
X89813176Y-79403426D01*
X89942626Y-79296336D01*
X90090414Y-79216428D01*
X90250902Y-79166748D01*
X90448306Y-79146000D01*
X101281159Y-79146000D01*
X98955052Y-81472108D01*
G37*
%TD.AperFunction*%
%TD*%
M02*
