%TF.GenerationSoftware,KiCad,Pcbnew,(5.1.10)-1*%
%TF.CreationDate,2021-06-27T21:28:02-04:00*%
%TF.ProjectId,PWM_Generator,50574d5f-4765-46e6-9572-61746f722e6b,rev?*%
%TF.SameCoordinates,Original*%
%TF.FileFunction,Paste,Top*%
%TF.FilePolarity,Positive*%
%FSLAX46Y46*%
G04 Gerber Fmt 4.6, Leading zero omitted, Abs format (unit mm)*
G04 Created by KiCad (PCBNEW (5.1.10)-1) date 2021-06-27 21:28:02*
%MOMM*%
%LPD*%
G01*
G04 APERTURE LIST*
%ADD10R,0.800000X0.900000*%
G04 APERTURE END LIST*
%TO.C,U1*%
G36*
G01*
X112752000Y-82065000D02*
X112752000Y-81765000D01*
G75*
G02*
X112902000Y-81615000I150000J0D01*
G01*
X114552000Y-81615000D01*
G75*
G02*
X114702000Y-81765000I0J-150000D01*
G01*
X114702000Y-82065000D01*
G75*
G02*
X114552000Y-82215000I-150000J0D01*
G01*
X112902000Y-82215000D01*
G75*
G02*
X112752000Y-82065000I0J150000D01*
G01*
G37*
G36*
G01*
X112752000Y-83335000D02*
X112752000Y-83035000D01*
G75*
G02*
X112902000Y-82885000I150000J0D01*
G01*
X114552000Y-82885000D01*
G75*
G02*
X114702000Y-83035000I0J-150000D01*
G01*
X114702000Y-83335000D01*
G75*
G02*
X114552000Y-83485000I-150000J0D01*
G01*
X112902000Y-83485000D01*
G75*
G02*
X112752000Y-83335000I0J150000D01*
G01*
G37*
G36*
G01*
X112752000Y-84605000D02*
X112752000Y-84305000D01*
G75*
G02*
X112902000Y-84155000I150000J0D01*
G01*
X114552000Y-84155000D01*
G75*
G02*
X114702000Y-84305000I0J-150000D01*
G01*
X114702000Y-84605000D01*
G75*
G02*
X114552000Y-84755000I-150000J0D01*
G01*
X112902000Y-84755000D01*
G75*
G02*
X112752000Y-84605000I0J150000D01*
G01*
G37*
G36*
G01*
X112752000Y-85875000D02*
X112752000Y-85575000D01*
G75*
G02*
X112902000Y-85425000I150000J0D01*
G01*
X114552000Y-85425000D01*
G75*
G02*
X114702000Y-85575000I0J-150000D01*
G01*
X114702000Y-85875000D01*
G75*
G02*
X114552000Y-86025000I-150000J0D01*
G01*
X112902000Y-86025000D01*
G75*
G02*
X112752000Y-85875000I0J150000D01*
G01*
G37*
G36*
G01*
X107802000Y-85875000D02*
X107802000Y-85575000D01*
G75*
G02*
X107952000Y-85425000I150000J0D01*
G01*
X109602000Y-85425000D01*
G75*
G02*
X109752000Y-85575000I0J-150000D01*
G01*
X109752000Y-85875000D01*
G75*
G02*
X109602000Y-86025000I-150000J0D01*
G01*
X107952000Y-86025000D01*
G75*
G02*
X107802000Y-85875000I0J150000D01*
G01*
G37*
G36*
G01*
X107802000Y-84605000D02*
X107802000Y-84305000D01*
G75*
G02*
X107952000Y-84155000I150000J0D01*
G01*
X109602000Y-84155000D01*
G75*
G02*
X109752000Y-84305000I0J-150000D01*
G01*
X109752000Y-84605000D01*
G75*
G02*
X109602000Y-84755000I-150000J0D01*
G01*
X107952000Y-84755000D01*
G75*
G02*
X107802000Y-84605000I0J150000D01*
G01*
G37*
G36*
G01*
X107802000Y-83335000D02*
X107802000Y-83035000D01*
G75*
G02*
X107952000Y-82885000I150000J0D01*
G01*
X109602000Y-82885000D01*
G75*
G02*
X109752000Y-83035000I0J-150000D01*
G01*
X109752000Y-83335000D01*
G75*
G02*
X109602000Y-83485000I-150000J0D01*
G01*
X107952000Y-83485000D01*
G75*
G02*
X107802000Y-83335000I0J150000D01*
G01*
G37*
G36*
G01*
X107802000Y-82065000D02*
X107802000Y-81765000D01*
G75*
G02*
X107952000Y-81615000I150000J0D01*
G01*
X109602000Y-81615000D01*
G75*
G02*
X109752000Y-81765000I0J-150000D01*
G01*
X109752000Y-82065000D01*
G75*
G02*
X109602000Y-82215000I-150000J0D01*
G01*
X107952000Y-82215000D01*
G75*
G02*
X107802000Y-82065000I0J150000D01*
G01*
G37*
%TD*%
%TO.C,R5*%
G36*
G01*
X126254500Y-86277000D02*
X126729500Y-86277000D01*
G75*
G02*
X126967000Y-86514500I0J-237500D01*
G01*
X126967000Y-87014500D01*
G75*
G02*
X126729500Y-87252000I-237500J0D01*
G01*
X126254500Y-87252000D01*
G75*
G02*
X126017000Y-87014500I0J237500D01*
G01*
X126017000Y-86514500D01*
G75*
G02*
X126254500Y-86277000I237500J0D01*
G01*
G37*
G36*
G01*
X126254500Y-84452000D02*
X126729500Y-84452000D01*
G75*
G02*
X126967000Y-84689500I0J-237500D01*
G01*
X126967000Y-85189500D01*
G75*
G02*
X126729500Y-85427000I-237500J0D01*
G01*
X126254500Y-85427000D01*
G75*
G02*
X126017000Y-85189500I0J237500D01*
G01*
X126017000Y-84689500D01*
G75*
G02*
X126254500Y-84452000I237500J0D01*
G01*
G37*
%TD*%
%TO.C,R4*%
G36*
G01*
X124697500Y-85935000D02*
X124222500Y-85935000D01*
G75*
G02*
X123985000Y-85697500I0J237500D01*
G01*
X123985000Y-85197500D01*
G75*
G02*
X124222500Y-84960000I237500J0D01*
G01*
X124697500Y-84960000D01*
G75*
G02*
X124935000Y-85197500I0J-237500D01*
G01*
X124935000Y-85697500D01*
G75*
G02*
X124697500Y-85935000I-237500J0D01*
G01*
G37*
G36*
G01*
X124697500Y-87760000D02*
X124222500Y-87760000D01*
G75*
G02*
X123985000Y-87522500I0J237500D01*
G01*
X123985000Y-87022500D01*
G75*
G02*
X124222500Y-86785000I237500J0D01*
G01*
X124697500Y-86785000D01*
G75*
G02*
X124935000Y-87022500I0J-237500D01*
G01*
X124935000Y-87522500D01*
G75*
G02*
X124697500Y-87760000I-237500J0D01*
G01*
G37*
%TD*%
%TO.C,R2*%
G36*
G01*
X116094500Y-83229000D02*
X116569500Y-83229000D01*
G75*
G02*
X116807000Y-83466500I0J-237500D01*
G01*
X116807000Y-83966500D01*
G75*
G02*
X116569500Y-84204000I-237500J0D01*
G01*
X116094500Y-84204000D01*
G75*
G02*
X115857000Y-83966500I0J237500D01*
G01*
X115857000Y-83466500D01*
G75*
G02*
X116094500Y-83229000I237500J0D01*
G01*
G37*
G36*
G01*
X116094500Y-81404000D02*
X116569500Y-81404000D01*
G75*
G02*
X116807000Y-81641500I0J-237500D01*
G01*
X116807000Y-82141500D01*
G75*
G02*
X116569500Y-82379000I-237500J0D01*
G01*
X116094500Y-82379000D01*
G75*
G02*
X115857000Y-82141500I0J237500D01*
G01*
X115857000Y-81641500D01*
G75*
G02*
X116094500Y-81404000I237500J0D01*
G01*
G37*
%TD*%
%TO.C,R1*%
G36*
G01*
X105934500Y-86785000D02*
X106409500Y-86785000D01*
G75*
G02*
X106647000Y-87022500I0J-237500D01*
G01*
X106647000Y-87522500D01*
G75*
G02*
X106409500Y-87760000I-237500J0D01*
G01*
X105934500Y-87760000D01*
G75*
G02*
X105697000Y-87522500I0J237500D01*
G01*
X105697000Y-87022500D01*
G75*
G02*
X105934500Y-86785000I237500J0D01*
G01*
G37*
G36*
G01*
X105934500Y-84960000D02*
X106409500Y-84960000D01*
G75*
G02*
X106647000Y-85197500I0J-237500D01*
G01*
X106647000Y-85697500D01*
G75*
G02*
X106409500Y-85935000I-237500J0D01*
G01*
X105934500Y-85935000D01*
G75*
G02*
X105697000Y-85697500I0J237500D01*
G01*
X105697000Y-85197500D01*
G75*
G02*
X105934500Y-84960000I237500J0D01*
G01*
G37*
%TD*%
D10*
%TO.C,Q1*%
X127508000Y-81296000D03*
X128458000Y-83296000D03*
X126558000Y-83296000D03*
%TD*%
%TO.C,D4*%
G36*
G01*
X128286500Y-86202000D02*
X128761500Y-86202000D01*
G75*
G02*
X128999000Y-86439500I0J-237500D01*
G01*
X128999000Y-87014500D01*
G75*
G02*
X128761500Y-87252000I-237500J0D01*
G01*
X128286500Y-87252000D01*
G75*
G02*
X128049000Y-87014500I0J237500D01*
G01*
X128049000Y-86439500D01*
G75*
G02*
X128286500Y-86202000I237500J0D01*
G01*
G37*
G36*
G01*
X128286500Y-84452000D02*
X128761500Y-84452000D01*
G75*
G02*
X128999000Y-84689500I0J-237500D01*
G01*
X128999000Y-85264500D01*
G75*
G02*
X128761500Y-85502000I-237500J0D01*
G01*
X128286500Y-85502000D01*
G75*
G02*
X128049000Y-85264500I0J237500D01*
G01*
X128049000Y-84689500D01*
G75*
G02*
X128286500Y-84452000I237500J0D01*
G01*
G37*
%TD*%
%TO.C,D3*%
G36*
G01*
X122190500Y-86755000D02*
X122665500Y-86755000D01*
G75*
G02*
X122903000Y-86992500I0J-237500D01*
G01*
X122903000Y-87567500D01*
G75*
G02*
X122665500Y-87805000I-237500J0D01*
G01*
X122190500Y-87805000D01*
G75*
G02*
X121953000Y-87567500I0J237500D01*
G01*
X121953000Y-86992500D01*
G75*
G02*
X122190500Y-86755000I237500J0D01*
G01*
G37*
G36*
G01*
X122190500Y-85005000D02*
X122665500Y-85005000D01*
G75*
G02*
X122903000Y-85242500I0J-237500D01*
G01*
X122903000Y-85817500D01*
G75*
G02*
X122665500Y-86055000I-237500J0D01*
G01*
X122190500Y-86055000D01*
G75*
G02*
X121953000Y-85817500I0J237500D01*
G01*
X121953000Y-85242500D01*
G75*
G02*
X122190500Y-85005000I237500J0D01*
G01*
G37*
%TD*%
%TO.C,D2*%
G36*
G01*
X119730000Y-84057500D02*
X119730000Y-83582500D01*
G75*
G02*
X119967500Y-83345000I237500J0D01*
G01*
X120542500Y-83345000D01*
G75*
G02*
X120780000Y-83582500I0J-237500D01*
G01*
X120780000Y-84057500D01*
G75*
G02*
X120542500Y-84295000I-237500J0D01*
G01*
X119967500Y-84295000D01*
G75*
G02*
X119730000Y-84057500I0J237500D01*
G01*
G37*
G36*
G01*
X117980000Y-84057500D02*
X117980000Y-83582500D01*
G75*
G02*
X118217500Y-83345000I237500J0D01*
G01*
X118792500Y-83345000D01*
G75*
G02*
X119030000Y-83582500I0J-237500D01*
G01*
X119030000Y-84057500D01*
G75*
G02*
X118792500Y-84295000I-237500J0D01*
G01*
X118217500Y-84295000D01*
G75*
G02*
X117980000Y-84057500I0J237500D01*
G01*
G37*
%TD*%
%TO.C,D1*%
G36*
G01*
X103902500Y-86710000D02*
X104377500Y-86710000D01*
G75*
G02*
X104615000Y-86947500I0J-237500D01*
G01*
X104615000Y-87522500D01*
G75*
G02*
X104377500Y-87760000I-237500J0D01*
G01*
X103902500Y-87760000D01*
G75*
G02*
X103665000Y-87522500I0J237500D01*
G01*
X103665000Y-86947500D01*
G75*
G02*
X103902500Y-86710000I237500J0D01*
G01*
G37*
G36*
G01*
X103902500Y-84960000D02*
X104377500Y-84960000D01*
G75*
G02*
X104615000Y-85197500I0J-237500D01*
G01*
X104615000Y-85772500D01*
G75*
G02*
X104377500Y-86010000I-237500J0D01*
G01*
X103902500Y-86010000D01*
G75*
G02*
X103665000Y-85772500I0J237500D01*
G01*
X103665000Y-85197500D01*
G75*
G02*
X103902500Y-84960000I237500J0D01*
G01*
G37*
%TD*%
%TO.C,C4*%
G36*
G01*
X104377500Y-82479000D02*
X103902500Y-82479000D01*
G75*
G02*
X103665000Y-82241500I0J237500D01*
G01*
X103665000Y-81641500D01*
G75*
G02*
X103902500Y-81404000I237500J0D01*
G01*
X104377500Y-81404000D01*
G75*
G02*
X104615000Y-81641500I0J-237500D01*
G01*
X104615000Y-82241500D01*
G75*
G02*
X104377500Y-82479000I-237500J0D01*
G01*
G37*
G36*
G01*
X104377500Y-84204000D02*
X103902500Y-84204000D01*
G75*
G02*
X103665000Y-83966500I0J237500D01*
G01*
X103665000Y-83366500D01*
G75*
G02*
X103902500Y-83129000I237500J0D01*
G01*
X104377500Y-83129000D01*
G75*
G02*
X104615000Y-83366500I0J-237500D01*
G01*
X104615000Y-83966500D01*
G75*
G02*
X104377500Y-84204000I-237500J0D01*
G01*
G37*
%TD*%
%TO.C,C3*%
G36*
G01*
X106409500Y-82479000D02*
X105934500Y-82479000D01*
G75*
G02*
X105697000Y-82241500I0J237500D01*
G01*
X105697000Y-81641500D01*
G75*
G02*
X105934500Y-81404000I237500J0D01*
G01*
X106409500Y-81404000D01*
G75*
G02*
X106647000Y-81641500I0J-237500D01*
G01*
X106647000Y-82241500D01*
G75*
G02*
X106409500Y-82479000I-237500J0D01*
G01*
G37*
G36*
G01*
X106409500Y-84204000D02*
X105934500Y-84204000D01*
G75*
G02*
X105697000Y-83966500I0J237500D01*
G01*
X105697000Y-83366500D01*
G75*
G02*
X105934500Y-83129000I237500J0D01*
G01*
X106409500Y-83129000D01*
G75*
G02*
X106647000Y-83366500I0J-237500D01*
G01*
X106647000Y-83966500D01*
G75*
G02*
X106409500Y-84204000I-237500J0D01*
G01*
G37*
%TD*%
%TO.C,C2*%
G36*
G01*
X119705000Y-82025500D02*
X119705000Y-81550500D01*
G75*
G02*
X119942500Y-81313000I237500J0D01*
G01*
X120542500Y-81313000D01*
G75*
G02*
X120780000Y-81550500I0J-237500D01*
G01*
X120780000Y-82025500D01*
G75*
G02*
X120542500Y-82263000I-237500J0D01*
G01*
X119942500Y-82263000D01*
G75*
G02*
X119705000Y-82025500I0J237500D01*
G01*
G37*
G36*
G01*
X117980000Y-82025500D02*
X117980000Y-81550500D01*
G75*
G02*
X118217500Y-81313000I237500J0D01*
G01*
X118817500Y-81313000D01*
G75*
G02*
X119055000Y-81550500I0J-237500D01*
G01*
X119055000Y-82025500D01*
G75*
G02*
X118817500Y-82263000I-237500J0D01*
G01*
X118217500Y-82263000D01*
G75*
G02*
X117980000Y-82025500I0J237500D01*
G01*
G37*
%TD*%
%TO.C,C1*%
G36*
G01*
X117673000Y-86089500D02*
X117673000Y-85614500D01*
G75*
G02*
X117910500Y-85377000I237500J0D01*
G01*
X118510500Y-85377000D01*
G75*
G02*
X118748000Y-85614500I0J-237500D01*
G01*
X118748000Y-86089500D01*
G75*
G02*
X118510500Y-86327000I-237500J0D01*
G01*
X117910500Y-86327000D01*
G75*
G02*
X117673000Y-86089500I0J237500D01*
G01*
G37*
G36*
G01*
X115948000Y-86089500D02*
X115948000Y-85614500D01*
G75*
G02*
X116185500Y-85377000I237500J0D01*
G01*
X116785500Y-85377000D01*
G75*
G02*
X117023000Y-85614500I0J-237500D01*
G01*
X117023000Y-86089500D01*
G75*
G02*
X116785500Y-86327000I-237500J0D01*
G01*
X116185500Y-86327000D01*
G75*
G02*
X115948000Y-86089500I0J237500D01*
G01*
G37*
%TD*%
M02*
