%TF.GenerationSoftware,KiCad,Pcbnew,(5.1.10)-1*%
%TF.CreationDate,2021-06-27T21:28:02-04:00*%
%TF.ProjectId,PWM_Generator,50574d5f-4765-46e6-9572-61746f722e6b,rev?*%
%TF.SameCoordinates,Original*%
%TF.FileFunction,Copper,L1,Top*%
%TF.FilePolarity,Positive*%
%FSLAX46Y46*%
G04 Gerber Fmt 4.6, Leading zero omitted, Abs format (unit mm)*
G04 Created by KiCad (PCBNEW (5.1.10)-1) date 2021-06-27 21:28:02*
%MOMM*%
%LPD*%
G01*
G04 APERTURE LIST*
%TA.AperFunction,ComponentPad*%
%ADD10O,0.850000X0.850000*%
%TD*%
%TA.AperFunction,ComponentPad*%
%ADD11R,0.850000X0.850000*%
%TD*%
%TA.AperFunction,ComponentPad*%
%ADD12C,1.651000*%
%TD*%
%TA.AperFunction,SMDPad,CuDef*%
%ADD13C,1.000000*%
%TD*%
%TA.AperFunction,SMDPad,CuDef*%
%ADD14R,0.800000X0.900000*%
%TD*%
%TA.AperFunction,ComponentPad*%
%ADD15C,2.600000*%
%TD*%
%TA.AperFunction,ComponentPad*%
%ADD16R,2.600000X2.600000*%
%TD*%
%TA.AperFunction,ViaPad*%
%ADD17C,0.800000*%
%TD*%
%TA.AperFunction,Conductor*%
%ADD18C,0.250000*%
%TD*%
%TA.AperFunction,Conductor*%
%ADD19C,0.254000*%
%TD*%
%TA.AperFunction,Conductor*%
%ADD20C,0.100000*%
%TD*%
G04 APERTURE END LIST*
D10*
%TO.P,J3,3*%
%TO.N,/OUT*%
X124936000Y-90678000D03*
%TO.P,J3,2*%
%TO.N,VCC*%
X123936000Y-90678000D03*
D11*
%TO.P,J3,1*%
%TO.N,GND*%
X122936000Y-90678000D03*
%TD*%
D12*
%TO.P,R3,3*%
%TO.N,Net-(D2-Pad1)*%
X118872000Y-89916000D03*
%TO.P,R3,2*%
%TO.N,/TRIG*%
X113850420Y-89916000D03*
%TO.P,R3,1*%
%TO.N,Net-(D3-Pad2)*%
X108872020Y-89916000D03*
%TD*%
D13*
%TO.P,TP3,1*%
%TO.N,/OUT*%
X124460000Y-80772000D03*
%TD*%
%TO.P,TP2,1*%
%TO.N,Net-(D2-Pad2)*%
X110998000Y-79756000D03*
%TD*%
%TO.P,TP1,1*%
%TO.N,/TRIG*%
X117856000Y-87884000D03*
%TD*%
%TO.P,U1,8*%
%TO.N,VCC*%
%TA.AperFunction,SMDPad,CuDef*%
G36*
G01*
X112752000Y-82065000D02*
X112752000Y-81765000D01*
G75*
G02*
X112902000Y-81615000I150000J0D01*
G01*
X114552000Y-81615000D01*
G75*
G02*
X114702000Y-81765000I0J-150000D01*
G01*
X114702000Y-82065000D01*
G75*
G02*
X114552000Y-82215000I-150000J0D01*
G01*
X112902000Y-82215000D01*
G75*
G02*
X112752000Y-82065000I0J150000D01*
G01*
G37*
%TD.AperFunction*%
%TO.P,U1,7*%
%TO.N,Net-(D2-Pad2)*%
%TA.AperFunction,SMDPad,CuDef*%
G36*
G01*
X112752000Y-83335000D02*
X112752000Y-83035000D01*
G75*
G02*
X112902000Y-82885000I150000J0D01*
G01*
X114552000Y-82885000D01*
G75*
G02*
X114702000Y-83035000I0J-150000D01*
G01*
X114702000Y-83335000D01*
G75*
G02*
X114552000Y-83485000I-150000J0D01*
G01*
X112902000Y-83485000D01*
G75*
G02*
X112752000Y-83335000I0J150000D01*
G01*
G37*
%TD.AperFunction*%
%TO.P,U1,6*%
%TO.N,/TRIG*%
%TA.AperFunction,SMDPad,CuDef*%
G36*
G01*
X112752000Y-84605000D02*
X112752000Y-84305000D01*
G75*
G02*
X112902000Y-84155000I150000J0D01*
G01*
X114552000Y-84155000D01*
G75*
G02*
X114702000Y-84305000I0J-150000D01*
G01*
X114702000Y-84605000D01*
G75*
G02*
X114552000Y-84755000I-150000J0D01*
G01*
X112902000Y-84755000D01*
G75*
G02*
X112752000Y-84605000I0J150000D01*
G01*
G37*
%TD.AperFunction*%
%TO.P,U1,5*%
%TO.N,Net-(C1-Pad1)*%
%TA.AperFunction,SMDPad,CuDef*%
G36*
G01*
X112752000Y-85875000D02*
X112752000Y-85575000D01*
G75*
G02*
X112902000Y-85425000I150000J0D01*
G01*
X114552000Y-85425000D01*
G75*
G02*
X114702000Y-85575000I0J-150000D01*
G01*
X114702000Y-85875000D01*
G75*
G02*
X114552000Y-86025000I-150000J0D01*
G01*
X112902000Y-86025000D01*
G75*
G02*
X112752000Y-85875000I0J150000D01*
G01*
G37*
%TD.AperFunction*%
%TO.P,U1,4*%
%TO.N,VCC*%
%TA.AperFunction,SMDPad,CuDef*%
G36*
G01*
X107802000Y-85875000D02*
X107802000Y-85575000D01*
G75*
G02*
X107952000Y-85425000I150000J0D01*
G01*
X109602000Y-85425000D01*
G75*
G02*
X109752000Y-85575000I0J-150000D01*
G01*
X109752000Y-85875000D01*
G75*
G02*
X109602000Y-86025000I-150000J0D01*
G01*
X107952000Y-86025000D01*
G75*
G02*
X107802000Y-85875000I0J150000D01*
G01*
G37*
%TD.AperFunction*%
%TO.P,U1,3*%
%TO.N,/OUT*%
%TA.AperFunction,SMDPad,CuDef*%
G36*
G01*
X107802000Y-84605000D02*
X107802000Y-84305000D01*
G75*
G02*
X107952000Y-84155000I150000J0D01*
G01*
X109602000Y-84155000D01*
G75*
G02*
X109752000Y-84305000I0J-150000D01*
G01*
X109752000Y-84605000D01*
G75*
G02*
X109602000Y-84755000I-150000J0D01*
G01*
X107952000Y-84755000D01*
G75*
G02*
X107802000Y-84605000I0J150000D01*
G01*
G37*
%TD.AperFunction*%
%TO.P,U1,2*%
%TO.N,/TRIG*%
%TA.AperFunction,SMDPad,CuDef*%
G36*
G01*
X107802000Y-83335000D02*
X107802000Y-83035000D01*
G75*
G02*
X107952000Y-82885000I150000J0D01*
G01*
X109602000Y-82885000D01*
G75*
G02*
X109752000Y-83035000I0J-150000D01*
G01*
X109752000Y-83335000D01*
G75*
G02*
X109602000Y-83485000I-150000J0D01*
G01*
X107952000Y-83485000D01*
G75*
G02*
X107802000Y-83335000I0J150000D01*
G01*
G37*
%TD.AperFunction*%
%TO.P,U1,1*%
%TO.N,GND*%
%TA.AperFunction,SMDPad,CuDef*%
G36*
G01*
X107802000Y-82065000D02*
X107802000Y-81765000D01*
G75*
G02*
X107952000Y-81615000I150000J0D01*
G01*
X109602000Y-81615000D01*
G75*
G02*
X109752000Y-81765000I0J-150000D01*
G01*
X109752000Y-82065000D01*
G75*
G02*
X109602000Y-82215000I-150000J0D01*
G01*
X107952000Y-82215000D01*
G75*
G02*
X107802000Y-82065000I0J150000D01*
G01*
G37*
%TD.AperFunction*%
%TD*%
%TO.P,R5,2*%
%TO.N,Net-(D4-Pad2)*%
%TA.AperFunction,SMDPad,CuDef*%
G36*
G01*
X126254500Y-86277000D02*
X126729500Y-86277000D01*
G75*
G02*
X126967000Y-86514500I0J-237500D01*
G01*
X126967000Y-87014500D01*
G75*
G02*
X126729500Y-87252000I-237500J0D01*
G01*
X126254500Y-87252000D01*
G75*
G02*
X126017000Y-87014500I0J237500D01*
G01*
X126017000Y-86514500D01*
G75*
G02*
X126254500Y-86277000I237500J0D01*
G01*
G37*
%TD.AperFunction*%
%TO.P,R5,1*%
%TO.N,/OUT*%
%TA.AperFunction,SMDPad,CuDef*%
G36*
G01*
X126254500Y-84452000D02*
X126729500Y-84452000D01*
G75*
G02*
X126967000Y-84689500I0J-237500D01*
G01*
X126967000Y-85189500D01*
G75*
G02*
X126729500Y-85427000I-237500J0D01*
G01*
X126254500Y-85427000D01*
G75*
G02*
X126017000Y-85189500I0J237500D01*
G01*
X126017000Y-84689500D01*
G75*
G02*
X126254500Y-84452000I237500J0D01*
G01*
G37*
%TD.AperFunction*%
%TD*%
%TO.P,R4,2*%
%TO.N,Net-(D3-Pad1)*%
%TA.AperFunction,SMDPad,CuDef*%
G36*
G01*
X124697500Y-85935000D02*
X124222500Y-85935000D01*
G75*
G02*
X123985000Y-85697500I0J237500D01*
G01*
X123985000Y-85197500D01*
G75*
G02*
X124222500Y-84960000I237500J0D01*
G01*
X124697500Y-84960000D01*
G75*
G02*
X124935000Y-85197500I0J-237500D01*
G01*
X124935000Y-85697500D01*
G75*
G02*
X124697500Y-85935000I-237500J0D01*
G01*
G37*
%TD.AperFunction*%
%TO.P,R4,1*%
%TO.N,Net-(D2-Pad2)*%
%TA.AperFunction,SMDPad,CuDef*%
G36*
G01*
X124697500Y-87760000D02*
X124222500Y-87760000D01*
G75*
G02*
X123985000Y-87522500I0J237500D01*
G01*
X123985000Y-87022500D01*
G75*
G02*
X124222500Y-86785000I237500J0D01*
G01*
X124697500Y-86785000D01*
G75*
G02*
X124935000Y-87022500I0J-237500D01*
G01*
X124935000Y-87522500D01*
G75*
G02*
X124697500Y-87760000I-237500J0D01*
G01*
G37*
%TD.AperFunction*%
%TD*%
%TO.P,R2,2*%
%TO.N,Net-(D2-Pad2)*%
%TA.AperFunction,SMDPad,CuDef*%
G36*
G01*
X116094500Y-83229000D02*
X116569500Y-83229000D01*
G75*
G02*
X116807000Y-83466500I0J-237500D01*
G01*
X116807000Y-83966500D01*
G75*
G02*
X116569500Y-84204000I-237500J0D01*
G01*
X116094500Y-84204000D01*
G75*
G02*
X115857000Y-83966500I0J237500D01*
G01*
X115857000Y-83466500D01*
G75*
G02*
X116094500Y-83229000I237500J0D01*
G01*
G37*
%TD.AperFunction*%
%TO.P,R2,1*%
%TO.N,VCC*%
%TA.AperFunction,SMDPad,CuDef*%
G36*
G01*
X116094500Y-81404000D02*
X116569500Y-81404000D01*
G75*
G02*
X116807000Y-81641500I0J-237500D01*
G01*
X116807000Y-82141500D01*
G75*
G02*
X116569500Y-82379000I-237500J0D01*
G01*
X116094500Y-82379000D01*
G75*
G02*
X115857000Y-82141500I0J237500D01*
G01*
X115857000Y-81641500D01*
G75*
G02*
X116094500Y-81404000I237500J0D01*
G01*
G37*
%TD.AperFunction*%
%TD*%
%TO.P,R1,2*%
%TO.N,Net-(D1-Pad2)*%
%TA.AperFunction,SMDPad,CuDef*%
G36*
G01*
X105934500Y-86785000D02*
X106409500Y-86785000D01*
G75*
G02*
X106647000Y-87022500I0J-237500D01*
G01*
X106647000Y-87522500D01*
G75*
G02*
X106409500Y-87760000I-237500J0D01*
G01*
X105934500Y-87760000D01*
G75*
G02*
X105697000Y-87522500I0J237500D01*
G01*
X105697000Y-87022500D01*
G75*
G02*
X105934500Y-86785000I237500J0D01*
G01*
G37*
%TD.AperFunction*%
%TO.P,R1,1*%
%TO.N,VCC*%
%TA.AperFunction,SMDPad,CuDef*%
G36*
G01*
X105934500Y-84960000D02*
X106409500Y-84960000D01*
G75*
G02*
X106647000Y-85197500I0J-237500D01*
G01*
X106647000Y-85697500D01*
G75*
G02*
X106409500Y-85935000I-237500J0D01*
G01*
X105934500Y-85935000D01*
G75*
G02*
X105697000Y-85697500I0J237500D01*
G01*
X105697000Y-85197500D01*
G75*
G02*
X105934500Y-84960000I237500J0D01*
G01*
G37*
%TD.AperFunction*%
%TD*%
D14*
%TO.P,Q1,3*%
%TO.N,Net-(J2-Pad2)*%
X127508000Y-81296000D03*
%TO.P,Q1,2*%
%TO.N,GND*%
X128458000Y-83296000D03*
%TO.P,Q1,1*%
%TO.N,/OUT*%
X126558000Y-83296000D03*
%TD*%
D15*
%TO.P,J2,2*%
%TO.N,Net-(J2-Pad2)*%
X136144000Y-82884000D03*
D16*
%TO.P,J2,1*%
%TO.N,VCC*%
X136144000Y-87884000D03*
%TD*%
D15*
%TO.P,J1,2*%
%TO.N,VCC*%
X97028000Y-87884000D03*
D16*
%TO.P,J1,1*%
%TO.N,GND*%
X97028000Y-82884000D03*
%TD*%
%TO.P,D4,2*%
%TO.N,Net-(D4-Pad2)*%
%TA.AperFunction,SMDPad,CuDef*%
G36*
G01*
X128286500Y-86202000D02*
X128761500Y-86202000D01*
G75*
G02*
X128999000Y-86439500I0J-237500D01*
G01*
X128999000Y-87014500D01*
G75*
G02*
X128761500Y-87252000I-237500J0D01*
G01*
X128286500Y-87252000D01*
G75*
G02*
X128049000Y-87014500I0J237500D01*
G01*
X128049000Y-86439500D01*
G75*
G02*
X128286500Y-86202000I237500J0D01*
G01*
G37*
%TD.AperFunction*%
%TO.P,D4,1*%
%TO.N,GND*%
%TA.AperFunction,SMDPad,CuDef*%
G36*
G01*
X128286500Y-84452000D02*
X128761500Y-84452000D01*
G75*
G02*
X128999000Y-84689500I0J-237500D01*
G01*
X128999000Y-85264500D01*
G75*
G02*
X128761500Y-85502000I-237500J0D01*
G01*
X128286500Y-85502000D01*
G75*
G02*
X128049000Y-85264500I0J237500D01*
G01*
X128049000Y-84689500D01*
G75*
G02*
X128286500Y-84452000I237500J0D01*
G01*
G37*
%TD.AperFunction*%
%TD*%
%TO.P,D3,2*%
%TO.N,Net-(D3-Pad2)*%
%TA.AperFunction,SMDPad,CuDef*%
G36*
G01*
X122190500Y-86755000D02*
X122665500Y-86755000D01*
G75*
G02*
X122903000Y-86992500I0J-237500D01*
G01*
X122903000Y-87567500D01*
G75*
G02*
X122665500Y-87805000I-237500J0D01*
G01*
X122190500Y-87805000D01*
G75*
G02*
X121953000Y-87567500I0J237500D01*
G01*
X121953000Y-86992500D01*
G75*
G02*
X122190500Y-86755000I237500J0D01*
G01*
G37*
%TD.AperFunction*%
%TO.P,D3,1*%
%TO.N,Net-(D3-Pad1)*%
%TA.AperFunction,SMDPad,CuDef*%
G36*
G01*
X122190500Y-85005000D02*
X122665500Y-85005000D01*
G75*
G02*
X122903000Y-85242500I0J-237500D01*
G01*
X122903000Y-85817500D01*
G75*
G02*
X122665500Y-86055000I-237500J0D01*
G01*
X122190500Y-86055000D01*
G75*
G02*
X121953000Y-85817500I0J237500D01*
G01*
X121953000Y-85242500D01*
G75*
G02*
X122190500Y-85005000I237500J0D01*
G01*
G37*
%TD.AperFunction*%
%TD*%
%TO.P,D2,2*%
%TO.N,Net-(D2-Pad2)*%
%TA.AperFunction,SMDPad,CuDef*%
G36*
G01*
X119730000Y-84057500D02*
X119730000Y-83582500D01*
G75*
G02*
X119967500Y-83345000I237500J0D01*
G01*
X120542500Y-83345000D01*
G75*
G02*
X120780000Y-83582500I0J-237500D01*
G01*
X120780000Y-84057500D01*
G75*
G02*
X120542500Y-84295000I-237500J0D01*
G01*
X119967500Y-84295000D01*
G75*
G02*
X119730000Y-84057500I0J237500D01*
G01*
G37*
%TD.AperFunction*%
%TO.P,D2,1*%
%TO.N,Net-(D2-Pad1)*%
%TA.AperFunction,SMDPad,CuDef*%
G36*
G01*
X117980000Y-84057500D02*
X117980000Y-83582500D01*
G75*
G02*
X118217500Y-83345000I237500J0D01*
G01*
X118792500Y-83345000D01*
G75*
G02*
X119030000Y-83582500I0J-237500D01*
G01*
X119030000Y-84057500D01*
G75*
G02*
X118792500Y-84295000I-237500J0D01*
G01*
X118217500Y-84295000D01*
G75*
G02*
X117980000Y-84057500I0J237500D01*
G01*
G37*
%TD.AperFunction*%
%TD*%
%TO.P,D1,2*%
%TO.N,Net-(D1-Pad2)*%
%TA.AperFunction,SMDPad,CuDef*%
G36*
G01*
X103902500Y-86710000D02*
X104377500Y-86710000D01*
G75*
G02*
X104615000Y-86947500I0J-237500D01*
G01*
X104615000Y-87522500D01*
G75*
G02*
X104377500Y-87760000I-237500J0D01*
G01*
X103902500Y-87760000D01*
G75*
G02*
X103665000Y-87522500I0J237500D01*
G01*
X103665000Y-86947500D01*
G75*
G02*
X103902500Y-86710000I237500J0D01*
G01*
G37*
%TD.AperFunction*%
%TO.P,D1,1*%
%TO.N,GND*%
%TA.AperFunction,SMDPad,CuDef*%
G36*
G01*
X103902500Y-84960000D02*
X104377500Y-84960000D01*
G75*
G02*
X104615000Y-85197500I0J-237500D01*
G01*
X104615000Y-85772500D01*
G75*
G02*
X104377500Y-86010000I-237500J0D01*
G01*
X103902500Y-86010000D01*
G75*
G02*
X103665000Y-85772500I0J237500D01*
G01*
X103665000Y-85197500D01*
G75*
G02*
X103902500Y-84960000I237500J0D01*
G01*
G37*
%TD.AperFunction*%
%TD*%
%TO.P,C4,2*%
%TO.N,GND*%
%TA.AperFunction,SMDPad,CuDef*%
G36*
G01*
X104377500Y-82479000D02*
X103902500Y-82479000D01*
G75*
G02*
X103665000Y-82241500I0J237500D01*
G01*
X103665000Y-81641500D01*
G75*
G02*
X103902500Y-81404000I237500J0D01*
G01*
X104377500Y-81404000D01*
G75*
G02*
X104615000Y-81641500I0J-237500D01*
G01*
X104615000Y-82241500D01*
G75*
G02*
X104377500Y-82479000I-237500J0D01*
G01*
G37*
%TD.AperFunction*%
%TO.P,C4,1*%
%TO.N,/TRIG*%
%TA.AperFunction,SMDPad,CuDef*%
G36*
G01*
X104377500Y-84204000D02*
X103902500Y-84204000D01*
G75*
G02*
X103665000Y-83966500I0J237500D01*
G01*
X103665000Y-83366500D01*
G75*
G02*
X103902500Y-83129000I237500J0D01*
G01*
X104377500Y-83129000D01*
G75*
G02*
X104615000Y-83366500I0J-237500D01*
G01*
X104615000Y-83966500D01*
G75*
G02*
X104377500Y-84204000I-237500J0D01*
G01*
G37*
%TD.AperFunction*%
%TD*%
%TO.P,C3,2*%
%TO.N,GND*%
%TA.AperFunction,SMDPad,CuDef*%
G36*
G01*
X106409500Y-82479000D02*
X105934500Y-82479000D01*
G75*
G02*
X105697000Y-82241500I0J237500D01*
G01*
X105697000Y-81641500D01*
G75*
G02*
X105934500Y-81404000I237500J0D01*
G01*
X106409500Y-81404000D01*
G75*
G02*
X106647000Y-81641500I0J-237500D01*
G01*
X106647000Y-82241500D01*
G75*
G02*
X106409500Y-82479000I-237500J0D01*
G01*
G37*
%TD.AperFunction*%
%TO.P,C3,1*%
%TO.N,/TRIG*%
%TA.AperFunction,SMDPad,CuDef*%
G36*
G01*
X106409500Y-84204000D02*
X105934500Y-84204000D01*
G75*
G02*
X105697000Y-83966500I0J237500D01*
G01*
X105697000Y-83366500D01*
G75*
G02*
X105934500Y-83129000I237500J0D01*
G01*
X106409500Y-83129000D01*
G75*
G02*
X106647000Y-83366500I0J-237500D01*
G01*
X106647000Y-83966500D01*
G75*
G02*
X106409500Y-84204000I-237500J0D01*
G01*
G37*
%TD.AperFunction*%
%TD*%
%TO.P,C2,2*%
%TO.N,GND*%
%TA.AperFunction,SMDPad,CuDef*%
G36*
G01*
X119705000Y-82025500D02*
X119705000Y-81550500D01*
G75*
G02*
X119942500Y-81313000I237500J0D01*
G01*
X120542500Y-81313000D01*
G75*
G02*
X120780000Y-81550500I0J-237500D01*
G01*
X120780000Y-82025500D01*
G75*
G02*
X120542500Y-82263000I-237500J0D01*
G01*
X119942500Y-82263000D01*
G75*
G02*
X119705000Y-82025500I0J237500D01*
G01*
G37*
%TD.AperFunction*%
%TO.P,C2,1*%
%TO.N,VCC*%
%TA.AperFunction,SMDPad,CuDef*%
G36*
G01*
X117980000Y-82025500D02*
X117980000Y-81550500D01*
G75*
G02*
X118217500Y-81313000I237500J0D01*
G01*
X118817500Y-81313000D01*
G75*
G02*
X119055000Y-81550500I0J-237500D01*
G01*
X119055000Y-82025500D01*
G75*
G02*
X118817500Y-82263000I-237500J0D01*
G01*
X118217500Y-82263000D01*
G75*
G02*
X117980000Y-82025500I0J237500D01*
G01*
G37*
%TD.AperFunction*%
%TD*%
%TO.P,C1,2*%
%TO.N,GND*%
%TA.AperFunction,SMDPad,CuDef*%
G36*
G01*
X117673000Y-86089500D02*
X117673000Y-85614500D01*
G75*
G02*
X117910500Y-85377000I237500J0D01*
G01*
X118510500Y-85377000D01*
G75*
G02*
X118748000Y-85614500I0J-237500D01*
G01*
X118748000Y-86089500D01*
G75*
G02*
X118510500Y-86327000I-237500J0D01*
G01*
X117910500Y-86327000D01*
G75*
G02*
X117673000Y-86089500I0J237500D01*
G01*
G37*
%TD.AperFunction*%
%TO.P,C1,1*%
%TO.N,Net-(C1-Pad1)*%
%TA.AperFunction,SMDPad,CuDef*%
G36*
G01*
X115948000Y-86089500D02*
X115948000Y-85614500D01*
G75*
G02*
X116185500Y-85377000I237500J0D01*
G01*
X116785500Y-85377000D01*
G75*
G02*
X117023000Y-85614500I0J-237500D01*
G01*
X117023000Y-86089500D01*
G75*
G02*
X116785500Y-86327000I-237500J0D01*
G01*
X116185500Y-86327000D01*
G75*
G02*
X115948000Y-86089500I0J237500D01*
G01*
G37*
%TD.AperFunction*%
%TD*%
D17*
%TO.N,GND*%
X119888000Y-80518000D03*
X118972499Y-86614000D03*
%TO.N,VCC*%
X111760000Y-87376000D03*
X111760000Y-81788000D03*
X118364000Y-80264000D03*
X120650000Y-86868000D03*
%TO.N,Net-(D3-Pad2)*%
X120904000Y-87884000D03*
%TO.N,/OUT*%
X111252000Y-85344000D03*
X124968000Y-84328000D03*
%TD*%
D18*
%TO.N,GND*%
X120242500Y-80872500D02*
X119888000Y-80518000D01*
X120242500Y-81788000D02*
X120242500Y-80872500D01*
X118210500Y-85852001D02*
X118972499Y-86614000D01*
X118210500Y-85852000D02*
X118210500Y-85852001D01*
%TO.N,Net-(C1-Pad1)*%
X116358500Y-85725000D02*
X116485500Y-85852000D01*
X113727000Y-85725000D02*
X116358500Y-85725000D01*
%TO.N,VCC*%
X108546500Y-85955500D02*
X108777000Y-85725000D01*
X116308500Y-81915000D02*
X116332000Y-81891500D01*
X113727000Y-81915000D02*
X116308500Y-81915000D01*
X118414000Y-81891500D02*
X118517500Y-81788000D01*
X116332000Y-81891500D02*
X118414000Y-81891500D01*
X108499500Y-85447500D02*
X108777000Y-85725000D01*
X106172000Y-85447500D02*
X108499500Y-85447500D01*
X113727000Y-81915000D02*
X111887000Y-81915000D01*
X108777000Y-85725000D02*
X110109000Y-85725000D01*
X111887000Y-81915000D02*
X111760000Y-81788000D01*
X110109000Y-85725000D02*
X111760000Y-87376000D01*
X118517500Y-80417500D02*
X118364000Y-80264000D01*
X118517500Y-81788000D02*
X118517500Y-80417500D01*
%TO.N,/TRIG*%
X104140000Y-83666500D02*
X106172000Y-83666500D01*
X108295500Y-83666500D02*
X108777000Y-83185000D01*
X106172000Y-83666500D02*
X108295500Y-83666500D01*
X111022000Y-84455000D02*
X113727000Y-84455000D01*
X109752000Y-83185000D02*
X111022000Y-84455000D01*
X108777000Y-83185000D02*
X109752000Y-83185000D01*
X112426990Y-84780010D02*
X112752000Y-84455000D01*
X112426990Y-86071758D02*
X112426990Y-84780010D01*
X112752000Y-84455000D02*
X113727000Y-84455000D01*
X113850420Y-87495188D02*
X112426990Y-86071758D01*
X113850420Y-89916000D02*
X113850420Y-87495188D01*
X117467188Y-87495188D02*
X117856000Y-87884000D01*
X113850420Y-87495188D02*
X117467188Y-87495188D01*
%TO.N,Net-(D1-Pad2)*%
X104177500Y-87272500D02*
X104140000Y-87235000D01*
X106172000Y-87272500D02*
X104177500Y-87272500D01*
%TO.N,Net-(D2-Pad2)*%
X115800500Y-83185000D02*
X116332000Y-83716500D01*
X113727000Y-83185000D02*
X115800500Y-83185000D01*
X119454990Y-83019990D02*
X120255000Y-83820000D01*
X117028510Y-83019990D02*
X119454990Y-83019990D01*
X116332000Y-83716500D02*
X117028510Y-83019990D01*
X120255000Y-85185510D02*
X120255000Y-83820000D01*
X112083998Y-83185000D02*
X113727000Y-83185000D01*
X110998000Y-82099002D02*
X112083998Y-83185000D01*
X110998000Y-79756000D02*
X110998000Y-82099002D01*
X123567510Y-86380010D02*
X121449500Y-86380010D01*
X121449500Y-86380010D02*
X120255000Y-85185510D01*
X124460000Y-87272500D02*
X123567510Y-86380010D01*
%TO.N,Net-(D2-Pad1)*%
X119697499Y-89090501D02*
X118872000Y-89916000D01*
X119697499Y-85012499D02*
X119697499Y-89090501D01*
X118505000Y-83820000D02*
X119697499Y-85012499D01*
%TO.N,Net-(D3-Pad2)*%
X121000000Y-87788000D02*
X120904000Y-87884000D01*
X121824000Y-87884000D02*
X122428000Y-87280000D01*
X120904000Y-87884000D02*
X121824000Y-87884000D01*
%TO.N,Net-(D3-Pad1)*%
X124377500Y-85530000D02*
X124460000Y-85447500D01*
X122428000Y-85530000D02*
X124377500Y-85530000D01*
%TO.N,Net-(D4-Pad2)*%
X128486500Y-86764500D02*
X128524000Y-86727000D01*
X126492000Y-86764500D02*
X128486500Y-86764500D01*
%TO.N,/OUT*%
X110363000Y-84455000D02*
X111252000Y-85344000D01*
X108777000Y-84455000D02*
X110363000Y-84455000D01*
X125880500Y-84328000D02*
X126492000Y-84939500D01*
X124968000Y-84328000D02*
X125880500Y-84328000D01*
X126492000Y-83362000D02*
X126558000Y-83296000D01*
X126492000Y-84939500D02*
X126492000Y-83362000D01*
X124968000Y-81280000D02*
X124460000Y-80772000D01*
X124968000Y-84328000D02*
X124968000Y-81280000D01*
%TD*%
D19*
%TO.N,GND*%
X110741022Y-78908856D02*
X110580690Y-78975268D01*
X110436395Y-79071682D01*
X110313682Y-79194395D01*
X110217268Y-79338690D01*
X110150856Y-79499022D01*
X110117000Y-79669229D01*
X110117000Y-79842771D01*
X110150856Y-80012978D01*
X110217268Y-80173310D01*
X110313682Y-80317605D01*
X110436395Y-80440318D01*
X110492000Y-80477472D01*
X110492001Y-82074146D01*
X110489553Y-82099002D01*
X110499322Y-82198194D01*
X110528255Y-82293576D01*
X110539310Y-82314258D01*
X110575242Y-82381481D01*
X110638474Y-82458529D01*
X110657780Y-82474373D01*
X111708626Y-83525220D01*
X111724471Y-83544527D01*
X111801519Y-83607759D01*
X111870215Y-83644478D01*
X111889423Y-83654745D01*
X111984804Y-83683678D01*
X111994692Y-83684652D01*
X112059144Y-83691000D01*
X112059151Y-83691000D01*
X112083997Y-83693447D01*
X112108843Y-83691000D01*
X112508172Y-83691000D01*
X112525223Y-83711777D01*
X112605968Y-83778043D01*
X112684464Y-83820000D01*
X112605968Y-83861957D01*
X112525223Y-83928223D01*
X112508172Y-83949000D01*
X111231592Y-83949000D01*
X110127376Y-82844785D01*
X110111527Y-82825473D01*
X110075459Y-82795873D01*
X110045043Y-82738968D01*
X109985381Y-82666270D01*
X110035595Y-82639430D01*
X110112948Y-82575948D01*
X110176430Y-82498595D01*
X110223602Y-82410344D01*
X110252650Y-82314585D01*
X110262458Y-82215000D01*
X110260000Y-82105500D01*
X110133000Y-81978500D01*
X108840500Y-81978500D01*
X108840500Y-81998500D01*
X108713500Y-81998500D01*
X108713500Y-81978500D01*
X107421000Y-81978500D01*
X107294000Y-82105500D01*
X107291542Y-82215000D01*
X107301350Y-82314585D01*
X107330398Y-82410344D01*
X107377570Y-82498595D01*
X107441052Y-82575948D01*
X107518405Y-82639430D01*
X107568619Y-82666270D01*
X107508957Y-82738968D01*
X107459717Y-82831090D01*
X107429395Y-82931047D01*
X107419157Y-83035000D01*
X107419157Y-83160500D01*
X106992146Y-83160500D01*
X106982622Y-83129105D01*
X106925296Y-83021856D01*
X106859357Y-82941508D01*
X106930595Y-82903430D01*
X107007948Y-82839948D01*
X107071430Y-82762595D01*
X107118602Y-82674344D01*
X107147650Y-82578585D01*
X107157458Y-82479000D01*
X107155000Y-82132000D01*
X107028000Y-82005000D01*
X106235500Y-82005000D01*
X106235500Y-82025000D01*
X106108500Y-82025000D01*
X106108500Y-82005000D01*
X105316000Y-82005000D01*
X105189000Y-82132000D01*
X105186542Y-82479000D01*
X105196350Y-82578585D01*
X105225398Y-82674344D01*
X105272570Y-82762595D01*
X105336052Y-82839948D01*
X105413405Y-82903430D01*
X105484643Y-82941508D01*
X105418704Y-83021856D01*
X105361378Y-83129105D01*
X105351854Y-83160500D01*
X104960146Y-83160500D01*
X104950622Y-83129105D01*
X104893296Y-83021856D01*
X104827357Y-82941508D01*
X104898595Y-82903430D01*
X104975948Y-82839948D01*
X105039430Y-82762595D01*
X105086602Y-82674344D01*
X105115650Y-82578585D01*
X105125458Y-82479000D01*
X105123000Y-82132000D01*
X104996000Y-82005000D01*
X104203500Y-82005000D01*
X104203500Y-82025000D01*
X104076500Y-82025000D01*
X104076500Y-82005000D01*
X103284000Y-82005000D01*
X103157000Y-82132000D01*
X103154542Y-82479000D01*
X103164350Y-82578585D01*
X103193398Y-82674344D01*
X103240570Y-82762595D01*
X103304052Y-82839948D01*
X103381405Y-82903430D01*
X103452643Y-82941508D01*
X103386704Y-83021856D01*
X103329378Y-83129105D01*
X103294077Y-83245477D01*
X103282157Y-83366500D01*
X103282157Y-83966500D01*
X103294077Y-84087523D01*
X103329378Y-84203895D01*
X103386704Y-84311144D01*
X103463851Y-84405149D01*
X103539482Y-84467217D01*
X103469656Y-84488398D01*
X103381405Y-84535570D01*
X103304052Y-84599052D01*
X103240570Y-84676405D01*
X103193398Y-84764656D01*
X103164350Y-84860415D01*
X103154542Y-84960000D01*
X103157000Y-85294500D01*
X103284000Y-85421500D01*
X104076500Y-85421500D01*
X104076500Y-85401500D01*
X104203500Y-85401500D01*
X104203500Y-85421500D01*
X104996000Y-85421500D01*
X105123000Y-85294500D01*
X105125458Y-84960000D01*
X105115650Y-84860415D01*
X105086602Y-84764656D01*
X105039430Y-84676405D01*
X104975948Y-84599052D01*
X104898595Y-84535570D01*
X104810344Y-84488398D01*
X104740518Y-84467217D01*
X104816149Y-84405149D01*
X104893296Y-84311144D01*
X104950622Y-84203895D01*
X104960146Y-84172500D01*
X105351854Y-84172500D01*
X105361378Y-84203895D01*
X105418704Y-84311144D01*
X105495851Y-84405149D01*
X105589856Y-84482296D01*
X105697105Y-84539622D01*
X105813477Y-84574923D01*
X105885329Y-84582000D01*
X105813477Y-84589077D01*
X105697105Y-84624378D01*
X105589856Y-84681704D01*
X105495851Y-84758851D01*
X105418704Y-84852856D01*
X105361378Y-84960105D01*
X105326077Y-85076477D01*
X105314157Y-85197500D01*
X105314157Y-85697500D01*
X105326077Y-85818523D01*
X105361378Y-85934895D01*
X105418704Y-86042144D01*
X105495851Y-86136149D01*
X105589856Y-86213296D01*
X105697105Y-86270622D01*
X105813477Y-86305923D01*
X105934500Y-86317843D01*
X106409500Y-86317843D01*
X106530523Y-86305923D01*
X106646895Y-86270622D01*
X106754144Y-86213296D01*
X106848149Y-86136149D01*
X106925296Y-86042144D01*
X106972677Y-85953500D01*
X107426888Y-85953500D01*
X107429395Y-85978953D01*
X107459717Y-86078910D01*
X107508957Y-86171032D01*
X107575223Y-86251777D01*
X107655968Y-86318043D01*
X107748090Y-86367283D01*
X107848047Y-86397605D01*
X107952000Y-86407843D01*
X108319370Y-86407843D01*
X108351926Y-86425245D01*
X108447308Y-86454178D01*
X108546500Y-86463947D01*
X108645692Y-86454178D01*
X108741074Y-86425245D01*
X108773630Y-86407843D01*
X109602000Y-86407843D01*
X109705953Y-86397605D01*
X109805910Y-86367283D01*
X109898032Y-86318043D01*
X109946596Y-86278187D01*
X110979000Y-87310592D01*
X110979000Y-87452922D01*
X111009013Y-87603809D01*
X111067887Y-87745942D01*
X111153358Y-87873859D01*
X111262141Y-87982642D01*
X111390058Y-88068113D01*
X111532191Y-88126987D01*
X111683078Y-88157000D01*
X111836922Y-88157000D01*
X111987809Y-88126987D01*
X112129942Y-88068113D01*
X112257859Y-87982642D01*
X112366642Y-87873859D01*
X112452113Y-87745942D01*
X112510987Y-87603809D01*
X112541000Y-87452922D01*
X112541000Y-87299078D01*
X112510987Y-87148191D01*
X112452113Y-87006058D01*
X112366642Y-86878141D01*
X112257859Y-86769358D01*
X112129942Y-86683887D01*
X111987809Y-86625013D01*
X111836922Y-86595000D01*
X111694592Y-86595000D01*
X111224591Y-86125000D01*
X111328922Y-86125000D01*
X111479809Y-86094987D01*
X111621942Y-86036113D01*
X111749859Y-85950642D01*
X111858642Y-85841859D01*
X111920990Y-85748548D01*
X111920990Y-86046911D01*
X111918543Y-86071758D01*
X111920990Y-86096604D01*
X111920990Y-86096611D01*
X111928312Y-86170950D01*
X111957245Y-86266332D01*
X112004231Y-86354237D01*
X112067463Y-86431285D01*
X112086775Y-86447134D01*
X113344421Y-87704781D01*
X113344420Y-88819685D01*
X113278928Y-88846813D01*
X113081321Y-88978850D01*
X112913270Y-89146901D01*
X112781233Y-89344508D01*
X112690285Y-89564077D01*
X112643920Y-89797170D01*
X112643920Y-90034830D01*
X112690285Y-90267923D01*
X112781233Y-90487492D01*
X112913270Y-90685099D01*
X113081321Y-90853150D01*
X113278928Y-90985187D01*
X113498497Y-91076135D01*
X113731590Y-91122500D01*
X113969250Y-91122500D01*
X114202343Y-91076135D01*
X114421912Y-90985187D01*
X114619519Y-90853150D01*
X114787570Y-90685099D01*
X114919607Y-90487492D01*
X115010555Y-90267923D01*
X115056920Y-90034830D01*
X115056920Y-89797170D01*
X115010555Y-89564077D01*
X114919607Y-89344508D01*
X114787570Y-89146901D01*
X114619519Y-88978850D01*
X114421912Y-88846813D01*
X114356420Y-88819685D01*
X114356420Y-88001188D01*
X116981050Y-88001188D01*
X117008856Y-88140978D01*
X117075268Y-88301310D01*
X117171682Y-88445605D01*
X117294395Y-88568318D01*
X117438690Y-88664732D01*
X117599022Y-88731144D01*
X117769229Y-88765000D01*
X117942771Y-88765000D01*
X118112978Y-88731144D01*
X118273310Y-88664732D01*
X118417605Y-88568318D01*
X118540318Y-88445605D01*
X118636732Y-88301310D01*
X118703144Y-88140978D01*
X118737000Y-87970771D01*
X118737000Y-87797229D01*
X118703144Y-87627022D01*
X118636732Y-87466690D01*
X118540318Y-87322395D01*
X118417605Y-87199682D01*
X118273310Y-87103268D01*
X118112978Y-87036856D01*
X117942771Y-87003000D01*
X117769229Y-87003000D01*
X117659639Y-87024799D01*
X117566381Y-86996510D01*
X117492042Y-86989188D01*
X117492034Y-86989188D01*
X117467188Y-86986741D01*
X117442342Y-86989188D01*
X114060012Y-86989188D01*
X113478666Y-86407843D01*
X114552000Y-86407843D01*
X114655953Y-86397605D01*
X114755910Y-86367283D01*
X114848032Y-86318043D01*
X114928777Y-86251777D01*
X114945828Y-86231000D01*
X115583289Y-86231000D01*
X115612378Y-86326895D01*
X115669704Y-86434144D01*
X115746851Y-86528149D01*
X115840856Y-86605296D01*
X115948105Y-86662622D01*
X116064477Y-86697923D01*
X116185500Y-86709843D01*
X116785500Y-86709843D01*
X116906523Y-86697923D01*
X117022895Y-86662622D01*
X117130144Y-86605296D01*
X117210492Y-86539357D01*
X117248570Y-86610595D01*
X117312052Y-86687948D01*
X117389405Y-86751430D01*
X117477656Y-86798602D01*
X117573415Y-86827650D01*
X117673000Y-86837458D01*
X118020000Y-86835000D01*
X118147000Y-86708000D01*
X118147000Y-85915500D01*
X118127000Y-85915500D01*
X118127000Y-85788500D01*
X118147000Y-85788500D01*
X118147000Y-84996000D01*
X118020000Y-84869000D01*
X117673000Y-84866542D01*
X117573415Y-84876350D01*
X117477656Y-84905398D01*
X117389405Y-84952570D01*
X117312052Y-85016052D01*
X117248570Y-85093405D01*
X117210492Y-85164643D01*
X117130144Y-85098704D01*
X117022895Y-85041378D01*
X116906523Y-85006077D01*
X116785500Y-84994157D01*
X116185500Y-84994157D01*
X116064477Y-85006077D01*
X115948105Y-85041378D01*
X115840856Y-85098704D01*
X115746851Y-85175851D01*
X115711440Y-85219000D01*
X114945828Y-85219000D01*
X114928777Y-85198223D01*
X114848032Y-85131957D01*
X114769536Y-85090000D01*
X114848032Y-85048043D01*
X114928777Y-84981777D01*
X114995043Y-84901032D01*
X115044283Y-84808910D01*
X115074605Y-84708953D01*
X115084843Y-84605000D01*
X115084843Y-84305000D01*
X115074605Y-84201047D01*
X115044283Y-84101090D01*
X114995043Y-84008968D01*
X114928777Y-83928223D01*
X114848032Y-83861957D01*
X114769536Y-83820000D01*
X114848032Y-83778043D01*
X114928777Y-83711777D01*
X114945828Y-83691000D01*
X115474157Y-83691000D01*
X115474157Y-83966500D01*
X115486077Y-84087523D01*
X115521378Y-84203895D01*
X115578704Y-84311144D01*
X115655851Y-84405149D01*
X115749856Y-84482296D01*
X115857105Y-84539622D01*
X115973477Y-84574923D01*
X116094500Y-84586843D01*
X116569500Y-84586843D01*
X116690523Y-84574923D01*
X116806895Y-84539622D01*
X116914144Y-84482296D01*
X117008149Y-84405149D01*
X117085296Y-84311144D01*
X117142622Y-84203895D01*
X117177923Y-84087523D01*
X117189843Y-83966500D01*
X117189843Y-83574249D01*
X117238102Y-83525990D01*
X117602723Y-83525990D01*
X117597157Y-83582500D01*
X117597157Y-84057500D01*
X117609077Y-84178523D01*
X117644378Y-84294895D01*
X117701704Y-84402144D01*
X117778851Y-84496149D01*
X117872856Y-84573296D01*
X117980105Y-84630622D01*
X118096477Y-84665923D01*
X118217500Y-84677843D01*
X118647252Y-84677843D01*
X118845559Y-84876150D01*
X118748000Y-84866542D01*
X118401000Y-84869000D01*
X118274000Y-84996000D01*
X118274000Y-85788500D01*
X118294000Y-85788500D01*
X118294000Y-85915500D01*
X118274000Y-85915500D01*
X118274000Y-86708000D01*
X118401000Y-86835000D01*
X118748000Y-86837458D01*
X118847585Y-86827650D01*
X118943344Y-86798602D01*
X119031595Y-86751430D01*
X119108948Y-86687948D01*
X119172430Y-86610595D01*
X119191499Y-86574919D01*
X119191500Y-88749416D01*
X118990830Y-88709500D01*
X118753170Y-88709500D01*
X118520077Y-88755865D01*
X118300508Y-88846813D01*
X118102901Y-88978850D01*
X117934850Y-89146901D01*
X117802813Y-89344508D01*
X117711865Y-89564077D01*
X117665500Y-89797170D01*
X117665500Y-90034830D01*
X117711865Y-90267923D01*
X117802813Y-90487492D01*
X117934850Y-90685099D01*
X118102901Y-90853150D01*
X118300508Y-90985187D01*
X118520077Y-91076135D01*
X118753170Y-91122500D01*
X118990830Y-91122500D01*
X119223923Y-91076135D01*
X119443492Y-90985187D01*
X119641099Y-90853150D01*
X119809150Y-90685099D01*
X119941187Y-90487492D01*
X120032135Y-90267923D01*
X120035103Y-90253000D01*
X122000542Y-90253000D01*
X122003000Y-90487500D01*
X122130000Y-90614500D01*
X122872500Y-90614500D01*
X122872500Y-89872000D01*
X122745500Y-89745000D01*
X122511000Y-89742542D01*
X122411415Y-89752350D01*
X122315656Y-89781398D01*
X122227405Y-89828570D01*
X122150052Y-89892052D01*
X122086570Y-89969405D01*
X122039398Y-90057656D01*
X122010350Y-90153415D01*
X122000542Y-90253000D01*
X120035103Y-90253000D01*
X120078500Y-90034830D01*
X120078500Y-89797170D01*
X120032135Y-89564077D01*
X120005007Y-89498585D01*
X120037719Y-89465873D01*
X120057026Y-89450028D01*
X120120258Y-89372980D01*
X120167244Y-89285076D01*
X120196177Y-89189694D01*
X120203499Y-89115355D01*
X120205947Y-89090501D01*
X120203499Y-89065647D01*
X120203499Y-88233692D01*
X120211887Y-88253942D01*
X120297358Y-88381859D01*
X120406141Y-88490642D01*
X120534058Y-88576113D01*
X120676191Y-88634987D01*
X120827078Y-88665000D01*
X120980922Y-88665000D01*
X121131809Y-88634987D01*
X121273942Y-88576113D01*
X121401859Y-88490642D01*
X121502501Y-88390000D01*
X121799154Y-88390000D01*
X121824000Y-88392447D01*
X121848846Y-88390000D01*
X121848854Y-88390000D01*
X121923193Y-88382678D01*
X122018575Y-88353745D01*
X122106479Y-88306759D01*
X122183527Y-88243527D01*
X122199376Y-88224215D01*
X122235748Y-88187843D01*
X122665500Y-88187843D01*
X122786523Y-88175923D01*
X122902895Y-88140622D01*
X123010144Y-88083296D01*
X123104149Y-88006149D01*
X123181296Y-87912144D01*
X123238622Y-87804895D01*
X123273923Y-87688523D01*
X123285843Y-87567500D01*
X123285843Y-86992500D01*
X123275354Y-86886010D01*
X123357919Y-86886010D01*
X123602157Y-87130248D01*
X123602157Y-87522500D01*
X123614077Y-87643523D01*
X123649378Y-87759895D01*
X123706704Y-87867144D01*
X123783851Y-87961149D01*
X123877856Y-88038296D01*
X123985105Y-88095622D01*
X124101477Y-88130923D01*
X124222500Y-88142843D01*
X124697500Y-88142843D01*
X124818523Y-88130923D01*
X124934895Y-88095622D01*
X125042144Y-88038296D01*
X125136149Y-87961149D01*
X125213296Y-87867144D01*
X125270622Y-87759895D01*
X125305923Y-87643523D01*
X125317843Y-87522500D01*
X125317843Y-87022500D01*
X125305923Y-86901477D01*
X125270622Y-86785105D01*
X125213296Y-86677856D01*
X125136149Y-86583851D01*
X125051644Y-86514500D01*
X125634157Y-86514500D01*
X125634157Y-87014500D01*
X125646077Y-87135523D01*
X125681378Y-87251895D01*
X125738704Y-87359144D01*
X125815851Y-87453149D01*
X125909856Y-87530296D01*
X126017105Y-87587622D01*
X126133477Y-87622923D01*
X126254500Y-87634843D01*
X126729500Y-87634843D01*
X126850523Y-87622923D01*
X126966895Y-87587622D01*
X127074144Y-87530296D01*
X127168149Y-87453149D01*
X127245296Y-87359144D01*
X127292677Y-87270500D01*
X127723323Y-87270500D01*
X127770704Y-87359144D01*
X127847851Y-87453149D01*
X127941856Y-87530296D01*
X128049105Y-87587622D01*
X128165477Y-87622923D01*
X128286500Y-87634843D01*
X128761500Y-87634843D01*
X128882523Y-87622923D01*
X128998895Y-87587622D01*
X129106144Y-87530296D01*
X129200149Y-87453149D01*
X129277296Y-87359144D01*
X129334622Y-87251895D01*
X129369923Y-87135523D01*
X129381843Y-87014500D01*
X129381843Y-86584000D01*
X134461157Y-86584000D01*
X134461157Y-89184000D01*
X134468513Y-89258689D01*
X134490299Y-89330508D01*
X134525678Y-89396696D01*
X134573289Y-89454711D01*
X134631304Y-89502322D01*
X134697492Y-89537701D01*
X134769311Y-89559487D01*
X134844000Y-89566843D01*
X137444000Y-89566843D01*
X137518689Y-89559487D01*
X137590508Y-89537701D01*
X137656696Y-89502322D01*
X137714711Y-89454711D01*
X137762322Y-89396696D01*
X137797701Y-89330508D01*
X137819487Y-89258689D01*
X137826843Y-89184000D01*
X137826843Y-86584000D01*
X137819487Y-86509311D01*
X137797701Y-86437492D01*
X137762322Y-86371304D01*
X137714711Y-86313289D01*
X137656696Y-86265678D01*
X137590508Y-86230299D01*
X137518689Y-86208513D01*
X137444000Y-86201157D01*
X134844000Y-86201157D01*
X134769311Y-86208513D01*
X134697492Y-86230299D01*
X134631304Y-86265678D01*
X134573289Y-86313289D01*
X134525678Y-86371304D01*
X134490299Y-86437492D01*
X134468513Y-86509311D01*
X134461157Y-86584000D01*
X129381843Y-86584000D01*
X129381843Y-86439500D01*
X129369923Y-86318477D01*
X129334622Y-86202105D01*
X129277296Y-86094856D01*
X129200149Y-86000851D01*
X129174340Y-85979670D01*
X129194344Y-85973602D01*
X129282595Y-85926430D01*
X129359948Y-85862948D01*
X129423430Y-85785595D01*
X129470602Y-85697344D01*
X129499650Y-85601585D01*
X129509458Y-85502000D01*
X129507000Y-85167500D01*
X129380000Y-85040500D01*
X128587500Y-85040500D01*
X128587500Y-85060500D01*
X128460500Y-85060500D01*
X128460500Y-85040500D01*
X127668000Y-85040500D01*
X127541000Y-85167500D01*
X127538542Y-85502000D01*
X127548350Y-85601585D01*
X127577398Y-85697344D01*
X127624570Y-85785595D01*
X127688052Y-85862948D01*
X127765405Y-85926430D01*
X127853656Y-85973602D01*
X127873660Y-85979670D01*
X127847851Y-86000851D01*
X127770704Y-86094856D01*
X127713378Y-86202105D01*
X127696271Y-86258500D01*
X127292677Y-86258500D01*
X127245296Y-86169856D01*
X127168149Y-86075851D01*
X127074144Y-85998704D01*
X126966895Y-85941378D01*
X126850523Y-85906077D01*
X126729500Y-85894157D01*
X126254500Y-85894157D01*
X126133477Y-85906077D01*
X126017105Y-85941378D01*
X125909856Y-85998704D01*
X125815851Y-86075851D01*
X125738704Y-86169856D01*
X125681378Y-86277105D01*
X125646077Y-86393477D01*
X125634157Y-86514500D01*
X125051644Y-86514500D01*
X125042144Y-86506704D01*
X124934895Y-86449378D01*
X124818523Y-86414077D01*
X124697500Y-86402157D01*
X124305248Y-86402157D01*
X124220763Y-86317672D01*
X124222500Y-86317843D01*
X124697500Y-86317843D01*
X124818523Y-86305923D01*
X124934895Y-86270622D01*
X125042144Y-86213296D01*
X125136149Y-86136149D01*
X125213296Y-86042144D01*
X125270622Y-85934895D01*
X125305923Y-85818523D01*
X125317843Y-85697500D01*
X125317843Y-85197500D01*
X125305923Y-85076477D01*
X125294308Y-85038187D01*
X125337942Y-85020113D01*
X125465859Y-84934642D01*
X125566501Y-84834000D01*
X125634157Y-84834000D01*
X125634157Y-85189500D01*
X125646077Y-85310523D01*
X125681378Y-85426895D01*
X125738704Y-85534144D01*
X125815851Y-85628149D01*
X125909856Y-85705296D01*
X126017105Y-85762622D01*
X126133477Y-85797923D01*
X126254500Y-85809843D01*
X126729500Y-85809843D01*
X126850523Y-85797923D01*
X126966895Y-85762622D01*
X127074144Y-85705296D01*
X127168149Y-85628149D01*
X127245296Y-85534144D01*
X127302622Y-85426895D01*
X127337923Y-85310523D01*
X127349843Y-85189500D01*
X127349843Y-84689500D01*
X127337923Y-84568477D01*
X127302622Y-84452105D01*
X127302566Y-84452000D01*
X127538542Y-84452000D01*
X127541000Y-84786500D01*
X127668000Y-84913500D01*
X128460500Y-84913500D01*
X128460500Y-84893500D01*
X128587500Y-84893500D01*
X128587500Y-84913500D01*
X129380000Y-84913500D01*
X129507000Y-84786500D01*
X129509458Y-84452000D01*
X129499650Y-84352415D01*
X129470602Y-84256656D01*
X129423430Y-84168405D01*
X129359948Y-84091052D01*
X129283233Y-84028093D01*
X129329602Y-83941344D01*
X129358650Y-83845585D01*
X129368458Y-83746000D01*
X129366000Y-83486500D01*
X129239000Y-83359500D01*
X128521500Y-83359500D01*
X128521500Y-83379500D01*
X128394500Y-83379500D01*
X128394500Y-83359500D01*
X127677000Y-83359500D01*
X127550000Y-83486500D01*
X127547542Y-83746000D01*
X127557350Y-83845585D01*
X127586398Y-83941344D01*
X127633570Y-84029595D01*
X127686029Y-84093517D01*
X127624570Y-84168405D01*
X127577398Y-84256656D01*
X127548350Y-84352415D01*
X127538542Y-84452000D01*
X127302566Y-84452000D01*
X127245296Y-84344856D01*
X127168149Y-84250851D01*
X127074144Y-84173704D01*
X126998000Y-84133004D01*
X126998000Y-84124903D01*
X127032689Y-84121487D01*
X127104508Y-84099701D01*
X127170696Y-84064322D01*
X127228711Y-84016711D01*
X127276322Y-83958696D01*
X127311701Y-83892508D01*
X127333487Y-83820689D01*
X127340843Y-83746000D01*
X127340843Y-82931000D01*
X127548347Y-82931000D01*
X127550000Y-83105500D01*
X127677000Y-83232500D01*
X128394500Y-83232500D01*
X128394500Y-83212500D01*
X128521500Y-83212500D01*
X128521500Y-83232500D01*
X129239000Y-83232500D01*
X129366000Y-83105500D01*
X129367653Y-82931000D01*
X131445000Y-82931000D01*
X131445000Y-84836000D01*
X131457201Y-84959882D01*
X131493336Y-85079004D01*
X131552017Y-85188787D01*
X131630987Y-85285013D01*
X131727213Y-85363983D01*
X131836996Y-85422664D01*
X131956118Y-85458799D01*
X132080000Y-85471000D01*
X138176000Y-85471000D01*
X138299882Y-85458799D01*
X138419004Y-85422664D01*
X138528787Y-85363983D01*
X138625013Y-85285013D01*
X138703983Y-85188787D01*
X138762664Y-85079004D01*
X138798799Y-84959882D01*
X138811000Y-84836000D01*
X138811000Y-78892000D01*
X142728147Y-78892000D01*
X142964771Y-78915201D01*
X143173296Y-78978158D01*
X143365613Y-79080415D01*
X143534410Y-79218082D01*
X143673250Y-79385911D01*
X143776848Y-79577513D01*
X143841258Y-79785588D01*
X143866001Y-80021000D01*
X143866000Y-90404147D01*
X143842799Y-90640775D01*
X143779841Y-90849296D01*
X143677583Y-91041616D01*
X143539918Y-91210409D01*
X143372090Y-91349249D01*
X143180491Y-91452847D01*
X142972414Y-91517258D01*
X142737009Y-91542000D01*
X123617337Y-91542000D01*
X123644595Y-91527430D01*
X123721948Y-91463948D01*
X123726700Y-91458158D01*
X123856616Y-91484000D01*
X124015384Y-91484000D01*
X124171102Y-91453026D01*
X124317784Y-91392268D01*
X124436000Y-91313279D01*
X124554216Y-91392268D01*
X124700898Y-91453026D01*
X124856616Y-91484000D01*
X125015384Y-91484000D01*
X125171102Y-91453026D01*
X125317784Y-91392268D01*
X125449795Y-91304061D01*
X125562061Y-91191795D01*
X125650268Y-91059784D01*
X125711026Y-90913102D01*
X125742000Y-90757384D01*
X125742000Y-90598616D01*
X125711026Y-90442898D01*
X125650268Y-90296216D01*
X125562061Y-90164205D01*
X125449795Y-90051939D01*
X125317784Y-89963732D01*
X125171102Y-89902974D01*
X125015384Y-89872000D01*
X124856616Y-89872000D01*
X124700898Y-89902974D01*
X124554216Y-89963732D01*
X124436000Y-90042721D01*
X124317784Y-89963732D01*
X124171102Y-89902974D01*
X124015384Y-89872000D01*
X123856616Y-89872000D01*
X123726700Y-89897842D01*
X123721948Y-89892052D01*
X123644595Y-89828570D01*
X123556344Y-89781398D01*
X123460585Y-89752350D01*
X123361000Y-89742542D01*
X123126500Y-89745000D01*
X122999500Y-89872000D01*
X122999500Y-90614500D01*
X123019500Y-90614500D01*
X123019500Y-90741500D01*
X122999500Y-90741500D01*
X122999500Y-90761500D01*
X122872500Y-90761500D01*
X122872500Y-90741500D01*
X122130000Y-90741500D01*
X122003000Y-90868500D01*
X122000542Y-91103000D01*
X122010350Y-91202585D01*
X122039398Y-91298344D01*
X122086570Y-91386595D01*
X122150052Y-91463948D01*
X122227405Y-91527430D01*
X122254663Y-91542000D01*
X90443853Y-91542000D01*
X90207225Y-91518799D01*
X89998704Y-91455841D01*
X89806384Y-91353583D01*
X89637591Y-91215918D01*
X89498751Y-91048090D01*
X89395153Y-90856491D01*
X89330742Y-90648414D01*
X89306000Y-90413009D01*
X89306000Y-89797170D01*
X107665520Y-89797170D01*
X107665520Y-90034830D01*
X107711885Y-90267923D01*
X107802833Y-90487492D01*
X107934870Y-90685099D01*
X108102921Y-90853150D01*
X108300528Y-90985187D01*
X108520097Y-91076135D01*
X108753190Y-91122500D01*
X108990850Y-91122500D01*
X109223943Y-91076135D01*
X109443512Y-90985187D01*
X109641119Y-90853150D01*
X109809170Y-90685099D01*
X109941207Y-90487492D01*
X110032155Y-90267923D01*
X110078520Y-90034830D01*
X110078520Y-89797170D01*
X110032155Y-89564077D01*
X109941207Y-89344508D01*
X109809170Y-89146901D01*
X109641119Y-88978850D01*
X109443512Y-88846813D01*
X109223943Y-88755865D01*
X108990850Y-88709500D01*
X108753190Y-88709500D01*
X108520097Y-88755865D01*
X108300528Y-88846813D01*
X108102921Y-88978850D01*
X107934870Y-89146901D01*
X107802833Y-89344508D01*
X107711885Y-89564077D01*
X107665520Y-89797170D01*
X89306000Y-89797170D01*
X89306000Y-87718436D01*
X95347000Y-87718436D01*
X95347000Y-88049564D01*
X95411600Y-88374330D01*
X95538317Y-88680252D01*
X95722282Y-88955575D01*
X95956425Y-89189718D01*
X96231748Y-89373683D01*
X96537670Y-89500400D01*
X96862436Y-89565000D01*
X97193564Y-89565000D01*
X97518330Y-89500400D01*
X97824252Y-89373683D01*
X98099575Y-89189718D01*
X98333718Y-88955575D01*
X98517683Y-88680252D01*
X98644400Y-88374330D01*
X98709000Y-88049564D01*
X98709000Y-87718436D01*
X98644400Y-87393670D01*
X98517683Y-87087748D01*
X98333718Y-86812425D01*
X98099575Y-86578282D01*
X97824252Y-86394317D01*
X97518330Y-86267600D01*
X97193564Y-86203000D01*
X96862436Y-86203000D01*
X96537670Y-86267600D01*
X96231748Y-86394317D01*
X95956425Y-86578282D01*
X95722282Y-86812425D01*
X95538317Y-87087748D01*
X95411600Y-87393670D01*
X95347000Y-87718436D01*
X89306000Y-87718436D01*
X89306000Y-86010000D01*
X103154542Y-86010000D01*
X103164350Y-86109585D01*
X103193398Y-86205344D01*
X103240570Y-86293595D01*
X103304052Y-86370948D01*
X103381405Y-86434430D01*
X103469656Y-86481602D01*
X103489660Y-86487670D01*
X103463851Y-86508851D01*
X103386704Y-86602856D01*
X103329378Y-86710105D01*
X103294077Y-86826477D01*
X103282157Y-86947500D01*
X103282157Y-87522500D01*
X103294077Y-87643523D01*
X103329378Y-87759895D01*
X103386704Y-87867144D01*
X103463851Y-87961149D01*
X103557856Y-88038296D01*
X103665105Y-88095622D01*
X103781477Y-88130923D01*
X103902500Y-88142843D01*
X104377500Y-88142843D01*
X104498523Y-88130923D01*
X104614895Y-88095622D01*
X104722144Y-88038296D01*
X104816149Y-87961149D01*
X104893296Y-87867144D01*
X104940677Y-87778500D01*
X105371323Y-87778500D01*
X105418704Y-87867144D01*
X105495851Y-87961149D01*
X105589856Y-88038296D01*
X105697105Y-88095622D01*
X105813477Y-88130923D01*
X105934500Y-88142843D01*
X106409500Y-88142843D01*
X106530523Y-88130923D01*
X106646895Y-88095622D01*
X106754144Y-88038296D01*
X106848149Y-87961149D01*
X106925296Y-87867144D01*
X106982622Y-87759895D01*
X107017923Y-87643523D01*
X107029843Y-87522500D01*
X107029843Y-87022500D01*
X107017923Y-86901477D01*
X106982622Y-86785105D01*
X106925296Y-86677856D01*
X106848149Y-86583851D01*
X106754144Y-86506704D01*
X106646895Y-86449378D01*
X106530523Y-86414077D01*
X106409500Y-86402157D01*
X105934500Y-86402157D01*
X105813477Y-86414077D01*
X105697105Y-86449378D01*
X105589856Y-86506704D01*
X105495851Y-86583851D01*
X105418704Y-86677856D01*
X105371323Y-86766500D01*
X104967729Y-86766500D01*
X104950622Y-86710105D01*
X104893296Y-86602856D01*
X104816149Y-86508851D01*
X104790340Y-86487670D01*
X104810344Y-86481602D01*
X104898595Y-86434430D01*
X104975948Y-86370948D01*
X105039430Y-86293595D01*
X105086602Y-86205344D01*
X105115650Y-86109585D01*
X105125458Y-86010000D01*
X105123000Y-85675500D01*
X104996000Y-85548500D01*
X104203500Y-85548500D01*
X104203500Y-85568500D01*
X104076500Y-85568500D01*
X104076500Y-85548500D01*
X103284000Y-85548500D01*
X103157000Y-85675500D01*
X103154542Y-86010000D01*
X89306000Y-86010000D01*
X89306000Y-84184000D01*
X95217542Y-84184000D01*
X95227350Y-84283585D01*
X95256398Y-84379344D01*
X95303570Y-84467595D01*
X95367052Y-84544948D01*
X95444405Y-84608430D01*
X95532656Y-84655602D01*
X95628415Y-84684650D01*
X95728000Y-84694458D01*
X96837500Y-84692000D01*
X96964500Y-84565000D01*
X96964500Y-82947500D01*
X97091500Y-82947500D01*
X97091500Y-84565000D01*
X97218500Y-84692000D01*
X98328000Y-84694458D01*
X98427585Y-84684650D01*
X98523344Y-84655602D01*
X98611595Y-84608430D01*
X98688948Y-84544948D01*
X98752430Y-84467595D01*
X98799602Y-84379344D01*
X98828650Y-84283585D01*
X98838458Y-84184000D01*
X98836000Y-83074500D01*
X98709000Y-82947500D01*
X97091500Y-82947500D01*
X96964500Y-82947500D01*
X95347000Y-82947500D01*
X95220000Y-83074500D01*
X95217542Y-84184000D01*
X89306000Y-84184000D01*
X89306000Y-81584000D01*
X95217542Y-81584000D01*
X95220000Y-82693500D01*
X95347000Y-82820500D01*
X96964500Y-82820500D01*
X96964500Y-81203000D01*
X97091500Y-81203000D01*
X97091500Y-82820500D01*
X98709000Y-82820500D01*
X98836000Y-82693500D01*
X98838458Y-81584000D01*
X98828650Y-81484415D01*
X98804257Y-81404000D01*
X103154542Y-81404000D01*
X103157000Y-81751000D01*
X103284000Y-81878000D01*
X104076500Y-81878000D01*
X104076500Y-81023000D01*
X104203500Y-81023000D01*
X104203500Y-81878000D01*
X104996000Y-81878000D01*
X105123000Y-81751000D01*
X105125458Y-81404000D01*
X105186542Y-81404000D01*
X105189000Y-81751000D01*
X105316000Y-81878000D01*
X106108500Y-81878000D01*
X106108500Y-81023000D01*
X106235500Y-81023000D01*
X106235500Y-81878000D01*
X107028000Y-81878000D01*
X107155000Y-81751000D01*
X107155963Y-81615000D01*
X107291542Y-81615000D01*
X107294000Y-81724500D01*
X107421000Y-81851500D01*
X108713500Y-81851500D01*
X108713500Y-81234000D01*
X108840500Y-81234000D01*
X108840500Y-81851500D01*
X110133000Y-81851500D01*
X110260000Y-81724500D01*
X110262458Y-81615000D01*
X110252650Y-81515415D01*
X110223602Y-81419656D01*
X110176430Y-81331405D01*
X110112948Y-81254052D01*
X110035595Y-81190570D01*
X109947344Y-81143398D01*
X109851585Y-81114350D01*
X109752000Y-81104542D01*
X108967500Y-81107000D01*
X108840500Y-81234000D01*
X108713500Y-81234000D01*
X108586500Y-81107000D01*
X107802000Y-81104542D01*
X107702415Y-81114350D01*
X107606656Y-81143398D01*
X107518405Y-81190570D01*
X107441052Y-81254052D01*
X107377570Y-81331405D01*
X107330398Y-81419656D01*
X107301350Y-81515415D01*
X107291542Y-81615000D01*
X107155963Y-81615000D01*
X107157458Y-81404000D01*
X107147650Y-81304415D01*
X107118602Y-81208656D01*
X107071430Y-81120405D01*
X107007948Y-81043052D01*
X106930595Y-80979570D01*
X106842344Y-80932398D01*
X106746585Y-80903350D01*
X106647000Y-80893542D01*
X106362500Y-80896000D01*
X106235500Y-81023000D01*
X106108500Y-81023000D01*
X105981500Y-80896000D01*
X105697000Y-80893542D01*
X105597415Y-80903350D01*
X105501656Y-80932398D01*
X105413405Y-80979570D01*
X105336052Y-81043052D01*
X105272570Y-81120405D01*
X105225398Y-81208656D01*
X105196350Y-81304415D01*
X105186542Y-81404000D01*
X105125458Y-81404000D01*
X105115650Y-81304415D01*
X105086602Y-81208656D01*
X105039430Y-81120405D01*
X104975948Y-81043052D01*
X104898595Y-80979570D01*
X104810344Y-80932398D01*
X104714585Y-80903350D01*
X104615000Y-80893542D01*
X104330500Y-80896000D01*
X104203500Y-81023000D01*
X104076500Y-81023000D01*
X103949500Y-80896000D01*
X103665000Y-80893542D01*
X103565415Y-80903350D01*
X103469656Y-80932398D01*
X103381405Y-80979570D01*
X103304052Y-81043052D01*
X103240570Y-81120405D01*
X103193398Y-81208656D01*
X103164350Y-81304415D01*
X103154542Y-81404000D01*
X98804257Y-81404000D01*
X98799602Y-81388656D01*
X98752430Y-81300405D01*
X98688948Y-81223052D01*
X98611595Y-81159570D01*
X98523344Y-81112398D01*
X98427585Y-81083350D01*
X98328000Y-81073542D01*
X97218500Y-81076000D01*
X97091500Y-81203000D01*
X96964500Y-81203000D01*
X96837500Y-81076000D01*
X95728000Y-81073542D01*
X95628415Y-81083350D01*
X95532656Y-81112398D01*
X95444405Y-81159570D01*
X95367052Y-81223052D01*
X95303570Y-81300405D01*
X95256398Y-81388656D01*
X95227350Y-81484415D01*
X95217542Y-81584000D01*
X89306000Y-81584000D01*
X89306000Y-80029853D01*
X89329201Y-79793229D01*
X89392158Y-79584704D01*
X89494415Y-79392387D01*
X89632082Y-79223590D01*
X89799911Y-79084750D01*
X89991513Y-78981152D01*
X90199588Y-78916742D01*
X90434991Y-78892000D01*
X110825764Y-78892000D01*
X110741022Y-78908856D01*
%TA.AperFunction,Conductor*%
D20*
G36*
X110741022Y-78908856D02*
G01*
X110580690Y-78975268D01*
X110436395Y-79071682D01*
X110313682Y-79194395D01*
X110217268Y-79338690D01*
X110150856Y-79499022D01*
X110117000Y-79669229D01*
X110117000Y-79842771D01*
X110150856Y-80012978D01*
X110217268Y-80173310D01*
X110313682Y-80317605D01*
X110436395Y-80440318D01*
X110492000Y-80477472D01*
X110492001Y-82074146D01*
X110489553Y-82099002D01*
X110499322Y-82198194D01*
X110528255Y-82293576D01*
X110539310Y-82314258D01*
X110575242Y-82381481D01*
X110638474Y-82458529D01*
X110657780Y-82474373D01*
X111708626Y-83525220D01*
X111724471Y-83544527D01*
X111801519Y-83607759D01*
X111870215Y-83644478D01*
X111889423Y-83654745D01*
X111984804Y-83683678D01*
X111994692Y-83684652D01*
X112059144Y-83691000D01*
X112059151Y-83691000D01*
X112083997Y-83693447D01*
X112108843Y-83691000D01*
X112508172Y-83691000D01*
X112525223Y-83711777D01*
X112605968Y-83778043D01*
X112684464Y-83820000D01*
X112605968Y-83861957D01*
X112525223Y-83928223D01*
X112508172Y-83949000D01*
X111231592Y-83949000D01*
X110127376Y-82844785D01*
X110111527Y-82825473D01*
X110075459Y-82795873D01*
X110045043Y-82738968D01*
X109985381Y-82666270D01*
X110035595Y-82639430D01*
X110112948Y-82575948D01*
X110176430Y-82498595D01*
X110223602Y-82410344D01*
X110252650Y-82314585D01*
X110262458Y-82215000D01*
X110260000Y-82105500D01*
X110133000Y-81978500D01*
X108840500Y-81978500D01*
X108840500Y-81998500D01*
X108713500Y-81998500D01*
X108713500Y-81978500D01*
X107421000Y-81978500D01*
X107294000Y-82105500D01*
X107291542Y-82215000D01*
X107301350Y-82314585D01*
X107330398Y-82410344D01*
X107377570Y-82498595D01*
X107441052Y-82575948D01*
X107518405Y-82639430D01*
X107568619Y-82666270D01*
X107508957Y-82738968D01*
X107459717Y-82831090D01*
X107429395Y-82931047D01*
X107419157Y-83035000D01*
X107419157Y-83160500D01*
X106992146Y-83160500D01*
X106982622Y-83129105D01*
X106925296Y-83021856D01*
X106859357Y-82941508D01*
X106930595Y-82903430D01*
X107007948Y-82839948D01*
X107071430Y-82762595D01*
X107118602Y-82674344D01*
X107147650Y-82578585D01*
X107157458Y-82479000D01*
X107155000Y-82132000D01*
X107028000Y-82005000D01*
X106235500Y-82005000D01*
X106235500Y-82025000D01*
X106108500Y-82025000D01*
X106108500Y-82005000D01*
X105316000Y-82005000D01*
X105189000Y-82132000D01*
X105186542Y-82479000D01*
X105196350Y-82578585D01*
X105225398Y-82674344D01*
X105272570Y-82762595D01*
X105336052Y-82839948D01*
X105413405Y-82903430D01*
X105484643Y-82941508D01*
X105418704Y-83021856D01*
X105361378Y-83129105D01*
X105351854Y-83160500D01*
X104960146Y-83160500D01*
X104950622Y-83129105D01*
X104893296Y-83021856D01*
X104827357Y-82941508D01*
X104898595Y-82903430D01*
X104975948Y-82839948D01*
X105039430Y-82762595D01*
X105086602Y-82674344D01*
X105115650Y-82578585D01*
X105125458Y-82479000D01*
X105123000Y-82132000D01*
X104996000Y-82005000D01*
X104203500Y-82005000D01*
X104203500Y-82025000D01*
X104076500Y-82025000D01*
X104076500Y-82005000D01*
X103284000Y-82005000D01*
X103157000Y-82132000D01*
X103154542Y-82479000D01*
X103164350Y-82578585D01*
X103193398Y-82674344D01*
X103240570Y-82762595D01*
X103304052Y-82839948D01*
X103381405Y-82903430D01*
X103452643Y-82941508D01*
X103386704Y-83021856D01*
X103329378Y-83129105D01*
X103294077Y-83245477D01*
X103282157Y-83366500D01*
X103282157Y-83966500D01*
X103294077Y-84087523D01*
X103329378Y-84203895D01*
X103386704Y-84311144D01*
X103463851Y-84405149D01*
X103539482Y-84467217D01*
X103469656Y-84488398D01*
X103381405Y-84535570D01*
X103304052Y-84599052D01*
X103240570Y-84676405D01*
X103193398Y-84764656D01*
X103164350Y-84860415D01*
X103154542Y-84960000D01*
X103157000Y-85294500D01*
X103284000Y-85421500D01*
X104076500Y-85421500D01*
X104076500Y-85401500D01*
X104203500Y-85401500D01*
X104203500Y-85421500D01*
X104996000Y-85421500D01*
X105123000Y-85294500D01*
X105125458Y-84960000D01*
X105115650Y-84860415D01*
X105086602Y-84764656D01*
X105039430Y-84676405D01*
X104975948Y-84599052D01*
X104898595Y-84535570D01*
X104810344Y-84488398D01*
X104740518Y-84467217D01*
X104816149Y-84405149D01*
X104893296Y-84311144D01*
X104950622Y-84203895D01*
X104960146Y-84172500D01*
X105351854Y-84172500D01*
X105361378Y-84203895D01*
X105418704Y-84311144D01*
X105495851Y-84405149D01*
X105589856Y-84482296D01*
X105697105Y-84539622D01*
X105813477Y-84574923D01*
X105885329Y-84582000D01*
X105813477Y-84589077D01*
X105697105Y-84624378D01*
X105589856Y-84681704D01*
X105495851Y-84758851D01*
X105418704Y-84852856D01*
X105361378Y-84960105D01*
X105326077Y-85076477D01*
X105314157Y-85197500D01*
X105314157Y-85697500D01*
X105326077Y-85818523D01*
X105361378Y-85934895D01*
X105418704Y-86042144D01*
X105495851Y-86136149D01*
X105589856Y-86213296D01*
X105697105Y-86270622D01*
X105813477Y-86305923D01*
X105934500Y-86317843D01*
X106409500Y-86317843D01*
X106530523Y-86305923D01*
X106646895Y-86270622D01*
X106754144Y-86213296D01*
X106848149Y-86136149D01*
X106925296Y-86042144D01*
X106972677Y-85953500D01*
X107426888Y-85953500D01*
X107429395Y-85978953D01*
X107459717Y-86078910D01*
X107508957Y-86171032D01*
X107575223Y-86251777D01*
X107655968Y-86318043D01*
X107748090Y-86367283D01*
X107848047Y-86397605D01*
X107952000Y-86407843D01*
X108319370Y-86407843D01*
X108351926Y-86425245D01*
X108447308Y-86454178D01*
X108546500Y-86463947D01*
X108645692Y-86454178D01*
X108741074Y-86425245D01*
X108773630Y-86407843D01*
X109602000Y-86407843D01*
X109705953Y-86397605D01*
X109805910Y-86367283D01*
X109898032Y-86318043D01*
X109946596Y-86278187D01*
X110979000Y-87310592D01*
X110979000Y-87452922D01*
X111009013Y-87603809D01*
X111067887Y-87745942D01*
X111153358Y-87873859D01*
X111262141Y-87982642D01*
X111390058Y-88068113D01*
X111532191Y-88126987D01*
X111683078Y-88157000D01*
X111836922Y-88157000D01*
X111987809Y-88126987D01*
X112129942Y-88068113D01*
X112257859Y-87982642D01*
X112366642Y-87873859D01*
X112452113Y-87745942D01*
X112510987Y-87603809D01*
X112541000Y-87452922D01*
X112541000Y-87299078D01*
X112510987Y-87148191D01*
X112452113Y-87006058D01*
X112366642Y-86878141D01*
X112257859Y-86769358D01*
X112129942Y-86683887D01*
X111987809Y-86625013D01*
X111836922Y-86595000D01*
X111694592Y-86595000D01*
X111224591Y-86125000D01*
X111328922Y-86125000D01*
X111479809Y-86094987D01*
X111621942Y-86036113D01*
X111749859Y-85950642D01*
X111858642Y-85841859D01*
X111920990Y-85748548D01*
X111920990Y-86046911D01*
X111918543Y-86071758D01*
X111920990Y-86096604D01*
X111920990Y-86096611D01*
X111928312Y-86170950D01*
X111957245Y-86266332D01*
X112004231Y-86354237D01*
X112067463Y-86431285D01*
X112086775Y-86447134D01*
X113344421Y-87704781D01*
X113344420Y-88819685D01*
X113278928Y-88846813D01*
X113081321Y-88978850D01*
X112913270Y-89146901D01*
X112781233Y-89344508D01*
X112690285Y-89564077D01*
X112643920Y-89797170D01*
X112643920Y-90034830D01*
X112690285Y-90267923D01*
X112781233Y-90487492D01*
X112913270Y-90685099D01*
X113081321Y-90853150D01*
X113278928Y-90985187D01*
X113498497Y-91076135D01*
X113731590Y-91122500D01*
X113969250Y-91122500D01*
X114202343Y-91076135D01*
X114421912Y-90985187D01*
X114619519Y-90853150D01*
X114787570Y-90685099D01*
X114919607Y-90487492D01*
X115010555Y-90267923D01*
X115056920Y-90034830D01*
X115056920Y-89797170D01*
X115010555Y-89564077D01*
X114919607Y-89344508D01*
X114787570Y-89146901D01*
X114619519Y-88978850D01*
X114421912Y-88846813D01*
X114356420Y-88819685D01*
X114356420Y-88001188D01*
X116981050Y-88001188D01*
X117008856Y-88140978D01*
X117075268Y-88301310D01*
X117171682Y-88445605D01*
X117294395Y-88568318D01*
X117438690Y-88664732D01*
X117599022Y-88731144D01*
X117769229Y-88765000D01*
X117942771Y-88765000D01*
X118112978Y-88731144D01*
X118273310Y-88664732D01*
X118417605Y-88568318D01*
X118540318Y-88445605D01*
X118636732Y-88301310D01*
X118703144Y-88140978D01*
X118737000Y-87970771D01*
X118737000Y-87797229D01*
X118703144Y-87627022D01*
X118636732Y-87466690D01*
X118540318Y-87322395D01*
X118417605Y-87199682D01*
X118273310Y-87103268D01*
X118112978Y-87036856D01*
X117942771Y-87003000D01*
X117769229Y-87003000D01*
X117659639Y-87024799D01*
X117566381Y-86996510D01*
X117492042Y-86989188D01*
X117492034Y-86989188D01*
X117467188Y-86986741D01*
X117442342Y-86989188D01*
X114060012Y-86989188D01*
X113478666Y-86407843D01*
X114552000Y-86407843D01*
X114655953Y-86397605D01*
X114755910Y-86367283D01*
X114848032Y-86318043D01*
X114928777Y-86251777D01*
X114945828Y-86231000D01*
X115583289Y-86231000D01*
X115612378Y-86326895D01*
X115669704Y-86434144D01*
X115746851Y-86528149D01*
X115840856Y-86605296D01*
X115948105Y-86662622D01*
X116064477Y-86697923D01*
X116185500Y-86709843D01*
X116785500Y-86709843D01*
X116906523Y-86697923D01*
X117022895Y-86662622D01*
X117130144Y-86605296D01*
X117210492Y-86539357D01*
X117248570Y-86610595D01*
X117312052Y-86687948D01*
X117389405Y-86751430D01*
X117477656Y-86798602D01*
X117573415Y-86827650D01*
X117673000Y-86837458D01*
X118020000Y-86835000D01*
X118147000Y-86708000D01*
X118147000Y-85915500D01*
X118127000Y-85915500D01*
X118127000Y-85788500D01*
X118147000Y-85788500D01*
X118147000Y-84996000D01*
X118020000Y-84869000D01*
X117673000Y-84866542D01*
X117573415Y-84876350D01*
X117477656Y-84905398D01*
X117389405Y-84952570D01*
X117312052Y-85016052D01*
X117248570Y-85093405D01*
X117210492Y-85164643D01*
X117130144Y-85098704D01*
X117022895Y-85041378D01*
X116906523Y-85006077D01*
X116785500Y-84994157D01*
X116185500Y-84994157D01*
X116064477Y-85006077D01*
X115948105Y-85041378D01*
X115840856Y-85098704D01*
X115746851Y-85175851D01*
X115711440Y-85219000D01*
X114945828Y-85219000D01*
X114928777Y-85198223D01*
X114848032Y-85131957D01*
X114769536Y-85090000D01*
X114848032Y-85048043D01*
X114928777Y-84981777D01*
X114995043Y-84901032D01*
X115044283Y-84808910D01*
X115074605Y-84708953D01*
X115084843Y-84605000D01*
X115084843Y-84305000D01*
X115074605Y-84201047D01*
X115044283Y-84101090D01*
X114995043Y-84008968D01*
X114928777Y-83928223D01*
X114848032Y-83861957D01*
X114769536Y-83820000D01*
X114848032Y-83778043D01*
X114928777Y-83711777D01*
X114945828Y-83691000D01*
X115474157Y-83691000D01*
X115474157Y-83966500D01*
X115486077Y-84087523D01*
X115521378Y-84203895D01*
X115578704Y-84311144D01*
X115655851Y-84405149D01*
X115749856Y-84482296D01*
X115857105Y-84539622D01*
X115973477Y-84574923D01*
X116094500Y-84586843D01*
X116569500Y-84586843D01*
X116690523Y-84574923D01*
X116806895Y-84539622D01*
X116914144Y-84482296D01*
X117008149Y-84405149D01*
X117085296Y-84311144D01*
X117142622Y-84203895D01*
X117177923Y-84087523D01*
X117189843Y-83966500D01*
X117189843Y-83574249D01*
X117238102Y-83525990D01*
X117602723Y-83525990D01*
X117597157Y-83582500D01*
X117597157Y-84057500D01*
X117609077Y-84178523D01*
X117644378Y-84294895D01*
X117701704Y-84402144D01*
X117778851Y-84496149D01*
X117872856Y-84573296D01*
X117980105Y-84630622D01*
X118096477Y-84665923D01*
X118217500Y-84677843D01*
X118647252Y-84677843D01*
X118845559Y-84876150D01*
X118748000Y-84866542D01*
X118401000Y-84869000D01*
X118274000Y-84996000D01*
X118274000Y-85788500D01*
X118294000Y-85788500D01*
X118294000Y-85915500D01*
X118274000Y-85915500D01*
X118274000Y-86708000D01*
X118401000Y-86835000D01*
X118748000Y-86837458D01*
X118847585Y-86827650D01*
X118943344Y-86798602D01*
X119031595Y-86751430D01*
X119108948Y-86687948D01*
X119172430Y-86610595D01*
X119191499Y-86574919D01*
X119191500Y-88749416D01*
X118990830Y-88709500D01*
X118753170Y-88709500D01*
X118520077Y-88755865D01*
X118300508Y-88846813D01*
X118102901Y-88978850D01*
X117934850Y-89146901D01*
X117802813Y-89344508D01*
X117711865Y-89564077D01*
X117665500Y-89797170D01*
X117665500Y-90034830D01*
X117711865Y-90267923D01*
X117802813Y-90487492D01*
X117934850Y-90685099D01*
X118102901Y-90853150D01*
X118300508Y-90985187D01*
X118520077Y-91076135D01*
X118753170Y-91122500D01*
X118990830Y-91122500D01*
X119223923Y-91076135D01*
X119443492Y-90985187D01*
X119641099Y-90853150D01*
X119809150Y-90685099D01*
X119941187Y-90487492D01*
X120032135Y-90267923D01*
X120035103Y-90253000D01*
X122000542Y-90253000D01*
X122003000Y-90487500D01*
X122130000Y-90614500D01*
X122872500Y-90614500D01*
X122872500Y-89872000D01*
X122745500Y-89745000D01*
X122511000Y-89742542D01*
X122411415Y-89752350D01*
X122315656Y-89781398D01*
X122227405Y-89828570D01*
X122150052Y-89892052D01*
X122086570Y-89969405D01*
X122039398Y-90057656D01*
X122010350Y-90153415D01*
X122000542Y-90253000D01*
X120035103Y-90253000D01*
X120078500Y-90034830D01*
X120078500Y-89797170D01*
X120032135Y-89564077D01*
X120005007Y-89498585D01*
X120037719Y-89465873D01*
X120057026Y-89450028D01*
X120120258Y-89372980D01*
X120167244Y-89285076D01*
X120196177Y-89189694D01*
X120203499Y-89115355D01*
X120205947Y-89090501D01*
X120203499Y-89065647D01*
X120203499Y-88233692D01*
X120211887Y-88253942D01*
X120297358Y-88381859D01*
X120406141Y-88490642D01*
X120534058Y-88576113D01*
X120676191Y-88634987D01*
X120827078Y-88665000D01*
X120980922Y-88665000D01*
X121131809Y-88634987D01*
X121273942Y-88576113D01*
X121401859Y-88490642D01*
X121502501Y-88390000D01*
X121799154Y-88390000D01*
X121824000Y-88392447D01*
X121848846Y-88390000D01*
X121848854Y-88390000D01*
X121923193Y-88382678D01*
X122018575Y-88353745D01*
X122106479Y-88306759D01*
X122183527Y-88243527D01*
X122199376Y-88224215D01*
X122235748Y-88187843D01*
X122665500Y-88187843D01*
X122786523Y-88175923D01*
X122902895Y-88140622D01*
X123010144Y-88083296D01*
X123104149Y-88006149D01*
X123181296Y-87912144D01*
X123238622Y-87804895D01*
X123273923Y-87688523D01*
X123285843Y-87567500D01*
X123285843Y-86992500D01*
X123275354Y-86886010D01*
X123357919Y-86886010D01*
X123602157Y-87130248D01*
X123602157Y-87522500D01*
X123614077Y-87643523D01*
X123649378Y-87759895D01*
X123706704Y-87867144D01*
X123783851Y-87961149D01*
X123877856Y-88038296D01*
X123985105Y-88095622D01*
X124101477Y-88130923D01*
X124222500Y-88142843D01*
X124697500Y-88142843D01*
X124818523Y-88130923D01*
X124934895Y-88095622D01*
X125042144Y-88038296D01*
X125136149Y-87961149D01*
X125213296Y-87867144D01*
X125270622Y-87759895D01*
X125305923Y-87643523D01*
X125317843Y-87522500D01*
X125317843Y-87022500D01*
X125305923Y-86901477D01*
X125270622Y-86785105D01*
X125213296Y-86677856D01*
X125136149Y-86583851D01*
X125051644Y-86514500D01*
X125634157Y-86514500D01*
X125634157Y-87014500D01*
X125646077Y-87135523D01*
X125681378Y-87251895D01*
X125738704Y-87359144D01*
X125815851Y-87453149D01*
X125909856Y-87530296D01*
X126017105Y-87587622D01*
X126133477Y-87622923D01*
X126254500Y-87634843D01*
X126729500Y-87634843D01*
X126850523Y-87622923D01*
X126966895Y-87587622D01*
X127074144Y-87530296D01*
X127168149Y-87453149D01*
X127245296Y-87359144D01*
X127292677Y-87270500D01*
X127723323Y-87270500D01*
X127770704Y-87359144D01*
X127847851Y-87453149D01*
X127941856Y-87530296D01*
X128049105Y-87587622D01*
X128165477Y-87622923D01*
X128286500Y-87634843D01*
X128761500Y-87634843D01*
X128882523Y-87622923D01*
X128998895Y-87587622D01*
X129106144Y-87530296D01*
X129200149Y-87453149D01*
X129277296Y-87359144D01*
X129334622Y-87251895D01*
X129369923Y-87135523D01*
X129381843Y-87014500D01*
X129381843Y-86584000D01*
X134461157Y-86584000D01*
X134461157Y-89184000D01*
X134468513Y-89258689D01*
X134490299Y-89330508D01*
X134525678Y-89396696D01*
X134573289Y-89454711D01*
X134631304Y-89502322D01*
X134697492Y-89537701D01*
X134769311Y-89559487D01*
X134844000Y-89566843D01*
X137444000Y-89566843D01*
X137518689Y-89559487D01*
X137590508Y-89537701D01*
X137656696Y-89502322D01*
X137714711Y-89454711D01*
X137762322Y-89396696D01*
X137797701Y-89330508D01*
X137819487Y-89258689D01*
X137826843Y-89184000D01*
X137826843Y-86584000D01*
X137819487Y-86509311D01*
X137797701Y-86437492D01*
X137762322Y-86371304D01*
X137714711Y-86313289D01*
X137656696Y-86265678D01*
X137590508Y-86230299D01*
X137518689Y-86208513D01*
X137444000Y-86201157D01*
X134844000Y-86201157D01*
X134769311Y-86208513D01*
X134697492Y-86230299D01*
X134631304Y-86265678D01*
X134573289Y-86313289D01*
X134525678Y-86371304D01*
X134490299Y-86437492D01*
X134468513Y-86509311D01*
X134461157Y-86584000D01*
X129381843Y-86584000D01*
X129381843Y-86439500D01*
X129369923Y-86318477D01*
X129334622Y-86202105D01*
X129277296Y-86094856D01*
X129200149Y-86000851D01*
X129174340Y-85979670D01*
X129194344Y-85973602D01*
X129282595Y-85926430D01*
X129359948Y-85862948D01*
X129423430Y-85785595D01*
X129470602Y-85697344D01*
X129499650Y-85601585D01*
X129509458Y-85502000D01*
X129507000Y-85167500D01*
X129380000Y-85040500D01*
X128587500Y-85040500D01*
X128587500Y-85060500D01*
X128460500Y-85060500D01*
X128460500Y-85040500D01*
X127668000Y-85040500D01*
X127541000Y-85167500D01*
X127538542Y-85502000D01*
X127548350Y-85601585D01*
X127577398Y-85697344D01*
X127624570Y-85785595D01*
X127688052Y-85862948D01*
X127765405Y-85926430D01*
X127853656Y-85973602D01*
X127873660Y-85979670D01*
X127847851Y-86000851D01*
X127770704Y-86094856D01*
X127713378Y-86202105D01*
X127696271Y-86258500D01*
X127292677Y-86258500D01*
X127245296Y-86169856D01*
X127168149Y-86075851D01*
X127074144Y-85998704D01*
X126966895Y-85941378D01*
X126850523Y-85906077D01*
X126729500Y-85894157D01*
X126254500Y-85894157D01*
X126133477Y-85906077D01*
X126017105Y-85941378D01*
X125909856Y-85998704D01*
X125815851Y-86075851D01*
X125738704Y-86169856D01*
X125681378Y-86277105D01*
X125646077Y-86393477D01*
X125634157Y-86514500D01*
X125051644Y-86514500D01*
X125042144Y-86506704D01*
X124934895Y-86449378D01*
X124818523Y-86414077D01*
X124697500Y-86402157D01*
X124305248Y-86402157D01*
X124220763Y-86317672D01*
X124222500Y-86317843D01*
X124697500Y-86317843D01*
X124818523Y-86305923D01*
X124934895Y-86270622D01*
X125042144Y-86213296D01*
X125136149Y-86136149D01*
X125213296Y-86042144D01*
X125270622Y-85934895D01*
X125305923Y-85818523D01*
X125317843Y-85697500D01*
X125317843Y-85197500D01*
X125305923Y-85076477D01*
X125294308Y-85038187D01*
X125337942Y-85020113D01*
X125465859Y-84934642D01*
X125566501Y-84834000D01*
X125634157Y-84834000D01*
X125634157Y-85189500D01*
X125646077Y-85310523D01*
X125681378Y-85426895D01*
X125738704Y-85534144D01*
X125815851Y-85628149D01*
X125909856Y-85705296D01*
X126017105Y-85762622D01*
X126133477Y-85797923D01*
X126254500Y-85809843D01*
X126729500Y-85809843D01*
X126850523Y-85797923D01*
X126966895Y-85762622D01*
X127074144Y-85705296D01*
X127168149Y-85628149D01*
X127245296Y-85534144D01*
X127302622Y-85426895D01*
X127337923Y-85310523D01*
X127349843Y-85189500D01*
X127349843Y-84689500D01*
X127337923Y-84568477D01*
X127302622Y-84452105D01*
X127302566Y-84452000D01*
X127538542Y-84452000D01*
X127541000Y-84786500D01*
X127668000Y-84913500D01*
X128460500Y-84913500D01*
X128460500Y-84893500D01*
X128587500Y-84893500D01*
X128587500Y-84913500D01*
X129380000Y-84913500D01*
X129507000Y-84786500D01*
X129509458Y-84452000D01*
X129499650Y-84352415D01*
X129470602Y-84256656D01*
X129423430Y-84168405D01*
X129359948Y-84091052D01*
X129283233Y-84028093D01*
X129329602Y-83941344D01*
X129358650Y-83845585D01*
X129368458Y-83746000D01*
X129366000Y-83486500D01*
X129239000Y-83359500D01*
X128521500Y-83359500D01*
X128521500Y-83379500D01*
X128394500Y-83379500D01*
X128394500Y-83359500D01*
X127677000Y-83359500D01*
X127550000Y-83486500D01*
X127547542Y-83746000D01*
X127557350Y-83845585D01*
X127586398Y-83941344D01*
X127633570Y-84029595D01*
X127686029Y-84093517D01*
X127624570Y-84168405D01*
X127577398Y-84256656D01*
X127548350Y-84352415D01*
X127538542Y-84452000D01*
X127302566Y-84452000D01*
X127245296Y-84344856D01*
X127168149Y-84250851D01*
X127074144Y-84173704D01*
X126998000Y-84133004D01*
X126998000Y-84124903D01*
X127032689Y-84121487D01*
X127104508Y-84099701D01*
X127170696Y-84064322D01*
X127228711Y-84016711D01*
X127276322Y-83958696D01*
X127311701Y-83892508D01*
X127333487Y-83820689D01*
X127340843Y-83746000D01*
X127340843Y-82931000D01*
X127548347Y-82931000D01*
X127550000Y-83105500D01*
X127677000Y-83232500D01*
X128394500Y-83232500D01*
X128394500Y-83212500D01*
X128521500Y-83212500D01*
X128521500Y-83232500D01*
X129239000Y-83232500D01*
X129366000Y-83105500D01*
X129367653Y-82931000D01*
X131445000Y-82931000D01*
X131445000Y-84836000D01*
X131457201Y-84959882D01*
X131493336Y-85079004D01*
X131552017Y-85188787D01*
X131630987Y-85285013D01*
X131727213Y-85363983D01*
X131836996Y-85422664D01*
X131956118Y-85458799D01*
X132080000Y-85471000D01*
X138176000Y-85471000D01*
X138299882Y-85458799D01*
X138419004Y-85422664D01*
X138528787Y-85363983D01*
X138625013Y-85285013D01*
X138703983Y-85188787D01*
X138762664Y-85079004D01*
X138798799Y-84959882D01*
X138811000Y-84836000D01*
X138811000Y-78892000D01*
X142728147Y-78892000D01*
X142964771Y-78915201D01*
X143173296Y-78978158D01*
X143365613Y-79080415D01*
X143534410Y-79218082D01*
X143673250Y-79385911D01*
X143776848Y-79577513D01*
X143841258Y-79785588D01*
X143866001Y-80021000D01*
X143866000Y-90404147D01*
X143842799Y-90640775D01*
X143779841Y-90849296D01*
X143677583Y-91041616D01*
X143539918Y-91210409D01*
X143372090Y-91349249D01*
X143180491Y-91452847D01*
X142972414Y-91517258D01*
X142737009Y-91542000D01*
X123617337Y-91542000D01*
X123644595Y-91527430D01*
X123721948Y-91463948D01*
X123726700Y-91458158D01*
X123856616Y-91484000D01*
X124015384Y-91484000D01*
X124171102Y-91453026D01*
X124317784Y-91392268D01*
X124436000Y-91313279D01*
X124554216Y-91392268D01*
X124700898Y-91453026D01*
X124856616Y-91484000D01*
X125015384Y-91484000D01*
X125171102Y-91453026D01*
X125317784Y-91392268D01*
X125449795Y-91304061D01*
X125562061Y-91191795D01*
X125650268Y-91059784D01*
X125711026Y-90913102D01*
X125742000Y-90757384D01*
X125742000Y-90598616D01*
X125711026Y-90442898D01*
X125650268Y-90296216D01*
X125562061Y-90164205D01*
X125449795Y-90051939D01*
X125317784Y-89963732D01*
X125171102Y-89902974D01*
X125015384Y-89872000D01*
X124856616Y-89872000D01*
X124700898Y-89902974D01*
X124554216Y-89963732D01*
X124436000Y-90042721D01*
X124317784Y-89963732D01*
X124171102Y-89902974D01*
X124015384Y-89872000D01*
X123856616Y-89872000D01*
X123726700Y-89897842D01*
X123721948Y-89892052D01*
X123644595Y-89828570D01*
X123556344Y-89781398D01*
X123460585Y-89752350D01*
X123361000Y-89742542D01*
X123126500Y-89745000D01*
X122999500Y-89872000D01*
X122999500Y-90614500D01*
X123019500Y-90614500D01*
X123019500Y-90741500D01*
X122999500Y-90741500D01*
X122999500Y-90761500D01*
X122872500Y-90761500D01*
X122872500Y-90741500D01*
X122130000Y-90741500D01*
X122003000Y-90868500D01*
X122000542Y-91103000D01*
X122010350Y-91202585D01*
X122039398Y-91298344D01*
X122086570Y-91386595D01*
X122150052Y-91463948D01*
X122227405Y-91527430D01*
X122254663Y-91542000D01*
X90443853Y-91542000D01*
X90207225Y-91518799D01*
X89998704Y-91455841D01*
X89806384Y-91353583D01*
X89637591Y-91215918D01*
X89498751Y-91048090D01*
X89395153Y-90856491D01*
X89330742Y-90648414D01*
X89306000Y-90413009D01*
X89306000Y-89797170D01*
X107665520Y-89797170D01*
X107665520Y-90034830D01*
X107711885Y-90267923D01*
X107802833Y-90487492D01*
X107934870Y-90685099D01*
X108102921Y-90853150D01*
X108300528Y-90985187D01*
X108520097Y-91076135D01*
X108753190Y-91122500D01*
X108990850Y-91122500D01*
X109223943Y-91076135D01*
X109443512Y-90985187D01*
X109641119Y-90853150D01*
X109809170Y-90685099D01*
X109941207Y-90487492D01*
X110032155Y-90267923D01*
X110078520Y-90034830D01*
X110078520Y-89797170D01*
X110032155Y-89564077D01*
X109941207Y-89344508D01*
X109809170Y-89146901D01*
X109641119Y-88978850D01*
X109443512Y-88846813D01*
X109223943Y-88755865D01*
X108990850Y-88709500D01*
X108753190Y-88709500D01*
X108520097Y-88755865D01*
X108300528Y-88846813D01*
X108102921Y-88978850D01*
X107934870Y-89146901D01*
X107802833Y-89344508D01*
X107711885Y-89564077D01*
X107665520Y-89797170D01*
X89306000Y-89797170D01*
X89306000Y-87718436D01*
X95347000Y-87718436D01*
X95347000Y-88049564D01*
X95411600Y-88374330D01*
X95538317Y-88680252D01*
X95722282Y-88955575D01*
X95956425Y-89189718D01*
X96231748Y-89373683D01*
X96537670Y-89500400D01*
X96862436Y-89565000D01*
X97193564Y-89565000D01*
X97518330Y-89500400D01*
X97824252Y-89373683D01*
X98099575Y-89189718D01*
X98333718Y-88955575D01*
X98517683Y-88680252D01*
X98644400Y-88374330D01*
X98709000Y-88049564D01*
X98709000Y-87718436D01*
X98644400Y-87393670D01*
X98517683Y-87087748D01*
X98333718Y-86812425D01*
X98099575Y-86578282D01*
X97824252Y-86394317D01*
X97518330Y-86267600D01*
X97193564Y-86203000D01*
X96862436Y-86203000D01*
X96537670Y-86267600D01*
X96231748Y-86394317D01*
X95956425Y-86578282D01*
X95722282Y-86812425D01*
X95538317Y-87087748D01*
X95411600Y-87393670D01*
X95347000Y-87718436D01*
X89306000Y-87718436D01*
X89306000Y-86010000D01*
X103154542Y-86010000D01*
X103164350Y-86109585D01*
X103193398Y-86205344D01*
X103240570Y-86293595D01*
X103304052Y-86370948D01*
X103381405Y-86434430D01*
X103469656Y-86481602D01*
X103489660Y-86487670D01*
X103463851Y-86508851D01*
X103386704Y-86602856D01*
X103329378Y-86710105D01*
X103294077Y-86826477D01*
X103282157Y-86947500D01*
X103282157Y-87522500D01*
X103294077Y-87643523D01*
X103329378Y-87759895D01*
X103386704Y-87867144D01*
X103463851Y-87961149D01*
X103557856Y-88038296D01*
X103665105Y-88095622D01*
X103781477Y-88130923D01*
X103902500Y-88142843D01*
X104377500Y-88142843D01*
X104498523Y-88130923D01*
X104614895Y-88095622D01*
X104722144Y-88038296D01*
X104816149Y-87961149D01*
X104893296Y-87867144D01*
X104940677Y-87778500D01*
X105371323Y-87778500D01*
X105418704Y-87867144D01*
X105495851Y-87961149D01*
X105589856Y-88038296D01*
X105697105Y-88095622D01*
X105813477Y-88130923D01*
X105934500Y-88142843D01*
X106409500Y-88142843D01*
X106530523Y-88130923D01*
X106646895Y-88095622D01*
X106754144Y-88038296D01*
X106848149Y-87961149D01*
X106925296Y-87867144D01*
X106982622Y-87759895D01*
X107017923Y-87643523D01*
X107029843Y-87522500D01*
X107029843Y-87022500D01*
X107017923Y-86901477D01*
X106982622Y-86785105D01*
X106925296Y-86677856D01*
X106848149Y-86583851D01*
X106754144Y-86506704D01*
X106646895Y-86449378D01*
X106530523Y-86414077D01*
X106409500Y-86402157D01*
X105934500Y-86402157D01*
X105813477Y-86414077D01*
X105697105Y-86449378D01*
X105589856Y-86506704D01*
X105495851Y-86583851D01*
X105418704Y-86677856D01*
X105371323Y-86766500D01*
X104967729Y-86766500D01*
X104950622Y-86710105D01*
X104893296Y-86602856D01*
X104816149Y-86508851D01*
X104790340Y-86487670D01*
X104810344Y-86481602D01*
X104898595Y-86434430D01*
X104975948Y-86370948D01*
X105039430Y-86293595D01*
X105086602Y-86205344D01*
X105115650Y-86109585D01*
X105125458Y-86010000D01*
X105123000Y-85675500D01*
X104996000Y-85548500D01*
X104203500Y-85548500D01*
X104203500Y-85568500D01*
X104076500Y-85568500D01*
X104076500Y-85548500D01*
X103284000Y-85548500D01*
X103157000Y-85675500D01*
X103154542Y-86010000D01*
X89306000Y-86010000D01*
X89306000Y-84184000D01*
X95217542Y-84184000D01*
X95227350Y-84283585D01*
X95256398Y-84379344D01*
X95303570Y-84467595D01*
X95367052Y-84544948D01*
X95444405Y-84608430D01*
X95532656Y-84655602D01*
X95628415Y-84684650D01*
X95728000Y-84694458D01*
X96837500Y-84692000D01*
X96964500Y-84565000D01*
X96964500Y-82947500D01*
X97091500Y-82947500D01*
X97091500Y-84565000D01*
X97218500Y-84692000D01*
X98328000Y-84694458D01*
X98427585Y-84684650D01*
X98523344Y-84655602D01*
X98611595Y-84608430D01*
X98688948Y-84544948D01*
X98752430Y-84467595D01*
X98799602Y-84379344D01*
X98828650Y-84283585D01*
X98838458Y-84184000D01*
X98836000Y-83074500D01*
X98709000Y-82947500D01*
X97091500Y-82947500D01*
X96964500Y-82947500D01*
X95347000Y-82947500D01*
X95220000Y-83074500D01*
X95217542Y-84184000D01*
X89306000Y-84184000D01*
X89306000Y-81584000D01*
X95217542Y-81584000D01*
X95220000Y-82693500D01*
X95347000Y-82820500D01*
X96964500Y-82820500D01*
X96964500Y-81203000D01*
X97091500Y-81203000D01*
X97091500Y-82820500D01*
X98709000Y-82820500D01*
X98836000Y-82693500D01*
X98838458Y-81584000D01*
X98828650Y-81484415D01*
X98804257Y-81404000D01*
X103154542Y-81404000D01*
X103157000Y-81751000D01*
X103284000Y-81878000D01*
X104076500Y-81878000D01*
X104076500Y-81023000D01*
X104203500Y-81023000D01*
X104203500Y-81878000D01*
X104996000Y-81878000D01*
X105123000Y-81751000D01*
X105125458Y-81404000D01*
X105186542Y-81404000D01*
X105189000Y-81751000D01*
X105316000Y-81878000D01*
X106108500Y-81878000D01*
X106108500Y-81023000D01*
X106235500Y-81023000D01*
X106235500Y-81878000D01*
X107028000Y-81878000D01*
X107155000Y-81751000D01*
X107155963Y-81615000D01*
X107291542Y-81615000D01*
X107294000Y-81724500D01*
X107421000Y-81851500D01*
X108713500Y-81851500D01*
X108713500Y-81234000D01*
X108840500Y-81234000D01*
X108840500Y-81851500D01*
X110133000Y-81851500D01*
X110260000Y-81724500D01*
X110262458Y-81615000D01*
X110252650Y-81515415D01*
X110223602Y-81419656D01*
X110176430Y-81331405D01*
X110112948Y-81254052D01*
X110035595Y-81190570D01*
X109947344Y-81143398D01*
X109851585Y-81114350D01*
X109752000Y-81104542D01*
X108967500Y-81107000D01*
X108840500Y-81234000D01*
X108713500Y-81234000D01*
X108586500Y-81107000D01*
X107802000Y-81104542D01*
X107702415Y-81114350D01*
X107606656Y-81143398D01*
X107518405Y-81190570D01*
X107441052Y-81254052D01*
X107377570Y-81331405D01*
X107330398Y-81419656D01*
X107301350Y-81515415D01*
X107291542Y-81615000D01*
X107155963Y-81615000D01*
X107157458Y-81404000D01*
X107147650Y-81304415D01*
X107118602Y-81208656D01*
X107071430Y-81120405D01*
X107007948Y-81043052D01*
X106930595Y-80979570D01*
X106842344Y-80932398D01*
X106746585Y-80903350D01*
X106647000Y-80893542D01*
X106362500Y-80896000D01*
X106235500Y-81023000D01*
X106108500Y-81023000D01*
X105981500Y-80896000D01*
X105697000Y-80893542D01*
X105597415Y-80903350D01*
X105501656Y-80932398D01*
X105413405Y-80979570D01*
X105336052Y-81043052D01*
X105272570Y-81120405D01*
X105225398Y-81208656D01*
X105196350Y-81304415D01*
X105186542Y-81404000D01*
X105125458Y-81404000D01*
X105115650Y-81304415D01*
X105086602Y-81208656D01*
X105039430Y-81120405D01*
X104975948Y-81043052D01*
X104898595Y-80979570D01*
X104810344Y-80932398D01*
X104714585Y-80903350D01*
X104615000Y-80893542D01*
X104330500Y-80896000D01*
X104203500Y-81023000D01*
X104076500Y-81023000D01*
X103949500Y-80896000D01*
X103665000Y-80893542D01*
X103565415Y-80903350D01*
X103469656Y-80932398D01*
X103381405Y-80979570D01*
X103304052Y-81043052D01*
X103240570Y-81120405D01*
X103193398Y-81208656D01*
X103164350Y-81304415D01*
X103154542Y-81404000D01*
X98804257Y-81404000D01*
X98799602Y-81388656D01*
X98752430Y-81300405D01*
X98688948Y-81223052D01*
X98611595Y-81159570D01*
X98523344Y-81112398D01*
X98427585Y-81083350D01*
X98328000Y-81073542D01*
X97218500Y-81076000D01*
X97091500Y-81203000D01*
X96964500Y-81203000D01*
X96837500Y-81076000D01*
X95728000Y-81073542D01*
X95628415Y-81083350D01*
X95532656Y-81112398D01*
X95444405Y-81159570D01*
X95367052Y-81223052D01*
X95303570Y-81300405D01*
X95256398Y-81388656D01*
X95227350Y-81484415D01*
X95217542Y-81584000D01*
X89306000Y-81584000D01*
X89306000Y-80029853D01*
X89329201Y-79793229D01*
X89392158Y-79584704D01*
X89494415Y-79392387D01*
X89632082Y-79223590D01*
X89799911Y-79084750D01*
X89991513Y-78981152D01*
X90199588Y-78916742D01*
X90434991Y-78892000D01*
X110825764Y-78892000D01*
X110741022Y-78908856D01*
G37*
%TD.AperFunction*%
D19*
X124841000Y-79976228D02*
X124716978Y-79924856D01*
X124546771Y-79891000D01*
X124373229Y-79891000D01*
X124203022Y-79924856D01*
X124042690Y-79991268D01*
X123898395Y-80087682D01*
X123775682Y-80210395D01*
X123679268Y-80354690D01*
X123612856Y-80515022D01*
X123579000Y-80685229D01*
X123579000Y-80858771D01*
X123612856Y-81028978D01*
X123679268Y-81189310D01*
X123775682Y-81333605D01*
X123898395Y-81456318D01*
X124042690Y-81552732D01*
X124203022Y-81619144D01*
X124373229Y-81653000D01*
X124462001Y-81653000D01*
X124462000Y-83729499D01*
X124361358Y-83830141D01*
X124275887Y-83958058D01*
X124217013Y-84100191D01*
X124187000Y-84251078D01*
X124187000Y-84404922D01*
X124217013Y-84555809D01*
X124225856Y-84577157D01*
X124222500Y-84577157D01*
X124101477Y-84589077D01*
X123985105Y-84624378D01*
X123877856Y-84681704D01*
X123783851Y-84758851D01*
X123706704Y-84852856D01*
X123649378Y-84960105D01*
X123629996Y-85024000D01*
X123244354Y-85024000D01*
X123238622Y-85005105D01*
X123181296Y-84897856D01*
X123104149Y-84803851D01*
X123010144Y-84726704D01*
X122902895Y-84669378D01*
X122786523Y-84634077D01*
X122665500Y-84622157D01*
X122190500Y-84622157D01*
X122069477Y-84634077D01*
X121953105Y-84669378D01*
X121845856Y-84726704D01*
X121751851Y-84803851D01*
X121674704Y-84897856D01*
X121617378Y-85005105D01*
X121582077Y-85121477D01*
X121570157Y-85242500D01*
X121570157Y-85785075D01*
X120761000Y-84975919D01*
X120761000Y-84636354D01*
X120779895Y-84630622D01*
X120887144Y-84573296D01*
X120981149Y-84496149D01*
X121058296Y-84402144D01*
X121115622Y-84294895D01*
X121150923Y-84178523D01*
X121162843Y-84057500D01*
X121162843Y-83582500D01*
X121150923Y-83461477D01*
X121115622Y-83345105D01*
X121058296Y-83237856D01*
X120981149Y-83143851D01*
X120887144Y-83066704D01*
X120779895Y-83009378D01*
X120663523Y-82974077D01*
X120542500Y-82962157D01*
X120112748Y-82962157D01*
X119922508Y-82771917D01*
X120052000Y-82771000D01*
X120179000Y-82644000D01*
X120179000Y-81851500D01*
X120306000Y-81851500D01*
X120306000Y-82644000D01*
X120433000Y-82771000D01*
X120780000Y-82773458D01*
X120879585Y-82763650D01*
X120975344Y-82734602D01*
X121063595Y-82687430D01*
X121140948Y-82623948D01*
X121204430Y-82546595D01*
X121251602Y-82458344D01*
X121280650Y-82362585D01*
X121290458Y-82263000D01*
X121288000Y-81978500D01*
X121161000Y-81851500D01*
X120306000Y-81851500D01*
X120179000Y-81851500D01*
X120159000Y-81851500D01*
X120159000Y-81724500D01*
X120179000Y-81724500D01*
X120179000Y-80932000D01*
X120306000Y-80932000D01*
X120306000Y-81724500D01*
X121161000Y-81724500D01*
X121288000Y-81597500D01*
X121290458Y-81313000D01*
X121280650Y-81213415D01*
X121251602Y-81117656D01*
X121204430Y-81029405D01*
X121140948Y-80952052D01*
X121063595Y-80888570D01*
X120975344Y-80841398D01*
X120879585Y-80812350D01*
X120780000Y-80802542D01*
X120433000Y-80805000D01*
X120306000Y-80932000D01*
X120179000Y-80932000D01*
X120052000Y-80805000D01*
X119705000Y-80802542D01*
X119605415Y-80812350D01*
X119509656Y-80841398D01*
X119421405Y-80888570D01*
X119344052Y-80952052D01*
X119280570Y-81029405D01*
X119242492Y-81100643D01*
X119162144Y-81034704D01*
X119054895Y-80977378D01*
X119023500Y-80967854D01*
X119023500Y-80682751D01*
X119056113Y-80633942D01*
X119114987Y-80491809D01*
X119145000Y-80340922D01*
X119145000Y-80187078D01*
X119114987Y-80036191D01*
X119056113Y-79894058D01*
X118970642Y-79766141D01*
X118861859Y-79657358D01*
X118733942Y-79571887D01*
X118591809Y-79513013D01*
X118440922Y-79483000D01*
X118287078Y-79483000D01*
X118136191Y-79513013D01*
X117994058Y-79571887D01*
X117866141Y-79657358D01*
X117757358Y-79766141D01*
X117671887Y-79894058D01*
X117613013Y-80036191D01*
X117583000Y-80187078D01*
X117583000Y-80340922D01*
X117613013Y-80491809D01*
X117671887Y-80633942D01*
X117757358Y-80761859D01*
X117866141Y-80870642D01*
X117994058Y-80956113D01*
X118011501Y-80963338D01*
X118011501Y-80967854D01*
X117980105Y-80977378D01*
X117872856Y-81034704D01*
X117778851Y-81111851D01*
X117701704Y-81205856D01*
X117644378Y-81313105D01*
X117622417Y-81385500D01*
X117132677Y-81385500D01*
X117085296Y-81296856D01*
X117008149Y-81202851D01*
X116914144Y-81125704D01*
X116806895Y-81068378D01*
X116690523Y-81033077D01*
X116569500Y-81021157D01*
X116094500Y-81021157D01*
X115973477Y-81033077D01*
X115857105Y-81068378D01*
X115749856Y-81125704D01*
X115655851Y-81202851D01*
X115578704Y-81296856D01*
X115521378Y-81404105D01*
X115519893Y-81409000D01*
X114945828Y-81409000D01*
X114928777Y-81388223D01*
X114848032Y-81321957D01*
X114755910Y-81272717D01*
X114655953Y-81242395D01*
X114552000Y-81232157D01*
X112902000Y-81232157D01*
X112798047Y-81242395D01*
X112698090Y-81272717D01*
X112605968Y-81321957D01*
X112525223Y-81388223D01*
X112508172Y-81409000D01*
X112446061Y-81409000D01*
X112366642Y-81290141D01*
X112257859Y-81181358D01*
X112129942Y-81095887D01*
X111987809Y-81037013D01*
X111836922Y-81007000D01*
X111683078Y-81007000D01*
X111532191Y-81037013D01*
X111504000Y-81048690D01*
X111504000Y-80477472D01*
X111559605Y-80440318D01*
X111682318Y-80317605D01*
X111778732Y-80173310D01*
X111845144Y-80012978D01*
X111879000Y-79842771D01*
X111879000Y-79669229D01*
X111845144Y-79499022D01*
X111778732Y-79338690D01*
X111682318Y-79194395D01*
X111559605Y-79071682D01*
X111415310Y-78975268D01*
X111254978Y-78908856D01*
X111170236Y-78892000D01*
X124841000Y-78892000D01*
X124841000Y-79976228D01*
%TA.AperFunction,Conductor*%
D20*
G36*
X124841000Y-79976228D02*
G01*
X124716978Y-79924856D01*
X124546771Y-79891000D01*
X124373229Y-79891000D01*
X124203022Y-79924856D01*
X124042690Y-79991268D01*
X123898395Y-80087682D01*
X123775682Y-80210395D01*
X123679268Y-80354690D01*
X123612856Y-80515022D01*
X123579000Y-80685229D01*
X123579000Y-80858771D01*
X123612856Y-81028978D01*
X123679268Y-81189310D01*
X123775682Y-81333605D01*
X123898395Y-81456318D01*
X124042690Y-81552732D01*
X124203022Y-81619144D01*
X124373229Y-81653000D01*
X124462001Y-81653000D01*
X124462000Y-83729499D01*
X124361358Y-83830141D01*
X124275887Y-83958058D01*
X124217013Y-84100191D01*
X124187000Y-84251078D01*
X124187000Y-84404922D01*
X124217013Y-84555809D01*
X124225856Y-84577157D01*
X124222500Y-84577157D01*
X124101477Y-84589077D01*
X123985105Y-84624378D01*
X123877856Y-84681704D01*
X123783851Y-84758851D01*
X123706704Y-84852856D01*
X123649378Y-84960105D01*
X123629996Y-85024000D01*
X123244354Y-85024000D01*
X123238622Y-85005105D01*
X123181296Y-84897856D01*
X123104149Y-84803851D01*
X123010144Y-84726704D01*
X122902895Y-84669378D01*
X122786523Y-84634077D01*
X122665500Y-84622157D01*
X122190500Y-84622157D01*
X122069477Y-84634077D01*
X121953105Y-84669378D01*
X121845856Y-84726704D01*
X121751851Y-84803851D01*
X121674704Y-84897856D01*
X121617378Y-85005105D01*
X121582077Y-85121477D01*
X121570157Y-85242500D01*
X121570157Y-85785075D01*
X120761000Y-84975919D01*
X120761000Y-84636354D01*
X120779895Y-84630622D01*
X120887144Y-84573296D01*
X120981149Y-84496149D01*
X121058296Y-84402144D01*
X121115622Y-84294895D01*
X121150923Y-84178523D01*
X121162843Y-84057500D01*
X121162843Y-83582500D01*
X121150923Y-83461477D01*
X121115622Y-83345105D01*
X121058296Y-83237856D01*
X120981149Y-83143851D01*
X120887144Y-83066704D01*
X120779895Y-83009378D01*
X120663523Y-82974077D01*
X120542500Y-82962157D01*
X120112748Y-82962157D01*
X119922508Y-82771917D01*
X120052000Y-82771000D01*
X120179000Y-82644000D01*
X120179000Y-81851500D01*
X120306000Y-81851500D01*
X120306000Y-82644000D01*
X120433000Y-82771000D01*
X120780000Y-82773458D01*
X120879585Y-82763650D01*
X120975344Y-82734602D01*
X121063595Y-82687430D01*
X121140948Y-82623948D01*
X121204430Y-82546595D01*
X121251602Y-82458344D01*
X121280650Y-82362585D01*
X121290458Y-82263000D01*
X121288000Y-81978500D01*
X121161000Y-81851500D01*
X120306000Y-81851500D01*
X120179000Y-81851500D01*
X120159000Y-81851500D01*
X120159000Y-81724500D01*
X120179000Y-81724500D01*
X120179000Y-80932000D01*
X120306000Y-80932000D01*
X120306000Y-81724500D01*
X121161000Y-81724500D01*
X121288000Y-81597500D01*
X121290458Y-81313000D01*
X121280650Y-81213415D01*
X121251602Y-81117656D01*
X121204430Y-81029405D01*
X121140948Y-80952052D01*
X121063595Y-80888570D01*
X120975344Y-80841398D01*
X120879585Y-80812350D01*
X120780000Y-80802542D01*
X120433000Y-80805000D01*
X120306000Y-80932000D01*
X120179000Y-80932000D01*
X120052000Y-80805000D01*
X119705000Y-80802542D01*
X119605415Y-80812350D01*
X119509656Y-80841398D01*
X119421405Y-80888570D01*
X119344052Y-80952052D01*
X119280570Y-81029405D01*
X119242492Y-81100643D01*
X119162144Y-81034704D01*
X119054895Y-80977378D01*
X119023500Y-80967854D01*
X119023500Y-80682751D01*
X119056113Y-80633942D01*
X119114987Y-80491809D01*
X119145000Y-80340922D01*
X119145000Y-80187078D01*
X119114987Y-80036191D01*
X119056113Y-79894058D01*
X118970642Y-79766141D01*
X118861859Y-79657358D01*
X118733942Y-79571887D01*
X118591809Y-79513013D01*
X118440922Y-79483000D01*
X118287078Y-79483000D01*
X118136191Y-79513013D01*
X117994058Y-79571887D01*
X117866141Y-79657358D01*
X117757358Y-79766141D01*
X117671887Y-79894058D01*
X117613013Y-80036191D01*
X117583000Y-80187078D01*
X117583000Y-80340922D01*
X117613013Y-80491809D01*
X117671887Y-80633942D01*
X117757358Y-80761859D01*
X117866141Y-80870642D01*
X117994058Y-80956113D01*
X118011501Y-80963338D01*
X118011501Y-80967854D01*
X117980105Y-80977378D01*
X117872856Y-81034704D01*
X117778851Y-81111851D01*
X117701704Y-81205856D01*
X117644378Y-81313105D01*
X117622417Y-81385500D01*
X117132677Y-81385500D01*
X117085296Y-81296856D01*
X117008149Y-81202851D01*
X116914144Y-81125704D01*
X116806895Y-81068378D01*
X116690523Y-81033077D01*
X116569500Y-81021157D01*
X116094500Y-81021157D01*
X115973477Y-81033077D01*
X115857105Y-81068378D01*
X115749856Y-81125704D01*
X115655851Y-81202851D01*
X115578704Y-81296856D01*
X115521378Y-81404105D01*
X115519893Y-81409000D01*
X114945828Y-81409000D01*
X114928777Y-81388223D01*
X114848032Y-81321957D01*
X114755910Y-81272717D01*
X114655953Y-81242395D01*
X114552000Y-81232157D01*
X112902000Y-81232157D01*
X112798047Y-81242395D01*
X112698090Y-81272717D01*
X112605968Y-81321957D01*
X112525223Y-81388223D01*
X112508172Y-81409000D01*
X112446061Y-81409000D01*
X112366642Y-81290141D01*
X112257859Y-81181358D01*
X112129942Y-81095887D01*
X111987809Y-81037013D01*
X111836922Y-81007000D01*
X111683078Y-81007000D01*
X111532191Y-81037013D01*
X111504000Y-81048690D01*
X111504000Y-80477472D01*
X111559605Y-80440318D01*
X111682318Y-80317605D01*
X111778732Y-80173310D01*
X111845144Y-80012978D01*
X111879000Y-79842771D01*
X111879000Y-79669229D01*
X111845144Y-79499022D01*
X111778732Y-79338690D01*
X111682318Y-79194395D01*
X111559605Y-79071682D01*
X111415310Y-78975268D01*
X111254978Y-78908856D01*
X111170236Y-78892000D01*
X124841000Y-78892000D01*
X124841000Y-79976228D01*
G37*
%TD.AperFunction*%
%TD*%
D19*
%TO.N,Net-(J2-Pad2)*%
X138049000Y-82523442D02*
X138040457Y-82455049D01*
X137920333Y-82093310D01*
X137788312Y-81846317D01*
X137493224Y-81714381D01*
X136323605Y-82884000D01*
X137493224Y-84053619D01*
X137788312Y-83921683D01*
X137959159Y-83580955D01*
X138049000Y-83254342D01*
X138049000Y-84709000D01*
X136788135Y-84709000D01*
X136934690Y-84660333D01*
X137181683Y-84528312D01*
X137313619Y-84233224D01*
X136144000Y-83063605D01*
X134974381Y-84233224D01*
X135106317Y-84528312D01*
X135447045Y-84699159D01*
X135482822Y-84709000D01*
X132207000Y-84709000D01*
X132207000Y-82934729D01*
X134200299Y-82934729D01*
X134247543Y-83312951D01*
X134367667Y-83674690D01*
X134499688Y-83921683D01*
X134794776Y-84053619D01*
X135964395Y-82884000D01*
X134794776Y-81714381D01*
X134499688Y-81846317D01*
X134328841Y-82187045D01*
X134227750Y-82554557D01*
X134200299Y-82934729D01*
X132207000Y-82934729D01*
X132207000Y-82296000D01*
X132204560Y-82271224D01*
X132197333Y-82247399D01*
X132185597Y-82225443D01*
X132169803Y-82206197D01*
X132150557Y-82190403D01*
X132128601Y-82178667D01*
X132104776Y-82171440D01*
X132080000Y-82169000D01*
X128382316Y-82169000D01*
X128438537Y-82100494D01*
X128497502Y-81990180D01*
X128533812Y-81870482D01*
X128546072Y-81746000D01*
X128543000Y-81581750D01*
X128496026Y-81534776D01*
X134974381Y-81534776D01*
X136144000Y-82704395D01*
X137313619Y-81534776D01*
X137181683Y-81239688D01*
X136840955Y-81068841D01*
X136473443Y-80967750D01*
X136093271Y-80940299D01*
X135715049Y-80987543D01*
X135353310Y-81107667D01*
X135106317Y-81239688D01*
X134974381Y-81534776D01*
X128496026Y-81534776D01*
X128384250Y-81423000D01*
X127635000Y-81423000D01*
X127635000Y-81443000D01*
X127381000Y-81443000D01*
X127381000Y-81423000D01*
X126631750Y-81423000D01*
X126473000Y-81581750D01*
X126469928Y-81746000D01*
X126482188Y-81870482D01*
X126518498Y-81990180D01*
X126577463Y-82100494D01*
X126633684Y-82169000D01*
X125728000Y-82169000D01*
X125728000Y-81317322D01*
X125731676Y-81279999D01*
X125728000Y-81242676D01*
X125728000Y-81242667D01*
X125717003Y-81131014D01*
X125673546Y-80987753D01*
X125603000Y-80855773D01*
X125603000Y-80846000D01*
X126469928Y-80846000D01*
X126473000Y-81010250D01*
X126631750Y-81169000D01*
X127381000Y-81169000D01*
X127381000Y-80369750D01*
X127635000Y-80369750D01*
X127635000Y-81169000D01*
X128384250Y-81169000D01*
X128543000Y-81010250D01*
X128546072Y-80846000D01*
X128533812Y-80721518D01*
X128497502Y-80601820D01*
X128438537Y-80491506D01*
X128359185Y-80394815D01*
X128262494Y-80315463D01*
X128152180Y-80256498D01*
X128032482Y-80220188D01*
X127908000Y-80207928D01*
X127793750Y-80211000D01*
X127635000Y-80369750D01*
X127381000Y-80369750D01*
X127222250Y-80211000D01*
X127108000Y-80207928D01*
X126983518Y-80220188D01*
X126863820Y-80256498D01*
X126753506Y-80315463D01*
X126656815Y-80394815D01*
X126577463Y-80491506D01*
X126518498Y-80601820D01*
X126482188Y-80721518D01*
X126469928Y-80846000D01*
X125603000Y-80846000D01*
X125603000Y-79146000D01*
X138049000Y-79146000D01*
X138049000Y-82523442D01*
%TA.AperFunction,Conductor*%
D20*
G36*
X138049000Y-82523442D02*
G01*
X138040457Y-82455049D01*
X137920333Y-82093310D01*
X137788312Y-81846317D01*
X137493224Y-81714381D01*
X136323605Y-82884000D01*
X137493224Y-84053619D01*
X137788312Y-83921683D01*
X137959159Y-83580955D01*
X138049000Y-83254342D01*
X138049000Y-84709000D01*
X136788135Y-84709000D01*
X136934690Y-84660333D01*
X137181683Y-84528312D01*
X137313619Y-84233224D01*
X136144000Y-83063605D01*
X134974381Y-84233224D01*
X135106317Y-84528312D01*
X135447045Y-84699159D01*
X135482822Y-84709000D01*
X132207000Y-84709000D01*
X132207000Y-82934729D01*
X134200299Y-82934729D01*
X134247543Y-83312951D01*
X134367667Y-83674690D01*
X134499688Y-83921683D01*
X134794776Y-84053619D01*
X135964395Y-82884000D01*
X134794776Y-81714381D01*
X134499688Y-81846317D01*
X134328841Y-82187045D01*
X134227750Y-82554557D01*
X134200299Y-82934729D01*
X132207000Y-82934729D01*
X132207000Y-82296000D01*
X132204560Y-82271224D01*
X132197333Y-82247399D01*
X132185597Y-82225443D01*
X132169803Y-82206197D01*
X132150557Y-82190403D01*
X132128601Y-82178667D01*
X132104776Y-82171440D01*
X132080000Y-82169000D01*
X128382316Y-82169000D01*
X128438537Y-82100494D01*
X128497502Y-81990180D01*
X128533812Y-81870482D01*
X128546072Y-81746000D01*
X128543000Y-81581750D01*
X128496026Y-81534776D01*
X134974381Y-81534776D01*
X136144000Y-82704395D01*
X137313619Y-81534776D01*
X137181683Y-81239688D01*
X136840955Y-81068841D01*
X136473443Y-80967750D01*
X136093271Y-80940299D01*
X135715049Y-80987543D01*
X135353310Y-81107667D01*
X135106317Y-81239688D01*
X134974381Y-81534776D01*
X128496026Y-81534776D01*
X128384250Y-81423000D01*
X127635000Y-81423000D01*
X127635000Y-81443000D01*
X127381000Y-81443000D01*
X127381000Y-81423000D01*
X126631750Y-81423000D01*
X126473000Y-81581750D01*
X126469928Y-81746000D01*
X126482188Y-81870482D01*
X126518498Y-81990180D01*
X126577463Y-82100494D01*
X126633684Y-82169000D01*
X125728000Y-82169000D01*
X125728000Y-81317322D01*
X125731676Y-81279999D01*
X125728000Y-81242676D01*
X125728000Y-81242667D01*
X125717003Y-81131014D01*
X125673546Y-80987753D01*
X125603000Y-80855773D01*
X125603000Y-80846000D01*
X126469928Y-80846000D01*
X126473000Y-81010250D01*
X126631750Y-81169000D01*
X127381000Y-81169000D01*
X127381000Y-80369750D01*
X127635000Y-80369750D01*
X127635000Y-81169000D01*
X128384250Y-81169000D01*
X128543000Y-81010250D01*
X128546072Y-80846000D01*
X128533812Y-80721518D01*
X128497502Y-80601820D01*
X128438537Y-80491506D01*
X128359185Y-80394815D01*
X128262494Y-80315463D01*
X128152180Y-80256498D01*
X128032482Y-80220188D01*
X127908000Y-80207928D01*
X127793750Y-80211000D01*
X127635000Y-80369750D01*
X127381000Y-80369750D01*
X127222250Y-80211000D01*
X127108000Y-80207928D01*
X126983518Y-80220188D01*
X126863820Y-80256498D01*
X126753506Y-80315463D01*
X126656815Y-80394815D01*
X126577463Y-80491506D01*
X126518498Y-80601820D01*
X126482188Y-80721518D01*
X126469928Y-80846000D01*
X125603000Y-80846000D01*
X125603000Y-79146000D01*
X138049000Y-79146000D01*
X138049000Y-82523442D01*
G37*
%TD.AperFunction*%
%TD*%
M02*
