%TF.GenerationSoftware,KiCad,Pcbnew,(5.1.10)-1*%
%TF.CreationDate,2021-09-30T00:23:06-04:00*%
%TF.ProjectId,soil_sensor,736f696c-5f73-4656-9e73-6f722e6b6963,rev?*%
%TF.SameCoordinates,Original*%
%TF.FileFunction,Copper,L2,Bot*%
%TF.FilePolarity,Positive*%
%FSLAX46Y46*%
G04 Gerber Fmt 4.6, Leading zero omitted, Abs format (unit mm)*
G04 Created by KiCad (PCBNEW (5.1.10)-1) date 2021-09-30 00:23:06*
%MOMM*%
%LPD*%
G01*
G04 APERTURE LIST*
%TA.AperFunction,ComponentPad*%
%ADD10O,1.700000X1.700000*%
%TD*%
%TA.AperFunction,ComponentPad*%
%ADD11R,1.700000X1.700000*%
%TD*%
%TA.AperFunction,ComponentPad*%
%ADD12O,2.500000X3.000000*%
%TD*%
%TA.AperFunction,ComponentPad*%
%ADD13C,2.600000*%
%TD*%
%TA.AperFunction,ComponentPad*%
%ADD14R,2.600000X2.600000*%
%TD*%
%TA.AperFunction,ViaPad*%
%ADD15C,0.800000*%
%TD*%
%TA.AperFunction,Conductor*%
%ADD16C,0.250000*%
%TD*%
%TA.AperFunction,Conductor*%
%ADD17C,0.254000*%
%TD*%
%TA.AperFunction,Conductor*%
%ADD18C,0.100000*%
%TD*%
G04 APERTURE END LIST*
D10*
%TO.P,J3,6*%
%TO.N,+5V*%
X125730000Y-119634000D03*
%TO.P,J3,5*%
%TO.N,GND*%
X125730000Y-117094000D03*
%TO.P,J3,4*%
%TO.N,/TXD0*%
X125730000Y-114554000D03*
%TO.P,J3,3*%
%TO.N,/RXD0*%
X125730000Y-112014000D03*
%TO.P,J3,2*%
%TO.N,/RTS*%
X125730000Y-109474000D03*
D11*
%TO.P,J3,1*%
%TO.N,/DTR*%
X125730000Y-106934000D03*
%TD*%
D12*
%TO.P,SW1,2*%
%TO.N,/EN*%
X173816000Y-106426000D03*
%TO.P,SW1,1*%
%TO.N,GND*%
X178816000Y-106426000D03*
%TO.P,SW1,2*%
%TO.N,/EN*%
X173816000Y-118926000D03*
%TO.P,SW1,1*%
%TO.N,GND*%
X178816000Y-118926000D03*
%TD*%
D13*
%TO.P,J2,3*%
%TO.N,GND*%
X180942000Y-128016000D03*
%TO.P,J2,2*%
%TO.N,Net-(J2-Pad2)*%
X175942000Y-128016000D03*
D14*
%TO.P,J2,1*%
%TO.N,+3V3*%
X170942000Y-128016000D03*
%TD*%
D15*
%TO.N,+3V3*%
X137922000Y-124968000D03*
X137922000Y-123952000D03*
X138938000Y-123952000D03*
X138938000Y-124968000D03*
X139954000Y-124968000D03*
X139954000Y-123952000D03*
X165100000Y-116332000D03*
X166116000Y-123444000D03*
%TO.N,Net-(J2-Pad2)*%
X163322000Y-105664000D03*
%TO.N,/RXD0*%
X141224000Y-118618000D03*
%TO.N,/TXD0*%
X141224000Y-119888000D03*
%TO.N,/RTS*%
X134811772Y-109152685D03*
%TO.N,/EN*%
X135128000Y-108204000D03*
X166116000Y-121920000D03*
%TD*%
D16*
%TO.N,Net-(J2-Pad2)*%
X163322000Y-117234477D02*
X163322000Y-105664000D01*
X174103523Y-128016000D02*
X163322000Y-117234477D01*
X175942000Y-128016000D02*
X174103523Y-128016000D01*
%TO.N,/RXD0*%
X134620000Y-112014000D02*
X141224000Y-118618000D01*
X125730000Y-112014000D02*
X134620000Y-112014000D01*
%TO.N,/TXD0*%
X135890000Y-114554000D02*
X125730000Y-114554000D01*
X141224000Y-119888000D02*
X135890000Y-114554000D01*
%TO.N,/RTS*%
X134490457Y-109474000D02*
X134811772Y-109152685D01*
X125730000Y-109474000D02*
X134490457Y-109474000D01*
%TO.N,/EN*%
X148844000Y-121920000D02*
X166116000Y-121920000D01*
X135128000Y-108204000D02*
X148844000Y-121920000D01*
%TD*%
D17*
%TO.N,+3V3*%
X183580223Y-103423185D02*
X183765130Y-103479012D01*
X183935668Y-103569688D01*
X184085347Y-103691762D01*
X184208468Y-103840590D01*
X184300334Y-104010493D01*
X184357448Y-104194997D01*
X184379001Y-104400063D01*
X184379000Y-134352359D01*
X184358815Y-134558223D01*
X184302988Y-134743130D01*
X184212310Y-134913670D01*
X184090235Y-135063349D01*
X183941410Y-135186468D01*
X183771511Y-135278332D01*
X183587003Y-135335448D01*
X183381946Y-135357000D01*
X123965641Y-135357000D01*
X123759777Y-135336815D01*
X123574870Y-135280988D01*
X123404330Y-135190310D01*
X123254651Y-135068235D01*
X123131532Y-134919410D01*
X123039668Y-134749511D01*
X122982552Y-134565003D01*
X122961000Y-134359946D01*
X122961000Y-131944377D01*
X130195000Y-131944377D01*
X130195000Y-132215623D01*
X130247917Y-132481656D01*
X130351718Y-132732254D01*
X130502414Y-132957787D01*
X130694213Y-133149586D01*
X130919746Y-133300282D01*
X131170344Y-133404083D01*
X131436377Y-133457000D01*
X131707623Y-133457000D01*
X131973656Y-133404083D01*
X132224254Y-133300282D01*
X132449787Y-133149586D01*
X132641586Y-132957787D01*
X132792282Y-132732254D01*
X132896083Y-132481656D01*
X132949000Y-132215623D01*
X132949000Y-131944377D01*
X132898477Y-131690377D01*
X163723000Y-131690377D01*
X163723000Y-131961623D01*
X163775917Y-132227656D01*
X163879718Y-132478254D01*
X164030414Y-132703787D01*
X164222213Y-132895586D01*
X164447746Y-133046282D01*
X164698344Y-133150083D01*
X164964377Y-133203000D01*
X165235623Y-133203000D01*
X165501656Y-133150083D01*
X165752254Y-133046282D01*
X165977787Y-132895586D01*
X166169586Y-132703787D01*
X166320282Y-132478254D01*
X166424083Y-132227656D01*
X166477000Y-131961623D01*
X166477000Y-131690377D01*
X166424083Y-131424344D01*
X166320282Y-131173746D01*
X166169586Y-130948213D01*
X165977787Y-130756414D01*
X165752254Y-130605718D01*
X165501656Y-130501917D01*
X165235623Y-130449000D01*
X164964377Y-130449000D01*
X164698344Y-130501917D01*
X164447746Y-130605718D01*
X164222213Y-130756414D01*
X164030414Y-130948213D01*
X163879718Y-131173746D01*
X163775917Y-131424344D01*
X163723000Y-131690377D01*
X132898477Y-131690377D01*
X132896083Y-131678344D01*
X132792282Y-131427746D01*
X132641586Y-131202213D01*
X132449787Y-131010414D01*
X132224254Y-130859718D01*
X131973656Y-130755917D01*
X131707623Y-130703000D01*
X131436377Y-130703000D01*
X131170344Y-130755917D01*
X130919746Y-130859718D01*
X130694213Y-131010414D01*
X130502414Y-131202213D01*
X130351718Y-131427746D01*
X130247917Y-131678344D01*
X130195000Y-131944377D01*
X122961000Y-131944377D01*
X122961000Y-129316000D01*
X169003928Y-129316000D01*
X169016188Y-129440482D01*
X169052498Y-129560180D01*
X169111463Y-129670494D01*
X169190815Y-129767185D01*
X169287506Y-129846537D01*
X169397820Y-129905502D01*
X169517518Y-129941812D01*
X169642000Y-129954072D01*
X170656250Y-129951000D01*
X170815000Y-129792250D01*
X170815000Y-128143000D01*
X171069000Y-128143000D01*
X171069000Y-129792250D01*
X171227750Y-129951000D01*
X172242000Y-129954072D01*
X172366482Y-129941812D01*
X172486180Y-129905502D01*
X172596494Y-129846537D01*
X172693185Y-129767185D01*
X172772537Y-129670494D01*
X172831502Y-129560180D01*
X172867812Y-129440482D01*
X172880072Y-129316000D01*
X172877000Y-128301750D01*
X172718250Y-128143000D01*
X171069000Y-128143000D01*
X170815000Y-128143000D01*
X169165750Y-128143000D01*
X169007000Y-128301750D01*
X169003928Y-129316000D01*
X122961000Y-129316000D01*
X122961000Y-126716000D01*
X169003928Y-126716000D01*
X169007000Y-127730250D01*
X169165750Y-127889000D01*
X170815000Y-127889000D01*
X170815000Y-126239750D01*
X170656250Y-126081000D01*
X169642000Y-126077928D01*
X169517518Y-126090188D01*
X169397820Y-126126498D01*
X169287506Y-126185463D01*
X169190815Y-126264815D01*
X169111463Y-126361506D01*
X169052498Y-126471820D01*
X169016188Y-126591518D01*
X169003928Y-126716000D01*
X122961000Y-126716000D01*
X122961000Y-119518076D01*
X124553000Y-119518076D01*
X124553000Y-119749924D01*
X124598231Y-119977318D01*
X124686956Y-120191519D01*
X124815764Y-120384294D01*
X124979706Y-120548236D01*
X125172481Y-120677044D01*
X125386682Y-120765769D01*
X125614076Y-120811000D01*
X125845924Y-120811000D01*
X126073318Y-120765769D01*
X126287519Y-120677044D01*
X126480294Y-120548236D01*
X126644236Y-120384294D01*
X126773044Y-120191519D01*
X126861769Y-119977318D01*
X126907000Y-119749924D01*
X126907000Y-119518076D01*
X126861769Y-119290682D01*
X126773044Y-119076481D01*
X126644236Y-118883706D01*
X126480294Y-118719764D01*
X126287519Y-118590956D01*
X126073318Y-118502231D01*
X125845924Y-118457000D01*
X125614076Y-118457000D01*
X125386682Y-118502231D01*
X125172481Y-118590956D01*
X124979706Y-118719764D01*
X124815764Y-118883706D01*
X124686956Y-119076481D01*
X124598231Y-119290682D01*
X124553000Y-119518076D01*
X122961000Y-119518076D01*
X122961000Y-116978076D01*
X124553000Y-116978076D01*
X124553000Y-117209924D01*
X124598231Y-117437318D01*
X124686956Y-117651519D01*
X124815764Y-117844294D01*
X124979706Y-118008236D01*
X125172481Y-118137044D01*
X125386682Y-118225769D01*
X125614076Y-118271000D01*
X125845924Y-118271000D01*
X126073318Y-118225769D01*
X126287519Y-118137044D01*
X126480294Y-118008236D01*
X126644236Y-117844294D01*
X126773044Y-117651519D01*
X126861769Y-117437318D01*
X126907000Y-117209924D01*
X126907000Y-116978076D01*
X126861769Y-116750682D01*
X126773044Y-116536481D01*
X126644236Y-116343706D01*
X126480294Y-116179764D01*
X126287519Y-116050956D01*
X126073318Y-115962231D01*
X125845924Y-115917000D01*
X125614076Y-115917000D01*
X125386682Y-115962231D01*
X125172481Y-116050956D01*
X124979706Y-116179764D01*
X124815764Y-116343706D01*
X124686956Y-116536481D01*
X124598231Y-116750682D01*
X124553000Y-116978076D01*
X122961000Y-116978076D01*
X122961000Y-111898076D01*
X124553000Y-111898076D01*
X124553000Y-112129924D01*
X124598231Y-112357318D01*
X124686956Y-112571519D01*
X124815764Y-112764294D01*
X124979706Y-112928236D01*
X125172481Y-113057044D01*
X125386682Y-113145769D01*
X125614076Y-113191000D01*
X125845924Y-113191000D01*
X126073318Y-113145769D01*
X126287519Y-113057044D01*
X126480294Y-112928236D01*
X126644236Y-112764294D01*
X126773044Y-112571519D01*
X126816751Y-112466000D01*
X134432777Y-112466000D01*
X136146797Y-114180020D01*
X136142333Y-114176357D01*
X136063810Y-114134386D01*
X135978607Y-114108540D01*
X135912205Y-114102000D01*
X135890000Y-114099813D01*
X135867795Y-114102000D01*
X126816751Y-114102000D01*
X126773044Y-113996481D01*
X126644236Y-113803706D01*
X126480294Y-113639764D01*
X126287519Y-113510956D01*
X126073318Y-113422231D01*
X125845924Y-113377000D01*
X125614076Y-113377000D01*
X125386682Y-113422231D01*
X125172481Y-113510956D01*
X124979706Y-113639764D01*
X124815764Y-113803706D01*
X124686956Y-113996481D01*
X124598231Y-114210682D01*
X124553000Y-114438076D01*
X124553000Y-114669924D01*
X124598231Y-114897318D01*
X124686956Y-115111519D01*
X124815764Y-115304294D01*
X124979706Y-115468236D01*
X125172481Y-115597044D01*
X125386682Y-115685769D01*
X125614076Y-115731000D01*
X125845924Y-115731000D01*
X126073318Y-115685769D01*
X126287519Y-115597044D01*
X126480294Y-115468236D01*
X126644236Y-115304294D01*
X126773044Y-115111519D01*
X126816751Y-115006000D01*
X135702777Y-115006000D01*
X140499683Y-119802908D01*
X140497000Y-119816397D01*
X140497000Y-119959603D01*
X140524938Y-120100058D01*
X140579741Y-120232364D01*
X140659302Y-120351436D01*
X140760564Y-120452698D01*
X140879636Y-120532259D01*
X141011942Y-120587062D01*
X141152397Y-120615000D01*
X141295603Y-120615000D01*
X141436058Y-120587062D01*
X141568364Y-120532259D01*
X141687436Y-120452698D01*
X141788698Y-120351436D01*
X141868259Y-120232364D01*
X141923062Y-120100058D01*
X141951000Y-119959603D01*
X141951000Y-119816397D01*
X141923062Y-119675942D01*
X141868259Y-119543636D01*
X141788698Y-119424564D01*
X141687436Y-119323302D01*
X141582221Y-119253000D01*
X141687436Y-119182698D01*
X141788698Y-119081436D01*
X141868259Y-118962364D01*
X141923062Y-118830058D01*
X141951000Y-118689603D01*
X141951000Y-118546397D01*
X141923062Y-118405942D01*
X141868259Y-118273636D01*
X141788698Y-118154564D01*
X141687436Y-118053302D01*
X141568364Y-117973741D01*
X141436058Y-117918938D01*
X141295603Y-117891000D01*
X141152397Y-117891000D01*
X141138908Y-117893683D01*
X134955323Y-111710100D01*
X134941159Y-111692841D01*
X134872333Y-111636357D01*
X134793810Y-111594386D01*
X134708607Y-111568540D01*
X134642205Y-111562000D01*
X134620000Y-111559813D01*
X134597795Y-111562000D01*
X126816751Y-111562000D01*
X126773044Y-111456481D01*
X126644236Y-111263706D01*
X126480294Y-111099764D01*
X126287519Y-110970956D01*
X126073318Y-110882231D01*
X125845924Y-110837000D01*
X125614076Y-110837000D01*
X125386682Y-110882231D01*
X125172481Y-110970956D01*
X124979706Y-111099764D01*
X124815764Y-111263706D01*
X124686956Y-111456481D01*
X124598231Y-111670682D01*
X124553000Y-111898076D01*
X122961000Y-111898076D01*
X122961000Y-109358076D01*
X124553000Y-109358076D01*
X124553000Y-109589924D01*
X124598231Y-109817318D01*
X124686956Y-110031519D01*
X124815764Y-110224294D01*
X124979706Y-110388236D01*
X125172481Y-110517044D01*
X125386682Y-110605769D01*
X125614076Y-110651000D01*
X125845924Y-110651000D01*
X126073318Y-110605769D01*
X126287519Y-110517044D01*
X126480294Y-110388236D01*
X126644236Y-110224294D01*
X126773044Y-110031519D01*
X126816751Y-109926000D01*
X134468252Y-109926000D01*
X134490457Y-109928187D01*
X134512662Y-109926000D01*
X134579064Y-109919460D01*
X134664267Y-109893614D01*
X134703844Y-109872460D01*
X134740169Y-109879685D01*
X134883375Y-109879685D01*
X135023830Y-109851747D01*
X135156136Y-109796944D01*
X135275208Y-109717383D01*
X135376470Y-109616121D01*
X135456031Y-109497049D01*
X135510834Y-109364743D01*
X135533843Y-109249066D01*
X148508686Y-122223911D01*
X148522841Y-122241159D01*
X148591667Y-122297643D01*
X148670190Y-122339614D01*
X148735562Y-122359444D01*
X148755392Y-122365460D01*
X148843999Y-122374187D01*
X148866204Y-122372000D01*
X165543661Y-122372000D01*
X165551302Y-122383436D01*
X165652564Y-122484698D01*
X165771636Y-122564259D01*
X165903942Y-122619062D01*
X166044397Y-122647000D01*
X166187603Y-122647000D01*
X166328058Y-122619062D01*
X166460364Y-122564259D01*
X166579436Y-122484698D01*
X166680698Y-122383436D01*
X166760259Y-122264364D01*
X166815062Y-122132058D01*
X166843000Y-121991603D01*
X166843000Y-121848397D01*
X166815062Y-121707942D01*
X166760259Y-121575636D01*
X166680698Y-121456564D01*
X166579436Y-121355302D01*
X166460364Y-121275741D01*
X166328058Y-121220938D01*
X166187603Y-121193000D01*
X166044397Y-121193000D01*
X165903942Y-121220938D01*
X165771636Y-121275741D01*
X165652564Y-121355302D01*
X165551302Y-121456564D01*
X165543661Y-121468000D01*
X149031225Y-121468000D01*
X135852317Y-108289094D01*
X135855000Y-108275603D01*
X135855000Y-108132397D01*
X135827062Y-107991942D01*
X135772259Y-107859636D01*
X135692698Y-107740564D01*
X135591436Y-107639302D01*
X135472364Y-107559741D01*
X135340058Y-107504938D01*
X135199603Y-107477000D01*
X135056397Y-107477000D01*
X134915942Y-107504938D01*
X134783636Y-107559741D01*
X134664564Y-107639302D01*
X134563302Y-107740564D01*
X134483741Y-107859636D01*
X134428938Y-107991942D01*
X134401000Y-108132397D01*
X134401000Y-108275603D01*
X134428938Y-108416058D01*
X134467244Y-108508536D01*
X134348336Y-108587987D01*
X134247074Y-108689249D01*
X134167513Y-108808321D01*
X134112710Y-108940627D01*
X134096524Y-109022000D01*
X126816751Y-109022000D01*
X126773044Y-108916481D01*
X126644236Y-108723706D01*
X126480294Y-108559764D01*
X126287519Y-108430956D01*
X126073318Y-108342231D01*
X125845924Y-108297000D01*
X125614076Y-108297000D01*
X125386682Y-108342231D01*
X125172481Y-108430956D01*
X124979706Y-108559764D01*
X124815764Y-108723706D01*
X124686956Y-108916481D01*
X124598231Y-109130682D01*
X124553000Y-109358076D01*
X122961000Y-109358076D01*
X122961000Y-106084000D01*
X124551418Y-106084000D01*
X124551418Y-107784000D01*
X124557732Y-107848103D01*
X124576430Y-107909743D01*
X124606794Y-107966550D01*
X124647657Y-108016343D01*
X124697450Y-108057206D01*
X124754257Y-108087570D01*
X124815897Y-108106268D01*
X124880000Y-108112582D01*
X126580000Y-108112582D01*
X126644103Y-108106268D01*
X126705743Y-108087570D01*
X126762550Y-108057206D01*
X126812343Y-108016343D01*
X126853206Y-107966550D01*
X126883570Y-107909743D01*
X126902268Y-107848103D01*
X126908582Y-107784000D01*
X126908582Y-106084000D01*
X126902268Y-106019897D01*
X126883570Y-105958257D01*
X126853206Y-105901450D01*
X126812343Y-105851657D01*
X126762550Y-105810794D01*
X126705743Y-105780430D01*
X126644103Y-105761732D01*
X126580000Y-105755418D01*
X124880000Y-105755418D01*
X124815897Y-105761732D01*
X124754257Y-105780430D01*
X124697450Y-105810794D01*
X124647657Y-105851657D01*
X124606794Y-105901450D01*
X124576430Y-105958257D01*
X124557732Y-106019897D01*
X124551418Y-106084000D01*
X122961000Y-106084000D01*
X122961000Y-105592397D01*
X162595000Y-105592397D01*
X162595000Y-105735603D01*
X162622938Y-105876058D01*
X162677741Y-106008364D01*
X162757302Y-106127436D01*
X162858564Y-106228698D01*
X162870001Y-106236340D01*
X162870000Y-117212272D01*
X162867813Y-117234477D01*
X162870000Y-117256681D01*
X162876540Y-117323083D01*
X162902386Y-117408286D01*
X162944357Y-117486809D01*
X163000841Y-117555636D01*
X163018100Y-117569800D01*
X171528389Y-126080089D01*
X171227750Y-126081000D01*
X171069000Y-126239750D01*
X171069000Y-127889000D01*
X172718250Y-127889000D01*
X172877000Y-127730250D01*
X172877911Y-127429612D01*
X173768204Y-128319905D01*
X173782364Y-128337159D01*
X173851190Y-128393643D01*
X173929713Y-128435614D01*
X174014915Y-128461460D01*
X174103522Y-128470187D01*
X174125727Y-128468000D01*
X174373034Y-128468000D01*
X174377525Y-128490578D01*
X174500172Y-128786673D01*
X174678227Y-129053152D01*
X174904848Y-129279773D01*
X175171327Y-129457828D01*
X175467422Y-129580475D01*
X175781755Y-129643000D01*
X176102245Y-129643000D01*
X176416578Y-129580475D01*
X176712673Y-129457828D01*
X176979152Y-129279773D01*
X177205773Y-129053152D01*
X177383828Y-128786673D01*
X177506475Y-128490578D01*
X177569000Y-128176245D01*
X177569000Y-127855755D01*
X179315000Y-127855755D01*
X179315000Y-128176245D01*
X179377525Y-128490578D01*
X179500172Y-128786673D01*
X179678227Y-129053152D01*
X179904848Y-129279773D01*
X180171327Y-129457828D01*
X180467422Y-129580475D01*
X180781755Y-129643000D01*
X181102245Y-129643000D01*
X181416578Y-129580475D01*
X181712673Y-129457828D01*
X181979152Y-129279773D01*
X182205773Y-129053152D01*
X182383828Y-128786673D01*
X182506475Y-128490578D01*
X182569000Y-128176245D01*
X182569000Y-127855755D01*
X182506475Y-127541422D01*
X182383828Y-127245327D01*
X182205773Y-126978848D01*
X181979152Y-126752227D01*
X181712673Y-126574172D01*
X181416578Y-126451525D01*
X181102245Y-126389000D01*
X180781755Y-126389000D01*
X180467422Y-126451525D01*
X180171327Y-126574172D01*
X179904848Y-126752227D01*
X179678227Y-126978848D01*
X179500172Y-127245327D01*
X179377525Y-127541422D01*
X179315000Y-127855755D01*
X177569000Y-127855755D01*
X177506475Y-127541422D01*
X177383828Y-127245327D01*
X177205773Y-126978848D01*
X176979152Y-126752227D01*
X176712673Y-126574172D01*
X176416578Y-126451525D01*
X176102245Y-126389000D01*
X175781755Y-126389000D01*
X175467422Y-126451525D01*
X175171327Y-126574172D01*
X174904848Y-126752227D01*
X174678227Y-126978848D01*
X174500172Y-127245327D01*
X174377525Y-127541422D01*
X174373034Y-127564000D01*
X174290747Y-127564000D01*
X165325278Y-118598531D01*
X172239000Y-118598531D01*
X172239000Y-119253468D01*
X172261818Y-119485145D01*
X172351993Y-119782411D01*
X172498428Y-120056372D01*
X172695497Y-120296503D01*
X172935627Y-120493572D01*
X173209588Y-120640007D01*
X173506854Y-120730182D01*
X173816000Y-120760630D01*
X174125145Y-120730182D01*
X174422411Y-120640007D01*
X174696372Y-120493572D01*
X174936503Y-120296503D01*
X175133572Y-120056373D01*
X175280007Y-119782412D01*
X175370182Y-119485146D01*
X175393000Y-119253469D01*
X175393000Y-118598532D01*
X175393000Y-118598531D01*
X177239000Y-118598531D01*
X177239000Y-119253468D01*
X177261818Y-119485145D01*
X177351993Y-119782411D01*
X177498428Y-120056372D01*
X177695497Y-120296503D01*
X177935627Y-120493572D01*
X178209588Y-120640007D01*
X178506854Y-120730182D01*
X178816000Y-120760630D01*
X179125145Y-120730182D01*
X179422411Y-120640007D01*
X179696372Y-120493572D01*
X179936503Y-120296503D01*
X180133572Y-120056373D01*
X180280007Y-119782412D01*
X180370182Y-119485146D01*
X180393000Y-119253469D01*
X180393000Y-118598532D01*
X180370182Y-118366855D01*
X180280007Y-118069588D01*
X180133572Y-117795627D01*
X179936503Y-117555497D01*
X179696373Y-117358428D01*
X179422412Y-117211993D01*
X179125146Y-117121818D01*
X178816000Y-117091370D01*
X178506855Y-117121818D01*
X178209589Y-117211993D01*
X177935628Y-117358428D01*
X177695497Y-117555497D01*
X177498428Y-117795627D01*
X177351993Y-118069588D01*
X177261818Y-118366854D01*
X177239000Y-118598531D01*
X175393000Y-118598531D01*
X175370182Y-118366855D01*
X175280007Y-118069588D01*
X175133572Y-117795627D01*
X174936503Y-117555497D01*
X174696373Y-117358428D01*
X174422412Y-117211993D01*
X174125146Y-117121818D01*
X173816000Y-117091370D01*
X173506855Y-117121818D01*
X173209589Y-117211993D01*
X172935628Y-117358428D01*
X172695497Y-117555497D01*
X172498428Y-117795627D01*
X172351993Y-118069588D01*
X172261818Y-118366854D01*
X172239000Y-118598531D01*
X165325278Y-118598531D01*
X163774000Y-117047254D01*
X163774000Y-106236339D01*
X163785436Y-106228698D01*
X163886698Y-106127436D01*
X163906011Y-106098531D01*
X172239000Y-106098531D01*
X172239000Y-106753468D01*
X172261818Y-106985145D01*
X172351993Y-107282411D01*
X172498428Y-107556372D01*
X172695497Y-107796503D01*
X172935627Y-107993572D01*
X173209588Y-108140007D01*
X173506854Y-108230182D01*
X173816000Y-108260630D01*
X174125145Y-108230182D01*
X174422411Y-108140007D01*
X174696372Y-107993572D01*
X174936503Y-107796503D01*
X175133572Y-107556373D01*
X175280007Y-107282412D01*
X175370182Y-106985146D01*
X175393000Y-106753469D01*
X175393000Y-106098532D01*
X175393000Y-106098531D01*
X177239000Y-106098531D01*
X177239000Y-106753468D01*
X177261818Y-106985145D01*
X177351993Y-107282411D01*
X177498428Y-107556372D01*
X177695497Y-107796503D01*
X177935627Y-107993572D01*
X178209588Y-108140007D01*
X178506854Y-108230182D01*
X178816000Y-108260630D01*
X179125145Y-108230182D01*
X179422411Y-108140007D01*
X179696372Y-107993572D01*
X179936503Y-107796503D01*
X180133572Y-107556373D01*
X180280007Y-107282412D01*
X180370182Y-106985146D01*
X180393000Y-106753469D01*
X180393000Y-106098532D01*
X180370182Y-105866855D01*
X180280007Y-105569588D01*
X180133572Y-105295627D01*
X179936503Y-105055497D01*
X179696373Y-104858428D01*
X179422412Y-104711993D01*
X179125146Y-104621818D01*
X178816000Y-104591370D01*
X178506855Y-104621818D01*
X178209589Y-104711993D01*
X177935628Y-104858428D01*
X177695497Y-105055497D01*
X177498428Y-105295627D01*
X177351993Y-105569588D01*
X177261818Y-105866854D01*
X177239000Y-106098531D01*
X175393000Y-106098531D01*
X175370182Y-105866855D01*
X175280007Y-105569588D01*
X175133572Y-105295627D01*
X174936503Y-105055497D01*
X174696373Y-104858428D01*
X174422412Y-104711993D01*
X174125146Y-104621818D01*
X173816000Y-104591370D01*
X173506855Y-104621818D01*
X173209589Y-104711993D01*
X172935628Y-104858428D01*
X172695497Y-105055497D01*
X172498428Y-105295627D01*
X172351993Y-105569588D01*
X172261818Y-105866854D01*
X172239000Y-106098531D01*
X163906011Y-106098531D01*
X163966259Y-106008364D01*
X164021062Y-105876058D01*
X164049000Y-105735603D01*
X164049000Y-105592397D01*
X164021062Y-105451942D01*
X163966259Y-105319636D01*
X163886698Y-105200564D01*
X163785436Y-105099302D01*
X163666364Y-105019741D01*
X163534058Y-104964938D01*
X163393603Y-104937000D01*
X163250397Y-104937000D01*
X163109942Y-104964938D01*
X162977636Y-105019741D01*
X162858564Y-105099302D01*
X162757302Y-105200564D01*
X162677741Y-105319636D01*
X162622938Y-105451942D01*
X162595000Y-105592397D01*
X122961000Y-105592397D01*
X122961000Y-104407641D01*
X122981185Y-104201777D01*
X123037012Y-104016870D01*
X123127688Y-103846332D01*
X123249762Y-103696653D01*
X123398590Y-103573532D01*
X123568493Y-103481666D01*
X123752997Y-103424552D01*
X123958054Y-103403000D01*
X183374359Y-103403000D01*
X183580223Y-103423185D01*
%TA.AperFunction,Conductor*%
D18*
G36*
X183580223Y-103423185D02*
G01*
X183765130Y-103479012D01*
X183935668Y-103569688D01*
X184085347Y-103691762D01*
X184208468Y-103840590D01*
X184300334Y-104010493D01*
X184357448Y-104194997D01*
X184379001Y-104400063D01*
X184379000Y-134352359D01*
X184358815Y-134558223D01*
X184302988Y-134743130D01*
X184212310Y-134913670D01*
X184090235Y-135063349D01*
X183941410Y-135186468D01*
X183771511Y-135278332D01*
X183587003Y-135335448D01*
X183381946Y-135357000D01*
X123965641Y-135357000D01*
X123759777Y-135336815D01*
X123574870Y-135280988D01*
X123404330Y-135190310D01*
X123254651Y-135068235D01*
X123131532Y-134919410D01*
X123039668Y-134749511D01*
X122982552Y-134565003D01*
X122961000Y-134359946D01*
X122961000Y-131944377D01*
X130195000Y-131944377D01*
X130195000Y-132215623D01*
X130247917Y-132481656D01*
X130351718Y-132732254D01*
X130502414Y-132957787D01*
X130694213Y-133149586D01*
X130919746Y-133300282D01*
X131170344Y-133404083D01*
X131436377Y-133457000D01*
X131707623Y-133457000D01*
X131973656Y-133404083D01*
X132224254Y-133300282D01*
X132449787Y-133149586D01*
X132641586Y-132957787D01*
X132792282Y-132732254D01*
X132896083Y-132481656D01*
X132949000Y-132215623D01*
X132949000Y-131944377D01*
X132898477Y-131690377D01*
X163723000Y-131690377D01*
X163723000Y-131961623D01*
X163775917Y-132227656D01*
X163879718Y-132478254D01*
X164030414Y-132703787D01*
X164222213Y-132895586D01*
X164447746Y-133046282D01*
X164698344Y-133150083D01*
X164964377Y-133203000D01*
X165235623Y-133203000D01*
X165501656Y-133150083D01*
X165752254Y-133046282D01*
X165977787Y-132895586D01*
X166169586Y-132703787D01*
X166320282Y-132478254D01*
X166424083Y-132227656D01*
X166477000Y-131961623D01*
X166477000Y-131690377D01*
X166424083Y-131424344D01*
X166320282Y-131173746D01*
X166169586Y-130948213D01*
X165977787Y-130756414D01*
X165752254Y-130605718D01*
X165501656Y-130501917D01*
X165235623Y-130449000D01*
X164964377Y-130449000D01*
X164698344Y-130501917D01*
X164447746Y-130605718D01*
X164222213Y-130756414D01*
X164030414Y-130948213D01*
X163879718Y-131173746D01*
X163775917Y-131424344D01*
X163723000Y-131690377D01*
X132898477Y-131690377D01*
X132896083Y-131678344D01*
X132792282Y-131427746D01*
X132641586Y-131202213D01*
X132449787Y-131010414D01*
X132224254Y-130859718D01*
X131973656Y-130755917D01*
X131707623Y-130703000D01*
X131436377Y-130703000D01*
X131170344Y-130755917D01*
X130919746Y-130859718D01*
X130694213Y-131010414D01*
X130502414Y-131202213D01*
X130351718Y-131427746D01*
X130247917Y-131678344D01*
X130195000Y-131944377D01*
X122961000Y-131944377D01*
X122961000Y-129316000D01*
X169003928Y-129316000D01*
X169016188Y-129440482D01*
X169052498Y-129560180D01*
X169111463Y-129670494D01*
X169190815Y-129767185D01*
X169287506Y-129846537D01*
X169397820Y-129905502D01*
X169517518Y-129941812D01*
X169642000Y-129954072D01*
X170656250Y-129951000D01*
X170815000Y-129792250D01*
X170815000Y-128143000D01*
X171069000Y-128143000D01*
X171069000Y-129792250D01*
X171227750Y-129951000D01*
X172242000Y-129954072D01*
X172366482Y-129941812D01*
X172486180Y-129905502D01*
X172596494Y-129846537D01*
X172693185Y-129767185D01*
X172772537Y-129670494D01*
X172831502Y-129560180D01*
X172867812Y-129440482D01*
X172880072Y-129316000D01*
X172877000Y-128301750D01*
X172718250Y-128143000D01*
X171069000Y-128143000D01*
X170815000Y-128143000D01*
X169165750Y-128143000D01*
X169007000Y-128301750D01*
X169003928Y-129316000D01*
X122961000Y-129316000D01*
X122961000Y-126716000D01*
X169003928Y-126716000D01*
X169007000Y-127730250D01*
X169165750Y-127889000D01*
X170815000Y-127889000D01*
X170815000Y-126239750D01*
X170656250Y-126081000D01*
X169642000Y-126077928D01*
X169517518Y-126090188D01*
X169397820Y-126126498D01*
X169287506Y-126185463D01*
X169190815Y-126264815D01*
X169111463Y-126361506D01*
X169052498Y-126471820D01*
X169016188Y-126591518D01*
X169003928Y-126716000D01*
X122961000Y-126716000D01*
X122961000Y-119518076D01*
X124553000Y-119518076D01*
X124553000Y-119749924D01*
X124598231Y-119977318D01*
X124686956Y-120191519D01*
X124815764Y-120384294D01*
X124979706Y-120548236D01*
X125172481Y-120677044D01*
X125386682Y-120765769D01*
X125614076Y-120811000D01*
X125845924Y-120811000D01*
X126073318Y-120765769D01*
X126287519Y-120677044D01*
X126480294Y-120548236D01*
X126644236Y-120384294D01*
X126773044Y-120191519D01*
X126861769Y-119977318D01*
X126907000Y-119749924D01*
X126907000Y-119518076D01*
X126861769Y-119290682D01*
X126773044Y-119076481D01*
X126644236Y-118883706D01*
X126480294Y-118719764D01*
X126287519Y-118590956D01*
X126073318Y-118502231D01*
X125845924Y-118457000D01*
X125614076Y-118457000D01*
X125386682Y-118502231D01*
X125172481Y-118590956D01*
X124979706Y-118719764D01*
X124815764Y-118883706D01*
X124686956Y-119076481D01*
X124598231Y-119290682D01*
X124553000Y-119518076D01*
X122961000Y-119518076D01*
X122961000Y-116978076D01*
X124553000Y-116978076D01*
X124553000Y-117209924D01*
X124598231Y-117437318D01*
X124686956Y-117651519D01*
X124815764Y-117844294D01*
X124979706Y-118008236D01*
X125172481Y-118137044D01*
X125386682Y-118225769D01*
X125614076Y-118271000D01*
X125845924Y-118271000D01*
X126073318Y-118225769D01*
X126287519Y-118137044D01*
X126480294Y-118008236D01*
X126644236Y-117844294D01*
X126773044Y-117651519D01*
X126861769Y-117437318D01*
X126907000Y-117209924D01*
X126907000Y-116978076D01*
X126861769Y-116750682D01*
X126773044Y-116536481D01*
X126644236Y-116343706D01*
X126480294Y-116179764D01*
X126287519Y-116050956D01*
X126073318Y-115962231D01*
X125845924Y-115917000D01*
X125614076Y-115917000D01*
X125386682Y-115962231D01*
X125172481Y-116050956D01*
X124979706Y-116179764D01*
X124815764Y-116343706D01*
X124686956Y-116536481D01*
X124598231Y-116750682D01*
X124553000Y-116978076D01*
X122961000Y-116978076D01*
X122961000Y-111898076D01*
X124553000Y-111898076D01*
X124553000Y-112129924D01*
X124598231Y-112357318D01*
X124686956Y-112571519D01*
X124815764Y-112764294D01*
X124979706Y-112928236D01*
X125172481Y-113057044D01*
X125386682Y-113145769D01*
X125614076Y-113191000D01*
X125845924Y-113191000D01*
X126073318Y-113145769D01*
X126287519Y-113057044D01*
X126480294Y-112928236D01*
X126644236Y-112764294D01*
X126773044Y-112571519D01*
X126816751Y-112466000D01*
X134432777Y-112466000D01*
X136146797Y-114180020D01*
X136142333Y-114176357D01*
X136063810Y-114134386D01*
X135978607Y-114108540D01*
X135912205Y-114102000D01*
X135890000Y-114099813D01*
X135867795Y-114102000D01*
X126816751Y-114102000D01*
X126773044Y-113996481D01*
X126644236Y-113803706D01*
X126480294Y-113639764D01*
X126287519Y-113510956D01*
X126073318Y-113422231D01*
X125845924Y-113377000D01*
X125614076Y-113377000D01*
X125386682Y-113422231D01*
X125172481Y-113510956D01*
X124979706Y-113639764D01*
X124815764Y-113803706D01*
X124686956Y-113996481D01*
X124598231Y-114210682D01*
X124553000Y-114438076D01*
X124553000Y-114669924D01*
X124598231Y-114897318D01*
X124686956Y-115111519D01*
X124815764Y-115304294D01*
X124979706Y-115468236D01*
X125172481Y-115597044D01*
X125386682Y-115685769D01*
X125614076Y-115731000D01*
X125845924Y-115731000D01*
X126073318Y-115685769D01*
X126287519Y-115597044D01*
X126480294Y-115468236D01*
X126644236Y-115304294D01*
X126773044Y-115111519D01*
X126816751Y-115006000D01*
X135702777Y-115006000D01*
X140499683Y-119802908D01*
X140497000Y-119816397D01*
X140497000Y-119959603D01*
X140524938Y-120100058D01*
X140579741Y-120232364D01*
X140659302Y-120351436D01*
X140760564Y-120452698D01*
X140879636Y-120532259D01*
X141011942Y-120587062D01*
X141152397Y-120615000D01*
X141295603Y-120615000D01*
X141436058Y-120587062D01*
X141568364Y-120532259D01*
X141687436Y-120452698D01*
X141788698Y-120351436D01*
X141868259Y-120232364D01*
X141923062Y-120100058D01*
X141951000Y-119959603D01*
X141951000Y-119816397D01*
X141923062Y-119675942D01*
X141868259Y-119543636D01*
X141788698Y-119424564D01*
X141687436Y-119323302D01*
X141582221Y-119253000D01*
X141687436Y-119182698D01*
X141788698Y-119081436D01*
X141868259Y-118962364D01*
X141923062Y-118830058D01*
X141951000Y-118689603D01*
X141951000Y-118546397D01*
X141923062Y-118405942D01*
X141868259Y-118273636D01*
X141788698Y-118154564D01*
X141687436Y-118053302D01*
X141568364Y-117973741D01*
X141436058Y-117918938D01*
X141295603Y-117891000D01*
X141152397Y-117891000D01*
X141138908Y-117893683D01*
X134955323Y-111710100D01*
X134941159Y-111692841D01*
X134872333Y-111636357D01*
X134793810Y-111594386D01*
X134708607Y-111568540D01*
X134642205Y-111562000D01*
X134620000Y-111559813D01*
X134597795Y-111562000D01*
X126816751Y-111562000D01*
X126773044Y-111456481D01*
X126644236Y-111263706D01*
X126480294Y-111099764D01*
X126287519Y-110970956D01*
X126073318Y-110882231D01*
X125845924Y-110837000D01*
X125614076Y-110837000D01*
X125386682Y-110882231D01*
X125172481Y-110970956D01*
X124979706Y-111099764D01*
X124815764Y-111263706D01*
X124686956Y-111456481D01*
X124598231Y-111670682D01*
X124553000Y-111898076D01*
X122961000Y-111898076D01*
X122961000Y-109358076D01*
X124553000Y-109358076D01*
X124553000Y-109589924D01*
X124598231Y-109817318D01*
X124686956Y-110031519D01*
X124815764Y-110224294D01*
X124979706Y-110388236D01*
X125172481Y-110517044D01*
X125386682Y-110605769D01*
X125614076Y-110651000D01*
X125845924Y-110651000D01*
X126073318Y-110605769D01*
X126287519Y-110517044D01*
X126480294Y-110388236D01*
X126644236Y-110224294D01*
X126773044Y-110031519D01*
X126816751Y-109926000D01*
X134468252Y-109926000D01*
X134490457Y-109928187D01*
X134512662Y-109926000D01*
X134579064Y-109919460D01*
X134664267Y-109893614D01*
X134703844Y-109872460D01*
X134740169Y-109879685D01*
X134883375Y-109879685D01*
X135023830Y-109851747D01*
X135156136Y-109796944D01*
X135275208Y-109717383D01*
X135376470Y-109616121D01*
X135456031Y-109497049D01*
X135510834Y-109364743D01*
X135533843Y-109249066D01*
X148508686Y-122223911D01*
X148522841Y-122241159D01*
X148591667Y-122297643D01*
X148670190Y-122339614D01*
X148735562Y-122359444D01*
X148755392Y-122365460D01*
X148843999Y-122374187D01*
X148866204Y-122372000D01*
X165543661Y-122372000D01*
X165551302Y-122383436D01*
X165652564Y-122484698D01*
X165771636Y-122564259D01*
X165903942Y-122619062D01*
X166044397Y-122647000D01*
X166187603Y-122647000D01*
X166328058Y-122619062D01*
X166460364Y-122564259D01*
X166579436Y-122484698D01*
X166680698Y-122383436D01*
X166760259Y-122264364D01*
X166815062Y-122132058D01*
X166843000Y-121991603D01*
X166843000Y-121848397D01*
X166815062Y-121707942D01*
X166760259Y-121575636D01*
X166680698Y-121456564D01*
X166579436Y-121355302D01*
X166460364Y-121275741D01*
X166328058Y-121220938D01*
X166187603Y-121193000D01*
X166044397Y-121193000D01*
X165903942Y-121220938D01*
X165771636Y-121275741D01*
X165652564Y-121355302D01*
X165551302Y-121456564D01*
X165543661Y-121468000D01*
X149031225Y-121468000D01*
X135852317Y-108289094D01*
X135855000Y-108275603D01*
X135855000Y-108132397D01*
X135827062Y-107991942D01*
X135772259Y-107859636D01*
X135692698Y-107740564D01*
X135591436Y-107639302D01*
X135472364Y-107559741D01*
X135340058Y-107504938D01*
X135199603Y-107477000D01*
X135056397Y-107477000D01*
X134915942Y-107504938D01*
X134783636Y-107559741D01*
X134664564Y-107639302D01*
X134563302Y-107740564D01*
X134483741Y-107859636D01*
X134428938Y-107991942D01*
X134401000Y-108132397D01*
X134401000Y-108275603D01*
X134428938Y-108416058D01*
X134467244Y-108508536D01*
X134348336Y-108587987D01*
X134247074Y-108689249D01*
X134167513Y-108808321D01*
X134112710Y-108940627D01*
X134096524Y-109022000D01*
X126816751Y-109022000D01*
X126773044Y-108916481D01*
X126644236Y-108723706D01*
X126480294Y-108559764D01*
X126287519Y-108430956D01*
X126073318Y-108342231D01*
X125845924Y-108297000D01*
X125614076Y-108297000D01*
X125386682Y-108342231D01*
X125172481Y-108430956D01*
X124979706Y-108559764D01*
X124815764Y-108723706D01*
X124686956Y-108916481D01*
X124598231Y-109130682D01*
X124553000Y-109358076D01*
X122961000Y-109358076D01*
X122961000Y-106084000D01*
X124551418Y-106084000D01*
X124551418Y-107784000D01*
X124557732Y-107848103D01*
X124576430Y-107909743D01*
X124606794Y-107966550D01*
X124647657Y-108016343D01*
X124697450Y-108057206D01*
X124754257Y-108087570D01*
X124815897Y-108106268D01*
X124880000Y-108112582D01*
X126580000Y-108112582D01*
X126644103Y-108106268D01*
X126705743Y-108087570D01*
X126762550Y-108057206D01*
X126812343Y-108016343D01*
X126853206Y-107966550D01*
X126883570Y-107909743D01*
X126902268Y-107848103D01*
X126908582Y-107784000D01*
X126908582Y-106084000D01*
X126902268Y-106019897D01*
X126883570Y-105958257D01*
X126853206Y-105901450D01*
X126812343Y-105851657D01*
X126762550Y-105810794D01*
X126705743Y-105780430D01*
X126644103Y-105761732D01*
X126580000Y-105755418D01*
X124880000Y-105755418D01*
X124815897Y-105761732D01*
X124754257Y-105780430D01*
X124697450Y-105810794D01*
X124647657Y-105851657D01*
X124606794Y-105901450D01*
X124576430Y-105958257D01*
X124557732Y-106019897D01*
X124551418Y-106084000D01*
X122961000Y-106084000D01*
X122961000Y-105592397D01*
X162595000Y-105592397D01*
X162595000Y-105735603D01*
X162622938Y-105876058D01*
X162677741Y-106008364D01*
X162757302Y-106127436D01*
X162858564Y-106228698D01*
X162870001Y-106236340D01*
X162870000Y-117212272D01*
X162867813Y-117234477D01*
X162870000Y-117256681D01*
X162876540Y-117323083D01*
X162902386Y-117408286D01*
X162944357Y-117486809D01*
X163000841Y-117555636D01*
X163018100Y-117569800D01*
X171528389Y-126080089D01*
X171227750Y-126081000D01*
X171069000Y-126239750D01*
X171069000Y-127889000D01*
X172718250Y-127889000D01*
X172877000Y-127730250D01*
X172877911Y-127429612D01*
X173768204Y-128319905D01*
X173782364Y-128337159D01*
X173851190Y-128393643D01*
X173929713Y-128435614D01*
X174014915Y-128461460D01*
X174103522Y-128470187D01*
X174125727Y-128468000D01*
X174373034Y-128468000D01*
X174377525Y-128490578D01*
X174500172Y-128786673D01*
X174678227Y-129053152D01*
X174904848Y-129279773D01*
X175171327Y-129457828D01*
X175467422Y-129580475D01*
X175781755Y-129643000D01*
X176102245Y-129643000D01*
X176416578Y-129580475D01*
X176712673Y-129457828D01*
X176979152Y-129279773D01*
X177205773Y-129053152D01*
X177383828Y-128786673D01*
X177506475Y-128490578D01*
X177569000Y-128176245D01*
X177569000Y-127855755D01*
X179315000Y-127855755D01*
X179315000Y-128176245D01*
X179377525Y-128490578D01*
X179500172Y-128786673D01*
X179678227Y-129053152D01*
X179904848Y-129279773D01*
X180171327Y-129457828D01*
X180467422Y-129580475D01*
X180781755Y-129643000D01*
X181102245Y-129643000D01*
X181416578Y-129580475D01*
X181712673Y-129457828D01*
X181979152Y-129279773D01*
X182205773Y-129053152D01*
X182383828Y-128786673D01*
X182506475Y-128490578D01*
X182569000Y-128176245D01*
X182569000Y-127855755D01*
X182506475Y-127541422D01*
X182383828Y-127245327D01*
X182205773Y-126978848D01*
X181979152Y-126752227D01*
X181712673Y-126574172D01*
X181416578Y-126451525D01*
X181102245Y-126389000D01*
X180781755Y-126389000D01*
X180467422Y-126451525D01*
X180171327Y-126574172D01*
X179904848Y-126752227D01*
X179678227Y-126978848D01*
X179500172Y-127245327D01*
X179377525Y-127541422D01*
X179315000Y-127855755D01*
X177569000Y-127855755D01*
X177506475Y-127541422D01*
X177383828Y-127245327D01*
X177205773Y-126978848D01*
X176979152Y-126752227D01*
X176712673Y-126574172D01*
X176416578Y-126451525D01*
X176102245Y-126389000D01*
X175781755Y-126389000D01*
X175467422Y-126451525D01*
X175171327Y-126574172D01*
X174904848Y-126752227D01*
X174678227Y-126978848D01*
X174500172Y-127245327D01*
X174377525Y-127541422D01*
X174373034Y-127564000D01*
X174290747Y-127564000D01*
X165325278Y-118598531D01*
X172239000Y-118598531D01*
X172239000Y-119253468D01*
X172261818Y-119485145D01*
X172351993Y-119782411D01*
X172498428Y-120056372D01*
X172695497Y-120296503D01*
X172935627Y-120493572D01*
X173209588Y-120640007D01*
X173506854Y-120730182D01*
X173816000Y-120760630D01*
X174125145Y-120730182D01*
X174422411Y-120640007D01*
X174696372Y-120493572D01*
X174936503Y-120296503D01*
X175133572Y-120056373D01*
X175280007Y-119782412D01*
X175370182Y-119485146D01*
X175393000Y-119253469D01*
X175393000Y-118598532D01*
X175393000Y-118598531D01*
X177239000Y-118598531D01*
X177239000Y-119253468D01*
X177261818Y-119485145D01*
X177351993Y-119782411D01*
X177498428Y-120056372D01*
X177695497Y-120296503D01*
X177935627Y-120493572D01*
X178209588Y-120640007D01*
X178506854Y-120730182D01*
X178816000Y-120760630D01*
X179125145Y-120730182D01*
X179422411Y-120640007D01*
X179696372Y-120493572D01*
X179936503Y-120296503D01*
X180133572Y-120056373D01*
X180280007Y-119782412D01*
X180370182Y-119485146D01*
X180393000Y-119253469D01*
X180393000Y-118598532D01*
X180370182Y-118366855D01*
X180280007Y-118069588D01*
X180133572Y-117795627D01*
X179936503Y-117555497D01*
X179696373Y-117358428D01*
X179422412Y-117211993D01*
X179125146Y-117121818D01*
X178816000Y-117091370D01*
X178506855Y-117121818D01*
X178209589Y-117211993D01*
X177935628Y-117358428D01*
X177695497Y-117555497D01*
X177498428Y-117795627D01*
X177351993Y-118069588D01*
X177261818Y-118366854D01*
X177239000Y-118598531D01*
X175393000Y-118598531D01*
X175370182Y-118366855D01*
X175280007Y-118069588D01*
X175133572Y-117795627D01*
X174936503Y-117555497D01*
X174696373Y-117358428D01*
X174422412Y-117211993D01*
X174125146Y-117121818D01*
X173816000Y-117091370D01*
X173506855Y-117121818D01*
X173209589Y-117211993D01*
X172935628Y-117358428D01*
X172695497Y-117555497D01*
X172498428Y-117795627D01*
X172351993Y-118069588D01*
X172261818Y-118366854D01*
X172239000Y-118598531D01*
X165325278Y-118598531D01*
X163774000Y-117047254D01*
X163774000Y-106236339D01*
X163785436Y-106228698D01*
X163886698Y-106127436D01*
X163906011Y-106098531D01*
X172239000Y-106098531D01*
X172239000Y-106753468D01*
X172261818Y-106985145D01*
X172351993Y-107282411D01*
X172498428Y-107556372D01*
X172695497Y-107796503D01*
X172935627Y-107993572D01*
X173209588Y-108140007D01*
X173506854Y-108230182D01*
X173816000Y-108260630D01*
X174125145Y-108230182D01*
X174422411Y-108140007D01*
X174696372Y-107993572D01*
X174936503Y-107796503D01*
X175133572Y-107556373D01*
X175280007Y-107282412D01*
X175370182Y-106985146D01*
X175393000Y-106753469D01*
X175393000Y-106098532D01*
X175393000Y-106098531D01*
X177239000Y-106098531D01*
X177239000Y-106753468D01*
X177261818Y-106985145D01*
X177351993Y-107282411D01*
X177498428Y-107556372D01*
X177695497Y-107796503D01*
X177935627Y-107993572D01*
X178209588Y-108140007D01*
X178506854Y-108230182D01*
X178816000Y-108260630D01*
X179125145Y-108230182D01*
X179422411Y-108140007D01*
X179696372Y-107993572D01*
X179936503Y-107796503D01*
X180133572Y-107556373D01*
X180280007Y-107282412D01*
X180370182Y-106985146D01*
X180393000Y-106753469D01*
X180393000Y-106098532D01*
X180370182Y-105866855D01*
X180280007Y-105569588D01*
X180133572Y-105295627D01*
X179936503Y-105055497D01*
X179696373Y-104858428D01*
X179422412Y-104711993D01*
X179125146Y-104621818D01*
X178816000Y-104591370D01*
X178506855Y-104621818D01*
X178209589Y-104711993D01*
X177935628Y-104858428D01*
X177695497Y-105055497D01*
X177498428Y-105295627D01*
X177351993Y-105569588D01*
X177261818Y-105866854D01*
X177239000Y-106098531D01*
X175393000Y-106098531D01*
X175370182Y-105866855D01*
X175280007Y-105569588D01*
X175133572Y-105295627D01*
X174936503Y-105055497D01*
X174696373Y-104858428D01*
X174422412Y-104711993D01*
X174125146Y-104621818D01*
X173816000Y-104591370D01*
X173506855Y-104621818D01*
X173209589Y-104711993D01*
X172935628Y-104858428D01*
X172695497Y-105055497D01*
X172498428Y-105295627D01*
X172351993Y-105569588D01*
X172261818Y-105866854D01*
X172239000Y-106098531D01*
X163906011Y-106098531D01*
X163966259Y-106008364D01*
X164021062Y-105876058D01*
X164049000Y-105735603D01*
X164049000Y-105592397D01*
X164021062Y-105451942D01*
X163966259Y-105319636D01*
X163886698Y-105200564D01*
X163785436Y-105099302D01*
X163666364Y-105019741D01*
X163534058Y-104964938D01*
X163393603Y-104937000D01*
X163250397Y-104937000D01*
X163109942Y-104964938D01*
X162977636Y-105019741D01*
X162858564Y-105099302D01*
X162757302Y-105200564D01*
X162677741Y-105319636D01*
X162622938Y-105451942D01*
X162595000Y-105592397D01*
X122961000Y-105592397D01*
X122961000Y-104407641D01*
X122981185Y-104201777D01*
X123037012Y-104016870D01*
X123127688Y-103846332D01*
X123249762Y-103696653D01*
X123398590Y-103573532D01*
X123568493Y-103481666D01*
X123752997Y-103424552D01*
X123958054Y-103403000D01*
X183374359Y-103403000D01*
X183580223Y-103423185D01*
G37*
%TD.AperFunction*%
%TD*%
M02*
