M48
; DRILL file {KiCad (5.1.10)-1} date 09/30/21 00:23:41
; FORMAT={-:-/ absolute / metric / decimal}
; #@! TF.CreationDate,2021-09-30T00:23:41-04:00
; #@! TF.GenerationSoftware,Kicad,Pcbnew,(5.1.10)-1
FMAT,2
METRIC
T1C0.400
T2C1.000
T3C1.200
T4C1.300
T5C2.100
%
G90
G05
T1
X134.812Y-109.153
X135.128Y-108.204
X137.922Y-123.952
X137.922Y-124.968
X138.938Y-123.952
X138.938Y-124.968
X139.954Y-123.952
X139.954Y-124.968
X141.224Y-118.618
X141.224Y-119.888
X163.322Y-105.664
X165.1Y-116.332
X166.116Y-121.92
X166.116Y-123.444
T2
X125.73Y-106.934
X125.73Y-109.474
X125.73Y-112.014
X125.73Y-114.554
X125.73Y-117.094
X125.73Y-119.634
T3
X173.816Y-106.426
X173.816Y-118.926
X178.816Y-106.426
X178.816Y-118.926
T4
X170.942Y-128.016
X175.942Y-128.016
X180.942Y-128.016
T5
X131.572Y-132.08
X165.1Y-131.826
T0
M30
