%TF.GenerationSoftware,KiCad,Pcbnew,(5.1.10)-1*%
%TF.CreationDate,2021-09-30T00:23:06-04:00*%
%TF.ProjectId,soil_sensor,736f696c-5f73-4656-9e73-6f722e6b6963,rev?*%
%TF.SameCoordinates,Original*%
%TF.FileFunction,Soldermask,Top*%
%TF.FilePolarity,Negative*%
%FSLAX46Y46*%
G04 Gerber Fmt 4.6, Leading zero omitted, Abs format (unit mm)*
G04 Created by KiCad (PCBNEW (5.1.10)-1) date 2021-09-30 00:23:06*
%MOMM*%
%LPD*%
G01*
G04 APERTURE LIST*
%ADD10R,0.900000X0.800000*%
%ADD11C,2.100000*%
%ADD12C,1.000000*%
%ADD13O,1.700000X1.700000*%
%ADD14R,1.700000X1.700000*%
%ADD15R,1.060000X0.650000*%
%ADD16R,2.000000X0.900000*%
%ADD17R,0.900000X2.000000*%
%ADD18R,5.000000X5.000000*%
%ADD19O,2.500000X3.000000*%
%ADD20C,2.600000*%
%ADD21R,2.600000X2.600000*%
%ADD22R,1.900000X1.000000*%
%ADD23R,1.900000X1.800000*%
%ADD24R,1.300000X1.650000*%
%ADD25R,1.550000X1.425000*%
%ADD26R,1.380000X0.450000*%
G04 APERTURE END LIST*
D10*
%TO.C,Q2*%
X133334000Y-110744000D03*
X131334000Y-111694000D03*
X131334000Y-109794000D03*
%TD*%
D11*
%TO.C,H2*%
X165100000Y-131826000D03*
%TD*%
%TO.C,H1*%
X131572000Y-132080000D03*
%TD*%
D12*
%TO.C,TP10*%
X163322000Y-107442000D03*
%TD*%
%TO.C,TP9*%
X165100000Y-120650000D03*
%TD*%
%TO.C,TP8*%
X137668000Y-109728000D03*
%TD*%
%TO.C,TP7*%
X131064000Y-113792000D03*
%TD*%
%TO.C,TP6*%
X133350000Y-113792000D03*
%TD*%
%TO.C,TP5*%
X137668000Y-107442000D03*
%TD*%
%TO.C,TP4*%
X139700000Y-113284000D03*
%TD*%
%TO.C,TP3*%
X139700000Y-115570000D03*
%TD*%
%TO.C,TP2*%
X165100000Y-118364000D03*
%TD*%
%TO.C,TP1*%
X135890000Y-130556000D03*
%TD*%
D10*
%TO.C,Q1*%
X133334000Y-106934000D03*
X131334000Y-107884000D03*
X131334000Y-105984000D03*
%TD*%
D13*
%TO.C,J3*%
X125730000Y-119634000D03*
X125730000Y-117094000D03*
X125730000Y-114554000D03*
X125730000Y-112014000D03*
X125730000Y-109474000D03*
D14*
X125730000Y-106934000D03*
%TD*%
%TO.C,C2*%
G36*
G01*
X132317500Y-126929000D02*
X131842500Y-126929000D01*
G75*
G02*
X131605000Y-126691500I0J237500D01*
G01*
X131605000Y-126091500D01*
G75*
G02*
X131842500Y-125854000I237500J0D01*
G01*
X132317500Y-125854000D01*
G75*
G02*
X132555000Y-126091500I0J-237500D01*
G01*
X132555000Y-126691500D01*
G75*
G02*
X132317500Y-126929000I-237500J0D01*
G01*
G37*
G36*
G01*
X132317500Y-128654000D02*
X131842500Y-128654000D01*
G75*
G02*
X131605000Y-128416500I0J237500D01*
G01*
X131605000Y-127816500D01*
G75*
G02*
X131842500Y-127579000I237500J0D01*
G01*
X132317500Y-127579000D01*
G75*
G02*
X132555000Y-127816500I0J-237500D01*
G01*
X132555000Y-128416500D01*
G75*
G02*
X132317500Y-128654000I-237500J0D01*
G01*
G37*
%TD*%
D15*
%TO.C,U3*%
X138006000Y-126304000D03*
X138006000Y-128204000D03*
X135806000Y-128204000D03*
X135806000Y-127254000D03*
X135806000Y-126304000D03*
%TD*%
D16*
%TO.C,U1*%
X143138000Y-123825000D03*
X143138000Y-122555000D03*
X143138000Y-121285000D03*
X143138000Y-120015000D03*
X143138000Y-118745000D03*
X143138000Y-117475000D03*
X143138000Y-116205000D03*
X143138000Y-114935000D03*
X143138000Y-113665000D03*
X143138000Y-112395000D03*
X143138000Y-111125000D03*
X143138000Y-109855000D03*
X143138000Y-108585000D03*
X143138000Y-107315000D03*
D17*
X145923000Y-106315000D03*
X147193000Y-106315000D03*
X148463000Y-106315000D03*
X149733000Y-106315000D03*
X151003000Y-106315000D03*
X152273000Y-106315000D03*
X153543000Y-106315000D03*
X154813000Y-106315000D03*
X156083000Y-106315000D03*
X157353000Y-106315000D03*
D16*
X160138000Y-107315000D03*
X160138000Y-108585000D03*
X160138000Y-109855000D03*
X160138000Y-111125000D03*
X160138000Y-112395000D03*
X160138000Y-113665000D03*
X160138000Y-114935000D03*
X160138000Y-116205000D03*
X160138000Y-117475000D03*
X160138000Y-118745000D03*
X160138000Y-120015000D03*
X160138000Y-121285000D03*
X160138000Y-122555000D03*
X160138000Y-123825000D03*
D18*
X152638000Y-116325000D03*
%TD*%
D19*
%TO.C,SW1*%
X173816000Y-106426000D03*
X178816000Y-106426000D03*
X173816000Y-118926000D03*
X178816000Y-118926000D03*
%TD*%
%TO.C,R6*%
G36*
G01*
X163051500Y-112859000D02*
X162576500Y-112859000D01*
G75*
G02*
X162339000Y-112621500I0J237500D01*
G01*
X162339000Y-112121500D01*
G75*
G02*
X162576500Y-111884000I237500J0D01*
G01*
X163051500Y-111884000D01*
G75*
G02*
X163289000Y-112121500I0J-237500D01*
G01*
X163289000Y-112621500D01*
G75*
G02*
X163051500Y-112859000I-237500J0D01*
G01*
G37*
G36*
G01*
X163051500Y-114684000D02*
X162576500Y-114684000D01*
G75*
G02*
X162339000Y-114446500I0J237500D01*
G01*
X162339000Y-113946500D01*
G75*
G02*
X162576500Y-113709000I237500J0D01*
G01*
X163051500Y-113709000D01*
G75*
G02*
X163289000Y-113946500I0J-237500D01*
G01*
X163289000Y-114446500D01*
G75*
G02*
X163051500Y-114684000I-237500J0D01*
G01*
G37*
%TD*%
%TO.C,R5*%
G36*
G01*
X137397500Y-120987000D02*
X136922500Y-120987000D01*
G75*
G02*
X136685000Y-120749500I0J237500D01*
G01*
X136685000Y-120249500D01*
G75*
G02*
X136922500Y-120012000I237500J0D01*
G01*
X137397500Y-120012000D01*
G75*
G02*
X137635000Y-120249500I0J-237500D01*
G01*
X137635000Y-120749500D01*
G75*
G02*
X137397500Y-120987000I-237500J0D01*
G01*
G37*
G36*
G01*
X137397500Y-122812000D02*
X136922500Y-122812000D01*
G75*
G02*
X136685000Y-122574500I0J237500D01*
G01*
X136685000Y-122074500D01*
G75*
G02*
X136922500Y-121837000I237500J0D01*
G01*
X137397500Y-121837000D01*
G75*
G02*
X137635000Y-122074500I0J-237500D01*
G01*
X137635000Y-122574500D01*
G75*
G02*
X137397500Y-122812000I-237500J0D01*
G01*
G37*
%TD*%
%TO.C,R4*%
G36*
G01*
X133333500Y-120987000D02*
X132858500Y-120987000D01*
G75*
G02*
X132621000Y-120749500I0J237500D01*
G01*
X132621000Y-120249500D01*
G75*
G02*
X132858500Y-120012000I237500J0D01*
G01*
X133333500Y-120012000D01*
G75*
G02*
X133571000Y-120249500I0J-237500D01*
G01*
X133571000Y-120749500D01*
G75*
G02*
X133333500Y-120987000I-237500J0D01*
G01*
G37*
G36*
G01*
X133333500Y-122812000D02*
X132858500Y-122812000D01*
G75*
G02*
X132621000Y-122574500I0J237500D01*
G01*
X132621000Y-122074500D01*
G75*
G02*
X132858500Y-121837000I237500J0D01*
G01*
X133333500Y-121837000D01*
G75*
G02*
X133571000Y-122074500I0J-237500D01*
G01*
X133571000Y-122574500D01*
G75*
G02*
X133333500Y-122812000I-237500J0D01*
G01*
G37*
%TD*%
%TO.C,R3*%
G36*
G01*
X162576500Y-120313000D02*
X163051500Y-120313000D01*
G75*
G02*
X163289000Y-120550500I0J-237500D01*
G01*
X163289000Y-121050500D01*
G75*
G02*
X163051500Y-121288000I-237500J0D01*
G01*
X162576500Y-121288000D01*
G75*
G02*
X162339000Y-121050500I0J237500D01*
G01*
X162339000Y-120550500D01*
G75*
G02*
X162576500Y-120313000I237500J0D01*
G01*
G37*
G36*
G01*
X162576500Y-118488000D02*
X163051500Y-118488000D01*
G75*
G02*
X163289000Y-118725500I0J-237500D01*
G01*
X163289000Y-119225500D01*
G75*
G02*
X163051500Y-119463000I-237500J0D01*
G01*
X162576500Y-119463000D01*
G75*
G02*
X162339000Y-119225500I0J237500D01*
G01*
X162339000Y-118725500D01*
G75*
G02*
X162576500Y-118488000I237500J0D01*
G01*
G37*
%TD*%
%TO.C,R2*%
G36*
G01*
X129523500Y-110319000D02*
X129048500Y-110319000D01*
G75*
G02*
X128811000Y-110081500I0J237500D01*
G01*
X128811000Y-109581500D01*
G75*
G02*
X129048500Y-109344000I237500J0D01*
G01*
X129523500Y-109344000D01*
G75*
G02*
X129761000Y-109581500I0J-237500D01*
G01*
X129761000Y-110081500D01*
G75*
G02*
X129523500Y-110319000I-237500J0D01*
G01*
G37*
G36*
G01*
X129523500Y-112144000D02*
X129048500Y-112144000D01*
G75*
G02*
X128811000Y-111906500I0J237500D01*
G01*
X128811000Y-111406500D01*
G75*
G02*
X129048500Y-111169000I237500J0D01*
G01*
X129523500Y-111169000D01*
G75*
G02*
X129761000Y-111406500I0J-237500D01*
G01*
X129761000Y-111906500D01*
G75*
G02*
X129523500Y-112144000I-237500J0D01*
G01*
G37*
%TD*%
%TO.C,R1*%
G36*
G01*
X129048500Y-107359000D02*
X129523500Y-107359000D01*
G75*
G02*
X129761000Y-107596500I0J-237500D01*
G01*
X129761000Y-108096500D01*
G75*
G02*
X129523500Y-108334000I-237500J0D01*
G01*
X129048500Y-108334000D01*
G75*
G02*
X128811000Y-108096500I0J237500D01*
G01*
X128811000Y-107596500D01*
G75*
G02*
X129048500Y-107359000I237500J0D01*
G01*
G37*
G36*
G01*
X129048500Y-105534000D02*
X129523500Y-105534000D01*
G75*
G02*
X129761000Y-105771500I0J-237500D01*
G01*
X129761000Y-106271500D01*
G75*
G02*
X129523500Y-106509000I-237500J0D01*
G01*
X129048500Y-106509000D01*
G75*
G02*
X128811000Y-106271500I0J237500D01*
G01*
X128811000Y-105771500D01*
G75*
G02*
X129048500Y-105534000I237500J0D01*
G01*
G37*
%TD*%
D20*
%TO.C,J2*%
X180942000Y-128016000D03*
X175942000Y-128016000D03*
D21*
X170942000Y-128016000D03*
%TD*%
D22*
%TO.C,J1*%
X124530000Y-129820000D03*
D23*
X124530000Y-127120000D03*
D24*
X124530000Y-131645000D03*
X124530000Y-124895000D03*
D25*
X127105000Y-130757500D03*
X127105000Y-125782500D03*
D26*
X127190000Y-129570000D03*
X127190000Y-128920000D03*
X127190000Y-128270000D03*
X127190000Y-127620000D03*
X127190000Y-126970000D03*
%TD*%
%TO.C,D3*%
G36*
G01*
X164608500Y-113634000D02*
X165083500Y-113634000D01*
G75*
G02*
X165321000Y-113871500I0J-237500D01*
G01*
X165321000Y-114446500D01*
G75*
G02*
X165083500Y-114684000I-237500J0D01*
G01*
X164608500Y-114684000D01*
G75*
G02*
X164371000Y-114446500I0J237500D01*
G01*
X164371000Y-113871500D01*
G75*
G02*
X164608500Y-113634000I237500J0D01*
G01*
G37*
G36*
G01*
X164608500Y-111884000D02*
X165083500Y-111884000D01*
G75*
G02*
X165321000Y-112121500I0J-237500D01*
G01*
X165321000Y-112696500D01*
G75*
G02*
X165083500Y-112934000I-237500J0D01*
G01*
X164608500Y-112934000D01*
G75*
G02*
X164371000Y-112696500I0J237500D01*
G01*
X164371000Y-112121500D01*
G75*
G02*
X164608500Y-111884000I237500J0D01*
G01*
G37*
%TD*%
%TO.C,D2*%
G36*
G01*
X139175500Y-121062000D02*
X138700500Y-121062000D01*
G75*
G02*
X138463000Y-120824500I0J237500D01*
G01*
X138463000Y-120249500D01*
G75*
G02*
X138700500Y-120012000I237500J0D01*
G01*
X139175500Y-120012000D01*
G75*
G02*
X139413000Y-120249500I0J-237500D01*
G01*
X139413000Y-120824500D01*
G75*
G02*
X139175500Y-121062000I-237500J0D01*
G01*
G37*
G36*
G01*
X139175500Y-122812000D02*
X138700500Y-122812000D01*
G75*
G02*
X138463000Y-122574500I0J237500D01*
G01*
X138463000Y-121999500D01*
G75*
G02*
X138700500Y-121762000I237500J0D01*
G01*
X139175500Y-121762000D01*
G75*
G02*
X139413000Y-121999500I0J-237500D01*
G01*
X139413000Y-122574500D01*
G75*
G02*
X139175500Y-122812000I-237500J0D01*
G01*
G37*
%TD*%
%TO.C,D1*%
G36*
G01*
X135111500Y-121062000D02*
X134636500Y-121062000D01*
G75*
G02*
X134399000Y-120824500I0J237500D01*
G01*
X134399000Y-120249500D01*
G75*
G02*
X134636500Y-120012000I237500J0D01*
G01*
X135111500Y-120012000D01*
G75*
G02*
X135349000Y-120249500I0J-237500D01*
G01*
X135349000Y-120824500D01*
G75*
G02*
X135111500Y-121062000I-237500J0D01*
G01*
G37*
G36*
G01*
X135111500Y-122812000D02*
X134636500Y-122812000D01*
G75*
G02*
X134399000Y-122574500I0J237500D01*
G01*
X134399000Y-121999500D01*
G75*
G02*
X134636500Y-121762000I237500J0D01*
G01*
X135111500Y-121762000D01*
G75*
G02*
X135349000Y-121999500I0J-237500D01*
G01*
X135349000Y-122574500D01*
G75*
G02*
X135111500Y-122812000I-237500J0D01*
G01*
G37*
%TD*%
%TO.C,C5*%
G36*
G01*
X171024500Y-121936500D02*
X171024500Y-122411500D01*
G75*
G02*
X170787000Y-122649000I-237500J0D01*
G01*
X170187000Y-122649000D01*
G75*
G02*
X169949500Y-122411500I0J237500D01*
G01*
X169949500Y-121936500D01*
G75*
G02*
X170187000Y-121699000I237500J0D01*
G01*
X170787000Y-121699000D01*
G75*
G02*
X171024500Y-121936500I0J-237500D01*
G01*
G37*
G36*
G01*
X172749500Y-121936500D02*
X172749500Y-122411500D01*
G75*
G02*
X172512000Y-122649000I-237500J0D01*
G01*
X171912000Y-122649000D01*
G75*
G02*
X171674500Y-122411500I0J237500D01*
G01*
X171674500Y-121936500D01*
G75*
G02*
X171912000Y-121699000I237500J0D01*
G01*
X172512000Y-121699000D01*
G75*
G02*
X172749500Y-121936500I0J-237500D01*
G01*
G37*
%TD*%
%TO.C,C4*%
G36*
G01*
X163051500Y-123119000D02*
X162576500Y-123119000D01*
G75*
G02*
X162339000Y-122881500I0J237500D01*
G01*
X162339000Y-122281500D01*
G75*
G02*
X162576500Y-122044000I237500J0D01*
G01*
X163051500Y-122044000D01*
G75*
G02*
X163289000Y-122281500I0J-237500D01*
G01*
X163289000Y-122881500D01*
G75*
G02*
X163051500Y-123119000I-237500J0D01*
G01*
G37*
G36*
G01*
X163051500Y-124844000D02*
X162576500Y-124844000D01*
G75*
G02*
X162339000Y-124606500I0J237500D01*
G01*
X162339000Y-124006500D01*
G75*
G02*
X162576500Y-123769000I237500J0D01*
G01*
X163051500Y-123769000D01*
G75*
G02*
X163289000Y-124006500I0J-237500D01*
G01*
X163289000Y-124606500D01*
G75*
G02*
X163051500Y-124844000I-237500J0D01*
G01*
G37*
%TD*%
%TO.C,C3*%
G36*
G01*
X140191500Y-126929000D02*
X139716500Y-126929000D01*
G75*
G02*
X139479000Y-126691500I0J237500D01*
G01*
X139479000Y-126091500D01*
G75*
G02*
X139716500Y-125854000I237500J0D01*
G01*
X140191500Y-125854000D01*
G75*
G02*
X140429000Y-126091500I0J-237500D01*
G01*
X140429000Y-126691500D01*
G75*
G02*
X140191500Y-126929000I-237500J0D01*
G01*
G37*
G36*
G01*
X140191500Y-128654000D02*
X139716500Y-128654000D01*
G75*
G02*
X139479000Y-128416500I0J237500D01*
G01*
X139479000Y-127816500D01*
G75*
G02*
X139716500Y-127579000I237500J0D01*
G01*
X140191500Y-127579000D01*
G75*
G02*
X140429000Y-127816500I0J-237500D01*
G01*
X140429000Y-128416500D01*
G75*
G02*
X140191500Y-128654000I-237500J0D01*
G01*
G37*
%TD*%
%TO.C,C1*%
G36*
G01*
X134095500Y-126929000D02*
X133620500Y-126929000D01*
G75*
G02*
X133383000Y-126691500I0J237500D01*
G01*
X133383000Y-126091500D01*
G75*
G02*
X133620500Y-125854000I237500J0D01*
G01*
X134095500Y-125854000D01*
G75*
G02*
X134333000Y-126091500I0J-237500D01*
G01*
X134333000Y-126691500D01*
G75*
G02*
X134095500Y-126929000I-237500J0D01*
G01*
G37*
G36*
G01*
X134095500Y-128654000D02*
X133620500Y-128654000D01*
G75*
G02*
X133383000Y-128416500I0J237500D01*
G01*
X133383000Y-127816500D01*
G75*
G02*
X133620500Y-127579000I237500J0D01*
G01*
X134095500Y-127579000D01*
G75*
G02*
X134333000Y-127816500I0J-237500D01*
G01*
X134333000Y-128416500D01*
G75*
G02*
X134095500Y-128654000I-237500J0D01*
G01*
G37*
%TD*%
M02*
