%TF.GenerationSoftware,KiCad,Pcbnew,(5.1.10)-1*%
%TF.CreationDate,2021-09-30T00:23:06-04:00*%
%TF.ProjectId,soil_sensor,736f696c-5f73-4656-9e73-6f722e6b6963,rev?*%
%TF.SameCoordinates,Original*%
%TF.FileFunction,Legend,Top*%
%TF.FilePolarity,Positive*%
%FSLAX46Y46*%
G04 Gerber Fmt 4.6, Leading zero omitted, Abs format (unit mm)*
G04 Created by KiCad (PCBNEW (5.1.10)-1) date 2021-09-30 00:23:06*
%MOMM*%
%LPD*%
G01*
G04 APERTURE LIST*
%ADD10C,0.150000*%
%ADD11C,0.300000*%
%ADD12C,0.120000*%
%ADD13R,0.900000X0.800000*%
%ADD14C,2.100000*%
%ADD15C,1.000000*%
%ADD16O,1.700000X1.700000*%
%ADD17R,1.700000X1.700000*%
%ADD18R,1.060000X0.650000*%
%ADD19R,2.000000X0.900000*%
%ADD20R,0.900000X2.000000*%
%ADD21R,5.000000X5.000000*%
%ADD22O,2.500000X3.000000*%
%ADD23C,2.600000*%
%ADD24R,2.600000X2.600000*%
%ADD25R,1.900000X1.000000*%
%ADD26R,1.900000X1.800000*%
%ADD27R,1.300000X1.650000*%
%ADD28R,1.550000X1.425000*%
%ADD29R,1.380000X0.450000*%
G04 APERTURE END LIST*
D10*
X141661904Y-129120380D02*
X141900000Y-130120380D01*
X142090476Y-129406095D01*
X142280952Y-130120380D01*
X142519047Y-129120380D01*
X142900000Y-130120380D02*
X142900000Y-129453714D01*
X142900000Y-129120380D02*
X142852380Y-129168000D01*
X142900000Y-129215619D01*
X142947619Y-129168000D01*
X142900000Y-129120380D01*
X142900000Y-129215619D01*
X143709523Y-129596571D02*
X143376190Y-129596571D01*
X143376190Y-130120380D02*
X143376190Y-129120380D01*
X143852380Y-129120380D01*
X144233333Y-130120380D02*
X144233333Y-129453714D01*
X144233333Y-129120380D02*
X144185714Y-129168000D01*
X144233333Y-129215619D01*
X144280952Y-129168000D01*
X144233333Y-129120380D01*
X144233333Y-129215619D01*
X145423809Y-130072761D02*
X145566666Y-130120380D01*
X145804761Y-130120380D01*
X145900000Y-130072761D01*
X145947619Y-130025142D01*
X145995238Y-129929904D01*
X145995238Y-129834666D01*
X145947619Y-129739428D01*
X145900000Y-129691809D01*
X145804761Y-129644190D01*
X145614285Y-129596571D01*
X145519047Y-129548952D01*
X145471428Y-129501333D01*
X145423809Y-129406095D01*
X145423809Y-129310857D01*
X145471428Y-129215619D01*
X145519047Y-129168000D01*
X145614285Y-129120380D01*
X145852380Y-129120380D01*
X145995238Y-129168000D01*
X146614285Y-129120380D02*
X146804761Y-129120380D01*
X146900000Y-129168000D01*
X146995238Y-129263238D01*
X147042857Y-129453714D01*
X147042857Y-129787047D01*
X146995238Y-129977523D01*
X146900000Y-130072761D01*
X146804761Y-130120380D01*
X146614285Y-130120380D01*
X146519047Y-130072761D01*
X146423809Y-129977523D01*
X146376190Y-129787047D01*
X146376190Y-129453714D01*
X146423809Y-129263238D01*
X146519047Y-129168000D01*
X146614285Y-129120380D01*
X147471428Y-130120380D02*
X147471428Y-129120380D01*
X148423809Y-130120380D02*
X147947619Y-130120380D01*
X147947619Y-129120380D01*
X149519047Y-130120380D02*
X149519047Y-129120380D01*
X149852380Y-129834666D01*
X150185714Y-129120380D01*
X150185714Y-130120380D01*
X150852380Y-129120380D02*
X151042857Y-129120380D01*
X151138095Y-129168000D01*
X151233333Y-129263238D01*
X151280952Y-129453714D01*
X151280952Y-129787047D01*
X151233333Y-129977523D01*
X151138095Y-130072761D01*
X151042857Y-130120380D01*
X150852380Y-130120380D01*
X150757142Y-130072761D01*
X150661904Y-129977523D01*
X150614285Y-129787047D01*
X150614285Y-129453714D01*
X150661904Y-129263238D01*
X150757142Y-129168000D01*
X150852380Y-129120380D01*
X151709523Y-130120380D02*
X151709523Y-129120380D01*
X152138095Y-130072761D02*
X152280952Y-130120380D01*
X152519047Y-130120380D01*
X152614285Y-130072761D01*
X152661904Y-130025142D01*
X152709523Y-129929904D01*
X152709523Y-129834666D01*
X152661904Y-129739428D01*
X152614285Y-129691809D01*
X152519047Y-129644190D01*
X152328571Y-129596571D01*
X152233333Y-129548952D01*
X152185714Y-129501333D01*
X152138095Y-129406095D01*
X152138095Y-129310857D01*
X152185714Y-129215619D01*
X152233333Y-129168000D01*
X152328571Y-129120380D01*
X152566666Y-129120380D01*
X152709523Y-129168000D01*
X152995238Y-129120380D02*
X153566666Y-129120380D01*
X153280952Y-130120380D02*
X153280952Y-129120380D01*
X153900000Y-129120380D02*
X153900000Y-129929904D01*
X153947619Y-130025142D01*
X153995238Y-130072761D01*
X154090476Y-130120380D01*
X154280952Y-130120380D01*
X154376190Y-130072761D01*
X154423809Y-130025142D01*
X154471428Y-129929904D01*
X154471428Y-129120380D01*
X155519047Y-130120380D02*
X155185714Y-129644190D01*
X154947619Y-130120380D02*
X154947619Y-129120380D01*
X155328571Y-129120380D01*
X155423809Y-129168000D01*
X155471428Y-129215619D01*
X155519047Y-129310857D01*
X155519047Y-129453714D01*
X155471428Y-129548952D01*
X155423809Y-129596571D01*
X155328571Y-129644190D01*
X154947619Y-129644190D01*
X155947619Y-129596571D02*
X156280952Y-129596571D01*
X156423809Y-130120380D02*
X155947619Y-130120380D01*
X155947619Y-129120380D01*
X156423809Y-129120380D01*
X157566666Y-130072761D02*
X157709523Y-130120380D01*
X157947619Y-130120380D01*
X158042857Y-130072761D01*
X158090476Y-130025142D01*
X158138095Y-129929904D01*
X158138095Y-129834666D01*
X158090476Y-129739428D01*
X158042857Y-129691809D01*
X157947619Y-129644190D01*
X157757142Y-129596571D01*
X157661904Y-129548952D01*
X157614285Y-129501333D01*
X157566666Y-129406095D01*
X157566666Y-129310857D01*
X157614285Y-129215619D01*
X157661904Y-129168000D01*
X157757142Y-129120380D01*
X157995238Y-129120380D01*
X158138095Y-129168000D01*
X158566666Y-129596571D02*
X158900000Y-129596571D01*
X159042857Y-130120380D02*
X158566666Y-130120380D01*
X158566666Y-129120380D01*
X159042857Y-129120380D01*
X159471428Y-130120380D02*
X159471428Y-129120380D01*
X160042857Y-130120380D01*
X160042857Y-129120380D01*
X160471428Y-130072761D02*
X160614285Y-130120380D01*
X160852380Y-130120380D01*
X160947619Y-130072761D01*
X160995238Y-130025142D01*
X161042857Y-129929904D01*
X161042857Y-129834666D01*
X160995238Y-129739428D01*
X160947619Y-129691809D01*
X160852380Y-129644190D01*
X160661904Y-129596571D01*
X160566666Y-129548952D01*
X160519047Y-129501333D01*
X160471428Y-129406095D01*
X160471428Y-129310857D01*
X160519047Y-129215619D01*
X160566666Y-129168000D01*
X160661904Y-129120380D01*
X160900000Y-129120380D01*
X161042857Y-129168000D01*
X161661904Y-129120380D02*
X161852380Y-129120380D01*
X161947619Y-129168000D01*
X162042857Y-129263238D01*
X162090476Y-129453714D01*
X162090476Y-129787047D01*
X162042857Y-129977523D01*
X161947619Y-130072761D01*
X161852380Y-130120380D01*
X161661904Y-130120380D01*
X161566666Y-130072761D01*
X161471428Y-129977523D01*
X161423809Y-129787047D01*
X161423809Y-129453714D01*
X161471428Y-129263238D01*
X161566666Y-129168000D01*
X161661904Y-129120380D01*
X163090476Y-130120380D02*
X162757142Y-129644190D01*
X162519047Y-130120380D02*
X162519047Y-129120380D01*
X162900000Y-129120380D01*
X162995238Y-129168000D01*
X163042857Y-129215619D01*
X163090476Y-129310857D01*
X163090476Y-129453714D01*
X163042857Y-129548952D01*
X162995238Y-129596571D01*
X162900000Y-129644190D01*
X162519047Y-129644190D01*
X148685714Y-131722761D02*
X148828571Y-131770380D01*
X149066666Y-131770380D01*
X149161904Y-131722761D01*
X149209523Y-131675142D01*
X149257142Y-131579904D01*
X149257142Y-131484666D01*
X149209523Y-131389428D01*
X149161904Y-131341809D01*
X149066666Y-131294190D01*
X148876190Y-131246571D01*
X148780952Y-131198952D01*
X148733333Y-131151333D01*
X148685714Y-131056095D01*
X148685714Y-130960857D01*
X148733333Y-130865619D01*
X148780952Y-130818000D01*
X148876190Y-130770380D01*
X149114285Y-130770380D01*
X149257142Y-130818000D01*
X150114285Y-131770380D02*
X150114285Y-131246571D01*
X150066666Y-131151333D01*
X149971428Y-131103714D01*
X149780952Y-131103714D01*
X149685714Y-131151333D01*
X150114285Y-131722761D02*
X150019047Y-131770380D01*
X149780952Y-131770380D01*
X149685714Y-131722761D01*
X149638095Y-131627523D01*
X149638095Y-131532285D01*
X149685714Y-131437047D01*
X149780952Y-131389428D01*
X150019047Y-131389428D01*
X150114285Y-131341809D01*
X150590476Y-131770380D02*
X150590476Y-130770380D01*
X151019047Y-131770380D02*
X151019047Y-131246571D01*
X150971428Y-131151333D01*
X150876190Y-131103714D01*
X150733333Y-131103714D01*
X150638095Y-131151333D01*
X150590476Y-131198952D01*
X151495238Y-131770380D02*
X151495238Y-131103714D01*
X151495238Y-130770380D02*
X151447619Y-130818000D01*
X151495238Y-130865619D01*
X151542857Y-130818000D01*
X151495238Y-130770380D01*
X151495238Y-130865619D01*
X152114285Y-131770380D02*
X152019047Y-131722761D01*
X151971428Y-131627523D01*
X151971428Y-130770380D01*
X153257142Y-131770380D02*
X153257142Y-130770380D01*
X153828571Y-131770380D02*
X153400000Y-131198952D01*
X153828571Y-130770380D02*
X153257142Y-131341809D01*
X154685714Y-131770380D02*
X154685714Y-131246571D01*
X154638095Y-131151333D01*
X154542857Y-131103714D01*
X154352380Y-131103714D01*
X154257142Y-131151333D01*
X154685714Y-131722761D02*
X154590476Y-131770380D01*
X154352380Y-131770380D01*
X154257142Y-131722761D01*
X154209523Y-131627523D01*
X154209523Y-131532285D01*
X154257142Y-131437047D01*
X154352380Y-131389428D01*
X154590476Y-131389428D01*
X154685714Y-131341809D01*
X155304761Y-131770380D02*
X155209523Y-131722761D01*
X155161904Y-131627523D01*
X155161904Y-130770380D01*
X156066666Y-131722761D02*
X155971428Y-131770380D01*
X155780952Y-131770380D01*
X155685714Y-131722761D01*
X155638095Y-131627523D01*
X155638095Y-131246571D01*
X155685714Y-131151333D01*
X155780952Y-131103714D01*
X155971428Y-131103714D01*
X156066666Y-131151333D01*
X156114285Y-131246571D01*
X156114285Y-131341809D01*
X155638095Y-131437047D01*
X147090476Y-133372761D02*
X147233333Y-133420380D01*
X147471428Y-133420380D01*
X147566666Y-133372761D01*
X147614285Y-133325142D01*
X147661904Y-133229904D01*
X147661904Y-133134666D01*
X147614285Y-133039428D01*
X147566666Y-132991809D01*
X147471428Y-132944190D01*
X147280952Y-132896571D01*
X147185714Y-132848952D01*
X147138095Y-132801333D01*
X147090476Y-132706095D01*
X147090476Y-132610857D01*
X147138095Y-132515619D01*
X147185714Y-132468000D01*
X147280952Y-132420380D01*
X147519047Y-132420380D01*
X147661904Y-132468000D01*
X148471428Y-133372761D02*
X148376190Y-133420380D01*
X148185714Y-133420380D01*
X148090476Y-133372761D01*
X148042857Y-133277523D01*
X148042857Y-132896571D01*
X148090476Y-132801333D01*
X148185714Y-132753714D01*
X148376190Y-132753714D01*
X148471428Y-132801333D01*
X148519047Y-132896571D01*
X148519047Y-132991809D01*
X148042857Y-133087047D01*
X148947619Y-132753714D02*
X148947619Y-133753714D01*
X148947619Y-132801333D02*
X149042857Y-132753714D01*
X149233333Y-132753714D01*
X149328571Y-132801333D01*
X149376190Y-132848952D01*
X149423809Y-132944190D01*
X149423809Y-133229904D01*
X149376190Y-133325142D01*
X149328571Y-133372761D01*
X149233333Y-133420380D01*
X149042857Y-133420380D01*
X148947619Y-133372761D01*
X149709523Y-132753714D02*
X150090476Y-132753714D01*
X149852380Y-132420380D02*
X149852380Y-133277523D01*
X149900000Y-133372761D01*
X149995238Y-133420380D01*
X150090476Y-133420380D01*
X151138095Y-132515619D02*
X151185714Y-132468000D01*
X151280952Y-132420380D01*
X151519047Y-132420380D01*
X151614285Y-132468000D01*
X151661904Y-132515619D01*
X151709523Y-132610857D01*
X151709523Y-132706095D01*
X151661904Y-132848952D01*
X151090476Y-133420380D01*
X151709523Y-133420380D01*
X152185714Y-133420380D02*
X152376190Y-133420380D01*
X152471428Y-133372761D01*
X152519047Y-133325142D01*
X152614285Y-133182285D01*
X152661904Y-132991809D01*
X152661904Y-132610857D01*
X152614285Y-132515619D01*
X152566666Y-132468000D01*
X152471428Y-132420380D01*
X152280952Y-132420380D01*
X152185714Y-132468000D01*
X152138095Y-132515619D01*
X152090476Y-132610857D01*
X152090476Y-132848952D01*
X152138095Y-132944190D01*
X152185714Y-132991809D01*
X152280952Y-133039428D01*
X152471428Y-133039428D01*
X152566666Y-132991809D01*
X152614285Y-132944190D01*
X152661904Y-132848952D01*
X153138095Y-133372761D02*
X153138095Y-133420380D01*
X153090476Y-133515619D01*
X153042857Y-133563238D01*
X154280952Y-132515619D02*
X154328571Y-132468000D01*
X154423809Y-132420380D01*
X154661904Y-132420380D01*
X154757142Y-132468000D01*
X154804761Y-132515619D01*
X154852380Y-132610857D01*
X154852380Y-132706095D01*
X154804761Y-132848952D01*
X154233333Y-133420380D01*
X154852380Y-133420380D01*
X155471428Y-132420380D02*
X155566666Y-132420380D01*
X155661904Y-132468000D01*
X155709523Y-132515619D01*
X155757142Y-132610857D01*
X155804761Y-132801333D01*
X155804761Y-133039428D01*
X155757142Y-133229904D01*
X155709523Y-133325142D01*
X155661904Y-133372761D01*
X155566666Y-133420380D01*
X155471428Y-133420380D01*
X155376190Y-133372761D01*
X155328571Y-133325142D01*
X155280952Y-133229904D01*
X155233333Y-133039428D01*
X155233333Y-132801333D01*
X155280952Y-132610857D01*
X155328571Y-132515619D01*
X155376190Y-132468000D01*
X155471428Y-132420380D01*
X156185714Y-132515619D02*
X156233333Y-132468000D01*
X156328571Y-132420380D01*
X156566666Y-132420380D01*
X156661904Y-132468000D01*
X156709523Y-132515619D01*
X156757142Y-132610857D01*
X156757142Y-132706095D01*
X156709523Y-132848952D01*
X156138095Y-133420380D01*
X156757142Y-133420380D01*
X157709523Y-133420380D02*
X157138095Y-133420380D01*
X157423809Y-133420380D02*
X157423809Y-132420380D01*
X157328571Y-132563238D01*
X157233333Y-132658476D01*
X157138095Y-132706095D01*
D11*
X169334571Y-114954571D02*
X168620285Y-115454571D01*
X169334571Y-115811714D02*
X167834571Y-115811714D01*
X167834571Y-115240285D01*
X167906000Y-115097428D01*
X167977428Y-115026000D01*
X168120285Y-114954571D01*
X168334571Y-114954571D01*
X168477428Y-115026000D01*
X168548857Y-115097428D01*
X168620285Y-115240285D01*
X168620285Y-115811714D01*
X168548857Y-114311714D02*
X168548857Y-113811714D01*
X169334571Y-113597428D02*
X169334571Y-114311714D01*
X167834571Y-114311714D01*
X167834571Y-113597428D01*
X169263142Y-113026000D02*
X169334571Y-112811714D01*
X169334571Y-112454571D01*
X169263142Y-112311714D01*
X169191714Y-112240285D01*
X169048857Y-112168857D01*
X168906000Y-112168857D01*
X168763142Y-112240285D01*
X168691714Y-112311714D01*
X168620285Y-112454571D01*
X168548857Y-112740285D01*
X168477428Y-112883142D01*
X168406000Y-112954571D01*
X168263142Y-113026000D01*
X168120285Y-113026000D01*
X167977428Y-112954571D01*
X167906000Y-112883142D01*
X167834571Y-112740285D01*
X167834571Y-112383142D01*
X167906000Y-112168857D01*
X168548857Y-111526000D02*
X168548857Y-111026000D01*
X169334571Y-110811714D02*
X169334571Y-111526000D01*
X167834571Y-111526000D01*
X167834571Y-110811714D01*
X167834571Y-110383142D02*
X167834571Y-109526000D01*
X169334571Y-109954571D02*
X167834571Y-109954571D01*
D12*
%TO.C,Q2*%
X133094000Y-112324000D02*
X131634000Y-112324000D01*
X133094000Y-109164000D02*
X130934000Y-109164000D01*
X133094000Y-109164000D02*
X133094000Y-110094000D01*
X133094000Y-112324000D02*
X133094000Y-111394000D01*
%TO.C,TP10*%
X164022000Y-107442000D02*
G75*
G03*
X164022000Y-107442000I-700000J0D01*
G01*
%TO.C,TP9*%
X165800000Y-120650000D02*
G75*
G03*
X165800000Y-120650000I-700000J0D01*
G01*
%TO.C,TP8*%
X138368000Y-109728000D02*
G75*
G03*
X138368000Y-109728000I-700000J0D01*
G01*
%TO.C,TP7*%
X131764000Y-113792000D02*
G75*
G03*
X131764000Y-113792000I-700000J0D01*
G01*
%TO.C,TP6*%
X134050000Y-113792000D02*
G75*
G03*
X134050000Y-113792000I-700000J0D01*
G01*
%TO.C,TP5*%
X138368000Y-107442000D02*
G75*
G03*
X138368000Y-107442000I-700000J0D01*
G01*
%TO.C,TP4*%
X140400000Y-113284000D02*
G75*
G03*
X140400000Y-113284000I-700000J0D01*
G01*
%TO.C,TP3*%
X140400000Y-115570000D02*
G75*
G03*
X140400000Y-115570000I-700000J0D01*
G01*
%TO.C,TP2*%
X165800000Y-118364000D02*
G75*
G03*
X165800000Y-118364000I-700000J0D01*
G01*
%TO.C,TP1*%
X136590000Y-130556000D02*
G75*
G03*
X136590000Y-130556000I-700000J0D01*
G01*
%TO.C,Q1*%
X133094000Y-108514000D02*
X133094000Y-107584000D01*
X133094000Y-105354000D02*
X133094000Y-106284000D01*
X133094000Y-105354000D02*
X130934000Y-105354000D01*
X133094000Y-108514000D02*
X131634000Y-108514000D01*
%TO.C,J3*%
X125730000Y-105604000D02*
X127060000Y-105604000D01*
X127060000Y-105604000D02*
X127060000Y-106934000D01*
X127060000Y-108204000D02*
X127060000Y-120964000D01*
X124400000Y-120964000D02*
X127060000Y-120964000D01*
X124400000Y-108204000D02*
X124400000Y-120964000D01*
X124400000Y-108204000D02*
X127060000Y-108204000D01*
%TO.C,C2*%
X132590000Y-127400267D02*
X132590000Y-127107733D01*
X131570000Y-127400267D02*
X131570000Y-127107733D01*
%TO.C,U3*%
X136006000Y-128864000D02*
X137806000Y-128864000D01*
X137806000Y-125644000D02*
X135356000Y-125644000D01*
%TO.C,U1*%
X160758000Y-106470000D02*
X160758000Y-105850000D01*
X160758000Y-105850000D02*
X159758000Y-105850000D01*
X142518000Y-106470000D02*
X142518000Y-105850000D01*
X142518000Y-105850000D02*
X143518000Y-105850000D01*
X160758000Y-125290000D02*
X142518000Y-125290000D01*
X142518000Y-125290000D02*
X142518000Y-124870000D01*
X160758000Y-125290000D02*
X160758000Y-124870000D01*
X160758000Y-124870000D02*
X161138000Y-124870000D01*
%TO.C,SW1*%
X180855050Y-112776000D02*
G75*
G03*
X180855050Y-112776000I-4579050J0D01*
G01*
X180346000Y-106526000D02*
X182466000Y-106526000D01*
X182466000Y-106526000D02*
X182466000Y-118826000D01*
X182466000Y-118826000D02*
X180346000Y-118826000D01*
X177286000Y-118826000D02*
X175346000Y-118826000D01*
X172286000Y-118826000D02*
X170166000Y-118826000D01*
X170166000Y-118826000D02*
X170166000Y-106526000D01*
X170166000Y-106526000D02*
X172286000Y-106526000D01*
X175346000Y-106526000D02*
X177286000Y-106526000D01*
%TO.C,R6*%
X162291500Y-113538724D02*
X162291500Y-113029276D01*
X163336500Y-113538724D02*
X163336500Y-113029276D01*
%TO.C,R5*%
X136637500Y-121666724D02*
X136637500Y-121157276D01*
X137682500Y-121666724D02*
X137682500Y-121157276D01*
%TO.C,R4*%
X132573500Y-121666724D02*
X132573500Y-121157276D01*
X133618500Y-121666724D02*
X133618500Y-121157276D01*
%TO.C,R3*%
X163336500Y-119633276D02*
X163336500Y-120142724D01*
X162291500Y-119633276D02*
X162291500Y-120142724D01*
%TO.C,R2*%
X128763500Y-110998724D02*
X128763500Y-110489276D01*
X129808500Y-110998724D02*
X129808500Y-110489276D01*
%TO.C,R1*%
X129808500Y-106679276D02*
X129808500Y-107188724D01*
X128763500Y-106679276D02*
X128763500Y-107188724D01*
%TO.C,J2*%
X173122000Y-128016000D02*
G75*
G03*
X173122000Y-128016000I-2180000J0D01*
G01*
X178122000Y-128016000D02*
G75*
G03*
X178122000Y-128016000I-2180000J0D01*
G01*
X183122000Y-128016000D02*
G75*
G03*
X183122000Y-128016000I-2180000J0D01*
G01*
X168382000Y-132616000D02*
X183502000Y-132616000D01*
X168382000Y-131516000D02*
X183502000Y-131516000D01*
X168382000Y-123956000D02*
X183502000Y-123956000D01*
X168382000Y-133076000D02*
X183502000Y-133076000D01*
X168382000Y-123956000D02*
X168382000Y-133076000D01*
X183502000Y-123956000D02*
X183502000Y-133076000D01*
X172596000Y-126628000D02*
X172489000Y-126735000D01*
X169660000Y-129563000D02*
X169554000Y-129670000D01*
X172330000Y-126362000D02*
X172223000Y-126469000D01*
X169394000Y-129297000D02*
X169288000Y-129404000D01*
X177596000Y-126628000D02*
X177201000Y-127024000D01*
X174935000Y-129290000D02*
X174555000Y-129670000D01*
X177330000Y-126362000D02*
X176950000Y-126742000D01*
X174684000Y-129008000D02*
X174289000Y-129404000D01*
X182596000Y-126628000D02*
X182201000Y-127024000D01*
X179935000Y-129290000D02*
X179555000Y-129670000D01*
X182330000Y-126362000D02*
X181950000Y-126742000D01*
X179684000Y-129008000D02*
X179289000Y-129404000D01*
X168142000Y-132676000D02*
X168142000Y-133316000D01*
X168142000Y-133316000D02*
X168542000Y-133316000D01*
%TO.C,J1*%
X127440000Y-132080000D02*
X127440000Y-131700000D01*
X123390000Y-132080000D02*
X123130000Y-132080000D01*
X127440000Y-132080000D02*
X125670000Y-132080000D01*
X127440000Y-124460000D02*
X127440000Y-124840000D01*
X125670000Y-124460000D02*
X127440000Y-124460000D01*
X123130000Y-124460000D02*
X123390000Y-124460000D01*
%TO.C,D3*%
X165581000Y-114084000D02*
X165581000Y-111624000D01*
X165581000Y-111624000D02*
X164111000Y-111624000D01*
X164111000Y-111624000D02*
X164111000Y-114084000D01*
%TO.C,D2*%
X138203000Y-120612000D02*
X138203000Y-123072000D01*
X138203000Y-123072000D02*
X139673000Y-123072000D01*
X139673000Y-123072000D02*
X139673000Y-120612000D01*
%TO.C,D1*%
X134139000Y-120612000D02*
X134139000Y-123072000D01*
X134139000Y-123072000D02*
X135609000Y-123072000D01*
X135609000Y-123072000D02*
X135609000Y-120612000D01*
%TO.C,C5*%
X171495767Y-122684000D02*
X171203233Y-122684000D01*
X171495767Y-121664000D02*
X171203233Y-121664000D01*
%TO.C,C4*%
X162304000Y-123590267D02*
X162304000Y-123297733D01*
X163324000Y-123590267D02*
X163324000Y-123297733D01*
%TO.C,C3*%
X139444000Y-127400267D02*
X139444000Y-127107733D01*
X140464000Y-127400267D02*
X140464000Y-127107733D01*
%TO.C,C1*%
X133348000Y-127400267D02*
X133348000Y-127107733D01*
X134368000Y-127400267D02*
X134368000Y-127107733D01*
%TO.C,Q2*%
D10*
X135286761Y-111291619D02*
X135191523Y-111244000D01*
X135096285Y-111148761D01*
X134953428Y-111005904D01*
X134858190Y-110958285D01*
X134762952Y-110958285D01*
X134810571Y-111196380D02*
X134715333Y-111148761D01*
X134620095Y-111053523D01*
X134572476Y-110863047D01*
X134572476Y-110529714D01*
X134620095Y-110339238D01*
X134715333Y-110244000D01*
X134810571Y-110196380D01*
X135001047Y-110196380D01*
X135096285Y-110244000D01*
X135191523Y-110339238D01*
X135239142Y-110529714D01*
X135239142Y-110863047D01*
X135191523Y-111053523D01*
X135096285Y-111148761D01*
X135001047Y-111196380D01*
X134810571Y-111196380D01*
X135620095Y-110291619D02*
X135667714Y-110244000D01*
X135762952Y-110196380D01*
X136001047Y-110196380D01*
X136096285Y-110244000D01*
X136143904Y-110291619D01*
X136191523Y-110386857D01*
X136191523Y-110482095D01*
X136143904Y-110624952D01*
X135572476Y-111196380D01*
X136191523Y-111196380D01*
%TO.C,TP10*%
X164631904Y-106894380D02*
X165203333Y-106894380D01*
X164917619Y-107894380D02*
X164917619Y-106894380D01*
X165536666Y-107894380D02*
X165536666Y-106894380D01*
X165917619Y-106894380D01*
X166012857Y-106942000D01*
X166060476Y-106989619D01*
X166108095Y-107084857D01*
X166108095Y-107227714D01*
X166060476Y-107322952D01*
X166012857Y-107370571D01*
X165917619Y-107418190D01*
X165536666Y-107418190D01*
X167060476Y-107894380D02*
X166489047Y-107894380D01*
X166774761Y-107894380D02*
X166774761Y-106894380D01*
X166679523Y-107037238D01*
X166584285Y-107132476D01*
X166489047Y-107180095D01*
X167679523Y-106894380D02*
X167774761Y-106894380D01*
X167870000Y-106942000D01*
X167917619Y-106989619D01*
X167965238Y-107084857D01*
X168012857Y-107275333D01*
X168012857Y-107513428D01*
X167965238Y-107703904D01*
X167917619Y-107799142D01*
X167870000Y-107846761D01*
X167774761Y-107894380D01*
X167679523Y-107894380D01*
X167584285Y-107846761D01*
X167536666Y-107799142D01*
X167489047Y-107703904D01*
X167441428Y-107513428D01*
X167441428Y-107275333D01*
X167489047Y-107084857D01*
X167536666Y-106989619D01*
X167584285Y-106942000D01*
X167679523Y-106894380D01*
%TO.C,TP9*%
X166378095Y-120102380D02*
X166949523Y-120102380D01*
X166663809Y-121102380D02*
X166663809Y-120102380D01*
X167282857Y-121102380D02*
X167282857Y-120102380D01*
X167663809Y-120102380D01*
X167759047Y-120150000D01*
X167806666Y-120197619D01*
X167854285Y-120292857D01*
X167854285Y-120435714D01*
X167806666Y-120530952D01*
X167759047Y-120578571D01*
X167663809Y-120626190D01*
X167282857Y-120626190D01*
X168330476Y-121102380D02*
X168520952Y-121102380D01*
X168616190Y-121054761D01*
X168663809Y-121007142D01*
X168759047Y-120864285D01*
X168806666Y-120673809D01*
X168806666Y-120292857D01*
X168759047Y-120197619D01*
X168711428Y-120150000D01*
X168616190Y-120102380D01*
X168425714Y-120102380D01*
X168330476Y-120150000D01*
X168282857Y-120197619D01*
X168235238Y-120292857D01*
X168235238Y-120530952D01*
X168282857Y-120626190D01*
X168330476Y-120673809D01*
X168425714Y-120721428D01*
X168616190Y-120721428D01*
X168711428Y-120673809D01*
X168759047Y-120626190D01*
X168806666Y-120530952D01*
%TO.C,TP8*%
X138946095Y-109290380D02*
X139517523Y-109290380D01*
X139231809Y-110290380D02*
X139231809Y-109290380D01*
X139850857Y-110290380D02*
X139850857Y-109290380D01*
X140231809Y-109290380D01*
X140327047Y-109338000D01*
X140374666Y-109385619D01*
X140422285Y-109480857D01*
X140422285Y-109623714D01*
X140374666Y-109718952D01*
X140327047Y-109766571D01*
X140231809Y-109814190D01*
X139850857Y-109814190D01*
X140993714Y-109718952D02*
X140898476Y-109671333D01*
X140850857Y-109623714D01*
X140803238Y-109528476D01*
X140803238Y-109480857D01*
X140850857Y-109385619D01*
X140898476Y-109338000D01*
X140993714Y-109290380D01*
X141184190Y-109290380D01*
X141279428Y-109338000D01*
X141327047Y-109385619D01*
X141374666Y-109480857D01*
X141374666Y-109528476D01*
X141327047Y-109623714D01*
X141279428Y-109671333D01*
X141184190Y-109718952D01*
X140993714Y-109718952D01*
X140898476Y-109766571D01*
X140850857Y-109814190D01*
X140803238Y-109909428D01*
X140803238Y-110099904D01*
X140850857Y-110195142D01*
X140898476Y-110242761D01*
X140993714Y-110290380D01*
X141184190Y-110290380D01*
X141279428Y-110242761D01*
X141327047Y-110195142D01*
X141374666Y-110099904D01*
X141374666Y-109909428D01*
X141327047Y-109814190D01*
X141279428Y-109766571D01*
X141184190Y-109718952D01*
%TO.C,TP7*%
X129294095Y-115530380D02*
X129865523Y-115530380D01*
X129579809Y-116530380D02*
X129579809Y-115530380D01*
X130198857Y-116530380D02*
X130198857Y-115530380D01*
X130579809Y-115530380D01*
X130675047Y-115578000D01*
X130722666Y-115625619D01*
X130770285Y-115720857D01*
X130770285Y-115863714D01*
X130722666Y-115958952D01*
X130675047Y-116006571D01*
X130579809Y-116054190D01*
X130198857Y-116054190D01*
X131103619Y-115530380D02*
X131770285Y-115530380D01*
X131341714Y-116530380D01*
%TO.C,TP6*%
X132342095Y-115530380D02*
X132913523Y-115530380D01*
X132627809Y-116530380D02*
X132627809Y-115530380D01*
X133246857Y-116530380D02*
X133246857Y-115530380D01*
X133627809Y-115530380D01*
X133723047Y-115578000D01*
X133770666Y-115625619D01*
X133818285Y-115720857D01*
X133818285Y-115863714D01*
X133770666Y-115958952D01*
X133723047Y-116006571D01*
X133627809Y-116054190D01*
X133246857Y-116054190D01*
X134675428Y-115530380D02*
X134484952Y-115530380D01*
X134389714Y-115578000D01*
X134342095Y-115625619D01*
X134246857Y-115768476D01*
X134199238Y-115958952D01*
X134199238Y-116339904D01*
X134246857Y-116435142D01*
X134294476Y-116482761D01*
X134389714Y-116530380D01*
X134580190Y-116530380D01*
X134675428Y-116482761D01*
X134723047Y-116435142D01*
X134770666Y-116339904D01*
X134770666Y-116101809D01*
X134723047Y-116006571D01*
X134675428Y-115958952D01*
X134580190Y-115911333D01*
X134389714Y-115911333D01*
X134294476Y-115958952D01*
X134246857Y-116006571D01*
X134199238Y-116101809D01*
%TO.C,TP5*%
X138946095Y-106894380D02*
X139517523Y-106894380D01*
X139231809Y-107894380D02*
X139231809Y-106894380D01*
X139850857Y-107894380D02*
X139850857Y-106894380D01*
X140231809Y-106894380D01*
X140327047Y-106942000D01*
X140374666Y-106989619D01*
X140422285Y-107084857D01*
X140422285Y-107227714D01*
X140374666Y-107322952D01*
X140327047Y-107370571D01*
X140231809Y-107418190D01*
X139850857Y-107418190D01*
X141327047Y-106894380D02*
X140850857Y-106894380D01*
X140803238Y-107370571D01*
X140850857Y-107322952D01*
X140946095Y-107275333D01*
X141184190Y-107275333D01*
X141279428Y-107322952D01*
X141327047Y-107370571D01*
X141374666Y-107465809D01*
X141374666Y-107703904D01*
X141327047Y-107799142D01*
X141279428Y-107846761D01*
X141184190Y-107894380D01*
X140946095Y-107894380D01*
X140850857Y-107846761D01*
X140803238Y-107799142D01*
%TO.C,TP4*%
X135644095Y-112736380D02*
X136215523Y-112736380D01*
X135929809Y-113736380D02*
X135929809Y-112736380D01*
X136548857Y-113736380D02*
X136548857Y-112736380D01*
X136929809Y-112736380D01*
X137025047Y-112784000D01*
X137072666Y-112831619D01*
X137120285Y-112926857D01*
X137120285Y-113069714D01*
X137072666Y-113164952D01*
X137025047Y-113212571D01*
X136929809Y-113260190D01*
X136548857Y-113260190D01*
X137977428Y-113069714D02*
X137977428Y-113736380D01*
X137739333Y-112688761D02*
X137501238Y-113403047D01*
X138120285Y-113403047D01*
%TO.C,TP3*%
X135644095Y-115022380D02*
X136215523Y-115022380D01*
X135929809Y-116022380D02*
X135929809Y-115022380D01*
X136548857Y-116022380D02*
X136548857Y-115022380D01*
X136929809Y-115022380D01*
X137025047Y-115070000D01*
X137072666Y-115117619D01*
X137120285Y-115212857D01*
X137120285Y-115355714D01*
X137072666Y-115450952D01*
X137025047Y-115498571D01*
X136929809Y-115546190D01*
X136548857Y-115546190D01*
X137453619Y-115022380D02*
X138072666Y-115022380D01*
X137739333Y-115403333D01*
X137882190Y-115403333D01*
X137977428Y-115450952D01*
X138025047Y-115498571D01*
X138072666Y-115593809D01*
X138072666Y-115831904D01*
X138025047Y-115927142D01*
X137977428Y-115974761D01*
X137882190Y-116022380D01*
X137596476Y-116022380D01*
X137501238Y-115974761D01*
X137453619Y-115927142D01*
%TO.C,TP2*%
X166378095Y-117816380D02*
X166949523Y-117816380D01*
X166663809Y-118816380D02*
X166663809Y-117816380D01*
X167282857Y-118816380D02*
X167282857Y-117816380D01*
X167663809Y-117816380D01*
X167759047Y-117864000D01*
X167806666Y-117911619D01*
X167854285Y-118006857D01*
X167854285Y-118149714D01*
X167806666Y-118244952D01*
X167759047Y-118292571D01*
X167663809Y-118340190D01*
X167282857Y-118340190D01*
X168235238Y-117911619D02*
X168282857Y-117864000D01*
X168378095Y-117816380D01*
X168616190Y-117816380D01*
X168711428Y-117864000D01*
X168759047Y-117911619D01*
X168806666Y-118006857D01*
X168806666Y-118102095D01*
X168759047Y-118244952D01*
X168187619Y-118816380D01*
X168806666Y-118816380D01*
%TO.C,TP1*%
X137168095Y-130008380D02*
X137739523Y-130008380D01*
X137453809Y-131008380D02*
X137453809Y-130008380D01*
X138072857Y-131008380D02*
X138072857Y-130008380D01*
X138453809Y-130008380D01*
X138549047Y-130056000D01*
X138596666Y-130103619D01*
X138644285Y-130198857D01*
X138644285Y-130341714D01*
X138596666Y-130436952D01*
X138549047Y-130484571D01*
X138453809Y-130532190D01*
X138072857Y-130532190D01*
X139596666Y-131008380D02*
X139025238Y-131008380D01*
X139310952Y-131008380D02*
X139310952Y-130008380D01*
X139215714Y-130151238D01*
X139120476Y-130246476D01*
X139025238Y-130294095D01*
%TO.C,Q1*%
X135032761Y-107481619D02*
X134937523Y-107434000D01*
X134842285Y-107338761D01*
X134699428Y-107195904D01*
X134604190Y-107148285D01*
X134508952Y-107148285D01*
X134556571Y-107386380D02*
X134461333Y-107338761D01*
X134366095Y-107243523D01*
X134318476Y-107053047D01*
X134318476Y-106719714D01*
X134366095Y-106529238D01*
X134461333Y-106434000D01*
X134556571Y-106386380D01*
X134747047Y-106386380D01*
X134842285Y-106434000D01*
X134937523Y-106529238D01*
X134985142Y-106719714D01*
X134985142Y-107053047D01*
X134937523Y-107243523D01*
X134842285Y-107338761D01*
X134747047Y-107386380D01*
X134556571Y-107386380D01*
X135937523Y-107386380D02*
X135366095Y-107386380D01*
X135651809Y-107386380D02*
X135651809Y-106386380D01*
X135556571Y-106529238D01*
X135461333Y-106624476D01*
X135366095Y-106672095D01*
%TO.C,J3*%
X125396666Y-103846380D02*
X125396666Y-104560666D01*
X125349047Y-104703523D01*
X125253809Y-104798761D01*
X125110952Y-104846380D01*
X125015714Y-104846380D01*
X125777619Y-103846380D02*
X126396666Y-103846380D01*
X126063333Y-104227333D01*
X126206190Y-104227333D01*
X126301428Y-104274952D01*
X126349047Y-104322571D01*
X126396666Y-104417809D01*
X126396666Y-104655904D01*
X126349047Y-104751142D01*
X126301428Y-104798761D01*
X126206190Y-104846380D01*
X125920476Y-104846380D01*
X125825238Y-104798761D01*
X125777619Y-104751142D01*
%TO.C,C2*%
X132437142Y-124626666D02*
X132484761Y-124674285D01*
X132532380Y-124817142D01*
X132532380Y-124912380D01*
X132484761Y-125055238D01*
X132389523Y-125150476D01*
X132294285Y-125198095D01*
X132103809Y-125245714D01*
X131960952Y-125245714D01*
X131770476Y-125198095D01*
X131675238Y-125150476D01*
X131580000Y-125055238D01*
X131532380Y-124912380D01*
X131532380Y-124817142D01*
X131580000Y-124674285D01*
X131627619Y-124626666D01*
X131627619Y-124245714D02*
X131580000Y-124198095D01*
X131532380Y-124102857D01*
X131532380Y-123864761D01*
X131580000Y-123769523D01*
X131627619Y-123721904D01*
X131722857Y-123674285D01*
X131818095Y-123674285D01*
X131960952Y-123721904D01*
X132532380Y-124293333D01*
X132532380Y-123674285D01*
%TO.C,U3*%
X135128095Y-124166380D02*
X135128095Y-124975904D01*
X135175714Y-125071142D01*
X135223333Y-125118761D01*
X135318571Y-125166380D01*
X135509047Y-125166380D01*
X135604285Y-125118761D01*
X135651904Y-125071142D01*
X135699523Y-124975904D01*
X135699523Y-124166380D01*
X136080476Y-124166380D02*
X136699523Y-124166380D01*
X136366190Y-124547333D01*
X136509047Y-124547333D01*
X136604285Y-124594952D01*
X136651904Y-124642571D01*
X136699523Y-124737809D01*
X136699523Y-124975904D01*
X136651904Y-125071142D01*
X136604285Y-125118761D01*
X136509047Y-125166380D01*
X136223333Y-125166380D01*
X136128095Y-125118761D01*
X136080476Y-125071142D01*
%TO.C,U1*%
X139700095Y-104862380D02*
X139700095Y-105671904D01*
X139747714Y-105767142D01*
X139795333Y-105814761D01*
X139890571Y-105862380D01*
X140081047Y-105862380D01*
X140176285Y-105814761D01*
X140223904Y-105767142D01*
X140271523Y-105671904D01*
X140271523Y-104862380D01*
X141271523Y-105862380D02*
X140700095Y-105862380D01*
X140985809Y-105862380D02*
X140985809Y-104862380D01*
X140890571Y-105005238D01*
X140795333Y-105100476D01*
X140700095Y-105148095D01*
%TO.C,SW1*%
X183880761Y-114109333D02*
X183928380Y-113966476D01*
X183928380Y-113728380D01*
X183880761Y-113633142D01*
X183833142Y-113585523D01*
X183737904Y-113537904D01*
X183642666Y-113537904D01*
X183547428Y-113585523D01*
X183499809Y-113633142D01*
X183452190Y-113728380D01*
X183404571Y-113918857D01*
X183356952Y-114014095D01*
X183309333Y-114061714D01*
X183214095Y-114109333D01*
X183118857Y-114109333D01*
X183023619Y-114061714D01*
X182976000Y-114014095D01*
X182928380Y-113918857D01*
X182928380Y-113680761D01*
X182976000Y-113537904D01*
X182928380Y-113204571D02*
X183928380Y-112966476D01*
X183214095Y-112776000D01*
X183928380Y-112585523D01*
X182928380Y-112347428D01*
X183928380Y-111442666D02*
X183928380Y-112014095D01*
X183928380Y-111728380D02*
X182928380Y-111728380D01*
X183071238Y-111823619D01*
X183166476Y-111918857D01*
X183214095Y-112014095D01*
%TO.C,R6*%
X163266380Y-110656666D02*
X162790190Y-110990000D01*
X163266380Y-111228095D02*
X162266380Y-111228095D01*
X162266380Y-110847142D01*
X162314000Y-110751904D01*
X162361619Y-110704285D01*
X162456857Y-110656666D01*
X162599714Y-110656666D01*
X162694952Y-110704285D01*
X162742571Y-110751904D01*
X162790190Y-110847142D01*
X162790190Y-111228095D01*
X162266380Y-109799523D02*
X162266380Y-109990000D01*
X162314000Y-110085238D01*
X162361619Y-110132857D01*
X162504476Y-110228095D01*
X162694952Y-110275714D01*
X163075904Y-110275714D01*
X163171142Y-110228095D01*
X163218761Y-110180476D01*
X163266380Y-110085238D01*
X163266380Y-109894761D01*
X163218761Y-109799523D01*
X163171142Y-109751904D01*
X163075904Y-109704285D01*
X162837809Y-109704285D01*
X162742571Y-109751904D01*
X162694952Y-109799523D01*
X162647333Y-109894761D01*
X162647333Y-110085238D01*
X162694952Y-110180476D01*
X162742571Y-110228095D01*
X162837809Y-110275714D01*
%TO.C,R5*%
X137612380Y-118681166D02*
X137136190Y-119014500D01*
X137612380Y-119252595D02*
X136612380Y-119252595D01*
X136612380Y-118871642D01*
X136660000Y-118776404D01*
X136707619Y-118728785D01*
X136802857Y-118681166D01*
X136945714Y-118681166D01*
X137040952Y-118728785D01*
X137088571Y-118776404D01*
X137136190Y-118871642D01*
X137136190Y-119252595D01*
X136612380Y-117776404D02*
X136612380Y-118252595D01*
X137088571Y-118300214D01*
X137040952Y-118252595D01*
X136993333Y-118157357D01*
X136993333Y-117919261D01*
X137040952Y-117824023D01*
X137088571Y-117776404D01*
X137183809Y-117728785D01*
X137421904Y-117728785D01*
X137517142Y-117776404D01*
X137564761Y-117824023D01*
X137612380Y-117919261D01*
X137612380Y-118157357D01*
X137564761Y-118252595D01*
X137517142Y-118300214D01*
%TO.C,R4*%
X133548380Y-118784666D02*
X133072190Y-119118000D01*
X133548380Y-119356095D02*
X132548380Y-119356095D01*
X132548380Y-118975142D01*
X132596000Y-118879904D01*
X132643619Y-118832285D01*
X132738857Y-118784666D01*
X132881714Y-118784666D01*
X132976952Y-118832285D01*
X133024571Y-118879904D01*
X133072190Y-118975142D01*
X133072190Y-119356095D01*
X132881714Y-117927523D02*
X133548380Y-117927523D01*
X132500761Y-118165619D02*
X133215047Y-118403714D01*
X133215047Y-117784666D01*
%TO.C,R3*%
X163266380Y-117260666D02*
X162790190Y-117594000D01*
X163266380Y-117832095D02*
X162266380Y-117832095D01*
X162266380Y-117451142D01*
X162314000Y-117355904D01*
X162361619Y-117308285D01*
X162456857Y-117260666D01*
X162599714Y-117260666D01*
X162694952Y-117308285D01*
X162742571Y-117355904D01*
X162790190Y-117451142D01*
X162790190Y-117832095D01*
X162266380Y-116927333D02*
X162266380Y-116308285D01*
X162647333Y-116641619D01*
X162647333Y-116498761D01*
X162694952Y-116403523D01*
X162742571Y-116355904D01*
X162837809Y-116308285D01*
X163075904Y-116308285D01*
X163171142Y-116355904D01*
X163218761Y-116403523D01*
X163266380Y-116498761D01*
X163266380Y-116784476D01*
X163218761Y-116879714D01*
X163171142Y-116927333D01*
%TO.C,R2*%
X129738380Y-113704666D02*
X129262190Y-114038000D01*
X129738380Y-114276095D02*
X128738380Y-114276095D01*
X128738380Y-113895142D01*
X128786000Y-113799904D01*
X128833619Y-113752285D01*
X128928857Y-113704666D01*
X129071714Y-113704666D01*
X129166952Y-113752285D01*
X129214571Y-113799904D01*
X129262190Y-113895142D01*
X129262190Y-114276095D01*
X128833619Y-113323714D02*
X128786000Y-113276095D01*
X128738380Y-113180857D01*
X128738380Y-112942761D01*
X128786000Y-112847523D01*
X128833619Y-112799904D01*
X128928857Y-112752285D01*
X129024095Y-112752285D01*
X129166952Y-112799904D01*
X129738380Y-113371333D01*
X129738380Y-112752285D01*
%TO.C,R1*%
X129119333Y-104846380D02*
X128786000Y-104370190D01*
X128547904Y-104846380D02*
X128547904Y-103846380D01*
X128928857Y-103846380D01*
X129024095Y-103894000D01*
X129071714Y-103941619D01*
X129119333Y-104036857D01*
X129119333Y-104179714D01*
X129071714Y-104274952D01*
X129024095Y-104322571D01*
X128928857Y-104370190D01*
X128547904Y-104370190D01*
X130071714Y-104846380D02*
X129500285Y-104846380D01*
X129786000Y-104846380D02*
X129786000Y-103846380D01*
X129690761Y-103989238D01*
X129595523Y-104084476D01*
X129500285Y-104132095D01*
%TO.C,J2*%
X175608666Y-122408380D02*
X175608666Y-123122666D01*
X175561047Y-123265523D01*
X175465809Y-123360761D01*
X175322952Y-123408380D01*
X175227714Y-123408380D01*
X176037238Y-122503619D02*
X176084857Y-122456000D01*
X176180095Y-122408380D01*
X176418190Y-122408380D01*
X176513428Y-122456000D01*
X176561047Y-122503619D01*
X176608666Y-122598857D01*
X176608666Y-122694095D01*
X176561047Y-122836952D01*
X175989619Y-123408380D01*
X176608666Y-123408380D01*
%TO.C,J1*%
X123658380Y-134191333D02*
X124372666Y-134191333D01*
X124515523Y-134238952D01*
X124610761Y-134334190D01*
X124658380Y-134477047D01*
X124658380Y-134572285D01*
X124658380Y-133191333D02*
X124658380Y-133762761D01*
X124658380Y-133477047D02*
X123658380Y-133477047D01*
X123801238Y-133572285D01*
X123896476Y-133667523D01*
X123944095Y-133762761D01*
%TO.C,D3*%
X165298380Y-111228095D02*
X164298380Y-111228095D01*
X164298380Y-110990000D01*
X164346000Y-110847142D01*
X164441238Y-110751904D01*
X164536476Y-110704285D01*
X164726952Y-110656666D01*
X164869809Y-110656666D01*
X165060285Y-110704285D01*
X165155523Y-110751904D01*
X165250761Y-110847142D01*
X165298380Y-110990000D01*
X165298380Y-111228095D01*
X164298380Y-110323333D02*
X164298380Y-109704285D01*
X164679333Y-110037619D01*
X164679333Y-109894761D01*
X164726952Y-109799523D01*
X164774571Y-109751904D01*
X164869809Y-109704285D01*
X165107904Y-109704285D01*
X165203142Y-109751904D01*
X165250761Y-109799523D01*
X165298380Y-109894761D01*
X165298380Y-110180476D01*
X165250761Y-110275714D01*
X165203142Y-110323333D01*
%TO.C,D2*%
X139390380Y-119102095D02*
X138390380Y-119102095D01*
X138390380Y-118864000D01*
X138438000Y-118721142D01*
X138533238Y-118625904D01*
X138628476Y-118578285D01*
X138818952Y-118530666D01*
X138961809Y-118530666D01*
X139152285Y-118578285D01*
X139247523Y-118625904D01*
X139342761Y-118721142D01*
X139390380Y-118864000D01*
X139390380Y-119102095D01*
X138485619Y-118149714D02*
X138438000Y-118102095D01*
X138390380Y-118006857D01*
X138390380Y-117768761D01*
X138438000Y-117673523D01*
X138485619Y-117625904D01*
X138580857Y-117578285D01*
X138676095Y-117578285D01*
X138818952Y-117625904D01*
X139390380Y-118197333D01*
X139390380Y-117578285D01*
%TO.C,D1*%
X135460380Y-119265095D02*
X134460380Y-119265095D01*
X134460380Y-119027000D01*
X134508000Y-118884142D01*
X134603238Y-118788904D01*
X134698476Y-118741285D01*
X134888952Y-118693666D01*
X135031809Y-118693666D01*
X135222285Y-118741285D01*
X135317523Y-118788904D01*
X135412761Y-118884142D01*
X135460380Y-119027000D01*
X135460380Y-119265095D01*
X135460380Y-117741285D02*
X135460380Y-118312714D01*
X135460380Y-118027000D02*
X134460380Y-118027000D01*
X134603238Y-118122238D01*
X134698476Y-118217476D01*
X134746095Y-118312714D01*
%TO.C,C5*%
X168134833Y-122531142D02*
X168087214Y-122578761D01*
X167944357Y-122626380D01*
X167849119Y-122626380D01*
X167706261Y-122578761D01*
X167611023Y-122483523D01*
X167563404Y-122388285D01*
X167515785Y-122197809D01*
X167515785Y-122054952D01*
X167563404Y-121864476D01*
X167611023Y-121769238D01*
X167706261Y-121674000D01*
X167849119Y-121626380D01*
X167944357Y-121626380D01*
X168087214Y-121674000D01*
X168134833Y-121721619D01*
X169039595Y-121626380D02*
X168563404Y-121626380D01*
X168515785Y-122102571D01*
X168563404Y-122054952D01*
X168658642Y-122007333D01*
X168896738Y-122007333D01*
X168991976Y-122054952D01*
X169039595Y-122102571D01*
X169087214Y-122197809D01*
X169087214Y-122435904D01*
X169039595Y-122531142D01*
X168991976Y-122578761D01*
X168896738Y-122626380D01*
X168658642Y-122626380D01*
X168563404Y-122578761D01*
X168515785Y-122531142D01*
%TO.C,C4*%
X165203142Y-123610666D02*
X165250761Y-123658285D01*
X165298380Y-123801142D01*
X165298380Y-123896380D01*
X165250761Y-124039238D01*
X165155523Y-124134476D01*
X165060285Y-124182095D01*
X164869809Y-124229714D01*
X164726952Y-124229714D01*
X164536476Y-124182095D01*
X164441238Y-124134476D01*
X164346000Y-124039238D01*
X164298380Y-123896380D01*
X164298380Y-123801142D01*
X164346000Y-123658285D01*
X164393619Y-123610666D01*
X164631714Y-122753523D02*
X165298380Y-122753523D01*
X164250761Y-122991619D02*
X164965047Y-123229714D01*
X164965047Y-122610666D01*
%TO.C,C3*%
X142089142Y-127674666D02*
X142136761Y-127722285D01*
X142184380Y-127865142D01*
X142184380Y-127960380D01*
X142136761Y-128103238D01*
X142041523Y-128198476D01*
X141946285Y-128246095D01*
X141755809Y-128293714D01*
X141612952Y-128293714D01*
X141422476Y-128246095D01*
X141327238Y-128198476D01*
X141232000Y-128103238D01*
X141184380Y-127960380D01*
X141184380Y-127865142D01*
X141232000Y-127722285D01*
X141279619Y-127674666D01*
X141184380Y-127341333D02*
X141184380Y-126722285D01*
X141565333Y-127055619D01*
X141565333Y-126912761D01*
X141612952Y-126817523D01*
X141660571Y-126769904D01*
X141755809Y-126722285D01*
X141993904Y-126722285D01*
X142089142Y-126769904D01*
X142136761Y-126817523D01*
X142184380Y-126912761D01*
X142184380Y-127198476D01*
X142136761Y-127293714D01*
X142089142Y-127341333D01*
%TO.C,C1*%
X134215142Y-124626666D02*
X134262761Y-124674285D01*
X134310380Y-124817142D01*
X134310380Y-124912380D01*
X134262761Y-125055238D01*
X134167523Y-125150476D01*
X134072285Y-125198095D01*
X133881809Y-125245714D01*
X133738952Y-125245714D01*
X133548476Y-125198095D01*
X133453238Y-125150476D01*
X133358000Y-125055238D01*
X133310380Y-124912380D01*
X133310380Y-124817142D01*
X133358000Y-124674285D01*
X133405619Y-124626666D01*
X134310380Y-123674285D02*
X134310380Y-124245714D01*
X134310380Y-123960000D02*
X133310380Y-123960000D01*
X133453238Y-124055238D01*
X133548476Y-124150476D01*
X133596095Y-124245714D01*
%TD*%
%LPC*%
D13*
%TO.C,Q2*%
X133334000Y-110744000D03*
X131334000Y-111694000D03*
X131334000Y-109794000D03*
%TD*%
D14*
%TO.C,H2*%
X165100000Y-131826000D03*
%TD*%
%TO.C,H1*%
X131572000Y-132080000D03*
%TD*%
D15*
%TO.C,TP10*%
X163322000Y-107442000D03*
%TD*%
%TO.C,TP9*%
X165100000Y-120650000D03*
%TD*%
%TO.C,TP8*%
X137668000Y-109728000D03*
%TD*%
%TO.C,TP7*%
X131064000Y-113792000D03*
%TD*%
%TO.C,TP6*%
X133350000Y-113792000D03*
%TD*%
%TO.C,TP5*%
X137668000Y-107442000D03*
%TD*%
%TO.C,TP4*%
X139700000Y-113284000D03*
%TD*%
%TO.C,TP3*%
X139700000Y-115570000D03*
%TD*%
%TO.C,TP2*%
X165100000Y-118364000D03*
%TD*%
%TO.C,TP1*%
X135890000Y-130556000D03*
%TD*%
D13*
%TO.C,Q1*%
X133334000Y-106934000D03*
X131334000Y-107884000D03*
X131334000Y-105984000D03*
%TD*%
D16*
%TO.C,J3*%
X125730000Y-119634000D03*
X125730000Y-117094000D03*
X125730000Y-114554000D03*
X125730000Y-112014000D03*
X125730000Y-109474000D03*
D17*
X125730000Y-106934000D03*
%TD*%
%TO.C,C2*%
G36*
G01*
X132317500Y-126929000D02*
X131842500Y-126929000D01*
G75*
G02*
X131605000Y-126691500I0J237500D01*
G01*
X131605000Y-126091500D01*
G75*
G02*
X131842500Y-125854000I237500J0D01*
G01*
X132317500Y-125854000D01*
G75*
G02*
X132555000Y-126091500I0J-237500D01*
G01*
X132555000Y-126691500D01*
G75*
G02*
X132317500Y-126929000I-237500J0D01*
G01*
G37*
G36*
G01*
X132317500Y-128654000D02*
X131842500Y-128654000D01*
G75*
G02*
X131605000Y-128416500I0J237500D01*
G01*
X131605000Y-127816500D01*
G75*
G02*
X131842500Y-127579000I237500J0D01*
G01*
X132317500Y-127579000D01*
G75*
G02*
X132555000Y-127816500I0J-237500D01*
G01*
X132555000Y-128416500D01*
G75*
G02*
X132317500Y-128654000I-237500J0D01*
G01*
G37*
%TD*%
D18*
%TO.C,U3*%
X138006000Y-126304000D03*
X138006000Y-128204000D03*
X135806000Y-128204000D03*
X135806000Y-127254000D03*
X135806000Y-126304000D03*
%TD*%
D19*
%TO.C,U1*%
X143138000Y-123825000D03*
X143138000Y-122555000D03*
X143138000Y-121285000D03*
X143138000Y-120015000D03*
X143138000Y-118745000D03*
X143138000Y-117475000D03*
X143138000Y-116205000D03*
X143138000Y-114935000D03*
X143138000Y-113665000D03*
X143138000Y-112395000D03*
X143138000Y-111125000D03*
X143138000Y-109855000D03*
X143138000Y-108585000D03*
X143138000Y-107315000D03*
D20*
X145923000Y-106315000D03*
X147193000Y-106315000D03*
X148463000Y-106315000D03*
X149733000Y-106315000D03*
X151003000Y-106315000D03*
X152273000Y-106315000D03*
X153543000Y-106315000D03*
X154813000Y-106315000D03*
X156083000Y-106315000D03*
X157353000Y-106315000D03*
D19*
X160138000Y-107315000D03*
X160138000Y-108585000D03*
X160138000Y-109855000D03*
X160138000Y-111125000D03*
X160138000Y-112395000D03*
X160138000Y-113665000D03*
X160138000Y-114935000D03*
X160138000Y-116205000D03*
X160138000Y-117475000D03*
X160138000Y-118745000D03*
X160138000Y-120015000D03*
X160138000Y-121285000D03*
X160138000Y-122555000D03*
X160138000Y-123825000D03*
D21*
X152638000Y-116325000D03*
%TD*%
D22*
%TO.C,SW1*%
X173816000Y-106426000D03*
X178816000Y-106426000D03*
X173816000Y-118926000D03*
X178816000Y-118926000D03*
%TD*%
%TO.C,R6*%
G36*
G01*
X163051500Y-112859000D02*
X162576500Y-112859000D01*
G75*
G02*
X162339000Y-112621500I0J237500D01*
G01*
X162339000Y-112121500D01*
G75*
G02*
X162576500Y-111884000I237500J0D01*
G01*
X163051500Y-111884000D01*
G75*
G02*
X163289000Y-112121500I0J-237500D01*
G01*
X163289000Y-112621500D01*
G75*
G02*
X163051500Y-112859000I-237500J0D01*
G01*
G37*
G36*
G01*
X163051500Y-114684000D02*
X162576500Y-114684000D01*
G75*
G02*
X162339000Y-114446500I0J237500D01*
G01*
X162339000Y-113946500D01*
G75*
G02*
X162576500Y-113709000I237500J0D01*
G01*
X163051500Y-113709000D01*
G75*
G02*
X163289000Y-113946500I0J-237500D01*
G01*
X163289000Y-114446500D01*
G75*
G02*
X163051500Y-114684000I-237500J0D01*
G01*
G37*
%TD*%
%TO.C,R5*%
G36*
G01*
X137397500Y-120987000D02*
X136922500Y-120987000D01*
G75*
G02*
X136685000Y-120749500I0J237500D01*
G01*
X136685000Y-120249500D01*
G75*
G02*
X136922500Y-120012000I237500J0D01*
G01*
X137397500Y-120012000D01*
G75*
G02*
X137635000Y-120249500I0J-237500D01*
G01*
X137635000Y-120749500D01*
G75*
G02*
X137397500Y-120987000I-237500J0D01*
G01*
G37*
G36*
G01*
X137397500Y-122812000D02*
X136922500Y-122812000D01*
G75*
G02*
X136685000Y-122574500I0J237500D01*
G01*
X136685000Y-122074500D01*
G75*
G02*
X136922500Y-121837000I237500J0D01*
G01*
X137397500Y-121837000D01*
G75*
G02*
X137635000Y-122074500I0J-237500D01*
G01*
X137635000Y-122574500D01*
G75*
G02*
X137397500Y-122812000I-237500J0D01*
G01*
G37*
%TD*%
%TO.C,R4*%
G36*
G01*
X133333500Y-120987000D02*
X132858500Y-120987000D01*
G75*
G02*
X132621000Y-120749500I0J237500D01*
G01*
X132621000Y-120249500D01*
G75*
G02*
X132858500Y-120012000I237500J0D01*
G01*
X133333500Y-120012000D01*
G75*
G02*
X133571000Y-120249500I0J-237500D01*
G01*
X133571000Y-120749500D01*
G75*
G02*
X133333500Y-120987000I-237500J0D01*
G01*
G37*
G36*
G01*
X133333500Y-122812000D02*
X132858500Y-122812000D01*
G75*
G02*
X132621000Y-122574500I0J237500D01*
G01*
X132621000Y-122074500D01*
G75*
G02*
X132858500Y-121837000I237500J0D01*
G01*
X133333500Y-121837000D01*
G75*
G02*
X133571000Y-122074500I0J-237500D01*
G01*
X133571000Y-122574500D01*
G75*
G02*
X133333500Y-122812000I-237500J0D01*
G01*
G37*
%TD*%
%TO.C,R3*%
G36*
G01*
X162576500Y-120313000D02*
X163051500Y-120313000D01*
G75*
G02*
X163289000Y-120550500I0J-237500D01*
G01*
X163289000Y-121050500D01*
G75*
G02*
X163051500Y-121288000I-237500J0D01*
G01*
X162576500Y-121288000D01*
G75*
G02*
X162339000Y-121050500I0J237500D01*
G01*
X162339000Y-120550500D01*
G75*
G02*
X162576500Y-120313000I237500J0D01*
G01*
G37*
G36*
G01*
X162576500Y-118488000D02*
X163051500Y-118488000D01*
G75*
G02*
X163289000Y-118725500I0J-237500D01*
G01*
X163289000Y-119225500D01*
G75*
G02*
X163051500Y-119463000I-237500J0D01*
G01*
X162576500Y-119463000D01*
G75*
G02*
X162339000Y-119225500I0J237500D01*
G01*
X162339000Y-118725500D01*
G75*
G02*
X162576500Y-118488000I237500J0D01*
G01*
G37*
%TD*%
%TO.C,R2*%
G36*
G01*
X129523500Y-110319000D02*
X129048500Y-110319000D01*
G75*
G02*
X128811000Y-110081500I0J237500D01*
G01*
X128811000Y-109581500D01*
G75*
G02*
X129048500Y-109344000I237500J0D01*
G01*
X129523500Y-109344000D01*
G75*
G02*
X129761000Y-109581500I0J-237500D01*
G01*
X129761000Y-110081500D01*
G75*
G02*
X129523500Y-110319000I-237500J0D01*
G01*
G37*
G36*
G01*
X129523500Y-112144000D02*
X129048500Y-112144000D01*
G75*
G02*
X128811000Y-111906500I0J237500D01*
G01*
X128811000Y-111406500D01*
G75*
G02*
X129048500Y-111169000I237500J0D01*
G01*
X129523500Y-111169000D01*
G75*
G02*
X129761000Y-111406500I0J-237500D01*
G01*
X129761000Y-111906500D01*
G75*
G02*
X129523500Y-112144000I-237500J0D01*
G01*
G37*
%TD*%
%TO.C,R1*%
G36*
G01*
X129048500Y-107359000D02*
X129523500Y-107359000D01*
G75*
G02*
X129761000Y-107596500I0J-237500D01*
G01*
X129761000Y-108096500D01*
G75*
G02*
X129523500Y-108334000I-237500J0D01*
G01*
X129048500Y-108334000D01*
G75*
G02*
X128811000Y-108096500I0J237500D01*
G01*
X128811000Y-107596500D01*
G75*
G02*
X129048500Y-107359000I237500J0D01*
G01*
G37*
G36*
G01*
X129048500Y-105534000D02*
X129523500Y-105534000D01*
G75*
G02*
X129761000Y-105771500I0J-237500D01*
G01*
X129761000Y-106271500D01*
G75*
G02*
X129523500Y-106509000I-237500J0D01*
G01*
X129048500Y-106509000D01*
G75*
G02*
X128811000Y-106271500I0J237500D01*
G01*
X128811000Y-105771500D01*
G75*
G02*
X129048500Y-105534000I237500J0D01*
G01*
G37*
%TD*%
D23*
%TO.C,J2*%
X180942000Y-128016000D03*
X175942000Y-128016000D03*
D24*
X170942000Y-128016000D03*
%TD*%
D25*
%TO.C,J1*%
X124530000Y-129820000D03*
D26*
X124530000Y-127120000D03*
D27*
X124530000Y-131645000D03*
X124530000Y-124895000D03*
D28*
X127105000Y-130757500D03*
X127105000Y-125782500D03*
D29*
X127190000Y-129570000D03*
X127190000Y-128920000D03*
X127190000Y-128270000D03*
X127190000Y-127620000D03*
X127190000Y-126970000D03*
%TD*%
%TO.C,D3*%
G36*
G01*
X164608500Y-113634000D02*
X165083500Y-113634000D01*
G75*
G02*
X165321000Y-113871500I0J-237500D01*
G01*
X165321000Y-114446500D01*
G75*
G02*
X165083500Y-114684000I-237500J0D01*
G01*
X164608500Y-114684000D01*
G75*
G02*
X164371000Y-114446500I0J237500D01*
G01*
X164371000Y-113871500D01*
G75*
G02*
X164608500Y-113634000I237500J0D01*
G01*
G37*
G36*
G01*
X164608500Y-111884000D02*
X165083500Y-111884000D01*
G75*
G02*
X165321000Y-112121500I0J-237500D01*
G01*
X165321000Y-112696500D01*
G75*
G02*
X165083500Y-112934000I-237500J0D01*
G01*
X164608500Y-112934000D01*
G75*
G02*
X164371000Y-112696500I0J237500D01*
G01*
X164371000Y-112121500D01*
G75*
G02*
X164608500Y-111884000I237500J0D01*
G01*
G37*
%TD*%
%TO.C,D2*%
G36*
G01*
X139175500Y-121062000D02*
X138700500Y-121062000D01*
G75*
G02*
X138463000Y-120824500I0J237500D01*
G01*
X138463000Y-120249500D01*
G75*
G02*
X138700500Y-120012000I237500J0D01*
G01*
X139175500Y-120012000D01*
G75*
G02*
X139413000Y-120249500I0J-237500D01*
G01*
X139413000Y-120824500D01*
G75*
G02*
X139175500Y-121062000I-237500J0D01*
G01*
G37*
G36*
G01*
X139175500Y-122812000D02*
X138700500Y-122812000D01*
G75*
G02*
X138463000Y-122574500I0J237500D01*
G01*
X138463000Y-121999500D01*
G75*
G02*
X138700500Y-121762000I237500J0D01*
G01*
X139175500Y-121762000D01*
G75*
G02*
X139413000Y-121999500I0J-237500D01*
G01*
X139413000Y-122574500D01*
G75*
G02*
X139175500Y-122812000I-237500J0D01*
G01*
G37*
%TD*%
%TO.C,D1*%
G36*
G01*
X135111500Y-121062000D02*
X134636500Y-121062000D01*
G75*
G02*
X134399000Y-120824500I0J237500D01*
G01*
X134399000Y-120249500D01*
G75*
G02*
X134636500Y-120012000I237500J0D01*
G01*
X135111500Y-120012000D01*
G75*
G02*
X135349000Y-120249500I0J-237500D01*
G01*
X135349000Y-120824500D01*
G75*
G02*
X135111500Y-121062000I-237500J0D01*
G01*
G37*
G36*
G01*
X135111500Y-122812000D02*
X134636500Y-122812000D01*
G75*
G02*
X134399000Y-122574500I0J237500D01*
G01*
X134399000Y-121999500D01*
G75*
G02*
X134636500Y-121762000I237500J0D01*
G01*
X135111500Y-121762000D01*
G75*
G02*
X135349000Y-121999500I0J-237500D01*
G01*
X135349000Y-122574500D01*
G75*
G02*
X135111500Y-122812000I-237500J0D01*
G01*
G37*
%TD*%
%TO.C,C5*%
G36*
G01*
X171024500Y-121936500D02*
X171024500Y-122411500D01*
G75*
G02*
X170787000Y-122649000I-237500J0D01*
G01*
X170187000Y-122649000D01*
G75*
G02*
X169949500Y-122411500I0J237500D01*
G01*
X169949500Y-121936500D01*
G75*
G02*
X170187000Y-121699000I237500J0D01*
G01*
X170787000Y-121699000D01*
G75*
G02*
X171024500Y-121936500I0J-237500D01*
G01*
G37*
G36*
G01*
X172749500Y-121936500D02*
X172749500Y-122411500D01*
G75*
G02*
X172512000Y-122649000I-237500J0D01*
G01*
X171912000Y-122649000D01*
G75*
G02*
X171674500Y-122411500I0J237500D01*
G01*
X171674500Y-121936500D01*
G75*
G02*
X171912000Y-121699000I237500J0D01*
G01*
X172512000Y-121699000D01*
G75*
G02*
X172749500Y-121936500I0J-237500D01*
G01*
G37*
%TD*%
%TO.C,C4*%
G36*
G01*
X163051500Y-123119000D02*
X162576500Y-123119000D01*
G75*
G02*
X162339000Y-122881500I0J237500D01*
G01*
X162339000Y-122281500D01*
G75*
G02*
X162576500Y-122044000I237500J0D01*
G01*
X163051500Y-122044000D01*
G75*
G02*
X163289000Y-122281500I0J-237500D01*
G01*
X163289000Y-122881500D01*
G75*
G02*
X163051500Y-123119000I-237500J0D01*
G01*
G37*
G36*
G01*
X163051500Y-124844000D02*
X162576500Y-124844000D01*
G75*
G02*
X162339000Y-124606500I0J237500D01*
G01*
X162339000Y-124006500D01*
G75*
G02*
X162576500Y-123769000I237500J0D01*
G01*
X163051500Y-123769000D01*
G75*
G02*
X163289000Y-124006500I0J-237500D01*
G01*
X163289000Y-124606500D01*
G75*
G02*
X163051500Y-124844000I-237500J0D01*
G01*
G37*
%TD*%
%TO.C,C3*%
G36*
G01*
X140191500Y-126929000D02*
X139716500Y-126929000D01*
G75*
G02*
X139479000Y-126691500I0J237500D01*
G01*
X139479000Y-126091500D01*
G75*
G02*
X139716500Y-125854000I237500J0D01*
G01*
X140191500Y-125854000D01*
G75*
G02*
X140429000Y-126091500I0J-237500D01*
G01*
X140429000Y-126691500D01*
G75*
G02*
X140191500Y-126929000I-237500J0D01*
G01*
G37*
G36*
G01*
X140191500Y-128654000D02*
X139716500Y-128654000D01*
G75*
G02*
X139479000Y-128416500I0J237500D01*
G01*
X139479000Y-127816500D01*
G75*
G02*
X139716500Y-127579000I237500J0D01*
G01*
X140191500Y-127579000D01*
G75*
G02*
X140429000Y-127816500I0J-237500D01*
G01*
X140429000Y-128416500D01*
G75*
G02*
X140191500Y-128654000I-237500J0D01*
G01*
G37*
%TD*%
%TO.C,C1*%
G36*
G01*
X134095500Y-126929000D02*
X133620500Y-126929000D01*
G75*
G02*
X133383000Y-126691500I0J237500D01*
G01*
X133383000Y-126091500D01*
G75*
G02*
X133620500Y-125854000I237500J0D01*
G01*
X134095500Y-125854000D01*
G75*
G02*
X134333000Y-126091500I0J-237500D01*
G01*
X134333000Y-126691500D01*
G75*
G02*
X134095500Y-126929000I-237500J0D01*
G01*
G37*
G36*
G01*
X134095500Y-128654000D02*
X133620500Y-128654000D01*
G75*
G02*
X133383000Y-128416500I0J237500D01*
G01*
X133383000Y-127816500D01*
G75*
G02*
X133620500Y-127579000I237500J0D01*
G01*
X134095500Y-127579000D01*
G75*
G02*
X134333000Y-127816500I0J-237500D01*
G01*
X134333000Y-128416500D01*
G75*
G02*
X134095500Y-128654000I-237500J0D01*
G01*
G37*
%TD*%
M02*
