G04*
G04 #@! TF.GenerationSoftware,Altium Limited,Altium Designer,21.0.8 (223)*
G04*
G04 Layer_Color=32896*
%FSLAX25Y25*%
%MOIN*%
G70*
G04*
G04 #@! TF.SameCoordinates,7D5CD3C5-D8CC-49FF-9A51-A3FBF932E8B6*
G04*
G04*
G04 #@! TF.FilePolarity,Positive*
G04*
G01*
G75*
%ADD12C,0.01000*%
%ADD32C,0.00700*%
D12*
X94600Y38215D02*
X93267D01*
X93934D01*
Y34216D01*
X94600D01*
X93267D01*
X91268D02*
Y36882D01*
X89268D01*
X88602Y36215D01*
Y34216D01*
X87269D02*
X85270D01*
X84603Y34882D01*
X85270Y35549D01*
X86603D01*
X87269Y36215D01*
X86603Y36882D01*
X84603D01*
X82604Y37548D02*
Y36882D01*
X83270D01*
X81937D01*
X82604D01*
Y34882D01*
X81937Y34216D01*
X79938Y36882D02*
Y34216D01*
Y35549D01*
X79272Y36215D01*
X78605Y36882D01*
X77939D01*
X75939D02*
Y34882D01*
X75273Y34216D01*
X73274D01*
Y36882D01*
X69275D02*
X71274D01*
X71941Y36215D01*
Y34882D01*
X71274Y34216D01*
X69275D01*
X67276Y37548D02*
Y36882D01*
X67942D01*
X66609D01*
X67276D01*
Y34882D01*
X66609Y34216D01*
X64610D02*
X63277D01*
X63943D01*
Y36882D01*
X64610D01*
X60611Y34216D02*
X59278D01*
X58612Y34882D01*
Y36215D01*
X59278Y36882D01*
X60611D01*
X61277Y36215D01*
Y34882D01*
X60611Y34216D01*
X57279D02*
Y36882D01*
X55279D01*
X54613Y36215D01*
Y34216D01*
X53280D02*
X51281D01*
X50614Y34882D01*
X51281Y35549D01*
X52614D01*
X53280Y36215D01*
X52614Y36882D01*
X50614D01*
X44616Y34216D02*
Y37548D01*
Y36215D01*
X45283D01*
X43950D01*
X44616D01*
Y37548D01*
X43950Y38215D01*
X41284Y34216D02*
X39951D01*
X39285Y34882D01*
Y36215D01*
X39951Y36882D01*
X41284D01*
X41950Y36215D01*
Y34882D01*
X41284Y34216D01*
X37952Y36882D02*
Y34216D01*
Y35549D01*
X37285Y36215D01*
X36619Y36882D01*
X35952D01*
X29954D02*
Y34882D01*
X29288Y34216D01*
X27288D01*
Y36882D01*
X25956Y34216D02*
X23956D01*
X23290Y34882D01*
X23956Y35549D01*
X25289D01*
X25956Y36215D01*
X25289Y36882D01*
X23290D01*
X19957Y34216D02*
X21290D01*
X21957Y34882D01*
Y36215D01*
X21290Y36882D01*
X19957D01*
X19291Y36215D01*
Y35549D01*
X21957D01*
X17958Y36882D02*
X17292D01*
Y36215D01*
X17958D01*
Y36882D01*
Y34882D02*
X17292D01*
Y34216D01*
X17958D01*
Y34882D01*
X94600Y29017D02*
X91934D01*
X86603Y31016D02*
X85270D01*
X85936D01*
Y27017D01*
X86603D01*
X85270D01*
X83270D02*
Y29683D01*
X81271D01*
X80604Y29017D01*
Y27017D01*
X79272D02*
X77272D01*
X76606Y27684D01*
X77272Y28350D01*
X78605D01*
X79272Y29017D01*
X78605Y29683D01*
X76606D01*
X73274Y27017D02*
X74606D01*
X75273Y27684D01*
Y29017D01*
X74606Y29683D01*
X73274D01*
X72607Y29017D01*
Y28350D01*
X75273D01*
X71274Y29683D02*
Y27017D01*
Y28350D01*
X70608Y29017D01*
X69941Y29683D01*
X69275D01*
X66609Y30350D02*
Y29683D01*
X67276D01*
X65943D01*
X66609D01*
Y27684D01*
X65943Y27017D01*
X59944Y31016D02*
Y27017D01*
X57945D01*
X57279Y27684D01*
Y28350D01*
Y29017D01*
X57945Y29683D01*
X59944D01*
X55946D02*
Y27684D01*
X55279Y27017D01*
X53280D01*
Y29683D01*
X51281Y30350D02*
Y29683D01*
X51947D01*
X50614D01*
X51281D01*
Y27684D01*
X50614Y27017D01*
X47948Y30350D02*
Y29683D01*
X48615D01*
X47282D01*
X47948D01*
Y27684D01*
X47282Y27017D01*
X44616D02*
X43283D01*
X42617Y27684D01*
Y29017D01*
X43283Y29683D01*
X44616D01*
X45283Y29017D01*
Y27684D01*
X44616Y27017D01*
X41284D02*
Y29683D01*
X39285D01*
X38618Y29017D01*
Y27017D01*
X30621Y29683D02*
X32620D01*
X33286Y29017D01*
Y27684D01*
X32620Y27017D01*
X30621D01*
X27288D02*
X28621D01*
X29288Y27684D01*
Y29017D01*
X28621Y29683D01*
X27288D01*
X26622Y29017D01*
Y28350D01*
X29288D01*
X25289Y27017D02*
X23956D01*
X24623D01*
Y31016D01*
X25289D01*
X21957Y27017D02*
X20624D01*
X21290D01*
Y31016D01*
X21957D01*
X18624Y27017D02*
X16625D01*
X15959Y27684D01*
X16625Y28350D01*
X17958D01*
X18624Y29017D01*
X17958Y29683D01*
X15959D01*
X10627Y27017D02*
X9294D01*
X9961D01*
Y29683D01*
X10627D01*
X7295Y27017D02*
Y29683D01*
X5296D01*
X4629Y29017D01*
Y27017D01*
X-1369Y30350D02*
Y29683D01*
X-703D01*
X-2035D01*
X-1369D01*
Y27684D01*
X-2035Y27017D01*
X-4035Y31016D02*
Y27017D01*
Y29017D01*
X-4701Y29683D01*
X-6034D01*
X-6701Y29017D01*
Y27017D01*
X-10033D02*
X-8700D01*
X-8034Y27684D01*
Y29017D01*
X-8700Y29683D01*
X-10033D01*
X-10699Y29017D01*
Y28350D01*
X-8034D01*
X-16031Y27017D02*
X-18030D01*
X-18697Y27684D01*
X-18030Y28350D01*
X-16697D01*
X-16031Y29017D01*
X-16697Y29683D01*
X-18697D01*
X-20030Y27017D02*
X-21363D01*
X-20696D01*
Y31016D01*
X-20030D01*
X-24028Y27017D02*
X-25361D01*
X-26028Y27684D01*
Y29017D01*
X-25361Y29683D01*
X-24028D01*
X-23362Y29017D01*
Y27684D01*
X-24028Y27017D01*
X-28027Y30350D02*
Y29683D01*
X-27361D01*
X-28694D01*
X-28027D01*
Y27684D01*
X-28694Y27017D01*
X-30693D02*
X-32692D01*
X-33359Y27684D01*
X-32692Y28350D01*
X-31359D01*
X-30693Y29017D01*
X-31359Y29683D01*
X-33359D01*
X94600Y21818D02*
X91934D01*
X86603Y23818D02*
X85270D01*
X85936D01*
Y19819D01*
X86603D01*
X85270D01*
X83270D02*
Y22485D01*
X81271D01*
X80604Y21818D01*
Y19819D01*
X79272D02*
X77272D01*
X76606Y20485D01*
X77272Y21152D01*
X78605D01*
X79272Y21818D01*
X78605Y22485D01*
X76606D01*
X73274Y19819D02*
X74606D01*
X75273Y20485D01*
Y21818D01*
X74606Y22485D01*
X73274D01*
X72607Y21818D01*
Y21152D01*
X75273D01*
X71274Y22485D02*
Y19819D01*
Y21152D01*
X70608Y21818D01*
X69941Y22485D01*
X69275D01*
X66609Y23151D02*
Y22485D01*
X67276D01*
X65943D01*
X66609D01*
Y20485D01*
X65943Y19819D01*
X59278Y22485D02*
X57945D01*
X57279Y21818D01*
Y19819D01*
X59278D01*
X59944Y20485D01*
X59278Y21152D01*
X57279D01*
X55946Y18486D02*
Y22485D01*
X53947D01*
X53280Y21818D01*
Y20485D01*
X53947Y19819D01*
X55946D01*
X51947Y18486D02*
Y22485D01*
X49948D01*
X49281Y21818D01*
Y20485D01*
X49948Y19819D01*
X51947D01*
X47948Y22485D02*
Y19819D01*
Y21152D01*
X47282Y21818D01*
X46615Y22485D01*
X45949D01*
X43283Y19819D02*
X41950D01*
X41284Y20485D01*
Y21818D01*
X41950Y22485D01*
X43283D01*
X43950Y21818D01*
Y20485D01*
X43283Y19819D01*
X39951Y18486D02*
Y22485D01*
X37952D01*
X37285Y21818D01*
Y20485D01*
X37952Y19819D01*
X39951D01*
X35952Y22485D02*
Y19819D01*
Y21152D01*
X35286Y21818D01*
X34619Y22485D01*
X33953D01*
X31953Y19819D02*
X30621D01*
X31287D01*
Y22485D01*
X31953D01*
X27955D02*
X26622D01*
X25956Y21818D01*
Y19819D01*
X27955D01*
X28621Y20485D01*
X27955Y21152D01*
X25956D01*
X23956Y23151D02*
Y22485D01*
X24623D01*
X23290D01*
X23956D01*
Y20485D01*
X23290Y19819D01*
X19291D02*
X20624D01*
X21290Y20485D01*
Y21818D01*
X20624Y22485D01*
X19291D01*
X18624Y21818D01*
Y21152D01*
X21290D01*
X13293Y22485D02*
Y19819D01*
Y21152D01*
X12626Y21818D01*
X11960Y22485D01*
X11293D01*
X7295Y19819D02*
X8628D01*
X9294Y20485D01*
Y21818D01*
X8628Y22485D01*
X7295D01*
X6628Y21818D01*
Y21152D01*
X9294D01*
X5296Y19819D02*
X3296D01*
X2630Y20485D01*
X3296Y21152D01*
X4629D01*
X5296Y21818D01*
X4629Y22485D01*
X2630D01*
X1297Y19819D02*
X-36D01*
X630D01*
Y22485D01*
X1297D01*
X-2035Y19819D02*
X-4035D01*
X-4701Y20485D01*
X-4035Y21152D01*
X-2702D01*
X-2035Y21818D01*
X-2702Y22485D01*
X-4701D01*
X-6701Y23151D02*
Y22485D01*
X-6034D01*
X-7367D01*
X-6701D01*
Y20485D01*
X-7367Y19819D01*
X-10033Y22485D02*
X-11366D01*
X-12032Y21818D01*
Y19819D01*
X-10033D01*
X-9366Y20485D01*
X-10033Y21152D01*
X-12032D01*
X-13365Y19819D02*
Y22485D01*
X-15364D01*
X-16031Y21818D01*
Y19819D01*
X-20030Y22485D02*
X-18030D01*
X-17364Y21818D01*
Y20485D01*
X-18030Y19819D01*
X-20030D01*
X-23362D02*
X-22029D01*
X-21363Y20485D01*
Y21818D01*
X-22029Y22485D01*
X-23362D01*
X-24028Y21818D01*
Y21152D01*
X-21363D01*
X-25361Y19819D02*
X-27361D01*
X-28027Y20485D01*
X-27361Y21152D01*
X-26028D01*
X-25361Y21818D01*
X-26028Y22485D01*
X-28027D01*
X-33359Y19819D02*
X-34692D01*
X-34025D01*
Y22485D01*
X-33359D01*
X-36691Y19819D02*
Y22485D01*
X-38690D01*
X-39357Y21818D01*
Y19819D01*
X-41356Y23151D02*
Y22485D01*
X-40690D01*
X-42023D01*
X-41356D01*
Y20485D01*
X-42023Y19819D01*
X-44688D02*
X-46021D01*
X-46688Y20485D01*
Y21818D01*
X-46021Y22485D01*
X-44688D01*
X-44022Y21818D01*
Y20485D01*
X-44688Y19819D01*
X-52686Y23151D02*
Y22485D01*
X-52019D01*
X-53352D01*
X-52686D01*
Y20485D01*
X-53352Y19819D01*
X-55352Y23818D02*
Y19819D01*
Y21818D01*
X-56018Y22485D01*
X-57351D01*
X-58017Y21818D01*
Y19819D01*
X-61350D02*
X-60017D01*
X-59350Y20485D01*
Y21818D01*
X-60017Y22485D01*
X-61350D01*
X-62016Y21818D01*
Y21152D01*
X-59350D01*
X-67348Y19819D02*
X-69347D01*
X-70014Y20485D01*
X-69347Y21152D01*
X-68014D01*
X-67348Y21818D01*
X-68014Y22485D01*
X-70014D01*
X-71346Y19819D02*
X-72679D01*
X-72013D01*
Y23818D01*
X-71346D01*
X-75345Y19819D02*
X-76678D01*
X-77345Y20485D01*
Y21818D01*
X-76678Y22485D01*
X-75345D01*
X-74679Y21818D01*
Y20485D01*
X-75345Y19819D01*
X-79344Y23151D02*
Y22485D01*
X-78677D01*
X-80010D01*
X-79344D01*
Y20485D01*
X-80010Y19819D01*
X-82010D02*
X-84009D01*
X-84676Y20485D01*
X-84009Y21152D01*
X-82676D01*
X-82010Y21818D01*
X-82676Y22485D01*
X-84676D01*
X94600Y8088D02*
Y4089D01*
X91934D01*
X87936Y8088D02*
X90601D01*
Y4089D01*
X87936D01*
X90601Y6089D02*
X89268D01*
X86603Y8088D02*
Y4089D01*
X84603D01*
X83937Y4756D01*
Y7421D01*
X84603Y8088D01*
X86603D01*
X78605D02*
X77272D01*
X77939D01*
Y4089D01*
X78605D01*
X77272D01*
X75273D02*
Y6755D01*
X73274D01*
X72607Y6089D01*
Y4089D01*
X70608D02*
Y7421D01*
Y6089D01*
X71274D01*
X69941D01*
X70608D01*
Y7421D01*
X69941Y8088D01*
X67276Y4089D02*
X65943D01*
X65276Y4756D01*
Y6089D01*
X65943Y6755D01*
X67276D01*
X67942Y6089D01*
Y4756D01*
X67276Y4089D01*
X63943Y6755D02*
Y4089D01*
Y5422D01*
X63277Y6089D01*
X62610Y6755D01*
X61944D01*
X59944Y4089D02*
Y6755D01*
X59278D01*
X58612Y6089D01*
Y4089D01*
Y6089D01*
X57945Y6755D01*
X57279Y6089D01*
Y4089D01*
X55279Y6755D02*
X53947D01*
X53280Y6089D01*
Y4089D01*
X55279D01*
X55946Y4756D01*
X55279Y5422D01*
X53280D01*
X51281Y7421D02*
Y6755D01*
X51947D01*
X50614D01*
X51281D01*
Y4756D01*
X50614Y4089D01*
X48615D02*
X47282D01*
X47948D01*
Y6755D01*
X48615D01*
X44616Y4089D02*
X43283D01*
X42617Y4756D01*
Y6089D01*
X43283Y6755D01*
X44616D01*
X45283Y6089D01*
Y4756D01*
X44616Y4089D01*
X41284D02*
Y6755D01*
X39285D01*
X38618Y6089D01*
Y4089D01*
X37285Y6755D02*
X36619D01*
Y6089D01*
X37285D01*
Y6755D01*
Y4756D02*
X36619D01*
Y4089D01*
X37285D01*
Y4756D01*
X94600Y-3109D02*
Y889D01*
X92601D01*
X91934Y223D01*
Y-1110D01*
X92601Y-1776D01*
X94600D01*
X93267D02*
X91934Y-3109D01*
X90601D02*
X89268D01*
X89935D01*
Y889D01*
X90601Y223D01*
X87269Y-1110D02*
X84603D01*
X83270Y223D02*
X82604Y889D01*
X81271D01*
X80604Y223D01*
Y-444D01*
X81271Y-1110D01*
X81937D01*
X81271D01*
X80604Y-1776D01*
Y-2443D01*
X81271Y-3109D01*
X82604D01*
X83270Y-2443D01*
X79272Y-444D02*
X78605D01*
Y-1110D01*
X79272D01*
Y-444D01*
Y-2443D02*
X78605D01*
Y-3109D01*
X79272D01*
Y-2443D01*
X71941Y889D02*
Y-3109D01*
X69941D01*
X69275Y-2443D01*
Y-1776D01*
X69941Y-1110D01*
X71941D01*
X69941D01*
X69275Y-444D01*
Y223D01*
X69941Y889D01*
X71941D01*
X67942Y-3109D02*
X66609D01*
X67276D01*
Y889D01*
X67942D01*
X64610Y-444D02*
Y-2443D01*
X63943Y-3109D01*
X61944D01*
Y-444D01*
X58612Y-3109D02*
X59944D01*
X60611Y-2443D01*
Y-1110D01*
X59944Y-444D01*
X58612D01*
X57945Y-1110D01*
Y-1776D01*
X60611D01*
X51281Y-3109D02*
X52614Y-1776D01*
Y-444D01*
X51281Y889D01*
X49281Y223D02*
X48615Y889D01*
X47282D01*
X46615Y223D01*
Y-444D01*
X47282Y-1110D01*
X47948D01*
X47282D01*
X46615Y-1776D01*
Y-2443D01*
X47282Y-3109D01*
X48615D01*
X49281Y-2443D01*
X45283Y-3109D02*
Y-2443D01*
X44616D01*
Y-3109D01*
X45283D01*
X41950Y223D02*
X41284Y889D01*
X39951D01*
X39285Y223D01*
Y-2443D01*
X39951Y-3109D01*
X41284D01*
X41950Y-2443D01*
Y223D01*
X37952Y-444D02*
X36619Y-3109D01*
X35286Y-444D01*
X33953Y-3109D02*
X32620Y-1776D01*
Y-444D01*
X33953Y889D01*
X94600Y-10308D02*
Y-6309D01*
X92601D01*
X91934Y-6976D01*
Y-8308D01*
X92601Y-8975D01*
X94600D01*
X93267D02*
X91934Y-10308D01*
X88602D02*
Y-6309D01*
X90601Y-8308D01*
X87936D01*
X86603D02*
X83937D01*
X79938Y-6309D02*
X81271Y-6976D01*
X82604Y-8308D01*
Y-9641D01*
X81937Y-10308D01*
X80604D01*
X79938Y-9641D01*
Y-8975D01*
X80604Y-8308D01*
X82604D01*
X78605Y-7642D02*
X77939D01*
Y-8308D01*
X78605D01*
Y-7642D01*
Y-9641D02*
X77939D01*
Y-10308D01*
X78605D01*
Y-9641D01*
X68608Y-6976D02*
X69275Y-6309D01*
X70608D01*
X71274Y-6976D01*
Y-9641D01*
X70608Y-10308D01*
X69275D01*
X68608Y-9641D01*
Y-8308D01*
X69941D01*
X67276Y-7642D02*
Y-10308D01*
Y-8975D01*
X66609Y-8308D01*
X65943Y-7642D01*
X65276D01*
X61277Y-10308D02*
X62610D01*
X63277Y-9641D01*
Y-8308D01*
X62610Y-7642D01*
X61277D01*
X60611Y-8308D01*
Y-8975D01*
X63277D01*
X57279Y-10308D02*
X58612D01*
X59278Y-9641D01*
Y-8308D01*
X58612Y-7642D01*
X57279D01*
X56612Y-8308D01*
Y-8975D01*
X59278D01*
X55279Y-10308D02*
Y-7642D01*
X53280D01*
X52614Y-8308D01*
Y-10308D01*
X45949D02*
X47282Y-8975D01*
Y-7642D01*
X45949Y-6309D01*
X43950Y-6976D02*
X43283Y-6309D01*
X41950D01*
X41284Y-6976D01*
Y-7642D01*
X41950Y-8308D01*
X42617D01*
X41950D01*
X41284Y-8975D01*
Y-9641D01*
X41950Y-10308D01*
X43283D01*
X43950Y-9641D01*
X39951Y-10308D02*
Y-9641D01*
X39285D01*
Y-10308D01*
X39951D01*
X36619Y-6976D02*
X35952Y-6309D01*
X34619D01*
X33953Y-6976D01*
Y-9641D01*
X34619Y-10308D01*
X35952D01*
X36619Y-9641D01*
Y-6976D01*
X32620Y-7642D02*
X31287Y-10308D01*
X29954Y-7642D01*
X28621Y-10308D02*
X27288Y-8975D01*
Y-7642D01*
X28621Y-6309D01*
X94600Y-17506D02*
Y-13508D01*
X92601D01*
X91934Y-14174D01*
Y-15507D01*
X92601Y-16173D01*
X94600D01*
X93267D02*
X91934Y-17506D01*
X90601Y-13508D02*
X87936D01*
Y-14174D01*
X90601Y-16840D01*
Y-17506D01*
X86603Y-15507D02*
X83937D01*
X82604Y-16840D02*
X81937Y-17506D01*
X80604D01*
X79938Y-16840D01*
Y-14174D01*
X80604Y-13508D01*
X81937D01*
X82604Y-14174D01*
Y-14840D01*
X81937Y-15507D01*
X79938D01*
X78605Y-14840D02*
X77939D01*
Y-15507D01*
X78605D01*
Y-14840D01*
Y-16840D02*
X77939D01*
Y-17506D01*
X78605D01*
Y-16840D01*
X71274Y-17506D02*
Y-13508D01*
X69275D01*
X68608Y-14174D01*
Y-15507D01*
X69275Y-16173D01*
X71274D01*
X69941D02*
X68608Y-17506D01*
X65276D02*
X66609D01*
X67276Y-16840D01*
Y-15507D01*
X66609Y-14840D01*
X65276D01*
X64610Y-15507D01*
Y-16173D01*
X67276D01*
X60611Y-13508D02*
Y-17506D01*
X62610D01*
X63277Y-16840D01*
Y-15507D01*
X62610Y-14840D01*
X60611D01*
X53947Y-17506D02*
X55279Y-16173D01*
Y-14840D01*
X53947Y-13508D01*
X49281Y-17506D02*
X51947D01*
X49281Y-14840D01*
Y-14174D01*
X49948Y-13508D01*
X51281D01*
X51947Y-14174D01*
X47948Y-17506D02*
Y-16840D01*
X47282D01*
Y-17506D01*
X47948D01*
X44616Y-14174D02*
X43950Y-13508D01*
X42617D01*
X41950Y-14174D01*
Y-16840D01*
X42617Y-17506D01*
X43950D01*
X44616Y-16840D01*
Y-14174D01*
X40617Y-14840D02*
X39285Y-17506D01*
X37952Y-14840D01*
X36619Y-17506D02*
X35286Y-16173D01*
Y-14840D01*
X36619Y-13508D01*
X94600Y-24705D02*
X93267D01*
X93934D01*
Y-20706D01*
X94600Y-21372D01*
X88602Y-20706D02*
X91268D01*
Y-22705D01*
X89935Y-22039D01*
X89268D01*
X88602Y-22705D01*
Y-24038D01*
X89268Y-24705D01*
X90601D01*
X91268Y-24038D01*
X87269Y-24705D02*
Y-22039D01*
X86603D01*
X85936Y-22705D01*
Y-24705D01*
Y-22705D01*
X85270Y-22039D01*
X84603Y-22705D01*
Y-24705D01*
X83270D02*
Y-22039D01*
X81937Y-20706D01*
X80604Y-22039D01*
Y-24705D01*
Y-22705D01*
X83270D01*
X75273Y-24705D02*
Y-20706D01*
X73940Y-22039D01*
X72607Y-20706D01*
Y-24705D01*
X71274D02*
Y-22039D01*
X69941Y-20706D01*
X68608Y-22039D01*
Y-24705D01*
Y-22705D01*
X71274D01*
X67276Y-20706D02*
X64610Y-24705D01*
Y-20706D02*
X67276Y-24705D01*
X94600Y-35103D02*
Y-39101D01*
X92601D01*
X91934Y-38435D01*
Y-37769D01*
X92601Y-37102D01*
X94600D01*
X92601D01*
X91934Y-36436D01*
Y-35769D01*
X92601Y-35103D01*
X94600D01*
X90601D02*
Y-38435D01*
X89935Y-39101D01*
X88602D01*
X87936Y-38435D01*
Y-35103D01*
X86603D02*
X83937D01*
X85270D01*
Y-39101D01*
X82604Y-35103D02*
X79938D01*
X81271D01*
Y-39101D01*
X76606Y-35103D02*
X77939D01*
X78605Y-35769D01*
Y-38435D01*
X77939Y-39101D01*
X76606D01*
X75939Y-38435D01*
Y-35769D01*
X76606Y-35103D01*
X74606Y-39101D02*
Y-35103D01*
X71941Y-39101D01*
Y-35103D01*
X63943Y-35769D02*
X64610Y-35103D01*
X65943D01*
X66609Y-35769D01*
Y-38435D01*
X65943Y-39101D01*
X64610D01*
X63943Y-38435D01*
X59944Y-35103D02*
X62610D01*
Y-39101D01*
X59944D01*
X62610Y-37102D02*
X61277D01*
X58612Y-35103D02*
Y-39101D01*
X55946D01*
X54613Y-35103D02*
Y-39101D01*
X51947D01*
X43950Y-35769D02*
X44616Y-35103D01*
X45949D01*
X46615Y-35769D01*
Y-36436D01*
X45949Y-37102D01*
X44616D01*
X43950Y-37769D01*
Y-38435D01*
X44616Y-39101D01*
X45949D01*
X46615Y-38435D01*
X42617Y-39101D02*
Y-35103D01*
X40617D01*
X39951Y-35769D01*
Y-37102D01*
X40617Y-37769D01*
X42617D01*
X35952Y-35103D02*
X38618D01*
Y-39101D01*
X35952D01*
X38618Y-37102D02*
X37285D01*
X31954Y-35769D02*
X32620Y-35103D01*
X33953D01*
X34619Y-35769D01*
Y-38435D01*
X33953Y-39101D01*
X32620D01*
X31954Y-38435D01*
X27955Y-35769D02*
X28621Y-35103D01*
X29954D01*
X30621Y-35769D01*
Y-36436D01*
X29954Y-37102D01*
X28621D01*
X27955Y-37769D01*
Y-38435D01*
X28621Y-39101D01*
X29954D01*
X30621Y-38435D01*
X26622Y-36436D02*
X25956D01*
Y-37102D01*
X26622D01*
Y-36436D01*
Y-38435D02*
X25956D01*
Y-39101D01*
X26622D01*
Y-38435D01*
X94600Y-44301D02*
X91934D01*
X86603Y-42301D02*
X83937D01*
Y-42968D01*
X86603Y-45634D01*
Y-46300D01*
X82604D02*
Y-45634D01*
X81937D01*
Y-46300D01*
X82604D01*
X79272Y-45634D02*
X78605Y-46300D01*
X77272D01*
X76606Y-45634D01*
Y-42968D01*
X77272Y-42301D01*
X78605D01*
X79272Y-42968D01*
Y-43634D01*
X78605Y-44301D01*
X76606D01*
X75273Y-46300D02*
Y-43634D01*
X74606D01*
X73940Y-44301D01*
Y-46300D01*
Y-44301D01*
X73274Y-43634D01*
X72607Y-44301D01*
Y-46300D01*
X71274D02*
Y-43634D01*
X70608D01*
X69941Y-44301D01*
Y-46300D01*
Y-44301D01*
X69275Y-43634D01*
X68608Y-44301D01*
Y-46300D01*
X63277Y-42301D02*
Y-46300D01*
X57279D02*
X55946D01*
X56612D01*
Y-42301D01*
X57279Y-42968D01*
X53947Y-46300D02*
Y-45634D01*
X53280D01*
Y-46300D01*
X53947D01*
X47948Y-42301D02*
X50614D01*
Y-44301D01*
X49281Y-43634D01*
X48615D01*
X47948Y-44301D01*
Y-45634D01*
X48615Y-46300D01*
X49948D01*
X50614Y-45634D01*
X46615Y-46300D02*
X43950Y-43634D01*
X42617Y-42968D02*
X41950Y-42301D01*
X40617D01*
X39951Y-42968D01*
Y-43634D01*
X40617Y-44301D01*
X41284D01*
X40617D01*
X39951Y-44967D01*
Y-45634D01*
X40617Y-46300D01*
X41950D01*
X42617Y-45634D01*
X38618Y-42301D02*
Y-44967D01*
X37285Y-46300D01*
X35952Y-44967D01*
Y-42301D01*
X15601Y149499D02*
X16600D01*
X16101D01*
Y147000D01*
X16600Y146500D01*
X17100D01*
X17600Y147000D01*
X14601Y149499D02*
Y146500D01*
X12602D01*
X9603Y148999D02*
X10102Y149499D01*
X11102D01*
X11602Y148999D01*
Y147000D01*
X11102Y146500D01*
X10102D01*
X9603Y147000D01*
X6604Y149499D02*
X7603D01*
X7103D01*
Y147000D01*
X7603Y146500D01*
X8103D01*
X8603Y147000D01*
X5604Y149499D02*
Y146500D01*
X3604D01*
X605Y148999D02*
X1105Y149499D01*
X2105D01*
X2605Y148999D01*
Y147000D01*
X2105Y146500D01*
X1105D01*
X605Y147000D01*
X-2393Y149499D02*
X-1394D01*
X-1894D01*
Y147000D01*
X-1394Y146500D01*
X-894D01*
X-394Y147000D01*
X-3393Y149499D02*
Y146500D01*
X-5393D01*
X-8392Y148999D02*
X-7892Y149499D01*
X-6892D01*
X-6392Y148999D01*
Y147000D01*
X-6892Y146500D01*
X-7892D01*
X-8392Y147000D01*
X-11391Y149499D02*
X-10391D01*
X-10891D01*
Y147000D01*
X-10391Y146500D01*
X-9891D01*
X-9391Y147000D01*
X-12390Y149499D02*
Y146500D01*
X-14390D01*
X-17389Y148999D02*
X-16889Y149499D01*
X-15889D01*
X-15389Y148999D01*
Y147000D01*
X-15889Y146500D01*
X-16889D01*
X-17389Y147000D01*
D32*
X12501Y-91844D02*
X13001Y-91344D01*
X14000D01*
X14500Y-91844D01*
Y-92344D01*
X14000Y-92843D01*
X13001D01*
X12501Y-93343D01*
Y-93843D01*
X13001Y-94343D01*
X14000D01*
X14500Y-93843D01*
X11001Y-92344D02*
X10001D01*
X9502Y-92843D01*
Y-94343D01*
X11001D01*
X11501Y-93843D01*
X11001Y-93343D01*
X9502D01*
X8502Y-91344D02*
Y-94343D01*
Y-92843D01*
X8002Y-92344D01*
X7002D01*
X6503Y-92843D01*
Y-94343D01*
X5503D02*
X4503D01*
X5003D01*
Y-92344D01*
X5503D01*
X3004Y-94343D02*
X2004D01*
X2504D01*
Y-91344D01*
X3004D01*
X-2495D02*
Y-94343D01*
Y-93343D01*
X-4494Y-91344D01*
X-2994Y-92843D01*
X-4494Y-94343D01*
X-5993Y-92344D02*
X-6993D01*
X-7493Y-92843D01*
Y-94343D01*
X-5993D01*
X-5494Y-93843D01*
X-5993Y-93343D01*
X-7493D01*
X-8493Y-94343D02*
X-9492D01*
X-8992D01*
Y-91344D01*
X-8493D01*
X-12491Y-94343D02*
X-11492D01*
X-10992Y-93843D01*
Y-92843D01*
X-11492Y-92344D01*
X-12491D01*
X-12991Y-92843D01*
Y-93343D01*
X-10992D01*
X12501Y-97123D02*
X13001Y-96623D01*
X14000D01*
X14500Y-97123D01*
Y-99122D01*
X14000Y-99622D01*
X13001D01*
X12501Y-99122D01*
X11001Y-97623D02*
X10001D01*
X9502Y-98122D01*
Y-99622D01*
X11001D01*
X11501Y-99122D01*
X11001Y-98622D01*
X9502D01*
X8502Y-97623D02*
Y-99622D01*
Y-98622D01*
X8002Y-98122D01*
X7502Y-97623D01*
X7002D01*
X5503Y-99622D02*
X4003D01*
X3504Y-99122D01*
X4003Y-98622D01*
X5003D01*
X5503Y-98122D01*
X5003Y-97623D01*
X3504D01*
X2004Y-99622D02*
X1004D01*
X504Y-99122D01*
Y-98122D01*
X1004Y-97623D01*
X2004D01*
X2504Y-98122D01*
Y-99122D01*
X2004Y-99622D01*
X-495D02*
Y-97623D01*
X-1995D01*
X-2495Y-98122D01*
Y-99622D01*
X-6493Y-96623D02*
Y-99622D01*
X-7993D01*
X-8493Y-99122D01*
Y-98622D01*
X-7993Y-98122D01*
X-6493D01*
X-7993D01*
X-8493Y-97623D01*
Y-97123D01*
X-7993Y-96623D01*
X-6493D01*
X-9992Y-97623D02*
X-10992D01*
X-11492Y-98122D01*
Y-99622D01*
X-9992D01*
X-9492Y-99122D01*
X-9992Y-98622D01*
X-11492D01*
X-12491Y-97623D02*
Y-99122D01*
X-12991Y-99622D01*
X-14491D01*
Y-100122D01*
X-13991Y-100621D01*
X-13491D01*
X-14491Y-99622D02*
Y-97623D01*
X14500Y-102901D02*
Y-105900D01*
Y-104901D01*
X12501Y-102901D01*
X14000Y-104401D01*
X12501Y-105900D01*
X10001D02*
X11001D01*
X11501Y-105401D01*
Y-104401D01*
X11001Y-103901D01*
X10001D01*
X9502Y-104401D01*
Y-104901D01*
X11501D01*
X8502Y-103901D02*
Y-105401D01*
X8002Y-105900D01*
X6503D01*
Y-106400D01*
X7002Y-106900D01*
X7502D01*
X6503Y-105900D02*
Y-103901D01*
X5003Y-105900D02*
X4003D01*
X3504Y-105401D01*
Y-104401D01*
X4003Y-103901D01*
X5003D01*
X5503Y-104401D01*
Y-105401D01*
X5003Y-105900D01*
X2504D02*
Y-103901D01*
X1004D01*
X504Y-104401D01*
Y-105900D01*
X-5494Y-102901D02*
X-4494D01*
X-4994D01*
Y-105401D01*
X-4494Y-105900D01*
X-3994D01*
X-3494Y-105401D01*
X-7993Y-105900D02*
X-6993D01*
X-6493Y-105401D01*
Y-104401D01*
X-6993Y-103901D01*
X-7993D01*
X-8493Y-104401D01*
Y-104901D01*
X-6493D01*
X-9492Y-103901D02*
Y-105900D01*
Y-104901D01*
X-9992Y-104401D01*
X-10492Y-103901D01*
X-10992D01*
X-12991Y-105900D02*
X-13991D01*
X-14491Y-105401D01*
Y-104401D01*
X-13991Y-103901D01*
X-12991D01*
X-12491Y-104401D01*
Y-105401D01*
X-12991Y-105900D01*
X-15490D02*
Y-103901D01*
X-15990D01*
X-16490Y-104401D01*
Y-105900D01*
Y-104401D01*
X-16990Y-103901D01*
X-17490Y-104401D01*
Y-105900D01*
X-19989D02*
X-18989D01*
X-18489Y-105401D01*
Y-104401D01*
X-18989Y-103901D01*
X-19989D01*
X-20489Y-104401D01*
Y-104901D01*
X-18489D01*
M02*
