M48
;Layer_Color=9474304
;FILE_FORMAT=2:4
INCH,TZ
;TYPE=PLATED
T1F00S00C0.0236
T2F00S00C0.0276
%
T01
X9400Y-6070
X-2590Y-8130
X-9420Y-4650
X-7980Y4290
T02
X6740Y-11810
X7740Y-11820
Y-7883
X6740Y-7873
X9850Y-7580
X10350
X10850
X11350
X5690Y-7873
Y-11810
X0Y-11770
Y-11270
Y-12270
Y-12770
X-5860Y-11780
X-6910Y-11767
X-7960Y-11780
Y-7843
X-6910Y-7830
X-5860Y-7843
X-9850Y-7580
X-10350
X-10850
X-11350
X-11280Y7320
X-10780
X-10280
X-9780
X-30Y11270
Y11770
Y12270
Y12770
X5630Y8990
Y5053
X6680Y5040
X7730Y5053
Y8990
X6680Y8977
X9850Y7460
X10350
X10850
X11350
M30
