G04*
G04 #@! TF.GenerationSoftware,Altium Limited,Altium Designer,21.0.8 (223)*
G04*
G04 Layer_Physical_Order=2*
G04 Layer_Color=16711680*
%FSLAX25Y25*%
%MOIN*%
G70*
G04*
G04 #@! TF.SameCoordinates,7D5CD3C5-D8CC-49FF-9A51-A3FBF932E8B6*
G04*
G04*
G04 #@! TF.FilePolarity,Positive*
G04*
G01*
G75*
%ADD26C,0.01500*%
%ADD29C,0.03937*%
%ADD30C,0.03543*%
%ADD31C,0.05000*%
D26*
X-94200Y-46500D02*
X-70900Y-69800D01*
X84900D02*
X94000Y-60700D01*
X-70900Y-69800D02*
X84900D01*
X98500Y-90287D02*
Y74600D01*
X83200Y89900D02*
X98500Y74600D01*
X113700Y-92000D02*
Y74800D01*
X103500Y-75247D02*
X104600Y-74147D01*
X103500Y74047D02*
X104600Y72947D01*
X108400Y-75700D02*
X108500Y-75800D01*
X108400Y-75700D02*
Y74500D01*
X103500Y-75800D02*
Y-75247D01*
Y74047D02*
Y74600D01*
X108400Y74500D02*
X108500Y74600D01*
X104600Y-74147D02*
Y72947D01*
X-69500Y-109800D02*
X-55200D01*
X-47300Y-117700D02*
X0D01*
X-55200Y-109800D02*
X-47300Y-117700D01*
X-98500Y-75800D02*
X-68000Y-106300D01*
X-54543D02*
X-48143Y-112700D01*
X0D01*
X-68000Y-106300D02*
X-54543D01*
X-70500Y-113800D02*
X-55600D01*
X-45600Y-123800D01*
X-108500Y-75800D02*
X-70500Y-113800D01*
X-103500Y-75800D02*
X-69500Y-109800D01*
X-45600Y-123800D02*
X46100D01*
X-58665Y-117735D02*
X-58600Y-117800D01*
X-48800Y-127600D02*
X78100D01*
X-69100Y-117670D02*
X-69035Y-117735D01*
X-58665D01*
X108500Y-93000D02*
Y-75800D01*
X103754Y-91846D02*
Y-75800D01*
X60400Y117700D02*
X103500Y74600D01*
X-300Y117700D02*
X60400D01*
Y122700D02*
X108500Y74600D01*
X60400Y127700D02*
X113500Y74600D01*
X-300Y127700D02*
X60400D01*
X-300Y122700D02*
X60400D01*
X56300Y89900D02*
X56300D01*
X-300Y112700D02*
X33500D01*
X56300Y89900D01*
X56300D02*
X56365Y89835D01*
X0Y-117700D02*
X45828D01*
X77300Y89900D02*
X83200D01*
X77700Y-123800D02*
X108500Y-93000D01*
X0Y-112700D02*
X76087D01*
X98500Y-90287D01*
X77400Y-118200D02*
X103754Y-91846D01*
X78100Y-127600D02*
X113700Y-92000D01*
X-79600Y-117800D02*
Y-109700D01*
X-113500Y-75800D02*
X-79600Y-109700D01*
X-79535Y-117735D02*
X-69165D01*
X-113500Y-75800D02*
Y-75800D01*
X45828Y-117700D02*
X46228Y-118100D01*
X56900D01*
X46100Y-123800D02*
X46100Y-123800D01*
X-58600Y-117800D02*
X-48800Y-127600D01*
X-98150Y72850D02*
X-97800Y73200D01*
X-98500Y-75800D02*
X-98150Y-75450D01*
Y72850D01*
X-103500Y-75800D02*
X-103150Y-75450D01*
Y72850D02*
X-102800Y73200D01*
X-103150Y-75450D02*
Y72850D01*
X-108150Y-75450D02*
Y72850D01*
X-107800Y73200D02*
X-58300Y122700D01*
X-108500Y-75800D02*
X-108150Y-75450D01*
Y72850D02*
X-107800Y73200D01*
X-113150Y-75450D02*
Y72850D01*
X-112800Y73200D01*
X-113500Y-75800D02*
X-113150Y-75450D01*
X-112800Y73200D02*
X-58300Y127700D01*
X-102800Y73200D02*
X-58300Y117700D01*
Y112700D02*
X-300D01*
X-58300Y127700D02*
X-300D01*
X-97800Y73200D02*
X-58300Y112700D01*
Y122700D02*
X-300D01*
X-58300Y117700D02*
X-300D01*
X66865Y89835D02*
X77235D01*
X77300Y89900D01*
X66800Y89770D02*
X66865Y89835D01*
X56365D02*
X66735D01*
X66800Y89770D01*
X46100Y-123800D02*
X77700D01*
X67450Y-118150D02*
X77350D01*
X67400Y-118100D02*
X67450Y-118150D01*
X77350D02*
X77400Y-118200D01*
X56900Y-118100D02*
X67400D01*
X-79600Y-117800D02*
X-79535Y-117735D01*
X-69165D02*
X-69100Y-117670D01*
D29*
X56300Y89900D02*
D03*
Y50530D02*
D03*
X-58600Y-78430D02*
D03*
Y-117800D02*
D03*
X-69100Y-78300D02*
D03*
Y-117670D02*
D03*
X-79600Y-78430D02*
D03*
Y-117800D02*
D03*
X77400Y-78830D02*
D03*
Y-118200D02*
D03*
X77300Y50530D02*
D03*
Y89900D02*
D03*
X66800Y50400D02*
D03*
Y89770D02*
D03*
X56900Y-78730D02*
D03*
Y-118100D02*
D03*
X67400Y-78730D02*
D03*
Y-118100D02*
D03*
D30*
X98500Y-75800D02*
D03*
X113500D02*
D03*
X108500D02*
D03*
X103500D02*
D03*
X0Y-112700D02*
D03*
Y-127700D02*
D03*
Y-122700D02*
D03*
Y-117700D02*
D03*
X-300Y112700D02*
D03*
Y127700D02*
D03*
Y122700D02*
D03*
Y117700D02*
D03*
X-98500Y-75800D02*
D03*
X-113500D02*
D03*
X-108500D02*
D03*
X-103500D02*
D03*
X-97800Y73200D02*
D03*
X-112800D02*
D03*
X-107800D02*
D03*
X-102800D02*
D03*
X98500Y74600D02*
D03*
X113500D02*
D03*
X108500D02*
D03*
X103500D02*
D03*
D31*
X94000Y-60700D02*
D03*
X-79800Y42900D02*
D03*
X-25900Y-81300D02*
D03*
X-94200Y-46500D02*
D03*
M02*
