M48
;Layer_Color=9474304
;FILE_FORMAT=2:4
INCH,TZ
;TYPE=PLATED
T1F00S00C0.0120
T3F00S00C0.0200
T4F00S00C0.0394
T5F00S00C0.0433
T6F00S00C0.0728
%
T01
X26750Y450
X27400
X28050
X28700
X29350
X30650
X31300
X31950
X32600
X32925Y1100
X32600Y1750
X31950
X31300
X31625Y2400
X32275
X32925
X30325
X29675
X29025
X28700Y1750
X28375Y1100
X27725
X27075
X26425
X27400Y1750
X17325Y2400
X11475
X9525
X4975
X4650Y1750
X4975Y1100
X5625
X4325
X750Y450
X2050Y3050
X750Y5650
Y17350
X1400
X2050
X2700
X3350
X4000
X4650
X5300
X5950
X6600
X7250
X7900
X8550
X9200
X9850
X10500
X11150
X11800
X12450
X13100
X13750
X14400
X15050
X15700
X16350
X17000
X17650
X14725Y16700
X14075
X11475
X10175
Y6300
X10825
X11475
X12125
X12775
X13425
X14075
X14725
X15375
X16025
X16675
X17325
X17650Y5650
X17000
X16350
X15700
X15050
X14400
X13750
X13100
X12450
X11800
X11150
X10500
X9850
X8550
X8875Y6300
X8550Y6950
X7250
X7575Y6300
X6925
X4975
X5300Y6950
Y5650
X4975Y5000
X4650Y4350
X4975Y3700
X4650Y3050
X4000
X3350
X6600
X8550
X9200
X9850
X10500
X11150
X11800
X12450
X13100
X13750
X14400
X15050
X15700
X16350
X17000
X17650
X17325Y5000
X16350Y6950
X14400
X13750
X13100
X11800
X11475Y5000
Y3700
X12125
X10825
X10175
X9525
X14400Y4350
X3675Y6300
X4000Y6950
X18300
X18950
X19600
X19925Y6300
X20575
X20900Y5650
X20250
X19600
X18950
X18300
X18625Y6300
X19275
Y7600
X21225
X21875
X22200Y6950
X21550
Y8250
X20900
X21225Y8900
X20900Y9550
X21225Y10200
X20575
X19925
X19275
Y11500
X19925
X20575
X21225
X21875
X22525
X22200Y12150
X21550
X20900
X20250
X19600
X18950
X19275Y12800
X19925
X20575
X21225
X21875
X22525
X23825
X24475
X25125
X24800Y13450
X24150
X23500
X23825Y14100
X24475
X24800Y14750
X24150
X23500
X23825Y15400
X24475
X25125
X24800Y16050
X24150
X23500
X23825Y16700
X24475
X25125
X25775
X26425
X27075
X27725
X28375
X29025
X29675
X30325
X30975
X31625
X32275
X32925
X32600Y17350
X31950
X31300
X30650
X30000
X29350
X28700
X28050
X27400
X26750
X26100
X25450
X24800
X24150
X23500
X22850
X22200
X21550
X20900
X20250
X19600
X18950
X18300
X18625Y16700
X19275
X19925
X20575
X22525
X23175
Y15400
Y14100
X23500Y12150
X24150
X24800
X25125Y11500
X24475
X23825
X26425
X27075
X27725
X27400Y12150
X26750
X26100
X26425Y12800
X27075
X27725
X28375
X28700Y13450
X28050
X28375Y14100
X29025
X29675
X30000Y14750
X29350
X28700
X28050
X27400
X26750
X26100
X26425Y15400
X27075
X26750Y16050
X28700
X29350
X30000
X30650
X30325Y15400
X29675
X29025
X28375
X26425Y14100
X26750Y13450
X26100
Y10850
X26750
X27400
X27725Y10200
X28375
X29025
X29675
X30325
X30650Y9550
X30000
X29350
X28700
X29025Y8900
X29675
X29350Y8250
X28700
X29025Y7600
X29675
X30000Y6950
X29350
X28700
X29025Y6300
X29675
X30000Y5650
X29350
X28700
X29025Y5000
X29675
X30325
X31300Y5650
X30975Y6300
X32275Y5000
X32600Y3050
X30650
X30000
X29350
X28700
Y4350
X27400
X27075Y5000
X27400Y5650
X26750
X27075Y6300
X25450Y5650
X25775Y5000
X24800Y6950
X25125Y7600
X26100Y8250
X26425Y8900
X26100Y9550
X26425Y10200
X27075
X27400Y9550
X24800
X23175Y8900
X21550Y10850
X20900
Y13450
X20250
X19600
X18950
X17975Y6300
X18625Y5000
X19275
X19925
X20575
X19600Y3050
X18950
X18300
X32925Y10200
X32600Y10850
X32925Y11500
X32275
X32600Y12150
X32925Y12800
X32275
X32600Y13450
X32925Y14100
X32600Y14750
X32925Y15400
X32600Y16050
X30975Y12800
T03
X19350Y1600
X22246Y1540
X22700Y1050
X23053Y2385
X24900Y2300
X26450Y2200
X25700Y650
X25237Y697
X30171Y429
X29596Y1638
X7444Y1636
X6938Y1588
X6338Y1584
X2800Y1500
X2278
X1550
X1250Y2950
X1850Y3550
X1600Y4950
Y5550
X500Y16700
X2086Y16675
X2550Y16700
X4450
X5250Y16650
X7050Y16700
X7499Y16674
X9350Y16650
X7250Y14050
Y9950
X11750
Y13850
X16450
Y10200
X8900Y5050
X8450
X6450Y5000
X5950Y5300
X4100Y5600
X3600Y4950
X5900Y3050
X6785Y3622
X2350Y9950
Y14000
X21996Y16655
X22650Y10850
X23155
X23521Y8470
X23550Y6217
X22350Y5500
X22050Y5099
X21603Y5153
X23150Y3250
X23650Y2900
X24550Y2950
Y3500
X24243Y4000
X24691Y4202
X25171Y4097
X25150Y3000
X26388Y3288
X26405Y3738
X26450Y2650
T04
X27000Y7200
Y8200
X28000
Y9200
X27000
X28000Y7200
X30400Y8000
Y9000
T05
X25666Y13966
X27634
Y15934
X25666
T06
X31550Y12050
Y13900
Y15750
M30
