G04*
G04 #@! TF.GenerationSoftware,Altium Limited,Altium Designer,21.0.8 (223)*
G04*
G04 Layer_Color=32896*
%FSLAX25Y25*%
%MOIN*%
G70*
G04*
G04 #@! TF.SameCoordinates,C5FB228B-B928-4E51-BBFA-540A54714D63*
G04*
G04*
G04 #@! TF.FilePolarity,Positive*
G04*
G01*
G75*
%ADD12C,0.01000*%
D12*
X143000Y120000D02*
Y125998D01*
X139001Y120000D01*
Y125998D01*
X134003D02*
X136002D01*
X137002Y124998D01*
Y121000D01*
X136002Y120000D01*
X134003D01*
X133003Y121000D01*
Y124998D01*
X134003Y125998D01*
X131004D02*
X127005D01*
X129005D01*
Y120000D01*
X121007Y125998D02*
X125006D01*
Y120000D01*
X121007D01*
X125006Y122999D02*
X123006D01*
X119008Y123999D02*
X118008D01*
Y122999D01*
X119008D01*
Y123999D01*
Y121000D02*
X118008D01*
Y120000D01*
X119008D01*
Y121000D01*
X108011Y120000D02*
Y123999D01*
X106012Y125998D01*
X104013Y123999D01*
Y120000D01*
Y122999D01*
X108011D01*
X102013Y125998D02*
Y120000D01*
X98014D01*
X96015Y125998D02*
X92017D01*
X94016D01*
Y120000D01*
X90017Y125998D02*
X88018D01*
X89017D01*
Y120000D01*
X90017D01*
X88018D01*
X85019Y125998D02*
X81020D01*
X83019D01*
Y120000D01*
X79021Y125998D02*
Y121000D01*
X78021Y120000D01*
X76022D01*
X75022Y121000D01*
Y125998D01*
X73023D02*
Y120000D01*
X70024D01*
X69024Y121000D01*
Y124998D01*
X70024Y125998D01*
X73023D01*
X63026D02*
X67025D01*
Y120000D01*
X63026D01*
X67025Y122999D02*
X65025D01*
X55028Y125998D02*
X53029D01*
X54029D01*
Y120000D01*
X55028D01*
X53029D01*
X50030D02*
Y125998D01*
X46031Y120000D01*
Y125998D01*
X34035D02*
X38034D01*
Y122999D01*
X36035D01*
X38034D01*
Y120000D01*
X32036Y125998D02*
X28037D01*
X30037D01*
Y120000D01*
M02*
