G04*
G04 #@! TF.GenerationSoftware,Altium Limited,Altium Designer,21.0.8 (223)*
G04*
G04 Layer_Color=32768*
%FSLAX25Y25*%
%MOIN*%
G70*
G04*
G04 #@! TF.SameCoordinates,C5FB228B-B928-4E51-BBFA-540A54714D63*
G04*
G04*
G04 #@! TF.FilePolarity,Positive*
G04*
G01*
G75*
%ADD84C,0.00197*%
D84*
X220331Y55169D02*
X261669D01*
Y13831D02*
Y55169D01*
X220331Y13831D02*
X261669D01*
X220331D02*
Y55169D01*
X287500Y109130D02*
Y112870D01*
X285630Y111000D02*
X289370D01*
X237480Y57500D02*
X241220D01*
X239350Y55630D02*
Y59370D01*
X236350Y9130D02*
Y12870D01*
X234480Y11000D02*
X238221D01*
X287500Y120630D02*
Y124370D01*
X285630Y122500D02*
X289370D01*
X285630Y117000D02*
X289370D01*
X287500Y115130D02*
Y118870D01*
X313130Y47000D02*
X316870D01*
X315000Y45130D02*
Y48870D01*
X314886Y63189D02*
X340870D01*
Y96260D01*
X314886D02*
X340870D01*
X314886Y63189D02*
Y96260D01*
X3028Y17638D02*
Y46850D01*
X43972Y17638D02*
Y46850D01*
X3028Y17638D02*
X43972D01*
X3028Y46850D02*
X43972D01*
X51528Y18138D02*
Y47350D01*
X92472Y18138D02*
Y47350D01*
X51528Y18138D02*
X92472D01*
X51528Y47350D02*
X92472D01*
X224185Y97315D02*
X244815D01*
Y76685D02*
Y97315D01*
X224185Y76685D02*
X244815D01*
X224185D02*
Y97315D01*
X144224Y83583D02*
Y156417D01*
X184776D01*
Y83583D02*
Y156417D01*
X144224Y83583D02*
X184776D01*
X97224D02*
Y156417D01*
X137776D01*
Y83583D02*
Y156417D01*
X97224Y83583D02*
X137776D01*
X51992D02*
Y156417D01*
X92543D01*
Y83583D02*
Y156417D01*
X51992Y83583D02*
X92543D01*
X3224D02*
Y156417D01*
X43776D01*
Y83583D02*
Y156417D01*
X3224Y83583D02*
X43776D01*
X105253Y14011D02*
Y29759D01*
Y14011D02*
X124544D01*
Y29759D01*
X105253D02*
X124544D01*
X105253Y38498D02*
Y54246D01*
Y38498D02*
X124544D01*
Y54246D01*
X105253D02*
X124544D01*
X135036Y14011D02*
Y29759D01*
Y14011D02*
X154328D01*
Y29759D01*
X135036D02*
X154328D01*
X135036Y38498D02*
Y54246D01*
Y38498D02*
X154328D01*
Y54246D01*
X135036D02*
X154328D01*
X164560Y14011D02*
Y29759D01*
Y14011D02*
X183851D01*
Y29759D01*
X164560D02*
X183851D01*
X164560Y38498D02*
Y54246D01*
Y38498D02*
X183851D01*
Y54246D01*
X164560D02*
X183851D01*
X189170Y111843D02*
X204918D01*
X189170Y92551D02*
Y111843D01*
Y92551D02*
X204918D01*
Y111843D01*
X233720Y97866D02*
Y111134D01*
X241280Y97866D02*
Y111134D01*
X233720D02*
X241280D01*
X233720Y97866D02*
X241280D01*
X242220D02*
Y111134D01*
X249780Y97866D02*
Y111134D01*
X242220D02*
X249780D01*
X242220Y97866D02*
X249780D01*
X232000Y71630D02*
Y75370D01*
X230130Y73500D02*
X233870D01*
X247130Y86000D02*
X250870D01*
X249000Y84130D02*
Y87870D01*
X191630Y144150D02*
X195370D01*
X193500Y142280D02*
Y146020D01*
X191630Y156500D02*
X195370D01*
X193500Y154630D02*
Y158370D01*
M02*
