G04*
G04 #@! TF.GenerationSoftware,Altium Limited,Altium Designer,21.0.8 (223)*
G04*
G04 Layer_Physical_Order=4*
G04 Layer_Color=16711680*
%FSLAX25Y25*%
%MOIN*%
G70*
G04*
G04 #@! TF.SameCoordinates,C5FB228B-B928-4E51-BBFA-540A54714D63*
G04*
G04*
G04 #@! TF.FilePolarity,Positive*
G04*
G01*
G75*
%ADD12C,0.01000*%
%ADD66C,0.05118*%
%ADD67C,0.10925*%
%ADD68O,0.07087X0.03543*%
%ADD69C,0.06457*%
%ADD70C,0.02400*%
%ADD71C,0.04000*%
G36*
X330000Y178218D02*
X330514D01*
X331522Y178017D01*
X332472Y177624D01*
X333326Y177053D01*
X334053Y176326D01*
X334624Y175472D01*
X335017Y174522D01*
X335218Y173514D01*
Y173000D01*
X335218Y6000D01*
Y5486D01*
X335017Y4478D01*
X334624Y3528D01*
X334053Y2674D01*
X333326Y1947D01*
X332472Y1376D01*
X331522Y982D01*
X330505Y780D01*
X329967Y768D01*
X329938Y761D01*
X329907Y764D01*
X329785Y727D01*
X329765Y722D01*
X5570D01*
X4562Y923D01*
X3613Y1316D01*
X2758Y1887D01*
X2031Y2614D01*
X1460Y3469D01*
X1067Y4419D01*
X866Y5427D01*
Y5941D01*
Y173000D01*
Y173514D01*
X1067Y174522D01*
X1460Y175472D01*
X2031Y176326D01*
X2758Y177053D01*
X3613Y177624D01*
X4562Y178017D01*
X5570Y178218D01*
X6084Y178218D01*
X330000Y178218D01*
D02*
G37*
%LPC*%
G36*
X44997Y169500D02*
X44003D01*
X43084Y169119D01*
X42381Y168416D01*
X42000Y167497D01*
Y166505D01*
X41994Y166499D01*
X41575Y166223D01*
X40149Y167649D01*
X39851Y167848D01*
X39500Y167918D01*
X27826D01*
X27619Y168416D01*
X26916Y169119D01*
X25997Y169500D01*
X25003D01*
X24084Y169119D01*
X23381Y168416D01*
X23378Y168409D01*
X22807Y168337D01*
X22276Y168868D01*
X21357Y169249D01*
X20362D01*
X19444Y168868D01*
X18740Y168165D01*
X18360Y167246D01*
Y166252D01*
X18566Y165753D01*
X13407Y160594D01*
X12866Y160760D01*
X12848Y160851D01*
X12649Y161149D01*
X7440Y166358D01*
X7500Y166503D01*
Y167497D01*
X7119Y168416D01*
X6416Y169119D01*
X5497Y169500D01*
X4503D01*
X3584Y169119D01*
X2881Y168416D01*
X2500Y167497D01*
Y166503D01*
X2881Y165584D01*
X3584Y164881D01*
X4503Y164500D01*
X5497D01*
X6349Y164853D01*
X11082Y160120D01*
Y53000D01*
X11152Y52649D01*
X11351Y52351D01*
X13560Y50142D01*
X13500Y49997D01*
Y49003D01*
X13881Y48084D01*
X14584Y47381D01*
X15503Y47000D01*
X16497D01*
X17416Y47381D01*
X18119Y48084D01*
X18500Y49003D01*
Y49997D01*
X18119Y50916D01*
X17416Y51619D01*
X16497Y52000D01*
X15503D01*
X14651Y51647D01*
X12918Y53380D01*
Y56631D01*
X13380Y56823D01*
X13706Y56496D01*
X13500Y55997D01*
Y55003D01*
X13881Y54084D01*
X14584Y53381D01*
X15503Y53000D01*
X16497D01*
X17416Y53381D01*
X18119Y54084D01*
X18500Y55003D01*
Y55997D01*
X18119Y56916D01*
X17416Y57619D01*
X16497Y58000D01*
X15503D01*
X15004Y57793D01*
X14418Y58380D01*
Y159009D01*
X19864Y164455D01*
X20362Y164249D01*
X21357D01*
X22276Y164629D01*
X22979Y165333D01*
X22982Y165340D01*
X23553Y165412D01*
X24084Y164881D01*
X25003Y164500D01*
X25997D01*
X26916Y164881D01*
X27619Y165584D01*
X27826Y166082D01*
X39120D01*
X42582Y162620D01*
Y58880D01*
X41996Y58293D01*
X41497Y58500D01*
X40503D01*
X39584Y58119D01*
X38881Y57416D01*
X38500Y56497D01*
Y55503D01*
X38881Y54584D01*
X39584Y53881D01*
X40503Y53500D01*
X41497D01*
X42416Y53881D01*
X43119Y54584D01*
X43500Y55503D01*
Y56497D01*
X43293Y56996D01*
X43620Y57323D01*
X44082Y57131D01*
Y50466D01*
X44034Y50418D01*
X38326D01*
X38119Y50916D01*
X37416Y51619D01*
X36497Y52000D01*
X35503D01*
X34584Y51619D01*
X33881Y50916D01*
X33500Y49997D01*
Y49003D01*
X33881Y48084D01*
X34584Y47381D01*
X35503Y47000D01*
X36497D01*
X37416Y47381D01*
X38119Y48084D01*
X38326Y48582D01*
X44414D01*
X44765Y48652D01*
X45063Y48851D01*
X45649Y49437D01*
X45848Y49735D01*
X45918Y50086D01*
Y164882D01*
X46619Y165584D01*
X47000Y166503D01*
Y167497D01*
X46619Y168416D01*
X45916Y169119D01*
X44997Y169500D01*
D02*
G37*
G36*
X70997D02*
X70003D01*
X69084Y169119D01*
X68381Y168416D01*
X68174Y167918D01*
X64000D01*
X63649Y167848D01*
X63351Y167649D01*
X57880Y162177D01*
X57418Y162369D01*
Y162500D01*
X57348Y162851D01*
X57149Y163149D01*
X54794Y165504D01*
X55000Y166003D01*
Y166997D01*
X54619Y167916D01*
X53916Y168619D01*
X52997Y169000D01*
X52003D01*
X51084Y168619D01*
X50381Y167916D01*
X50000Y166997D01*
Y166003D01*
X50381Y165084D01*
X51084Y164381D01*
X52003Y164000D01*
X52997D01*
X53496Y164207D01*
X55582Y162120D01*
Y51757D01*
X55652Y51406D01*
X55851Y51108D01*
X57608Y49351D01*
X57906Y49152D01*
X58257Y49082D01*
X62174D01*
X62381Y48584D01*
X63084Y47881D01*
X64003Y47500D01*
X64997D01*
X65916Y47881D01*
X66619Y48584D01*
X67000Y49503D01*
Y50497D01*
X66619Y51416D01*
X65916Y52119D01*
X64997Y52500D01*
X64003D01*
X63084Y52119D01*
X62381Y51416D01*
X62174Y50918D01*
X61607D01*
X61415Y51380D01*
X61619Y51584D01*
X62000Y52503D01*
Y53497D01*
X61619Y54416D01*
X60916Y55119D01*
X59997Y55500D01*
X59003D01*
X58918Y55962D01*
Y160620D01*
X64380Y166082D01*
X68174D01*
X68381Y165584D01*
X69084Y164881D01*
X70003Y164500D01*
X70997D01*
X71916Y164881D01*
X72339Y165304D01*
X72873Y165321D01*
X73576Y164618D01*
X74495Y164237D01*
X75490D01*
X76408Y164618D01*
X77112Y165321D01*
X77318Y165820D01*
X85382D01*
X91082Y160120D01*
Y53880D01*
X89996Y52794D01*
X89497Y53000D01*
X88503D01*
X87584Y52619D01*
X87077Y52112D01*
X86750Y51972D01*
X86423Y52112D01*
X85916Y52619D01*
X84997Y53000D01*
X84003D01*
X83084Y52619D01*
X82381Y51916D01*
X82000Y50997D01*
Y50003D01*
X82381Y49084D01*
X83084Y48381D01*
X84003Y48000D01*
X84997D01*
X85496Y48206D01*
X86851Y46851D01*
X87149Y46652D01*
X87500Y46582D01*
X91561D01*
X91912Y46652D01*
X92210Y46851D01*
X94072Y48714D01*
X94271Y49011D01*
X94341Y49362D01*
Y164142D01*
X94916Y164381D01*
X95619Y165084D01*
X96000Y166003D01*
Y166997D01*
X95619Y167916D01*
X94916Y168619D01*
X93997Y169000D01*
X93003D01*
X92084Y168619D01*
X91381Y167916D01*
X91000Y166997D01*
Y166003D01*
X91381Y165084D01*
X92084Y164381D01*
X92506Y164206D01*
Y161945D01*
X92044Y161754D01*
X86411Y167386D01*
X86114Y167585D01*
X85763Y167655D01*
X77318D01*
X77112Y168154D01*
X76408Y168857D01*
X75490Y169237D01*
X74495D01*
X73576Y168857D01*
X73153Y168434D01*
X72619Y168416D01*
X71916Y169119D01*
X70997Y169500D01*
D02*
G37*
G36*
X276820Y162971D02*
X275865D01*
X274942Y162724D01*
X274115Y162246D01*
X273439Y161570D01*
X272961Y160743D01*
X272714Y159820D01*
Y158865D01*
X272961Y157942D01*
X273439Y157115D01*
X274115Y156439D01*
X274942Y155961D01*
X275865Y155714D01*
X276820D01*
X277743Y155961D01*
X278570Y156439D01*
X279246Y157115D01*
X279724Y157942D01*
X279971Y158865D01*
Y159820D01*
X279724Y160743D01*
X279246Y161570D01*
X278570Y162246D01*
X277743Y162724D01*
X276820Y162971D01*
D02*
G37*
G36*
X257135D02*
X256180D01*
X255257Y162724D01*
X254430Y162246D01*
X253754Y161570D01*
X253276Y160743D01*
X253029Y159820D01*
Y158865D01*
X253276Y157942D01*
X253754Y157115D01*
X254430Y156439D01*
X255257Y155961D01*
X256180Y155714D01*
X257135D01*
X258058Y155961D01*
X258885Y156439D01*
X259561Y157115D01*
X260039Y157942D01*
X260286Y158865D01*
Y159820D01*
X260039Y160743D01*
X259561Y161570D01*
X258885Y162246D01*
X258058Y162724D01*
X257135Y162971D01*
D02*
G37*
G36*
X316077Y163366D02*
X314923D01*
X313790Y163141D01*
X312723Y162699D01*
X311763Y162058D01*
X310946Y161241D01*
X310305Y160281D01*
X309863Y159214D01*
X309637Y158081D01*
Y156927D01*
X309863Y155794D01*
X310305Y154727D01*
X310946Y153767D01*
X311763Y152950D01*
X312723Y152309D01*
X313790Y151867D01*
X314923Y151641D01*
X316077D01*
X317210Y151867D01*
X318277Y152309D01*
X319237Y152950D01*
X320054Y153767D01*
X320695Y154727D01*
X321137Y155794D01*
X321363Y156927D01*
Y158081D01*
X321137Y159214D01*
X320695Y160281D01*
X320054Y161241D01*
X319237Y162058D01*
X318277Y162699D01*
X317210Y163141D01*
X316077Y163366D01*
D02*
G37*
G36*
X72997Y143000D02*
X72003D01*
X71084Y142619D01*
X70381Y141916D01*
X70000Y140997D01*
Y140003D01*
X70381Y139084D01*
X71084Y138381D01*
X72003Y138000D01*
X72997D01*
X73916Y138381D01*
X74619Y139084D01*
X75000Y140003D01*
Y140997D01*
X74619Y141916D01*
X73916Y142619D01*
X72997Y143000D01*
D02*
G37*
G36*
X23997Y142500D02*
X23003D01*
X22084Y142119D01*
X21381Y141416D01*
X21000Y140497D01*
Y139503D01*
X21381Y138584D01*
X22084Y137881D01*
X23003Y137500D01*
X23997D01*
X24916Y137881D01*
X25619Y138584D01*
X26000Y139503D01*
Y140497D01*
X25619Y141416D01*
X24916Y142119D01*
X23997Y142500D01*
D02*
G37*
G36*
X276820Y143286D02*
X275865D01*
X274942Y143039D01*
X274115Y142561D01*
X273439Y141885D01*
X272961Y141058D01*
X272714Y140135D01*
Y139180D01*
X272961Y138257D01*
X273439Y137430D01*
X274115Y136754D01*
X274942Y136276D01*
X275865Y136029D01*
X276820D01*
X277743Y136276D01*
X278570Y136754D01*
X279246Y137430D01*
X279724Y138257D01*
X279971Y139180D01*
Y140135D01*
X279724Y141058D01*
X279246Y141885D01*
X278570Y142561D01*
X277743Y143039D01*
X276820Y143286D01*
D02*
G37*
G36*
X257135D02*
X256180D01*
X255257Y143039D01*
X254430Y142561D01*
X253754Y141885D01*
X253276Y141058D01*
X253029Y140135D01*
Y139180D01*
X253276Y138257D01*
X253754Y137430D01*
X254430Y136754D01*
X255257Y136276D01*
X256180Y136029D01*
X257135D01*
X258058Y136276D01*
X258885Y136754D01*
X259561Y137430D01*
X260039Y138257D01*
X260286Y139180D01*
Y140135D01*
X260039Y141058D01*
X259561Y141885D01*
X258885Y142561D01*
X258058Y143039D01*
X257135Y143286D01*
D02*
G37*
G36*
X164997Y141000D02*
X164003D01*
X163084Y140619D01*
X162381Y139916D01*
X162000Y138997D01*
Y138003D01*
X162381Y137084D01*
X163084Y136381D01*
X164003Y136000D01*
X164997D01*
X165916Y136381D01*
X166619Y137084D01*
X167000Y138003D01*
Y138997D01*
X166619Y139916D01*
X165916Y140619D01*
X164997Y141000D01*
D02*
G37*
G36*
X117997D02*
X117003D01*
X116084Y140619D01*
X115381Y139916D01*
X115000Y138997D01*
Y138003D01*
X115381Y137084D01*
X116084Y136381D01*
X117003Y136000D01*
X117997D01*
X118916Y136381D01*
X119619Y137084D01*
X120000Y138003D01*
Y138997D01*
X119619Y139916D01*
X118916Y140619D01*
X117997Y141000D01*
D02*
G37*
G36*
X316077Y144863D02*
X314923D01*
X313790Y144637D01*
X312723Y144195D01*
X311763Y143554D01*
X310946Y142737D01*
X310305Y141777D01*
X309863Y140710D01*
X309637Y139577D01*
Y138423D01*
X309863Y137290D01*
X310305Y136223D01*
X310946Y135263D01*
X311763Y134446D01*
X312723Y133805D01*
X313790Y133363D01*
X314923Y133137D01*
X316077D01*
X317210Y133363D01*
X318277Y133805D01*
X319237Y134446D01*
X320054Y135263D01*
X320695Y136223D01*
X321137Y137290D01*
X321363Y138423D01*
Y139577D01*
X321137Y140710D01*
X320695Y141777D01*
X320054Y142737D01*
X319237Y143554D01*
X318277Y144195D01*
X317210Y144637D01*
X316077Y144863D01*
D02*
G37*
G36*
Y126359D02*
X314923D01*
X313790Y126133D01*
X312723Y125691D01*
X311763Y125050D01*
X310946Y124233D01*
X310305Y123273D01*
X309863Y122206D01*
X309637Y121073D01*
Y119919D01*
X309863Y118786D01*
X310305Y117719D01*
X310946Y116759D01*
X311763Y115942D01*
X312723Y115301D01*
X313790Y114859D01*
X314923Y114634D01*
X316077D01*
X317210Y114859D01*
X318277Y115301D01*
X319237Y115942D01*
X320054Y116759D01*
X320695Y117719D01*
X321137Y118786D01*
X321363Y119919D01*
Y121073D01*
X321137Y122206D01*
X320695Y123273D01*
X320054Y124233D01*
X319237Y125050D01*
X318277Y125691D01*
X317210Y126133D01*
X316077Y126359D01*
D02*
G37*
G36*
X164997Y104500D02*
X164003D01*
X163084Y104119D01*
X162381Y103416D01*
X162000Y102497D01*
Y101503D01*
X162381Y100584D01*
X163084Y99881D01*
X164003Y99500D01*
X164997D01*
X165916Y99881D01*
X166619Y100584D01*
X167000Y101503D01*
Y102497D01*
X166619Y103416D01*
X165916Y104119D01*
X164997Y104500D01*
D02*
G37*
G36*
X117997Y102000D02*
X117003D01*
X116084Y101619D01*
X115381Y100916D01*
X115000Y99997D01*
Y99003D01*
X115381Y98084D01*
X116084Y97381D01*
X117003Y97000D01*
X117997D01*
X118916Y97381D01*
X119619Y98084D01*
X120000Y99003D01*
Y99997D01*
X119619Y100916D01*
X118916Y101619D01*
X117997Y102000D01*
D02*
G37*
G36*
X72997D02*
X72003D01*
X71084Y101619D01*
X70381Y100916D01*
X70000Y99997D01*
Y99003D01*
X70381Y98084D01*
X71084Y97381D01*
X72003Y97000D01*
X72997D01*
X73916Y97381D01*
X74619Y98084D01*
X75000Y99003D01*
Y99997D01*
X74619Y100916D01*
X73916Y101619D01*
X72997Y102000D01*
D02*
G37*
G36*
X23997D02*
X23003D01*
X22084Y101619D01*
X21381Y100916D01*
X21000Y99997D01*
Y99003D01*
X21381Y98084D01*
X22084Y97381D01*
X23003Y97000D01*
X23997D01*
X24916Y97381D01*
X25619Y98084D01*
X26000Y99003D01*
Y99997D01*
X25619Y100916D01*
X24916Y101619D01*
X23997Y102000D01*
D02*
G37*
G36*
X330833Y94931D02*
X329261D01*
Y92917D01*
X333007D01*
X332878Y93564D01*
X332398Y94282D01*
X331680Y94762D01*
X330833Y94931D01*
D02*
G37*
G36*
X328861D02*
X327289D01*
X326442Y94762D01*
X325724Y94282D01*
X325244Y93564D01*
X325115Y92917D01*
X328861D01*
Y94931D01*
D02*
G37*
G36*
X270390Y94959D02*
X270200D01*
Y92200D01*
X272959D01*
Y92390D01*
X272757Y93142D01*
X272368Y93817D01*
X271817Y94368D01*
X271142Y94757D01*
X270390Y94959D01*
D02*
G37*
G36*
X269800D02*
X269610D01*
X268858Y94757D01*
X268183Y94368D01*
X267632Y93817D01*
X267243Y93142D01*
X267041Y92390D01*
Y92200D01*
X269800D01*
Y94959D01*
D02*
G37*
G36*
X333007Y92516D02*
X329261D01*
Y90502D01*
X330833D01*
X331680Y90671D01*
X332398Y91151D01*
X332878Y91869D01*
X333007Y92516D01*
D02*
G37*
G36*
X328861D02*
X325115D01*
X325244Y91869D01*
X325724Y91151D01*
X326442Y90671D01*
X327289Y90502D01*
X328861D01*
Y92516D01*
D02*
G37*
G36*
X304390Y92959D02*
X304200D01*
Y90200D01*
X306959D01*
Y90390D01*
X306757Y91142D01*
X306368Y91817D01*
X305817Y92368D01*
X305142Y92757D01*
X304390Y92959D01*
D02*
G37*
G36*
X303800D02*
X303610D01*
X302858Y92757D01*
X302183Y92368D01*
X301632Y91817D01*
X301243Y91142D01*
X301041Y90390D01*
Y90200D01*
X303800D01*
Y92959D01*
D02*
G37*
G36*
X220460Y169055D02*
X219465D01*
X218546Y168674D01*
X217843Y167971D01*
X217463Y167052D01*
Y166058D01*
X217843Y165139D01*
X218546Y164435D01*
X219465Y164055D01*
X220460D01*
X220958Y164261D01*
X227630Y157590D01*
Y111739D01*
X226890Y111000D01*
X226003D01*
X225084Y110619D01*
X224381Y109916D01*
X224000Y108997D01*
Y108003D01*
X224381Y107084D01*
X225084Y106381D01*
X226003Y106000D01*
X226997D01*
X227496Y106207D01*
X239582Y94120D01*
Y56417D01*
X239652Y56066D01*
X239851Y55768D01*
X247755Y47865D01*
X247508Y47404D01*
X247440Y47418D01*
X227380D01*
X224418Y50380D01*
Y52674D01*
X224916Y52881D01*
X225619Y53584D01*
X226000Y54503D01*
Y55497D01*
X225619Y56416D01*
X224916Y57119D01*
X223997Y57500D01*
X223003D01*
X222084Y57119D01*
X221381Y56416D01*
X221000Y55497D01*
Y54503D01*
X221237Y53931D01*
X221149Y53769D01*
X220879Y53489D01*
X220003D01*
X219084Y53108D01*
X218761Y52786D01*
X218172Y52903D01*
X218152Y52949D01*
X217449Y53652D01*
X216530Y54033D01*
X215536D01*
X214617Y53652D01*
X213918Y52953D01*
X213894Y52953D01*
X213418Y53058D01*
Y53842D01*
X221423Y61848D01*
X233000D01*
Y61668D01*
X233381Y60749D01*
X234084Y60046D01*
X235003Y59665D01*
X235997D01*
X236916Y60046D01*
X237619Y60749D01*
X238000Y61668D01*
Y62663D01*
X237619Y63582D01*
X236916Y64285D01*
X235997Y64665D01*
X235003D01*
X234084Y64285D01*
X233471Y63672D01*
X233414Y63683D01*
X221043D01*
X220692Y63613D01*
X220394Y63414D01*
X211851Y54871D01*
X211652Y54574D01*
X211582Y54223D01*
Y24380D01*
X204120Y16918D01*
X195826D01*
X195619Y17416D01*
X194916Y18119D01*
X193997Y18500D01*
X193003D01*
X192084Y18119D01*
X191381Y17416D01*
X191000Y16497D01*
Y16344D01*
X190426D01*
X190075Y16274D01*
X189777Y16075D01*
X189120Y15418D01*
X77287D01*
X76940Y15862D01*
Y16857D01*
X76559Y17776D01*
X75856Y18479D01*
X74937Y18859D01*
X73943D01*
X73024Y18479D01*
X72321Y17776D01*
X72080Y17196D01*
X71539D01*
X71498Y17295D01*
X70795Y17998D01*
X69876Y18379D01*
X68881D01*
X67962Y17998D01*
X67758Y17794D01*
X67296Y17985D01*
Y23121D01*
X67226Y23472D01*
X67027Y23770D01*
X61294Y29504D01*
X61500Y30003D01*
Y30997D01*
X61119Y31916D01*
X60416Y32619D01*
X59497Y33000D01*
X58503D01*
X57584Y32619D01*
X56881Y31916D01*
X56500Y30997D01*
Y30003D01*
X56881Y29084D01*
X57584Y28381D01*
X58503Y28000D01*
X59497D01*
X59996Y28207D01*
X65461Y22741D01*
Y17947D01*
X64999Y17756D01*
X64795Y17960D01*
X63876Y18341D01*
X62881D01*
X61962Y17960D01*
X61259Y17257D01*
X60879Y16338D01*
Y15344D01*
X61259Y14425D01*
X61962Y13722D01*
X62881Y13341D01*
X63876D01*
X64244Y13493D01*
X68386Y9351D01*
X68684Y9152D01*
X69035Y9082D01*
X221257D01*
X221608Y9152D01*
X221906Y9351D01*
X224821Y12266D01*
X224948Y12351D01*
X231177Y18580D01*
X231376Y18878D01*
X231446Y19229D01*
Y21524D01*
X231945Y21731D01*
X232648Y22434D01*
X232854Y22933D01*
X238608D01*
X238959Y23003D01*
X239257Y23201D01*
X241637Y25582D01*
X247395D01*
X247529Y25254D01*
X247547Y25082D01*
X246881Y24416D01*
X246500Y23497D01*
Y22503D01*
X246707Y22004D01*
X232620Y7918D01*
X36380D01*
X30294Y14004D01*
X30500Y14503D01*
Y15497D01*
X30119Y16416D01*
X29416Y17119D01*
X28497Y17500D01*
X27503D01*
X26584Y17119D01*
X25881Y16416D01*
X25660Y15883D01*
X25118D01*
X24898Y16416D01*
X24194Y17119D01*
X23276Y17500D01*
X22281D01*
X21362Y17119D01*
X21158Y16915D01*
X20696Y17107D01*
Y26222D01*
X20626Y26573D01*
X20427Y26871D01*
X17149Y30149D01*
X16851Y30348D01*
X16500Y30418D01*
X14826D01*
X14619Y30916D01*
X13916Y31619D01*
X12997Y32000D01*
X12003D01*
X11084Y31619D01*
X10381Y30916D01*
X10000Y29997D01*
Y29003D01*
X10381Y28084D01*
X11084Y27381D01*
X12003Y27000D01*
X12997D01*
X13916Y27381D01*
X14619Y28084D01*
X14826Y28582D01*
X16120D01*
X18861Y25842D01*
Y12402D01*
X18361Y12195D01*
X17612Y12944D01*
X17598Y13563D01*
X17619Y13584D01*
X18000Y14503D01*
Y15497D01*
X17619Y16416D01*
X16916Y17119D01*
X15997Y17500D01*
X15003D01*
X14084Y17119D01*
X13381Y16416D01*
X13000Y15497D01*
Y14503D01*
X13381Y13584D01*
X14084Y12881D01*
X15003Y12500D01*
X15634D01*
X15652Y12406D01*
X15851Y12109D01*
X25809Y2151D01*
X26106Y1952D01*
X26457Y1882D01*
X248198D01*
X248550Y1952D01*
X248847Y2151D01*
X251372Y4676D01*
X251871Y4470D01*
X252865D01*
X253784Y4850D01*
X254245Y5311D01*
X254835Y5194D01*
X254881Y5084D01*
X255584Y4381D01*
X256503Y4000D01*
X257497D01*
X258416Y4381D01*
X259119Y5084D01*
X259500Y6003D01*
Y6997D01*
X259119Y7916D01*
X258416Y8619D01*
X258012Y8787D01*
Y9620D01*
X282649Y34257D01*
X282848Y34555D01*
X282918Y34906D01*
Y37120D01*
X284108Y38310D01*
X284307Y38608D01*
X284377Y38959D01*
Y73997D01*
X284307Y74348D01*
X284108Y74646D01*
X280918Y77836D01*
Y79182D01*
X281142Y79243D01*
X281817Y79632D01*
X282368Y80183D01*
X282757Y80858D01*
X282959Y81610D01*
Y82390D01*
X282757Y83142D01*
X282368Y83817D01*
X281817Y84368D01*
X281142Y84757D01*
X280390Y84959D01*
X279610D01*
X278858Y84757D01*
X278183Y84368D01*
X277632Y83817D01*
X277243Y83142D01*
X277041Y82390D01*
Y81610D01*
X277243Y80858D01*
X277632Y80183D01*
X278183Y79632D01*
X278858Y79243D01*
X279082Y79182D01*
Y77456D01*
X279152Y77105D01*
X279351Y76807D01*
X280788Y75370D01*
X280530Y74922D01*
X280390Y74959D01*
X279610D01*
X278858Y74757D01*
X278183Y74368D01*
X277632Y73817D01*
X277243Y73142D01*
X277041Y72390D01*
Y71610D01*
X277243Y70858D01*
X277632Y70183D01*
X278183Y69632D01*
X278858Y69243D01*
X279082Y69182D01*
Y39400D01*
X268145Y28463D01*
X268077D01*
X266391Y30149D01*
X266094Y30348D01*
X265743Y30418D01*
X265660D01*
X265453Y30918D01*
X265998Y31462D01*
X266379Y32381D01*
Y33376D01*
X265998Y34295D01*
X265546Y34747D01*
X265474Y35229D01*
X265580Y35366D01*
X266173Y35959D01*
X266553Y36878D01*
Y37873D01*
X266173Y38791D01*
X265470Y39495D01*
X264682Y39821D01*
Y80276D01*
X266541Y82135D01*
X267041Y81928D01*
Y81610D01*
X267243Y80858D01*
X267632Y80183D01*
X268183Y79632D01*
X268858Y79243D01*
X269610Y79041D01*
X270390D01*
X271142Y79243D01*
X271817Y79632D01*
X272368Y80183D01*
X272757Y80858D01*
X272959Y81610D01*
Y82390D01*
X272757Y83142D01*
X272368Y83817D01*
X271817Y84368D01*
X271142Y84757D01*
X270390Y84959D01*
X270072D01*
X269865Y85459D01*
X270811Y86405D01*
X275322D01*
X275674Y86475D01*
X275971Y86674D01*
X278657Y89359D01*
X278858Y89243D01*
X279610Y89041D01*
X280390D01*
X281142Y89243D01*
X281817Y89632D01*
X282368Y90183D01*
X282757Y90858D01*
X282959Y91610D01*
Y92390D01*
X282757Y93142D01*
X282368Y93817D01*
X281817Y94368D01*
X281142Y94757D01*
X280390Y94959D01*
X279610D01*
X278858Y94757D01*
X278183Y94368D01*
X277632Y93817D01*
X277243Y93142D01*
X277041Y92390D01*
Y91610D01*
X277243Y90858D01*
X277359Y90657D01*
X274942Y88240D01*
X270431D01*
X270079Y88170D01*
X269782Y87971D01*
X263115Y81305D01*
X262916Y81007D01*
X262846Y80656D01*
Y39581D01*
X262637Y39495D01*
X261934Y38791D01*
X261554Y37873D01*
Y37451D01*
X261053Y37244D01*
X257026Y41271D01*
Y42788D01*
X256956Y43140D01*
X256757Y43437D01*
X242918Y57277D01*
Y98047D01*
X242848Y98398D01*
X242649Y98696D01*
X233841Y107504D01*
X234047Y108003D01*
Y108997D01*
X233667Y109916D01*
X232963Y110619D01*
X232045Y111000D01*
X231050D01*
X230131Y110619D01*
X229428Y109916D01*
X229294Y109594D01*
X228753D01*
X228619Y109916D01*
X228511Y110025D01*
X229196Y110710D01*
X229395Y111008D01*
X229465Y111359D01*
Y157970D01*
X229395Y158321D01*
X229196Y158619D01*
X222256Y165559D01*
X222463Y166058D01*
Y167052D01*
X222082Y167971D01*
X221379Y168674D01*
X220460Y169055D01*
D02*
G37*
G36*
X272959Y91800D02*
X270200D01*
Y89041D01*
X270390D01*
X271142Y89243D01*
X271817Y89632D01*
X272368Y90183D01*
X272757Y90858D01*
X272959Y91610D01*
Y91800D01*
D02*
G37*
G36*
X269800D02*
X267041D01*
Y91610D01*
X267243Y90858D01*
X267632Y90183D01*
X268183Y89632D01*
X268858Y89243D01*
X269610Y89041D01*
X269800D01*
Y91800D01*
D02*
G37*
G36*
X306959Y89800D02*
X304200D01*
Y87041D01*
X304390D01*
X305142Y87243D01*
X305817Y87632D01*
X306368Y88183D01*
X306757Y88858D01*
X306959Y89610D01*
Y89800D01*
D02*
G37*
G36*
X303800D02*
X301041D01*
Y89610D01*
X301243Y88858D01*
X301632Y88183D01*
X302183Y87632D01*
X302858Y87243D01*
X303610Y87041D01*
X303800D01*
Y89800D01*
D02*
G37*
G36*
X235710Y87199D02*
X234716D01*
X233797Y86819D01*
X233094Y86115D01*
X232713Y85197D01*
Y84202D01*
X233094Y83283D01*
X233797Y82580D01*
X234716Y82199D01*
X235710D01*
X236629Y82580D01*
X237332Y83283D01*
X237713Y84202D01*
Y85197D01*
X237332Y86115D01*
X236629Y86819D01*
X235710Y87199D01*
D02*
G37*
G36*
X304390Y82959D02*
X303610D01*
X302858Y82757D01*
X302183Y82368D01*
X301632Y81817D01*
X301243Y81142D01*
X301041Y80390D01*
Y79610D01*
X301243Y78858D01*
X301632Y78183D01*
X302183Y77632D01*
X302858Y77243D01*
X303610Y77041D01*
X304390D01*
X305142Y77243D01*
X305817Y77632D01*
X306368Y78183D01*
X306757Y78858D01*
X306959Y79610D01*
Y80390D01*
X306757Y81142D01*
X306368Y81817D01*
X305817Y82368D01*
X305142Y82757D01*
X304390Y82959D01*
D02*
G37*
G36*
X270390Y74959D02*
X269610D01*
X268858Y74757D01*
X268183Y74368D01*
X267632Y73817D01*
X267243Y73142D01*
X267041Y72390D01*
Y71610D01*
X267243Y70858D01*
X267632Y70183D01*
X268183Y69632D01*
X268858Y69243D01*
X269610Y69041D01*
X270390D01*
X271142Y69243D01*
X271817Y69632D01*
X272368Y70183D01*
X272757Y70858D01*
X272959Y71610D01*
Y72390D01*
X272757Y73142D01*
X272368Y73817D01*
X271817Y74368D01*
X271142Y74757D01*
X270390Y74959D01*
D02*
G37*
G36*
X330833Y68946D02*
X329261D01*
Y66932D01*
X333007D01*
X332878Y67580D01*
X332398Y68298D01*
X331680Y68778D01*
X330833Y68946D01*
D02*
G37*
G36*
X328861D02*
X327289D01*
X326442Y68778D01*
X325724Y68298D01*
X325244Y67580D01*
X325115Y66932D01*
X328861D01*
Y68946D01*
D02*
G37*
G36*
X333007Y66532D02*
X329261D01*
Y64518D01*
X330833D01*
X331680Y64687D01*
X332398Y65167D01*
X332878Y65885D01*
X333007Y66532D01*
D02*
G37*
G36*
X328861D02*
X325115D01*
X325244Y65885D01*
X325724Y65167D01*
X326442Y64687D01*
X327289Y64518D01*
X328861D01*
Y66532D01*
D02*
G37*
G36*
X68344Y38717D02*
X67350D01*
X66431Y38337D01*
X65728Y37634D01*
X65347Y36715D01*
Y35720D01*
X65728Y34801D01*
X66431Y34098D01*
X67350Y33718D01*
X68344D01*
X69263Y34098D01*
X69966Y34801D01*
X70347Y35720D01*
Y36715D01*
X69966Y37634D01*
X69263Y38337D01*
X68344Y38717D01*
D02*
G37*
G36*
X18997Y38000D02*
X18003D01*
X17084Y37619D01*
X16381Y36916D01*
X16000Y35997D01*
Y35003D01*
X16381Y34084D01*
X17084Y33381D01*
X18003Y33000D01*
X18997D01*
X19916Y33381D01*
X20619Y34084D01*
X21000Y35003D01*
Y35997D01*
X20619Y36916D01*
X19916Y37619D01*
X18997Y38000D01*
D02*
G37*
G36*
X296461Y18883D02*
X295466D01*
X294547Y18502D01*
X293844Y17799D01*
X293463Y16880D01*
Y15885D01*
X293844Y14966D01*
X294547Y14263D01*
X295466Y13883D01*
X296461D01*
X296959Y14089D01*
X300790Y10258D01*
Y6618D01*
X300291Y6412D01*
X299588Y5709D01*
X299207Y4790D01*
Y3795D01*
X299588Y2876D01*
X300291Y2173D01*
X301210Y1792D01*
X302205D01*
X303124Y2173D01*
X303827Y2876D01*
X304207Y3795D01*
Y4790D01*
X303827Y5709D01*
X303124Y6412D01*
X302625Y6618D01*
Y10639D01*
X302555Y10990D01*
X302356Y11287D01*
X298257Y15387D01*
X298463Y15885D01*
Y16880D01*
X298083Y17799D01*
X297379Y18502D01*
X296461Y18883D01*
D02*
G37*
%LPD*%
G36*
X58456Y55339D02*
X58790Y55051D01*
X58855Y55007D01*
X58912Y54975D01*
X58962Y54954D01*
X59005Y54945D01*
X59039Y54946D01*
X57907Y54210D01*
X57925Y54242D01*
X57933Y54278D01*
X57931Y54319D01*
X57920Y54365D01*
X57899Y54415D01*
X57868Y54469D01*
X57827Y54528D01*
X57776Y54592D01*
X57716Y54660D01*
X57647Y54732D01*
X58354Y55439D01*
X58456Y55339D01*
D02*
G37*
G36*
X244728Y44112D02*
X244868Y44014D01*
X245018Y43935D01*
X245177Y43876D01*
X245344Y43837D01*
X245521Y43816D01*
X245706Y43816D01*
X245901Y43834D01*
X246104Y43872D01*
X246317Y43930D01*
X244988Y41465D01*
X244910Y41726D01*
X244661Y42405D01*
X244574Y42598D01*
X244394Y42931D01*
X244301Y43072D01*
X244206Y43196D01*
X244109Y43302D01*
X244596Y44230D01*
X244728Y44112D01*
D02*
G37*
G36*
X240329Y42171D02*
X240469Y42073D01*
X240620Y41993D01*
X240780Y41931D01*
X240951Y41887D01*
X241131Y41861D01*
X241321Y41853D01*
X241522Y41864D01*
X241732Y41892D01*
X241953Y41939D01*
X240482Y39556D01*
X240419Y39815D01*
X240206Y40493D01*
X240127Y40687D01*
X239955Y41024D01*
X239862Y41168D01*
X239766Y41296D01*
X239665Y41407D01*
X240198Y42288D01*
X240329Y42171D01*
D02*
G37*
G36*
X252009Y32971D02*
X252036Y32804D01*
X252081Y32636D01*
X252144Y32467D01*
X252225Y32296D01*
X252324Y32125D01*
X252441Y31953D01*
X252576Y31779D01*
X252729Y31604D01*
X252900Y31428D01*
X250100D01*
X250271Y31604D01*
X250559Y31953D01*
X250676Y32125D01*
X250775Y32296D01*
X250856Y32467D01*
X250919Y32636D01*
X250964Y32804D01*
X250991Y32971D01*
X251000Y33136D01*
X252000D01*
X252009Y32971D01*
D02*
G37*
G36*
X246729Y33396D02*
X246441Y33048D01*
X246324Y32875D01*
X246225Y32704D01*
X246144Y32533D01*
X246081Y32364D01*
X246050Y32250D01*
X246081Y32136D01*
X246144Y31967D01*
X246225Y31796D01*
X246324Y31625D01*
X246441Y31453D01*
X246576Y31279D01*
X246729Y31104D01*
X246900Y30928D01*
X244100D01*
X244271Y31104D01*
X244559Y31453D01*
X244676Y31625D01*
X244775Y31796D01*
X244856Y31967D01*
X244919Y32136D01*
X244950Y32250D01*
X244919Y32364D01*
X244856Y32533D01*
X244775Y32704D01*
X244676Y32875D01*
X244559Y33048D01*
X244424Y33221D01*
X244271Y33396D01*
X244100Y33572D01*
X246900D01*
X246729Y33396D01*
D02*
G37*
G36*
X231480Y30500D02*
X231235Y30497D01*
X230785Y30454D01*
X230580Y30415D01*
X230389Y30364D01*
X230211Y30300D01*
X230047Y30225D01*
X229896Y30138D01*
X229759Y30040D01*
X229636Y29929D01*
X228929Y30636D01*
X229040Y30759D01*
X229138Y30896D01*
X229225Y31047D01*
X229300Y31211D01*
X229363Y31389D01*
X229415Y31580D01*
X229454Y31785D01*
X229481Y32003D01*
X229497Y32235D01*
X229500Y32480D01*
X231480Y30500D01*
D02*
G37*
G36*
X262767Y25501D02*
X262649Y25691D01*
X262524Y25861D01*
X262393Y26011D01*
X262256Y26141D01*
X262113Y26250D01*
X261963Y26340D01*
X261807Y26410D01*
X261644Y26460D01*
X261475Y26490D01*
X261300Y26500D01*
X261568Y27500D01*
X261716Y27507D01*
X261874Y27529D01*
X262040Y27564D01*
X262216Y27614D01*
X262402Y27678D01*
X262800Y27849D01*
X263013Y27956D01*
X263467Y28213D01*
X262767Y25501D01*
D02*
G37*
G36*
X264127Y20035D02*
X263899Y20071D01*
X263683Y20090D01*
X263478Y20092D01*
X263283Y20078D01*
X263100Y20046D01*
X262927Y19998D01*
X262765Y19933D01*
X262614Y19851D01*
X262474Y19753D01*
X262345Y19637D01*
X261769Y20476D01*
X261873Y20591D01*
X261971Y20722D01*
X262062Y20868D01*
X262147Y21030D01*
X262226Y21208D01*
X262299Y21402D01*
X262426Y21836D01*
X262480Y22077D01*
X262528Y22334D01*
X264127Y20035D01*
D02*
G37*
G36*
X76376Y15823D02*
X76376Y15725D01*
X76390Y15625D01*
X76418Y15522D01*
X76460Y15417D01*
X76516Y15310D01*
X76586Y15199D01*
X76670Y15087D01*
X76767Y14971D01*
X76879Y14854D01*
X76172Y14146D01*
X76066Y14247D01*
X75961Y14333D01*
X75858Y14404D01*
X75756Y14462D01*
X75657Y14505D01*
X75559Y14533D01*
X75463Y14548D01*
X75369Y14547D01*
X75277Y14533D01*
X75187Y14504D01*
X76391Y15919D01*
X76376Y15823D01*
D02*
G37*
G36*
X71382Y15613D02*
X71425Y15163D01*
X71464Y14959D01*
X71515Y14767D01*
X71578Y14590D01*
X71653Y14426D01*
X71740Y14275D01*
X71839Y14138D01*
X71950Y14014D01*
X71243Y13307D01*
X71119Y13418D01*
X70982Y13517D01*
X70832Y13604D01*
X70667Y13679D01*
X70490Y13742D01*
X70299Y13793D01*
X70094Y13833D01*
X69876Y13860D01*
X69644Y13875D01*
X69399Y13879D01*
X71379Y15859D01*
X71382Y15613D01*
D02*
G37*
G36*
X222945Y13460D02*
X222838Y13425D01*
X222742Y13380D01*
X222658Y13323D01*
X222584Y13254D01*
X222522Y13175D01*
X222472Y13083D01*
X222432Y12981D01*
X222404Y12867D01*
X222387Y12741D01*
X222382Y12604D01*
X221382D01*
X221378Y12800D01*
X221346Y13157D01*
X221318Y13318D01*
X221281Y13468D01*
X221237Y13607D01*
X221185Y13734D01*
X221125Y13850D01*
X221057Y13955D01*
X220981Y14048D01*
X222945Y13460D01*
D02*
G37*
G36*
X24007Y13396D02*
X23719Y13047D01*
X23602Y12875D01*
X23503Y12704D01*
X23422Y12533D01*
X23359Y12364D01*
X23314Y12196D01*
X23287Y12029D01*
X23278Y11863D01*
X22278D01*
X22269Y12029D01*
X22242Y12196D01*
X22197Y12364D01*
X22134Y12533D01*
X22053Y12704D01*
X21954Y12875D01*
X21837Y13047D01*
X21702Y13221D01*
X21549Y13396D01*
X21378Y13572D01*
X24178D01*
X24007Y13396D01*
D02*
G37*
D12*
X233440Y62739D02*
X234926D01*
X221043Y62765D02*
X233414D01*
X233440Y62739D01*
X234926D02*
X235500Y62165D01*
X212500Y54223D02*
X221043Y62765D01*
X212500Y24000D02*
Y54223D01*
X204500Y16000D02*
X212500Y24000D01*
X193500Y16000D02*
X204500D01*
X192926Y15426D02*
X193500Y16000D01*
X216033Y51213D02*
X219257Y47989D01*
X220909D01*
X216033Y51213D02*
Y51533D01*
X36000Y7000D02*
X233000D01*
X16500Y12757D02*
X26457Y2800D01*
X224300Y13000D02*
X230528Y19229D01*
X233000Y7000D02*
X249000Y23000D01*
X69615Y11400D02*
X220677D01*
X230528Y19229D02*
Y23850D01*
X69035Y10000D02*
X221257D01*
X239100Y5600D02*
X260500Y27000D01*
X22778Y11222D02*
X28400Y5600D01*
X239100D01*
X19778Y11722D02*
X27300Y4200D01*
X26457Y2800D02*
X248198D01*
X221882Y12604D02*
Y14825D01*
X221257Y10000D02*
X224257Y13000D01*
X224300D01*
X28000Y15000D02*
X36000Y7000D01*
X248198Y2800D02*
X252368Y6970D01*
X221882Y14825D02*
X222456Y15399D01*
X27300Y4200D02*
X245356D01*
X220677Y11400D02*
X221882Y12604D01*
X245356Y4200D02*
X251125Y9970D01*
X22778Y11222D02*
Y15000D01*
X241257Y26500D02*
X258020D01*
X230528Y23850D02*
X238608D01*
X241257Y26500D01*
X258020D02*
X261020Y29500D01*
X245500D02*
Y35000D01*
X222119Y23120D02*
X231500Y32500D01*
X222119Y21806D02*
Y23120D01*
X213313Y13000D02*
X222119Y21806D01*
X257094Y6594D02*
Y10000D01*
X282000Y34906D01*
Y37500D01*
X257000Y6500D02*
X257094Y6594D01*
X251970Y9970D02*
X264000Y22000D01*
X264500D01*
X251125Y9970D02*
X251970D01*
X268526Y27546D02*
X280000Y39020D01*
X282000Y37500D02*
X283459Y38959D01*
Y73997D01*
X280000Y77456D02*
X283459Y73997D01*
X280000Y77456D02*
Y82000D01*
Y39020D02*
Y72000D01*
X72257Y13000D02*
X213313D01*
X263764Y37665D02*
Y80656D01*
Y37665D02*
X264054Y37375D01*
X301708Y4293D02*
Y10639D01*
X295963Y16383D02*
X301708Y10639D01*
X256109Y40891D02*
X263879Y33121D01*
Y32879D02*
Y33121D01*
X247440Y46500D02*
X250500Y43440D01*
X223500Y50000D02*
X227000Y46500D01*
X247440D01*
X240500Y56417D02*
X254709Y42209D01*
X240500Y56417D02*
Y94500D01*
X242000Y56897D02*
X256109Y42788D01*
X242000Y56897D02*
Y98047D01*
X252086Y37966D02*
X252951D01*
X251500Y30000D02*
Y37380D01*
X252086Y37966D01*
X252951D02*
X254709Y39723D01*
Y42209D01*
X256109Y40891D02*
Y42788D01*
X250500Y42987D02*
Y43440D01*
X241782Y39997D02*
X242433D01*
X251709Y40966D02*
Y41778D01*
X250500Y42987D02*
X251709Y41778D01*
X246098Y42020D02*
X246910D01*
X244211Y43907D02*
X246098Y42020D01*
X239279Y42500D02*
X241782Y39997D01*
X261020Y29500D02*
X265743D01*
X267697Y27546D01*
X268526D01*
X260500Y27000D02*
X264000D01*
X264500Y26500D01*
X226398Y42500D02*
X239279D01*
X227582Y43907D02*
X244211D01*
X223500Y50000D02*
Y55000D01*
X220500Y50989D02*
X227582Y43907D01*
X220909Y47989D02*
X226398Y42500D01*
X69379Y15879D02*
X72257Y13000D01*
X226500Y108500D02*
X240500Y94500D01*
X189500Y14500D02*
X190426Y15426D01*
X192926D01*
X76526Y14500D02*
X189500D01*
X66379Y14636D02*
X69615Y11400D01*
X63379Y15656D02*
X69035Y10000D01*
X74666Y16360D02*
X76526Y14500D01*
X74440Y16360D02*
X74666D01*
X66379Y14636D02*
Y23121D01*
X59000Y30500D02*
X66379Y23121D01*
X231547Y108500D02*
X242000Y98047D01*
X263764Y80656D02*
X270431Y87322D01*
X275322D02*
X280000Y92000D01*
X270431Y87322D02*
X275322D01*
X19778Y11722D02*
Y26222D01*
X226500Y109312D02*
X228547Y111359D01*
Y157970D01*
X226500Y108500D02*
Y109312D01*
X219963Y166555D02*
X228547Y157970D01*
X16500Y29500D02*
X19778Y26222D01*
X15500Y14188D02*
Y15000D01*
X16500Y12757D02*
Y13188D01*
X15500Y14188D02*
X16500Y13188D01*
X92000Y53500D02*
Y160500D01*
X84500Y50500D02*
X87500Y47500D01*
X89000Y50500D02*
X92000Y53500D01*
X12500Y29500D02*
X16500D01*
X63379Y15656D02*
Y15841D01*
X85763Y166737D02*
X92000Y160500D01*
X74992Y166737D02*
X85763D01*
X58000Y161000D02*
X64000Y167000D01*
X58000Y55086D02*
Y161000D01*
X64000Y167000D02*
X70500D01*
X58000Y55086D02*
X59500Y53586D01*
Y53000D02*
Y53586D01*
X56500Y51757D02*
Y162500D01*
X52500Y166500D02*
X56500Y162500D01*
Y51757D02*
X58257Y50000D01*
X43500Y58500D02*
Y163000D01*
X39500Y167000D02*
X43500Y163000D01*
X25500Y167000D02*
X39500D01*
X41000Y56000D02*
X43500Y58500D01*
X45000Y50086D02*
Y166500D01*
X36000Y49500D02*
X44414D01*
X44500Y167000D02*
X45000Y166500D01*
X44414Y49500D02*
X45000Y50086D01*
X13500Y58000D02*
X16000Y55500D01*
X13500Y159389D02*
X20860Y166749D01*
X13500Y58000D02*
Y159389D01*
X5500Y167000D02*
X12000Y160500D01*
Y53000D02*
X15500Y49500D01*
X12000Y53000D02*
Y160500D01*
X15500Y49500D02*
X16000D01*
X58257Y50000D02*
X64500D01*
X87500Y47500D02*
X91561D01*
X93423Y49362D02*
Y166423D01*
X91561Y47500D02*
X93423Y49362D01*
Y166423D02*
X93500Y166500D01*
X5000Y167000D02*
X5500D01*
D66*
X280000Y82000D02*
D03*
X270000D02*
D03*
X280000Y92000D02*
D03*
X270000D02*
D03*
X304000Y80000D02*
D03*
Y90000D02*
D03*
X270000Y72000D02*
D03*
X280000D02*
D03*
D67*
X315500Y120496D02*
D03*
Y139000D02*
D03*
Y157504D02*
D03*
D68*
X329061Y92716D02*
D03*
Y66732D02*
D03*
D69*
X276343Y159343D02*
D03*
Y139657D02*
D03*
X256658D02*
D03*
Y159343D02*
D03*
D70*
X326000Y173500D02*
D03*
X329250Y167000D02*
D03*
X326000Y160500D02*
D03*
X329250Y154000D02*
D03*
X326000Y147500D02*
D03*
X329250Y141000D02*
D03*
X326000Y134500D02*
D03*
X329250Y128000D02*
D03*
X326000Y121500D02*
D03*
X329250Y115000D02*
D03*
X326000Y108500D02*
D03*
X329250Y102000D02*
D03*
X326000Y30500D02*
D03*
X329250Y24000D02*
D03*
X326000Y17500D02*
D03*
X329250Y11000D02*
D03*
X326000Y4500D02*
D03*
X319500Y173500D02*
D03*
X322750Y167000D02*
D03*
Y128000D02*
D03*
Y115000D02*
D03*
Y50000D02*
D03*
Y24000D02*
D03*
X319500Y17500D02*
D03*
Y4500D02*
D03*
X313000Y173500D02*
D03*
X316250Y167000D02*
D03*
X313000Y56500D02*
D03*
X316250Y24000D02*
D03*
X313000Y17500D02*
D03*
Y4500D02*
D03*
X306500Y173500D02*
D03*
X309750Y167000D02*
D03*
X306500Y160500D02*
D03*
X309750Y128000D02*
D03*
X306500Y95500D02*
D03*
X309750Y63000D02*
D03*
X306500Y30500D02*
D03*
Y4500D02*
D03*
X300000Y173500D02*
D03*
X303250Y167000D02*
D03*
X300000Y160500D02*
D03*
X303250Y154000D02*
D03*
X300000Y147500D02*
D03*
X303250Y102000D02*
D03*
X300000Y95500D02*
D03*
Y69500D02*
D03*
Y56500D02*
D03*
X303250Y50000D02*
D03*
X300000Y30500D02*
D03*
X303250Y24000D02*
D03*
X293500Y173500D02*
D03*
X296750Y167000D02*
D03*
X293500Y160500D02*
D03*
X296750Y154000D02*
D03*
X293500Y147500D02*
D03*
X296750Y141000D02*
D03*
Y102000D02*
D03*
X293500Y95500D02*
D03*
X296750Y89000D02*
D03*
X293500Y82500D02*
D03*
X296750Y76000D02*
D03*
X293500Y69500D02*
D03*
X296750Y63000D02*
D03*
X293500Y56500D02*
D03*
X296750Y50000D02*
D03*
X293500Y30500D02*
D03*
X296750Y24000D02*
D03*
X293500Y4500D02*
D03*
X287000Y173500D02*
D03*
X290250Y167000D02*
D03*
X287000Y160500D02*
D03*
X290250Y154000D02*
D03*
X287000Y147500D02*
D03*
X290250Y141000D02*
D03*
X287000Y134500D02*
D03*
X290250Y102000D02*
D03*
X287000Y95500D02*
D03*
X290250Y89000D02*
D03*
X287000Y82500D02*
D03*
X290250Y76000D02*
D03*
X287000Y69500D02*
D03*
X290250Y63000D02*
D03*
X287000Y56500D02*
D03*
X290250Y50000D02*
D03*
X287000Y43500D02*
D03*
Y30500D02*
D03*
X290250Y24000D02*
D03*
X287000Y17500D02*
D03*
Y4500D02*
D03*
X280500Y173500D02*
D03*
X283750Y167000D02*
D03*
Y154000D02*
D03*
X280500Y147500D02*
D03*
X283750Y141000D02*
D03*
X280500Y134500D02*
D03*
X283750Y128000D02*
D03*
Y102000D02*
D03*
Y11000D02*
D03*
X280500Y4500D02*
D03*
X274000Y173500D02*
D03*
X277250Y167000D02*
D03*
X274000Y147500D02*
D03*
X277250Y128000D02*
D03*
X274000Y121500D02*
D03*
X277250Y115000D02*
D03*
X274000Y108500D02*
D03*
X277250Y102000D02*
D03*
X274000Y95500D02*
D03*
Y56500D02*
D03*
Y43500D02*
D03*
Y17500D02*
D03*
X277250Y11000D02*
D03*
X274000Y4500D02*
D03*
X267500Y173500D02*
D03*
X270750Y167000D02*
D03*
X267500Y160500D02*
D03*
X270750Y154000D02*
D03*
X267500Y147500D02*
D03*
Y134500D02*
D03*
X270750Y128000D02*
D03*
X267500Y121500D02*
D03*
X270750Y115000D02*
D03*
X267500Y108500D02*
D03*
X270750Y102000D02*
D03*
Y63000D02*
D03*
X267500Y56500D02*
D03*
X270750Y50000D02*
D03*
Y11000D02*
D03*
X267500Y4500D02*
D03*
X261000Y173500D02*
D03*
X264250Y167000D02*
D03*
Y154000D02*
D03*
X261000Y147500D02*
D03*
X264250Y141000D02*
D03*
X261000Y134500D02*
D03*
X264250Y128000D02*
D03*
X261000Y121500D02*
D03*
X264250Y115000D02*
D03*
X261000Y108500D02*
D03*
X264250Y102000D02*
D03*
X261000Y95500D02*
D03*
X264250Y89000D02*
D03*
X261000Y82500D02*
D03*
X264250Y11000D02*
D03*
X254500Y173500D02*
D03*
X257750Y167000D02*
D03*
X254500Y56500D02*
D03*
X257750Y50000D02*
D03*
X248000Y173500D02*
D03*
X251250Y167000D02*
D03*
X248000Y160500D02*
D03*
X251250Y154000D02*
D03*
X248000Y147500D02*
D03*
Y134500D02*
D03*
X251250Y128000D02*
D03*
X248000Y121500D02*
D03*
X251250Y115000D02*
D03*
X248000Y95500D02*
D03*
X251250Y76000D02*
D03*
X248000Y69500D02*
D03*
X241500Y173500D02*
D03*
X244750Y167000D02*
D03*
X241500Y160500D02*
D03*
X244750Y154000D02*
D03*
X241500Y147500D02*
D03*
X244750Y141000D02*
D03*
X241500Y134500D02*
D03*
X244750Y128000D02*
D03*
X241500Y121500D02*
D03*
X244750Y115000D02*
D03*
X235000Y173500D02*
D03*
X238250Y167000D02*
D03*
X235000Y160500D02*
D03*
X238250Y154000D02*
D03*
X235000Y147500D02*
D03*
X238250Y141000D02*
D03*
X235000Y134500D02*
D03*
X238250Y128000D02*
D03*
X235000Y121500D02*
D03*
X238250Y115000D02*
D03*
X228500Y173500D02*
D03*
X231750Y167000D02*
D03*
Y154000D02*
D03*
Y141000D02*
D03*
Y89000D02*
D03*
X222000Y173500D02*
D03*
X225250Y167000D02*
D03*
Y128000D02*
D03*
X222000Y121500D02*
D03*
X225250Y115000D02*
D03*
X222000Y69500D02*
D03*
X215500Y173500D02*
D03*
X218750Y128000D02*
D03*
X215500Y121500D02*
D03*
X218750Y115000D02*
D03*
X215500Y108500D02*
D03*
Y82500D02*
D03*
X218750Y76000D02*
D03*
X215500Y69500D02*
D03*
X209000Y173500D02*
D03*
Y134500D02*
D03*
X212250Y128000D02*
D03*
X209000Y121500D02*
D03*
X212250Y115000D02*
D03*
X209000Y108500D02*
D03*
X212250Y102000D02*
D03*
X209000Y95500D02*
D03*
X212250Y89000D02*
D03*
X209000Y82500D02*
D03*
X212250Y76000D02*
D03*
X209000Y56500D02*
D03*
X202500Y173500D02*
D03*
X205750Y167000D02*
D03*
X202500Y134500D02*
D03*
X205750Y128000D02*
D03*
X202500Y121500D02*
D03*
X205750Y115000D02*
D03*
Y102000D02*
D03*
Y63000D02*
D03*
X202500Y56500D02*
D03*
X205750Y50000D02*
D03*
X196000Y173500D02*
D03*
X199250Y167000D02*
D03*
X196000Y134500D02*
D03*
X199250Y128000D02*
D03*
X196000Y121500D02*
D03*
X199250Y115000D02*
D03*
Y102000D02*
D03*
X196000Y69500D02*
D03*
X199250Y63000D02*
D03*
X196000Y56500D02*
D03*
X199250Y50000D02*
D03*
X196000Y30500D02*
D03*
X189500Y173500D02*
D03*
X192750Y167000D02*
D03*
X189500Y134500D02*
D03*
X192750Y128000D02*
D03*
X189500Y121500D02*
D03*
X192750Y115000D02*
D03*
Y102000D02*
D03*
Y76000D02*
D03*
X189500Y69500D02*
D03*
X192750Y63000D02*
D03*
X189500Y56500D02*
D03*
X192750Y50000D02*
D03*
X189500Y30500D02*
D03*
X183000Y173500D02*
D03*
X186250Y167000D02*
D03*
X183000Y69500D02*
D03*
X186250Y63000D02*
D03*
X183000Y56500D02*
D03*
X186250Y50000D02*
D03*
X183000Y30500D02*
D03*
X176500Y173500D02*
D03*
X179750Y63000D02*
D03*
X176500Y56500D02*
D03*
Y30500D02*
D03*
X170000Y173500D02*
D03*
X173250Y63000D02*
D03*
X170000Y56500D02*
D03*
X173250Y50000D02*
D03*
X170000Y30500D02*
D03*
X173250Y24000D02*
D03*
X163500Y173500D02*
D03*
Y69500D02*
D03*
X166750Y63000D02*
D03*
X163500Y56500D02*
D03*
Y30500D02*
D03*
X157000Y173500D02*
D03*
X160250Y63000D02*
D03*
X157000Y56500D02*
D03*
Y30500D02*
D03*
X150500Y173500D02*
D03*
X153750Y63000D02*
D03*
X150500Y56500D02*
D03*
Y30500D02*
D03*
X144000Y173500D02*
D03*
X147250Y167000D02*
D03*
X144000Y69500D02*
D03*
X147250Y63000D02*
D03*
X144000Y56500D02*
D03*
Y43500D02*
D03*
Y30500D02*
D03*
X137500Y173500D02*
D03*
X140750Y167000D02*
D03*
X137500Y69500D02*
D03*
X140750Y63000D02*
D03*
X137500Y56500D02*
D03*
Y30500D02*
D03*
X131000Y173500D02*
D03*
Y69500D02*
D03*
X134250Y63000D02*
D03*
X131000Y56500D02*
D03*
Y30500D02*
D03*
X124500Y173500D02*
D03*
X127750Y63000D02*
D03*
X124500Y56500D02*
D03*
Y30500D02*
D03*
X118000Y173500D02*
D03*
Y69500D02*
D03*
X121250Y63000D02*
D03*
X118000Y56500D02*
D03*
X121250Y37000D02*
D03*
X118000Y30500D02*
D03*
X111500Y173500D02*
D03*
X114750Y167000D02*
D03*
Y63000D02*
D03*
X111500Y56500D02*
D03*
X114750Y50000D02*
D03*
Y37000D02*
D03*
X111500Y30500D02*
D03*
X114750Y24000D02*
D03*
X105000Y173500D02*
D03*
X108250Y63000D02*
D03*
X105000Y56500D02*
D03*
X108250Y37000D02*
D03*
X105000Y30500D02*
D03*
X98500Y173500D02*
D03*
X101750Y167000D02*
D03*
Y63000D02*
D03*
X98500Y56500D02*
D03*
X101750Y37000D02*
D03*
X98500Y30500D02*
D03*
X92000Y173500D02*
D03*
X95250Y37000D02*
D03*
X92000Y30500D02*
D03*
X95250Y24000D02*
D03*
X85500Y173500D02*
D03*
Y69500D02*
D03*
X88750Y63000D02*
D03*
X85500Y56500D02*
D03*
Y30500D02*
D03*
X79000Y173500D02*
D03*
X72500D02*
D03*
Y69500D02*
D03*
X75750Y63000D02*
D03*
X66000Y173500D02*
D03*
X69250Y63000D02*
D03*
X66000Y30500D02*
D03*
X59500Y173500D02*
D03*
X53000D02*
D03*
Y69500D02*
D03*
Y56500D02*
D03*
X56250Y11000D02*
D03*
X46500Y173500D02*
D03*
X49750Y63000D02*
D03*
Y50000D02*
D03*
X46500Y43500D02*
D03*
X49750Y37000D02*
D03*
X46500Y30500D02*
D03*
X49750Y24000D02*
D03*
X46500Y17500D02*
D03*
X49750Y11000D02*
D03*
X40000Y173500D02*
D03*
Y69500D02*
D03*
Y30500D02*
D03*
X43250Y11000D02*
D03*
X33500Y173500D02*
D03*
X36750Y63000D02*
D03*
X33500Y30500D02*
D03*
X27000Y173500D02*
D03*
X20500D02*
D03*
Y30500D02*
D03*
X14000Y173500D02*
D03*
X7500D02*
D03*
Y56500D02*
D03*
Y4500D02*
D03*
D71*
X216033Y51533D02*
D03*
X227000Y10500D02*
D03*
X222456Y15399D02*
D03*
X236500Y29000D02*
D03*
X264054Y37375D02*
D03*
X246910Y42020D02*
D03*
X257000Y6500D02*
D03*
X242433Y39997D02*
D03*
X245500Y35000D02*
D03*
X264500Y22000D02*
D03*
X251500Y30000D02*
D03*
X264500Y26500D02*
D03*
X263879Y32879D02*
D03*
X245500Y29500D02*
D03*
X231500Y32500D02*
D03*
X251709Y40966D02*
D03*
X193500Y16000D02*
D03*
X230528Y23850D02*
D03*
X249000Y23000D02*
D03*
X252368Y6970D02*
D03*
X301708Y4293D02*
D03*
X295963Y16383D02*
D03*
X235500Y62165D02*
D03*
X223500Y55000D02*
D03*
X220500Y50989D02*
D03*
X226500Y108500D02*
D03*
X231547D02*
D03*
X235213Y84699D02*
D03*
X219963Y166555D02*
D03*
X28000Y15000D02*
D03*
X117500Y138500D02*
D03*
X164500D02*
D03*
Y102000D02*
D03*
X18500Y35500D02*
D03*
X22778Y15000D02*
D03*
X16000Y55500D02*
D03*
X36000Y49500D02*
D03*
X15500Y15000D02*
D03*
X41000Y56000D02*
D03*
X16000Y49500D02*
D03*
X12500Y29500D02*
D03*
X59500Y53000D02*
D03*
X67847Y36217D02*
D03*
X84500Y50500D02*
D03*
X64500Y50000D02*
D03*
X74440Y16360D02*
D03*
X59000Y30500D02*
D03*
X63379Y15841D02*
D03*
X89000Y50500D02*
D03*
X69379Y15879D02*
D03*
X72500Y140500D02*
D03*
X23500Y140000D02*
D03*
Y99500D02*
D03*
X72500D02*
D03*
X117500D02*
D03*
X70500Y167000D02*
D03*
X74992Y166737D02*
D03*
X52500Y166500D02*
D03*
X93500D02*
D03*
X5000Y167000D02*
D03*
X20860Y166749D02*
D03*
X25500Y167000D02*
D03*
X44500D02*
D03*
M02*
