G04*
G04 #@! TF.GenerationSoftware,Altium Limited,Altium Designer,21.0.8 (223)*
G04*
G04 Layer_Physical_Order=2*
G04 Layer_Color=32768*
%FSLAX25Y25*%
%MOIN*%
G70*
G04*
G04 #@! TF.SameCoordinates,C5FB228B-B928-4E51-BBFA-540A54714D63*
G04*
G04*
G04 #@! TF.FilePolarity,Negative*
G04*
G01*
G75*
%ADD72C,0.04000*%
%ADD73C,0.04737*%
G04:AMPARAMS|DCode=74|XSize=70.992mil|YSize=70.992mil|CornerRadius=0mil|HoleSize=0mil|Usage=FLASHONLY|Rotation=0.000|XOffset=0mil|YOffset=0mil|HoleType=Round|Shape=Relief|Width=4mil|Gap=4mil|Entries=4|*
%AMTHD74*
7,0,0,0.07099,0.06299,0.00400,45*
%
%ADD74THD74*%
%ADD75C,0.08083*%
%AMTHOVALD76*
21,1,0.02756,0.05131,0,0,180.0*
1,1,0.05131,0.01378,0.00000*
1,1,0.05131,-0.01378,0.00000*
21,0,0.02756,0.04331,0,0,180.0*
1,0,0.04331,0.01378,0.00000*
1,0,0.04331,-0.01378,0.00000*
4,0,4,0.01237,0.00141,0.03050,0.01955,0.03333,0.01673,0.01519,-0.00141,0.01237,0.00141,0.0*
4,0,4,-0.01519,0.00141,-0.03333,-0.01673,-0.03050,-0.01955,-0.01237,-0.00141,-0.01519,0.00141,0.0*
4,0,4,0.01519,0.00141,0.03333,-0.01673,0.03050,-0.01955,0.01237,-0.00141,0.01519,0.00141,0.0*
4,0,4,-0.01237,0.00141,-0.03050,0.01955,-0.03333,0.01673,-0.01519,-0.00141,-0.01237,0.00141,0.0*
%
%ADD76THOVALD76*%

%ADD77C,0.05131*%
%ADD78C,0.02800*%
D72*
X329856Y-80D02*
X330000Y-21D01*
X331046Y71D01*
X332059Y342D01*
X333010Y786D01*
X333870Y1388D01*
X334612Y2130D01*
X335214Y2990D01*
X335658Y3941D01*
X335929Y4955D01*
X336021Y6000D01*
Y173000D02*
X335929Y174046D01*
X335658Y175059D01*
X335214Y176010D01*
X334612Y176870D01*
X333870Y177612D01*
X333010Y178214D01*
X332059Y178658D01*
X331046Y178929D01*
X330000Y179021D01*
X6084Y179021D02*
X5039Y178929D01*
X4025Y178658D01*
X3074Y178214D01*
X2214Y177612D01*
X1472Y176870D01*
X870Y176010D01*
X427Y175059D01*
X155Y174046D01*
X63Y173000D01*
Y5941D02*
X155Y4895D01*
X427Y3881D01*
X870Y2930D01*
X1472Y2070D01*
X2214Y1328D01*
X3074Y726D01*
X4025Y283D01*
X5039Y11D01*
X6084Y-80D01*
X329856D01*
X336021Y6000D02*
Y173000D01*
X6084Y179021D02*
X330000D01*
X6084Y179021D02*
X6084Y179021D01*
X63Y5941D02*
Y173000D01*
D73*
X280000Y82000D02*
D03*
X270000D02*
D03*
X280000Y92000D02*
D03*
X304000Y80000D02*
D03*
X270000Y72000D02*
D03*
X280000D02*
D03*
D74*
X270000Y92000D02*
D03*
X304000Y90000D02*
D03*
D75*
X315500Y120496D02*
D03*
Y139000D02*
D03*
Y157504D02*
D03*
D76*
X329061Y92716D02*
D03*
Y66732D02*
D03*
D77*
X276343Y159343D02*
D03*
Y139657D02*
D03*
X256658D02*
D03*
Y159343D02*
D03*
D78*
X216033Y51533D02*
D03*
X222456Y15399D02*
D03*
X236500Y29000D02*
D03*
X264054Y37375D02*
D03*
X246910Y42020D02*
D03*
X257000Y6500D02*
D03*
X242433Y39997D02*
D03*
X245500Y35000D02*
D03*
X264500Y22000D02*
D03*
X251500Y30000D02*
D03*
X264500Y26500D02*
D03*
X263879Y32879D02*
D03*
X245500Y29500D02*
D03*
X231500Y32500D02*
D03*
X251709Y40966D02*
D03*
X193500Y16000D02*
D03*
X230528Y23850D02*
D03*
X249000Y23000D02*
D03*
X252368Y6970D02*
D03*
X301708Y4293D02*
D03*
X295963Y16383D02*
D03*
X235500Y62165D02*
D03*
X223500Y55000D02*
D03*
X220500Y50989D02*
D03*
X226500Y108500D02*
D03*
X231547D02*
D03*
X235213Y84699D02*
D03*
X219963Y166555D02*
D03*
X28000Y15000D02*
D03*
X117500Y138500D02*
D03*
X164500D02*
D03*
Y102000D02*
D03*
X18500Y35500D02*
D03*
X22778Y15000D02*
D03*
X16000Y55500D02*
D03*
X36000Y49500D02*
D03*
X15500Y15000D02*
D03*
X41000Y56000D02*
D03*
X16000Y49500D02*
D03*
X12500Y29500D02*
D03*
X59500Y53000D02*
D03*
X67847Y36217D02*
D03*
X84500Y50500D02*
D03*
X64500Y50000D02*
D03*
X74440Y16360D02*
D03*
X59000Y30500D02*
D03*
X63379Y15841D02*
D03*
X89000Y50500D02*
D03*
X69379Y15879D02*
D03*
X72500Y140500D02*
D03*
X23500Y140000D02*
D03*
Y99500D02*
D03*
X72500D02*
D03*
X117500D02*
D03*
X70500Y167000D02*
D03*
X74992Y166737D02*
D03*
X52500Y166500D02*
D03*
X93500D02*
D03*
X5000Y167000D02*
D03*
X20860Y166749D02*
D03*
X25500Y167000D02*
D03*
X44500D02*
D03*
M02*
