G04*
G04 #@! TF.GenerationSoftware,Altium Limited,Altium Designer,21.0.8 (223)*
G04*
G04 Layer_Color=8388736*
%FSLAX25Y25*%
%MOIN*%
G70*
G04*
G04 #@! TF.SameCoordinates,C5FB228B-B928-4E51-BBFA-540A54714D63*
G04*
G04*
G04 #@! TF.FilePolarity,Negative*
G04*
G01*
G75*
%ADD18R,0.06890X0.02756*%
%ADD19R,0.02756X0.06890*%
G04:AMPARAMS|DCode=20|XSize=68.9mil|YSize=27.56mil|CornerRadius=8.37mil|HoleSize=0mil|Usage=FLASHONLY|Rotation=270.000|XOffset=0mil|YOffset=0mil|HoleType=Round|Shape=RoundedRectangle|*
%AMROUNDEDRECTD20*
21,1,0.06890,0.01083,0,0,270.0*
21,1,0.05217,0.02756,0,0,270.0*
1,1,0.01673,-0.00541,-0.02608*
1,1,0.01673,-0.00541,0.02608*
1,1,0.01673,0.00541,0.02608*
1,1,0.01673,0.00541,-0.02608*
%
%ADD20ROUNDEDRECTD20*%
G04:AMPARAMS|DCode=21|XSize=45.28mil|YSize=45.28mil|CornerRadius=6.89mil|HoleSize=0mil|Usage=FLASHONLY|Rotation=90.000|XOffset=0mil|YOffset=0mil|HoleType=Round|Shape=RoundedRectangle|*
%AMROUNDEDRECTD21*
21,1,0.04528,0.03150,0,0,90.0*
21,1,0.03150,0.04528,0,0,90.0*
1,1,0.01378,0.01575,0.01575*
1,1,0.01378,0.01575,-0.01575*
1,1,0.01378,-0.01575,-0.01575*
1,1,0.01378,-0.01575,0.01575*
%
%ADD21ROUNDEDRECTD21*%
G04:AMPARAMS|DCode=22|XSize=45.28mil|YSize=45.28mil|CornerRadius=6.89mil|HoleSize=0mil|Usage=FLASHONLY|Rotation=180.000|XOffset=0mil|YOffset=0mil|HoleType=Round|Shape=RoundedRectangle|*
%AMROUNDEDRECTD22*
21,1,0.04528,0.03150,0,0,180.0*
21,1,0.03150,0.04528,0,0,180.0*
1,1,0.01378,-0.01575,0.01575*
1,1,0.01378,0.01575,0.01575*
1,1,0.01378,0.01575,-0.01575*
1,1,0.01378,-0.01575,-0.01575*
%
%ADD22ROUNDEDRECTD22*%
G04:AMPARAMS|DCode=23|XSize=49.21mil|YSize=45.28mil|CornerRadius=6.89mil|HoleSize=0mil|Usage=FLASHONLY|Rotation=90.000|XOffset=0mil|YOffset=0mil|HoleType=Round|Shape=RoundedRectangle|*
%AMROUNDEDRECTD23*
21,1,0.04921,0.03150,0,0,90.0*
21,1,0.03543,0.04528,0,0,90.0*
1,1,0.01378,0.01575,0.01772*
1,1,0.01378,0.01575,-0.01772*
1,1,0.01378,-0.01575,-0.01772*
1,1,0.01378,-0.01575,0.01772*
%
%ADD23ROUNDEDRECTD23*%
%ADD24O,0.02165X0.06496*%
%ADD25R,0.02165X0.06496*%
%ADD26R,0.03701X0.01614*%
%ADD27R,0.01614X0.03701*%
%ADD28R,0.05906X0.02165*%
%ADD29R,0.06102X0.06890*%
%ADD30R,0.08071X0.08071*%
G04:AMPARAMS|DCode=31|XSize=83.46mil|YSize=29.53mil|CornerRadius=5.91mil|HoleSize=0mil|Usage=FLASHONLY|Rotation=90.000|XOffset=0mil|YOffset=0mil|HoleType=Round|Shape=RoundedRectangle|*
%AMROUNDEDRECTD31*
21,1,0.08346,0.01772,0,0,90.0*
21,1,0.07165,0.02953,0,0,90.0*
1,1,0.01181,0.00886,0.03583*
1,1,0.01181,0.00886,-0.03583*
1,1,0.01181,-0.00886,-0.03583*
1,1,0.01181,-0.00886,0.03583*
%
%ADD31ROUNDEDRECTD31*%
%ADD32R,0.04891X0.02991*%
G04:AMPARAMS|DCode=33|XSize=49.21mil|YSize=45.28mil|CornerRadius=5.91mil|HoleSize=0mil|Usage=FLASHONLY|Rotation=0.000|XOffset=0mil|YOffset=0mil|HoleType=Round|Shape=RoundedRectangle|*
%AMROUNDEDRECTD33*
21,1,0.04921,0.03347,0,0,0.0*
21,1,0.03740,0.04528,0,0,0.0*
1,1,0.01181,0.01870,-0.01673*
1,1,0.01181,-0.01870,-0.01673*
1,1,0.01181,-0.01870,0.01673*
1,1,0.01181,0.01870,0.01673*
%
%ADD33ROUNDEDRECTD33*%
%ADD34R,0.07087X0.12402*%
%ADD35O,0.05512X0.03740*%
%ADD36O,0.03740X0.05512*%
G04:AMPARAMS|DCode=37|XSize=55.12mil|YSize=68.9mil|CornerRadius=7.87mil|HoleSize=0mil|Usage=FLASHONLY|Rotation=270.000|XOffset=0mil|YOffset=0mil|HoleType=Round|Shape=RoundedRectangle|*
%AMROUNDEDRECTD37*
21,1,0.05512,0.05315,0,0,270.0*
21,1,0.03937,0.06890,0,0,270.0*
1,1,0.01575,-0.02657,-0.01968*
1,1,0.01575,-0.02657,0.01968*
1,1,0.01575,0.02657,0.01968*
1,1,0.01575,0.02657,-0.01968*
%
%ADD37ROUNDEDRECTD37*%
G04:AMPARAMS|DCode=38|XSize=49.21mil|YSize=45.28mil|CornerRadius=6.89mil|HoleSize=0mil|Usage=FLASHONLY|Rotation=0.000|XOffset=0mil|YOffset=0mil|HoleType=Round|Shape=RoundedRectangle|*
%AMROUNDEDRECTD38*
21,1,0.04921,0.03150,0,0,0.0*
21,1,0.03543,0.04528,0,0,0.0*
1,1,0.01378,0.01772,-0.01575*
1,1,0.01378,-0.01772,-0.01575*
1,1,0.01378,-0.01772,0.01575*
1,1,0.01378,0.01772,0.01575*
%
%ADD38ROUNDEDRECTD38*%
%ADD39C,0.05709*%
%ADD40C,0.11516*%
%ADD41O,0.07677X0.04134*%
%ADD42C,0.07047*%
D18*
X257457Y45524D02*
D03*
Y42374D02*
D03*
Y39224D02*
D03*
Y36075D02*
D03*
Y32925D02*
D03*
Y29776D02*
D03*
Y26626D02*
D03*
Y23476D02*
D03*
X224543D02*
D03*
Y26626D02*
D03*
Y29776D02*
D03*
Y32925D02*
D03*
Y36075D02*
D03*
Y39224D02*
D03*
Y42374D02*
D03*
Y45524D02*
D03*
D19*
X252024Y18043D02*
D03*
X248874D02*
D03*
X245724D02*
D03*
X242575D02*
D03*
X239425D02*
D03*
X236276D02*
D03*
X233126D02*
D03*
X229976D02*
D03*
Y50957D02*
D03*
X233126D02*
D03*
X236276D02*
D03*
X239425D02*
D03*
X242575D02*
D03*
X245724D02*
D03*
X248874D02*
D03*
D20*
X252024D02*
D03*
D21*
X77000Y4500D02*
D03*
X67000D02*
D03*
Y10500D02*
D03*
X77000Y9500D02*
D03*
X32500Y5000D02*
D03*
X32573Y10000D02*
D03*
X16000Y5000D02*
D03*
Y10000D02*
D03*
X222000Y137500D02*
D03*
X215500D02*
D03*
Y166000D02*
D03*
D22*
X274500Y26500D02*
D03*
X283000D02*
D03*
D23*
X290650Y111000D02*
D03*
X284350D02*
D03*
X236201Y57500D02*
D03*
X242500D02*
D03*
X239500Y11000D02*
D03*
X233201D02*
D03*
X290650Y122500D02*
D03*
X284350D02*
D03*
Y117000D02*
D03*
X290650D02*
D03*
X318150Y47000D02*
D03*
X311850D02*
D03*
X235150Y73500D02*
D03*
X228850D02*
D03*
D24*
X324532Y39500D02*
D03*
X321972D02*
D03*
X319413D02*
D03*
X316854D02*
D03*
X314295D02*
D03*
X311736D02*
D03*
X309177D02*
D03*
X306618D02*
D03*
X304059D02*
D03*
X301500D02*
D03*
X298941D02*
D03*
X296382D02*
D03*
X293823D02*
D03*
X291264D02*
D03*
X324532Y10957D02*
D03*
X321972D02*
D03*
X319413D02*
D03*
X316854D02*
D03*
X314295D02*
D03*
X311736D02*
D03*
X309177D02*
D03*
X306618D02*
D03*
X304059D02*
D03*
X301500D02*
D03*
X298941D02*
D03*
X296382D02*
D03*
X293823D02*
D03*
D25*
X291264D02*
D03*
D26*
X226744Y91921D02*
D03*
Y89953D02*
D03*
Y87984D02*
D03*
Y86016D02*
D03*
Y84047D02*
D03*
Y82079D02*
D03*
X242256D02*
D03*
Y84047D02*
D03*
Y86016D02*
D03*
Y87984D02*
D03*
Y89953D02*
D03*
Y91921D02*
D03*
D27*
X229579Y79244D02*
D03*
X231547D02*
D03*
X233516D02*
D03*
X235484D02*
D03*
X237453D02*
D03*
X239421D02*
D03*
Y94756D02*
D03*
X237453D02*
D03*
X235484D02*
D03*
X233516D02*
D03*
X231547D02*
D03*
X229579D02*
D03*
D28*
X318528Y74606D02*
D03*
Y77165D02*
D03*
Y79724D02*
D03*
Y82284D02*
D03*
Y84842D02*
D03*
D29*
X319413Y67126D02*
D03*
Y92323D02*
D03*
D30*
X329059Y75000D02*
D03*
Y84449D02*
D03*
D31*
X6000Y22500D02*
D03*
X11000D02*
D03*
X16000D02*
D03*
X21000D02*
D03*
X26000D02*
D03*
X31000D02*
D03*
X36000D02*
D03*
X41000D02*
D03*
Y41988D02*
D03*
X36000D02*
D03*
X31000D02*
D03*
X26000D02*
D03*
X21000D02*
D03*
X16000D02*
D03*
X11000D02*
D03*
X6000D02*
D03*
X54500Y23000D02*
D03*
X59500D02*
D03*
X64500D02*
D03*
X69500D02*
D03*
X74500D02*
D03*
X79500D02*
D03*
X84500D02*
D03*
X89500D02*
D03*
Y42488D02*
D03*
X84500D02*
D03*
X79500D02*
D03*
X74500D02*
D03*
X69500D02*
D03*
X64500D02*
D03*
X59500D02*
D03*
X54500D02*
D03*
D32*
X208450Y158882D02*
D03*
Y153961D02*
D03*
Y149039D02*
D03*
Y144118D02*
D03*
X200550D02*
D03*
Y149039D02*
D03*
Y153961D02*
D03*
Y158882D02*
D03*
D33*
X101399Y19000D02*
D03*
Y25299D02*
D03*
X101500Y42435D02*
D03*
Y48735D02*
D03*
X131476Y25299D02*
D03*
Y19000D02*
D03*
Y49000D02*
D03*
Y42701D02*
D03*
X160500Y19000D02*
D03*
Y25299D02*
D03*
Y42701D02*
D03*
Y49000D02*
D03*
X157000Y160500D02*
D03*
Y166799D02*
D03*
X109500Y160500D02*
D03*
Y166799D02*
D03*
X149500Y78500D02*
D03*
Y72201D02*
D03*
X102500Y78000D02*
D03*
Y71701D02*
D03*
X157500Y78500D02*
D03*
Y72201D02*
D03*
X109500Y78000D02*
D03*
Y71701D02*
D03*
X172000Y78500D02*
D03*
Y72201D02*
D03*
X125000Y78000D02*
D03*
Y71701D02*
D03*
X179500Y160500D02*
D03*
Y166799D02*
D03*
X132000Y160500D02*
D03*
Y166799D02*
D03*
X171500Y160500D02*
D03*
Y166799D02*
D03*
X124500Y160500D02*
D03*
Y166799D02*
D03*
X58000Y160500D02*
D03*
Y166799D02*
D03*
X65000Y160500D02*
D03*
Y166799D02*
D03*
X57500Y79000D02*
D03*
Y72701D02*
D03*
X65280Y79000D02*
D03*
Y72701D02*
D03*
X80000Y79000D02*
D03*
Y72701D02*
D03*
X88000Y160500D02*
D03*
Y166799D02*
D03*
X80000Y160500D02*
D03*
Y166799D02*
D03*
X10500Y160500D02*
D03*
Y166799D02*
D03*
X16000Y160500D02*
D03*
Y166799D02*
D03*
X8500Y78000D02*
D03*
Y71701D02*
D03*
X16000Y78000D02*
D03*
Y71701D02*
D03*
X31000Y78000D02*
D03*
Y71701D02*
D03*
X38500Y160500D02*
D03*
Y166799D02*
D03*
X31000Y160500D02*
D03*
Y166799D02*
D03*
X217500Y98000D02*
D03*
Y91701D02*
D03*
X215500Y154799D02*
D03*
Y148500D02*
D03*
X222500Y154500D02*
D03*
Y148201D02*
D03*
X191544Y81898D02*
D03*
Y88197D02*
D03*
X197044Y81898D02*
D03*
Y88197D02*
D03*
X202544Y81697D02*
D03*
Y87996D02*
D03*
D34*
X149539Y90472D02*
D03*
X157020D02*
D03*
X164500D02*
D03*
X171980D02*
D03*
X179461D02*
D03*
Y149528D02*
D03*
X171980D02*
D03*
X164500D02*
D03*
X157020D02*
D03*
X149539D02*
D03*
X102539Y90472D02*
D03*
X110020D02*
D03*
X117500D02*
D03*
X124980D02*
D03*
X132461D02*
D03*
Y149528D02*
D03*
X124980D02*
D03*
X117500D02*
D03*
X110020D02*
D03*
X102539D02*
D03*
X57307Y90472D02*
D03*
X64787D02*
D03*
X72267D02*
D03*
X79748D02*
D03*
X87228D02*
D03*
Y149528D02*
D03*
X79748D02*
D03*
X72267D02*
D03*
X64787D02*
D03*
X57307D02*
D03*
X8539Y90472D02*
D03*
X16020D02*
D03*
X23500D02*
D03*
X30980D02*
D03*
X38461D02*
D03*
Y149528D02*
D03*
X30980D02*
D03*
X23500D02*
D03*
X16020D02*
D03*
X8539D02*
D03*
D35*
X121001Y25822D02*
D03*
Y21885D02*
D03*
Y17948D02*
D03*
X108796D02*
D03*
Y21885D02*
D03*
Y25822D02*
D03*
X121001Y50309D02*
D03*
Y46372D02*
D03*
Y42435D02*
D03*
X108796D02*
D03*
Y46372D02*
D03*
Y50309D02*
D03*
X150784Y25822D02*
D03*
Y21885D02*
D03*
Y17948D02*
D03*
X138579D02*
D03*
Y21885D02*
D03*
Y25822D02*
D03*
X150784Y50309D02*
D03*
Y46372D02*
D03*
Y42435D02*
D03*
X138579D02*
D03*
Y46372D02*
D03*
Y50309D02*
D03*
X180308Y25822D02*
D03*
Y21885D02*
D03*
Y17948D02*
D03*
X168103D02*
D03*
Y21885D02*
D03*
Y25822D02*
D03*
X180308Y50309D02*
D03*
Y46372D02*
D03*
Y42435D02*
D03*
X168103D02*
D03*
Y46372D02*
D03*
Y50309D02*
D03*
D36*
X200981Y96095D02*
D03*
X197044D02*
D03*
X193107D02*
D03*
Y108299D02*
D03*
X197044D02*
D03*
X200981D02*
D03*
D37*
X237500Y108024D02*
D03*
Y100976D02*
D03*
X246000Y108024D02*
D03*
Y100976D02*
D03*
D38*
X249000Y82850D02*
D03*
Y89150D02*
D03*
X193500Y147299D02*
D03*
Y141000D02*
D03*
Y153350D02*
D03*
Y159650D02*
D03*
D39*
X280000Y82000D02*
D03*
X270000D02*
D03*
X280000Y92000D02*
D03*
X270000D02*
D03*
X304000Y80000D02*
D03*
Y90000D02*
D03*
X270000Y72000D02*
D03*
X280000D02*
D03*
D40*
X315500Y120496D02*
D03*
Y139000D02*
D03*
Y157504D02*
D03*
D41*
X329061Y92716D02*
D03*
Y66732D02*
D03*
D42*
X276343Y159343D02*
D03*
Y139657D02*
D03*
X256658D02*
D03*
Y159343D02*
D03*
M02*
