G04*
G04 #@! TF.GenerationSoftware,Altium Limited,Altium Designer,21.0.8 (223)*
G04*
G04 Layer_Physical_Order=1*
G04 Layer_Color=255*
%FSLAX25Y25*%
%MOIN*%
G70*
G04*
G04 #@! TF.SameCoordinates,C5FB228B-B928-4E51-BBFA-540A54714D63*
G04*
G04*
G04 #@! TF.FilePolarity,Positive*
G04*
G01*
G75*
%ADD12C,0.01000*%
%ADD15C,0.00700*%
%ADD43R,0.06299X0.02165*%
%ADD44R,0.02165X0.06299*%
G04:AMPARAMS|DCode=45|XSize=62.99mil|YSize=21.65mil|CornerRadius=5.41mil|HoleSize=0mil|Usage=FLASHONLY|Rotation=270.000|XOffset=0mil|YOffset=0mil|HoleType=Round|Shape=RoundedRectangle|*
%AMROUNDEDRECTD45*
21,1,0.06299,0.01083,0,0,270.0*
21,1,0.05217,0.02165,0,0,270.0*
1,1,0.01083,-0.00541,-0.02608*
1,1,0.01083,-0.00541,0.02608*
1,1,0.01083,0.00541,0.02608*
1,1,0.01083,0.00541,-0.02608*
%
%ADD45ROUNDEDRECTD45*%
G04:AMPARAMS|DCode=46|XSize=39.37mil|YSize=39.37mil|CornerRadius=3.94mil|HoleSize=0mil|Usage=FLASHONLY|Rotation=90.000|XOffset=0mil|YOffset=0mil|HoleType=Round|Shape=RoundedRectangle|*
%AMROUNDEDRECTD46*
21,1,0.03937,0.03150,0,0,90.0*
21,1,0.03150,0.03937,0,0,90.0*
1,1,0.00787,0.01575,0.01575*
1,1,0.00787,0.01575,-0.01575*
1,1,0.00787,-0.01575,-0.01575*
1,1,0.00787,-0.01575,0.01575*
%
%ADD46ROUNDEDRECTD46*%
G04:AMPARAMS|DCode=47|XSize=39.37mil|YSize=39.37mil|CornerRadius=3.94mil|HoleSize=0mil|Usage=FLASHONLY|Rotation=180.000|XOffset=0mil|YOffset=0mil|HoleType=Round|Shape=RoundedRectangle|*
%AMROUNDEDRECTD47*
21,1,0.03937,0.03150,0,0,180.0*
21,1,0.03150,0.03937,0,0,180.0*
1,1,0.00787,-0.01575,0.01575*
1,1,0.00787,0.01575,0.01575*
1,1,0.00787,0.01575,-0.01575*
1,1,0.00787,-0.01575,-0.01575*
%
%ADD47ROUNDEDRECTD47*%
G04:AMPARAMS|DCode=48|XSize=43.31mil|YSize=39.37mil|CornerRadius=3.94mil|HoleSize=0mil|Usage=FLASHONLY|Rotation=90.000|XOffset=0mil|YOffset=0mil|HoleType=Round|Shape=RoundedRectangle|*
%AMROUNDEDRECTD48*
21,1,0.04331,0.03150,0,0,90.0*
21,1,0.03543,0.03937,0,0,90.0*
1,1,0.00787,0.01575,0.01772*
1,1,0.00787,0.01575,-0.01772*
1,1,0.00787,-0.01575,-0.01772*
1,1,0.00787,-0.01575,0.01772*
%
%ADD48ROUNDEDRECTD48*%
%ADD49O,0.01575X0.05906*%
%ADD50R,0.01575X0.05906*%
%ADD51R,0.03110X0.01024*%
%ADD52R,0.01024X0.03110*%
%ADD53R,0.05315X0.01575*%
%ADD54R,0.05512X0.06299*%
%ADD55R,0.07480X0.07480*%
G04:AMPARAMS|DCode=56|XSize=77.56mil|YSize=23.62mil|CornerRadius=2.95mil|HoleSize=0mil|Usage=FLASHONLY|Rotation=90.000|XOffset=0mil|YOffset=0mil|HoleType=Round|Shape=RoundedRectangle|*
%AMROUNDEDRECTD56*
21,1,0.07756,0.01772,0,0,90.0*
21,1,0.07165,0.02362,0,0,90.0*
1,1,0.00591,0.00886,0.03583*
1,1,0.00591,0.00886,-0.03583*
1,1,0.00591,-0.00886,-0.03583*
1,1,0.00591,-0.00886,0.03583*
%
%ADD56ROUNDEDRECTD56*%
%ADD57R,0.04300X0.02400*%
G04:AMPARAMS|DCode=58|XSize=43.31mil|YSize=39.37mil|CornerRadius=2.95mil|HoleSize=0mil|Usage=FLASHONLY|Rotation=0.000|XOffset=0mil|YOffset=0mil|HoleType=Round|Shape=RoundedRectangle|*
%AMROUNDEDRECTD58*
21,1,0.04331,0.03347,0,0,0.0*
21,1,0.03740,0.03937,0,0,0.0*
1,1,0.00591,0.01870,-0.01673*
1,1,0.00591,-0.01870,-0.01673*
1,1,0.00591,-0.01870,0.01673*
1,1,0.00591,0.01870,0.01673*
%
%ADD58ROUNDEDRECTD58*%
%ADD59R,0.06496X0.11811*%
%ADD60O,0.04921X0.03150*%
%ADD61O,0.03150X0.04921*%
G04:AMPARAMS|DCode=62|XSize=49.21mil|YSize=62.99mil|CornerRadius=4.92mil|HoleSize=0mil|Usage=FLASHONLY|Rotation=270.000|XOffset=0mil|YOffset=0mil|HoleType=Round|Shape=RoundedRectangle|*
%AMROUNDEDRECTD62*
21,1,0.04921,0.05315,0,0,270.0*
21,1,0.03937,0.06299,0,0,270.0*
1,1,0.00984,-0.02657,-0.01968*
1,1,0.00984,-0.02657,0.01968*
1,1,0.00984,0.02657,0.01968*
1,1,0.00984,0.02657,-0.01968*
%
%ADD62ROUNDEDRECTD62*%
G04:AMPARAMS|DCode=63|XSize=43.31mil|YSize=39.37mil|CornerRadius=3.94mil|HoleSize=0mil|Usage=FLASHONLY|Rotation=0.000|XOffset=0mil|YOffset=0mil|HoleType=Round|Shape=RoundedRectangle|*
%AMROUNDEDRECTD63*
21,1,0.04331,0.03150,0,0,0.0*
21,1,0.03543,0.03937,0,0,0.0*
1,1,0.00787,0.01772,-0.01575*
1,1,0.00787,-0.01772,-0.01575*
1,1,0.00787,-0.01772,0.01575*
1,1,0.00787,0.01772,0.01575*
%
%ADD63ROUNDEDRECTD63*%
%ADD64C,0.01500*%
%ADD65C,0.02000*%
%ADD66C,0.05118*%
%ADD67C,0.10925*%
%ADD68O,0.07087X0.03543*%
%ADD69C,0.06457*%
%ADD70C,0.02400*%
%ADD71C,0.04000*%
G36*
X330000Y178218D02*
X330514D01*
X331522Y178017D01*
X332472Y177624D01*
X333326Y177053D01*
X334053Y176326D01*
X334624Y175472D01*
X335017Y174522D01*
X335218Y173514D01*
Y173000D01*
X335218Y6000D01*
Y5486D01*
X335017Y4478D01*
X334624Y3528D01*
X334053Y2674D01*
X333326Y1947D01*
X332472Y1376D01*
X331522Y982D01*
X330505Y780D01*
X329967Y768D01*
X329938Y761D01*
X329907Y764D01*
X329785Y727D01*
X329765Y722D01*
X5570D01*
X4562Y923D01*
X3613Y1316D01*
X2758Y1887D01*
X2031Y2614D01*
X1460Y3469D01*
X1067Y4419D01*
X866Y5427D01*
Y5941D01*
Y173000D01*
Y173514D01*
X1067Y174522D01*
X1460Y175472D01*
X2031Y176326D01*
X2758Y177053D01*
X3613Y177624D01*
X4562Y178017D01*
X5570Y178218D01*
X6084Y178218D01*
X330000Y178218D01*
D02*
G37*
%LPC*%
G36*
X70997Y169500D02*
X70003D01*
X69084Y169119D01*
X68381Y168416D01*
X68174Y167918D01*
X67579D01*
Y168472D01*
X67525Y168744D01*
X67371Y168974D01*
X67141Y169127D01*
X66870Y169181D01*
X63130D01*
X62859Y169127D01*
X62629Y168974D01*
X62475Y168744D01*
X62421Y168472D01*
Y165126D01*
X62475Y164855D01*
X62629Y164625D01*
X62859Y164471D01*
X63050Y164433D01*
X63001Y163933D01*
X59999D01*
X59950Y164433D01*
X60141Y164471D01*
X60371Y164625D01*
X60525Y164855D01*
X60579Y165126D01*
Y168472D01*
X60525Y168744D01*
X60371Y168974D01*
X60141Y169127D01*
X59870Y169181D01*
X56130D01*
X55859Y169127D01*
X55629Y168974D01*
X55475Y168744D01*
X55421Y168472D01*
Y167717D01*
X54702D01*
X54619Y167916D01*
X53916Y168619D01*
X52997Y169000D01*
X52003D01*
X51084Y168619D01*
X50381Y167916D01*
X50000Y166997D01*
Y166003D01*
X50381Y165084D01*
X51032Y164433D01*
X50995Y164188D01*
X50878Y163933D01*
X40499D01*
X40450Y164433D01*
X40641Y164471D01*
X40871Y164625D01*
X41025Y164855D01*
X41079Y165126D01*
Y166082D01*
X42174D01*
X42381Y165584D01*
X43084Y164881D01*
X44003Y164500D01*
X44997D01*
X45916Y164881D01*
X46619Y165584D01*
X47000Y166503D01*
Y167497D01*
X46619Y168416D01*
X45916Y169119D01*
X44997Y169500D01*
X44003D01*
X43084Y169119D01*
X42381Y168416D01*
X42174Y167918D01*
X41079D01*
Y168472D01*
X41025Y168744D01*
X40871Y168974D01*
X40641Y169127D01*
X40370Y169181D01*
X36630D01*
X36359Y169127D01*
X36129Y168974D01*
X35975Y168744D01*
X35921Y168472D01*
Y165126D01*
X35975Y164855D01*
X36129Y164625D01*
X36359Y164471D01*
X36550Y164433D01*
X36501Y163933D01*
X32999D01*
X32950Y164433D01*
X33141Y164471D01*
X33371Y164625D01*
X33525Y164855D01*
X33579Y165126D01*
Y168472D01*
X33525Y168744D01*
X33371Y168974D01*
X33141Y169127D01*
X32870Y169181D01*
X29130D01*
X28859Y169127D01*
X28629Y168974D01*
X28475Y168744D01*
X28421Y168472D01*
Y167918D01*
X27826D01*
X27619Y168416D01*
X26916Y169119D01*
X25997Y169500D01*
X25003D01*
X24084Y169119D01*
X23381Y168416D01*
X23378Y168409D01*
X22807Y168337D01*
X22276Y168868D01*
X21357Y169249D01*
X20362D01*
X19444Y168868D01*
X19070Y168495D01*
X19008Y168492D01*
X18539Y168671D01*
X18525Y168744D01*
X18371Y168974D01*
X18141Y169127D01*
X17870Y169181D01*
X14130D01*
X13859Y169127D01*
X13629Y168974D01*
X13521Y168813D01*
X13250Y168775D01*
X12979Y168813D01*
X12871Y168974D01*
X12641Y169127D01*
X12370Y169181D01*
X8630D01*
X8359Y169127D01*
X8129Y168974D01*
X7975Y168744D01*
X7921Y168472D01*
Y167918D01*
X7326D01*
X7119Y168416D01*
X6416Y169119D01*
X5497Y169500D01*
X4503D01*
X3584Y169119D01*
X2881Y168416D01*
X2500Y167497D01*
Y166503D01*
X2881Y165584D01*
X3584Y164881D01*
X4418Y164535D01*
X4426Y164527D01*
X4525Y164389D01*
X4600Y164012D01*
X4600Y164000D01*
Y163926D01*
X4567Y163847D01*
Y155833D01*
X4694Y155527D01*
X4891Y155445D01*
Y143610D01*
X4694Y143528D01*
X4567Y143222D01*
Y96778D01*
X4694Y96472D01*
X4891Y96390D01*
Y84555D01*
X4694Y84473D01*
X4567Y84167D01*
Y75000D01*
X4694Y74694D01*
X5000Y74567D01*
X6501D01*
X6550Y74067D01*
X6359Y74029D01*
X6129Y73875D01*
X5975Y73645D01*
X5921Y73374D01*
Y70028D01*
X5975Y69756D01*
X6129Y69526D01*
X6359Y69373D01*
X6630Y69319D01*
X9781D01*
X20582Y58518D01*
Y51684D01*
X20351Y51453D01*
X20152Y51156D01*
X20082Y50804D01*
Y46273D01*
X19843Y46226D01*
X19613Y46072D01*
X19459Y45842D01*
X19405Y45571D01*
Y38405D01*
X19412Y38369D01*
X18997Y38000D01*
X18003D01*
X17587Y38369D01*
X17595Y38405D01*
Y45571D01*
X17541Y45842D01*
X17387Y46072D01*
X17157Y46226D01*
X16918Y46273D01*
Y47174D01*
X17416Y47381D01*
X18119Y48084D01*
X18500Y49003D01*
Y49997D01*
X18119Y50916D01*
X17416Y51619D01*
X16497Y52000D01*
X15503D01*
X14584Y51619D01*
X13881Y50916D01*
X13500Y49997D01*
Y49003D01*
X13881Y48084D01*
X14584Y47381D01*
X15082Y47174D01*
Y46273D01*
X14843Y46226D01*
X14613Y46072D01*
X14459Y45842D01*
X14405Y45571D01*
Y38405D01*
X14459Y38134D01*
X14613Y37904D01*
X14843Y37751D01*
X15114Y37697D01*
X16454D01*
X16661Y37197D01*
X16381Y36916D01*
X16174Y36418D01*
X12724D01*
X11993Y37149D01*
X11908Y37206D01*
X11903Y37317D01*
X12030Y37725D01*
X12157Y37751D01*
X12387Y37904D01*
X12541Y38134D01*
X12595Y38405D01*
Y45571D01*
X12541Y45842D01*
X12387Y46072D01*
X12157Y46226D01*
X11918Y46273D01*
Y50120D01*
X15004Y53206D01*
X15503Y53000D01*
X16497D01*
X17416Y53381D01*
X18119Y54084D01*
X18500Y55003D01*
Y55997D01*
X18119Y56916D01*
X17416Y57619D01*
X16497Y58000D01*
X15503D01*
X14584Y57619D01*
X13881Y56916D01*
X13500Y55997D01*
Y55003D01*
X13706Y54504D01*
X10351Y51149D01*
X10152Y50851D01*
X10082Y50500D01*
Y46273D01*
X9843Y46226D01*
X9613Y46072D01*
X9459Y45842D01*
X9405Y45571D01*
Y38405D01*
X9459Y38134D01*
X9604Y37918D01*
X9588Y37834D01*
X9441Y37418D01*
X7559D01*
X7412Y37834D01*
X7396Y37918D01*
X7541Y38134D01*
X7595Y38405D01*
Y45571D01*
X7541Y45842D01*
X7387Y46072D01*
X7157Y46226D01*
X6886Y46280D01*
X5114D01*
X4843Y46226D01*
X4613Y46072D01*
X4459Y45842D01*
X4405Y45571D01*
Y38405D01*
X4459Y38134D01*
X4613Y37904D01*
X4843Y37751D01*
X5082Y37703D01*
Y36500D01*
Y26785D01*
X4843Y26738D01*
X4613Y26584D01*
X4459Y26354D01*
X4405Y26083D01*
Y18917D01*
X4459Y18646D01*
X4613Y18416D01*
X4843Y18262D01*
X5114Y18208D01*
X6886D01*
X7157Y18262D01*
X7387Y18416D01*
X7541Y18646D01*
X7595Y18917D01*
Y26083D01*
X7541Y26354D01*
X7387Y26584D01*
X7157Y26738D01*
X6918Y26785D01*
Y35582D01*
X10964D01*
X11695Y34851D01*
X11993Y34652D01*
X12344Y34582D01*
X16174D01*
X16381Y34084D01*
X17084Y33381D01*
X18003Y33000D01*
X18997D01*
X19916Y33381D01*
X20544Y34008D01*
X20891D01*
X29405Y25494D01*
Y18917D01*
X29459Y18646D01*
X29613Y18416D01*
X29843Y18262D01*
X30114Y18208D01*
X31886D01*
X32157Y18262D01*
X32387Y18416D01*
X32541Y18646D01*
X32595Y18917D01*
Y26083D01*
X32541Y26354D01*
X32387Y26584D01*
X32157Y26738D01*
X31886Y26792D01*
X30703D01*
X21920Y35575D01*
X21622Y35774D01*
X21271Y35844D01*
X21000D01*
Y35997D01*
X20619Y36916D01*
X20339Y37197D01*
X20546Y37697D01*
X21886D01*
X22157Y37751D01*
X22387Y37904D01*
X22541Y38134D01*
X22595Y38405D01*
Y45571D01*
X22541Y45842D01*
X22387Y46072D01*
X22157Y46226D01*
X21918Y46273D01*
Y50424D01*
X22149Y50656D01*
X22348Y50953D01*
X22418Y51304D01*
Y58898D01*
X22348Y59249D01*
X22149Y59547D01*
X11079Y70616D01*
Y73374D01*
X11025Y73645D01*
X10871Y73875D01*
X10641Y74029D01*
X10450Y74067D01*
X10499Y74567D01*
X14001D01*
X14050Y74067D01*
X13859Y74029D01*
X13629Y73875D01*
X13475Y73645D01*
X13421Y73374D01*
Y70028D01*
X13475Y69756D01*
X13629Y69526D01*
X13859Y69373D01*
X14130Y69319D01*
X17281D01*
X25082Y61518D01*
Y46273D01*
X24843Y46226D01*
X24613Y46072D01*
X24459Y45842D01*
X24405Y45571D01*
Y38405D01*
X24459Y38134D01*
X24613Y37904D01*
X24843Y37751D01*
X25114Y37697D01*
X26886D01*
X27157Y37751D01*
X27387Y37904D01*
X27541Y38134D01*
X27595Y38405D01*
Y45571D01*
X27541Y45842D01*
X27387Y46072D01*
X27157Y46226D01*
X26918Y46273D01*
Y61898D01*
X26848Y62249D01*
X26649Y62546D01*
X18579Y70616D01*
Y73374D01*
X18525Y73645D01*
X18371Y73875D01*
X18141Y74029D01*
X17950Y74067D01*
X17999Y74567D01*
X29001D01*
X29050Y74067D01*
X28859Y74029D01*
X28629Y73875D01*
X28475Y73645D01*
X28421Y73374D01*
Y70028D01*
X28475Y69756D01*
X28629Y69526D01*
X28859Y69373D01*
X29130Y69319D01*
X30082D01*
Y46273D01*
X29843Y46226D01*
X29613Y46072D01*
X29459Y45842D01*
X29405Y45571D01*
Y38405D01*
X29459Y38134D01*
X29613Y37904D01*
X29843Y37751D01*
X30114Y37697D01*
X31886D01*
X32157Y37751D01*
X32387Y37904D01*
X32541Y38134D01*
X32595Y38405D01*
Y45571D01*
X32541Y45842D01*
X32387Y46072D01*
X32157Y46226D01*
X31918Y46273D01*
Y69319D01*
X32870D01*
X33141Y69373D01*
X33371Y69526D01*
X33525Y69756D01*
X33579Y70028D01*
Y73374D01*
X33525Y73645D01*
X33371Y73875D01*
X33141Y74029D01*
X32950Y74067D01*
X32999Y74567D01*
X54763D01*
X54921Y74374D01*
Y71028D01*
X54975Y70756D01*
X55129Y70526D01*
X55359Y70373D01*
X55630Y70319D01*
X56582D01*
Y64500D01*
X56652Y64149D01*
X56851Y63851D01*
X67082Y53620D01*
Y51605D01*
X66754Y51471D01*
X66582Y51453D01*
X65916Y52119D01*
X64997Y52500D01*
X64003D01*
X63084Y52119D01*
X62381Y51416D01*
X62000Y50497D01*
Y49503D01*
X62381Y48584D01*
X63084Y47881D01*
X63582Y47674D01*
Y46773D01*
X63343Y46726D01*
X63113Y46572D01*
X62959Y46342D01*
X62905Y46071D01*
Y38906D01*
X62548Y38418D01*
X61452D01*
X61095Y38906D01*
Y46071D01*
X61041Y46342D01*
X60887Y46572D01*
X60657Y46726D01*
X60418Y46773D01*
Y50674D01*
X60916Y50881D01*
X61619Y51584D01*
X62000Y52503D01*
Y53497D01*
X61619Y54416D01*
X60916Y55119D01*
X59997Y55500D01*
X59003D01*
X58084Y55119D01*
X57381Y54416D01*
X57000Y53497D01*
Y52503D01*
X57381Y51584D01*
X58084Y50881D01*
X58582Y50674D01*
Y46773D01*
X58343Y46726D01*
X58113Y46572D01*
X57959Y46342D01*
X57905Y46071D01*
Y38906D01*
X57548Y38418D01*
X56452D01*
X56095Y38906D01*
Y46071D01*
X56041Y46342D01*
X55887Y46572D01*
X55657Y46726D01*
X55386Y46780D01*
X53614D01*
X53343Y46726D01*
X53113Y46572D01*
X52959Y46342D01*
X52905Y46071D01*
Y38906D01*
X52959Y38634D01*
X53113Y38404D01*
X53343Y38251D01*
X53582Y38203D01*
Y37500D01*
Y27285D01*
X53343Y27238D01*
X53113Y27084D01*
X52959Y26854D01*
X52905Y26583D01*
Y19417D01*
X52959Y19146D01*
X53113Y18916D01*
X53343Y18762D01*
X53614Y18708D01*
X55386D01*
X55657Y18762D01*
X55887Y18916D01*
X56041Y19146D01*
X56095Y19417D01*
Y26583D01*
X56041Y26854D01*
X55887Y27084D01*
X55657Y27238D01*
X55418Y27285D01*
Y36582D01*
X65347D01*
Y35720D01*
X65728Y34801D01*
X66431Y34098D01*
X67350Y33718D01*
X68344D01*
X69263Y34098D01*
X69532Y34367D01*
X77905Y25994D01*
Y19417D01*
X77959Y19146D01*
X78113Y18916D01*
X78343Y18762D01*
X78614Y18708D01*
X80386D01*
X80657Y18762D01*
X80887Y18916D01*
X81041Y19146D01*
X81095Y19417D01*
Y26583D01*
X81041Y26854D01*
X80887Y27084D01*
X80657Y27238D01*
X80386Y27292D01*
X79203D01*
X70347Y36148D01*
Y36715D01*
X69966Y37634D01*
X69865Y37735D01*
X70057Y38197D01*
X70386D01*
X70657Y38251D01*
X70887Y38404D01*
X71041Y38634D01*
X71095Y38906D01*
Y46071D01*
X71041Y46342D01*
X70887Y46572D01*
X70657Y46726D01*
X70386Y46780D01*
X69203D01*
X68918Y47065D01*
Y54000D01*
X68848Y54351D01*
X68649Y54649D01*
X58418Y64880D01*
Y70319D01*
X59370D01*
X59641Y70373D01*
X59871Y70526D01*
X60025Y70756D01*
X60079Y71028D01*
Y74374D01*
X60237Y74567D01*
X62542D01*
X62701Y74374D01*
Y71028D01*
X62755Y70756D01*
X62909Y70526D01*
X63139Y70373D01*
X63410Y70319D01*
X64362D01*
Y61220D01*
X64432Y60869D01*
X64631Y60571D01*
X73582Y51620D01*
Y46773D01*
X73343Y46726D01*
X73113Y46572D01*
X72959Y46342D01*
X72905Y46071D01*
Y38906D01*
X72959Y38634D01*
X73113Y38404D01*
X73343Y38251D01*
X73614Y38197D01*
X75386D01*
X75657Y38251D01*
X75887Y38404D01*
X76041Y38634D01*
X76095Y38906D01*
Y46071D01*
X76041Y46342D01*
X75887Y46572D01*
X75657Y46726D01*
X75418Y46773D01*
Y52000D01*
X75348Y52351D01*
X75149Y52649D01*
X66198Y61600D01*
Y70319D01*
X67150D01*
X67421Y70373D01*
X67651Y70526D01*
X67805Y70756D01*
X67859Y71028D01*
Y74374D01*
X68017Y74567D01*
X77263D01*
X77421Y74374D01*
Y71028D01*
X77475Y70756D01*
X77629Y70526D01*
X77859Y70373D01*
X78130Y70319D01*
X78582D01*
Y46773D01*
X78343Y46726D01*
X78113Y46572D01*
X77959Y46342D01*
X77905Y46071D01*
Y38906D01*
X77959Y38634D01*
X78113Y38404D01*
X78343Y38251D01*
X78614Y38197D01*
X80386D01*
X80657Y38251D01*
X80887Y38404D01*
X81041Y38634D01*
X81095Y38906D01*
Y46071D01*
X81041Y46342D01*
X80887Y46572D01*
X80657Y46726D01*
X80418Y46773D01*
Y70319D01*
X81870D01*
X82141Y70373D01*
X82371Y70526D01*
X82525Y70756D01*
X82579Y71028D01*
Y74374D01*
X82737Y74567D01*
X100501D01*
X100550Y74067D01*
X100359Y74029D01*
X100129Y73875D01*
X99975Y73645D01*
X99921Y73374D01*
Y71901D01*
X102500D01*
X105079D01*
Y73374D01*
X105025Y73645D01*
X104871Y73875D01*
X104641Y74029D01*
X104450Y74067D01*
X104499Y74567D01*
X107501D01*
X107550Y74067D01*
X107359Y74029D01*
X107129Y73875D01*
X106975Y73645D01*
X106921Y73374D01*
Y71901D01*
X109500D01*
X112079D01*
Y73374D01*
X112025Y73645D01*
X111871Y73875D01*
X111641Y74029D01*
X111450Y74067D01*
X111499Y74567D01*
X123001D01*
X123050Y74067D01*
X122859Y74029D01*
X122629Y73875D01*
X122475Y73645D01*
X122421Y73374D01*
Y71901D01*
X125000D01*
X127579D01*
Y73374D01*
X127525Y73645D01*
X127371Y73875D01*
X127141Y74029D01*
X126950Y74067D01*
X126999Y74567D01*
X146655D01*
X146841Y74322D01*
X146959Y74067D01*
X146921Y73874D01*
Y72401D01*
X149500D01*
X152079D01*
Y73874D01*
X152041Y74067D01*
X152159Y74322D01*
X152345Y74567D01*
X154655D01*
X154841Y74322D01*
X154959Y74067D01*
X154921Y73874D01*
Y72401D01*
X157500D01*
X160079D01*
Y73874D01*
X160041Y74067D01*
X160159Y74322D01*
X160345Y74567D01*
X169155D01*
X169341Y74322D01*
X169459Y74067D01*
X169421Y73874D01*
Y72401D01*
X172000D01*
X174579D01*
Y73874D01*
X174541Y74067D01*
X174659Y74322D01*
X174845Y74567D01*
X183847D01*
X183926Y74600D01*
X184012D01*
X184073Y74661D01*
X184153Y74694D01*
X184186Y74773D01*
X184247Y74834D01*
X184438Y75296D01*
Y75382D01*
X184471Y75462D01*
X184438Y75542D01*
Y75628D01*
X184433Y75633D01*
Y150321D01*
X184679Y150567D01*
X190691D01*
X190738Y150587D01*
X190789Y150578D01*
X190886Y150648D01*
X190997Y150694D01*
X191001Y150705D01*
X191047Y150763D01*
X191058Y150771D01*
X191077Y150801D01*
X191222Y150985D01*
X191419Y151028D01*
X191728Y150966D01*
X195272D01*
X195381Y150988D01*
X195627Y150527D01*
X194783Y149683D01*
X191728D01*
X191419Y149622D01*
X191156Y149446D01*
X190981Y149184D01*
X190919Y148874D01*
Y145724D01*
X190981Y145415D01*
X191156Y145152D01*
X191419Y144977D01*
X191728Y144915D01*
X195272D01*
X195581Y144977D01*
X195844Y145152D01*
X196019Y145415D01*
X196081Y145724D01*
Y148386D01*
X197538Y149843D01*
X198000Y149651D01*
Y149239D01*
X200350D01*
Y150639D01*
X198988D01*
X198797Y151101D01*
X199549Y151854D01*
X199748Y152151D01*
X199789Y152361D01*
X203100D01*
Y152683D01*
X203600Y152890D01*
X205278Y151212D01*
X205576Y151013D01*
X205589Y151010D01*
X205900Y150639D01*
Y147439D01*
X211000D01*
Y147670D01*
X211024Y147680D01*
X211500Y147809D01*
X211735Y147652D01*
X212086Y147582D01*
X212921D01*
Y146827D01*
X212975Y146555D01*
X213129Y146326D01*
X213359Y146172D01*
X213630Y146118D01*
X217370D01*
X217641Y146172D01*
X217871Y146326D01*
X218025Y146555D01*
X218079Y146827D01*
Y147433D01*
X219921D01*
Y146528D01*
X219975Y146256D01*
X220129Y146026D01*
X220359Y145873D01*
X220630Y145819D01*
X223401D01*
X223592Y145357D01*
X221851Y143616D01*
X221652Y143318D01*
X221582Y142967D01*
Y139884D01*
X220425D01*
X220115Y139822D01*
X219853Y139647D01*
X219678Y139384D01*
X219616Y139075D01*
Y135925D01*
X219678Y135616D01*
X219853Y135353D01*
X220115Y135178D01*
X220425Y135116D01*
X223086D01*
X230630Y127573D01*
Y110826D01*
X230131Y110619D01*
X229428Y109916D01*
X229294Y109594D01*
X228753D01*
X228619Y109916D01*
X227916Y110619D01*
X226997Y111000D01*
X226003D01*
X225084Y110619D01*
X224381Y109916D01*
X224000Y108997D01*
Y108003D01*
X224381Y107084D01*
X225084Y106381D01*
X225582Y106174D01*
Y103988D01*
X225652Y103637D01*
X225851Y103339D01*
X228661Y100529D01*
Y94756D01*
X228667Y94727D01*
Y93287D01*
X228667Y92833D01*
X228213Y92833D01*
X226773D01*
X226744Y92839D01*
X224046D01*
X224012Y92854D01*
X224006Y92852D01*
X224000Y92854D01*
X223963Y92839D01*
X222945D01*
X222594Y92769D01*
X222296Y92570D01*
X221643Y91918D01*
X220079D01*
Y93374D01*
X220025Y93645D01*
X219871Y93875D01*
X219641Y94029D01*
X219370Y94083D01*
X215630D01*
X215359Y94029D01*
X215129Y93875D01*
X214975Y93645D01*
X214921Y93374D01*
Y90028D01*
X214975Y89756D01*
X215129Y89526D01*
X215359Y89373D01*
X215630Y89319D01*
X219370D01*
X219641Y89373D01*
X219871Y89526D01*
X220025Y89756D01*
X220079Y90028D01*
Y90082D01*
X222024D01*
X222375Y90152D01*
X222673Y90351D01*
X222871Y90550D01*
X223371Y90343D01*
Y81194D01*
X223441Y80843D01*
X223640Y80545D01*
X227605Y76581D01*
X227397Y76081D01*
X227276D01*
X226966Y76019D01*
X226703Y75844D01*
X226528Y75581D01*
X226466Y75272D01*
Y73700D01*
X228850D01*
X231235D01*
Y75272D01*
X231215Y75371D01*
X231496Y75811D01*
X231580Y75871D01*
X232432D01*
X232528Y75801D01*
X232798Y75434D01*
X232766Y75272D01*
Y71728D01*
X232827Y71419D01*
X233003Y71156D01*
X233265Y70981D01*
X233575Y70919D01*
X236724D01*
X237034Y70981D01*
X237297Y71156D01*
X237472Y71419D01*
X237534Y71728D01*
Y75272D01*
X237472Y75581D01*
X237297Y75844D01*
X237034Y76019D01*
X236724Y76081D01*
X236402D01*
Y76847D01*
X236541Y77289D01*
X238010D01*
X238365Y77289D01*
Y77289D01*
X238509D01*
Y77289D01*
X240333D01*
Y81161D01*
X246442D01*
X246481Y80966D01*
X246656Y80703D01*
X246919Y80528D01*
X247228Y80466D01*
X250772D01*
X251081Y80528D01*
X251344Y80703D01*
X251519Y80966D01*
X251581Y81276D01*
Y84425D01*
X251519Y84735D01*
X251344Y84997D01*
X251081Y85173D01*
X250772Y85234D01*
X247228D01*
X246919Y85173D01*
X246656Y84997D01*
X246481Y84735D01*
X246419Y84425D01*
Y82996D01*
X244653D01*
X244211Y83135D01*
X244211Y83496D01*
X244211Y84959D01*
X244211Y85459D01*
X244211Y86928D01*
X244211Y87428D01*
X244211Y88896D01*
X244211Y89396D01*
X244211Y90865D01*
X244211Y91365D01*
Y91721D01*
X242256D01*
X240301D01*
X240301Y91009D01*
X240301Y90509D01*
X240301Y89041D01*
X240301Y88541D01*
X240301Y87072D01*
X240301Y86572D01*
X240301Y85104D01*
X240301Y84604D01*
X240301Y83135D01*
X239858Y82996D01*
X238853D01*
X237694Y84155D01*
X237713Y84202D01*
Y85197D01*
X237332Y86115D01*
X236629Y86819D01*
X235710Y87199D01*
X234716D01*
X233797Y86819D01*
X233094Y86115D01*
X232713Y85197D01*
Y84336D01*
X232710Y84333D01*
X232254D01*
X231903Y84263D01*
X231606Y84064D01*
X230898Y83357D01*
X230699Y83059D01*
X230630Y82708D01*
Y81642D01*
X230490Y81199D01*
X228699D01*
Y82990D01*
X228699D01*
Y83135D01*
X228699D01*
Y84959D01*
X228699D01*
Y85104D01*
X228699D01*
Y86927D01*
X228699D01*
Y87072D01*
X228699D01*
Y88896D01*
X228699D01*
Y89041D01*
X228699D01*
Y90864D01*
X228699Y90865D01*
Y91009D01*
X228699D01*
X228699Y91365D01*
Y92346D01*
X228699Y92801D01*
X229153Y92801D01*
X230490Y92801D01*
X230991Y92801D01*
X232459Y92801D01*
X232959Y92801D01*
X234428Y92801D01*
X234928Y92801D01*
X236396Y92801D01*
X236896Y92801D01*
X238365Y92801D01*
X238865Y92801D01*
X239846D01*
X240301Y92801D01*
X240301Y92347D01*
Y92121D01*
X242056D01*
Y92833D01*
X240787D01*
X240333Y92833D01*
X240333Y93287D01*
Y96711D01*
X238509Y96711D01*
X238418Y97173D01*
Y98098D01*
X240158D01*
X240506Y98168D01*
X240801Y98365D01*
X240998Y98660D01*
X241067Y99008D01*
Y100059D01*
X242433D01*
Y99008D01*
X242502Y98660D01*
X242699Y98365D01*
X242994Y98168D01*
X243342Y98098D01*
X248657D01*
X249006Y98168D01*
X249301Y98365D01*
X249498Y98660D01*
X249567Y99008D01*
Y102945D01*
X249498Y103293D01*
X249301Y103588D01*
X249006Y103785D01*
X248657Y103855D01*
X243342D01*
X242994Y103785D01*
X242699Y103588D01*
X242502Y103293D01*
X242433Y102945D01*
Y101894D01*
X241067D01*
Y102945D01*
X240998Y103293D01*
X240801Y103588D01*
X240506Y103785D01*
X240158Y103855D01*
X234842D01*
X234494Y103785D01*
X234199Y103588D01*
X234002Y103293D01*
X233933Y102945D01*
Y99008D01*
X234002Y98660D01*
X234199Y98365D01*
X234494Y98168D01*
X234842Y98098D01*
X236582D01*
Y97134D01*
X236396Y96711D01*
X236041Y96711D01*
X234572Y96711D01*
X234072Y96711D01*
X232604Y96711D01*
X232465Y97153D01*
Y106174D01*
X232963Y106381D01*
X233433Y106850D01*
X233933Y106643D01*
Y106055D01*
X234002Y105707D01*
X234199Y105412D01*
X234494Y105215D01*
X234842Y105146D01*
X237300D01*
Y108024D01*
Y110902D01*
X234842D01*
X234494Y110833D01*
X234199Y110635D01*
X234002Y110340D01*
X233993Y110296D01*
X233451Y110132D01*
X232963Y110619D01*
X232465Y110826D01*
Y127953D01*
X232395Y128304D01*
X232196Y128602D01*
X224384Y136414D01*
Y139075D01*
X224322Y139384D01*
X224147Y139647D01*
X223885Y139822D01*
X223575Y139884D01*
X223418D01*
Y142587D01*
X226214Y145384D01*
X226413Y145681D01*
X226483Y146033D01*
Y153914D01*
X226413Y154265D01*
X226214Y154563D01*
X225917Y154762D01*
X225565Y154832D01*
X225079D01*
Y156173D01*
X225025Y156445D01*
X224871Y156675D01*
X224641Y156828D01*
X224370Y156882D01*
X221219D01*
X218570Y159531D01*
X218272Y159730D01*
X217921Y159800D01*
X211000D01*
Y160482D01*
X211461Y160575D01*
X214462D01*
X214813Y160645D01*
X215110Y160844D01*
X216149Y161883D01*
X216348Y162180D01*
X216418Y162531D01*
Y163616D01*
X217075D01*
X217385Y163678D01*
X217647Y163853D01*
X217822Y164116D01*
X217864Y164327D01*
X218155Y164553D01*
X218384Y164598D01*
X218546Y164435D01*
X219465Y164055D01*
X220460D01*
X221379Y164435D01*
X222082Y165139D01*
X222463Y166058D01*
Y167052D01*
X222082Y167971D01*
X221379Y168674D01*
X220460Y169055D01*
X219465D01*
X218546Y168674D01*
X218157Y168284D01*
X217647Y168147D01*
X217385Y168323D01*
X217075Y168384D01*
X213925D01*
X213615Y168323D01*
X213353Y168147D01*
X213178Y167885D01*
X213116Y167575D01*
Y164425D01*
X213178Y164116D01*
X213353Y163853D01*
X213615Y163678D01*
X213925Y163616D01*
X214582D01*
Y162912D01*
X214082Y162411D01*
X206438D01*
X206087Y162341D01*
X205789Y162142D01*
X204751Y161103D01*
X204552Y160806D01*
X204482Y160455D01*
Y157904D01*
X203982Y157697D01*
X203100Y158580D01*
Y160482D01*
X198000D01*
Y158911D01*
X197880Y158831D01*
X196688Y157639D01*
X196440Y157667D01*
X196081Y158075D01*
Y159450D01*
X190919D01*
Y158075D01*
X190947Y157933D01*
X190698Y157518D01*
X190601Y157433D01*
X184679D01*
X183933Y158179D01*
Y163500D01*
X183806Y163806D01*
X183500Y163933D01*
X181499D01*
X181450Y164433D01*
X181641Y164471D01*
X181871Y164625D01*
X182025Y164855D01*
X182079Y165126D01*
Y166599D01*
X176921D01*
Y165126D01*
X176975Y164855D01*
X177129Y164625D01*
X177359Y164471D01*
X177550Y164433D01*
X177501Y163933D01*
X173499D01*
X173450Y164433D01*
X173641Y164471D01*
X173871Y164625D01*
X174025Y164855D01*
X174079Y165126D01*
Y166599D01*
X168921D01*
Y165126D01*
X168975Y164855D01*
X169129Y164625D01*
X169359Y164471D01*
X169550Y164433D01*
X169501Y163933D01*
X158999D01*
X158950Y164433D01*
X159141Y164471D01*
X159371Y164625D01*
X159525Y164855D01*
X159579Y165126D01*
Y166599D01*
X154421D01*
Y165126D01*
X154475Y164855D01*
X154629Y164625D01*
X154859Y164471D01*
X155050Y164433D01*
X155001Y163933D01*
X133999D01*
X133950Y164433D01*
X134141Y164471D01*
X134371Y164625D01*
X134525Y164855D01*
X134579Y165126D01*
Y168472D01*
X134525Y168744D01*
X134371Y168974D01*
X134141Y169127D01*
X133870Y169181D01*
X130130D01*
X129859Y169127D01*
X129629Y168974D01*
X129475Y168744D01*
X129421Y168472D01*
Y165126D01*
X129475Y164855D01*
X129629Y164625D01*
X129859Y164471D01*
X130050Y164433D01*
X130001Y163933D01*
X126499D01*
X126450Y164433D01*
X126641Y164471D01*
X126871Y164625D01*
X127025Y164855D01*
X127079Y165126D01*
Y166599D01*
X121921D01*
Y165126D01*
X121975Y164855D01*
X122129Y164625D01*
X122359Y164471D01*
X122550Y164433D01*
X122501Y163933D01*
X111499D01*
X111450Y164433D01*
X111641Y164471D01*
X111871Y164625D01*
X112025Y164855D01*
X112079Y165126D01*
Y166599D01*
X106921D01*
Y165126D01*
X106975Y164855D01*
X107129Y164625D01*
X107359Y164471D01*
X107550Y164433D01*
X107501Y163933D01*
X95122D01*
X95005Y164188D01*
X94968Y164433D01*
X95619Y165084D01*
X96000Y166003D01*
Y166997D01*
X95619Y167916D01*
X94916Y168619D01*
X93997Y169000D01*
X93003D01*
X92084Y168619D01*
X91381Y167916D01*
X91174Y167418D01*
X90579D01*
Y168472D01*
X90525Y168744D01*
X90371Y168974D01*
X90141Y169127D01*
X89870Y169181D01*
X86130D01*
X85859Y169127D01*
X85629Y168974D01*
X85475Y168744D01*
X85421Y168472D01*
Y165126D01*
X85475Y164855D01*
X85629Y164625D01*
X85859Y164471D01*
X86050Y164433D01*
X86001Y163933D01*
X81999D01*
X81950Y164433D01*
X82141Y164471D01*
X82371Y164625D01*
X82525Y164855D01*
X82579Y165126D01*
Y168472D01*
X82525Y168744D01*
X82371Y168974D01*
X82141Y169127D01*
X81870Y169181D01*
X78130D01*
X77859Y169127D01*
X77629Y168974D01*
X77475Y168744D01*
X77434Y168538D01*
X77246Y168428D01*
X76921Y168344D01*
X76408Y168857D01*
X75490Y169237D01*
X74495D01*
X73576Y168857D01*
X73153Y168434D01*
X72619Y168416D01*
X71916Y169119D01*
X70997Y169500D01*
D02*
G37*
G36*
X181370Y169181D02*
X179700D01*
Y166999D01*
X182079D01*
Y168472D01*
X182025Y168744D01*
X181871Y168974D01*
X181641Y169127D01*
X181370Y169181D01*
D02*
G37*
G36*
X179300D02*
X177630D01*
X177359Y169127D01*
X177129Y168974D01*
X176975Y168744D01*
X176921Y168472D01*
Y166999D01*
X179300D01*
Y169181D01*
D02*
G37*
G36*
X173370D02*
X171700D01*
Y166999D01*
X174079D01*
Y168472D01*
X174025Y168744D01*
X173871Y168974D01*
X173641Y169127D01*
X173370Y169181D01*
D02*
G37*
G36*
X171300D02*
X169630D01*
X169359Y169127D01*
X169129Y168974D01*
X168975Y168744D01*
X168921Y168472D01*
Y166999D01*
X171300D01*
Y169181D01*
D02*
G37*
G36*
X158870D02*
X157200D01*
Y166999D01*
X159579D01*
Y168472D01*
X159525Y168744D01*
X159371Y168974D01*
X159141Y169127D01*
X158870Y169181D01*
D02*
G37*
G36*
X156800D02*
X155130D01*
X154859Y169127D01*
X154629Y168974D01*
X154475Y168744D01*
X154421Y168472D01*
Y166999D01*
X156800D01*
Y169181D01*
D02*
G37*
G36*
X126370D02*
X124700D01*
Y166999D01*
X127079D01*
Y168472D01*
X127025Y168744D01*
X126871Y168974D01*
X126641Y169127D01*
X126370Y169181D01*
D02*
G37*
G36*
X124300D02*
X122630D01*
X122359Y169127D01*
X122129Y168974D01*
X121975Y168744D01*
X121921Y168472D01*
Y166999D01*
X124300D01*
Y169181D01*
D02*
G37*
G36*
X111370D02*
X109700D01*
Y166999D01*
X112079D01*
Y168472D01*
X112025Y168744D01*
X111871Y168974D01*
X111641Y169127D01*
X111370Y169181D01*
D02*
G37*
G36*
X109300D02*
X107630D01*
X107359Y169127D01*
X107129Y168974D01*
X106975Y168744D01*
X106921Y168472D01*
Y166999D01*
X109300D01*
Y169181D01*
D02*
G37*
G36*
X195272Y162034D02*
X193700D01*
Y159850D01*
X196081D01*
Y161224D01*
X196019Y161534D01*
X195844Y161797D01*
X195581Y161972D01*
X195272Y162034D01*
D02*
G37*
G36*
X193300D02*
X191728D01*
X191419Y161972D01*
X191156Y161797D01*
X190981Y161534D01*
X190919Y161224D01*
Y159850D01*
X193300D01*
Y162034D01*
D02*
G37*
G36*
X276820Y162971D02*
X275865D01*
X274942Y162724D01*
X274115Y162246D01*
X273439Y161570D01*
X272961Y160743D01*
X272714Y159820D01*
Y158865D01*
X272961Y157942D01*
X273439Y157115D01*
X274115Y156439D01*
X274942Y155961D01*
X275865Y155714D01*
X276820D01*
X277743Y155961D01*
X278570Y156439D01*
X279246Y157115D01*
X279724Y157942D01*
X279971Y158865D01*
Y159820D01*
X279724Y160743D01*
X279246Y161570D01*
X278570Y162246D01*
X277743Y162724D01*
X276820Y162971D01*
D02*
G37*
G36*
X316077Y163366D02*
X314923D01*
X313790Y163141D01*
X312723Y162699D01*
X311763Y162058D01*
X310946Y161241D01*
X310305Y160281D01*
X309863Y159214D01*
X309637Y158081D01*
Y156927D01*
X309863Y155794D01*
X310305Y154727D01*
X310946Y153767D01*
X311763Y152950D01*
X312723Y152309D01*
X313790Y151867D01*
X314923Y151641D01*
X316077D01*
X317210Y151867D01*
X318277Y152309D01*
X319237Y152950D01*
X320054Y153767D01*
X320695Y154727D01*
X321137Y155794D01*
X321363Y156927D01*
Y158081D01*
X321137Y159214D01*
X320695Y160281D01*
X320054Y161241D01*
X319237Y162058D01*
X318277Y162699D01*
X317210Y163141D01*
X316077Y163366D01*
D02*
G37*
G36*
X203100Y150639D02*
X200750D01*
Y149239D01*
X203100D01*
Y150639D01*
D02*
G37*
G36*
Y148839D02*
X200750D01*
Y147439D01*
X203100D01*
Y148839D01*
D02*
G37*
G36*
X200350D02*
X198000D01*
Y147439D01*
X200350D01*
Y148839D01*
D02*
G37*
G36*
X203100Y145718D02*
X198000D01*
Y142518D01*
X203100D01*
Y145718D01*
D02*
G37*
G36*
X195272Y143384D02*
X193700D01*
Y141200D01*
X196081D01*
Y142575D01*
X196019Y142885D01*
X195844Y143147D01*
X195581Y143323D01*
X195272Y143384D01*
D02*
G37*
G36*
X193300D02*
X191728D01*
X191419Y143323D01*
X191156Y143147D01*
X190981Y142885D01*
X190919Y142575D01*
Y141200D01*
X193300D01*
Y143384D01*
D02*
G37*
G36*
X196081Y140800D02*
X193700D01*
Y138616D01*
X195272D01*
X195581Y138678D01*
X195844Y138853D01*
X196019Y139116D01*
X196081Y139425D01*
Y140800D01*
D02*
G37*
G36*
X193300D02*
X190919D01*
Y139425D01*
X190981Y139116D01*
X191156Y138853D01*
X191419Y138678D01*
X191728Y138616D01*
X193300D01*
Y140800D01*
D02*
G37*
G36*
X276820Y143286D02*
X275865D01*
X274942Y143039D01*
X274115Y142561D01*
X273439Y141885D01*
X272961Y141058D01*
X272714Y140135D01*
Y139180D01*
X272961Y138257D01*
X273439Y137430D01*
X274115Y136754D01*
X274942Y136276D01*
X275865Y136029D01*
X276820D01*
X277743Y136276D01*
X278570Y136754D01*
X279246Y137430D01*
X279724Y138257D01*
X279971Y139180D01*
Y140135D01*
X279724Y141058D01*
X279246Y141885D01*
X278570Y142561D01*
X277743Y143039D01*
X276820Y143286D01*
D02*
G37*
G36*
X211000Y145718D02*
X205900D01*
Y142518D01*
X209702D01*
X213114Y139107D01*
Y138969D01*
X213116Y138958D01*
Y135925D01*
X213178Y135616D01*
X213353Y135353D01*
X213615Y135178D01*
X213925Y135116D01*
X217075D01*
X217385Y135178D01*
X217647Y135353D01*
X217822Y135616D01*
X217884Y135925D01*
Y139075D01*
X217822Y139384D01*
X217647Y139647D01*
X217385Y139822D01*
X217075Y139884D01*
X214848D01*
X214680Y140136D01*
X211000Y143816D01*
Y145718D01*
D02*
G37*
G36*
X321500Y146933D02*
X308500D01*
X308194Y146806D01*
X286694Y125306D01*
X286255Y125032D01*
X286087Y125049D01*
X285925Y125081D01*
X284550D01*
Y122500D01*
X284350D01*
Y122300D01*
X281966D01*
Y120728D01*
X282028Y120419D01*
X282203Y120156D01*
X282410Y120018D01*
X282440Y119750D01*
X282410Y119482D01*
X282203Y119344D01*
X282028Y119081D01*
X281966Y118772D01*
Y117200D01*
X284350D01*
Y117000D01*
X284550D01*
Y114419D01*
X285925D01*
X286067Y114447D01*
X286323Y114294D01*
X286387Y114096D01*
Y113904D01*
X286323Y113707D01*
X286067Y113553D01*
X285925Y113581D01*
X284550D01*
Y111000D01*
Y108419D01*
X285925D01*
X286235Y108481D01*
X286246Y108488D01*
X286694Y108694D01*
X287000Y108567D01*
X288078D01*
X288099Y108576D01*
X288121Y108569D01*
X288249Y108638D01*
X288384Y108694D01*
X288765Y108481D01*
X289075Y108419D01*
X292224D01*
X292534Y108481D01*
X292915Y108694D01*
X293050Y108638D01*
X293179Y108569D01*
X293200Y108576D01*
X293221Y108567D01*
X308500D01*
X308806Y108694D01*
X309000Y108888D01*
X310567Y107321D01*
Y87179D01*
X308784Y85397D01*
X301909Y83923D01*
X301808Y83853D01*
X301694Y83806D01*
X298944Y81056D01*
X298817Y80750D01*
Y80250D01*
X298944Y79944D01*
X298944Y79944D01*
X299567Y79321D01*
Y76000D01*
X299694Y75694D01*
X300000Y75567D01*
X302392D01*
X302759Y75308D01*
X302828Y75206D01*
Y55047D01*
X302917Y54598D01*
X303171Y54218D01*
X309466Y47923D01*
Y45228D01*
X309528Y44919D01*
X309703Y44656D01*
X309966Y44481D01*
X310276Y44419D01*
X310564D01*
Y42628D01*
X310064Y42476D01*
X310033Y42521D01*
X309641Y42784D01*
X309377Y42836D01*
Y39500D01*
Y36164D01*
X309641Y36216D01*
X310033Y36479D01*
X310179Y36697D01*
X310186Y36700D01*
X310727D01*
X310735Y36697D01*
X310880Y36479D01*
X311273Y36216D01*
X311736Y36124D01*
X312199Y36216D01*
X312592Y36479D01*
X312738Y36697D01*
X312745Y36700D01*
X313286D01*
X313294Y36697D01*
X313439Y36479D01*
X313832Y36216D01*
X314295Y36124D01*
X314759Y36216D01*
X315151Y36479D01*
X315297Y36697D01*
X315304Y36700D01*
X315845D01*
X315853Y36697D01*
X315998Y36479D01*
X316391Y36216D01*
X316654Y36164D01*
Y39500D01*
Y42836D01*
X316391Y42784D01*
X315998Y42521D01*
X315853Y42303D01*
X315845Y42300D01*
X315304D01*
X315297Y42303D01*
X315151Y42521D01*
X314759Y42784D01*
X314295Y42876D01*
X313832Y42784D01*
X313439Y42521D01*
X313409Y42476D01*
X312909Y42628D01*
Y44419D01*
X313425D01*
X313735Y44481D01*
X313997Y44656D01*
X314173Y44919D01*
X314234Y45228D01*
Y48772D01*
X314173Y49081D01*
X313997Y49344D01*
X313735Y49519D01*
X313425Y49581D01*
X311124D01*
X305172Y55533D01*
Y75206D01*
X305241Y75309D01*
X305608Y75567D01*
X307500D01*
X307806Y75694D01*
X308806Y76694D01*
X308933Y77000D01*
Y83067D01*
X311500D01*
X311806Y83194D01*
X314306Y85694D01*
X314433Y86000D01*
Y107115D01*
X314933Y107267D01*
X314991Y107181D01*
X321073Y101099D01*
Y97122D01*
X321073Y97122D01*
X321181Y96575D01*
X321317Y96372D01*
X321050Y95872D01*
X319613D01*
Y92323D01*
Y88773D01*
X322142D01*
Y77781D01*
X322085Y77743D01*
X321585Y78010D01*
Y78353D01*
X321585D01*
Y78537D01*
X321585D01*
Y80596D01*
X321585Y80912D01*
X321585Y81412D01*
Y83155D01*
X321585Y83471D01*
X321585Y83971D01*
Y84642D01*
X318528D01*
Y84842D01*
D01*
Y84642D01*
X315470D01*
Y83971D01*
X315470Y83655D01*
X315470Y83155D01*
Y81412D01*
X315470Y81096D01*
X315470Y80347D01*
X315159Y80285D01*
X314861Y80086D01*
X312601Y77826D01*
X312403Y77529D01*
X312333Y77178D01*
Y64131D01*
X312403Y63780D01*
X312601Y63482D01*
X328072Y48011D01*
Y38961D01*
X326914Y37802D01*
X326843Y37874D01*
X326545Y38072D01*
X326194Y38142D01*
X325742D01*
Y41665D01*
X325650Y42129D01*
X325388Y42521D01*
X324995Y42784D01*
X324532Y42876D01*
X324068Y42784D01*
X323675Y42521D01*
X323530Y42303D01*
X323522Y42300D01*
X322982D01*
X322974Y42303D01*
X322829Y42521D01*
X322436Y42784D01*
X321972Y42876D01*
X321509Y42784D01*
X321116Y42521D01*
X320971Y42303D01*
X320963Y42300D01*
X320423D01*
X320415Y42303D01*
X320269Y42521D01*
X319877Y42784D01*
X319413Y42876D01*
X318950Y42784D01*
X318557Y42521D01*
X318412Y42303D01*
X318404Y42300D01*
X317864D01*
X317856Y42303D01*
X317710Y42521D01*
X317318Y42784D01*
X317054Y42836D01*
Y39500D01*
Y36164D01*
X317318Y36216D01*
X317710Y36479D01*
X318280Y36461D01*
X318496Y36237D01*
Y33975D01*
X298832Y14311D01*
X298478Y14241D01*
X298085Y13978D01*
X298034Y13902D01*
X297574Y13939D01*
X297496Y13978D01*
X297421Y14257D01*
X297512Y14396D01*
X298083Y14966D01*
X298463Y15885D01*
Y16880D01*
X298083Y17799D01*
X297379Y18502D01*
X296461Y18883D01*
X295466D01*
X294547Y18502D01*
X293919Y17874D01*
X292923D01*
X285384Y25414D01*
Y28075D01*
X285322Y28385D01*
X285147Y28647D01*
X284885Y28822D01*
X284575Y28884D01*
X281914D01*
X267775Y43023D01*
X267477Y43222D01*
X267126Y43292D01*
X261006D01*
Y43857D01*
X261006D01*
Y44041D01*
X261006D01*
Y47006D01*
X253907D01*
Y46349D01*
X253159D01*
X252841Y46611D01*
Y47444D01*
X252932Y47462D01*
X253244Y47670D01*
X253452Y47981D01*
X253525Y48348D01*
Y53565D01*
X253452Y53932D01*
X253244Y54244D01*
X252932Y54452D01*
X252565Y54525D01*
X251482D01*
X251115Y54452D01*
X250857Y54279D01*
X250617Y54340D01*
X250357Y54475D01*
Y54506D01*
X247707D01*
X247391Y54506D01*
Y54506D01*
X247207D01*
Y54506D01*
X244729D01*
X244419Y54970D01*
X244423Y55006D01*
X244647Y55156D01*
X244822Y55419D01*
X244884Y55728D01*
Y59272D01*
X244822Y59581D01*
X244647Y59844D01*
X244385Y60019D01*
X244075Y60081D01*
X240925D01*
X240616Y60019D01*
X240353Y59844D01*
X240178Y59581D01*
X240116Y59272D01*
Y55728D01*
X240178Y55419D01*
X240353Y55156D01*
X240577Y55006D01*
X240581Y54970D01*
X240271Y54506D01*
X239625D01*
Y50957D01*
Y47407D01*
X240592D01*
X240908Y47407D01*
X241517Y47407D01*
X241529Y47401D01*
X241553Y47398D01*
X241561Y47384D01*
X241583Y47330D01*
X241606Y47244D01*
X241625Y47129D01*
X241637Y46987D01*
X241642Y46808D01*
X241657Y46774D01*
Y44762D01*
X235851Y38956D01*
X235652Y38658D01*
X235582Y38307D01*
Y35000D01*
Y31326D01*
X235084Y31119D01*
X234381Y30416D01*
X234000Y29497D01*
Y28503D01*
X234381Y27584D01*
X235084Y26881D01*
X235358Y26767D01*
Y23011D01*
X234820D01*
X234469Y22941D01*
X234171Y22742D01*
X233644Y22215D01*
X233445Y21917D01*
X233398Y21680D01*
X233311Y21593D01*
X232514D01*
X232307Y22093D01*
X232648Y22434D01*
X233029Y23353D01*
Y24348D01*
X232648Y25267D01*
X231945Y25970D01*
X231026Y26350D01*
X230031D01*
X229112Y25970D01*
X228593Y25450D01*
X228093Y25657D01*
Y28109D01*
X228093D01*
Y28293D01*
X228093D01*
Y31258D01*
X228093Y31258D01*
Y31442D01*
X228093D01*
X228093Y31758D01*
Y34408D01*
X228093D01*
Y34592D01*
X228093D01*
Y37558D01*
X228093Y37558D01*
Y37742D01*
X228093D01*
X228093Y38058D01*
Y40707D01*
X228093D01*
Y40891D01*
X228093D01*
Y43541D01*
X228093Y43857D01*
X228093Y44357D01*
Y47006D01*
X220994D01*
Y46441D01*
X185856D01*
X185276Y47021D01*
X184979Y47220D01*
X184628Y47290D01*
X182956D01*
X182618Y47796D01*
X182252Y48040D01*
Y48642D01*
X182618Y48886D01*
X183054Y49539D01*
X183207Y50309D01*
X183054Y51080D01*
X182618Y51733D01*
X181964Y52170D01*
X181194Y52323D01*
X179422D01*
X178652Y52170D01*
X177998Y51733D01*
X177562Y51080D01*
X177409Y50309D01*
X177562Y49539D01*
X177998Y48886D01*
X178364Y48642D01*
Y48040D01*
X177998Y47796D01*
X177562Y47143D01*
X177409Y46372D01*
X177562Y45602D01*
X177998Y44949D01*
X178364Y44705D01*
Y44103D01*
X177998Y43859D01*
X177562Y43206D01*
X177409Y42435D01*
X177562Y41665D01*
X177998Y41012D01*
X178652Y40575D01*
X179422Y40422D01*
X181194D01*
X181964Y40575D01*
X182618Y41012D01*
X183054Y41665D01*
X183207Y42435D01*
X183054Y43206D01*
X182618Y43859D01*
X182252Y44103D01*
Y44705D01*
X182618Y44949D01*
X182956Y45455D01*
X184248D01*
X184827Y44875D01*
X185125Y44676D01*
X185476Y44606D01*
X220640D01*
X220994Y44252D01*
Y44041D01*
X220994Y43454D01*
X220975Y43419D01*
X220972Y43395D01*
X220960Y43387D01*
X220907Y43365D01*
X220824Y43343D01*
X220711Y43324D01*
X220571Y43312D01*
X220394Y43307D01*
X220360Y43292D01*
X219374D01*
X219023Y43222D01*
X218725Y43023D01*
X214320Y38618D01*
X157257D01*
X156608Y39266D01*
Y48309D01*
X156538Y48660D01*
X156340Y48958D01*
X154503Y50794D01*
X154206Y50993D01*
X153934Y51047D01*
X153863Y51078D01*
X153620Y51083D01*
X153523Y51091D01*
X153094Y51733D01*
X152441Y52170D01*
X151670Y52323D01*
X149898D01*
X149128Y52170D01*
X148475Y51733D01*
X148038Y51080D01*
X147885Y50309D01*
X148038Y49539D01*
X148475Y48886D01*
X148840Y48642D01*
Y48040D01*
X148475Y47796D01*
X148038Y47143D01*
X147885Y46372D01*
X148038Y45602D01*
X148475Y44949D01*
X148840Y44705D01*
Y44103D01*
X148475Y43859D01*
X148038Y43206D01*
X147885Y42435D01*
X148038Y41665D01*
X148475Y41012D01*
X149128Y40575D01*
X149898Y40422D01*
X151670D01*
X152441Y40575D01*
X153094Y41012D01*
X153530Y41665D01*
X153684Y42435D01*
X153530Y43206D01*
X153094Y43859D01*
X152728Y44103D01*
Y44705D01*
X153094Y44949D01*
X153530Y45602D01*
X153684Y46372D01*
X153530Y47143D01*
X153094Y47796D01*
X152728Y48040D01*
Y48642D01*
X153094Y48886D01*
X153118Y48922D01*
X153724Y48979D01*
X154773Y47929D01*
Y38886D01*
X154843Y38535D01*
X155042Y38237D01*
X155861Y37418D01*
X155654Y36918D01*
X128702D01*
X123781Y41838D01*
X123900Y42435D01*
X123747Y43206D01*
X123310Y43859D01*
X122945Y44103D01*
Y44705D01*
X123310Y44949D01*
X123747Y45602D01*
X123900Y46372D01*
X123747Y47143D01*
X123310Y47796D01*
X122945Y48040D01*
Y48642D01*
X123310Y48886D01*
X123747Y49539D01*
X123900Y50309D01*
X123747Y51080D01*
X123310Y51733D01*
X122657Y52170D01*
X121887Y52323D01*
X120115D01*
X119344Y52170D01*
X118691Y51733D01*
X118255Y51080D01*
X118102Y50309D01*
X118255Y49539D01*
X118691Y48886D01*
X119057Y48642D01*
Y48040D01*
X118691Y47796D01*
X118255Y47143D01*
X118102Y46372D01*
X118255Y45602D01*
X118691Y44949D01*
X119057Y44705D01*
Y44103D01*
X118691Y43859D01*
X118255Y43206D01*
X118102Y42435D01*
X118255Y41665D01*
X118691Y41012D01*
X119344Y40575D01*
X120115Y40422D01*
X121887D01*
X122484Y40541D01*
X127673Y35351D01*
X127971Y35152D01*
X128322Y35082D01*
X203100D01*
X203234Y34851D01*
X203285Y34582D01*
X191505Y22803D01*
X182956D01*
X182618Y23309D01*
X182252Y23553D01*
Y24155D01*
X182618Y24399D01*
X183054Y25052D01*
X183207Y25822D01*
X183054Y26593D01*
X182618Y27246D01*
X181964Y27683D01*
X181194Y27836D01*
X179422D01*
X178652Y27683D01*
X177998Y27246D01*
X177562Y26593D01*
X177409Y25822D01*
X177562Y25052D01*
X177998Y24399D01*
X178364Y24155D01*
Y23553D01*
X177998Y23309D01*
X177562Y22656D01*
X177409Y21885D01*
X177562Y21115D01*
X177998Y20462D01*
X178364Y20218D01*
Y19616D01*
X177998Y19372D01*
X177562Y18719D01*
X177409Y17948D01*
X177562Y17178D01*
X177998Y16525D01*
X178652Y16088D01*
X179422Y15935D01*
X181194D01*
X181964Y16088D01*
X182618Y16525D01*
X183054Y17178D01*
X183207Y17948D01*
X183054Y18719D01*
X182618Y19372D01*
X182252Y19616D01*
Y20218D01*
X182618Y20462D01*
X182956Y20968D01*
X188887D01*
X189078Y20506D01*
X182490Y13918D01*
X158860D01*
X155745Y17033D01*
Y22666D01*
X155675Y23017D01*
X155476Y23314D01*
X153565Y25225D01*
X153684Y25822D01*
X153530Y26593D01*
X153094Y27246D01*
X152441Y27683D01*
X151670Y27836D01*
X149898D01*
X149128Y27683D01*
X148475Y27246D01*
X148038Y26593D01*
X147885Y25822D01*
X148038Y25052D01*
X148475Y24399D01*
X148840Y24155D01*
Y23553D01*
X148475Y23309D01*
X148038Y22656D01*
X147885Y21885D01*
X148038Y21115D01*
X148475Y20462D01*
X148840Y20218D01*
Y19616D01*
X148475Y19372D01*
X148038Y18719D01*
X147885Y17948D01*
X148038Y17178D01*
X148475Y16525D01*
X149128Y16088D01*
X149898Y15935D01*
X151670D01*
X152441Y16088D01*
X153094Y16525D01*
X153409Y16997D01*
X153909Y16845D01*
Y16653D01*
X153979Y16302D01*
X154178Y16004D01*
X157303Y12880D01*
X157111Y12418D01*
X131380D01*
X125200Y18597D01*
X124903Y18796D01*
X124552Y18866D01*
X123649D01*
X123310Y19372D01*
X122945Y19616D01*
Y20218D01*
X123310Y20462D01*
X123747Y21115D01*
X123900Y21885D01*
X123747Y22656D01*
X123310Y23309D01*
X122945Y23553D01*
Y24155D01*
X123310Y24399D01*
X123747Y25052D01*
X123900Y25822D01*
X123747Y26593D01*
X123310Y27246D01*
X122657Y27683D01*
X121887Y27836D01*
X120115D01*
X119344Y27683D01*
X118691Y27246D01*
X118255Y26593D01*
X118102Y25822D01*
X118255Y25052D01*
X118691Y24399D01*
X119057Y24155D01*
Y23553D01*
X118691Y23309D01*
X118255Y22656D01*
X118102Y21885D01*
X118255Y21115D01*
X118691Y20462D01*
X119057Y20218D01*
Y19616D01*
X118691Y19372D01*
X118255Y18719D01*
X118102Y17948D01*
X118255Y17178D01*
X118691Y16525D01*
X119344Y16088D01*
X120115Y15935D01*
X121887D01*
X122657Y16088D01*
X123310Y16525D01*
X123649Y17031D01*
X124171D01*
X130351Y10851D01*
X130649Y10652D01*
X131000Y10582D01*
X183350D01*
X183701Y10652D01*
X183999Y10851D01*
X191010Y17863D01*
X191102Y17844D01*
X191187Y17713D01*
X191328Y17290D01*
X191000Y16497D01*
Y15503D01*
X191381Y14584D01*
X192084Y13881D01*
X193003Y13500D01*
X193997D01*
X194916Y13881D01*
X195619Y14584D01*
X196000Y15503D01*
Y16497D01*
X195619Y17416D01*
X195763Y17965D01*
X203380Y25582D01*
X220361D01*
X220396Y25567D01*
X220574Y25563D01*
X220717Y25552D01*
X220833Y25534D01*
X220921Y25513D01*
X220977Y25493D01*
X220984Y25489D01*
X220994Y25472D01*
X220994Y25143D01*
X220994Y24643D01*
Y21994D01*
X228093D01*
Y21994D01*
X228273Y21937D01*
X228383Y21898D01*
X228494Y21593D01*
X228494D01*
Y15791D01*
X227620Y14918D01*
X224956D01*
Y15896D01*
X224575Y16815D01*
X223872Y17518D01*
X222953Y17899D01*
X221958D01*
X221040Y17518D01*
X220336Y16815D01*
X219956Y15896D01*
Y14901D01*
X220336Y13983D01*
X221040Y13279D01*
X221592Y13050D01*
X221582Y13000D01*
Y5556D01*
X221652Y5204D01*
X221851Y4907D01*
X223437Y3321D01*
X223735Y3122D01*
X224086Y3052D01*
X254470D01*
X254821Y3122D01*
X255119Y3321D01*
X256004Y4206D01*
X256503Y4000D01*
X257497D01*
X258416Y4381D01*
X259119Y5084D01*
X259500Y6003D01*
Y6997D01*
X259119Y7916D01*
X258416Y8619D01*
X257497Y9000D01*
X256503D01*
X255584Y8619D01*
X255123Y8158D01*
X254533Y8276D01*
X254487Y8386D01*
X253784Y9089D01*
X253114Y9367D01*
Y14494D01*
X253506D01*
Y21593D01*
X251573D01*
X251295Y22009D01*
X251500Y22503D01*
Y23497D01*
X251119Y24416D01*
X250416Y25119D01*
X249497Y25500D01*
X248503D01*
X247584Y25119D01*
X246881Y24416D01*
X246500Y23497D01*
Y22503D01*
X246705Y22009D01*
X246427Y21593D01*
X244242D01*
Y21593D01*
X244057D01*
Y21593D01*
X242869D01*
X242881Y21518D01*
X242906Y21425D01*
X242937Y21347D01*
X242976Y21283D01*
X243021Y21233D01*
X243074Y21197D01*
X243133Y21176D01*
X243200Y21169D01*
X242775D01*
Y18043D01*
X242375D01*
Y21169D01*
X241800D01*
X241866Y21176D01*
X241926Y21197D01*
X241979Y21233D01*
X242024Y21283D01*
X242062Y21347D01*
X242094Y21425D01*
X242119Y21518D01*
X242131Y21593D01*
X241092D01*
Y21593D01*
X240908D01*
Y21593D01*
X239240D01*
X239153Y21680D01*
X239106Y21917D01*
X238907Y22215D01*
X238380Y22742D01*
X238082Y22941D01*
X237731Y23011D01*
X237193D01*
Y26581D01*
X237916Y26881D01*
X238619Y27584D01*
X238889Y28234D01*
X243319D01*
X243381Y28084D01*
X244084Y27381D01*
X245003Y27000D01*
X245997D01*
X246916Y27381D01*
X247619Y28084D01*
X248000Y29003D01*
Y29997D01*
X247619Y30916D01*
X246916Y31619D01*
X245997Y32000D01*
X245003D01*
X244084Y31619D01*
X243381Y30916D01*
X243030Y30069D01*
X238763D01*
X238619Y30416D01*
X237916Y31119D01*
X237418Y31326D01*
Y34082D01*
X243174D01*
X243381Y33584D01*
X244084Y32881D01*
X245003Y32500D01*
X245997D01*
X246916Y32881D01*
X247619Y33584D01*
X248000Y34503D01*
Y35497D01*
X247619Y36416D01*
X246916Y37119D01*
X245997Y37500D01*
X245003D01*
X244084Y37119D01*
X243381Y36416D01*
X243174Y35918D01*
X237418D01*
Y37927D01*
X239471Y39980D01*
X239933Y39789D01*
Y39500D01*
X240313Y38581D01*
X241017Y37878D01*
X241935Y37497D01*
X242930D01*
X243849Y37878D01*
X244552Y38581D01*
X244933Y39500D01*
Y39809D01*
X245395Y40000D01*
X245494Y39901D01*
X246413Y39520D01*
X247407D01*
X248326Y39901D01*
X248747Y40321D01*
X249324Y40191D01*
X249589Y39550D01*
X250292Y38847D01*
X251211Y38466D01*
X252206D01*
X253125Y38847D01*
X253407Y39129D01*
X253907Y38922D01*
Y37742D01*
X253907Y37742D01*
Y37558D01*
X253907D01*
X253907Y37242D01*
Y34592D01*
X253907D01*
Y34408D01*
X253907D01*
Y31836D01*
X253407Y31628D01*
X252916Y32119D01*
X251997Y32500D01*
X251003D01*
X250084Y32119D01*
X249381Y31416D01*
X249000Y30497D01*
Y29503D01*
X249381Y28584D01*
X250084Y27881D01*
X251003Y27500D01*
X251997D01*
X252916Y27881D01*
X253407Y28372D01*
X253907Y28293D01*
X253907Y27793D01*
Y25459D01*
X253907Y25143D01*
X253907D01*
Y24959D01*
X253907D01*
Y21994D01*
X261006D01*
Y22559D01*
X261832D01*
X262000Y22390D01*
Y21503D01*
X262381Y20584D01*
X263084Y19881D01*
X264003Y19500D01*
X264997D01*
X265916Y19881D01*
X266619Y20584D01*
X267000Y21503D01*
Y22497D01*
X266619Y23416D01*
X266112Y23923D01*
X265972Y24250D01*
X266112Y24577D01*
X266619Y25084D01*
X267000Y26003D01*
Y26997D01*
X266619Y27916D01*
X265916Y28619D01*
X264997Y29000D01*
X264003D01*
X263084Y28619D01*
X262381Y27916D01*
X262200Y27481D01*
X261640D01*
X261606Y27496D01*
X261426Y27501D01*
X261284Y27513D01*
X261169Y27532D01*
X261084Y27555D01*
X261030Y27576D01*
X261015Y27585D01*
X261013Y27609D01*
X261006Y27621D01*
X261006Y28109D01*
X261006Y28609D01*
Y30942D01*
X261006Y31442D01*
X261130Y31561D01*
X261506Y31714D01*
X261513Y31710D01*
X261659Y31609D01*
X261718Y31563D01*
X261759Y31462D01*
X262462Y30759D01*
X263381Y30379D01*
X264376D01*
X265295Y30759D01*
X265998Y31462D01*
X266379Y32381D01*
Y33376D01*
X265998Y34295D01*
X265546Y34747D01*
X265474Y35229D01*
X265580Y35366D01*
X266173Y35959D01*
X266553Y36878D01*
Y37184D01*
X267054Y37391D01*
X268219Y36226D01*
Y31863D01*
X268289Y31512D01*
X268488Y31214D01*
X272116Y27586D01*
Y24925D01*
X272178Y24615D01*
X272353Y24353D01*
X272616Y24178D01*
X272925Y24116D01*
X275586D01*
X286942Y12761D01*
X287239Y12562D01*
X287591Y12492D01*
X290076D01*
Y7604D01*
X292451D01*
Y7807D01*
X292951Y7959D01*
X292967Y7935D01*
X293359Y7673D01*
X293823Y7581D01*
X294286Y7673D01*
X294679Y7935D01*
X294825Y8153D01*
X294832Y8156D01*
X295373D01*
X295380Y8153D01*
X295526Y7935D01*
X295919Y7673D01*
X296382Y7581D01*
X296845Y7673D01*
X297238Y7935D01*
X297384Y8153D01*
X297391Y8156D01*
X297932D01*
X297939Y8153D01*
X298085Y7935D01*
X298478Y7673D01*
X298941Y7581D01*
X299404Y7673D01*
X299797Y7935D01*
X299849Y8014D01*
X300393Y8047D01*
X300686Y7737D01*
Y6575D01*
X300291Y6412D01*
X299588Y5709D01*
X299207Y4790D01*
Y3795D01*
X299588Y2876D01*
X300291Y2173D01*
X301210Y1792D01*
X302205D01*
X303124Y2173D01*
X303827Y2876D01*
X304207Y3795D01*
Y4790D01*
X303827Y5709D01*
X303124Y6412D01*
X302521Y6661D01*
Y7785D01*
X302640Y7882D01*
X303203Y7935D01*
X303596Y7673D01*
X304059Y7581D01*
X304522Y7673D01*
X304915Y7935D01*
X305061Y8153D01*
X305068Y8156D01*
X305609D01*
X305616Y8153D01*
X305762Y7935D01*
X306155Y7673D01*
X306418Y7621D01*
Y10957D01*
Y14293D01*
X306155Y14241D01*
X305762Y13978D01*
X305616Y13760D01*
X305609Y13757D01*
X305068D01*
X305061Y13760D01*
X304915Y13978D01*
X304522Y14241D01*
X304059Y14333D01*
X303596Y14241D01*
X303203Y13978D01*
X303057Y13760D01*
X303050Y13757D01*
X302509D01*
X302502Y13760D01*
X302356Y13978D01*
X302024Y14200D01*
X301940Y14396D01*
X301883Y14766D01*
X320062Y32946D01*
X320261Y33243D01*
X320331Y33595D01*
Y36571D01*
X320415Y36697D01*
X320423Y36700D01*
X320963D01*
X320971Y36697D01*
X321116Y36479D01*
X321509Y36216D01*
X321864Y36146D01*
X323553Y34456D01*
X323851Y34257D01*
X324202Y34187D01*
X327494D01*
X327845Y34257D01*
X328143Y34456D01*
X331039Y37352D01*
X331238Y37649D01*
X331308Y38001D01*
Y48971D01*
X331238Y49322D01*
X331039Y49620D01*
X317544Y63114D01*
X317736Y63576D01*
X319214D01*
Y66926D01*
X316258D01*
Y65393D01*
X315757Y65145D01*
X315568Y65289D01*
Y73419D01*
X320047D01*
X320185Y73391D01*
X321606D01*
X321606Y73391D01*
X322152Y73500D01*
X322615Y73810D01*
X324419Y75613D01*
X324919Y75406D01*
Y75200D01*
X328859D01*
Y79140D01*
X324997D01*
Y80309D01*
X328859D01*
Y84449D01*
Y88589D01*
X324997D01*
Y91339D01*
X325497Y91491D01*
X325724Y91151D01*
X326442Y90671D01*
X327289Y90502D01*
X328861D01*
Y92716D01*
X329061D01*
D01*
X328861D01*
Y94931D01*
X327289D01*
X326442Y94762D01*
X325724Y94282D01*
X325497Y93942D01*
X324997Y94094D01*
Y96052D01*
X324888Y96599D01*
X324579Y97062D01*
X324579Y97062D01*
X323927Y97713D01*
Y101690D01*
X323927Y101690D01*
X323819Y102236D01*
X323509Y102699D01*
X323509Y102699D01*
X317427Y108781D01*
Y114949D01*
X318277Y115301D01*
X319237Y115942D01*
X320054Y116759D01*
X320695Y117719D01*
X321137Y118786D01*
X321363Y119919D01*
Y121073D01*
X321137Y122206D01*
X320695Y123273D01*
X320054Y124233D01*
X319237Y125050D01*
X318277Y125691D01*
X317210Y126133D01*
X316077Y126359D01*
X314923D01*
X313790Y126133D01*
X312723Y125691D01*
X311763Y125050D01*
X310946Y124233D01*
X310305Y123273D01*
X309863Y122206D01*
X309637Y121073D01*
Y119919D01*
X309863Y118786D01*
X310305Y117719D01*
X310946Y116759D01*
X311763Y115942D01*
X312723Y115301D01*
X313790Y114859D01*
X314573Y114703D01*
Y109747D01*
X314073Y109540D01*
X309806Y113806D01*
X309500Y113933D01*
X305933D01*
Y129321D01*
X308679Y132067D01*
X321500D01*
X321806Y132194D01*
X321933Y132500D01*
Y136859D01*
X321885Y136976D01*
X321860Y137100D01*
X321823Y137124D01*
X321806Y137165D01*
X321690Y137214D01*
X321585Y137284D01*
X321500Y137301D01*
X321222Y137716D01*
X321363Y138423D01*
Y139577D01*
X321153Y140631D01*
X321585Y140716D01*
X321689Y140787D01*
X321806Y140835D01*
X321823Y140876D01*
X321860Y140901D01*
X321885Y141024D01*
X321933Y141141D01*
Y146500D01*
X321806Y146806D01*
X321500Y146933D01*
D02*
G37*
G36*
X284150Y125081D02*
X282776D01*
X282466Y125019D01*
X282203Y124844D01*
X282028Y124581D01*
X281966Y124272D01*
Y122700D01*
X284150D01*
Y125081D01*
D02*
G37*
G36*
Y116800D02*
X281966D01*
Y115228D01*
X282028Y114919D01*
X282203Y114656D01*
X282466Y114481D01*
X282776Y114419D01*
X284150D01*
Y116800D01*
D02*
G37*
G36*
Y113581D02*
X282776D01*
X282466Y113519D01*
X282203Y113344D01*
X282028Y113081D01*
X281966Y112772D01*
Y111200D01*
X284150D01*
Y113581D01*
D02*
G37*
G36*
X196844Y111159D02*
X196274Y111045D01*
X195620Y110609D01*
X195376Y110243D01*
X194775D01*
X194531Y110609D01*
X193878Y111045D01*
X193307Y111159D01*
Y108299D01*
Y105440D01*
X193878Y105553D01*
X194531Y105990D01*
X194775Y106355D01*
X195376D01*
X195620Y105990D01*
X196274Y105553D01*
X196844Y105440D01*
Y108299D01*
Y111159D01*
D02*
G37*
G36*
X192907D02*
X192337Y111045D01*
X191683Y110609D01*
X191247Y109956D01*
X191094Y109185D01*
Y108499D01*
X192907D01*
Y111159D01*
D02*
G37*
G36*
X201181D02*
Y108499D01*
X202995D01*
Y109185D01*
X202841Y109956D01*
X202405Y110609D01*
X201752Y111045D01*
X201181Y111159D01*
D02*
G37*
G36*
X284150Y110800D02*
X281966D01*
Y109228D01*
X282028Y108919D01*
X282203Y108656D01*
X282466Y108481D01*
X282776Y108419D01*
X284150D01*
Y110800D01*
D02*
G37*
G36*
X248657Y110902D02*
X246200D01*
Y108224D01*
X249567D01*
Y109992D01*
X249498Y110340D01*
X249301Y110635D01*
X249006Y110833D01*
X248657Y110902D01*
D02*
G37*
G36*
X240158D02*
X237700D01*
Y108224D01*
X241067D01*
Y109992D01*
X240998Y110340D01*
X240801Y110635D01*
X240506Y110833D01*
X240158Y110902D01*
D02*
G37*
G36*
X245800D02*
X243342D01*
X242994Y110833D01*
X242699Y110635D01*
X242502Y110340D01*
X242433Y109992D01*
Y108224D01*
X245800D01*
Y110902D01*
D02*
G37*
G36*
X197244Y111159D02*
Y108299D01*
Y105440D01*
X197815Y105553D01*
X198468Y105990D01*
X198712Y106355D01*
X199313D01*
X199557Y105990D01*
X200211Y105553D01*
X200781Y105440D01*
Y108299D01*
Y111159D01*
X200211Y111045D01*
X199557Y110609D01*
X199313Y110243D01*
X198712D01*
X198468Y110609D01*
X197815Y111045D01*
X197244Y111159D01*
D02*
G37*
G36*
X202995Y108099D02*
X201181D01*
Y105440D01*
X201752Y105553D01*
X202405Y105990D01*
X202841Y106643D01*
X202995Y107413D01*
Y108099D01*
D02*
G37*
G36*
X192907Y108099D02*
X191094D01*
Y107413D01*
X191247Y106643D01*
X191683Y105990D01*
X192337Y105553D01*
X192907Y105440D01*
Y108099D01*
D02*
G37*
G36*
X249567Y107824D02*
X246200D01*
Y105146D01*
X248657D01*
X249006Y105215D01*
X249301Y105412D01*
X249498Y105707D01*
X249567Y106055D01*
Y107824D01*
D02*
G37*
G36*
X245800D02*
X242433D01*
Y106055D01*
X242502Y105707D01*
X242699Y105412D01*
X242994Y105215D01*
X243342Y105146D01*
X245800D01*
Y107824D01*
D02*
G37*
G36*
X241067D02*
X237700D01*
Y105146D01*
X240158D01*
X240506Y105215D01*
X240801Y105412D01*
X240998Y105707D01*
X241067Y106055D01*
Y107824D01*
D02*
G37*
G36*
X219370Y100382D02*
X217700D01*
Y98200D01*
X220079D01*
Y99673D01*
X220025Y99945D01*
X219871Y100174D01*
X219641Y100328D01*
X219370Y100382D01*
D02*
G37*
G36*
X217300D02*
X215630D01*
X215359Y100328D01*
X215129Y100174D01*
X214975Y99945D01*
X214921Y99673D01*
Y98200D01*
X217300D01*
Y100382D01*
D02*
G37*
G36*
X200981Y98994D02*
X200211Y98841D01*
X199557Y98404D01*
X199313Y98039D01*
X198712D01*
X198468Y98404D01*
X197815Y98841D01*
X197044Y98994D01*
X196274Y98841D01*
X195620Y98404D01*
X195376Y98039D01*
X194775D01*
X194531Y98404D01*
X193878Y98841D01*
X193107Y98994D01*
X192337Y98841D01*
X191683Y98404D01*
X191247Y97751D01*
X191094Y96980D01*
Y95209D01*
X191247Y94438D01*
X191398Y94212D01*
X190895Y93708D01*
X190696Y93411D01*
X190627Y93060D01*
Y90579D01*
X189674D01*
X189403Y90525D01*
X189173Y90371D01*
X189019Y90141D01*
X188965Y89870D01*
Y86524D01*
X189019Y86252D01*
X189173Y86022D01*
X189403Y85869D01*
X189674Y85815D01*
X193414D01*
X193685Y85869D01*
X193915Y86022D01*
X194023Y86183D01*
X194294Y86221D01*
X194565Y86183D01*
X194673Y86022D01*
X194903Y85869D01*
X195174Y85815D01*
X198914D01*
X199186Y85869D01*
X199416Y86022D01*
X199492Y86137D01*
X199965Y86102D01*
X200013Y86085D01*
X200019Y86052D01*
X200173Y85822D01*
X200403Y85668D01*
X200674Y85614D01*
X204414D01*
X204685Y85668D01*
X204915Y85822D01*
X205069Y86052D01*
X205123Y86323D01*
Y89669D01*
X205069Y89941D01*
X204915Y90171D01*
X204685Y90324D01*
X204414Y90378D01*
X203418D01*
Y93548D01*
X203348Y93899D01*
X203149Y94197D01*
X202852Y94494D01*
X202995Y95209D01*
Y96980D01*
X202841Y97751D01*
X202405Y98404D01*
X201752Y98841D01*
X200981Y98994D01*
D02*
G37*
G36*
X220079Y97800D02*
X217700D01*
Y95618D01*
X219370D01*
X219641Y95672D01*
X219871Y95825D01*
X220025Y96056D01*
X220079Y96327D01*
Y97800D01*
D02*
G37*
G36*
X217300D02*
X214921D01*
Y96327D01*
X214975Y96056D01*
X215129Y95825D01*
X215359Y95672D01*
X215630Y95618D01*
X217300D01*
Y97800D01*
D02*
G37*
G36*
X330833Y94931D02*
X329261D01*
Y92917D01*
X333007D01*
X332878Y93564D01*
X332398Y94282D01*
X331680Y94762D01*
X330833Y94931D01*
D02*
G37*
G36*
X319213Y95872D02*
X316258D01*
Y92523D01*
X319213D01*
Y95872D01*
D02*
G37*
G36*
X270390Y94959D02*
X270200D01*
Y92200D01*
X272959D01*
Y92390D01*
X272757Y93142D01*
X272368Y93817D01*
X271817Y94368D01*
X271142Y94757D01*
X270390Y94959D01*
D02*
G37*
G36*
X269800D02*
X269610D01*
X268858Y94757D01*
X268183Y94368D01*
X267632Y93817D01*
X267243Y93142D01*
X267041Y92390D01*
Y92200D01*
X269800D01*
Y94959D01*
D02*
G37*
G36*
X242456Y92833D02*
Y92121D01*
X244211D01*
Y92833D01*
X242456D01*
D02*
G37*
G36*
X333007Y92516D02*
X329261D01*
Y90502D01*
X330833D01*
X331680Y90671D01*
X332398Y91151D01*
X332878Y91869D01*
X333007Y92516D01*
D02*
G37*
G36*
X304390Y92959D02*
X304200D01*
Y90200D01*
X306959D01*
Y90390D01*
X306757Y91142D01*
X306368Y91817D01*
X305817Y92368D01*
X305142Y92757D01*
X304390Y92959D01*
D02*
G37*
G36*
X303800D02*
X303610D01*
X302858Y92757D01*
X302183Y92368D01*
X301632Y91817D01*
X301243Y91142D01*
X301041Y90390D01*
Y90200D01*
X303800D01*
Y92959D01*
D02*
G37*
G36*
X250772Y91534D02*
X249200D01*
Y89350D01*
X251581D01*
Y90724D01*
X251519Y91034D01*
X251344Y91297D01*
X251081Y91472D01*
X250772Y91534D01*
D02*
G37*
G36*
X248800D02*
X247228D01*
X246919Y91472D01*
X246656Y91297D01*
X246481Y91034D01*
X246419Y90724D01*
Y89350D01*
X248800D01*
Y91534D01*
D02*
G37*
G36*
X280390Y94959D02*
X279610D01*
X278858Y94757D01*
X278183Y94368D01*
X277632Y93817D01*
X277243Y93142D01*
X277041Y92390D01*
Y91610D01*
X277243Y90858D01*
X277632Y90183D01*
X278183Y89632D01*
X278858Y89243D01*
X279610Y89041D01*
X280390D01*
X281142Y89243D01*
X281817Y89632D01*
X282368Y90183D01*
X282757Y90858D01*
X282959Y91610D01*
Y92390D01*
X282757Y93142D01*
X282368Y93817D01*
X281817Y94368D01*
X281142Y94757D01*
X280390Y94959D01*
D02*
G37*
G36*
X272959Y91800D02*
X270200D01*
Y89041D01*
X270390D01*
X271142Y89243D01*
X271817Y89632D01*
X272368Y90183D01*
X272757Y90858D01*
X272959Y91610D01*
Y91800D01*
D02*
G37*
G36*
X269800D02*
X267041D01*
Y91610D01*
X267243Y90858D01*
X267632Y90183D01*
X268183Y89632D01*
X268858Y89243D01*
X269610Y89041D01*
X269800D01*
Y91800D01*
D02*
G37*
G36*
X319213Y92123D02*
X316258D01*
Y88773D01*
X319213D01*
Y92123D01*
D02*
G37*
G36*
X306959Y89800D02*
X304200D01*
Y87041D01*
X304390D01*
X305142Y87243D01*
X305817Y87632D01*
X306368Y88183D01*
X306757Y88858D01*
X306959Y89610D01*
Y89800D01*
D02*
G37*
G36*
X303800D02*
X301041D01*
Y89610D01*
X301243Y88858D01*
X301632Y88183D01*
X302183Y87632D01*
X302858Y87243D01*
X303610Y87041D01*
X303800D01*
Y89800D01*
D02*
G37*
G36*
X251581Y88950D02*
X249200D01*
Y86765D01*
X250772D01*
X251081Y86827D01*
X251344Y87003D01*
X251519Y87265D01*
X251581Y87575D01*
Y88950D01*
D02*
G37*
G36*
X248800D02*
X246419D01*
Y87575D01*
X246481Y87265D01*
X246656Y87003D01*
X246919Y86827D01*
X247228Y86765D01*
X248800D01*
Y88950D01*
D02*
G37*
G36*
X321585Y86030D02*
X318728D01*
Y85043D01*
X321585D01*
Y86030D01*
D02*
G37*
G36*
X318328D02*
X315470D01*
Y85043D01*
X318328D01*
Y86030D01*
D02*
G37*
G36*
X333199Y88589D02*
X329259D01*
Y84649D01*
X333199D01*
Y88589D01*
D02*
G37*
G36*
X198914Y84280D02*
X195174D01*
X194903Y84226D01*
X194673Y84072D01*
X194565Y83911D01*
X194294Y83873D01*
X194023Y83911D01*
X193915Y84072D01*
X193685Y84226D01*
X193414Y84280D01*
X189674D01*
X189403Y84226D01*
X189173Y84072D01*
X189019Y83842D01*
X188965Y83571D01*
Y80225D01*
X189019Y79953D01*
X189173Y79723D01*
X189403Y79570D01*
X189674Y79515D01*
X192825D01*
X215115Y57226D01*
Y53859D01*
X214617Y53652D01*
X213914Y52949D01*
X213533Y52030D01*
Y51036D01*
X213914Y50117D01*
X214617Y49414D01*
X215536Y49033D01*
X216530D01*
X217449Y49414D01*
X217772Y49736D01*
X218361Y49619D01*
X218381Y49573D01*
X219084Y48869D01*
X220003Y48489D01*
X220997D01*
X221916Y48869D01*
X222619Y49573D01*
X223000Y50491D01*
Y51486D01*
X222763Y52058D01*
X222851Y52220D01*
X223121Y52500D01*
X223997D01*
X224916Y52881D01*
X225619Y53584D01*
X226000Y54503D01*
Y55497D01*
X225619Y56416D01*
X224916Y57119D01*
X223997Y57500D01*
X223003D01*
X222504Y57293D01*
X203462Y76336D01*
Y79315D01*
X204414D01*
X204685Y79369D01*
X204915Y79522D01*
X205069Y79752D01*
X205123Y80024D01*
Y83370D01*
X205069Y83641D01*
X204915Y83871D01*
X204685Y84025D01*
X204414Y84079D01*
X200674D01*
X200403Y84025D01*
X200173Y83871D01*
X200096Y83756D01*
X199623Y83791D01*
X199576Y83809D01*
X199569Y83842D01*
X199416Y84072D01*
X199186Y84226D01*
X198914Y84280D01*
D02*
G37*
G36*
X333199Y84249D02*
X329259D01*
Y80309D01*
X333199D01*
Y84249D01*
D02*
G37*
G36*
X280390Y84959D02*
X279610D01*
X278858Y84757D01*
X278183Y84368D01*
X277632Y83817D01*
X277243Y83142D01*
X277041Y82390D01*
Y81610D01*
X277243Y80858D01*
X277632Y80183D01*
X278183Y79632D01*
X278858Y79243D01*
X279610Y79041D01*
X280390D01*
X281142Y79243D01*
X281817Y79632D01*
X282368Y80183D01*
X282757Y80858D01*
X282959Y81610D01*
Y82390D01*
X282757Y83142D01*
X282368Y83817D01*
X281817Y84368D01*
X281142Y84757D01*
X280390Y84959D01*
D02*
G37*
G36*
X333199Y79140D02*
X329259D01*
Y75200D01*
X333199D01*
Y79140D01*
D02*
G37*
G36*
X231235Y73300D02*
X229050D01*
Y70919D01*
X230425D01*
X230735Y70981D01*
X230997Y71156D01*
X231173Y71419D01*
X231235Y71728D01*
Y73300D01*
D02*
G37*
G36*
X228650D02*
X226466D01*
Y71728D01*
X226528Y71419D01*
X226703Y71156D01*
X226966Y70981D01*
X227276Y70919D01*
X228650D01*
Y73300D01*
D02*
G37*
G36*
X333199Y74800D02*
X329259D01*
Y70860D01*
X333199D01*
Y74800D01*
D02*
G37*
G36*
X328859D02*
X324919D01*
Y70860D01*
X328859D01*
Y74800D01*
D02*
G37*
G36*
X174579Y72001D02*
X172200D01*
Y69819D01*
X173870D01*
X174141Y69873D01*
X174371Y70026D01*
X174525Y70256D01*
X174579Y70528D01*
Y72001D01*
D02*
G37*
G36*
X171800D02*
X169421D01*
Y70528D01*
X169475Y70256D01*
X169629Y70026D01*
X169859Y69873D01*
X170130Y69819D01*
X171800D01*
Y72001D01*
D02*
G37*
G36*
X160079D02*
X157700D01*
Y69819D01*
X159370D01*
X159641Y69873D01*
X159871Y70026D01*
X160025Y70256D01*
X160079Y70528D01*
Y72001D01*
D02*
G37*
G36*
X157300D02*
X154921D01*
Y70528D01*
X154975Y70256D01*
X155129Y70026D01*
X155359Y69873D01*
X155630Y69819D01*
X157300D01*
Y72001D01*
D02*
G37*
G36*
X152079D02*
X149700D01*
Y69819D01*
X151370D01*
X151641Y69873D01*
X151871Y70026D01*
X152025Y70256D01*
X152079Y70528D01*
Y72001D01*
D02*
G37*
G36*
X149300D02*
X146921D01*
Y70528D01*
X146975Y70256D01*
X147129Y70026D01*
X147359Y69873D01*
X147630Y69819D01*
X149300D01*
Y72001D01*
D02*
G37*
G36*
X127579Y71501D02*
X125200D01*
Y69319D01*
X126870D01*
X127141Y69373D01*
X127371Y69526D01*
X127525Y69756D01*
X127579Y70028D01*
Y71501D01*
D02*
G37*
G36*
X124800D02*
X122421D01*
Y70028D01*
X122475Y69756D01*
X122629Y69526D01*
X122859Y69373D01*
X123130Y69319D01*
X124800D01*
Y71501D01*
D02*
G37*
G36*
X112079D02*
X109700D01*
Y69319D01*
X111370D01*
X111641Y69373D01*
X111871Y69526D01*
X112025Y69756D01*
X112079Y70028D01*
Y71501D01*
D02*
G37*
G36*
X109300D02*
X106921D01*
Y70028D01*
X106975Y69756D01*
X107129Y69526D01*
X107359Y69373D01*
X107630Y69319D01*
X109300D01*
Y71501D01*
D02*
G37*
G36*
X105079D02*
X102700D01*
Y69319D01*
X104370D01*
X104641Y69373D01*
X104871Y69526D01*
X105025Y69756D01*
X105079Y70028D01*
Y71501D01*
D02*
G37*
G36*
X102300D02*
X99921D01*
Y70028D01*
X99975Y69756D01*
X100129Y69526D01*
X100359Y69373D01*
X100630Y69319D01*
X102300D01*
Y71501D01*
D02*
G37*
G36*
X280390Y74959D02*
X279610D01*
X278858Y74757D01*
X278183Y74368D01*
X277632Y73817D01*
X277243Y73142D01*
X277041Y72390D01*
Y71610D01*
X277243Y70858D01*
X277632Y70183D01*
X278183Y69632D01*
X278858Y69243D01*
X279610Y69041D01*
X280390D01*
X281142Y69243D01*
X281817Y69632D01*
X282368Y70183D01*
X282757Y70858D01*
X282959Y71610D01*
Y72390D01*
X282757Y73142D01*
X282368Y73817D01*
X281817Y74368D01*
X281142Y74757D01*
X280390Y74959D01*
D02*
G37*
G36*
X270390D02*
X269610D01*
X268858Y74757D01*
X268183Y74368D01*
X267632Y73817D01*
X267243Y73142D01*
X267041Y72390D01*
Y71610D01*
X267243Y70858D01*
X267632Y70183D01*
X268183Y69632D01*
X268858Y69243D01*
X269610Y69041D01*
X270390D01*
X271142Y69243D01*
X271817Y69632D01*
X272368Y70183D01*
X272757Y70858D01*
X272959Y71610D01*
Y72390D01*
X272757Y73142D01*
X272368Y73817D01*
X271817Y74368D01*
X271142Y74757D01*
X270390Y74959D01*
D02*
G37*
G36*
X322569Y70676D02*
X319614D01*
Y67326D01*
X322157D01*
Y67432D01*
X322164Y67366D01*
X322178Y67326D01*
X322569D01*
Y70676D01*
D02*
G37*
G36*
X319214D02*
X316258D01*
Y67326D01*
X319214D01*
Y70676D01*
D02*
G37*
G36*
X330833Y68946D02*
X329261D01*
Y66932D01*
X333007D01*
X332878Y67580D01*
X332398Y68298D01*
X331680Y68778D01*
X330833Y68946D01*
D02*
G37*
G36*
X328861D02*
X327289D01*
X326442Y68778D01*
X325724Y68298D01*
X325244Y67580D01*
X325148Y67099D01*
X325282Y67113D01*
X325389Y67137D01*
X325480Y67169D01*
X325554Y67207D01*
X325612Y67251D01*
X325653Y67303D01*
X325678Y67362D01*
X325686Y67428D01*
Y66932D01*
X328861D01*
Y68946D01*
D02*
G37*
G36*
Y66532D02*
X325686D01*
Y66037D01*
X325678Y66102D01*
X325653Y66161D01*
X325612Y66213D01*
X325554Y66258D01*
X325480Y66296D01*
X325389Y66327D01*
X325282Y66351D01*
X325158Y66368D01*
X325148Y66369D01*
X325244Y65885D01*
X325724Y65167D01*
X326442Y64687D01*
X327289Y64518D01*
X328861D01*
Y66532D01*
D02*
G37*
G36*
X257135Y162971D02*
X256180D01*
X255257Y162724D01*
X254430Y162246D01*
X253754Y161570D01*
X253276Y160743D01*
X253029Y159820D01*
Y158865D01*
X253276Y157942D01*
X253754Y157115D01*
X254430Y156439D01*
X255257Y155961D01*
X255740Y155832D01*
Y143168D01*
X255257Y143039D01*
X254430Y142561D01*
X253754Y141885D01*
X253276Y141058D01*
X253029Y140135D01*
Y139180D01*
X253276Y138257D01*
X253754Y137430D01*
X254430Y136754D01*
X255257Y136276D01*
X255740Y136147D01*
Y68538D01*
X251941Y64739D01*
X238467D01*
X237391Y65814D01*
X237094Y66013D01*
X236743Y66083D01*
X233665D01*
X233314Y66013D01*
X233016Y65814D01*
X231351Y64149D01*
X231351Y64149D01*
X229328Y62125D01*
X229129Y61827D01*
X229059Y61476D01*
Y54506D01*
X228494D01*
Y47407D01*
X231143D01*
X231459Y47407D01*
X232068Y47407D01*
X232080Y47401D01*
X232104Y47398D01*
X232113Y47384D01*
X232135Y47330D01*
X232157Y47244D01*
X232176Y47129D01*
X232189Y46987D01*
X232193Y46808D01*
X232208Y46774D01*
Y35318D01*
X231891Y35000D01*
X231003D01*
X230084Y34619D01*
X229381Y33916D01*
X229000Y32997D01*
Y32003D01*
X229381Y31084D01*
X230084Y30381D01*
X231003Y30000D01*
X231997D01*
X232916Y30381D01*
X233619Y31084D01*
X234000Y32003D01*
Y32997D01*
X233619Y33916D01*
X233511Y34025D01*
X233775Y34289D01*
X233974Y34587D01*
X234044Y34938D01*
Y46774D01*
X234059Y46808D01*
X234064Y46987D01*
X234076Y47129D01*
X234095Y47244D01*
X234118Y47330D01*
X234139Y47384D01*
X234148Y47398D01*
X234172Y47401D01*
X234184Y47407D01*
X234609Y47407D01*
X235109Y47407D01*
X237442D01*
X237758Y47407D01*
X238258Y47407D01*
X239225D01*
Y50957D01*
Y54506D01*
X238429D01*
X238120Y54970D01*
X238124Y55006D01*
X238348Y55156D01*
X238523Y55419D01*
X238585Y55728D01*
Y57300D01*
X236201D01*
Y57700D01*
X238585D01*
Y59272D01*
X238523Y59581D01*
X238348Y59844D01*
X238085Y60019D01*
X237776Y60081D01*
X237604D01*
X237413Y60543D01*
X237619Y60749D01*
X237932Y61503D01*
X253315D01*
X253666Y61573D01*
X253964Y61772D01*
X263002Y70810D01*
X263002Y70810D01*
X270226Y78034D01*
X270425Y78332D01*
X270495Y78683D01*
Y79069D01*
X271142Y79243D01*
X271817Y79632D01*
X272368Y80183D01*
X272757Y80858D01*
X272959Y81610D01*
Y82390D01*
X272757Y83142D01*
X272368Y83817D01*
X271817Y84368D01*
X271142Y84757D01*
X270390Y84959D01*
X269610D01*
X268858Y84757D01*
X268183Y84368D01*
X267632Y83817D01*
X267243Y83142D01*
X267041Y82390D01*
Y81610D01*
X267243Y80858D01*
X267632Y80183D01*
X268183Y79632D01*
X268452Y79477D01*
X268508Y78911D01*
X261704Y72108D01*
X261704Y72108D01*
X258075Y68479D01*
X257575Y68686D01*
Y136147D01*
X258058Y136276D01*
X258885Y136754D01*
X259561Y137430D01*
X260039Y138257D01*
X260286Y139180D01*
Y140135D01*
X260039Y141058D01*
X259561Y141885D01*
X258885Y142561D01*
X258058Y143039D01*
X257575Y143168D01*
Y155832D01*
X258058Y155961D01*
X258885Y156439D01*
X259561Y157115D01*
X260039Y157942D01*
X260286Y158865D01*
Y159820D01*
X260039Y160743D01*
X259561Y161570D01*
X258885Y162246D01*
X258058Y162724D01*
X257135Y162971D01*
D02*
G37*
G36*
X333007Y66532D02*
X329261D01*
Y64518D01*
X330833D01*
X331680Y64687D01*
X332398Y65167D01*
X332878Y65885D01*
X333007Y66532D01*
D02*
G37*
G36*
X322157Y66926D02*
X319614D01*
Y63576D01*
X322569D01*
Y66362D01*
X322500Y66351D01*
X322409Y66326D01*
X322332Y66295D01*
X322269Y66256D01*
X322220Y66211D01*
X322185Y66158D01*
X322164Y66099D01*
X322157Y66032D01*
Y66926D01*
D02*
G37*
G36*
X89497Y53000D02*
X88503D01*
X87584Y52619D01*
X87077Y52112D01*
X86750Y51972D01*
X86423Y52112D01*
X85916Y52619D01*
X84997Y53000D01*
X84003D01*
X83084Y52619D01*
X82381Y51916D01*
X82000Y50997D01*
Y50003D01*
X82381Y49084D01*
X83084Y48381D01*
X83582Y48174D01*
Y46773D01*
X83343Y46726D01*
X83113Y46572D01*
X82959Y46342D01*
X82905Y46071D01*
Y38906D01*
X82959Y38634D01*
X83113Y38404D01*
X83343Y38251D01*
X83614Y38197D01*
X85386D01*
X85657Y38251D01*
X85887Y38404D01*
X86041Y38634D01*
X86095Y38906D01*
Y46071D01*
X86041Y46342D01*
X85887Y46572D01*
X85657Y46726D01*
X85418Y46773D01*
Y48174D01*
X85916Y48381D01*
X86423Y48888D01*
X86750Y49028D01*
X87077Y48888D01*
X87584Y48381D01*
X88332Y48071D01*
Y46719D01*
X88113Y46572D01*
X87959Y46342D01*
X87905Y46071D01*
Y38906D01*
X87959Y38634D01*
X88113Y38404D01*
X88343Y38251D01*
X88614Y38197D01*
X90386D01*
X90657Y38251D01*
X90887Y38404D01*
X91041Y38634D01*
X91095Y38906D01*
Y46071D01*
X91041Y46342D01*
X90887Y46572D01*
X90657Y46726D01*
X90386Y46780D01*
X90168D01*
Y48278D01*
X90416Y48381D01*
X91119Y49084D01*
X91500Y50003D01*
Y50997D01*
X91119Y51916D01*
X90416Y52619D01*
X89497Y53000D01*
D02*
G37*
G36*
X139465Y52323D02*
X137694D01*
X136923Y52170D01*
X136270Y51733D01*
X135834Y51080D01*
X135680Y50309D01*
X135683Y50293D01*
X135376Y49918D01*
X134055D01*
Y50673D01*
X134001Y50945D01*
X133847Y51174D01*
X133618Y51328D01*
X133346Y51382D01*
X129606D01*
X129335Y51328D01*
X129105Y51174D01*
X128951Y50945D01*
X128897Y50673D01*
Y47327D01*
X128951Y47056D01*
X129105Y46826D01*
X129335Y46672D01*
X129606Y46618D01*
X133346D01*
X133618Y46672D01*
X133847Y46826D01*
X134001Y47056D01*
X134055Y47327D01*
Y48082D01*
X135803D01*
X135894Y48101D01*
X136169Y47646D01*
X135834Y47143D01*
X135680Y46372D01*
X135834Y45602D01*
X136270Y44949D01*
X136635Y44705D01*
Y44103D01*
X136270Y43859D01*
X135834Y43206D01*
X135680Y42435D01*
X135834Y41665D01*
X136270Y41012D01*
X136923Y40575D01*
X137694Y40422D01*
X139465D01*
X140236Y40575D01*
X140889Y41012D01*
X141326Y41665D01*
X141479Y42435D01*
X141326Y43206D01*
X140889Y43859D01*
X140524Y44103D01*
Y44705D01*
X140889Y44949D01*
X141326Y45602D01*
X141479Y46372D01*
X141326Y47143D01*
X140889Y47796D01*
X140524Y48040D01*
Y48642D01*
X140889Y48886D01*
X141326Y49539D01*
X141479Y50309D01*
X141326Y51080D01*
X140889Y51733D01*
X140236Y52170D01*
X139465Y52323D01*
D02*
G37*
G36*
X162370Y51382D02*
X160700D01*
Y49200D01*
X163079D01*
Y50673D01*
X163025Y50945D01*
X162871Y51174D01*
X162641Y51328D01*
X162370Y51382D01*
D02*
G37*
G36*
X160300D02*
X158630D01*
X158359Y51328D01*
X158129Y51174D01*
X157975Y50945D01*
X157921Y50673D01*
Y49200D01*
X160300D01*
Y51382D01*
D02*
G37*
G36*
X103370Y51117D02*
X101700D01*
Y48935D01*
X104079D01*
Y50408D01*
X104025Y50679D01*
X103871Y50909D01*
X103641Y51063D01*
X103370Y51117D01*
D02*
G37*
G36*
X101300D02*
X99630D01*
X99359Y51063D01*
X99129Y50909D01*
X98975Y50679D01*
X98921Y50408D01*
Y48935D01*
X101300D01*
Y51117D01*
D02*
G37*
G36*
X319724Y49581D02*
X318350D01*
Y47200D01*
X320534D01*
Y48772D01*
X320472Y49081D01*
X320297Y49344D01*
X320034Y49519D01*
X319724Y49581D01*
D02*
G37*
G36*
X317950D02*
X316575D01*
X316265Y49519D01*
X316003Y49344D01*
X315827Y49081D01*
X315766Y48772D01*
Y47200D01*
X317950D01*
Y49581D01*
D02*
G37*
G36*
X163079Y48800D02*
X160700D01*
Y46618D01*
X162370D01*
X162641Y46672D01*
X162871Y46826D01*
X163025Y47056D01*
X163079Y47327D01*
Y48800D01*
D02*
G37*
G36*
X160300D02*
X157921D01*
Y47327D01*
X157975Y47056D01*
X158129Y46826D01*
X158359Y46672D01*
X158630Y46618D01*
X160300D01*
Y48800D01*
D02*
G37*
G36*
X104079Y48535D02*
X101700D01*
Y46352D01*
X103370D01*
X103641Y46406D01*
X103871Y46560D01*
X104025Y46790D01*
X104079Y47061D01*
Y48535D01*
D02*
G37*
G36*
X101300D02*
X98921D01*
Y47061D01*
X98975Y46790D01*
X99129Y46560D01*
X99359Y46406D01*
X99630Y46352D01*
X101300D01*
Y48535D01*
D02*
G37*
G36*
X320534Y46800D02*
X318350D01*
Y44419D01*
X319724D01*
X320034Y44481D01*
X320297Y44656D01*
X320472Y44919D01*
X320534Y45228D01*
Y46800D01*
D02*
G37*
G36*
X317950D02*
X315766D01*
Y45228D01*
X315827Y44919D01*
X316003Y44656D01*
X316265Y44481D01*
X316575Y44419D01*
X317950D01*
Y46800D01*
D02*
G37*
G36*
X168989Y52323D02*
X167218D01*
X166447Y52170D01*
X165794Y51733D01*
X165357Y51080D01*
X165204Y50309D01*
X165357Y49539D01*
X165794Y48886D01*
X166159Y48642D01*
Y48040D01*
X165794Y47796D01*
X165357Y47143D01*
X165204Y46372D01*
X165323Y45775D01*
X164094Y44546D01*
X163895Y44249D01*
X163825Y43898D01*
Y43667D01*
X163777Y43618D01*
X163079D01*
Y44374D01*
X163025Y44645D01*
X162871Y44875D01*
X162641Y45029D01*
X162370Y45083D01*
X158630D01*
X158359Y45029D01*
X158129Y44875D01*
X157975Y44645D01*
X157921Y44374D01*
Y41028D01*
X157975Y40756D01*
X158129Y40526D01*
X158359Y40373D01*
X158630Y40319D01*
X162370D01*
X162641Y40373D01*
X162871Y40526D01*
X163025Y40756D01*
X163079Y41028D01*
Y41783D01*
X164157D01*
X164508Y41853D01*
X164806Y42052D01*
X165319Y41858D01*
X165357Y41665D01*
X165794Y41012D01*
X166447Y40575D01*
X167218Y40422D01*
X168989D01*
X169760Y40575D01*
X170413Y41012D01*
X170849Y41665D01*
X171003Y42435D01*
X170849Y43206D01*
X170413Y43859D01*
X170048Y44103D01*
Y44705D01*
X170413Y44949D01*
X170849Y45602D01*
X171003Y46372D01*
X170849Y47143D01*
X170413Y47796D01*
X170048Y48040D01*
Y48642D01*
X170413Y48886D01*
X170849Y49539D01*
X171003Y50309D01*
X170849Y51080D01*
X170413Y51733D01*
X169760Y52170D01*
X168989Y52323D01*
D02*
G37*
G36*
X109682D02*
X107910D01*
X107140Y52170D01*
X106487Y51733D01*
X106050Y51080D01*
X105897Y50309D01*
X106050Y49539D01*
X106487Y48886D01*
X106852Y48642D01*
Y48040D01*
X106487Y47796D01*
X106050Y47143D01*
X105897Y46372D01*
X106050Y45602D01*
X106487Y44949D01*
X106852Y44705D01*
Y44103D01*
X106487Y43859D01*
X106148Y43353D01*
X104079D01*
Y44109D01*
X104025Y44380D01*
X103871Y44610D01*
X103641Y44764D01*
X103370Y44818D01*
X99630D01*
X99359Y44764D01*
X99129Y44610D01*
X98975Y44380D01*
X98921Y44109D01*
Y40762D01*
X98975Y40491D01*
X99129Y40261D01*
X99359Y40107D01*
X99630Y40053D01*
X103370D01*
X103641Y40107D01*
X103871Y40261D01*
X104025Y40491D01*
X104079Y40762D01*
Y41518D01*
X106148D01*
X106487Y41012D01*
X107140Y40575D01*
X107910Y40422D01*
X109682D01*
X110452Y40575D01*
X111106Y41012D01*
X111542Y41665D01*
X111696Y42435D01*
X111542Y43206D01*
X111106Y43859D01*
X110740Y44103D01*
Y44705D01*
X111106Y44949D01*
X111542Y45602D01*
X111696Y46372D01*
X111542Y47143D01*
X111106Y47796D01*
X110740Y48040D01*
Y48642D01*
X111106Y48886D01*
X111542Y49539D01*
X111696Y50309D01*
X111542Y51080D01*
X111106Y51733D01*
X110452Y52170D01*
X109682Y52323D01*
D02*
G37*
G36*
X133346Y45083D02*
X131676D01*
Y42901D01*
X134055D01*
Y44374D01*
X134001Y44645D01*
X133847Y44875D01*
X133618Y45029D01*
X133346Y45083D01*
D02*
G37*
G36*
X131276D02*
X129606D01*
X129335Y45029D01*
X129105Y44875D01*
X128951Y44645D01*
X128897Y44374D01*
Y42901D01*
X131276D01*
Y45083D01*
D02*
G37*
G36*
X306618Y42876D02*
X306155Y42784D01*
X305762Y42521D01*
X305616Y42303D01*
X305609Y42300D01*
X305068D01*
X305061Y42303D01*
X304915Y42521D01*
X304522Y42784D01*
X304059Y42876D01*
X303596Y42784D01*
X303203Y42521D01*
X303057Y42303D01*
X303050Y42300D01*
X302509D01*
X302502Y42303D01*
X302356Y42521D01*
X301963Y42784D01*
X301500Y42876D01*
X301037Y42784D01*
X300644Y42521D01*
X300498Y42303D01*
X300491Y42300D01*
X299950D01*
X299943Y42303D01*
X299797Y42521D01*
X299404Y42784D01*
X299141Y42836D01*
Y39500D01*
Y36164D01*
X299404Y36216D01*
X299797Y36479D01*
X299943Y36697D01*
X299950Y36700D01*
X300491D01*
X300498Y36697D01*
X300644Y36479D01*
X301037Y36216D01*
X301500Y36124D01*
X301963Y36216D01*
X302356Y36479D01*
X302502Y36697D01*
X302509Y36700D01*
X303050D01*
X303057Y36697D01*
X303203Y36479D01*
X303596Y36216D01*
X304059Y36124D01*
X304522Y36216D01*
X304915Y36479D01*
X305061Y36697D01*
X305068Y36700D01*
X305609D01*
X305616Y36697D01*
X305762Y36479D01*
X306155Y36216D01*
X306618Y36124D01*
X307081Y36216D01*
X307474Y36479D01*
X307620Y36697D01*
X307627Y36700D01*
X308168D01*
X308175Y36697D01*
X308321Y36479D01*
X308714Y36216D01*
X308977Y36164D01*
Y39500D01*
Y42836D01*
X308714Y42784D01*
X308321Y42521D01*
X308175Y42303D01*
X308168Y42300D01*
X307627D01*
X307620Y42303D01*
X307474Y42521D01*
X307081Y42784D01*
X306618Y42876D01*
D02*
G37*
G36*
X298741Y42836D02*
X298478Y42784D01*
X298085Y42521D01*
X297939Y42303D01*
X297932Y42300D01*
X297391D01*
X297384Y42303D01*
X297238Y42521D01*
X296845Y42784D01*
X296582Y42836D01*
Y39500D01*
Y36164D01*
X296845Y36216D01*
X297238Y36479D01*
X297384Y36697D01*
X297391Y36700D01*
X297932D01*
X297939Y36697D01*
X298085Y36479D01*
X298478Y36216D01*
X298741Y36164D01*
Y39500D01*
Y42836D01*
D02*
G37*
G36*
X293823Y42876D02*
X293359Y42784D01*
X292967Y42521D01*
X292821Y42303D01*
X292814Y42300D01*
X292273D01*
X292266Y42303D01*
X292120Y42521D01*
X291727Y42784D01*
X291264Y42876D01*
X290800Y42784D01*
X290408Y42521D01*
X290145Y42129D01*
X290053Y41665D01*
Y37335D01*
X290145Y36871D01*
X290408Y36479D01*
X290800Y36216D01*
X291264Y36124D01*
X291727Y36216D01*
X292120Y36479D01*
X292266Y36697D01*
X292273Y36700D01*
X292814D01*
X292821Y36697D01*
X292967Y36479D01*
X293359Y36216D01*
X293823Y36124D01*
X294286Y36216D01*
X294679Y36479D01*
X294825Y36697D01*
X294832Y36700D01*
X295373D01*
X295380Y36697D01*
X295526Y36479D01*
X295919Y36216D01*
X296182Y36164D01*
Y39500D01*
Y42836D01*
X295919Y42784D01*
X295526Y42521D01*
X295380Y42303D01*
X295373Y42300D01*
X294832D01*
X294825Y42303D01*
X294679Y42521D01*
X294286Y42784D01*
X293823Y42876D01*
D02*
G37*
G36*
X134055Y42501D02*
X131676D01*
Y40319D01*
X133346D01*
X133618Y40373D01*
X133847Y40526D01*
X134001Y40756D01*
X134055Y41028D01*
Y42501D01*
D02*
G37*
G36*
X131276D02*
X128897D01*
Y41028D01*
X128951Y40756D01*
X129105Y40526D01*
X129335Y40373D01*
X129606Y40319D01*
X131276D01*
Y42501D01*
D02*
G37*
G36*
X41497Y58500D02*
X40503D01*
X39584Y58119D01*
X38881Y57416D01*
X38500Y56497D01*
Y55503D01*
X38881Y54584D01*
X39584Y53881D01*
X40082Y53674D01*
Y46273D01*
X39843Y46226D01*
X39613Y46072D01*
X39459Y45842D01*
X39405Y45571D01*
Y38405D01*
X39459Y38134D01*
X39613Y37904D01*
X39843Y37751D01*
X40114Y37697D01*
X41886D01*
X42157Y37751D01*
X42387Y37904D01*
X42541Y38134D01*
X42595Y38405D01*
Y45571D01*
X42541Y45842D01*
X42387Y46072D01*
X42157Y46226D01*
X41918Y46273D01*
Y53674D01*
X42416Y53881D01*
X43119Y54584D01*
X43500Y55503D01*
Y56497D01*
X43119Y57416D01*
X42416Y58119D01*
X41497Y58500D01*
D02*
G37*
G36*
X36497Y52000D02*
X35503D01*
X34584Y51619D01*
X33881Y50916D01*
X33500Y49997D01*
Y49003D01*
X33881Y48084D01*
X34584Y47381D01*
X35082Y47174D01*
Y46273D01*
X34843Y46226D01*
X34613Y46072D01*
X34459Y45842D01*
X34405Y45571D01*
Y38405D01*
X34459Y38134D01*
X34613Y37904D01*
X34843Y37751D01*
X35114Y37697D01*
X36886D01*
X37157Y37751D01*
X37387Y37904D01*
X37541Y38134D01*
X37595Y38405D01*
Y45571D01*
X37541Y45842D01*
X37387Y46072D01*
X37157Y46226D01*
X36918Y46273D01*
Y47174D01*
X37416Y47381D01*
X38119Y48084D01*
X38500Y49003D01*
Y49997D01*
X38119Y50916D01*
X37416Y51619D01*
X36497Y52000D01*
D02*
G37*
G36*
X139465Y27836D02*
X137694D01*
X136923Y27683D01*
X136270Y27246D01*
X135932Y26740D01*
X134055D01*
Y26972D01*
X134001Y27244D01*
X133847Y27474D01*
X133618Y27627D01*
X133346Y27681D01*
X129606D01*
X129335Y27627D01*
X129105Y27474D01*
X128951Y27244D01*
X128897Y26972D01*
Y23626D01*
X128951Y23355D01*
X129105Y23125D01*
X129335Y22971D01*
X129606Y22917D01*
X133346D01*
X133618Y22971D01*
X133847Y23125D01*
X134001Y23355D01*
X134055Y23626D01*
Y24905D01*
X135932D01*
X136270Y24399D01*
X136635Y24155D01*
Y23553D01*
X136270Y23309D01*
X135834Y22656D01*
X135680Y21885D01*
X135834Y21115D01*
X136270Y20462D01*
X136635Y20218D01*
Y19616D01*
X136270Y19372D01*
X135834Y18719D01*
X135680Y17948D01*
X135834Y17178D01*
X136270Y16525D01*
X136923Y16088D01*
X137694Y15935D01*
X139465D01*
X140236Y16088D01*
X140889Y16525D01*
X141326Y17178D01*
X141479Y17948D01*
X141326Y18719D01*
X140889Y19372D01*
X140524Y19616D01*
Y20218D01*
X140889Y20462D01*
X141326Y21115D01*
X141479Y21885D01*
X141326Y22656D01*
X140889Y23309D01*
X140524Y23553D01*
Y24155D01*
X140889Y24399D01*
X141326Y25052D01*
X141479Y25822D01*
X141326Y26593D01*
X140889Y27246D01*
X140236Y27683D01*
X139465Y27836D01*
D02*
G37*
G36*
X162370Y27681D02*
X160700D01*
Y25499D01*
X163079D01*
Y26972D01*
X163025Y27244D01*
X162871Y27474D01*
X162641Y27627D01*
X162370Y27681D01*
D02*
G37*
G36*
X160300D02*
X158630D01*
X158359Y27627D01*
X158129Y27474D01*
X157975Y27244D01*
X157921Y26972D01*
Y25499D01*
X160300D01*
Y27681D01*
D02*
G37*
G36*
X103269D02*
X101599D01*
Y25499D01*
X103978D01*
Y26972D01*
X103923Y27244D01*
X103770Y27474D01*
X103540Y27627D01*
X103269Y27681D01*
D02*
G37*
G36*
X101198D02*
X99528D01*
X99257Y27627D01*
X99027Y27474D01*
X98874Y27244D01*
X98820Y26972D01*
Y25499D01*
X101198D01*
Y27681D01*
D02*
G37*
G36*
X90386Y27292D02*
X89700D01*
Y23200D01*
X91095D01*
Y26583D01*
X91041Y26854D01*
X90887Y27084D01*
X90657Y27238D01*
X90386Y27292D01*
D02*
G37*
G36*
X89300D02*
X88614D01*
X88343Y27238D01*
X88113Y27084D01*
X87959Y26854D01*
X87905Y26583D01*
Y23200D01*
X89300D01*
Y27292D01*
D02*
G37*
G36*
X163079Y25099D02*
X160700D01*
Y22917D01*
X162370D01*
X162641Y22971D01*
X162871Y23125D01*
X163025Y23355D01*
X163079Y23626D01*
Y25099D01*
D02*
G37*
G36*
X160300D02*
X157921D01*
Y23626D01*
X157975Y23355D01*
X158129Y23125D01*
X158359Y22971D01*
X158630Y22917D01*
X160300D01*
Y25099D01*
D02*
G37*
G36*
X103978D02*
X101599D01*
Y22917D01*
X103269D01*
X103540Y22971D01*
X103770Y23125D01*
X103923Y23355D01*
X103978Y23626D01*
Y25099D01*
D02*
G37*
G36*
X101198D02*
X98820D01*
Y23626D01*
X98874Y23355D01*
X99027Y23125D01*
X99257Y22971D01*
X99528Y22917D01*
X101198D01*
Y25099D01*
D02*
G37*
G36*
X41886Y26792D02*
X41200D01*
Y22700D01*
X42595D01*
Y26083D01*
X42541Y26354D01*
X42387Y26584D01*
X42157Y26738D01*
X41886Y26792D01*
D02*
G37*
G36*
X40800D02*
X40114D01*
X39843Y26738D01*
X39613Y26584D01*
X39459Y26354D01*
X39405Y26083D01*
Y22700D01*
X40800D01*
Y26792D01*
D02*
G37*
G36*
X133346Y21382D02*
X131676D01*
Y19200D01*
X134055D01*
Y20673D01*
X134001Y20944D01*
X133847Y21174D01*
X133618Y21328D01*
X133346Y21382D01*
D02*
G37*
G36*
X131276D02*
X129606D01*
X129335Y21328D01*
X129105Y21174D01*
X128951Y20944D01*
X128897Y20673D01*
Y19200D01*
X131276D01*
Y21382D01*
D02*
G37*
G36*
X131476Y19000D02*
D01*
D01*
D01*
D02*
G37*
G36*
X109682Y27836D02*
X107910D01*
X107140Y27683D01*
X106487Y27246D01*
X106050Y26593D01*
X105897Y25822D01*
X106050Y25052D01*
X106487Y24399D01*
X106852Y24155D01*
Y23553D01*
X106487Y23309D01*
X106050Y22656D01*
X105897Y21885D01*
X106050Y21115D01*
X106487Y20462D01*
X106852Y20218D01*
Y19616D01*
X106487Y19372D01*
X106148Y18866D01*
X103978D01*
Y20673D01*
X103923Y20944D01*
X103770Y21174D01*
X103540Y21328D01*
X103269Y21382D01*
X99528D01*
X99257Y21328D01*
X99027Y21174D01*
X98874Y20944D01*
X98820Y20673D01*
Y17327D01*
X98874Y17055D01*
X99027Y16826D01*
X99257Y16672D01*
X99528Y16618D01*
X103269D01*
X103540Y16672D01*
X103770Y16826D01*
X103907Y17031D01*
X106148D01*
X106487Y16525D01*
X107140Y16088D01*
X107910Y15935D01*
X109682D01*
X110452Y16088D01*
X111106Y16525D01*
X111542Y17178D01*
X111696Y17948D01*
X111542Y18719D01*
X111106Y19372D01*
X110740Y19616D01*
Y20218D01*
X111106Y20462D01*
X111542Y21115D01*
X111696Y21885D01*
X111542Y22656D01*
X111106Y23309D01*
X110740Y23553D01*
Y24155D01*
X111106Y24399D01*
X111542Y25052D01*
X111696Y25822D01*
X111542Y26593D01*
X111106Y27246D01*
X110452Y27683D01*
X109682Y27836D01*
D02*
G37*
G36*
X91095Y22800D02*
X89700D01*
Y18708D01*
X90386D01*
X90657Y18762D01*
X90887Y18916D01*
X91041Y19146D01*
X91095Y19417D01*
Y22800D01*
D02*
G37*
G36*
X89300D02*
X87905D01*
Y19417D01*
X87959Y19146D01*
X88113Y18916D01*
X88343Y18762D01*
X88614Y18708D01*
X89300D01*
Y22800D01*
D02*
G37*
G36*
X85386Y27292D02*
X83614D01*
X83343Y27238D01*
X83113Y27084D01*
X82959Y26854D01*
X82905Y26583D01*
Y19417D01*
X82959Y19146D01*
X83113Y18916D01*
X83343Y18762D01*
X83614Y18708D01*
X85386D01*
X85657Y18762D01*
X85887Y18916D01*
X86041Y19146D01*
X86095Y19417D01*
Y26583D01*
X86041Y26854D01*
X85887Y27084D01*
X85657Y27238D01*
X85386Y27292D01*
D02*
G37*
G36*
X42595Y22300D02*
X41200D01*
Y18208D01*
X41886D01*
X42157Y18262D01*
X42387Y18416D01*
X42541Y18646D01*
X42595Y18917D01*
Y22300D01*
D02*
G37*
G36*
X40800D02*
X39405D01*
Y18917D01*
X39459Y18646D01*
X39613Y18416D01*
X39843Y18262D01*
X40114Y18208D01*
X40800D01*
Y22300D01*
D02*
G37*
G36*
X36886Y26792D02*
X35114D01*
X34843Y26738D01*
X34613Y26584D01*
X34459Y26354D01*
X34405Y26083D01*
Y18917D01*
X34459Y18646D01*
X34613Y18416D01*
X34843Y18262D01*
X35114Y18208D01*
X36886D01*
X37157Y18262D01*
X37387Y18416D01*
X37541Y18646D01*
X37595Y18917D01*
Y26083D01*
X37541Y26354D01*
X37387Y26584D01*
X37157Y26738D01*
X36886Y26792D01*
D02*
G37*
G36*
X75386Y27292D02*
X73614D01*
X73343Y27238D01*
X73113Y27084D01*
X72959Y26854D01*
X72905Y26583D01*
Y19417D01*
X72959Y19146D01*
X73061Y18994D01*
X73036Y18641D01*
X72983Y18457D01*
X72961Y18416D01*
X72321Y17776D01*
X72080Y17196D01*
X71539D01*
X71498Y17295D01*
X70795Y17998D01*
X70357Y18179D01*
Y18708D01*
X70386D01*
X70657Y18762D01*
X70887Y18916D01*
X71041Y19146D01*
X71095Y19417D01*
Y26583D01*
X71041Y26854D01*
X70887Y27084D01*
X70657Y27238D01*
X70386Y27292D01*
X68614D01*
X68343Y27238D01*
X68113Y27084D01*
X67959Y26854D01*
X67905Y26583D01*
Y19417D01*
X67959Y19146D01*
X68113Y18916D01*
X68343Y18762D01*
X68522Y18727D01*
Y18230D01*
X67962Y17998D01*
X67259Y17295D01*
X66879Y16376D01*
Y15381D01*
X67259Y14462D01*
X67962Y13759D01*
X68881Y13379D01*
X69876D01*
X70375Y13585D01*
X71706Y12253D01*
Y7460D01*
X71776Y7108D01*
X71975Y6811D01*
X73729Y5057D01*
X74027Y4858D01*
X74301Y4803D01*
X74373Y4773D01*
X74492Y4771D01*
X74616Y4764D01*
Y2925D01*
X74677Y2616D01*
X74853Y2353D01*
X75116Y2178D01*
X75425Y2116D01*
X78575D01*
X78885Y2178D01*
X79147Y2353D01*
X79322Y2616D01*
X79384Y2925D01*
Y6075D01*
X79322Y6385D01*
X79147Y6647D01*
X79035Y6722D01*
X79018Y6772D01*
Y7228D01*
X79035Y7278D01*
X79147Y7353D01*
X79322Y7615D01*
X79384Y7925D01*
Y11075D01*
X79322Y11384D01*
X79147Y11647D01*
X78885Y11823D01*
X78575Y11884D01*
X77918D01*
Y13800D01*
X77848Y14151D01*
X77649Y14448D01*
X76733Y15364D01*
X76940Y15862D01*
Y16857D01*
X76559Y17776D01*
X75967Y18368D01*
X75916Y18513D01*
X75896Y18801D01*
X75915Y18957D01*
X76041Y19146D01*
X76095Y19417D01*
Y26583D01*
X76041Y26854D01*
X75887Y27084D01*
X75657Y27238D01*
X75386Y27292D01*
D02*
G37*
G36*
X134055Y18800D02*
X131676D01*
Y16618D01*
X133346D01*
X133618Y16672D01*
X133847Y16826D01*
X134001Y17055D01*
X134055Y17327D01*
Y18800D01*
D02*
G37*
G36*
X131276D02*
X128897D01*
Y17327D01*
X128951Y17055D01*
X129105Y16826D01*
X129335Y16672D01*
X129606Y16618D01*
X131276D01*
Y18800D01*
D02*
G37*
G36*
X26886Y26792D02*
X25114D01*
X24843Y26738D01*
X24613Y26584D01*
X24459Y26354D01*
X24405Y26083D01*
Y18917D01*
X24459Y18646D01*
X24613Y18416D01*
X24843Y18262D01*
X25082Y18215D01*
Y17122D01*
X25128Y16893D01*
X24705Y16609D01*
X24194Y17119D01*
X23276Y17500D01*
X22462D01*
X22097Y17924D01*
X22147Y18203D01*
X22181Y18278D01*
X22387Y18416D01*
X22541Y18646D01*
X22595Y18917D01*
Y26083D01*
X22541Y26354D01*
X22387Y26584D01*
X22157Y26738D01*
X21886Y26792D01*
X20114D01*
X19843Y26738D01*
X19613Y26584D01*
X19459Y26354D01*
X19405Y26083D01*
Y18917D01*
X19459Y18646D01*
X19613Y18416D01*
X19843Y18262D01*
X20082Y18215D01*
Y17122D01*
X20152Y16771D01*
X20351Y16473D01*
X20585Y16239D01*
X20278Y15497D01*
Y14503D01*
X20659Y13584D01*
X21362Y12881D01*
X22281Y12500D01*
X23276D01*
X23629Y12646D01*
X30116Y6160D01*
Y3425D01*
X30178Y3115D01*
X30353Y2853D01*
X30615Y2678D01*
X30925Y2616D01*
X34075D01*
X34385Y2678D01*
X34647Y2853D01*
X34822Y3115D01*
X34884Y3425D01*
Y6575D01*
X34822Y6884D01*
X34647Y7147D01*
X34571Y7198D01*
X34542Y7320D01*
X34575Y7756D01*
X34720Y7853D01*
X34896Y8116D01*
X34957Y8425D01*
Y11575D01*
X34896Y11885D01*
X34720Y12147D01*
X34458Y12323D01*
X34148Y12384D01*
X31487D01*
X30169Y13702D01*
X30500Y14503D01*
Y15497D01*
X30119Y16416D01*
X29416Y17119D01*
X28497Y17500D01*
X27503D01*
X27367Y17444D01*
X26918Y17706D01*
Y18215D01*
X27157Y18262D01*
X27387Y18416D01*
X27541Y18646D01*
X27595Y18917D01*
Y26083D01*
X27541Y26354D01*
X27387Y26584D01*
X27157Y26738D01*
X26886Y26792D01*
D02*
G37*
G36*
X168989Y27836D02*
X167218D01*
X166447Y27683D01*
X165794Y27246D01*
X165357Y26593D01*
X165204Y25822D01*
X165357Y25052D01*
X165794Y24399D01*
X166159Y24155D01*
Y23553D01*
X165794Y23309D01*
X165500Y22869D01*
X163648D01*
X163297Y22799D01*
X162999Y22600D01*
X161781Y21382D01*
X158630D01*
X158359Y21328D01*
X158129Y21174D01*
X157975Y20944D01*
X157921Y20673D01*
Y17327D01*
X157975Y17055D01*
X158129Y16826D01*
X158359Y16672D01*
X158630Y16618D01*
X162370D01*
X162641Y16672D01*
X162871Y16826D01*
X163025Y17055D01*
X163079Y17327D01*
Y20084D01*
X164029Y21034D01*
X165411D01*
X165794Y20462D01*
X166159Y20218D01*
Y19616D01*
X165794Y19372D01*
X165357Y18719D01*
X165204Y17948D01*
X165357Y17178D01*
X165794Y16525D01*
X166447Y16088D01*
X167218Y15935D01*
X168989D01*
X169760Y16088D01*
X170413Y16525D01*
X170849Y17178D01*
X171003Y17948D01*
X170849Y18719D01*
X170413Y19372D01*
X170048Y19616D01*
Y20218D01*
X170413Y20462D01*
X170849Y21115D01*
X171003Y21885D01*
X170849Y22656D01*
X170413Y23309D01*
X170048Y23553D01*
Y24155D01*
X170413Y24399D01*
X170849Y25052D01*
X171003Y25822D01*
X170849Y26593D01*
X170413Y27246D01*
X169760Y27683D01*
X168989Y27836D01*
D02*
G37*
G36*
X324532Y14333D02*
X324068Y14241D01*
X323675Y13978D01*
X323530Y13760D01*
X323522Y13757D01*
X322982D01*
X322974Y13760D01*
X322829Y13978D01*
X322436Y14241D01*
X321972Y14333D01*
X321509Y14241D01*
X321116Y13978D01*
X320971Y13760D01*
X320963Y13757D01*
X320423D01*
X320415Y13760D01*
X320269Y13978D01*
X319877Y14241D01*
X319413Y14333D01*
X318950Y14241D01*
X318557Y13978D01*
X318412Y13760D01*
X318404Y13757D01*
X317864D01*
X317856Y13760D01*
X317710Y13978D01*
X317318Y14241D01*
X316854Y14333D01*
X316391Y14241D01*
X315998Y13978D01*
X315853Y13760D01*
X315845Y13757D01*
X315304D01*
X315297Y13760D01*
X315151Y13978D01*
X314759Y14241D01*
X314295Y14333D01*
X313832Y14241D01*
X313439Y13978D01*
X313294Y13760D01*
X313286Y13757D01*
X312745D01*
X312738Y13760D01*
X312592Y13978D01*
X312199Y14241D01*
X311736Y14333D01*
X311273Y14241D01*
X310880Y13978D01*
X310735Y13760D01*
X310727Y13757D01*
X310186D01*
X310179Y13760D01*
X310033Y13978D01*
X309641Y14241D01*
X309177Y14333D01*
X308714Y14241D01*
X308321Y13978D01*
X308175Y13760D01*
X308168Y13757D01*
X307627D01*
X307620Y13760D01*
X307474Y13978D01*
X307081Y14241D01*
X306818Y14293D01*
Y10957D01*
Y7621D01*
X307081Y7673D01*
X307474Y7935D01*
X307620Y8153D01*
X307627Y8156D01*
X308168D01*
X308175Y8153D01*
X308321Y7935D01*
X308714Y7673D01*
X309177Y7581D01*
X309641Y7673D01*
X310033Y7935D01*
X310179Y8153D01*
X310186Y8156D01*
X310727D01*
X310735Y8153D01*
X310880Y7935D01*
X311273Y7673D01*
X311736Y7581D01*
X312199Y7673D01*
X312592Y7935D01*
X312738Y8153D01*
X312745Y8156D01*
X313286D01*
X313294Y8153D01*
X313439Y7935D01*
X313832Y7673D01*
X314295Y7581D01*
X314759Y7673D01*
X315151Y7935D01*
X315297Y8153D01*
X315304Y8156D01*
X315845D01*
X315853Y8153D01*
X315998Y7935D01*
X316391Y7673D01*
X316854Y7581D01*
X317318Y7673D01*
X317710Y7935D01*
X317856Y8153D01*
X317864Y8156D01*
X318404D01*
X318412Y8153D01*
X318557Y7935D01*
X318950Y7673D01*
X319413Y7581D01*
X319877Y7673D01*
X320269Y7935D01*
X320415Y8153D01*
X320423Y8156D01*
X320963D01*
X320971Y8153D01*
X321116Y7935D01*
X321509Y7673D01*
X321972Y7581D01*
X322436Y7673D01*
X322829Y7935D01*
X322974Y8153D01*
X322982Y8156D01*
X323522D01*
X323530Y8153D01*
X323675Y7935D01*
X324068Y7673D01*
X324532Y7581D01*
X324995Y7673D01*
X325388Y7935D01*
X325650Y8328D01*
X325742Y8791D01*
Y13122D01*
X325650Y13585D01*
X325388Y13978D01*
X324995Y14241D01*
X324532Y14333D01*
D02*
G37*
G36*
X12997Y32000D02*
X12003D01*
X11084Y31619D01*
X10381Y30916D01*
X10000Y29997D01*
Y29003D01*
X10381Y28084D01*
X10763Y27701D01*
Y26792D01*
X10114D01*
X9843Y26738D01*
X9613Y26584D01*
X9459Y26354D01*
X9405Y26083D01*
Y18917D01*
X9459Y18646D01*
X9613Y18416D01*
X9843Y18262D01*
X10082Y18215D01*
Y14902D01*
X10152Y14550D01*
X10351Y14253D01*
X12032Y12572D01*
Y8050D01*
X12102Y7699D01*
X12301Y7401D01*
X13616Y6086D01*
Y3425D01*
X13678Y3115D01*
X13853Y2853D01*
X14116Y2678D01*
X14425Y2616D01*
X17575D01*
X17885Y2678D01*
X18147Y2853D01*
X18323Y3115D01*
X18384Y3425D01*
Y6575D01*
X18323Y6884D01*
X18147Y7147D01*
X18034Y7222D01*
X18018Y7272D01*
Y7728D01*
X18034Y7778D01*
X18147Y7853D01*
X18323Y8116D01*
X18384Y8425D01*
Y11575D01*
X18323Y11885D01*
X18147Y12147D01*
X17885Y12323D01*
X17575Y12384D01*
X17118D01*
X16923Y12622D01*
X16922Y12625D01*
X16920Y12884D01*
X17619Y13584D01*
X18000Y14503D01*
Y15497D01*
X17619Y16416D01*
X16916Y17119D01*
X16668Y17222D01*
Y18208D01*
X16886D01*
X17157Y18262D01*
X17387Y18416D01*
X17541Y18646D01*
X17595Y18917D01*
Y26083D01*
X17541Y26354D01*
X17387Y26584D01*
X17157Y26738D01*
X16886Y26792D01*
X15114D01*
X14843Y26738D01*
X14613Y26584D01*
X14459Y26354D01*
X14405Y26083D01*
Y18917D01*
X14459Y18646D01*
X14613Y18416D01*
X14832Y18269D01*
Y17429D01*
X14084Y17119D01*
X13381Y16416D01*
X13000Y15497D01*
Y14906D01*
X12500Y14699D01*
X11918Y15282D01*
Y18215D01*
X12157Y18262D01*
X12387Y18416D01*
X12541Y18646D01*
X12595Y18917D01*
Y23161D01*
X12599Y23181D01*
Y27000D01*
X12997D01*
X13916Y27381D01*
X14619Y28084D01*
X15000Y29003D01*
Y29997D01*
X14619Y30916D01*
X13916Y31619D01*
X12997Y32000D01*
D02*
G37*
G36*
X59497Y33000D02*
X58503D01*
X57584Y32619D01*
X56881Y31916D01*
X56500Y30997D01*
Y30003D01*
X56881Y29084D01*
X57584Y28381D01*
X58332Y28071D01*
Y27231D01*
X58113Y27084D01*
X57959Y26854D01*
X57905Y26583D01*
Y19417D01*
X57959Y19146D01*
X58113Y18916D01*
X58343Y18762D01*
X58582Y18715D01*
Y12500D01*
X58652Y12149D01*
X58851Y11851D01*
X64618Y6084D01*
X64616Y6075D01*
Y2925D01*
X64678Y2616D01*
X64853Y2353D01*
X65115Y2178D01*
X65425Y2116D01*
X68575D01*
X68884Y2178D01*
X69147Y2353D01*
X69323Y2616D01*
X69384Y2925D01*
Y6075D01*
X69323Y6385D01*
X69147Y6647D01*
X68884Y6822D01*
X68575Y6884D01*
X66414D01*
X65682Y7616D01*
X65889Y8116D01*
X68575D01*
X68884Y8178D01*
X69147Y8353D01*
X69323Y8615D01*
X69384Y8925D01*
Y12075D01*
X69323Y12385D01*
X69147Y12647D01*
X68884Y12822D01*
X68575Y12884D01*
X65425D01*
X65416Y12882D01*
X64870Y13427D01*
Y13797D01*
X65498Y14425D01*
X65879Y15344D01*
Y16338D01*
X65498Y17257D01*
X64857Y17898D01*
Y18708D01*
X65386D01*
X65657Y18762D01*
X65887Y18916D01*
X66041Y19146D01*
X66095Y19417D01*
Y26583D01*
X66041Y26854D01*
X65887Y27084D01*
X65657Y27238D01*
X65386Y27292D01*
X63614D01*
X63343Y27238D01*
X63113Y27084D01*
X62959Y26854D01*
X62905Y26583D01*
Y19417D01*
X62959Y19146D01*
X63022Y19052D01*
Y18341D01*
X62881D01*
X61962Y17960D01*
X61259Y17257D01*
X60918Y16432D01*
X60418Y16532D01*
Y18715D01*
X60657Y18762D01*
X60887Y18916D01*
X61041Y19146D01*
X61095Y19417D01*
Y26583D01*
X61041Y26854D01*
X60887Y27084D01*
X60657Y27238D01*
X60386Y27292D01*
X60168D01*
Y28278D01*
X60416Y28381D01*
X61119Y29084D01*
X61500Y30003D01*
Y30997D01*
X61119Y31916D01*
X60416Y32619D01*
X59497Y33000D01*
D02*
G37*
%LPD*%
G36*
X19397Y165385D02*
X19226Y165559D01*
X19057Y165714D01*
X18887Y165851D01*
X18718Y165970D01*
X18549Y166071D01*
X18381Y166153D01*
X18371Y166157D01*
X18309Y166119D01*
X18238Y166054D01*
X18187Y165979D01*
X18157Y165894D01*
X18147Y165799D01*
Y166235D01*
X18045Y166263D01*
X17878Y166290D01*
X17711Y166299D01*
X17737Y167299D01*
X17901Y167308D01*
X18068Y167335D01*
X18147Y167355D01*
Y167799D01*
X18157Y167704D01*
X18187Y167619D01*
X18238Y167544D01*
X18309Y167479D01*
X18385Y167433D01*
X18406Y167441D01*
X18578Y167520D01*
X18752Y167618D01*
X18928Y167733D01*
X19106Y167866D01*
X19286Y168016D01*
X19467Y168184D01*
X19397Y165385D01*
D02*
G37*
G36*
X218979Y164813D02*
X218741Y164944D01*
X218089Y165253D01*
X217892Y165328D01*
X217719Y165381D01*
X217705Y165375D01*
X217614Y165320D01*
X217543Y165255D01*
X217493Y165180D01*
X217462Y165095D01*
X217452Y165000D01*
Y165454D01*
X217364Y165472D01*
X217209Y165493D01*
X217063Y165500D01*
X216763Y166500D01*
X216939Y166510D01*
X217108Y166540D01*
X217270Y166590D01*
X217424Y166661D01*
X217452Y166677D01*
Y167000D01*
X217462Y166905D01*
X217493Y166820D01*
X217543Y166745D01*
X217551Y166738D01*
X217572Y166751D01*
X217712Y166861D01*
X217845Y166992D01*
X217971Y167142D01*
X218090Y167313D01*
X218202Y167504D01*
X218979Y164813D01*
D02*
G37*
G36*
X76596Y167966D02*
X76945Y167678D01*
X77117Y167561D01*
X77289Y167462D01*
X77459Y167381D01*
X77557Y167345D01*
X77600Y167362D01*
X77691Y167417D01*
X77762Y167482D01*
X77813Y167557D01*
X77843Y167642D01*
X77853Y167737D01*
Y167264D01*
X77963Y167246D01*
X78129Y167237D01*
Y166237D01*
X77963Y166228D01*
X77853Y166211D01*
Y165737D01*
X77843Y165832D01*
X77813Y165917D01*
X77762Y165992D01*
X77691Y166057D01*
X77600Y166112D01*
X77557Y166130D01*
X77459Y166093D01*
X77289Y166012D01*
X77117Y165913D01*
X76945Y165796D01*
X76771Y165661D01*
X76596Y165508D01*
X76421Y165337D01*
Y168137D01*
X76596Y167966D01*
D02*
G37*
G36*
X16905Y158540D02*
X16820Y158510D01*
X16745Y158459D01*
X16680Y158388D01*
X16625Y158297D01*
X16580Y158186D01*
X16545Y158054D01*
X16520Y157902D01*
X16505Y157730D01*
X16500Y157538D01*
X15500D01*
X15495Y157730D01*
X15480Y157902D01*
X15455Y158054D01*
X15420Y158186D01*
X15375Y158297D01*
X15320Y158388D01*
X15255Y158459D01*
X15180Y158510D01*
X15095Y158540D01*
X15000Y158550D01*
X17000D01*
X16905Y158540D01*
D02*
G37*
G36*
X6000Y163500D02*
X183500D01*
Y158000D01*
X184500Y157000D01*
X196000D01*
X196500Y156500D01*
Y155503D01*
X196290Y155392D01*
X196368Y155314D01*
X196169Y155108D01*
X195855Y154739D01*
X195741Y154576D01*
X195655Y154428D01*
X195597Y154293D01*
X195568Y154173D01*
X195566Y154068D01*
X195594Y153977D01*
X195649Y153900D01*
X194247Y155302D01*
X194323Y155247D01*
X194414Y155220D01*
X194520Y155221D01*
X194640Y155251D01*
X194774Y155308D01*
X194923Y155394D01*
X195086Y155509D01*
X195263Y155651D01*
X195338Y155721D01*
X195272Y155734D01*
X193700D01*
Y153350D01*
X193500D01*
Y153150D01*
X190919D01*
Y151776D01*
X190974Y151500D01*
X190972Y151452D01*
X190691Y151000D01*
X184500D01*
X184000Y150500D01*
Y75500D01*
X184038Y75462D01*
X183847Y75000D01*
X82185D01*
X82141Y75029D01*
X81870Y75083D01*
X78130D01*
X77859Y75029D01*
X77815Y75000D01*
X67465D01*
X67421Y75029D01*
X67150Y75083D01*
X63410D01*
X63139Y75029D01*
X63095Y75000D01*
X59685D01*
X59641Y75029D01*
X59370Y75083D01*
X55630D01*
X55359Y75029D01*
X55315Y75000D01*
X5000D01*
Y84167D01*
X7327D01*
Y80382D01*
X6630D01*
X6359Y80328D01*
X6129Y80174D01*
X5975Y79944D01*
X5921Y79673D01*
Y76327D01*
X5975Y76056D01*
X6129Y75826D01*
X6359Y75672D01*
X6630Y75618D01*
X10370D01*
X10641Y75672D01*
X10871Y75826D01*
X11025Y76056D01*
X11079Y76327D01*
Y79673D01*
X11025Y79944D01*
X10871Y80174D01*
X10641Y80328D01*
X10370Y80382D01*
X9673D01*
Y84167D01*
X11872D01*
X12187Y84167D01*
X12687Y84167D01*
X15082D01*
Y80382D01*
X14130D01*
X13859Y80328D01*
X13629Y80174D01*
X13475Y79944D01*
X13421Y79673D01*
Y76327D01*
X13475Y76056D01*
X13629Y75826D01*
X13859Y75672D01*
X14130Y75618D01*
X17870D01*
X18141Y75672D01*
X18371Y75826D01*
X18525Y76056D01*
X18579Y76327D01*
Y79673D01*
X18525Y79944D01*
X18371Y80174D01*
X18141Y80328D01*
X17870Y80382D01*
X16918D01*
Y84167D01*
X19352D01*
X19668Y84167D01*
X20168Y84167D01*
X23300D01*
Y90472D01*
Y96354D01*
X22500D01*
X22595Y96364D01*
X22680Y96394D01*
X22755Y96445D01*
X22820Y96516D01*
X22875Y96607D01*
X22920Y96718D01*
X22936Y96778D01*
X20168D01*
X19852Y96778D01*
X19352Y96778D01*
X12687D01*
X12372Y96778D01*
X11872Y96778D01*
X5000D01*
Y143222D01*
X11872D01*
X12187Y143222D01*
X12687Y143222D01*
X19352D01*
X19668Y143222D01*
X20168Y143222D01*
X22936D01*
X22920Y143282D01*
X22875Y143393D01*
X22820Y143484D01*
X22755Y143555D01*
X22680Y143606D01*
X22595Y143636D01*
X22500Y143646D01*
X23300D01*
Y149528D01*
Y155833D01*
X20168D01*
X19852Y155833D01*
X19352Y155833D01*
X16918D01*
Y157493D01*
X16933Y157527D01*
X16938Y157706D01*
X16950Y157848D01*
X16969Y157963D01*
X16992Y158048D01*
X17013Y158103D01*
X17022Y158117D01*
X17031Y158118D01*
X17870D01*
X18141Y158172D01*
X18371Y158326D01*
X18525Y158555D01*
X18579Y158827D01*
Y162173D01*
X18525Y162444D01*
X18371Y162674D01*
X18141Y162828D01*
X17870Y162882D01*
X14130D01*
X13859Y162828D01*
X13629Y162674D01*
X13521Y162513D01*
X13250Y162476D01*
X12979Y162513D01*
X12871Y162674D01*
X12641Y162828D01*
X12370Y162882D01*
X8630D01*
X8359Y162828D01*
X8129Y162674D01*
X7975Y162444D01*
X7921Y162173D01*
Y158827D01*
X7975Y158555D01*
X8129Y158326D01*
X8359Y158172D01*
X8630Y158118D01*
X9582D01*
Y155833D01*
X5000D01*
Y163847D01*
X5462Y164038D01*
X6000Y163500D01*
D02*
G37*
G36*
X213410Y152967D02*
X213397Y153061D01*
X213363Y153145D01*
X213308Y153219D01*
X213232Y153283D01*
X213136Y153337D01*
X213018Y153382D01*
X212880Y153416D01*
X212721Y153441D01*
X212542Y153456D01*
X212341Y153461D01*
Y154461D01*
X212536Y154466D01*
X212710Y154481D01*
X212863Y154506D01*
X212996Y154541D01*
X213107Y154586D01*
X213198Y154641D01*
X213268Y154706D01*
X213317Y154781D01*
X213346Y154866D01*
X213353Y154961D01*
X213410Y152967D01*
D02*
G37*
G36*
X210586Y154866D02*
X210616Y154781D01*
X210667Y154706D01*
X210738Y154641D01*
X210829Y154586D01*
X210940Y154541D01*
X211072Y154506D01*
X211224Y154481D01*
X211396Y154466D01*
X211588Y154461D01*
Y153461D01*
X211396Y153456D01*
X211224Y153441D01*
X211072Y153416D01*
X210940Y153381D01*
X210829Y153336D01*
X210738Y153281D01*
X210667Y153216D01*
X210616Y153141D01*
X210586Y153056D01*
X210576Y152961D01*
Y154961D01*
X210586Y154866D01*
D02*
G37*
G36*
X224000Y91921D02*
X223935Y91279D01*
X223900Y91306D01*
X223850Y91330D01*
X223786Y91351D01*
X223709Y91370D01*
X223617Y91386D01*
X223107Y91420D01*
X222945Y91421D01*
X224000Y92421D01*
Y91921D01*
D02*
G37*
G36*
X233783Y83301D02*
X233774Y83305D01*
X233759Y83303D01*
X233740Y83295D01*
X233716Y83280D01*
X233687Y83259D01*
X233653Y83232D01*
X233524Y83114D01*
X233471Y83062D01*
X232764Y83769D01*
X233259Y84274D01*
X233783Y83301D01*
D02*
G37*
%LPC*%
G36*
X181370Y162882D02*
X177630D01*
X177359Y162828D01*
X177129Y162674D01*
X176975Y162444D01*
X176921Y162173D01*
Y158827D01*
X176975Y158555D01*
X177129Y158326D01*
X177359Y158172D01*
X177630Y158118D01*
X178582D01*
Y155833D01*
X176128D01*
X175813Y155833D01*
X175313Y155833D01*
X172418D01*
Y158118D01*
X173370D01*
X173641Y158172D01*
X173871Y158326D01*
X174025Y158555D01*
X174079Y158827D01*
Y162173D01*
X174025Y162444D01*
X173871Y162674D01*
X173641Y162828D01*
X173370Y162882D01*
X169630D01*
X169359Y162828D01*
X169129Y162674D01*
X168975Y162444D01*
X168921Y162173D01*
Y158827D01*
X168975Y158555D01*
X169129Y158326D01*
X169359Y158172D01*
X169630Y158118D01*
X170582D01*
Y155833D01*
X168648D01*
X168332Y155833D01*
X167832Y155833D01*
X164700D01*
Y149528D01*
Y143646D01*
X165500D01*
X165405Y143636D01*
X165320Y143606D01*
X165245Y143555D01*
X165180Y143484D01*
X165125Y143393D01*
X165080Y143282D01*
X165064Y143222D01*
X167832D01*
X168148Y143222D01*
X168648Y143222D01*
X175313D01*
X175628Y143222D01*
X176128Y143222D01*
X183109D01*
Y155833D01*
X180418D01*
Y158118D01*
X181370D01*
X181641Y158172D01*
X181871Y158326D01*
X182025Y158555D01*
X182079Y158827D01*
Y162173D01*
X182025Y162444D01*
X181871Y162674D01*
X181641Y162828D01*
X181370Y162882D01*
D02*
G37*
G36*
X158870D02*
X155130D01*
X154859Y162828D01*
X154629Y162674D01*
X154475Y162444D01*
X154421Y162173D01*
Y158827D01*
X154475Y158555D01*
X154629Y158326D01*
X154859Y158172D01*
X155130Y158118D01*
X156082D01*
Y155833D01*
X153687D01*
X153372Y155833D01*
X152872Y155833D01*
X145891D01*
Y143222D01*
X152872D01*
X153187Y143222D01*
X153687Y143222D01*
X160352D01*
X160668Y143222D01*
X161168Y143222D01*
X163936D01*
X163920Y143282D01*
X163875Y143393D01*
X163820Y143484D01*
X163755Y143555D01*
X163680Y143606D01*
X163595Y143636D01*
X163500Y143646D01*
X164300D01*
Y149528D01*
Y155833D01*
X161168D01*
X160852Y155833D01*
X160352Y155833D01*
X157918D01*
Y158118D01*
X158870D01*
X159141Y158172D01*
X159371Y158326D01*
X159525Y158555D01*
X159579Y158827D01*
Y162173D01*
X159525Y162444D01*
X159371Y162674D01*
X159141Y162828D01*
X158870Y162882D01*
D02*
G37*
G36*
X133870D02*
X130130D01*
X129859Y162828D01*
X129629Y162674D01*
X129475Y162444D01*
X129421Y162173D01*
Y158827D01*
X129475Y158555D01*
X129629Y158326D01*
X129859Y158172D01*
X130130Y158118D01*
X131082D01*
Y155833D01*
X129128D01*
X128813Y155833D01*
X128313Y155833D01*
X125418D01*
Y158118D01*
X126370D01*
X126641Y158172D01*
X126871Y158326D01*
X127025Y158555D01*
X127079Y158827D01*
Y162173D01*
X127025Y162444D01*
X126871Y162674D01*
X126641Y162828D01*
X126370Y162882D01*
X122630D01*
X122359Y162828D01*
X122129Y162674D01*
X121975Y162444D01*
X121921Y162173D01*
Y158827D01*
X121975Y158555D01*
X122129Y158326D01*
X122359Y158172D01*
X122630Y158118D01*
X123582D01*
Y155833D01*
X121648D01*
X121332Y155833D01*
X120832Y155833D01*
X117700D01*
Y149528D01*
Y143646D01*
X118500D01*
X118405Y143636D01*
X118320Y143606D01*
X118245Y143555D01*
X118180Y143484D01*
X118125Y143393D01*
X118080Y143282D01*
X118064Y143222D01*
X120832D01*
X121148Y143222D01*
X121648Y143222D01*
X128313D01*
X128628Y143222D01*
X129128Y143222D01*
X136109D01*
Y155833D01*
X132918D01*
Y158118D01*
X133870D01*
X134141Y158172D01*
X134371Y158326D01*
X134525Y158555D01*
X134579Y158827D01*
Y162173D01*
X134525Y162444D01*
X134371Y162674D01*
X134141Y162828D01*
X133870Y162882D01*
D02*
G37*
G36*
X111370D02*
X107630D01*
X107359Y162828D01*
X107129Y162674D01*
X106975Y162444D01*
X106921Y162173D01*
Y158827D01*
X106975Y158555D01*
X107129Y158326D01*
X107359Y158172D01*
X107630Y158118D01*
X108582D01*
Y155833D01*
X106687D01*
X106372Y155833D01*
X105872Y155833D01*
X98891D01*
Y143222D01*
X105872D01*
X106187Y143222D01*
X106687Y143222D01*
X113352D01*
X113668Y143222D01*
X114168Y143222D01*
X116936D01*
X116920Y143282D01*
X116875Y143393D01*
X116820Y143484D01*
X116755Y143555D01*
X116680Y143606D01*
X116595Y143636D01*
X116500Y143646D01*
X117300D01*
Y149528D01*
Y155833D01*
X114168D01*
X113852Y155833D01*
X113352Y155833D01*
X110418D01*
Y158118D01*
X111370D01*
X111641Y158172D01*
X111871Y158326D01*
X112025Y158555D01*
X112079Y158827D01*
Y162173D01*
X112025Y162444D01*
X111871Y162674D01*
X111641Y162828D01*
X111370Y162882D01*
D02*
G37*
G36*
X89870D02*
X86130D01*
X85859Y162828D01*
X85629Y162674D01*
X85475Y162444D01*
X85421Y162173D01*
Y158827D01*
X85475Y158555D01*
X85629Y158326D01*
X85859Y158172D01*
X86130Y158118D01*
X87082D01*
Y155833D01*
X83896D01*
X83580Y155833D01*
X83080Y155833D01*
X80918D01*
Y158118D01*
X81870D01*
X82141Y158172D01*
X82371Y158326D01*
X82525Y158555D01*
X82579Y158827D01*
Y162173D01*
X82525Y162444D01*
X82371Y162674D01*
X82141Y162828D01*
X81870Y162882D01*
X78130D01*
X77859Y162828D01*
X77629Y162674D01*
X77475Y162444D01*
X77421Y162173D01*
Y158827D01*
X77475Y158555D01*
X77629Y158326D01*
X77859Y158172D01*
X78130Y158118D01*
X79082D01*
Y155833D01*
X76415D01*
X76100Y155833D01*
X75600Y155833D01*
X72467D01*
Y149528D01*
Y143646D01*
X72470D01*
X72767Y143682D01*
X72769Y143646D01*
X73267D01*
X73172Y143636D01*
X73087Y143606D01*
X73012Y143555D01*
X72947Y143484D01*
X72892Y143393D01*
X72847Y143282D01*
X72836Y143238D01*
X72840Y143222D01*
X75600D01*
X75915Y143222D01*
X76415Y143222D01*
X83080D01*
X83396Y143222D01*
X83896Y143222D01*
X90876D01*
Y155833D01*
X88918D01*
Y158118D01*
X89870D01*
X90141Y158172D01*
X90371Y158326D01*
X90525Y158555D01*
X90579Y158827D01*
Y162173D01*
X90525Y162444D01*
X90371Y162674D01*
X90141Y162828D01*
X89870Y162882D01*
D02*
G37*
G36*
X66870D02*
X63130D01*
X62859Y162828D01*
X62629Y162674D01*
X62475Y162444D01*
X62421Y162173D01*
Y158827D01*
X62475Y158555D01*
X62629Y158326D01*
X62859Y158172D01*
X63130Y158118D01*
X64082D01*
Y155833D01*
X61455D01*
X61139Y155833D01*
X60639Y155833D01*
X58918D01*
Y158118D01*
X59870D01*
X60141Y158172D01*
X60371Y158326D01*
X60525Y158555D01*
X60579Y158827D01*
Y162173D01*
X60525Y162444D01*
X60371Y162674D01*
X60141Y162828D01*
X59870Y162882D01*
X56130D01*
X55859Y162828D01*
X55629Y162674D01*
X55475Y162444D01*
X55421Y162173D01*
Y158827D01*
X55475Y158555D01*
X55629Y158326D01*
X55859Y158172D01*
X56130Y158118D01*
X57082D01*
Y155833D01*
X53659D01*
Y143222D01*
X60639D01*
X60955Y143222D01*
X61455Y143222D01*
X68119D01*
X68435Y143222D01*
X68935Y143222D01*
X71703D01*
X71687Y143282D01*
X71642Y143393D01*
X71587Y143484D01*
X71522Y143555D01*
X71447Y143606D01*
X71362Y143636D01*
X71267Y143646D01*
X72067D01*
Y149528D01*
Y155833D01*
X68935D01*
X68619Y155833D01*
X68119Y155833D01*
X65918D01*
Y158118D01*
X66870D01*
X67141Y158172D01*
X67371Y158326D01*
X67525Y158555D01*
X67579Y158827D01*
Y162173D01*
X67525Y162444D01*
X67371Y162674D01*
X67141Y162828D01*
X66870Y162882D01*
D02*
G37*
G36*
X40370D02*
X36630D01*
X36359Y162828D01*
X36129Y162674D01*
X35975Y162444D01*
X35921Y162173D01*
Y158827D01*
X35975Y158555D01*
X36129Y158326D01*
X36359Y158172D01*
X36630Y158118D01*
X37328D01*
Y155833D01*
X35128D01*
X34813Y155833D01*
X34313Y155833D01*
X31918D01*
Y158118D01*
X32870D01*
X33141Y158172D01*
X33371Y158326D01*
X33525Y158555D01*
X33579Y158827D01*
Y162173D01*
X33525Y162444D01*
X33371Y162674D01*
X33141Y162828D01*
X32870Y162882D01*
X29130D01*
X28859Y162828D01*
X28629Y162674D01*
X28475Y162444D01*
X28421Y162173D01*
Y158827D01*
X28475Y158555D01*
X28629Y158326D01*
X28859Y158172D01*
X29130Y158118D01*
X30082D01*
Y155833D01*
X27648D01*
X27332Y155833D01*
X26832Y155833D01*
X23700D01*
Y149528D01*
Y143646D01*
X24500D01*
X24405Y143636D01*
X24320Y143606D01*
X24245Y143555D01*
X24180Y143484D01*
X24125Y143393D01*
X24080Y143282D01*
X24064Y143222D01*
X26832D01*
X27148Y143222D01*
X27648Y143222D01*
X34313D01*
X34628Y143222D01*
X35128Y143222D01*
X42109D01*
Y155833D01*
X39672D01*
Y158118D01*
X40370D01*
X40641Y158172D01*
X40871Y158326D01*
X41025Y158555D01*
X41079Y158827D01*
Y162173D01*
X41025Y162444D01*
X40871Y162674D01*
X40641Y162828D01*
X40370Y162882D01*
D02*
G37*
G36*
X193300Y155734D02*
X191728D01*
X191419Y155673D01*
X191156Y155497D01*
X190981Y155235D01*
X190919Y154925D01*
Y153550D01*
X193300D01*
Y155734D01*
D02*
G37*
G36*
X175813Y96778D02*
X175313Y96778D01*
X168648D01*
X168332Y96778D01*
X167832Y96778D01*
X165064D01*
X165080Y96718D01*
X165125Y96607D01*
X165180Y96516D01*
X165245Y96445D01*
X165320Y96394D01*
X165405Y96364D01*
X165500Y96354D01*
X164700D01*
Y90472D01*
Y84167D01*
X167832D01*
X168148Y84167D01*
X168648Y84167D01*
X171082D01*
Y80882D01*
X170130D01*
X169859Y80828D01*
X169629Y80674D01*
X169475Y80445D01*
X169421Y80173D01*
Y76827D01*
X169475Y76556D01*
X169629Y76326D01*
X169859Y76172D01*
X170130Y76118D01*
X173870D01*
X174141Y76172D01*
X174371Y76326D01*
X174525Y76556D01*
X174579Y76827D01*
Y80173D01*
X174525Y80445D01*
X174371Y80674D01*
X174141Y80828D01*
X173870Y80882D01*
X172918D01*
Y84167D01*
X175313D01*
X175628Y84167D01*
X176128Y84167D01*
X183109D01*
Y96778D01*
X176128D01*
X175813Y96778D01*
D02*
G37*
G36*
X160852D02*
X160352Y96778D01*
X153687D01*
X153372Y96778D01*
X152872Y96778D01*
X145891D01*
Y84167D01*
X148328D01*
Y80882D01*
X147630D01*
X147359Y80828D01*
X147129Y80674D01*
X146975Y80445D01*
X146921Y80173D01*
Y76827D01*
X146975Y76556D01*
X147129Y76326D01*
X147359Y76172D01*
X147630Y76118D01*
X151370D01*
X151641Y76172D01*
X151871Y76326D01*
X152025Y76556D01*
X152079Y76827D01*
Y80173D01*
X152025Y80445D01*
X151871Y80674D01*
X151641Y80828D01*
X151370Y80882D01*
X150672D01*
Y84167D01*
X152872D01*
X153187Y84167D01*
X153687Y84167D01*
X156582D01*
Y80882D01*
X155630D01*
X155359Y80828D01*
X155129Y80674D01*
X154975Y80445D01*
X154921Y80173D01*
Y76827D01*
X154975Y76556D01*
X155129Y76326D01*
X155359Y76172D01*
X155630Y76118D01*
X159370D01*
X159641Y76172D01*
X159871Y76326D01*
X160025Y76556D01*
X160079Y76827D01*
Y80173D01*
X160025Y80445D01*
X159871Y80674D01*
X159641Y80828D01*
X159370Y80882D01*
X158418D01*
Y84167D01*
X160352D01*
X160668Y84167D01*
X161168Y84167D01*
X164300D01*
Y90472D01*
Y96354D01*
X163500D01*
X163595Y96364D01*
X163680Y96394D01*
X163755Y96445D01*
X163820Y96516D01*
X163875Y96607D01*
X163920Y96718D01*
X163936Y96778D01*
X161168D01*
X160852Y96778D01*
D02*
G37*
G36*
X128813D02*
X128313Y96778D01*
X121648D01*
X121332Y96778D01*
X120832Y96778D01*
X118064D01*
X118080Y96718D01*
X118125Y96607D01*
X118180Y96516D01*
X118245Y96445D01*
X118320Y96394D01*
X118405Y96364D01*
X118500Y96354D01*
X117700D01*
Y90472D01*
Y84167D01*
X120832D01*
X121148Y84167D01*
X121648Y84167D01*
X124082D01*
Y80382D01*
X123130D01*
X122859Y80328D01*
X122629Y80174D01*
X122475Y79944D01*
X122421Y79673D01*
Y76327D01*
X122475Y76056D01*
X122629Y75826D01*
X122859Y75672D01*
X123130Y75618D01*
X126870D01*
X127141Y75672D01*
X127371Y75826D01*
X127525Y76056D01*
X127579Y76327D01*
Y79673D01*
X127525Y79944D01*
X127371Y80174D01*
X127141Y80328D01*
X126870Y80382D01*
X125918D01*
Y84167D01*
X128313D01*
X128628Y84167D01*
X129128Y84167D01*
X136109D01*
Y96778D01*
X129128D01*
X128813Y96778D01*
D02*
G37*
G36*
X113852D02*
X113352Y96778D01*
X106687D01*
X106372Y96778D01*
X105872Y96778D01*
X98891D01*
Y84167D01*
X101582D01*
Y80382D01*
X100630D01*
X100359Y80328D01*
X100129Y80174D01*
X99975Y79944D01*
X99921Y79673D01*
Y76327D01*
X99975Y76056D01*
X100129Y75826D01*
X100359Y75672D01*
X100630Y75618D01*
X104370D01*
X104641Y75672D01*
X104871Y75826D01*
X105025Y76056D01*
X105079Y76327D01*
Y79673D01*
X105025Y79944D01*
X104871Y80174D01*
X104641Y80328D01*
X104370Y80382D01*
X103418D01*
Y84167D01*
X105872D01*
X106187Y84167D01*
X106687Y84167D01*
X108582D01*
Y80382D01*
X107630D01*
X107359Y80328D01*
X107129Y80174D01*
X106975Y79944D01*
X106921Y79673D01*
Y76327D01*
X106975Y76056D01*
X107129Y75826D01*
X107359Y75672D01*
X107630Y75618D01*
X111370D01*
X111641Y75672D01*
X111871Y75826D01*
X112025Y76056D01*
X112079Y76327D01*
Y79673D01*
X112025Y79944D01*
X111871Y80174D01*
X111641Y80328D01*
X111370Y80382D01*
X110418D01*
Y84167D01*
X113352D01*
X113668Y84167D01*
X114168Y84167D01*
X117300D01*
Y90472D01*
Y96354D01*
X116500D01*
X116595Y96364D01*
X116680Y96394D01*
X116755Y96445D01*
X116820Y96516D01*
X116875Y96607D01*
X116920Y96718D01*
X116936Y96778D01*
X114168D01*
X113852Y96778D01*
D02*
G37*
G36*
X83580D02*
X83080Y96778D01*
X76415D01*
X76100Y96778D01*
X75600Y96778D01*
X73064D01*
X73080Y96718D01*
X73125Y96607D01*
X73180Y96516D01*
X73245Y96445D01*
X73320Y96394D01*
X73405Y96364D01*
X73500Y96354D01*
X72467D01*
Y90472D01*
Y84167D01*
X75600D01*
X75915Y84167D01*
X76415Y84167D01*
X79082D01*
Y81382D01*
X78130D01*
X77859Y81328D01*
X77629Y81174D01*
X77475Y80945D01*
X77421Y80673D01*
Y77327D01*
X77475Y77056D01*
X77629Y76825D01*
X77859Y76672D01*
X78130Y76618D01*
X81870D01*
X82141Y76672D01*
X82371Y76825D01*
X82525Y77056D01*
X82579Y77327D01*
Y80673D01*
X82525Y80945D01*
X82371Y81174D01*
X82141Y81328D01*
X81870Y81382D01*
X80918D01*
Y84167D01*
X83080D01*
X83396Y84167D01*
X83896Y84167D01*
X90876D01*
Y96778D01*
X83896D01*
X83580Y96778D01*
D02*
G37*
G36*
X68619D02*
X68119Y96778D01*
X61455D01*
X61139Y96778D01*
X60639Y96778D01*
X53659D01*
Y84167D01*
X56582D01*
Y81382D01*
X55630D01*
X55359Y81328D01*
X55129Y81174D01*
X54975Y80945D01*
X54921Y80673D01*
Y77327D01*
X54975Y77056D01*
X55129Y76825D01*
X55359Y76672D01*
X55630Y76618D01*
X59370D01*
X59641Y76672D01*
X59871Y76825D01*
X60025Y77056D01*
X60079Y77327D01*
Y80673D01*
X60025Y80945D01*
X59871Y81174D01*
X59641Y81328D01*
X59370Y81382D01*
X58418D01*
Y84167D01*
X60639D01*
X60955Y84167D01*
X61455Y84167D01*
X64362D01*
Y81382D01*
X63410D01*
X63139Y81328D01*
X62909Y81174D01*
X62755Y80945D01*
X62701Y80673D01*
Y77327D01*
X62755Y77056D01*
X62909Y76825D01*
X63139Y76672D01*
X63410Y76618D01*
X67150D01*
X67421Y76672D01*
X67651Y76825D01*
X67805Y77056D01*
X67859Y77327D01*
Y80673D01*
X67805Y80945D01*
X67651Y81174D01*
X67421Y81328D01*
X67150Y81382D01*
X66198D01*
Y84167D01*
X68119D01*
X68435Y84167D01*
X68935Y84167D01*
X72067D01*
Y90472D01*
Y96354D01*
X71500D01*
X71595Y96364D01*
X71680Y96394D01*
X71755Y96445D01*
X71820Y96516D01*
X71875Y96607D01*
X71920Y96718D01*
X71936Y96778D01*
X68935D01*
X68619Y96778D01*
D02*
G37*
G36*
X34813D02*
X34313Y96778D01*
X27648D01*
X27332Y96778D01*
X26832Y96778D01*
X24064D01*
X24080Y96718D01*
X24125Y96607D01*
X24180Y96516D01*
X24245Y96445D01*
X24320Y96394D01*
X24405Y96364D01*
X24500Y96354D01*
X23700D01*
Y90472D01*
Y84167D01*
X26832D01*
X27148Y84167D01*
X27648Y84167D01*
X30082D01*
Y80382D01*
X29130D01*
X28859Y80328D01*
X28629Y80174D01*
X28475Y79944D01*
X28421Y79673D01*
Y76327D01*
X28475Y76056D01*
X28629Y75826D01*
X28859Y75672D01*
X29130Y75618D01*
X32870D01*
X33141Y75672D01*
X33371Y75826D01*
X33525Y76056D01*
X33579Y76327D01*
Y79673D01*
X33525Y79944D01*
X33371Y80174D01*
X33141Y80328D01*
X32870Y80382D01*
X31918D01*
Y84167D01*
X34313D01*
X34628Y84167D01*
X35128Y84167D01*
X42109D01*
Y96778D01*
X35128D01*
X34813Y96778D01*
D02*
G37*
%LPD*%
G36*
X321500Y141141D02*
X321000Y141042D01*
X320695Y141777D01*
X320054Y142737D01*
X319237Y143554D01*
X318277Y144195D01*
X317210Y144637D01*
X316077Y144863D01*
X315700D01*
Y139000D01*
Y133137D01*
X316077D01*
X317210Y133363D01*
X318277Y133805D01*
X319237Y134446D01*
X320054Y135263D01*
X320695Y136223D01*
X321000Y136958D01*
X321500Y136859D01*
Y132500D01*
X308500D01*
X305500Y129500D01*
Y113500D01*
X309500D01*
X314000Y109000D01*
Y86000D01*
X311500Y83500D01*
X308500D01*
Y77000D01*
X307500Y76000D01*
X305608D01*
X305398Y76208D01*
X305244Y76500D01*
X305261Y76570D01*
X305322Y76752D01*
X305401Y76935D01*
X305499Y77119D01*
X305617Y77304D01*
X305755Y77490D01*
X305914Y77676D01*
X306103Y77872D01*
X306133Y77948D01*
X306368Y78183D01*
X306757Y78858D01*
X306959Y79610D01*
Y79800D01*
X301041D01*
Y79610D01*
X301243Y78858D01*
X301632Y78183D01*
X301867Y77948D01*
X301897Y77872D01*
X302086Y77676D01*
X302245Y77490D01*
X302383Y77304D01*
X302501Y77119D01*
X302599Y76935D01*
X302679Y76752D01*
X302739Y76570D01*
X302756Y76500D01*
X302602Y76208D01*
X302392Y76000D01*
X300000D01*
Y79500D01*
X299250Y80250D01*
Y80750D01*
X302000Y83500D01*
X309000Y85000D01*
X311000Y87000D01*
Y107500D01*
X309000Y109500D01*
X308500Y109000D01*
X293221D01*
X293034Y109228D01*
Y110800D01*
X290650D01*
X288266D01*
Y109228D01*
X288078Y109000D01*
X287000D01*
Y125000D01*
X308500Y146500D01*
X321500D01*
Y141141D01*
D02*
G37*
G36*
X315894Y76538D02*
X315888Y76565D01*
X315868Y76590D01*
X315835Y76612D01*
X315789Y76631D01*
X315730Y76647D01*
X315657Y76660D01*
X315572Y76670D01*
X315361Y76682D01*
X315236Y76683D01*
Y77684D01*
X315361Y77685D01*
X315657Y77707D01*
X315730Y77720D01*
X315789Y77736D01*
X315835Y77755D01*
X315868Y77777D01*
X315888Y77802D01*
X315894Y77829D01*
Y76538D01*
D02*
G37*
G36*
X305593Y77967D02*
X305416Y77760D01*
X305260Y77550D01*
X305125Y77338D01*
X305010Y77123D01*
X304917Y76907D01*
X304844Y76688D01*
X304792Y76467D01*
X304760Y76244D01*
X304750Y76018D01*
X303250D01*
X303240Y76244D01*
X303208Y76467D01*
X303156Y76688D01*
X303083Y76907D01*
X302990Y77123D01*
X302875Y77338D01*
X302740Y77550D01*
X302584Y77760D01*
X302407Y77967D01*
X302209Y78172D01*
X305791D01*
X305593Y77967D01*
D02*
G37*
G36*
X243480Y55341D02*
X243395Y55311D01*
X243320Y55260D01*
X243255Y55189D01*
X243200Y55098D01*
X243155Y54987D01*
X243120Y54855D01*
X243097Y54717D01*
X243120Y54578D01*
X243155Y54447D01*
X243200Y54335D01*
X243255Y54244D01*
X243320Y54173D01*
X243395Y54123D01*
X243480Y54092D01*
X243575Y54082D01*
X241575D01*
X241670Y54092D01*
X241755Y54123D01*
X241830Y54173D01*
X241895Y54244D01*
X241950Y54335D01*
X241995Y54447D01*
X242030Y54578D01*
X242053Y54717D01*
X242030Y54855D01*
X241995Y54987D01*
X241950Y55098D01*
X241895Y55189D01*
X241830Y55260D01*
X241755Y55311D01*
X241670Y55341D01*
X241575Y55351D01*
X243575D01*
X243480Y55341D01*
D02*
G37*
G36*
X153162Y50747D02*
X153181Y50726D01*
X153215Y50707D01*
X153263Y50691D01*
X153325Y50677D01*
X153402Y50665D01*
X153599Y50651D01*
X153855Y50646D01*
Y49646D01*
X153699Y49644D01*
X153236Y49615D01*
X153161Y49601D01*
X153102Y49586D01*
X153059Y49567D01*
X153032Y49546D01*
X153021Y49523D01*
X153158Y50771D01*
X153162Y50747D01*
D02*
G37*
G36*
X243480Y47821D02*
X243395Y47791D01*
X243320Y47740D01*
X243255Y47669D01*
X243200Y47578D01*
X243155Y47467D01*
X243120Y47335D01*
X243095Y47183D01*
X243080Y47011D01*
X243075Y46819D01*
X242075D01*
X242070Y47011D01*
X242055Y47183D01*
X242030Y47335D01*
X241995Y47467D01*
X241950Y47578D01*
X241895Y47669D01*
X241830Y47740D01*
X241755Y47791D01*
X241670Y47821D01*
X241575Y47831D01*
X243575D01*
X243480Y47821D01*
D02*
G37*
G36*
X249558Y43740D02*
X249450Y43620D01*
X249352Y43485D01*
X249262Y43336D01*
X249183Y43172D01*
X249113Y42994D01*
X249052Y42801D01*
X249001Y42593D01*
X248960Y42371D01*
X248905Y41884D01*
X247086Y44012D01*
X247324Y43998D01*
X247550Y43997D01*
X247763Y44011D01*
X247964Y44039D01*
X248153Y44081D01*
X248329Y44138D01*
X248492Y44208D01*
X248644Y44293D01*
X248782Y44392D01*
X248909Y44505D01*
X249558Y43740D01*
D02*
G37*
G36*
X252694Y43906D02*
X252701Y43758D01*
X252723Y43600D01*
X252759Y43433D01*
X252809Y43257D01*
X252874Y43072D01*
X253047Y42675D01*
X253154Y42463D01*
X253414Y42012D01*
X250697Y42691D01*
X250887Y42811D01*
X251056Y42937D01*
X251206Y43070D01*
X251335Y43208D01*
X251445Y43352D01*
X251535Y43503D01*
X251604Y43659D01*
X251654Y43822D01*
X251684Y43991D01*
X251694Y44166D01*
X252694Y43906D01*
D02*
G37*
G36*
X243510Y42544D02*
X243538Y42203D01*
X243562Y42051D01*
X243594Y41912D01*
X243632Y41785D01*
X243677Y41671D01*
X243729Y41570D01*
X243788Y41481D01*
X243854Y41404D01*
X242019Y41954D01*
X242112Y41980D01*
X242195Y42018D01*
X242268Y42067D01*
X242331Y42128D01*
X242385Y42200D01*
X242429Y42284D01*
X242463Y42379D01*
X242487Y42486D01*
X242502Y42604D01*
X242507Y42734D01*
X243507D01*
X243510Y42544D01*
D02*
G37*
G36*
X221406Y41374D02*
X221396Y41469D01*
X221366Y41554D01*
X221316Y41629D01*
X221246Y41694D01*
X221156Y41749D01*
X221046Y41794D01*
X220916Y41829D01*
X220766Y41854D01*
X220596Y41869D01*
X220406Y41874D01*
Y42874D01*
X220596Y42879D01*
X220766Y42894D01*
X220916Y42919D01*
X221046Y42954D01*
X221156Y42999D01*
X221246Y43054D01*
X221316Y43119D01*
X221366Y43194D01*
X221396Y43279D01*
X221406Y43374D01*
Y41374D01*
D02*
G37*
G36*
X261594Y39307D02*
X261403Y39302D01*
X261231Y39287D01*
X261080Y39262D01*
X260948Y39227D01*
X260837Y39182D01*
X260746Y39127D01*
X260675Y39062D01*
X260624Y38987D01*
X260593Y38902D01*
X260582Y38807D01*
X260594Y40295D01*
X260604Y40297D01*
X260634Y40299D01*
X261084Y40306D01*
X261594Y40307D01*
Y39307D01*
D02*
G37*
G36*
X221406Y38154D02*
X221396Y38219D01*
X221366Y38278D01*
X221316Y38330D01*
X221246Y38375D01*
X221156Y38413D01*
X221046Y38445D01*
X220916Y38469D01*
X220766Y38486D01*
X220596Y38497D01*
X220406Y38500D01*
Y39500D01*
X220596Y39505D01*
X220766Y39520D01*
X220916Y39545D01*
X221046Y39580D01*
X221156Y39625D01*
X221246Y39680D01*
X221316Y39745D01*
X221366Y39820D01*
X221396Y39905D01*
X221406Y40000D01*
Y38154D01*
D02*
G37*
G36*
X260604Y37068D02*
X260634Y36999D01*
X260684Y36939D01*
X260754Y36886D01*
X260844Y36841D01*
X260954Y36805D01*
X261084Y36776D01*
X261234Y36756D01*
X261404Y36744D01*
X261594Y36740D01*
Y35740D01*
X261403Y35735D01*
X261231Y35720D01*
X261080Y35695D01*
X260948Y35660D01*
X260837Y35615D01*
X260746Y35560D01*
X260675Y35495D01*
X260624Y35420D01*
X260593Y35335D01*
X260582Y35240D01*
X260594Y37146D01*
X260604Y37068D01*
D02*
G37*
G36*
X221406Y35075D02*
X221396Y35170D01*
X221366Y35255D01*
X221316Y35330D01*
X221246Y35395D01*
X221156Y35450D01*
X221046Y35495D01*
X220916Y35530D01*
X220766Y35555D01*
X220596Y35570D01*
X220406Y35575D01*
Y36575D01*
X220596Y36580D01*
X220766Y36595D01*
X220916Y36620D01*
X221046Y36655D01*
X221156Y36700D01*
X221246Y36755D01*
X221316Y36820D01*
X221366Y36895D01*
X221396Y36980D01*
X221406Y37075D01*
Y35075D01*
D02*
G37*
G36*
X262434Y31495D02*
X262261Y31668D01*
X262088Y31822D01*
X261917Y31958D01*
X261746Y32076D01*
X261576Y32175D01*
X261406Y32257D01*
X261238Y32320D01*
X261093Y32359D01*
X261078Y32357D01*
X260947Y32322D01*
X260835Y32277D01*
X260744Y32222D01*
X260673Y32157D01*
X260623Y32082D01*
X260592Y31997D01*
X260582Y31902D01*
Y33902D01*
X260592Y33807D01*
X260623Y33722D01*
X260673Y33647D01*
X260744Y33582D01*
X260835Y33527D01*
X260947Y33482D01*
X261078Y33447D01*
X261101Y33443D01*
X261248Y33482D01*
X261418Y33545D01*
X261589Y33625D01*
X261762Y33724D01*
X261936Y33840D01*
X262111Y33974D01*
X262288Y34126D01*
X262467Y34295D01*
X262434Y31495D01*
D02*
G37*
G36*
X221406Y31855D02*
X221396Y31882D01*
X221366Y31907D01*
X221316Y31929D01*
X221246Y31948D01*
X221156Y31964D01*
X221046Y31977D01*
X220766Y31994D01*
X220406Y32000D01*
Y33000D01*
X220596Y33005D01*
X220766Y33020D01*
X220916Y33045D01*
X221046Y33080D01*
X221156Y33125D01*
X221246Y33180D01*
X221316Y33245D01*
X221366Y33320D01*
X221396Y33405D01*
X221406Y33500D01*
Y31855D01*
D02*
G37*
G36*
X253168Y31141D02*
X253331Y30983D01*
X253496Y30843D01*
X253661Y30723D01*
X253826Y30620D01*
X253992Y30537D01*
X254073Y30505D01*
X254159Y30553D01*
X254229Y30612D01*
X254279Y30681D01*
X254309Y30759D01*
X254319Y30846D01*
Y30427D01*
X254326Y30425D01*
X254494Y30397D01*
X254662Y30388D01*
X254604Y29388D01*
X254441Y29379D01*
X254319Y29360D01*
Y28888D01*
X254309Y28983D01*
X254279Y29068D01*
X254229Y29143D01*
X254159Y29208D01*
X254069Y29263D01*
X254025Y29281D01*
X253936Y29249D01*
X253761Y29171D01*
X253584Y29076D01*
X253404Y28964D01*
X253222Y28834D01*
X253036Y28687D01*
X252848Y28522D01*
X253005Y31318D01*
X253168Y31141D01*
D02*
G37*
G36*
X221406Y28776D02*
X221396Y28871D01*
X221366Y28956D01*
X221316Y29031D01*
X221246Y29096D01*
X221156Y29151D01*
X221046Y29196D01*
X220916Y29231D01*
X220766Y29256D01*
X220596Y29271D01*
X220406Y29276D01*
Y30276D01*
X220596Y30281D01*
X220766Y30296D01*
X220916Y30321D01*
X221046Y30356D01*
X221156Y30401D01*
X221246Y30456D01*
X221316Y30521D01*
X221366Y30596D01*
X221396Y30681D01*
X221406Y30776D01*
Y28776D01*
D02*
G37*
G36*
X260592Y27468D02*
X260623Y27383D01*
X260673Y27308D01*
X260744Y27243D01*
X260835Y27188D01*
X260947Y27143D01*
X261078Y27108D01*
X261230Y27083D01*
X261402Y27068D01*
X261594Y27063D01*
Y26063D01*
X261402Y26058D01*
X261230Y26043D01*
X261078Y26018D01*
X260947Y25983D01*
X260835Y25938D01*
X260744Y25883D01*
X260673Y25818D01*
X260623Y25743D01*
X260592Y25658D01*
X260582Y25563D01*
Y27563D01*
X260592Y27468D01*
D02*
G37*
G36*
X221406Y25555D02*
X221396Y25640D01*
X221366Y25715D01*
X221316Y25782D01*
X221246Y25840D01*
X221156Y25889D01*
X221046Y25929D01*
X220916Y25960D01*
X220766Y25982D01*
X220596Y25995D01*
X220406Y26000D01*
Y27000D01*
X220596Y27005D01*
X220766Y27020D01*
X220916Y27045D01*
X221046Y27080D01*
X221156Y27125D01*
X221246Y27180D01*
X221316Y27245D01*
X221366Y27320D01*
X221396Y27405D01*
X221406Y27500D01*
Y25555D01*
D02*
G37*
G36*
X229237Y22323D02*
X229041Y22483D01*
X228659Y22752D01*
X228474Y22861D01*
X228293Y22953D01*
X228117Y23029D01*
X227999Y23069D01*
X227923Y23038D01*
X227832Y22983D01*
X227761Y22918D01*
X227710Y22843D01*
X227680Y22758D01*
X227669Y22663D01*
X227672Y23146D01*
X227611Y23155D01*
X227450Y23163D01*
X227353Y24163D01*
X227523Y24173D01*
X227679Y24199D01*
X227681Y24547D01*
X227691Y24474D01*
X227721Y24409D01*
X227771Y24351D01*
X227841Y24302D01*
X227909Y24269D01*
X228023Y24315D01*
X228186Y24400D01*
X228347Y24504D01*
X228507Y24627D01*
X228665Y24770D01*
X228821Y24931D01*
X228976Y25111D01*
X229237Y22323D01*
D02*
G37*
G36*
X249442Y21989D02*
X249457Y21817D01*
X249482Y21665D01*
X249511Y21555D01*
X250354Y21528D01*
X250180Y21360D01*
X250024Y21191D01*
X249886Y21023D01*
X249767Y20854D01*
X249666Y20686D01*
X249584Y20518D01*
X249520Y20351D01*
X249474Y20183D01*
X249446Y20016D01*
X249437Y19848D01*
X248437Y19881D01*
X248428Y20045D01*
X248402Y20211D01*
X248358Y20380D01*
X248296Y20550D01*
X248217Y20723D01*
X248120Y20897D01*
X248005Y21074D01*
X247873Y21253D01*
X247723Y21433D01*
X247556Y21617D01*
X248372Y21591D01*
X248392Y21665D01*
X248417Y21817D01*
X248432Y21989D01*
X248437Y22181D01*
X249437D01*
X249442Y21989D01*
D02*
G37*
G36*
X237758Y14494D02*
X237943D01*
X238296Y14476D01*
X238432Y14098D01*
X238444Y14022D01*
X238445Y14015D01*
X238126Y13581D01*
X237925D01*
X237615Y13519D01*
X237353Y13344D01*
X237178Y13081D01*
X237116Y12772D01*
Y9228D01*
X237178Y8919D01*
X237353Y8656D01*
X237615Y8481D01*
X237925Y8419D01*
X239067D01*
Y6500D01*
X239194Y6194D01*
X240038Y5349D01*
X239847Y4887D01*
X224466D01*
X223418Y5936D01*
Y12620D01*
X223880Y13082D01*
X228000D01*
X228351Y13152D01*
X228649Y13351D01*
X229791Y14494D01*
X231143D01*
X231459Y14494D01*
Y14494D01*
X231643D01*
Y14494D01*
X234293D01*
X234609Y14494D01*
Y14494D01*
X234793D01*
Y14494D01*
X237758D01*
Y14494D01*
D02*
G37*
G36*
X246000Y5000D02*
X242000D01*
X241887Y4887D01*
X241113D01*
X239500Y6500D01*
Y8419D01*
X241075D01*
X241385Y8481D01*
X241647Y8656D01*
X241822Y8919D01*
X241884Y9228D01*
Y10800D01*
X239500D01*
Y11200D01*
X241884D01*
Y12772D01*
X241822Y13081D01*
X241647Y13344D01*
X241385Y13519D01*
X241075Y13581D01*
X240724D01*
X240405Y14015D01*
X240406Y14022D01*
X240419Y14098D01*
X240554Y14476D01*
X240908Y14494D01*
X241092D01*
Y14494D01*
X244057D01*
X244057Y14494D01*
X244242D01*
Y14494D01*
X244557Y14494D01*
X246000D01*
Y5000D01*
D02*
G37*
G36*
X280616Y27586D02*
Y24925D01*
X280678Y24615D01*
X280853Y24353D01*
X281116Y24178D01*
X281425Y24116D01*
X284086D01*
X291894Y16308D01*
X292192Y16109D01*
X292543Y16039D01*
X293463D01*
Y15885D01*
X293844Y14966D01*
X294004Y14807D01*
X293882Y14487D01*
X293779Y14324D01*
X293359Y14241D01*
X292967Y13978D01*
X292951Y13955D01*
X292451Y14107D01*
Y14309D01*
X291065D01*
X290976Y14327D01*
X287971D01*
X276884Y25414D01*
Y28075D01*
X276822Y28385D01*
X276647Y28647D01*
X276384Y28822D01*
X276075Y28884D01*
X273414D01*
X270055Y32243D01*
Y36606D01*
X269985Y36957D01*
X269786Y37254D01*
X266084Y40956D01*
X266268Y41402D01*
X266753Y41449D01*
X280616Y27586D01*
D02*
G37*
G36*
X240330Y14908D02*
X240245Y14877D01*
X240170Y14827D01*
X240105Y14756D01*
X240050Y14665D01*
X240005Y14553D01*
X239970Y14422D01*
X239945Y14270D01*
X239930Y14098D01*
X239925Y13906D01*
X238925D01*
X238920Y14098D01*
X238905Y14270D01*
X238880Y14422D01*
X238845Y14553D01*
X238800Y14665D01*
X238745Y14756D01*
X238680Y14827D01*
X238605Y14877D01*
X238520Y14908D01*
X238425Y14918D01*
X240425D01*
X240330Y14908D01*
D02*
G37*
G36*
X222853Y12646D02*
X222147Y13354D01*
X222184Y13417D01*
X223667Y13807D01*
X222853Y12646D01*
D02*
G37*
%LPC*%
G36*
X315300Y144863D02*
X314923D01*
X313790Y144637D01*
X312723Y144195D01*
X311763Y143554D01*
X310946Y142737D01*
X310305Y141777D01*
X309863Y140710D01*
X309637Y139577D01*
Y139200D01*
X315300D01*
Y144863D01*
D02*
G37*
G36*
Y138800D02*
X309637D01*
Y138423D01*
X309863Y137290D01*
X310305Y136223D01*
X310946Y135263D01*
X311763Y134446D01*
X312723Y133805D01*
X313790Y133363D01*
X314923Y133137D01*
X315300D01*
Y138800D01*
D02*
G37*
G36*
X292224Y125081D02*
X290850D01*
Y122700D01*
X293034D01*
Y124272D01*
X292972Y124581D01*
X292797Y124844D01*
X292534Y125019D01*
X292224Y125081D01*
D02*
G37*
G36*
X290450D02*
X289075D01*
X288765Y125019D01*
X288503Y124844D01*
X288327Y124581D01*
X288266Y124272D01*
Y122700D01*
X290450D01*
Y125081D01*
D02*
G37*
G36*
X293034Y122300D02*
X290650D01*
X288266D01*
Y120728D01*
X288327Y120419D01*
X288503Y120156D01*
X288709Y120018D01*
X288739Y119750D01*
X288709Y119482D01*
X288503Y119344D01*
X288327Y119081D01*
X288266Y118772D01*
Y117200D01*
X290650D01*
X293034D01*
Y118772D01*
X292972Y119081D01*
X292797Y119344D01*
X292590Y119482D01*
X292560Y119750D01*
X292590Y120018D01*
X292797Y120156D01*
X292972Y120419D01*
X293034Y120728D01*
Y122300D01*
D02*
G37*
G36*
Y116800D02*
X290850D01*
Y114419D01*
X292224D01*
X292534Y114481D01*
X292797Y114656D01*
X292972Y114919D01*
X293034Y115228D01*
Y116800D01*
D02*
G37*
G36*
X290450D02*
X288266D01*
Y115228D01*
X288327Y114919D01*
X288503Y114656D01*
X288765Y114481D01*
X289075Y114419D01*
X290450D01*
Y116800D01*
D02*
G37*
G36*
X292224Y113581D02*
X290850D01*
Y111200D01*
X293034D01*
Y112772D01*
X292972Y113081D01*
X292797Y113344D01*
X292534Y113519D01*
X292224Y113581D01*
D02*
G37*
G36*
X290450D02*
X289075D01*
X288765Y113519D01*
X288503Y113344D01*
X288327Y113081D01*
X288266Y112772D01*
Y111200D01*
X290450D01*
Y113581D01*
D02*
G37*
G36*
X304390Y82959D02*
X304200D01*
Y80200D01*
X306959D01*
Y80390D01*
X306757Y81142D01*
X306368Y81817D01*
X305817Y82368D01*
X305142Y82757D01*
X304390Y82959D01*
D02*
G37*
G36*
X303800D02*
X303610D01*
X302858Y82757D01*
X302183Y82368D01*
X301632Y81817D01*
X301243Y81142D01*
X301041Y80390D01*
Y80200D01*
X303800D01*
Y82959D01*
D02*
G37*
G36*
X234776Y13581D02*
X233401D01*
Y11200D01*
X235585D01*
Y12772D01*
X235523Y13081D01*
X235348Y13344D01*
X235085Y13519D01*
X234776Y13581D01*
D02*
G37*
G36*
X233001D02*
X231626D01*
X231316Y13519D01*
X231054Y13344D01*
X230878Y13081D01*
X230817Y12772D01*
Y11200D01*
X231249D01*
Y11200D01*
Y11200D01*
X233001D01*
Y13581D01*
D02*
G37*
G36*
Y10800D02*
X231249D01*
Y9800D01*
X231242Y9866D01*
X231220Y9926D01*
X231185Y9979D01*
X231135Y10024D01*
X231071Y10063D01*
X230993Y10094D01*
X230900Y10119D01*
X230817Y10132D01*
Y9228D01*
X230878Y8919D01*
X231054Y8656D01*
X231316Y8481D01*
X231626Y8419D01*
X233001D01*
Y10800D01*
D02*
G37*
G36*
X235585D02*
X233401D01*
Y8419D01*
X234776D01*
X235085Y8481D01*
X235348Y8656D01*
X235523Y8919D01*
X235585Y9228D01*
Y10800D01*
D02*
G37*
%LPD*%
G36*
X197943Y94003D02*
X197859Y93964D01*
X197785Y93899D01*
X197722Y93809D01*
X197667Y93693D01*
X197623Y93551D01*
X197589Y93383D01*
X197564Y93189D01*
X197549Y92970D01*
X197544Y92724D01*
X196544D01*
X196539Y92970D01*
X196500Y93383D01*
X196465Y93551D01*
X196421Y93693D01*
X196367Y93809D01*
X196303Y93899D01*
X196229Y93964D01*
X196145Y94003D01*
X196051Y94016D01*
X198037D01*
X197943Y94003D01*
D02*
G37*
G36*
X197549Y90967D02*
X197564Y90795D01*
X197589Y90643D01*
X197624Y90511D01*
X197669Y90400D01*
X197724Y90309D01*
X197789Y90238D01*
X197864Y90187D01*
X197949Y90157D01*
X198044Y90147D01*
X196044D01*
X196139Y90157D01*
X196224Y90187D01*
X196299Y90238D01*
X196364Y90309D01*
X196419Y90400D01*
X196464Y90511D01*
X196499Y90643D01*
X196524Y90795D01*
X196539Y90967D01*
X196544Y91159D01*
X197544D01*
X197549Y90967D01*
D02*
G37*
G36*
X197698Y79939D02*
X197638Y79913D01*
X197586Y79870D01*
X197540Y79810D01*
X197502Y79732D01*
X197470Y79637D01*
X197446Y79525D01*
X197428Y79396D01*
X197418Y79250D01*
X197414Y79086D01*
X196414D01*
X196411Y79250D01*
X196383Y79525D01*
X196358Y79637D01*
X196327Y79732D01*
X196288Y79810D01*
X196243Y79870D01*
X196190Y79913D01*
X196131Y79939D01*
X196064Y79948D01*
X197764D01*
X197698Y79939D01*
D02*
G37*
G36*
X221009Y53960D02*
X221036Y53793D01*
X221081Y53625D01*
X221144Y53456D01*
X221225Y53285D01*
X221324Y53114D01*
X221441Y52941D01*
X221576Y52768D01*
X221729Y52593D01*
X221900Y52417D01*
X219100D01*
X219271Y52593D01*
X219559Y52941D01*
X219676Y53114D01*
X219775Y53285D01*
X219856Y53456D01*
X219919Y53625D01*
X219964Y53793D01*
X219991Y53960D01*
X220000Y54125D01*
X221000D01*
X221009Y53960D01*
D02*
G37*
G36*
X234031Y47821D02*
X233946Y47791D01*
X233871Y47740D01*
X233806Y47669D01*
X233751Y47578D01*
X233706Y47467D01*
X233671Y47335D01*
X233646Y47183D01*
X233631Y47011D01*
X233626Y46819D01*
X232626D01*
X232621Y47011D01*
X232606Y47183D01*
X232581Y47335D01*
X232546Y47467D01*
X232501Y47578D01*
X232446Y47669D01*
X232381Y47740D01*
X232306Y47791D01*
X232221Y47821D01*
X232126Y47831D01*
X234126D01*
X234031Y47821D01*
D02*
G37*
G36*
X136851Y49001D02*
X136823Y49038D01*
X136786Y49059D01*
X136740Y49063D01*
X136684Y49052D01*
X136619Y49024D01*
X136545Y48981D01*
X136462Y48921D01*
X136369Y48846D01*
X136156Y48646D01*
X135449Y49354D01*
X135600Y49508D01*
X135944Y49901D01*
X136022Y50008D01*
X136082Y50104D01*
X136123Y50188D01*
X136146Y50261D01*
X136151Y50322D01*
X136138Y50371D01*
X136851Y49001D01*
D02*
G37*
G36*
X75000Y19479D02*
X75009Y19315D01*
X75033Y19163D01*
X75493D01*
X75400Y19153D01*
X75316Y19121D01*
X75242Y19070D01*
X75178Y18997D01*
X75123Y18904D01*
X75115Y18883D01*
X75141Y18810D01*
X75221Y18638D01*
X75318Y18463D01*
X75432Y18287D01*
X75565Y18108D01*
X75715Y17928D01*
X75882Y17745D01*
X73084Y17829D01*
X73258Y17998D01*
X73413Y18167D01*
X73551Y18336D01*
X73670Y18504D01*
X73771Y18673D01*
X73853Y18841D01*
X73877Y18903D01*
X73877Y18904D01*
X73822Y18997D01*
X73758Y19070D01*
X73684Y19121D01*
X73600Y19153D01*
X73507Y19163D01*
X73960D01*
X73963Y19176D01*
X73991Y19343D01*
X74000Y19511D01*
X75000Y19479D01*
D02*
G37*
G36*
X75048Y5048D02*
X75044Y5078D01*
X75025Y5105D01*
X74993Y5128D01*
X74947Y5149D01*
X74887Y5166D01*
X74813Y5180D01*
X74725Y5191D01*
X74507Y5204D01*
X74378Y5206D01*
Y6206D01*
X74507Y6207D01*
X74826Y6229D01*
X74909Y6242D01*
X74980Y6258D01*
X75040Y6276D01*
X75088Y6298D01*
X75125Y6323D01*
X75150Y6350D01*
X75048Y5048D01*
D02*
G37*
G36*
X26479Y17358D02*
X26606Y17255D01*
X26733Y17167D01*
X26861Y17094D01*
X26990Y17035D01*
X27120Y16992D01*
X27250Y16964D01*
X27381Y16950D01*
X27513Y16952D01*
X27646Y16968D01*
X26070Y15523D01*
X26097Y15652D01*
X26109Y15780D01*
X26105Y15907D01*
X26086Y16033D01*
X26051Y16158D01*
X26001Y16282D01*
X25936Y16405D01*
X25855Y16527D01*
X25758Y16648D01*
X25646Y16769D01*
X26354Y17476D01*
X26479Y17358D01*
D02*
G37*
G36*
X16729Y13396D02*
X16441Y13047D01*
X16324Y12875D01*
X16225Y12704D01*
X16144Y12533D01*
X16081Y12364D01*
X16074Y12338D01*
X16080Y12316D01*
X16125Y12205D01*
X16180Y12114D01*
X16245Y12043D01*
X16320Y11992D01*
X16405Y11962D01*
X16500Y11952D01*
X16005D01*
X16000Y11863D01*
X15000D01*
X14995Y11952D01*
X14500D01*
X14595Y11962D01*
X14680Y11992D01*
X14755Y12043D01*
X14820Y12114D01*
X14875Y12205D01*
X14920Y12316D01*
X14926Y12338D01*
X14919Y12364D01*
X14856Y12533D01*
X14775Y12704D01*
X14676Y12875D01*
X14559Y13047D01*
X14424Y13221D01*
X14271Y13396D01*
X14100Y13572D01*
X16900D01*
X16729Y13396D01*
D02*
G37*
D12*
X232000Y63500D02*
X232000D01*
X233665Y65165D02*
X236743D01*
X232000Y63500D02*
X233665Y65165D01*
X216033Y51533D02*
Y57606D01*
X229976Y61476D02*
X232000Y63500D01*
X222456Y15044D02*
Y15399D01*
X222500Y5556D02*
X224086Y3970D01*
X222500Y13000D02*
X223500Y14000D01*
X222456Y15044D02*
X223500Y14000D01*
X222500Y5556D02*
Y13000D01*
X224086Y3970D02*
X254470D01*
X257457Y36075D02*
X257622Y36240D01*
X231500Y32500D02*
Y33312D01*
X236276Y22093D02*
Y22093D01*
X233126Y18043D02*
Y20110D01*
X253159Y45431D02*
X257365D01*
X236276Y22093D02*
Y28078D01*
X251923Y50856D02*
X252024Y50957D01*
X250133Y44384D02*
X251923Y46175D01*
X233126Y34938D02*
Y50957D01*
X234293Y21277D02*
Y21566D01*
X257345Y29888D02*
X257457Y29776D01*
X242575Y44382D02*
Y50957D01*
X238258Y21277D02*
X239425Y20110D01*
X236276Y22093D02*
X237731D01*
X233126Y20110D02*
X234293Y21277D01*
X252024Y18043D02*
X252196Y17871D01*
X252194Y44466D02*
X253159Y45431D01*
X247131Y42020D02*
X249495Y44384D01*
X248937Y18106D02*
Y22937D01*
X236500Y35000D02*
Y38307D01*
X252194Y41451D02*
Y44466D01*
X236500Y29000D02*
X236651Y29151D01*
X230342Y23663D02*
X230528Y23850D01*
X239425Y18043D02*
Y20110D01*
X223500Y14000D02*
X228000D01*
X247707Y47434D02*
Y47723D01*
X257457Y26626D02*
X257520Y26563D01*
X263242Y37375D02*
X264054D01*
X243007Y40571D02*
Y42734D01*
X236500Y38307D02*
X242575Y44382D01*
X251923Y46175D02*
Y50856D01*
X245151Y29151D02*
X245500Y29500D01*
X257945Y22988D02*
X258433Y23476D01*
X236651Y29151D02*
X245151D01*
X249495Y44384D02*
X250133D01*
X264437Y26563D02*
X264500Y26500D01*
X262212Y23476D02*
X263688Y22000D01*
X246910Y42020D02*
X247131D01*
X193500Y16000D02*
Y16812D01*
X194574Y18074D02*
X203000Y26500D01*
X257520Y26563D02*
X264437D01*
X236276Y28078D02*
X237000Y28803D01*
X224543Y23476D02*
X224730Y23663D01*
X229976Y15976D02*
Y18043D01*
X248874Y48890D02*
Y50957D01*
X252196Y7142D02*
X252368Y6970D01*
X243007Y42734D02*
X247707Y47434D01*
X251709Y40966D02*
X252194Y41451D01*
X236500Y30000D02*
Y35000D01*
X234293Y21566D02*
X234820Y22093D01*
X242433Y39997D02*
X243007Y40571D01*
X247707Y47723D02*
X248874Y48890D01*
X236500Y35000D02*
X245500D01*
X234820Y22093D02*
X236276D01*
X224417Y26500D02*
X224543Y26626D01*
X257622Y36240D02*
X262106D01*
X257457Y23476D02*
X257945Y22988D01*
X193500Y16812D02*
X194574Y17886D01*
X257480Y32902D02*
X263855D01*
X237731Y22093D02*
X238258Y21566D01*
X231500Y33312D02*
X233126Y34938D01*
X238258Y21277D02*
Y21566D01*
X236500Y30000D02*
X237000Y29500D01*
X194574Y17886D02*
Y18074D01*
X203000Y26500D02*
X224417D01*
X262106Y36240D02*
X263242Y37375D01*
X224730Y23663D02*
X230342D01*
X228000Y14000D02*
X229976Y15976D01*
X254470Y3970D02*
X257000Y6500D01*
X248874Y18043D02*
X248937Y18106D01*
Y22937D02*
X249000Y23000D01*
X252196Y7142D02*
Y17871D01*
X258433Y23476D02*
X262212D01*
X263688Y22000D02*
X264500D01*
X251500Y30000D02*
X251612Y29888D01*
X257345D01*
X257457Y32925D02*
X257480Y32902D01*
X263855D02*
X263879Y32879D01*
X257365Y45431D02*
X257457Y45524D01*
X74378Y5706D02*
X75794D01*
X72624Y7460D02*
X74378Y5706D01*
X75794D02*
X77000Y4500D01*
X72624Y7460D02*
Y12633D01*
X301604Y4396D02*
Y10853D01*
X301500Y10957D02*
X301604Y10853D01*
Y4396D02*
X301708Y4293D01*
X283000Y26500D02*
X292543Y16957D01*
X295389D01*
X295963Y16383D01*
X298941Y10957D02*
Y13122D01*
X319413Y33595D01*
Y39500D01*
X291264Y10957D02*
Y13122D01*
X274500Y26500D02*
X287591Y13409D01*
X290976D01*
X291264Y13122D01*
X257457Y42374D02*
X267126D01*
X283000Y26500D01*
X257457Y39224D02*
X258039Y39807D01*
X262064D01*
X262757Y40500D01*
X265243D02*
X269137Y36606D01*
Y31863D02*
X274500Y26500D01*
X262757Y40500D02*
X265243D01*
X269137Y31863D02*
Y36606D01*
X262353Y71459D02*
Y71459D01*
X269577Y81577D02*
X270000Y82000D01*
X269577Y78683D02*
Y81577D01*
X262353Y71459D02*
X269577Y78683D01*
X253315Y62421D02*
X262353Y71459D01*
X252321Y63821D02*
X256658Y68158D01*
Y139657D01*
X238087Y63821D02*
X252321D01*
X236743Y65165D02*
X238087Y63821D01*
X235500Y62165D02*
X235756Y62421D01*
X253315D01*
X229976Y50957D02*
Y61476D01*
X191741Y81898D02*
X216033Y57606D01*
X220500Y50989D02*
Y55500D01*
X202544Y75956D02*
X223500Y55000D01*
X196914Y79086D02*
X220500Y55500D01*
X196914Y79086D02*
Y81768D01*
X197044Y81898D01*
X242500Y57500D02*
X242575Y57425D01*
Y50957D02*
Y57425D01*
X191885Y21885D02*
X204000Y34000D01*
X180308Y21885D02*
X191885D01*
X204000Y34000D02*
X215500D01*
X190356Y20485D02*
X193026D01*
X205040Y32500D01*
X204296Y29776D02*
X224543D01*
X190935Y19085D02*
X193605D01*
X205040Y32500D02*
X224118D01*
X193605Y19085D02*
X204296Y29776D01*
X224118Y32500D02*
X224543Y32925D01*
X215500Y34000D02*
X217575Y36075D01*
X158480Y13000D02*
X182870D01*
X190356Y20485D01*
X183350Y11500D02*
X190935Y19085D01*
X131000Y11500D02*
X183350D01*
X217575Y36075D02*
X224543D01*
X128322Y36000D02*
X215500D01*
X121887Y42435D02*
X128322Y36000D01*
X215500D02*
X218500Y39000D01*
X155691Y38886D02*
X156877Y37700D01*
X214700D01*
X219374Y42374D01*
X185476Y45524D02*
X224543D01*
X184628Y46372D02*
X185476Y45524D01*
X219374Y42374D02*
X224543D01*
X218500Y39000D02*
X223500D01*
X239425Y11075D02*
X239500Y11000D01*
X239425Y11075D02*
Y18043D01*
X290650Y111000D02*
X291500Y110150D01*
X238473Y82079D02*
X248228D01*
X249000Y82850D01*
X202544Y75956D02*
Y81697D01*
X180308Y46372D02*
X184628D01*
X226500Y103988D02*
X229579Y100909D01*
X226500Y103988D02*
Y108500D01*
X231547Y94756D02*
Y127953D01*
X229579Y94756D02*
Y100909D01*
X222000Y137500D02*
X231547Y127953D01*
X233117Y83415D02*
X234401Y84699D01*
X232254Y83415D02*
X233117D01*
X231547Y82708D02*
X232254Y83415D01*
X219408Y166000D02*
X219963Y166555D01*
X215500Y166000D02*
X219408D01*
X124552Y17948D02*
X131000Y11500D01*
X121001Y17948D02*
X124552D01*
X154827Y16653D02*
X158480Y13000D01*
X154827Y16653D02*
Y22666D01*
X131999Y25822D02*
X138579D01*
X131476Y25299D02*
X131999Y25822D01*
X150784D02*
X151670D01*
X154827Y22666D01*
X168037Y21951D02*
X168103Y21885D01*
X163648Y21951D02*
X168037D01*
X160697Y19000D02*
X163648Y21951D01*
X160500Y19000D02*
X160697D01*
X224289Y81194D02*
Y91632D01*
Y81194D02*
X228694Y76789D01*
X232432D02*
X232959Y77316D01*
Y77644D02*
X233504Y78189D01*
Y79232D01*
X233516Y79244D01*
X228694Y76789D02*
X232432D01*
X191544Y81898D02*
X191741D01*
X155691Y38886D02*
Y48309D01*
X150948Y50146D02*
X153855D01*
X150784Y50309D02*
X150948Y50146D01*
X153855D02*
X155691Y48309D01*
X28000Y14573D02*
Y15000D01*
Y15122D01*
X117500Y138500D02*
Y149528D01*
X164500Y138500D02*
Y149528D01*
Y90472D02*
Y102000D01*
X69379Y15879D02*
X72624Y12633D01*
X74440Y16360D02*
X77000Y13800D01*
Y10000D02*
Y13800D01*
X59500Y12500D02*
Y23000D01*
Y12500D02*
X67000Y5000D01*
X63379Y15841D02*
X63953Y15267D01*
Y13047D02*
X67000Y10000D01*
X63953Y13047D02*
Y15267D01*
X22778Y14795D02*
X32573Y5000D01*
X22778Y14795D02*
Y15000D01*
X28000Y14573D02*
X32573Y10000D01*
X12950Y8050D02*
Y12952D01*
X11000Y14902D02*
Y22500D01*
X12950Y8050D02*
X16000Y5000D01*
X11000Y14902D02*
X12950Y12952D01*
X11000Y22500D02*
X11681Y23181D01*
X15500Y10500D02*
Y15000D01*
Y10500D02*
X16000Y10000D01*
X6000Y36500D02*
X11344D01*
X26000Y17122D02*
Y22500D01*
X6000D02*
Y36500D01*
X31000Y22500D02*
Y25197D01*
X15750Y15250D02*
Y22250D01*
X11681Y23181D02*
Y27869D01*
X12344Y35500D02*
X18500D01*
X21000Y17122D02*
X22778Y15344D01*
X11344Y36500D02*
X12344Y35500D01*
X6000Y36500D02*
Y41988D01*
X11000D02*
Y50500D01*
X18500Y35500D02*
X19074Y34926D01*
X26000Y17122D02*
X28000Y15122D01*
X19074Y34926D02*
X21271D01*
X21000Y17122D02*
Y22500D01*
X21271Y34926D02*
X31000Y25197D01*
X22778Y15000D02*
Y15344D01*
X16000Y41988D02*
Y49500D01*
X36000Y41988D02*
Y49500D01*
X41000Y41988D02*
Y56000D01*
X11000Y50500D02*
X16000Y55500D01*
X15500Y15000D02*
X15750Y15250D01*
X11681Y27869D02*
X12500Y28688D01*
X15750Y22250D02*
X16000Y22500D01*
X12500Y28688D02*
Y29500D01*
X67697Y37500D02*
X67847Y37350D01*
X54500Y23000D02*
Y37500D01*
X53957Y43031D02*
X54500Y42488D01*
X69439Y22939D02*
X69500Y23000D01*
X54500Y37500D02*
X67697D01*
X64500Y42488D02*
Y50000D01*
X89000Y50500D02*
X89250Y50250D01*
X74500Y16420D02*
Y23000D01*
X63379Y15841D02*
X63939Y16402D01*
X59250Y23250D02*
X59500Y23000D01*
X54500Y37500D02*
Y42488D01*
X69379Y15879D02*
X69439Y15939D01*
X89250Y42738D02*
Y50250D01*
X67847Y36217D02*
Y37350D01*
X69439Y15939D02*
Y22939D01*
X67847Y37350D02*
X79500Y25697D01*
X89250Y42738D02*
X89500Y42488D01*
X79500Y23000D02*
Y25697D01*
X74440Y16360D02*
X74500Y16420D01*
X63939Y16402D02*
Y22439D01*
X59250Y23250D02*
Y30250D01*
X59500Y42488D02*
Y53000D01*
X84500Y42488D02*
Y50500D01*
X63939Y22439D02*
X64500Y23000D01*
X59000Y30500D02*
X59250Y30250D01*
X209400Y144118D02*
X214032Y139487D01*
Y138969D02*
Y139487D01*
X208450Y144118D02*
X209400D01*
X222500Y138000D02*
Y142967D01*
X72267Y140733D02*
X72500Y140500D01*
X72267Y140733D02*
Y149528D01*
X23500Y140000D02*
Y149528D01*
Y90472D02*
Y99500D01*
X72500Y90705D02*
Y99500D01*
X72267Y90472D02*
X72500Y90705D01*
X117500Y90472D02*
Y99500D01*
X324202Y35105D02*
X327494D01*
X324532Y37490D02*
X324797Y37225D01*
X326194D01*
X324532Y37490D02*
Y39500D01*
X321972Y37335D02*
X324202Y35105D01*
X326914Y36505D02*
X328990Y38581D01*
X321972Y37335D02*
Y39500D01*
X327494Y35105D02*
X330390Y38001D01*
X326194Y37225D02*
X326914Y36505D01*
X328990Y38581D02*
Y48391D01*
X330390Y38001D02*
Y48971D01*
X318510Y77184D02*
X318528Y77165D01*
X315236Y77184D02*
X318510D01*
X314650Y76598D02*
X315236Y77184D01*
X314650Y64711D02*
Y76598D01*
Y64711D02*
X330390Y48971D01*
X318240Y79437D02*
X318528Y79724D01*
X315510Y79437D02*
X318240D01*
X313250Y77178D02*
X315510Y79437D01*
X313250Y64131D02*
X328990Y48391D01*
X313250Y64131D02*
Y77178D01*
X121001Y42435D02*
X121887D01*
X101500Y42435D02*
X101500Y42435D01*
X108796D01*
X102022Y17948D02*
X109510D01*
X101470Y18500D02*
X102022Y17948D01*
X164743Y43287D02*
Y43898D01*
X167218Y46372D01*
X164157Y42701D02*
X164743Y43287D01*
X160500Y42701D02*
X164157D01*
X65280Y61220D02*
Y72701D01*
X74500Y42488D02*
Y52000D01*
X65280Y61220D02*
X74500Y52000D01*
X68000Y46685D02*
Y54000D01*
X57500Y64500D02*
Y72701D01*
Y64500D02*
X68000Y54000D01*
X65201Y167000D02*
X70500D01*
X65000Y166799D02*
X65201Y167000D01*
X79938Y166737D02*
X80000Y166799D01*
X74992Y166737D02*
X79938D01*
X68000Y46685D02*
X69500Y45185D01*
X52500Y166500D02*
X52799Y166799D01*
X58000D01*
X88299Y166500D02*
X93500D01*
X88000Y166799D02*
X88299Y166500D01*
X87228Y149528D02*
X88000Y150300D01*
Y160500D01*
X79500Y72201D02*
X80000Y72701D01*
X79500Y42488D02*
Y72201D01*
X69500Y42488D02*
Y45185D01*
X5000Y167000D02*
X10299D01*
X10500Y166799D01*
Y151488D02*
Y161133D01*
X8539Y149528D02*
X10500Y151488D01*
X21500Y51304D02*
Y58898D01*
X10165Y70232D02*
X21500Y58898D01*
X21000Y50804D02*
X21500Y51304D01*
X23000Y90972D02*
X23500Y90472D01*
X23000Y149028D02*
X23500Y149528D01*
X21000Y41988D02*
Y50804D01*
X20809Y166799D02*
X20860Y166749D01*
X16000Y166799D02*
X20809D01*
X10165Y70232D02*
Y70232D01*
X8697Y71701D02*
X10165Y70232D01*
X8500Y71701D02*
X8697D01*
X16197D02*
X26000Y61898D01*
X16000Y71701D02*
X16197D01*
X26000Y41988D02*
Y61898D01*
X31000Y41988D02*
Y71701D01*
X25500Y167000D02*
X30799D01*
X31000Y166799D01*
X38500D02*
X38701Y167000D01*
X44500D01*
X215650Y148350D02*
X222350D01*
X215500Y148500D02*
X215650Y148350D01*
X222350D02*
X222500Y148201D01*
X215500Y166000D02*
X216000Y166500D01*
X224000Y91921D02*
X226744D01*
X222945D02*
X224000D01*
X224289Y91632D01*
X232959Y77316D02*
Y77644D01*
X233516Y80287D02*
X234072Y80844D01*
X236896Y80844D02*
Y81172D01*
Y80844D02*
X237453Y80287D01*
X234401Y84699D02*
X235852D01*
X234600Y81699D02*
X236369D01*
X233516Y79244D02*
Y80287D01*
X237453Y79244D02*
Y80287D01*
X231547Y79244D02*
Y82708D01*
X235852Y84699D02*
X238473Y82079D01*
X234072Y81172D02*
X234600Y81699D01*
X234072Y80844D02*
Y81172D01*
X236369Y81699D02*
X236896Y81172D01*
X256658Y139657D02*
Y159343D01*
X157000Y149547D02*
X157020Y149528D01*
X157000Y149547D02*
Y160500D01*
X171500Y150008D02*
X171980Y149528D01*
X171500Y150008D02*
Y160500D01*
X179500Y149567D02*
Y160500D01*
X179461Y149528D02*
X179500Y149567D01*
X171980Y90472D02*
X172000Y90453D01*
Y78500D02*
Y90453D01*
X157500Y78500D02*
Y89992D01*
X157020Y90472D02*
X157500Y89992D01*
X102500Y78000D02*
Y90433D01*
X102539Y90472D01*
X109500Y89953D02*
X110020Y90472D01*
X109500Y78000D02*
Y89953D01*
X124980Y90472D02*
X125000Y90453D01*
Y78000D02*
Y90453D01*
X132000Y149988D02*
X132461Y149528D01*
X132000Y149988D02*
Y160500D01*
X124500Y150008D02*
X124980Y149528D01*
X124500Y150008D02*
Y160500D01*
X109500Y150047D02*
X110020Y149528D01*
X109500Y150047D02*
Y160500D01*
X58000Y150221D02*
Y160500D01*
X57307Y149528D02*
X58000Y150221D01*
X64787Y149528D02*
X65000Y149741D01*
Y160500D01*
X79748Y149528D02*
X80000Y149780D01*
Y160500D01*
X79748Y90472D02*
X80000Y90220D01*
Y79000D02*
Y90220D01*
X57307Y90472D02*
X57500Y90279D01*
Y79000D02*
Y90279D01*
X64787Y90472D02*
X65280Y89980D01*
Y79000D02*
Y89980D01*
X31000Y78000D02*
Y90453D01*
X30980Y90472D02*
X31000Y90453D01*
X16000Y78000D02*
Y90453D01*
X16020Y90472D01*
X16000Y149547D02*
X16020Y149528D01*
X16000Y149547D02*
Y160500D01*
X30980Y149528D02*
X31000Y149547D01*
Y160500D01*
X167218Y46372D02*
X168103D01*
X135803Y49000D02*
X137112Y50309D01*
X138579D01*
X131476Y49000D02*
X135803D01*
X237500Y95846D02*
Y100976D01*
X237453Y95799D02*
X237500Y95846D01*
X237453Y94756D02*
Y95799D01*
X237500Y100976D02*
X246000D01*
X235484Y73835D02*
Y79244D01*
X235150Y73500D02*
X235484Y73835D01*
X217799Y91000D02*
X222024D01*
X222945Y91921D01*
X217921Y158882D02*
X222889Y153914D01*
X223086D01*
X208450Y158882D02*
X217921D01*
X222500Y142967D02*
X225565Y146033D01*
X198528Y158182D02*
X199850D01*
X215303Y154799D02*
X215500D01*
X213320Y156782D02*
X215303Y154799D01*
X205927Y156782D02*
X213320D01*
X205400Y157309D02*
X205927Y156782D01*
X205400Y157309D02*
Y160455D01*
X206438Y161493D01*
X214462D01*
X215500Y162531D01*
Y166000D01*
X204064Y153724D02*
Y156318D01*
X201500Y158882D02*
X204064Y156318D01*
X212086Y148500D02*
X215500D01*
X211500Y149086D02*
X212086Y148500D01*
X211500Y149086D02*
Y150612D01*
X210252Y151861D02*
X211500Y150612D01*
X205927Y151861D02*
X210252D01*
X200550Y158882D02*
X201500D01*
X204064Y153724D02*
X205927Y151861D01*
X214032Y138969D02*
X215500Y137500D01*
X198900Y152502D02*
Y153261D01*
X199600Y153961D01*
X200550D01*
X193500Y147299D02*
X193697D01*
X198900Y152502D01*
X193697Y153350D02*
X198528Y158182D01*
X199850D02*
X200550Y158882D01*
X193500Y153350D02*
X193697D01*
X222500Y154500D02*
X223086Y153914D01*
X225565Y146033D02*
Y153914D01*
X223086D02*
X225565D01*
X208450Y153961D02*
X214661D01*
X215500Y154799D01*
X200981Y95067D02*
Y96095D01*
X202500Y88040D02*
X202544Y87996D01*
X202500Y88040D02*
Y93548D01*
X200981Y95067D02*
X202500Y93548D01*
X197044Y88197D02*
Y96095D01*
X193107Y94623D02*
Y96095D01*
X191544Y88197D02*
Y93060D01*
X193107Y94623D01*
D15*
X232701Y10500D02*
X233201Y11000D01*
X227000Y10500D02*
X232701D01*
X242500Y18118D02*
Y23500D01*
Y18118D02*
X242575Y18043D01*
X319807Y66732D02*
X329061D01*
X319413Y67126D02*
X319807Y66732D01*
X197044Y108299D02*
X197092Y108347D01*
D43*
X257457Y45524D02*
D03*
Y42374D02*
D03*
Y39224D02*
D03*
Y36075D02*
D03*
Y32925D02*
D03*
Y29776D02*
D03*
Y26626D02*
D03*
Y23476D02*
D03*
X224543D02*
D03*
Y26626D02*
D03*
Y29776D02*
D03*
Y32925D02*
D03*
Y36075D02*
D03*
Y39224D02*
D03*
Y42374D02*
D03*
Y45524D02*
D03*
D44*
X252024Y18043D02*
D03*
X248874D02*
D03*
X245724D02*
D03*
X242575D02*
D03*
X239425D02*
D03*
X236276D02*
D03*
X233126D02*
D03*
X229976D02*
D03*
Y50957D02*
D03*
X233126D02*
D03*
X236276D02*
D03*
X239425D02*
D03*
X242575D02*
D03*
X245724D02*
D03*
X248874D02*
D03*
D45*
X252024D02*
D03*
D46*
X77000Y4500D02*
D03*
X67000D02*
D03*
Y10500D02*
D03*
X77000Y9500D02*
D03*
X32500Y5000D02*
D03*
X32573Y10000D02*
D03*
X16000Y5000D02*
D03*
Y10000D02*
D03*
X222000Y137500D02*
D03*
X215500D02*
D03*
Y166000D02*
D03*
D47*
X274500Y26500D02*
D03*
X283000D02*
D03*
D48*
X290650Y111000D02*
D03*
X284350D02*
D03*
X236201Y57500D02*
D03*
X242500D02*
D03*
X239500Y11000D02*
D03*
X233201D02*
D03*
X290650Y122500D02*
D03*
X284350D02*
D03*
Y117000D02*
D03*
X290650D02*
D03*
X318150Y47000D02*
D03*
X311850D02*
D03*
X235150Y73500D02*
D03*
X228850D02*
D03*
D49*
X324532Y39500D02*
D03*
X321972D02*
D03*
X319413D02*
D03*
X316854D02*
D03*
X314295D02*
D03*
X311736D02*
D03*
X309177D02*
D03*
X306618D02*
D03*
X304059D02*
D03*
X301500D02*
D03*
X298941D02*
D03*
X296382D02*
D03*
X293823D02*
D03*
X291264D02*
D03*
X324532Y10957D02*
D03*
X321972D02*
D03*
X319413D02*
D03*
X316854D02*
D03*
X314295D02*
D03*
X311736D02*
D03*
X309177D02*
D03*
X306618D02*
D03*
X304059D02*
D03*
X301500D02*
D03*
X298941D02*
D03*
X296382D02*
D03*
X293823D02*
D03*
D50*
X291264D02*
D03*
D51*
X226744Y91921D02*
D03*
Y89953D02*
D03*
Y87984D02*
D03*
Y86016D02*
D03*
Y84047D02*
D03*
Y82079D02*
D03*
X242256D02*
D03*
Y84047D02*
D03*
Y86016D02*
D03*
Y87984D02*
D03*
Y89953D02*
D03*
Y91921D02*
D03*
D52*
X229579Y79244D02*
D03*
X231547D02*
D03*
X233516D02*
D03*
X235484D02*
D03*
X237453D02*
D03*
X239421D02*
D03*
Y94756D02*
D03*
X237453D02*
D03*
X235484D02*
D03*
X233516D02*
D03*
X231547D02*
D03*
X229579D02*
D03*
D53*
X318528Y74606D02*
D03*
Y77165D02*
D03*
Y79724D02*
D03*
Y82284D02*
D03*
Y84842D02*
D03*
D54*
X319413Y67126D02*
D03*
Y92323D02*
D03*
D55*
X329059Y75000D02*
D03*
Y84449D02*
D03*
D56*
X6000Y22500D02*
D03*
X11000D02*
D03*
X16000D02*
D03*
X21000D02*
D03*
X26000D02*
D03*
X31000D02*
D03*
X36000D02*
D03*
X41000D02*
D03*
Y41988D02*
D03*
X36000D02*
D03*
X31000D02*
D03*
X26000D02*
D03*
X21000D02*
D03*
X16000D02*
D03*
X11000D02*
D03*
X6000D02*
D03*
X54500Y23000D02*
D03*
X59500D02*
D03*
X64500D02*
D03*
X69500D02*
D03*
X74500D02*
D03*
X79500D02*
D03*
X84500D02*
D03*
X89500D02*
D03*
Y42488D02*
D03*
X84500D02*
D03*
X79500D02*
D03*
X74500D02*
D03*
X69500D02*
D03*
X64500D02*
D03*
X59500D02*
D03*
X54500D02*
D03*
D57*
X208450Y158882D02*
D03*
Y153961D02*
D03*
Y149039D02*
D03*
Y144118D02*
D03*
X200550D02*
D03*
Y149039D02*
D03*
Y153961D02*
D03*
Y158882D02*
D03*
D58*
X101399Y19000D02*
D03*
Y25299D02*
D03*
X101500Y42435D02*
D03*
Y48735D02*
D03*
X131476Y25299D02*
D03*
Y19000D02*
D03*
Y49000D02*
D03*
Y42701D02*
D03*
X160500Y19000D02*
D03*
Y25299D02*
D03*
Y42701D02*
D03*
Y49000D02*
D03*
X157000Y160500D02*
D03*
Y166799D02*
D03*
X109500Y160500D02*
D03*
Y166799D02*
D03*
X149500Y78500D02*
D03*
Y72201D02*
D03*
X102500Y78000D02*
D03*
Y71701D02*
D03*
X157500Y78500D02*
D03*
Y72201D02*
D03*
X109500Y78000D02*
D03*
Y71701D02*
D03*
X172000Y78500D02*
D03*
Y72201D02*
D03*
X125000Y78000D02*
D03*
Y71701D02*
D03*
X179500Y160500D02*
D03*
Y166799D02*
D03*
X132000Y160500D02*
D03*
Y166799D02*
D03*
X171500Y160500D02*
D03*
Y166799D02*
D03*
X124500Y160500D02*
D03*
Y166799D02*
D03*
X58000Y160500D02*
D03*
Y166799D02*
D03*
X65000Y160500D02*
D03*
Y166799D02*
D03*
X57500Y79000D02*
D03*
Y72701D02*
D03*
X65280Y79000D02*
D03*
Y72701D02*
D03*
X80000Y79000D02*
D03*
Y72701D02*
D03*
X88000Y160500D02*
D03*
Y166799D02*
D03*
X80000Y160500D02*
D03*
Y166799D02*
D03*
X10500Y160500D02*
D03*
Y166799D02*
D03*
X16000Y160500D02*
D03*
Y166799D02*
D03*
X8500Y78000D02*
D03*
Y71701D02*
D03*
X16000Y78000D02*
D03*
Y71701D02*
D03*
X31000Y78000D02*
D03*
Y71701D02*
D03*
X38500Y160500D02*
D03*
Y166799D02*
D03*
X31000Y160500D02*
D03*
Y166799D02*
D03*
X217500Y98000D02*
D03*
Y91701D02*
D03*
X215500Y154799D02*
D03*
Y148500D02*
D03*
X222500Y154500D02*
D03*
Y148201D02*
D03*
X191544Y81898D02*
D03*
Y88197D02*
D03*
X197044Y81898D02*
D03*
Y88197D02*
D03*
X202544Y81697D02*
D03*
Y87996D02*
D03*
D59*
X149539Y90472D02*
D03*
X157020D02*
D03*
X164500D02*
D03*
X171980D02*
D03*
X179461D02*
D03*
Y149528D02*
D03*
X171980D02*
D03*
X164500D02*
D03*
X157020D02*
D03*
X149539D02*
D03*
X102539Y90472D02*
D03*
X110020D02*
D03*
X117500D02*
D03*
X124980D02*
D03*
X132461D02*
D03*
Y149528D02*
D03*
X124980D02*
D03*
X117500D02*
D03*
X110020D02*
D03*
X102539D02*
D03*
X57307Y90472D02*
D03*
X64787D02*
D03*
X72267D02*
D03*
X79748D02*
D03*
X87228D02*
D03*
Y149528D02*
D03*
X79748D02*
D03*
X72267D02*
D03*
X64787D02*
D03*
X57307D02*
D03*
X8539Y90472D02*
D03*
X16020D02*
D03*
X23500D02*
D03*
X30980D02*
D03*
X38461D02*
D03*
Y149528D02*
D03*
X30980D02*
D03*
X23500D02*
D03*
X16020D02*
D03*
X8539D02*
D03*
D60*
X121001Y25822D02*
D03*
Y21885D02*
D03*
Y17948D02*
D03*
X108796D02*
D03*
Y21885D02*
D03*
Y25822D02*
D03*
X121001Y50309D02*
D03*
Y46372D02*
D03*
Y42435D02*
D03*
X108796D02*
D03*
Y46372D02*
D03*
Y50309D02*
D03*
X150784Y25822D02*
D03*
Y21885D02*
D03*
Y17948D02*
D03*
X138579D02*
D03*
Y21885D02*
D03*
Y25822D02*
D03*
X150784Y50309D02*
D03*
Y46372D02*
D03*
Y42435D02*
D03*
X138579D02*
D03*
Y46372D02*
D03*
Y50309D02*
D03*
X180308Y25822D02*
D03*
Y21885D02*
D03*
Y17948D02*
D03*
X168103D02*
D03*
Y21885D02*
D03*
Y25822D02*
D03*
X180308Y50309D02*
D03*
Y46372D02*
D03*
Y42435D02*
D03*
X168103D02*
D03*
Y46372D02*
D03*
Y50309D02*
D03*
D61*
X200981Y96095D02*
D03*
X197044D02*
D03*
X193107D02*
D03*
Y108299D02*
D03*
X197044D02*
D03*
X200981D02*
D03*
D62*
X237500Y108024D02*
D03*
Y100976D02*
D03*
X246000Y108024D02*
D03*
Y100976D02*
D03*
D63*
X249000Y82850D02*
D03*
Y89150D02*
D03*
X193500Y147299D02*
D03*
Y141000D02*
D03*
Y153350D02*
D03*
Y159650D02*
D03*
D64*
X311736Y46886D02*
X311850Y47000D01*
X311736Y39500D02*
Y46886D01*
X304000Y55047D02*
X311850Y47197D01*
X304000Y55047D02*
Y80000D01*
X311850Y47000D02*
Y47197D01*
X149500Y90433D02*
X149539Y90472D01*
X149500Y78500D02*
Y90433D01*
X38500Y149567D02*
Y160500D01*
X38461Y149528D02*
X38500Y149567D01*
X8500Y78000D02*
Y90433D01*
X8539Y90472D01*
D65*
X322500Y97122D02*
Y101690D01*
Y97122D02*
X323569Y96052D01*
Y76782D02*
Y96052D01*
X320185Y74819D02*
X321606D01*
X323569Y76782D01*
X316000Y108190D02*
X322500Y101690D01*
X316000Y108190D02*
Y119996D01*
X315500Y120496D02*
X316000Y119996D01*
D66*
X280000Y82000D02*
D03*
X270000D02*
D03*
X280000Y92000D02*
D03*
X270000D02*
D03*
X304000Y80000D02*
D03*
Y90000D02*
D03*
X270000Y72000D02*
D03*
X280000D02*
D03*
D67*
X315500Y120496D02*
D03*
Y139000D02*
D03*
Y157504D02*
D03*
D68*
X329061Y92716D02*
D03*
Y66732D02*
D03*
D69*
X276343Y159343D02*
D03*
Y139657D02*
D03*
X256658D02*
D03*
Y159343D02*
D03*
D70*
X326000Y173500D02*
D03*
X329250Y167000D02*
D03*
X326000Y160500D02*
D03*
X329250Y154000D02*
D03*
X326000Y147500D02*
D03*
X329250Y141000D02*
D03*
X326000Y134500D02*
D03*
X329250Y128000D02*
D03*
X326000Y121500D02*
D03*
X329250Y115000D02*
D03*
X326000Y108500D02*
D03*
X329250Y102000D02*
D03*
X326000Y30500D02*
D03*
X329250Y24000D02*
D03*
X326000Y17500D02*
D03*
X329250Y11000D02*
D03*
X326000Y4500D02*
D03*
X319500Y173500D02*
D03*
X322750Y167000D02*
D03*
Y128000D02*
D03*
Y115000D02*
D03*
Y50000D02*
D03*
Y24000D02*
D03*
X319500Y17500D02*
D03*
Y4500D02*
D03*
X313000Y173500D02*
D03*
X316250Y167000D02*
D03*
X313000Y56500D02*
D03*
X316250Y24000D02*
D03*
X313000Y17500D02*
D03*
Y4500D02*
D03*
X306500Y173500D02*
D03*
X309750Y167000D02*
D03*
X306500Y160500D02*
D03*
X309750Y128000D02*
D03*
X306500Y95500D02*
D03*
X309750Y63000D02*
D03*
X306500Y30500D02*
D03*
Y4500D02*
D03*
X300000Y173500D02*
D03*
X303250Y167000D02*
D03*
X300000Y160500D02*
D03*
X303250Y154000D02*
D03*
X300000Y147500D02*
D03*
X303250Y102000D02*
D03*
X300000Y95500D02*
D03*
Y69500D02*
D03*
Y56500D02*
D03*
X303250Y50000D02*
D03*
X300000Y30500D02*
D03*
X303250Y24000D02*
D03*
X293500Y173500D02*
D03*
X296750Y167000D02*
D03*
X293500Y160500D02*
D03*
X296750Y154000D02*
D03*
X293500Y147500D02*
D03*
X296750Y141000D02*
D03*
Y102000D02*
D03*
X293500Y95500D02*
D03*
X296750Y89000D02*
D03*
X293500Y82500D02*
D03*
X296750Y76000D02*
D03*
X293500Y69500D02*
D03*
X296750Y63000D02*
D03*
X293500Y56500D02*
D03*
X296750Y50000D02*
D03*
X293500Y30500D02*
D03*
X296750Y24000D02*
D03*
X293500Y4500D02*
D03*
X287000Y173500D02*
D03*
X290250Y167000D02*
D03*
X287000Y160500D02*
D03*
X290250Y154000D02*
D03*
X287000Y147500D02*
D03*
X290250Y141000D02*
D03*
X287000Y134500D02*
D03*
X290250Y102000D02*
D03*
X287000Y95500D02*
D03*
X290250Y89000D02*
D03*
X287000Y82500D02*
D03*
X290250Y76000D02*
D03*
X287000Y69500D02*
D03*
X290250Y63000D02*
D03*
X287000Y56500D02*
D03*
X290250Y50000D02*
D03*
X287000Y43500D02*
D03*
Y30500D02*
D03*
X290250Y24000D02*
D03*
X287000Y17500D02*
D03*
Y4500D02*
D03*
X280500Y173500D02*
D03*
X283750Y167000D02*
D03*
Y154000D02*
D03*
X280500Y147500D02*
D03*
X283750Y141000D02*
D03*
X280500Y134500D02*
D03*
X283750Y128000D02*
D03*
Y102000D02*
D03*
Y11000D02*
D03*
X280500Y4500D02*
D03*
X274000Y173500D02*
D03*
X277250Y167000D02*
D03*
X274000Y147500D02*
D03*
X277250Y128000D02*
D03*
X274000Y121500D02*
D03*
X277250Y115000D02*
D03*
X274000Y108500D02*
D03*
X277250Y102000D02*
D03*
X274000Y95500D02*
D03*
Y56500D02*
D03*
Y43500D02*
D03*
Y17500D02*
D03*
X277250Y11000D02*
D03*
X274000Y4500D02*
D03*
X267500Y173500D02*
D03*
X270750Y167000D02*
D03*
X267500Y160500D02*
D03*
X270750Y154000D02*
D03*
X267500Y147500D02*
D03*
Y134500D02*
D03*
X270750Y128000D02*
D03*
X267500Y121500D02*
D03*
X270750Y115000D02*
D03*
X267500Y108500D02*
D03*
X270750Y102000D02*
D03*
Y63000D02*
D03*
X267500Y56500D02*
D03*
X270750Y50000D02*
D03*
Y11000D02*
D03*
X267500Y4500D02*
D03*
X261000Y173500D02*
D03*
X264250Y167000D02*
D03*
Y154000D02*
D03*
X261000Y147500D02*
D03*
X264250Y141000D02*
D03*
X261000Y134500D02*
D03*
X264250Y128000D02*
D03*
X261000Y121500D02*
D03*
X264250Y115000D02*
D03*
X261000Y108500D02*
D03*
X264250Y102000D02*
D03*
X261000Y95500D02*
D03*
X264250Y89000D02*
D03*
X261000Y82500D02*
D03*
X264250Y11000D02*
D03*
X254500Y173500D02*
D03*
X257750Y167000D02*
D03*
X254500Y56500D02*
D03*
X257750Y50000D02*
D03*
X248000Y173500D02*
D03*
X251250Y167000D02*
D03*
X248000Y160500D02*
D03*
X251250Y154000D02*
D03*
X248000Y147500D02*
D03*
Y134500D02*
D03*
X251250Y128000D02*
D03*
X248000Y121500D02*
D03*
X251250Y115000D02*
D03*
X248000Y95500D02*
D03*
X251250Y76000D02*
D03*
X248000Y69500D02*
D03*
X241500Y173500D02*
D03*
X244750Y167000D02*
D03*
X241500Y160500D02*
D03*
X244750Y154000D02*
D03*
X241500Y147500D02*
D03*
X244750Y141000D02*
D03*
X241500Y134500D02*
D03*
X244750Y128000D02*
D03*
X241500Y121500D02*
D03*
X244750Y115000D02*
D03*
X235000Y173500D02*
D03*
X238250Y167000D02*
D03*
X235000Y160500D02*
D03*
X238250Y154000D02*
D03*
X235000Y147500D02*
D03*
X238250Y141000D02*
D03*
X235000Y134500D02*
D03*
X238250Y128000D02*
D03*
X235000Y121500D02*
D03*
X238250Y115000D02*
D03*
X228500Y173500D02*
D03*
X231750Y167000D02*
D03*
Y154000D02*
D03*
Y141000D02*
D03*
Y89000D02*
D03*
X222000Y173500D02*
D03*
X225250Y167000D02*
D03*
Y128000D02*
D03*
X222000Y121500D02*
D03*
X225250Y115000D02*
D03*
X222000Y69500D02*
D03*
X215500Y173500D02*
D03*
X218750Y128000D02*
D03*
X215500Y121500D02*
D03*
X218750Y115000D02*
D03*
X215500Y108500D02*
D03*
Y82500D02*
D03*
X218750Y76000D02*
D03*
X215500Y69500D02*
D03*
X209000Y173500D02*
D03*
Y134500D02*
D03*
X212250Y128000D02*
D03*
X209000Y121500D02*
D03*
X212250Y115000D02*
D03*
X209000Y108500D02*
D03*
X212250Y102000D02*
D03*
X209000Y95500D02*
D03*
X212250Y89000D02*
D03*
X209000Y82500D02*
D03*
X212250Y76000D02*
D03*
X209000Y56500D02*
D03*
X202500Y173500D02*
D03*
X205750Y167000D02*
D03*
X202500Y134500D02*
D03*
X205750Y128000D02*
D03*
X202500Y121500D02*
D03*
X205750Y115000D02*
D03*
Y102000D02*
D03*
Y63000D02*
D03*
X202500Y56500D02*
D03*
X205750Y50000D02*
D03*
X196000Y173500D02*
D03*
X199250Y167000D02*
D03*
X196000Y134500D02*
D03*
X199250Y128000D02*
D03*
X196000Y121500D02*
D03*
X199250Y115000D02*
D03*
Y102000D02*
D03*
X196000Y69500D02*
D03*
X199250Y63000D02*
D03*
X196000Y56500D02*
D03*
X199250Y50000D02*
D03*
X196000Y30500D02*
D03*
X189500Y173500D02*
D03*
X192750Y167000D02*
D03*
X189500Y134500D02*
D03*
X192750Y128000D02*
D03*
X189500Y121500D02*
D03*
X192750Y115000D02*
D03*
Y102000D02*
D03*
Y76000D02*
D03*
X189500Y69500D02*
D03*
X192750Y63000D02*
D03*
X189500Y56500D02*
D03*
X192750Y50000D02*
D03*
X189500Y30500D02*
D03*
X183000Y173500D02*
D03*
X186250Y167000D02*
D03*
X183000Y69500D02*
D03*
X186250Y63000D02*
D03*
X183000Y56500D02*
D03*
X186250Y50000D02*
D03*
X183000Y30500D02*
D03*
X176500Y173500D02*
D03*
X179750Y63000D02*
D03*
X176500Y56500D02*
D03*
Y30500D02*
D03*
X170000Y173500D02*
D03*
X173250Y63000D02*
D03*
X170000Y56500D02*
D03*
X173250Y50000D02*
D03*
X170000Y30500D02*
D03*
X173250Y24000D02*
D03*
X163500Y173500D02*
D03*
Y69500D02*
D03*
X166750Y63000D02*
D03*
X163500Y56500D02*
D03*
Y30500D02*
D03*
X157000Y173500D02*
D03*
X160250Y63000D02*
D03*
X157000Y56500D02*
D03*
Y30500D02*
D03*
X150500Y173500D02*
D03*
X153750Y63000D02*
D03*
X150500Y56500D02*
D03*
Y30500D02*
D03*
X144000Y173500D02*
D03*
X147250Y167000D02*
D03*
X144000Y69500D02*
D03*
X147250Y63000D02*
D03*
X144000Y56500D02*
D03*
Y43500D02*
D03*
Y30500D02*
D03*
X137500Y173500D02*
D03*
X140750Y167000D02*
D03*
X137500Y69500D02*
D03*
X140750Y63000D02*
D03*
X137500Y56500D02*
D03*
Y30500D02*
D03*
X131000Y173500D02*
D03*
Y69500D02*
D03*
X134250Y63000D02*
D03*
X131000Y56500D02*
D03*
Y30500D02*
D03*
X124500Y173500D02*
D03*
X127750Y63000D02*
D03*
X124500Y56500D02*
D03*
Y30500D02*
D03*
X118000Y173500D02*
D03*
Y69500D02*
D03*
X121250Y63000D02*
D03*
X118000Y56500D02*
D03*
X121250Y37000D02*
D03*
X118000Y30500D02*
D03*
X111500Y173500D02*
D03*
X114750Y167000D02*
D03*
Y63000D02*
D03*
X111500Y56500D02*
D03*
X114750Y50000D02*
D03*
Y37000D02*
D03*
X111500Y30500D02*
D03*
X114750Y24000D02*
D03*
X105000Y173500D02*
D03*
X108250Y63000D02*
D03*
X105000Y56500D02*
D03*
X108250Y37000D02*
D03*
X105000Y30500D02*
D03*
X98500Y173500D02*
D03*
X101750Y167000D02*
D03*
Y63000D02*
D03*
X98500Y56500D02*
D03*
X101750Y37000D02*
D03*
X98500Y30500D02*
D03*
X92000Y173500D02*
D03*
X95250Y37000D02*
D03*
X92000Y30500D02*
D03*
X95250Y24000D02*
D03*
X85500Y173500D02*
D03*
Y69500D02*
D03*
X88750Y63000D02*
D03*
X85500Y56500D02*
D03*
Y30500D02*
D03*
X79000Y173500D02*
D03*
X72500D02*
D03*
Y69500D02*
D03*
X75750Y63000D02*
D03*
X66000Y173500D02*
D03*
X69250Y63000D02*
D03*
X66000Y30500D02*
D03*
X59500Y173500D02*
D03*
X53000D02*
D03*
Y69500D02*
D03*
Y56500D02*
D03*
X56250Y11000D02*
D03*
X46500Y173500D02*
D03*
X49750Y63000D02*
D03*
Y50000D02*
D03*
X46500Y43500D02*
D03*
X49750Y37000D02*
D03*
X46500Y30500D02*
D03*
X49750Y24000D02*
D03*
X46500Y17500D02*
D03*
X49750Y11000D02*
D03*
X40000Y173500D02*
D03*
Y69500D02*
D03*
Y30500D02*
D03*
X43250Y11000D02*
D03*
X33500Y173500D02*
D03*
X36750Y63000D02*
D03*
X33500Y30500D02*
D03*
X27000Y173500D02*
D03*
X20500D02*
D03*
Y30500D02*
D03*
X14000Y173500D02*
D03*
X7500D02*
D03*
Y56500D02*
D03*
Y4500D02*
D03*
D71*
X216033Y51533D02*
D03*
X227000Y10500D02*
D03*
X222456Y15399D02*
D03*
X236500Y29000D02*
D03*
X264054Y37375D02*
D03*
X246910Y42020D02*
D03*
X257000Y6500D02*
D03*
X242433Y39997D02*
D03*
X245500Y35000D02*
D03*
X264500Y22000D02*
D03*
X251500Y30000D02*
D03*
X264500Y26500D02*
D03*
X263879Y32879D02*
D03*
X245500Y29500D02*
D03*
X231500Y32500D02*
D03*
X251709Y40966D02*
D03*
X193500Y16000D02*
D03*
X230528Y23850D02*
D03*
X249000Y23000D02*
D03*
X252368Y6970D02*
D03*
X301708Y4293D02*
D03*
X295963Y16383D02*
D03*
X235500Y62165D02*
D03*
X223500Y55000D02*
D03*
X220500Y50989D02*
D03*
X226500Y108500D02*
D03*
X231547D02*
D03*
X235213Y84699D02*
D03*
X219963Y166555D02*
D03*
X28000Y15000D02*
D03*
X117500Y138500D02*
D03*
X164500D02*
D03*
Y102000D02*
D03*
X18500Y35500D02*
D03*
X22778Y15000D02*
D03*
X16000Y55500D02*
D03*
X36000Y49500D02*
D03*
X15500Y15000D02*
D03*
X41000Y56000D02*
D03*
X16000Y49500D02*
D03*
X12500Y29500D02*
D03*
X59500Y53000D02*
D03*
X67847Y36217D02*
D03*
X84500Y50500D02*
D03*
X64500Y50000D02*
D03*
X74440Y16360D02*
D03*
X59000Y30500D02*
D03*
X63379Y15841D02*
D03*
X89000Y50500D02*
D03*
X69379Y15879D02*
D03*
X72500Y140500D02*
D03*
X23500Y140000D02*
D03*
Y99500D02*
D03*
X72500D02*
D03*
X117500D02*
D03*
X70500Y167000D02*
D03*
X74992Y166737D02*
D03*
X52500Y166500D02*
D03*
X93500D02*
D03*
X5000Y167000D02*
D03*
X20860Y166749D02*
D03*
X25500Y167000D02*
D03*
X44500D02*
D03*
M02*
